<svg width="308" height="50" viewBox="0 0 308 50" fill="none" xmlns="http://www.w3.org/2000/svg">
<path d="M178.778 18.236C178.407 16.4166 177.765 14.4775 176.616 12.9687C177.132 12.2598 176.996 11.0998 177.011 10.2866C177.034 9.07715 177.037 7.86664 177.013 6.65716C176.993 5.70361 176.865 4.89763 175.905 4.4869C174.964 4.0834 173.751 4.09887 172.75 4.15873C172.333 4.18349 172.022 4.57669 172.05 4.98329C172.09 5.57255 172.096 6.15767 172.095 6.7428C171.787 7.06891 171.573 7.47551 171.53 7.9399C171.477 8.5013 171.423 9.00698 171.615 9.55806C171.683 9.75413 171.783 9.93059 171.887 10.106C171.764 11.1793 171.608 12.2505 171.405 13.3207C171.386 13.4177 171.407 13.5033 171.442 13.5807C171.371 13.5931 171.3 13.6189 171.238 13.6788C168.996 15.8108 167.337 18.3402 165.565 20.8521C163.774 23.3918 161.608 25.7591 159.114 27.6198C157.763 28.627 156.335 29.5228 154.89 30.3886C153.496 31.2235 152.118 32.0924 150.55 32.565C148.891 33.0645 147.162 33.2503 145.453 33.4969C143.692 33.7508 141.932 34.0377 140.165 34.2317C138.357 34.4298 136.529 34.4897 134.755 34.0273C134.413 33.9376 134.075 33.822 133.745 33.6858C133.435 33.3854 133.053 33.1698 132.628 33.1109C131.955 32.6827 131.409 32.1171 130.703 31.7394C129.912 31.3153 129.08 32.1863 129.341 32.9727C129.387 33.1109 129.453 33.2399 129.518 33.3689C128.983 33.8117 128.466 34.3328 128.48 34.9334C128.491 35.4412 128.853 35.7786 129.183 36.114C129.625 36.5609 130.072 37.0046 130.519 37.4463C130.958 37.8797 131.438 38.3204 131.963 38.3544C133.512 42.7641 137.386 46.1758 141.577 48.0447C146.884 50.41 152.928 50.507 158.476 48.9921C163.452 47.633 168.082 44.9323 171.7 41.2553C175.482 37.4112 177.875 32.5145 178.836 27.2276C179.374 24.2679 179.38 21.1833 178.778 18.236ZM172.304 13.6168C172.458 13.2154 172.595 12.8098 172.719 12.4012C172.791 12.4899 172.87 12.5714 172.957 12.6437C173.024 12.7912 173.121 12.9306 173.281 13.0451C174.37 13.8232 175.124 14.7819 175.668 15.8769C175.313 15.397 174.927 14.9244 174.468 14.4723C173.744 13.7592 172.759 13.6612 171.886 13.9574C171.889 13.9326 171.896 13.9068 171.893 13.8831C172.061 13.8913 172.226 13.815 172.304 13.6168ZM159.642 29.5547C159.511 29.6239 159.378 29.692 159.247 29.7611C159.431 29.629 159.615 29.498 159.796 29.3618C159.747 29.4278 159.684 29.4887 159.642 29.5547ZM174.986 5.83569C175.331 5.96985 175.431 6.11536 175.46 6.33827C175.086 6.08337 174.641 5.92446 174.165 5.89969C173.982 5.8904 173.793 5.91001 173.605 5.94406C173.604 5.85015 173.599 5.75623 173.597 5.66232C174.079 5.65407 174.578 5.6778 174.986 5.83569ZM164.889 43.6526C165.977 42.8611 167.006 42.0035 167.949 41.0623C169.049 40.3018 170.085 39.4318 171.085 38.5051C171.029 38.5681 170.979 38.6372 170.922 38.7001C169.195 40.6176 167.142 42.2832 164.889 43.6526Z" fill="#A7A9AC"/>
<path d="M263.343 28.5775C262.35 29.1585 261.709 30.2638 261.699 31.4144C261.696 31.7302 261.735 32.0501 261.821 32.3546C262.006 33.014 262.259 33.3226 262.693 33.8396C263.089 34.2328 263.555 34.5052 264.093 34.6559C264.656 34.8065 265.218 34.8065 265.78 34.6559C265.79 34.6528 265.799 34.6497 265.808 34.6466C266.079 34.5826 266.324 34.4742 266.549 34.3308C266.648 34.2875 266.745 34.241 266.84 34.1915C267.532 33.8262 268.104 33.0233 268.309 32.2823C268.539 31.4454 268.383 30.5754 267.987 29.8211C267.127 28.1833 264.895 27.6694 263.343 28.5775Z" fill="#386641"/>
<path d="M258.026 28.6991C257.481 28.1553 257.089 28.0129 256.386 27.7383C255.922 27.6135 255.459 27.5825 254.994 27.6444C253.733 27.6826 252.577 28.3968 251.898 29.4535C251.151 30.6155 251.176 32.1501 251.87 33.3265C252.553 34.4823 253.87 35.3368 255.243 35.2873C256.103 35.2563 256.868 34.9983 257.545 34.4762C257.99 34.1325 258.2 33.9891 258.521 33.4246C258.684 33.1366 258.824 32.8012 258.934 32.4896C259.167 31.8353 259.164 30.9829 258.981 30.3152C258.809 29.694 258.48 29.1522 258.026 28.6991Z" fill="#386641"/>
<path d="M247.282 28.1338C246.701 27.7963 246.074 27.6271 245.401 27.625C244.728 27.6271 244.1 27.7963 243.519 28.1338C243.413 28.2132 243.297 28.2979 243.179 28.3845C243.038 28.4836 242.887 28.6013 242.76 28.7127C242.66 28.7942 242.57 28.8861 242.489 28.9872C242.421 29.0657 242.351 29.1544 242.284 29.2432C242.166 29.3494 242.072 29.4712 242.013 29.6126C241.859 29.8562 241.755 30.1028 241.679 30.3546C241.671 30.3814 241.665 30.4083 241.658 30.4351C241.64 30.4991 241.624 30.5631 241.61 30.627C241.601 30.6694 241.591 30.7117 241.584 30.755C241.555 30.917 241.532 31.0821 241.514 31.2503C241.497 31.3546 241.484 31.4598 241.484 31.5641C241.484 31.7271 241.506 31.8902 241.55 32.0522C241.572 32.5414 241.718 32.9965 241.987 33.4186C242.178 33.6662 242.37 33.9139 242.562 34.1626C243.733 35.4051 245.75 35.6125 247.198 34.7653C248.322 34.1079 249.22 32.6941 249.131 31.3525C249.129 30.6797 248.96 30.0522 248.623 29.4712C248.288 28.9108 247.842 28.465 247.282 28.1338Z" fill="#386641"/>
<path d="M238.522 29.4103C238.192 28.7932 237.549 28.1843 236.949 27.8386C235.337 26.9098 233.219 27.176 231.911 28.5114C231.413 29.0192 231.112 29.5971 230.892 30.2617C230.77 30.6301 230.73 31.0315 230.73 31.4195C230.73 32.1626 230.931 32.9128 231.303 33.5557C231.489 33.8777 231.712 34.1925 231.987 34.4422C232.506 34.9149 233.063 35.2781 233.75 35.4721C234.456 35.6723 235.165 35.6434 235.872 35.4866C236.24 35.4051 236.647 35.2172 237.009 34.9819C237.354 34.8044 237.678 34.5764 237.978 34.3019C238.349 33.9572 238.611 33.5485 238.765 33.0769C239.003 32.6239 239.113 32.1347 239.093 31.6104C239.132 31.2173 239.066 30.8014 238.949 30.4278C238.852 30.1161 238.677 29.6992 238.522 29.4103Z" fill="#386641"/>
<path d="M227.77 29.6599C227.612 29.4556 227.454 29.2513 227.297 29.0469C227.024 28.5898 226.74 28.3658 226.323 28.0439C226.199 27.9118 226.057 27.8044 225.9 27.724C225.59 27.5929 225.278 27.4618 224.967 27.3297C224.678 27.2472 224.158 27.2069 223.859 27.177C223.153 27.1791 222.495 27.3576 221.885 27.7105C221.298 28.0583 220.829 28.5258 220.481 29.114C220.068 29.76 219.854 30.6414 219.874 31.4019C219.895 32.2399 220.061 32.761 220.439 33.4989C220.544 33.7053 220.673 33.8364 220.83 34.0397C221.228 34.5546 221.368 34.7455 222.023 35.1346C222.666 35.5164 223.382 35.7197 224.13 35.727C224.876 35.7332 225.619 35.5433 226.264 35.1656C227.014 34.7259 227.26 34.34 227.769 33.6516C228.058 33.1976 228.215 32.7074 228.239 32.1821C228.356 31.6568 228.333 31.1315 228.169 30.6052C228.036 30.2894 227.903 29.9747 227.77 29.6599Z" fill="#386641"/>
<path d="M216.323 28.2895C216.081 28.0501 215.796 27.8839 215.469 27.7921C215.008 27.5496 214.511 27.4392 213.979 27.4588C213.636 27.5052 213.294 27.5506 212.951 27.597C212.623 27.6755 212.325 27.8055 212.051 27.9779C211.616 28.1543 211.21 28.4082 210.879 28.7601C210.366 29.3039 210.054 29.8127 209.847 30.5361C209.562 31.533 209.761 32.5949 210.235 33.4917C210.706 34.3823 211.685 35.0387 212.635 35.2987C213.681 35.5846 214.848 35.4494 215.786 34.9066C216.728 34.3617 217.437 33.4092 217.709 32.3555C217.975 31.3204 217.81 30.305 217.319 29.3751C217.076 28.9242 216.744 28.563 216.323 28.2895Z" fill="#386641"/>
<path d="M206.818 29.2429L206.816 29.2398C206.759 29.1573 206.702 29.0758 206.638 28.9984C206.604 28.9571 206.567 28.9168 206.532 28.8776C206.49 28.8302 206.453 28.7806 206.407 28.7352C206.277 28.566 205.813 28.2357 205.628 28.1315C205.084 27.824 204.461 27.6816 203.842 27.6485C203.172 27.6124 202.516 27.8405 201.936 28.1511C201.649 28.3049 201.387 28.5123 201.169 28.7528C200.981 28.9963 200.793 29.2388 200.606 29.4824C200.54 29.6382 200.474 29.794 200.409 29.9499C200.173 30.5082 200.235 30.2945 200.158 30.8786C200.118 31.1377 200.077 31.4359 200.087 31.5071C200.089 32.1851 200.26 32.8157 200.599 33.4018C200.836 33.8394 201.158 34.1903 201.566 34.4545C201.929 34.7867 202.354 35.0097 202.843 35.1263C203.509 35.3048 204.173 35.3048 204.839 35.1263C204.852 35.1242 204.866 35.1221 204.878 35.1201C205.365 35.0045 205.789 34.7816 206.15 34.4503C206.558 34.1861 206.879 33.8363 207.114 33.4008C207.24 33.1025 207.366 32.8053 207.491 32.5071C207.535 32.1758 207.58 31.8435 207.625 31.5123C207.645 30.9973 207.537 30.5164 207.303 30.0706C207.21 29.7517 207.05 29.4762 206.818 29.2429Z" fill="#386641"/>
<path d="M197.955 29.6362C197.941 29.6021 197.924 29.5712 197.9 29.5433C197.701 29.2853 197.502 29.0273 197.301 28.7693C197.175 28.6383 197.033 28.5258 196.875 28.4308C196.742 28.3214 196.605 28.2162 196.465 28.1151C196.445 28.0975 196.421 28.0851 196.395 28.0758C196.089 27.9468 195.782 27.8168 195.476 27.6878C195.165 27.598 194.669 27.5537 194.346 27.532C193.648 27.534 192.998 27.7105 192.395 28.0593C191.945 28.3018 191.584 28.6341 191.312 29.0542C190.97 29.4277 190.74 29.8653 190.62 30.3679C190.459 30.8818 190.437 31.3947 190.551 31.9086C190.575 32.4225 190.728 32.9014 191.009 33.3451C191.353 33.9261 191.815 34.3874 192.395 34.7311C192.703 34.8611 193.01 34.9911 193.319 35.1212C193.346 35.1284 193.373 35.1305 193.399 35.1377C193.809 35.2729 194.24 35.3472 194.665 35.3668C195.189 35.3864 195.678 35.277 196.132 35.0386C196.455 34.9478 196.735 34.7847 196.972 34.5484C197.387 34.2801 197.714 33.9241 197.953 33.4803C198.081 33.1769 198.209 32.8735 198.337 32.5701C198.496 32.0634 198.519 31.5577 198.405 31.051C198.384 30.5454 198.233 30.0738 197.955 29.6362Z" fill="#386641"/>
<path d="M187.678 28.5981C187.313 28.2049 186.879 27.9263 186.379 27.7632C185.898 27.5104 185.38 27.3948 184.824 27.4154C184.746 27.4154 184.67 27.4154 184.592 27.4154C183.498 27.4154 182.528 27.8726 181.739 28.597C180.946 29.3246 180.604 30.4071 180.557 31.4505C180.537 32.0057 180.652 32.5248 180.905 33.0057C181.068 33.5062 181.346 33.9386 181.74 34.3039C182.105 34.6971 182.539 34.9757 183.039 35.1388C183.52 35.3916 184.038 35.5072 184.594 35.4866C184.672 35.4866 184.748 35.4866 184.826 35.4866C185.919 35.4866 186.89 35.0294 187.679 34.3049C188.472 33.5774 188.814 32.4948 188.861 31.4515C188.881 30.8963 188.766 30.3772 188.513 29.8963C188.35 29.3958 188.071 28.9634 187.678 28.5981Z" fill="#386641"/>
<path d="M178.637 28.6466C178.278 28.2596 177.852 27.9861 177.36 27.8261C176.887 27.5774 176.379 27.4639 175.832 27.4846C174.758 27.4846 173.803 27.9335 173.028 28.6455C172.249 29.3607 171.912 30.4247 171.866 31.4494C171.845 31.9953 171.959 32.5051 172.207 32.9778C172.367 33.469 172.641 33.8952 173.028 34.2543C173.387 34.6413 173.812 34.9148 174.304 35.0748C174.777 35.3235 175.286 35.437 175.833 35.4163C176.907 35.4163 177.861 34.9674 178.637 34.2543C179.416 33.5392 179.752 32.4762 179.799 31.4504C179.819 30.9045 179.706 30.3947 179.457 29.9221C179.297 29.4319 179.024 29.0067 178.637 28.6466Z" fill="#386641"/>
<path d="M161.821 31.3442C161.819 31.3556 161.818 31.3958 161.818 31.4846C161.816 31.4361 161.821 31.3907 161.821 31.3442Z" fill="#386641"/>
<path d="M170.457 29.2533C170.306 28.8993 170.072 28.5928 169.76 28.3338C169.465 28.1068 169.171 27.8797 168.878 27.6527C168.537 27.4329 168.138 27.2678 167.741 27.1739C167.534 27.1233 167.323 27.0923 167.108 27.0841C166.897 27.0552 166.685 27.0263 166.474 26.9984C166.242 26.9953 166.021 27.048 165.785 27.0799C165.07 27.1759 165.229 27.1285 164.572 27.4061C163.964 27.663 163.637 27.8271 163.112 28.3586C162.68 28.759 162.376 29.2327 162.198 29.7806C161.943 30.2657 161.822 30.7879 161.821 31.3431C161.834 31.277 161.887 32.4039 161.989 32.7084C162.194 33.4421 162.566 34.0788 163.102 34.6196C163.643 35.1562 164.28 35.5277 165.013 35.7331C165.233 35.7682 165.307 35.7775 165.649 35.8239C166.04 35.9292 166.433 35.9292 166.824 35.8239C167.041 35.8466 167.245 35.8177 167.434 35.7352C167.556 35.7063 167.67 35.6691 167.776 35.6268C167.975 35.5669 168.17 35.4937 168.358 35.3957C168.542 35.3203 168.726 35.2429 168.908 35.1635C169.557 34.7796 170.073 34.2625 170.457 33.6144C170.603 33.2708 170.747 32.9261 170.893 32.5825C171.072 32.0087 171.098 31.4339 170.97 30.8601C170.944 30.2843 170.773 29.7497 170.457 29.2533Z" fill="#386641"/>
<path d="M276.678 24.2101C274.806 24.306 272.949 25.0883 271.649 26.435C269.52 28.2657 269.047 31.5485 270.129 34.113C271.26 36.793 273.901 38.7816 276.891 38.7011C279.542 38.6299 282.223 37.1263 283.37 34.6774C285.597 29.9262 282.161 23.9273 276.678 24.2101Z" fill="#386641"/>
<path d="M42.657 28.5775C41.1049 27.6694 38.8727 28.1833 38.0141 29.8211C37.6178 30.5765 37.462 31.4464 37.6921 32.2823C37.8964 33.0233 38.4692 33.8262 39.1606 34.1915C39.2556 34.241 39.3525 34.2885 39.4516 34.3308C39.6756 34.4742 39.9212 34.5826 40.1916 34.6466C40.2008 34.6497 40.2101 34.6528 40.2194 34.6559C40.7819 34.8065 41.3443 34.8065 41.9067 34.6559C42.4444 34.5052 42.9119 34.2328 43.3071 33.8396C43.7405 33.3226 43.9934 33.014 44.1791 32.3546C44.2648 32.0501 44.304 31.7292 44.3009 31.4144C44.2916 30.2638 43.6508 29.1585 42.657 28.5775Z" fill="#386641"/>
<path d="M51.0065 27.6444C50.5421 27.5825 50.0777 27.6135 49.6143 27.7383C48.9105 28.0129 48.5183 28.1553 47.9745 28.6991C47.5204 29.1522 47.1912 29.694 47.0199 30.3142C46.8362 30.9829 46.8341 31.8353 47.0663 32.4886C47.1768 32.8002 47.3171 33.1356 47.4802 33.4235C47.8011 33.988 48.0106 34.1325 48.4554 34.4751C49.1313 34.9973 49.8981 35.2553 50.7578 35.2863C52.1303 35.3358 53.4471 34.4803 54.1302 33.3255C54.8248 32.149 54.8506 30.6145 54.1034 29.4525C53.4233 28.3968 52.2675 27.6826 51.0065 27.6444Z" fill="#386641"/>
<path d="M64.4161 30.756C64.4088 30.7126 64.3985 30.6703 64.3903 30.628C64.3758 30.563 64.3603 30.499 64.3428 30.4361C64.3345 30.4092 64.3294 30.3814 64.3211 30.3556C64.2458 30.1027 64.1415 29.8561 63.9878 29.6136C63.9279 29.4722 63.835 29.3504 63.7164 29.2441C63.6493 29.1554 63.5801 29.0676 63.512 28.9882C63.4305 28.887 63.3407 28.7962 63.2406 28.7137C63.1137 28.6022 62.963 28.4846 62.8216 28.3855C62.705 28.2988 62.5874 28.2142 62.4811 28.1347C61.9001 27.7973 61.2726 27.628 60.5998 27.626C59.9269 27.628 59.2995 27.7973 58.7185 28.1347C58.1581 28.466 57.7123 28.9118 57.3811 29.4722C57.0436 30.0532 56.8743 30.6806 56.8723 31.3535C56.7835 32.6961 57.6803 34.1089 58.8052 34.7663C60.2541 35.6145 62.2706 35.4071 63.4419 34.1636C63.6338 33.9159 63.8247 33.6682 64.0167 33.4195C64.285 32.9974 64.4305 32.5423 64.4532 32.0532C64.4966 31.8901 64.5193 31.7281 64.5193 31.565C64.5193 31.4608 64.5069 31.3556 64.4883 31.2513C64.4677 31.0831 64.446 30.918 64.4161 30.756Z" fill="#386641"/>
<path d="M74.0889 28.5114C72.7803 27.176 70.6627 26.9087 69.0508 27.8385C68.4502 28.1842 67.8072 28.7931 67.477 29.4102C67.3222 29.6992 67.1468 30.1161 67.0498 30.4298C66.9332 30.8034 66.8661 31.2193 66.9053 31.6125C66.8857 32.1367 66.9951 32.6248 67.2335 33.0789C67.3872 33.5505 67.6494 33.9592 68.0209 34.3039C68.3201 34.5794 68.6442 34.8065 68.9899 34.984C69.3511 35.2193 69.7587 35.406 70.1261 35.4886C70.833 35.6454 71.542 35.6743 72.2489 35.4741C72.9351 35.2801 73.4924 34.9169 74.0115 34.4442C74.286 34.1935 74.51 33.8787 74.6957 33.5578C75.0683 32.9148 75.2685 32.1646 75.2685 31.4216C75.2685 31.0346 75.2282 30.6321 75.1064 30.2637C74.8877 29.597 74.5863 29.0191 74.0889 28.5114Z" fill="#386641"/>
<path d="M84.1145 27.7105C83.5046 27.3566 82.8462 27.1791 82.1403 27.177C81.841 27.208 81.3209 27.2472 81.032 27.3297C80.7213 27.4608 80.4097 27.5919 80.099 27.724C79.9411 27.8044 79.8008 27.9118 79.6759 28.0439C79.26 28.3658 78.9752 28.5898 78.7028 29.0469C78.5449 29.2513 78.387 29.4556 78.2291 29.6599C78.096 29.9747 77.9639 30.2895 77.8307 30.6042C77.6656 31.1295 77.6429 31.6558 77.7606 32.1811C77.7843 32.7074 77.9412 33.1976 78.2301 33.6506C78.7389 34.3379 78.9855 34.7249 79.7358 35.1645C80.3808 35.5422 81.1238 35.7321 81.8689 35.7259C82.6171 35.7197 83.3323 35.5164 83.9762 35.1336C84.6315 34.7445 84.7718 34.5536 85.1692 34.0386C85.326 33.8353 85.455 33.7032 85.5603 33.4979C85.938 32.76 86.1052 32.2389 86.1258 31.4009C86.1454 30.6403 85.9318 29.759 85.518 29.113C85.1702 28.5258 84.7017 28.0583 84.1145 27.7105Z" fill="#386641"/>
<path d="M95.1217 28.761C94.7894 28.4091 94.3849 28.1563 93.9494 27.9788C93.6759 27.8064 93.3777 27.6754 93.0495 27.598C92.7069 27.5515 92.3643 27.5061 92.0216 27.4597C91.4891 27.4391 90.9928 27.5505 90.5315 27.793C90.2043 27.8849 89.9195 28.051 89.678 28.2904C89.257 28.5629 88.9247 28.9251 88.6822 29.3761C88.1909 30.3059 88.0258 31.3214 88.2921 32.3564C88.5635 33.4111 89.2724 34.3626 90.2146 34.9075C91.1527 35.4503 92.3209 35.5855 93.3653 35.2996C94.3157 35.0396 95.2951 34.3832 95.7657 33.4926C96.2393 32.5959 96.4396 31.5339 96.1537 30.5371C95.9463 29.8136 95.6346 29.3049 95.1217 28.761Z" fill="#386641"/>
<path d="M105.593 29.948C105.528 29.7921 105.462 29.6363 105.396 29.4805C105.208 29.2369 105.02 28.9944 104.832 28.7509C104.615 28.5104 104.353 28.303 104.066 28.1492C103.485 27.8386 102.829 27.6116 102.16 27.6466C101.54 27.6807 100.917 27.8231 100.373 28.1296C100.188 28.2338 99.7241 28.5641 99.5941 28.7333C99.5487 28.7787 99.5115 28.8283 99.4692 28.8757C99.4331 28.9149 99.3969 28.9542 99.3639 28.9965C99.2999 29.0749 99.2411 29.1554 99.1854 29.238L99.1833 29.2411C98.9511 29.4743 98.7912 29.7498 98.7024 30.0666C98.4682 30.5125 98.3608 30.9933 98.3804 31.5083C98.4248 31.8396 98.4692 32.1719 98.5146 32.5031C98.6405 32.8014 98.7664 33.0986 98.8913 33.3968C99.1266 33.8334 99.4475 34.1832 99.8552 34.4464C100.216 34.7766 100.641 35.0005 101.128 35.1161C101.141 35.1182 101.154 35.1202 101.167 35.1223C101.832 35.3008 102.497 35.3008 103.163 35.1223C103.651 35.0057 104.077 34.7828 104.439 34.4505C104.848 34.1863 105.17 33.8344 105.406 33.3979C105.746 32.8127 105.917 32.1812 105.919 31.5032C105.927 31.4319 105.887 31.1337 105.848 30.8747C105.766 30.2926 105.829 30.5063 105.593 29.948Z" fill="#386641"/>
<path d="M114.688 29.0554C114.416 28.6343 114.054 28.3031 113.603 28.0605C113.001 27.7107 112.351 27.5353 111.653 27.5332C111.33 27.5549 110.834 27.5993 110.523 27.689C110.216 27.818 109.91 27.9481 109.604 28.077C109.578 28.0863 109.555 28.0998 109.533 28.1163C109.393 28.2174 109.257 28.3227 109.124 28.4321C108.966 28.527 108.823 28.6395 108.697 28.7705C108.498 29.0285 108.299 29.2865 108.099 29.5445C108.075 29.5724 108.058 29.6034 108.044 29.6374C107.766 30.075 107.615 30.5466 107.592 31.0533C107.479 31.56 107.501 32.0657 107.66 32.5724C107.788 32.8758 107.916 33.1792 108.044 33.4826C108.284 33.9263 108.611 34.2824 109.026 34.5507C109.263 34.787 109.544 34.95 109.866 35.0409C110.32 35.2792 110.809 35.3886 111.333 35.369C111.757 35.3494 112.189 35.2751 112.598 35.1399C112.625 35.1327 112.652 35.1306 112.679 35.1234C112.986 34.9934 113.294 34.8633 113.601 34.7333C114.182 34.3897 114.644 33.9274 114.987 33.3474C115.27 32.9036 115.423 32.4248 115.446 31.9109C115.56 31.3969 115.537 30.884 115.376 30.3701C115.26 29.8665 115.03 29.4289 114.688 29.0554Z" fill="#386641"/>
<path d="M121.407 27.4154C121.33 27.4154 121.253 27.4154 121.176 27.4154C120.621 27.3948 120.102 27.5104 119.621 27.7632C119.12 27.9263 118.688 28.2039 118.321 28.5981C117.928 28.9634 117.65 29.3968 117.487 29.8973C117.234 30.3782 117.118 30.8963 117.139 31.4525C117.185 32.4959 117.529 33.5784 118.32 34.306C119.11 35.0304 120.081 35.4876 121.174 35.4876C121.251 35.4876 121.328 35.4876 121.405 35.4876C121.961 35.5082 122.479 35.3926 122.96 35.1398C123.461 34.9768 123.893 34.6991 124.26 34.3049C124.653 33.9396 124.931 33.5062 125.094 33.0067C125.347 32.5258 125.463 32.0077 125.442 31.4515C125.396 30.4082 125.052 29.3256 124.261 28.5981C123.471 27.8726 122.5 27.4154 121.407 27.4154Z" fill="#386641"/>
<path d="M130.167 27.4855C129.621 27.4649 129.111 27.5784 128.638 27.8271C128.147 27.9871 127.721 28.2606 127.362 28.6476C126.975 29.0067 126.701 29.4319 126.541 29.9241C126.293 30.3968 126.179 30.9065 126.2 31.4525C126.246 32.4783 126.583 33.5422 127.362 34.2564C128.138 34.9684 129.091 35.4184 130.166 35.4184C130.712 35.439 131.221 35.3255 131.694 35.0768C132.186 34.9168 132.612 34.6434 132.971 34.2564C133.358 33.8972 133.631 33.4721 133.791 32.9798C134.04 32.5072 134.153 31.9974 134.133 31.4514C134.086 30.4257 133.75 29.3617 132.971 28.6476C132.196 27.9345 131.242 27.4855 130.167 27.4855Z" fill="#386641"/>
<path d="M144.183 31.4846C144.183 31.3958 144.182 31.3556 144.18 31.3442C144.179 31.3907 144.184 31.4361 144.183 31.4846Z" fill="#386641"/>
<path d="M142.888 28.3595C142.363 27.8281 142.036 27.664 141.428 27.407C140.769 27.1294 140.929 27.1769 140.213 27.0809C139.979 27.0489 139.757 26.9963 139.525 26.9994C139.313 27.0273 139.102 27.0551 138.89 27.085C138.675 27.0943 138.465 27.1243 138.257 27.1748C137.86 27.2687 137.462 27.4328 137.12 27.6537C136.826 27.8807 136.532 28.1077 136.239 28.3348C135.926 28.5928 135.693 28.8993 135.541 29.2543C135.225 29.7496 135.055 30.2852 135.028 30.86C134.899 31.4338 134.925 32.0086 135.106 32.5824C135.251 32.926 135.396 33.2697 135.541 33.6144C135.925 34.2635 136.442 34.7795 137.09 35.1634C137.273 35.2429 137.456 35.3203 137.64 35.3956C137.828 35.4947 138.024 35.5669 138.222 35.6267C138.33 35.6691 138.442 35.7062 138.565 35.7351C138.754 35.8166 138.957 35.8466 139.175 35.8239C139.566 35.9291 139.958 35.9291 140.349 35.8239C140.693 35.7774 140.765 35.7681 140.985 35.733C141.719 35.5277 142.355 35.1562 142.896 34.6195C143.433 34.0798 143.804 33.442 144.01 32.7083C144.112 32.4039 144.164 31.277 144.178 31.343C144.178 30.7878 144.056 30.2666 143.8 29.7806C143.624 29.2336 143.319 28.7599 142.888 28.3595Z" fill="#386641"/>
<path d="M29.3216 24.2101C23.8387 23.9273 20.4021 29.9272 22.6281 34.6764C23.7757 37.1253 26.4578 38.6289 29.108 38.7001C32.0976 38.7806 34.7384 36.793 35.8695 34.1119C36.951 31.5485 36.4783 28.2647 34.3494 26.434C33.0511 25.0873 31.1936 24.306 29.3216 24.2101Z" fill="#386641"/>
<path d="M170.339 10.3432C169.206 9.22767 167.427 9.60743 166.455 10.6693C165.814 11.0739 165.292 11.6972 165.058 12.4825C164.918 12.9531 164.752 13.4185 164.574 13.8798C162.165 17.9283 159.252 21.6011 155.893 24.9519C155.74 25.1037 155.616 25.2626 155.514 25.4267C153.425 26.5278 151.327 27.6268 149.209 28.6568C148.633 28.9364 148.048 29.2099 147.453 29.4638C146.311 29.631 145.169 29.8002 144.026 29.9705C141.522 30.3337 139.015 30.6898 136.506 31.02C135.753 31.1191 135.139 31.537 134.727 32.0943C133.939 31.8982 133.164 31.6629 132.413 31.3812C130.77 30.763 128.437 32.6258 129.758 34.2893C129.699 34.7248 129.794 35.1923 130.084 35.6464C130.606 36.4658 131.254 37.1902 131.992 37.8053C131.895 39.0633 132.43 40.3935 133.765 41.1303C140.562 44.8836 149.275 45.3883 156.367 42.119C159.195 40.8145 161.699 39.054 163.822 36.9333C165.273 35.9302 166.64 34.7836 167.917 33.4926C171.04 30.3306 175.103 24.7548 173.44 20.2358C173.993 16.6982 173.255 13.2163 170.339 10.3432Z" fill="#FFE65C"/>
<path d="M129.861 29.8106C129.438 29.2688 128.784 28.8767 128.07 28.9664C127.546 29.0325 127.064 29.2502 126.715 29.661C126.385 30.05 126.206 30.6011 126.247 31.1099C126.306 31.8385 126.744 32.4009 127.368 32.7435C127.457 32.7961 127.553 32.8302 127.656 32.8488C127.883 32.9458 128.121 32.9809 128.37 32.9602C128.396 32.9685 128.423 32.9778 128.449 32.986C128.668 33.0355 128.884 33.0283 129.095 32.9633C129.43 32.89 129.77 32.7229 129.986 32.4442C130.159 32.2223 130.279 31.9716 130.344 31.6981C130.419 31.3854 130.358 31.0479 130.23 30.7507C130.178 30.4153 130.071 30.08 129.861 29.8106Z" fill="#9E8109"/>
<path d="M171.75 6.53507C171.759 6.52269 171.769 6.51133 171.768 6.49378C171.77 6.43187 171.764 6.44735 171.75 6.53507Z" fill="#9E8109"/>
<path d="M172.437 4.08321C172.329 2.81903 171.288 1.83762 170.037 1.77054C168.88 1.70862 167.52 2.54866 167.403 3.81077C167.35 4.37217 167.297 4.87783 167.488 5.42891C167.605 5.7643 167.822 6.04294 167.974 6.3546C167.991 6.40001 168.021 6.47844 168.036 6.53933C168.1 6.79216 168.127 7.06047 168.172 7.3164C168.318 8.15953 168.893 8.84889 169.797 8.88295C170.638 8.91494 171.424 8.35974 171.582 7.5001C171.629 7.24623 171.674 6.99133 171.723 6.73747C171.734 6.64769 171.743 6.58061 171.751 6.53314C171.734 6.55378 171.709 6.57029 171.664 6.57545C171.752 6.25553 172.088 5.98928 172.215 5.66111C172.416 5.13893 172.484 4.6508 172.437 4.08321Z" fill="#9E8109"/>
<path d="M166.816 25.1947C164.854 25.5734 164.125 27.4423 162.878 28.8355C161.661 30.1936 160.259 31.2039 158.827 32.3081C156.98 33.7333 159.053 36.7291 160.886 35.3236C161.361 35.0821 161.822 34.8158 162.269 34.5269C162.54 34.3937 162.808 34.2586 163.057 34.1007C163.704 33.691 164.323 33.239 164.899 32.7343C165.513 32.1967 166.062 31.6146 166.558 30.9893C167.764 29.8324 169.065 28.3371 168.76 26.8479C168.581 25.9769 167.864 24.9914 166.816 25.1947Z" fill="white"/>
<path d="M167.111 9.55071C164.869 11.6828 163.21 14.2122 161.438 16.724C159.647 19.2637 157.481 21.6311 154.987 23.4917C153.636 24.499 152.208 25.3957 150.763 26.2605C149.369 27.0954 147.991 27.9643 146.423 28.437C144.763 28.9375 143.035 29.1222 141.325 29.3689C139.564 29.6227 137.804 29.9096 136.037 30.1036C134.229 30.3018 132.401 30.3616 130.627 29.8993C129.912 29.7125 129.207 29.4205 128.576 29.0345C127.866 28.6011 127.308 28.0036 126.574 27.6104C125.783 27.1862 124.951 28.0572 125.212 28.8436C125.694 30.2945 127.315 31.2171 128.674 31.7486C130.242 32.3626 131.886 32.5886 133.564 32.5824C135.407 32.5752 137.233 32.2594 139.047 31.9736C140.964 31.6712 142.897 31.4153 144.802 31.0448C148.245 30.375 151.227 28.3018 154.103 26.373C155.562 25.3937 156.952 24.3163 158.213 23.0903C159.378 21.9572 160.33 20.6208 161.221 19.2689C163.28 16.1492 165.179 12.8334 167.668 10.0275C167.99 9.66527 167.445 9.23183 167.111 9.55071Z" fill="#386641"/>
<path d="M126.228 28.5577C125.617 29.1129 124.331 29.8611 124.351 30.8043C124.362 31.3121 124.724 31.6506 125.054 31.9849C125.496 32.4318 125.943 32.8755 126.39 33.3172C127.052 33.9705 127.805 34.6629 128.669 33.9085C129.059 33.569 129.392 33.1191 129.737 32.7331C130.184 32.2357 130.616 31.8642 130.755 31.1955C130.873 30.632 130.306 30.2161 129.793 30.3771C129.204 30.5618 128.886 31.0025 128.478 31.4473C128.258 31.6888 128.037 31.9302 127.816 32.1728C127.743 32.2533 127.669 32.3337 127.595 32.4142C127.307 32.7001 127.297 32.7331 127.566 32.5112C127.8 32.5226 128.035 32.535 128.269 32.5463C128.028 32.4669 127.702 31.9602 127.5 31.7692C127.158 31.4462 126.816 31.1222 126.473 30.7992C126.436 30.7641 126.029 30.3596 126.017 30.3678C126.028 30.5959 126.037 30.825 126.047 31.0531C126.11 30.9726 126.173 30.8931 126.237 30.8126C126.592 30.5639 126.912 29.9571 127.184 29.6114C127.664 29.0066 126.858 27.985 126.228 28.5577Z" fill="#386641"/>
<path d="M127.583 33.4327C128.924 38.2263 133.01 41.9352 137.45 43.9145C142.757 46.2798 148.801 46.3768 154.349 44.8619C159.325 43.5028 163.955 40.8021 167.573 37.1251C171.355 33.281 173.748 28.3843 174.709 23.0974C175.247 20.1408 175.253 17.0552 174.651 14.1079C174.098 11.3948 172.969 8.39171 170.404 6.99338C169.267 6.37419 168.078 8.1461 169.154 8.91493C171.057 10.2751 171.959 12.1698 172.451 14.4205C172.964 16.7714 173.047 19.2254 172.772 21.6124C172.219 26.4204 170.027 30.9838 166.797 34.57C160.335 41.7443 149.39 45.5368 140.006 42.5306C135.053 40.9445 131.188 37.3449 128.697 32.8517C128.328 32.1923 127.401 32.7857 127.583 33.4327Z" fill="#386641"/>
<path d="M168.176 9.48781C169.255 6.69733 169.59 3.70975 169.448 0.731453C169.215 1.00596 168.981 1.28047 168.747 1.55498C169.399 1.52918 170.239 1.46622 170.859 1.70771C171.392 1.91513 171.36 2.12773 171.345 2.65404C171.333 3.02452 171.315 3.39397 171.296 3.76445C171.258 4.53225 171.209 5.299 171.151 6.06577C171.103 6.6994 171.198 7.54459 170.863 8.10186C170.305 9.02754 171.654 9.65912 172.317 9.04819C173.042 8.37947 172.867 7.05544 172.884 6.15968C172.906 4.9502 172.909 3.73969 172.885 2.53021C172.865 1.57666 172.737 0.770667 171.777 0.359939C170.836 -0.0435653 169.623 -0.0280786 168.622 0.0317763C168.206 0.0565438 167.894 0.449733 167.922 0.855301C168.115 3.66848 167.802 6.43108 167.277 9.19369C167.18 9.70761 167.975 10.0038 168.176 9.48781Z" fill="#386641"/>
<path d="M168.831 10.7539C168.608 12.2689 168.02 13.6713 167.463 15.0872C166.914 16.4845 166.276 17.8023 165.55 19.1161C164.114 21.7146 162.194 24.0634 159.972 26.0314C157.631 28.1046 154.95 29.7909 152.05 30.9642C148.727 32.3089 145.049 32.9013 141.491 33.1768C139.46 33.3347 137.414 33.377 135.378 33.2913C134.385 33.2501 133.389 33.1985 132.396 33.1396C131.34 33.0767 130.229 32.8404 129.178 32.9931C128.411 33.1056 128.166 34.1345 128.897 34.505C129.76 34.9415 130.753 35.0447 131.699 35.2015C132.682 35.3646 133.662 35.4977 134.657 35.5596C136.548 35.6752 138.45 35.7237 140.341 35.5978C144.257 35.3367 148.056 34.4915 151.697 33.021C157.896 30.5184 163.276 26.568 166.756 20.7703C167.647 19.2863 168.293 17.6878 168.792 16.0315C169.306 14.3225 169.3 12.5496 169.372 10.7828C169.384 10.4753 168.876 10.4536 168.831 10.7539Z" fill="#386641"/>
<path d="M133.733 35.6414C133.572 36.5134 133.591 37.8158 133.99 38.6197C134.133 38.9066 134.654 38.9633 134.696 38.5629C134.746 38.0892 134.663 37.6507 134.615 37.1811C134.564 36.6837 134.585 36.178 134.522 35.6837C134.466 35.2493 133.818 35.1853 133.733 35.6414Z" fill="#386641"/>
<path d="M135.398 36.5442C135.371 37.5391 135.409 38.9126 136.142 39.6639C136.499 40.0303 137.026 39.6299 137.028 39.2099C137.029 38.7486 136.809 38.3327 136.686 37.8951C136.555 37.4245 136.489 36.9457 136.457 36.4586C136.411 35.762 135.416 35.8765 135.398 36.5442Z" fill="#386641"/>
<path d="M137.982 37.4999C137.994 38.5659 138.103 40.2739 139.036 40.9725C139.444 41.278 140.065 41.0076 140.024 40.4658C139.983 39.9075 139.647 39.4214 139.424 38.9178C139.191 38.3936 139.007 37.8642 138.874 37.3048C138.749 36.7723 137.977 37.0128 137.982 37.4999Z" fill="#386641"/>
<path d="M141.442 38.1748C141.115 38.6671 141.375 39.2811 141.618 39.7734C141.876 40.2966 142.182 40.8136 142.801 40.8972C143.041 40.9292 143.345 40.7372 143.291 40.4576C143.248 40.2285 143.212 40.0551 143.077 39.857C142.948 39.6671 142.796 39.4968 142.68 39.2987C142.463 38.9313 142.445 38.3792 142.092 38.1232C141.909 37.9901 141.589 37.955 141.442 38.1748Z" fill="#386641"/>
<path d="M144.647 39.1965C144.537 39.8466 145.083 40.2863 145.486 40.7207C145.864 41.1294 146.314 41.6495 146.93 41.569C147.36 41.5122 147.638 41.1769 147.631 40.7455C147.621 40.1583 147.061 39.7878 146.665 39.4297C146.255 39.0582 145.925 38.568 145.317 38.5969C144.998 38.6114 144.699 38.8838 144.647 39.1965Z" fill="#386641"/>
<path d="M150.878 40.9033C151.931 41.0374 153.187 41.3893 154.241 41.218C154.861 41.1169 155.182 40.1747 154.486 39.8992C153.478 39.4998 152.225 39.5565 151.153 39.4616C150.228 39.378 149.93 40.7815 150.878 40.9033Z" fill="#386641"/>
<path d="M286.038 7.44048C287.211 7.18455 288.195 8.14429 288.388 9.21445C288.634 9.73147 288.716 10.3403 288.55 10.9358C288.45 11.2929 288.368 11.6571 288.296 12.0235C288.203 15.5807 288.584 19.1019 289.379 22.5962C289.415 22.7551 289.43 22.9068 289.429 23.0523C290.32 24.5982 291.217 26.1451 292.156 27.658C292.411 28.0687 292.675 28.4795 292.952 28.8819C293.615 29.4495 294.276 30.0181 294.938 30.5878C296.392 31.8293 297.849 33.0676 299.32 34.2895C299.761 34.6569 299.985 35.1708 300.023 35.693C300.606 35.886 301.195 36.048 301.788 36.1698C303.086 36.4371 303.826 38.5671 302.312 39.0985C302.174 39.3999 301.925 39.661 301.557 39.8343C300.894 40.147 300.187 40.3493 299.468 40.4442C299.024 41.2874 298.145 41.921 296.995 41.8539C291.139 41.5123 285.369 38.3215 282.157 33.3741C280.875 31.401 279.986 29.2669 279.484 27.0553C278.961 25.8304 278.55 24.5456 278.255 23.2071C277.534 19.9274 277.186 14.7273 280.07 12.5106C281.142 10.0266 283.017 8.10095 286.038 7.44048Z" fill="#FFE65C"/>
<path d="M304.05 36.1948C304.538 36.0194 305.114 36.0318 305.535 36.3775C305.844 36.6313 306.064 36.9647 306.121 37.3671C306.176 37.749 306.067 38.1731 305.835 38.4817C305.504 38.9234 304.999 39.106 304.461 39.073C304.384 39.0709 304.308 39.0544 304.234 39.0235C304.05 38.9935 303.884 38.9202 303.733 38.8067C303.713 38.8016 303.693 38.7964 303.672 38.7913C303.511 38.7345 303.377 38.6427 303.269 38.5157C303.084 38.3341 302.935 38.0905 302.909 37.8243C302.888 37.6127 302.912 37.4043 302.981 37.203C303.059 36.9739 303.235 36.782 303.435 36.6437C303.604 36.4538 303.808 36.2825 304.05 36.1948Z" fill="#9E8109"/>
<path d="M286.672 4.43944C286.671 4.42809 286.67 4.41673 286.677 4.40538C286.701 4.36513 286.698 4.37649 286.672 4.43944Z" fill="#9E8109"/>
<path d="M287.222 2.59529C287.801 1.8306 288.861 1.62318 289.686 2.08551C290.451 2.51275 290.98 3.59735 290.547 4.4508C290.354 4.83057 290.185 5.17524 289.84 5.45078C289.63 5.61796 289.38 5.70878 289.157 5.84706C289.127 5.86874 289.076 5.90691 289.042 5.93994C288.9 6.07513 288.774 6.23613 288.643 6.38164C288.209 6.86151 287.564 7.06996 286.973 6.72734C286.423 6.40846 286.144 5.73768 286.39 5.12468C286.462 4.94305 286.536 4.76246 286.608 4.58083C286.637 4.51892 286.657 4.47247 286.672 4.43944C286.674 4.45905 286.683 4.47969 286.71 4.50136C286.783 4.26194 286.675 3.95648 286.726 3.69539C286.809 3.27847 286.962 2.93791 287.222 2.59529Z" fill="#9E8109"/>
<path d="M282.302 18.3484C283.402 19.3814 283.114 20.8696 283.351 22.2617C283.581 23.6198 284.069 24.8303 284.539 26.113C285.144 27.7683 282.612 28.8457 282.008 27.21C281.802 26.8643 281.615 26.5083 281.446 26.144C281.326 25.95 281.209 25.755 281.113 25.5537C280.865 25.0315 280.652 24.4928 280.487 23.9376C280.312 23.3463 280.195 22.754 280.131 22.1544C279.827 20.9284 279.597 19.4496 280.393 18.6209C280.858 18.1369 281.714 17.7963 282.302 18.3484Z" fill="white"/>
<path d="M288.42 8.23494C288.993 10.5001 289.033 12.786 289.151 15.1048C289.271 17.4485 289.701 19.8344 290.545 22.0284C291.002 23.2162 291.553 24.3648 292.127 25.5C292.681 26.5959 293.211 27.7053 294.022 28.6403C294.881 29.6289 295.911 30.4442 296.904 31.2904C297.926 32.1624 298.935 33.0551 299.986 33.891C301.062 34.7465 302.205 35.5215 303.525 35.9416C304.057 36.1108 304.625 36.2078 305.184 36.2161C305.813 36.2253 306.409 36.0685 307.037 36.1129C307.714 36.1614 307.893 37.053 307.409 37.4503C306.517 38.183 305.109 38.119 304.026 37.9116C302.777 37.6722 301.635 37.1541 300.566 36.473C299.392 35.7259 298.353 34.7878 297.308 33.8735C296.205 32.9075 295.074 31.9643 294.006 30.9602C292.076 29.1449 291.007 26.6176 289.947 24.2265C289.409 23.0129 288.955 21.7642 288.645 20.4722C288.358 19.2782 288.288 18.0418 288.263 16.8179C288.205 13.9954 288.329 11.1111 287.87 8.31543C287.812 7.95423 288.334 7.89645 288.42 8.23494Z" fill="#386641"/>
<path d="M306.877 36.8589C307.043 37.4595 307.563 38.4564 307.17 39.0508C306.958 39.3708 306.591 39.4409 306.244 39.5214C305.782 39.6287 305.318 39.7319 304.854 39.8341C304.168 39.9848 303.408 40.1231 303.16 39.2933C303.047 38.9187 303.016 38.4977 302.951 38.1117C302.867 37.6143 302.741 37.2026 302.921 36.7196C303.073 36.312 303.602 36.2748 303.866 36.5844C304.168 36.9404 304.193 37.3501 304.274 37.798C304.318 38.0415 304.361 38.2851 304.405 38.5276C304.42 38.6091 304.434 38.6896 304.449 38.7712C304.518 39.0704 304.511 39.0942 304.428 38.8444C304.273 38.7578 304.119 38.67 303.965 38.5834C304.151 38.6298 304.563 38.4368 304.769 38.3966C305.117 38.3274 305.466 38.2593 305.815 38.1902C305.852 38.1829 306.276 38.088 306.28 38.0983C306.181 38.2407 306.083 38.3821 305.985 38.5245C305.977 38.4482 305.969 38.3718 305.962 38.2944C305.835 37.9931 305.875 37.476 305.841 37.1448C305.778 36.5658 306.706 36.2387 306.877 36.8589Z" fill="#386641"/>
<path d="M304.046 39.4275C301.257 41.9486 297.151 42.672 293.517 42.1467C289.174 41.5193 285.272 39.1447 282.338 35.9394C279.707 33.0653 277.838 29.474 277.009 25.666C276.142 21.6857 276.587 17.5928 278.105 13.8271C278.955 11.7209 280.194 9.74771 281.766 8.1079C283.214 6.59811 285.144 5.13372 287.348 5.2751C288.323 5.33805 288.369 6.94898 287.371 7.00677C285.607 7.10791 284.267 7.95516 283.045 9.1956C281.77 10.4907 280.727 12.0253 279.941 13.661C278.356 16.9561 277.917 20.7548 278.536 24.3482C279.772 31.5369 285.235 38.3718 292.443 40.2334C296.245 41.2159 300.166 40.4749 303.568 38.6091C304.07 38.3336 304.423 39.0869 304.046 39.4275Z" fill="#386641"/>
<path d="M287.765 7.76638C288.2 5.54865 289.19 3.5043 290.482 1.65912C290.52 1.92846 290.559 2.19884 290.597 2.46819C290.192 2.18955 289.681 1.81083 289.187 1.71382C288.763 1.63126 288.697 1.77986 288.495 2.12248C288.353 2.36293 288.217 2.60751 288.078 2.85105C287.794 3.35672 287.516 3.86652 287.243 4.37942C287.018 4.80356 286.617 5.30511 286.607 5.79633C286.59 6.61263 285.473 6.47227 285.296 5.81387C285.102 5.09458 285.748 4.31853 286.098 3.74062C286.571 2.95838 287.057 2.1844 287.56 1.42177C287.958 0.820121 288.364 0.356766 289.142 0.481636C289.906 0.60341 290.675 1.10185 291.29 1.54354C291.546 1.72723 291.587 2.1039 291.405 2.3526C290.149 4.07188 289.234 5.96351 288.456 7.93975C288.313 8.30713 287.684 8.17607 287.765 7.76638Z" fill="#386641"/>
<path d="M286.836 8.3112C286.367 9.36898 286.178 10.5021 285.963 11.6311C285.75 12.7456 285.626 13.8437 285.56 14.9757C285.43 17.2151 285.71 19.4896 286.337 21.6423C286.997 23.9106 288.03 26.0685 289.41 27.987C290.991 30.1851 293.101 32.0457 295.264 33.6577C296.497 34.5772 297.788 35.4286 299.123 36.1943C299.774 36.5679 300.431 36.9363 301.09 37.2995C301.789 37.6855 302.595 37.9817 303.204 38.5028C303.65 38.8836 303.391 39.6411 302.775 39.5823C302.047 39.5131 301.371 39.1788 300.704 38.897C300.01 38.605 299.33 38.2954 298.67 37.9332C297.415 37.2449 296.18 36.509 295.023 35.6659C292.626 33.9208 290.54 31.8496 288.806 29.442C285.854 25.344 284.01 20.6516 284.123 15.5454C284.152 14.2379 284.383 12.9562 284.733 11.6971C285.093 10.3979 285.811 9.26786 286.478 8.10997C286.594 7.90874 286.929 8.10068 286.836 8.3112Z" fill="#386641"/>
<path d="M299.227 38.3583C298.978 38.9796 298.441 39.8041 297.862 40.1571C297.656 40.283 297.3 40.1096 297.434 39.8361C297.593 39.5141 297.823 39.2665 298.043 38.9868C298.276 38.6896 298.466 38.3583 298.705 38.0673C298.916 37.8124 299.356 38.0332 299.227 38.3583Z" fill="#386641"/>
<path d="M297.799 38.2645C297.415 38.9105 296.837 39.7733 296.066 39.958C295.69 40.0478 295.515 39.5793 295.683 39.3109C295.868 39.0158 296.177 38.8393 296.432 38.6092C296.706 38.3615 296.941 38.0818 297.158 37.7836C297.466 37.3564 298.057 37.83 297.799 38.2645Z" fill="#386641"/>
<path d="M295.762 37.8331C295.325 38.509 294.567 39.5565 293.689 39.6267C293.305 39.6576 293.017 39.2345 293.262 38.9043C293.514 38.5647 293.923 38.3893 294.27 38.1571C294.63 37.9156 294.961 37.6525 295.271 37.348C295.566 37.0601 295.963 37.5245 295.762 37.8331Z" fill="#386641"/>
<path d="M293.279 36.8692C293.29 37.3161 292.877 37.6029 292.523 37.8197C292.147 38.0498 291.743 38.2562 291.313 38.0612C291.147 37.9858 291.031 37.7402 291.177 37.5823C291.298 37.4533 291.39 37.3573 291.556 37.2851C291.715 37.2159 291.88 37.1685 292.035 37.089C292.322 36.9415 292.555 36.5957 292.884 36.5741C293.056 36.5627 293.275 36.67 293.279 36.8692Z" fill="#386641"/>
<path d="M290.821 36.2304C290.629 36.6896 290.103 36.7505 289.67 36.8661C289.264 36.9745 288.766 37.1262 288.405 36.8258C288.153 36.6164 288.11 36.2902 288.29 36.0178C288.533 35.6473 289.04 35.636 289.437 35.5668C289.849 35.4946 290.258 35.314 290.634 35.5782C290.832 35.7154 290.913 36.0096 290.821 36.2304Z" fill="#386641"/>
<path d="M286.152 34.8085C285.424 34.47 284.48 34.1883 283.876 33.6537C283.521 33.3389 283.695 32.6073 284.251 32.7115C285.056 32.8622 285.834 33.404 286.557 33.7755C287.183 34.0974 286.807 35.114 286.152 34.8085Z" fill="#386641"/>
<path d="M21.6449 7.44048C20.4726 7.18455 19.4881 8.14429 19.2951 9.21445C19.0495 9.73147 18.9669 10.3403 19.1331 10.9358C19.2332 11.2929 19.3147 11.6571 19.3869 12.0235C19.4798 15.5807 19.099 19.1019 18.3044 22.5962C18.2683 22.7551 18.2528 22.9068 18.2538 23.0523C17.3632 24.5982 16.4664 26.1451 15.5273 27.658C15.2724 28.0687 15.0083 28.4795 14.7306 28.8819C14.0681 29.4495 13.4066 30.0181 12.7451 30.5878C11.291 31.8293 9.83389 33.0676 8.36332 34.2895C7.92163 34.6569 7.69769 35.1708 7.66054 35.693C7.07747 35.886 6.48821 36.048 5.89482 36.1698C4.59659 36.4371 3.85563 38.5671 5.37058 39.0985C5.50887 39.3999 5.75757 39.661 6.12598 39.8343C6.78955 40.147 7.49647 40.3493 8.21473 40.4442C8.65951 41.2874 9.53773 41.921 10.6884 41.8539C16.5438 41.5123 22.3136 38.3215 25.5262 33.3741C26.8079 31.401 27.6975 29.2669 28.199 27.0553C28.7222 25.8304 29.133 24.5456 29.4281 23.2071C30.1495 19.9274 30.4972 14.7273 27.6129 12.5106C26.5417 10.0266 24.6665 8.10095 21.6449 7.44048Z" fill="#FFE65C"/>
<path d="M3.63252 36.1946C3.1444 36.0191 2.56753 36.0315 2.14751 36.3772C1.83895 36.6311 1.61911 36.9644 1.56132 37.3669C1.50662 37.7487 1.61498 38.1729 1.84615 38.4814C2.17741 38.9231 2.68308 39.1058 3.22075 39.0728C3.29814 39.0707 3.3735 39.0542 3.44678 39.0232C3.63047 38.9933 3.79764 38.92 3.94831 38.8065C3.96895 38.8013 3.98855 38.7962 4.00919 38.791C4.17018 38.7343 4.30432 38.6424 4.41268 38.5155C4.59741 38.3339 4.74704 38.0903 4.77284 37.824C4.79348 37.6125 4.76977 37.404 4.70063 37.2028C4.6222 36.9737 4.44676 36.7818 4.24655 36.6435C4.07937 36.4536 3.87504 36.2823 3.63252 36.1946Z" fill="#9E8109"/>
<path d="M21.0122 4.43944C21.0133 4.42809 21.0143 4.41673 21.0071 4.40538C20.9833 4.36513 20.9844 4.37649 21.0122 4.43944Z" fill="#9E8109"/>
<path d="M20.4621 2.59529C19.8832 1.8306 18.8234 1.62318 17.9978 2.08551C17.2331 2.51275 16.7037 3.59735 17.1371 4.4508C17.3301 4.83057 17.4993 5.17524 17.844 5.45078C18.0535 5.61796 18.3043 5.70878 18.5272 5.84706C18.5571 5.86874 18.6077 5.90691 18.6418 5.93994C18.7842 6.07513 18.9101 6.23613 19.0411 6.38164C19.4746 6.86151 20.1195 7.06996 20.7108 6.72734C21.2609 6.40846 21.5395 5.73768 21.2939 5.12468C21.2217 4.94305 21.1474 4.76246 21.0762 4.58083C21.0473 4.51892 21.0267 4.47247 21.0122 4.43944C21.0101 4.45905 21.0008 4.47969 20.974 4.50136C20.9007 4.26194 21.0091 3.95648 20.9575 3.69539C20.8749 3.27847 20.7212 2.93791 20.4621 2.59529Z" fill="#9E8109"/>
<path d="M25.3805 18.3484C24.2804 19.3814 24.5683 20.8696 24.332 22.2617C24.1018 23.6198 23.6137 24.8303 23.1442 26.113C22.5384 27.7683 25.0709 28.8457 25.6746 27.21C25.881 26.8643 26.0678 26.5083 26.237 26.144C26.3567 25.95 26.4733 25.755 26.5693 25.5537C26.818 25.0315 27.0306 24.4928 27.1957 23.9376C27.3712 23.3463 27.4878 22.754 27.5517 22.1544C27.8562 20.9284 28.0853 19.4496 27.2896 18.6209C26.8242 18.1369 25.9697 17.7963 25.3805 18.3484Z" fill="white"/>
<path d="M19.2629 8.23494C18.6902 10.5001 18.6499 12.786 18.5312 15.1048C18.4115 17.4485 17.9812 19.8344 17.1381 22.0284C16.6809 23.2162 16.1298 24.3648 15.556 25.5C15.0019 26.5959 14.4714 27.7053 13.6603 28.6403C12.8017 29.6289 11.7718 30.4442 10.779 31.2904C9.7563 32.1624 8.74806 33.0551 7.69647 33.891C6.62114 34.7465 5.47772 35.5215 4.15782 35.9416C3.62532 36.1108 3.05773 36.2078 2.4984 36.2161C1.86992 36.2253 1.27342 36.0685 0.645977 36.1129C-0.0310026 36.1614 -0.210559 37.053 0.273439 37.4503C1.1661 38.183 2.57373 38.119 3.65525 37.9116C4.90498 37.6722 6.04634 37.1541 7.11547 36.473C8.28987 35.7259 9.32905 34.7878 10.3734 33.8735C11.4766 32.9075 12.6077 31.9643 13.6758 30.9602C15.6056 29.1449 16.6747 26.6176 17.7346 24.2265C18.2722 23.0129 18.7263 21.7642 19.0369 20.4722C19.3238 19.2782 19.394 18.0418 19.4187 16.8179C19.4765 13.9954 19.3527 11.1111 19.8119 8.31543C19.8707 7.95423 19.3486 7.89645 19.2629 8.23494Z" fill="#386641"/>
<path d="M0.80598 36.8589C0.639831 37.4595 0.119716 38.4564 0.512901 39.0508C0.724457 39.3708 1.09185 39.4409 1.43859 39.5214C1.90092 39.6287 2.36532 39.7319 2.82868 39.8341C3.51495 39.9848 4.27449 40.1231 4.52319 39.2933C4.63465 38.9187 4.66664 38.4977 4.73165 38.1117C4.81627 37.6143 4.94217 37.2026 4.76157 36.7196C4.60987 36.312 4.08045 36.2748 3.8173 36.5844C3.51493 36.9404 3.49016 37.3501 3.40864 37.798C3.36426 38.0415 3.32197 38.2851 3.27759 38.5276C3.26315 38.6091 3.24867 38.6896 3.23423 38.7712C3.16508 39.0704 3.17233 39.0942 3.25489 38.8444C3.40968 38.7578 3.56345 38.67 3.71825 38.5834C3.53146 38.6298 3.11967 38.4368 2.91328 38.3966C2.56447 38.3274 2.21568 38.2593 1.86687 38.1902C1.82972 38.1829 1.40556 38.088 1.40143 38.0983C1.5005 38.2407 1.59855 38.3821 1.69659 38.5245C1.70484 38.4482 1.71311 38.3718 1.72033 38.2944C1.84727 37.9931 1.80702 37.476 1.84108 37.1448C1.90506 36.5658 0.978321 36.2387 0.80598 36.8589Z" fill="#386641"/>
<path d="M3.63681 39.4275C6.42625 41.9486 10.5315 42.672 14.1661 42.1467C18.5087 41.5193 22.4106 39.1447 25.3445 35.9394C27.9761 33.0653 29.845 29.474 30.6737 25.666C31.5405 21.6857 31.0957 17.5928 29.5777 13.8271C28.7284 11.7209 27.489 9.74771 25.9173 8.1079C24.4704 6.59811 22.5386 5.13372 20.3353 5.2751C19.3601 5.33805 19.3136 6.94898 20.3115 7.00677C22.0762 7.10791 23.4158 7.95516 24.6376 9.1956C25.9131 10.4907 26.9554 12.0253 27.7418 13.661C29.3269 16.9561 29.7655 20.7548 29.1474 24.3482C27.9111 31.5369 22.4477 38.3718 15.2404 40.2334C11.4375 41.2159 7.51704 40.4749 4.1146 38.6091C3.61306 38.3336 3.26014 39.0869 3.63681 39.4275Z" fill="#386641"/>
<path d="M19.9182 7.76638C19.4827 5.54865 18.493 3.5043 17.2009 1.65912C17.1628 1.92846 17.1235 2.19884 17.0854 2.46819C17.4909 2.18955 18.0018 1.81083 18.4961 1.71382C18.9202 1.63126 18.9863 1.77986 19.1875 2.12248C19.3299 2.36293 19.4662 2.60751 19.6044 2.85105C19.8893 3.35672 20.1669 3.86652 20.4393 4.37942C20.6643 4.80356 21.0657 5.30511 21.076 5.79633C21.0925 6.61263 22.2092 6.47227 22.3867 5.81387C22.5807 5.09458 21.9347 4.31853 21.5848 3.74062C21.1122 2.95838 20.6261 2.1844 20.1225 1.42177C19.7252 0.820121 19.3186 0.356766 18.5405 0.481636C17.7768 0.60341 17.008 1.10185 16.3929 1.54354C16.137 1.72723 16.0957 2.1039 16.2773 2.3526C17.5343 4.07188 18.4486 5.96351 19.2267 7.93975C19.3712 8.30713 19.9987 8.17607 19.9182 7.76638Z" fill="#386641"/>
<path d="M20.8469 8.3112C21.3154 9.36898 21.5043 10.5021 21.72 11.6311C21.9325 12.7456 22.0564 13.8437 22.1224 14.9757C22.2524 17.2151 21.9728 19.4896 21.3453 21.6423C20.6859 23.9106 19.6529 26.0685 18.2731 27.987C16.6921 30.1851 14.5818 32.0457 12.4187 33.6577C11.1845 34.5772 9.89448 35.4286 8.56013 36.1943C7.90895 36.5679 7.25157 36.9363 6.59317 37.2995C5.89349 37.6855 5.08753 37.9817 4.47866 38.5028C4.03285 38.8836 4.29186 39.6411 4.90795 39.5823C5.6355 39.5131 6.31143 39.1788 6.97912 38.897C7.67261 38.605 8.3527 38.2954 9.01317 37.9332C10.2681 37.2449 11.5023 36.509 12.6602 35.6659C15.0564 33.9208 17.1431 31.8496 18.8769 29.442C21.8283 25.344 23.6725 20.6516 23.56 15.5454C23.5311 14.2379 23.2999 12.9562 22.9501 11.6971C22.5889 10.3979 21.8706 9.26786 21.205 8.10997C21.0884 7.90874 20.754 8.10068 20.8469 8.3112Z" fill="#386641"/>
<path d="M8.45697 38.3583C8.70567 38.9796 9.24229 39.8041 9.82123 40.1571C10.0276 40.283 10.3837 40.1096 10.2495 39.8361C10.0906 39.5141 9.86046 39.2665 9.64065 38.9868C9.40742 38.6896 9.21754 38.3583 8.97812 38.0673C8.76657 37.8124 8.32694 38.0332 8.45697 38.3583Z" fill="#386641"/>
<path d="M9.88439 38.2645C10.2683 38.9105 10.8462 39.7733 11.6171 39.958C11.9927 40.0478 12.1692 39.5793 12 39.3109C11.8152 39.0158 11.5056 38.8393 11.2507 38.6092C10.9773 38.3615 10.742 38.0818 10.5253 37.7836C10.2167 37.3564 9.62639 37.83 9.88439 38.2645Z" fill="#386641"/>
<path d="M11.9203 37.8331C12.3578 38.509 13.1153 39.5565 13.9935 39.6267C14.3774 39.6576 14.6653 39.2345 14.4207 38.9043C14.1689 38.5647 13.7582 38.3893 13.4125 38.1571C13.0523 37.9156 12.7211 37.6525 12.4115 37.348C12.1163 37.0601 11.7201 37.5245 11.9203 37.8331Z" fill="#386641"/>
<path d="M14.4033 36.8692C14.3929 37.3161 14.8057 37.6029 15.1597 37.8197C15.5354 38.0498 15.9399 38.2562 16.3692 38.0612C16.5353 37.9858 16.652 37.7402 16.5054 37.5823C16.3847 37.4533 16.2928 37.3573 16.1267 37.2851C15.9678 37.2159 15.8027 37.1685 15.6479 37.089C15.361 36.9415 15.1267 36.5957 14.7985 36.5741C14.6272 36.5627 14.4084 36.67 14.4033 36.8692Z" fill="#386641"/>
<path d="M16.8627 36.2304C17.0546 36.6896 17.5809 36.7505 18.0133 36.8661C18.4199 36.9745 18.9173 37.1262 19.2785 36.8258C19.5303 36.6164 19.5736 36.2902 19.3941 36.0178C19.1505 35.6473 18.6428 35.636 18.2465 35.5668C17.8348 35.4946 17.4261 35.314 17.0494 35.5782C16.8503 35.7154 16.7698 36.0096 16.8627 36.2304Z" fill="#386641"/>
<path d="M21.5311 34.8085C22.2586 34.47 23.2029 34.1883 23.8066 33.6537C24.1616 33.3389 23.9883 32.6073 23.432 32.7115C22.6271 32.8622 21.8489 33.404 21.1255 33.7755C20.5001 34.0974 20.8768 35.114 21.5311 34.8085Z" fill="#386641"/>
</svg>
