<svg width="29" height="32" viewBox="0 0 29 32" fill="none" xmlns="http://www.w3.org/2000/svg">
<g clip-path="url(#clip0_406_299)">
<path d="M12.4401 14.8633L0.0870972 29.387C0.536411 30.9227 1.96401 32.0002 3.55963 32.0002C4.25414 32.0002 4.86214 31.8258 5.38302 31.4771L20.5775 22.7605L12.4401 14.8633Z" fill="#EA4335"/>
<path d="M27.003 12.8195L20.4904 9.06934L13.5447 15.9584L20.5776 22.7605L27.0895 19.0979C28.2184 18.4872 29 17.2665 29 15.9584C28.9129 14.6502 28.1319 13.4295 27.003 12.8195Z" fill="#FBBC04"/>
<path d="M12.4102 17.0913L20.491 9.0691L5.47014 0.523145C4.94926 0.174382 4.25414 0 3.55963 0C1.91049 0 0.43435 1.13379 0.0870972 2.61635L12.4102 17.0913Z" fill="#34A853"/>
<path d="M0.0865021 2.61621C0 2.87747 0 3.22686 0 3.575V28.4285C0 28.7766 0 29.0385 0.0871245 29.3873L13.546 15.958L0.0865021 2.61621Z" fill="#4285F4"/>
</g>
<defs>
<clipPath id="clip0_406_299">
<rect width="29" height="32" fill="white"/>
</clipPath>
</defs>
</svg>
