<svg width="155" height="48" viewBox="0 0 155 48" fill="none" xmlns="http://www.w3.org/2000/svg">
<path d="M38.7153 32.3596H43.9273C43.9749 32.9784 44.2248 33.4663 44.677 33.8233C45.1291 34.1803 45.7717 34.3587 46.6047 34.3587C47.4614 34.3587 48.0921 34.216 48.4967 33.9304C48.9013 33.6448 49.1036 33.2759 49.1036 32.8237C49.1036 32.5619 48.9965 32.3001 48.7823 32.0383C48.5919 31.7766 48.1635 31.5743 47.4971 31.4315L44.2129 30.7175C42.5707 30.3605 41.3451 29.7893 40.5359 29.004C39.7268 28.1948 39.3222 27.0048 39.3222 25.4341C39.3222 24.1966 39.6435 23.1494 40.286 22.2926C40.9524 21.4121 41.8449 20.7457 42.9634 20.2935C44.082 19.8175 45.3552 19.5796 46.7832 19.5796C48.1635 19.5796 49.3773 19.8294 50.4244 20.3292C51.4954 20.829 52.3283 21.5311 52.9233 22.4354C53.5183 23.3398 53.8158 24.3989 53.8158 25.6126H48.6038C48.6038 24.9938 48.4253 24.506 48.0683 24.149C47.7113 23.7682 47.1997 23.5778 46.5333 23.5778C45.9145 23.5778 45.4147 23.7325 45.0339 24.0419C44.677 24.3275 44.4985 24.7082 44.4985 25.1842C44.4985 25.9458 45.141 26.4694 46.4262 26.755L49.7461 27.4689C51.2217 27.7783 52.3402 28.3138 53.1018 29.0754C53.8872 29.8131 54.2799 30.896 54.2799 32.3239C54.2799 33.5853 53.9467 34.68 53.2803 35.6082C52.6139 36.5364 51.6858 37.2503 50.4958 37.7501C49.3059 38.2261 47.9374 38.4641 46.3905 38.4641C44.0344 38.4641 42.1662 37.9048 40.7858 36.7862C39.4055 35.6439 38.7153 34.1684 38.7153 32.3596ZM62.543 38.4641C60.6628 38.4641 59.1635 37.9524 58.0449 36.929C56.9502 35.8819 56.4028 34.4896 56.4028 32.7523C56.4028 31.1102 56.9621 29.8012 58.0806 28.8255C59.223 27.8497 60.8651 27.2785 63.007 27.1119L68.0048 26.7193V26.4337C68.0048 25.8387 67.8858 25.3508 67.6479 24.97C67.4099 24.5654 67.0648 24.268 66.6126 24.0776C66.1842 23.8634 65.6368 23.7563 64.9705 23.7563C63.8043 23.7563 62.9118 23.9705 62.2931 24.3989C61.6981 24.8272 61.4006 25.446 61.4006 26.2552H56.8312C56.8312 24.8986 57.1763 23.7206 57.8665 22.721C58.5566 21.7215 59.5324 20.948 60.7937 20.4006C62.0789 19.8532 63.5663 19.5796 65.256 19.5796C66.9934 19.5796 68.457 19.8889 69.647 20.5077C70.8607 21.1265 71.777 22.0309 72.3958 23.2208C73.0383 24.4108 73.3596 25.8625 73.3596 27.576V38H68.5046L68.1476 35.6439C67.862 36.4531 67.1838 37.1313 66.1128 37.6787C65.0657 38.2023 63.8757 38.4641 62.543 38.4641ZM64.4707 34.3944C65.5178 34.3944 66.3746 34.1446 67.041 33.6448C67.7073 33.1212 68.0405 32.3477 68.0405 31.3244V30.3605L65.256 30.6104C64.0661 30.7056 63.2212 30.9079 62.7215 31.2173C62.2455 31.5029 62.0075 31.9312 62.0075 32.5024C62.0075 33.145 62.2098 33.621 62.6144 33.9304C63.0189 34.2398 63.6377 34.3944 64.4707 34.3944ZM82.8002 38H77.3026V11.0833H82.8002V38ZM92.315 38.4641C90.4349 38.4641 88.9355 37.9524 87.817 36.929C86.7222 35.8819 86.1748 34.4896 86.1748 32.7523C86.1748 31.1102 86.7341 29.8012 87.8527 28.8255C88.995 27.8497 90.6372 27.2785 92.7791 27.1119L97.7769 26.7193V26.4337C97.7769 25.8387 97.6579 25.3508 97.4199 24.97C97.1819 24.5654 96.8368 24.268 96.3846 24.0776C95.9562 23.8634 95.4089 23.7563 94.7425 23.7563C93.5763 23.7563 92.6839 23.9705 92.0651 24.3989C91.4701 24.8272 91.1726 25.446 91.1726 26.2552H86.6032C86.6032 24.8986 86.9483 23.7206 87.6385 22.721C88.3286 21.7215 89.3044 20.948 90.5658 20.4006C91.8509 19.8532 93.3383 19.5796 95.0281 19.5796C96.7654 19.5796 98.229 19.8889 99.419 20.5077C100.633 21.1265 101.549 22.0309 102.168 23.2208C102.81 24.4108 103.132 25.8625 103.132 27.576V38H98.2766L97.9197 35.6439C97.6341 36.4531 96.9558 37.1313 95.8848 37.6787C94.8377 38.2023 93.6477 38.4641 92.315 38.4641ZM94.2427 34.3944C95.2899 34.3944 96.1466 34.1446 96.813 33.6448C97.4794 33.1212 97.8126 32.3477 97.8126 31.3244V30.3605L95.0281 30.6104C93.8381 30.7056 92.9933 30.9079 92.4935 31.2173C92.0175 31.5029 91.7795 31.9312 91.7795 32.5024C91.7795 33.145 91.9818 33.621 92.3864 33.9304C92.791 34.2398 93.4097 34.3944 94.2427 34.3944ZM114.571 38.4641C112.858 38.4641 111.37 38.0833 110.109 37.3217C108.848 36.5602 107.86 35.4892 107.146 34.1089C106.456 32.7047 106.111 31.0626 106.111 29.1825C106.111 27.2785 106.468 25.6126 107.182 24.1847C107.896 22.7329 108.907 21.6025 110.216 20.7933C111.549 19.9841 113.12 19.5796 114.928 19.5796C116.047 19.5796 117.082 19.7818 118.034 20.1864C119.01 20.591 119.76 21.1265 120.283 21.7929V11.0833H125.781V38H120.604L120.319 35.7153C119.843 36.5245 119.081 37.1908 118.034 37.7144C117.011 38.2142 115.856 38.4641 114.571 38.4641ZM115.892 33.4306C116.749 33.4306 117.499 33.2521 118.141 32.8951C118.808 32.5143 119.319 31.9907 119.676 31.3244C120.057 30.6342 120.247 29.8488 120.247 28.9683C120.247 28.0639 120.057 27.2785 119.676 26.6122C119.319 25.9458 118.808 25.4341 118.141 25.0771C117.499 24.6963 116.749 24.506 115.892 24.506C115.035 24.506 114.286 24.6963 113.643 25.0771C113.001 25.4579 112.501 25.9815 112.144 26.6479C111.811 27.3142 111.644 28.0877 111.644 28.9683C111.644 29.8488 111.811 30.6223 112.144 31.2887C112.501 31.955 113.001 32.4786 113.643 32.8594C114.286 33.2402 115.035 33.4306 115.892 33.4306ZM136.906 21.4002C136.906 21.781 136.739 22.4116 136.406 23.2922C136.073 24.1728 135.657 25.1961 135.157 26.3623C134.657 27.5046 134.157 28.6589 133.658 29.825C133.158 30.9912 132.741 32.0502 132.408 33.0022C132.075 33.9304 131.908 34.6324 131.908 35.1084C131.908 35.4654 132.027 35.6439 132.265 35.6439C132.598 35.6439 132.932 35.5011 133.265 35.2155C133.598 34.9061 133.896 34.6086 134.157 34.3231C134.443 34.0375 134.669 33.8947 134.836 33.8947C135.074 33.8947 135.193 34.0375 135.193 34.3231C135.193 34.442 135.038 34.7157 134.728 35.1441C134.419 35.5725 134.003 36.0485 133.479 36.5721C132.979 37.0718 132.408 37.5121 131.765 37.8929C131.123 38.2737 130.457 38.4641 129.766 38.4641C129.457 38.4641 129.171 38.357 128.91 38.1428C128.672 37.9286 128.553 37.6192 128.553 37.2146C128.553 36.7387 128.695 36.0604 128.981 35.1798C129.29 34.2755 129.659 33.2878 130.088 32.2168C130.54 31.1459 130.98 30.1106 131.409 29.1111C131.837 28.0877 132.194 27.219 132.479 26.5051C132.789 25.7673 132.944 25.3151 132.944 25.1485C132.491 25.4817 131.944 25.8149 131.301 26.1481C130.659 26.4575 130.135 26.8145 129.731 27.219C129.588 27.1952 129.457 27.1476 129.338 27.0762C129.219 26.9811 129.159 26.8502 129.159 26.6836C129.159 26.4218 129.386 26.1243 129.838 25.7911C130.29 25.4579 130.873 25.0771 131.587 24.6487C132.325 24.1966 133.098 23.6849 133.907 23.1137C134.74 22.5425 135.526 21.8881 136.264 21.1503C136.406 21.0075 136.525 20.9361 136.62 20.9361C136.811 20.9361 136.906 21.0908 136.906 21.4002ZM137.085 18.3301C136.561 18.3301 136.109 18.1516 135.728 17.7946C135.371 17.4376 135.193 16.9974 135.193 16.4738C135.193 15.974 135.359 15.5337 135.692 15.1529C136.026 14.7484 136.454 14.5461 136.977 14.5461C137.501 14.5461 137.965 14.7127 138.37 15.0458C138.774 15.379 138.977 15.8193 138.977 16.3667C138.977 16.8903 138.798 17.3543 138.441 17.7589C138.084 18.1397 137.632 18.3301 137.085 18.3301ZM145.738 21.4002C145.738 21.6382 145.63 22.0785 145.416 22.721C145.226 23.3636 144.976 24.0895 144.667 24.8986C144.357 25.7078 144.048 26.517 143.738 27.3261C143.429 28.1115 143.155 28.8136 142.917 29.4324C142.703 30.0273 142.572 30.42 142.525 30.6104H142.632C142.989 30.1106 143.417 29.5037 143.917 28.7898C144.441 28.052 145.012 27.2904 145.63 26.5051C146.273 25.7197 146.951 24.9819 147.665 24.2918C148.403 23.5778 149.153 23.0066 149.914 22.5782C150.676 22.1498 151.449 21.9357 152.235 21.9357C152.853 21.9357 153.306 22.0547 153.591 22.2926C153.901 22.5068 154.103 22.7686 154.198 23.078C154.293 23.3874 154.341 23.673 154.341 23.9348C154.341 24.4346 154.151 25.1247 153.77 26.0053C153.389 26.8621 152.913 27.8021 152.342 28.8255C151.771 29.825 151.199 30.8127 150.628 31.7885C150.057 32.7404 149.581 33.5615 149.2 34.2517C148.82 34.9418 148.629 35.394 148.629 35.6082C148.629 35.751 148.665 35.8581 148.736 35.9295C148.831 35.9771 148.927 36.0009 149.022 36.0009C149.355 36.0009 149.7 35.8819 150.057 35.6439C150.438 35.4059 150.795 35.1322 151.128 34.8228C151.461 34.4896 151.735 34.2279 151.949 34.0375C152.044 33.9899 152.104 33.9661 152.128 33.9661C152.247 33.9661 152.33 34.0137 152.378 34.1089C152.449 34.2041 152.485 34.2993 152.485 34.3944C152.485 34.6086 152.294 34.9418 151.913 35.394C151.556 35.8462 151.092 36.3103 150.521 36.7862C149.95 37.2622 149.355 37.6668 148.736 38C148.141 38.357 147.606 38.5355 147.13 38.5355C146.202 38.5355 145.738 38.0952 145.738 37.2146C145.738 36.7625 145.904 36.1199 146.237 35.2869C146.594 34.4539 147.023 33.5377 147.522 32.5381C148.046 31.5386 148.558 30.5628 149.058 29.6108C149.581 28.6351 150.009 27.7664 150.343 27.0048C150.7 26.2433 150.878 25.6959 150.878 25.3627C150.878 24.7915 150.64 24.506 150.164 24.506C149.736 24.506 149.069 24.851 148.165 25.5412C147.261 26.2314 146.178 27.4451 144.917 29.1825C143.655 30.9198 142.275 33.3473 140.775 36.465C140.537 36.9409 140.311 37.3931 140.097 37.8215C139.907 38.2499 139.645 38.4641 139.312 38.4641C139.002 38.4641 138.741 38.4165 138.526 38.3213C138.312 38.2499 138.11 38.1666 137.92 38.0714C137.92 37.9286 138.015 37.5359 138.205 36.8933C138.419 36.227 138.681 35.4297 138.991 34.5015C139.3 33.5496 139.621 32.5619 139.954 31.5386C140.311 30.5152 140.645 29.5394 140.954 28.6113C141.263 27.6593 141.513 26.8621 141.704 26.2195C141.918 25.5769 142.025 25.1842 142.025 25.0414C141.549 25.3508 140.954 25.6959 140.24 26.0767C139.55 26.4575 138.991 26.8383 138.562 27.219C138.443 27.1952 138.312 27.1476 138.169 27.0762C138.05 26.9811 137.991 26.8502 137.991 26.6836C137.991 26.4218 138.217 26.1362 138.669 25.8268C139.121 25.4936 139.705 25.1128 140.418 24.6844C141.156 24.2323 141.93 23.7206 142.739 23.1494C143.572 22.5544 144.357 21.8881 145.095 21.1503C145.238 21.0075 145.357 20.9361 145.452 20.9361C145.642 20.9361 145.738 21.0908 145.738 21.4002Z" fill="black"/>
<path d="M21.9946 30.7502C21.7878 30.7579 21.5804 30.7618 21.3726 30.7618C20.2238 30.7618 19.1022 30.6435 18.019 30.4189C17.5731 33.2796 15.8621 35.7926 13.3125 37.2533V37.9755H26.6437V37.2534C24.1929 35.8491 22.517 33.4728 21.9946 30.7502Z" fill="#364573"/>
<path d="M5.30436 13.1689C2.37952 13.169 0 15.5487 0 18.4735C0 21.3983 2.37952 23.7779 5.30436 23.7779H10.8769C13.344 26.8537 17.1319 28.8269 21.3727 28.8269C24.1124 28.8269 26.7527 28.0049 29.0082 26.4497L35.8254 21.7492C40.192 18.7385 45.3038 17.147 50.6079 17.147H52.0604V13.169L5.30436 13.1689ZM5.30436 20.7274C4.06152 20.7275 3.05041 19.7162 3.05041 18.4735C3.05041 17.2307 4.06152 16.2196 5.30436 16.2196H7.94887C8.048 17.8126 8.42544 19.3311 9.03329 20.7274H5.30436Z" fill="#364573"/>
<g clip-path="url(#clip0_195_370)">
<path d="M55.3421 4.6593C53.3125 7.19532 55.1433 10.1727 51.3761 13.2165C50.7468 13.7573 49.9711 14.099 49.1473 14.1984C48.3235 14.2978 47.4888 14.1502 46.749 13.7745C46.6829 13.7364 46.6323 13.6761 46.6063 13.6043C46.5803 13.5325 46.5805 13.4539 46.6068 13.3822C47.2931 11.6142 48.2332 9.95563 49.3975 8.45859C49.4463 8.4014 49.4714 8.32766 49.4676 8.25254C49.4638 8.17742 49.4313 8.10661 49.3769 8.05468C49.3225 8.00274 49.2503 7.97361 49.175 7.97327C49.0998 7.97293 49.0273 8.00142 48.9725 8.05287C47.3051 9.43841 46.1059 11.572 45.6855 12.39C45.6677 12.4251 45.6407 12.4548 45.6075 12.476C45.5742 12.4972 45.5359 12.5091 45.4965 12.5104C45.4571 12.5117 45.4181 12.5024 45.3835 12.4834C45.349 12.4645 45.3201 12.4366 45.3 12.4027C45.2819 12.3755 45.266 12.3469 45.2526 12.3171C44.8507 11.6325 44.6451 10.8504 44.6586 10.0566V10.0534C44.6713 9.32132 44.844 8.6009 45.1644 7.94258C45.4848 7.28426 45.9453 6.70396 46.5136 6.24231C49.7911 3.60755 53.9249 4.03878 55.2238 4.26077C55.2646 4.27082 55.302 4.29137 55.3324 4.32038C55.3629 4.34939 55.3851 4.38584 55.3971 4.42613C55.4091 4.46641 55.4103 4.50913 55.4006 4.55003C55.391 4.59094 55.3708 4.6286 55.3421 4.6593Z" fill="#68784B"/>
<path d="M44.6254 12.332C44.5882 12.5788 44.5159 12.8189 44.4106 13.0451C44.3948 13.0781 44.3711 13.1068 44.3416 13.1286C44.3122 13.1503 44.2778 13.1645 44.2415 13.1698C44.2053 13.1751 44.1683 13.1715 44.1338 13.1591C44.0993 13.1468 44.0684 13.1261 44.0438 13.099C43.1687 12.1169 42.1306 11.2932 40.9752 10.6643C40.9159 10.6327 40.8472 10.6239 40.7819 10.6397C40.7166 10.6554 40.6594 10.6946 40.6212 10.7498C40.5829 10.805 40.5663 10.8723 40.5745 10.939C40.5827 11.0056 40.6151 11.0669 40.6655 11.1113C41.6404 11.9545 42.5305 12.8911 43.3232 13.9075C43.3431 13.9344 43.3569 13.9652 43.3638 13.9979C43.3706 14.0306 43.3703 14.0644 43.3628 14.097C43.3553 14.1296 43.3408 14.1601 43.3204 14.1866C43.3 14.213 43.274 14.2347 43.2444 14.2501C42.8831 14.4284 42.4889 14.5303 42.0865 14.5493C41.6841 14.5684 41.282 14.5043 40.9055 14.361C37.8487 13.2543 38.3679 10.9749 36.5318 9.81071C36.5063 9.79776 36.4846 9.77833 36.469 9.75439C36.4534 9.73044 36.4443 9.70281 36.4426 9.67425C36.441 9.64569 36.4469 9.61721 36.4598 9.59164C36.4726 9.56608 36.4919 9.54433 36.5158 9.52857C37.2932 9.10683 39.8279 7.93706 42.4794 8.89432C43.0983 9.11923 43.637 9.52183 44.0281 10.0517V10.0549C44.0149 10.8487 44.2205 11.6308 44.6224 12.3154L44.6254 12.332Z" fill="#68784B"/>
</g>
<path d="M14.9734 23.1427C14.9076 23.2084 14.8419 23.2742 14.7762 23.3399C14.9821 23.5672 15.2144 23.7741 15.4538 23.9634C17.3044 25.4091 19.8602 26.0983 22.2229 25.4556C22.6056 25.3539 22.9816 25.235 23.3515 25.1006C25.98 24.1966 28.0631 22.3196 30.4333 21.2228C30.701 21.1125 30.9758 21.0211 31.2578 20.962C31.2437 20.8702 31.2295 20.7783 31.2154 20.6864C30.9069 20.7182 30.6038 20.7869 30.3098 20.877C27.694 21.8143 25.5929 23.5526 23.0975 24.4016C22.7458 24.5294 22.3902 24.6444 22.0292 24.7456C19.9211 25.3497 17.5626 24.8728 15.6679 23.6652C15.4248 23.5076 15.1862 23.3331 14.9734 23.1427Z" fill="white"/>
<path d="M18.6313 16.868C18.6058 16.7786 18.5802 16.6892 18.5547 16.5998C18.4215 16.6218 18.2889 16.6489 18.1572 16.68C17.6631 16.7983 17.1771 16.9635 16.7118 17.2161C16.2792 17.4801 15.6915 17.7877 15.6232 18.5932C15.6246 18.7249 15.6315 19.0047 15.9243 19.1748C16.1986 19.3015 16.3495 19.2347 16.4743 19.2133C17.7519 18.762 18.5848 17.9352 19.6775 17.9133C19.7927 17.9171 19.907 17.9359 20.0181 17.9742C20.0597 17.891 20.1012 17.8079 20.1428 17.7247C20.0179 17.6448 19.878 17.5868 19.734 17.5505C18.3863 17.2986 17.2292 18.184 16.2943 18.4917C16.2359 18.5135 16.1789 18.4854 16.2753 18.5221C16.3883 18.5964 16.3553 18.6575 16.3568 18.5932C16.3747 18.0455 17.4602 17.4194 18.2779 17.0268C18.3946 16.9714 18.5128 16.918 18.6313 16.868Z" fill="white"/>
<path d="M26.8125 17.2396C26.7869 17.1502 26.7614 17.0608 26.7359 16.9714C26.6027 16.9934 26.4701 17.0205 26.3384 17.0516C25.8443 17.1699 25.3583 17.335 24.893 17.5877C24.4603 17.8516 23.8726 18.1593 23.8044 18.9648C23.8058 19.0965 23.8126 19.3763 24.1054 19.5464C24.3797 19.6731 24.5306 19.6063 24.6554 19.5849C25.9331 19.1336 26.7659 18.3068 27.8587 18.2849C27.9739 18.2887 28.0881 18.3075 28.1992 18.3458C28.2408 18.2626 28.2824 18.1795 28.324 18.0963C28.199 18.0163 28.0591 17.9584 27.9152 17.9221C26.5674 17.6702 25.4104 18.5556 24.4755 18.8633C24.417 18.8851 24.36 18.857 24.4565 18.8937C24.5694 18.968 24.5365 19.0291 24.5379 18.9648C24.5559 18.4171 25.6413 17.791 26.4591 17.3984C26.5758 17.343 26.6939 17.2896 26.8125 17.2396Z" fill="white"/>
<defs>
<clipPath id="clip0_195_370">
<rect width="18.9648" height="8.55277" fill="white" transform="translate(36.4424 4.09033)"/>
</clipPath>
</defs>
</svg>
