<svg width="320" height="320" viewBox="0 0 320 320" fill="none" xmlns="http://www.w3.org/2000/svg">
<path d="M160 320C248.366 320 320 248.366 320 160C320 71.6344 248.366 0 160 0C71.6344 0 0 71.6344 0 160C0 248.366 71.6344 320 160 320Z" fill="#F2E6DC"/>
<path d="M122.713 278.19C66.8127 202.439 44.1476 120.091 84.7755 25.1816C155.183 90.7346 160.437 177.475 122.713 278.19Z" fill="#D3BBA3"/>
<path d="M126.569 276.263C126.448 276.263 126.332 276.205 126.259 276.106C96.277 235.478 78.2092 196.395 71.0222 156.625C67.1547 135.223 66.5331 113.393 69.1751 91.7418C71.9386 69.0931 78.3652 45.8697 88.2768 22.7166C88.3261 22.6013 88.4286 22.517 88.5514 22.491C88.6741 22.4646 88.8018 22.5001 88.8939 22.5863C106.186 38.6865 119.986 56.5619 129.909 75.7154C139.53 94.2853 145.796 114.614 148.532 136.138C151.175 156.929 150.605 179.469 146.838 203.134C143.214 225.901 136.516 250.421 126.93 276.012C126.881 276.144 126.762 276.239 126.623 276.258C126.604 276.261 126.586 276.263 126.569 276.263ZM88.7698 23.5253C52.4223 108.869 64.7514 191.162 126.457 275.075C166.69 167.182 154.365 84.8829 88.7698 23.5253Z" fill="#D3BBA3"/>
<path d="M113.81 290.612C44.0239 244.723 -0.123726 183.139 4.55404 91.6674C83.2838 124.614 114.288 195.199 113.81 290.612Z" fill="#E6D0BE"/>
<path d="M117.665 288.685C117.591 288.685 117.518 288.663 117.453 288.621C80.0191 264.005 52.9768 237.017 34.7811 206.115C24.9889 189.485 17.7679 171.501 13.3183 152.664C8.66435 132.96 6.88301 111.653 8.02435 89.3346C8.03082 89.2092 8.09779 89.0947 8.20428 89.0277C8.31007 88.9611 8.44262 88.9501 8.5582 88.9983C27.8993 97.0924 44.8779 107.737 59.0217 120.637C72.7345 133.143 84.1941 148.144 93.0823 165.224C101.667 181.721 108.115 200.662 112.245 221.52C116.219 241.586 118.172 264.054 118.051 288.301C118.05 288.443 117.972 288.572 117.847 288.639C117.79 288.67 117.728 288.685 117.665 288.685ZM8.76717 89.9225C4.73779 172.047 40.2412 236.712 117.283 287.585C117.628 185.516 82.1306 120.848 8.76717 89.9225Z" fill="#D3BBA3"/>
<path d="M142.75 256.166C108.415 168.506 107.89 83.098 171.749 1.97778C222.739 83.5521 205.311 168.685 142.75 256.166Z" fill="#E6D0BE"/>
<path d="M146.605 257.708C146.59 257.708 146.574 257.707 146.558 257.705C146.417 257.688 146.298 257.595 146.246 257.463C127.832 210.448 120.521 168.017 123.898 127.744C125.715 106.071 130.778 84.8273 138.947 64.6021C147.491 43.4463 159.723 22.6849 175.301 2.89581C175.379 2.79719 175.501 2.74298 175.625 2.74927C175.75 2.75609 175.865 2.82342 175.931 2.92956C188.455 22.9649 197.144 43.8084 201.759 64.8807C206.233 85.3107 207.01 106.569 204.068 128.066C201.227 148.83 194.829 170.451 185.052 192.328C175.645 213.376 162.815 235.319 146.919 257.547C146.846 257.649 146.729 257.708 146.605 257.708ZM175.568 3.80475C118.324 76.7969 108.882 159.47 146.705 256.519C213.552 162.758 222.999 80.0788 175.568 3.80475Z" fill="#D3BBA3"/>
<path d="M225.089 276.659C224.829 207.437 247.152 148.738 312.481 110.079C325.777 179.552 291.217 233.294 225.089 276.659Z" fill="#E6D0BE"/>
<path d="M222.39 275.502C222.327 275.502 222.264 275.487 222.207 275.456C222.083 275.389 222.005 275.26 222.004 275.118C221.865 237.976 228.125 206.927 241.144 180.197C248.15 165.81 257.269 152.581 268.249 140.876C279.732 128.633 293.641 117.64 309.586 108.205C309.694 108.141 309.827 108.133 309.941 108.185C310.055 108.237 310.137 108.341 310.161 108.464C313.428 125.539 313.851 142.149 311.416 157.834C309.056 173.042 303.939 187.836 296.207 201.804C288.74 215.295 278.605 228.427 266.084 240.838C254.04 252.775 239.41 264.417 222.601 275.439C222.537 275.481 222.464 275.502 222.39 275.502ZM309.506 109.149C251.043 143.945 222.665 198.017 222.774 274.403C293.304 227.952 321.683 173.887 309.506 109.149Z" fill="#D3BBA3"/>
<path d="M153.841 273.449C153.797 183.2 183.151 106.767 268.488 56.6432C285.526 147.275 240.24 217.194 153.841 273.449Z" fill="#D3BBA3"/>
<path d="M158.468 277.69C158.405 277.69 158.342 277.675 158.284 277.643C158.16 277.576 158.082 277.446 158.082 277.305C158.059 228.899 166.349 188.462 183.427 153.685C192.618 134.969 204.557 117.77 218.913 102.564C233.929 86.6594 252.1 72.3946 272.919 60.166C273.027 60.1024 273.159 60.0952 273.274 60.1477C273.388 60.1996 273.47 60.3038 273.493 60.4275C277.678 82.6891 278.158 104.333 274.919 124.759C271.78 144.562 265.049 163.814 254.917 181.981C245.129 199.528 231.866 216.598 215.497 232.715C199.749 248.222 180.633 263.332 158.678 277.627C158.614 277.669 158.541 277.69 158.468 277.69ZM272.836 61.1098C196.277 106.279 158.983 176.782 158.854 276.593C251.242 216.24 288.53 145.741 272.836 61.1098Z" fill="#D3BBA3"/>
<path d="M110.682 149.28C85.6915 144.2 32.0704 215.201 46.701 238.02C63.3539 263.993 126.33 204.685 126.33 204.685C126.33 204.685 125.938 152.382 110.682 149.28Z" fill="#8B865C"/>
<path d="M106.65 166.74L136.328 143.239L144.9 141.785L153.601 132.16L183.005 136.679L187.709 149.458L193.254 151.233L204.711 166.246L198.535 254.348L99.5012 254.082L106.65 166.74Z" fill="#84524D"/>
<path d="M158.178 162.114L144.624 142.219C144.504 142.043 144.549 141.803 144.725 141.683C144.902 141.563 145.141 141.609 145.261 141.785L158.349 160.996L166.314 154.698C166.481 154.566 166.723 154.594 166.855 154.761C166.987 154.928 166.959 155.171 166.792 155.303L158.178 162.114Z" fill="#363E44"/>
<path d="M174.896 161.48L166.721 155.897C166.544 155.777 166.499 155.537 166.619 155.361C166.74 155.186 166.98 155.141 167.155 155.26L174.787 160.472L186.889 147.618C187.035 147.463 187.279 147.456 187.434 147.601C187.589 147.747 187.596 147.991 187.45 148.147L174.896 161.48Z" fill="#363E44"/>
<path d="M105.713 148.215L103.035 205.968L92.3135 254.348L127.455 254.082C130.575 215.439 133.129 181.895 136.249 143.253L105.713 148.215Z" fill="#8B865C"/>
<path d="M204.836 205.771L216.38 159.627L187.454 148.427C183.839 170.036 167.578 245.789 164.193 254.748L203.994 256.329L204.836 205.771Z" fill="#8B865C"/>
<path d="M204.36 222.356C204.358 222.356 204.355 222.356 204.354 222.356C204.141 222.353 203.971 222.178 203.974 221.965L204.591 182.467C204.594 182.254 204.775 182.084 204.982 182.087C205.195 182.091 205.365 182.266 205.362 182.479L204.745 221.977C204.742 222.188 204.57 222.356 204.36 222.356Z" fill="#363E44"/>
<path d="M126.831 148.259L117.028 111.221L121.829 109.872L132.747 146.597L126.831 148.259ZM117.968 111.758L127.376 147.305L131.785 146.066L121.306 110.82L117.968 111.758Z" fill="#363E44"/>
<path d="M118.453 111.577L111.493 86.8015L113.838 86.1426L120.798 110.919L118.453 111.577ZM112.444 87.3353L118.987 110.626L119.847 110.385L113.304 87.0937L112.444 87.3353Z" fill="#363E44"/>
<path d="M107.783 88.6444L102.64 70.3341C102.582 70.1288 102.702 69.9162 102.907 69.8585C103.112 69.802 103.325 69.9202 103.382 70.1255L108.317 87.6933L116.931 85.2736L111.996 67.7057C111.938 67.5006 112.058 67.2878 112.263 67.2303C112.469 67.1738 112.681 67.292 112.738 67.4971L117.882 85.8074L107.783 88.6444Z" fill="#363E44"/>
<path d="M110.746 87.812L105.603 69.5017C105.546 69.2964 105.665 69.0838 105.87 69.0262C106.076 68.9694 106.288 69.0883 106.346 69.2933L111.28 86.8611L113.945 86.1127L109.01 68.5448C108.953 68.3397 109.072 68.1269 109.277 68.0694C109.483 68.0126 109.695 68.1311 109.753 68.3362L114.896 86.6465L110.746 87.812Z" fill="#363E44"/>
<path d="M107.813 76.6798C113.288 76.0286 117.42 72.9265 117.042 69.751C116.664 66.5756 111.92 64.5292 106.445 65.1803C100.97 65.8315 96.8377 68.9336 97.2153 72.1091C97.593 75.2846 102.338 77.3309 107.813 76.6798Z" fill="#D87355"/>
<path d="M55.9878 194.904C75.8269 171.359 81.8067 162.277 101.646 138.732C102.745 134.826 105.639 124.083 114.925 116.452C124.213 108.82 133.213 109.79 133.839 112.852C134.48 115.993 127.723 118.514 124.93 120.413C125.465 120.462 128.297 120.138 129.721 122.232C131.171 124.362 130.538 127.261 130.459 127.719C132.268 128.517 133.799 129.248 134.592 131.632C135.53 134.452 133.802 136.894 133.802 136.894C133.802 136.894 136.575 139.479 136.969 143.54C137.476 148.763 134.174 153.133 131.646 152.573C130.65 152.352 128.74 150.983 128.878 147.105C128.439 148.561 128.401 155.348 125.893 159.645C123.808 163.218 119.704 164.428 118.446 165.066C106.15 188.933 98.6431 195.396 86.3472 219.262C74.0444 210.43 68.2907 203.736 55.9878 194.904Z" fill="#E2A18D"/>
<path d="M120.451 123.786C120.365 123.786 120.279 123.757 120.207 123.699C120.042 123.564 120.018 123.321 120.153 123.156C120.767 122.406 121.481 121.745 122.275 121.191C122.932 120.733 123.644 120.349 124.391 120.052C124.589 119.972 124.813 120.069 124.892 120.267C124.971 120.465 124.875 120.689 124.677 120.768C123.985 121.044 123.325 121.399 122.716 121.823C121.981 122.337 121.319 122.95 120.749 123.645C120.673 123.738 120.563 123.786 120.451 123.786Z" fill="#363E44"/>
<path d="M125.928 130.073C125.807 130.073 125.688 130.016 125.613 129.909C125.49 129.735 125.532 129.495 125.706 129.372C126.5 128.813 127.365 128.367 128.277 128.047C129.034 127.78 129.822 127.601 130.62 127.515C130.834 127.49 131.022 127.644 131.045 127.856C131.068 128.068 130.915 128.258 130.704 128.281C129.964 128.362 129.234 128.527 128.533 128.774C127.687 129.071 126.886 129.484 126.15 130.003C126.082 130.05 126.005 130.073 125.928 130.073Z" fill="#363E44"/>
<path d="M126.982 140.004C126.919 140.004 126.855 139.989 126.796 139.956C126.61 139.853 126.542 139.619 126.644 139.433C127.081 138.64 128.094 137.21 129.978 136.535C131.022 136.161 132.382 136.122 133.441 136.436C133.645 136.496 133.761 136.711 133.701 136.915C133.641 137.119 133.427 137.236 133.222 137.175C132.309 136.904 131.138 136.939 130.237 137.261C128.593 137.851 127.703 139.108 127.32 139.805C127.249 139.932 127.118 140.004 126.982 140.004Z" fill="#363E44"/>
<path d="M128.79 147.605C128.699 147.605 128.607 147.573 128.534 147.508C128.375 147.366 128.36 147.123 128.502 146.963L131.098 144.04C131.24 143.881 131.483 143.867 131.643 144.008C131.802 144.15 131.816 144.393 131.675 144.552L129.078 147.475C129.002 147.561 128.896 147.605 128.79 147.605Z" fill="#363E44"/>
<path d="M47.1158 242.474C24.933 215.265 81.1425 155.065 81.1425 155.065L115.412 181.649C115.412 181.649 71.8564 272.82 47.1158 242.474Z" fill="#8B865C"/>
<path d="M83.2448 231.054C83.1642 231.054 83.0825 231.029 83.0129 230.976C82.8431 230.848 82.8092 230.606 82.9372 230.436C92.586 217.641 112.764 185.188 114.902 181.741L110.98 178.699C110.812 178.569 110.781 178.326 110.912 178.158C111.043 177.99 111.284 177.959 111.453 178.09L115.923 181.557L115.74 181.852C115.521 182.206 93.7189 217.419 83.5532 230.901C83.477 231.001 83.3618 231.054 83.2448 231.054Z" fill="#363E44"/>
<path d="M245.047 217.645C230.129 219.841 194.74 223.273 191.298 223.746C184.866 224.63 144.862 229.985 145.343 235.432C145.626 238.631 157.549 236.947 159.799 236.615C158.114 237.778 146.979 243.689 147.729 246.293C149.018 250.772 161.97 243.926 162.141 243.964C160.311 244.972 150.137 249.224 150.571 251.211C151.499 255.461 162.112 251.81 164.48 251.286C164.303 251.664 155.534 254.526 156.052 257.373C156.463 259.633 169.272 258.47 172.27 258.305C177.986 257.524 193.094 257.239 204.006 256.862C229.634 255.977 246.927 246.501 246.927 246.501C246.927 246.501 252.01 221.818 245.047 217.645Z" fill="#E2A18D"/>
<path d="M159.687 236.773C159.549 236.773 159.415 236.699 159.346 236.567C159.246 236.379 159.318 236.146 159.507 236.047C160.724 235.404 161.996 234.84 163.288 234.372C165.607 233.531 168.038 232.976 170.515 232.723C170.72 232.704 170.916 232.856 170.938 233.068C170.959 233.28 170.805 233.469 170.593 233.491C168.18 233.737 165.81 234.277 163.551 235.097C162.292 235.553 161.053 236.102 159.867 236.728C159.809 236.759 159.748 236.773 159.687 236.773Z" fill="#363E44"/>
<path d="M161.99 244.201C161.837 244.201 161.692 244.109 161.632 243.958C161.553 243.76 161.65 243.536 161.848 243.458C162.117 243.351 162.391 243.247 162.673 243.145C164.992 242.304 167.424 241.749 169.9 241.496C170.106 241.477 170.301 241.629 170.323 241.841C170.344 242.053 170.19 242.242 169.978 242.264C167.565 242.51 165.196 243.051 162.935 243.87C162.661 243.969 162.394 244.071 162.132 244.174C162.086 244.193 162.038 244.201 161.99 244.201Z" fill="#363E44"/>
<path d="M164.626 251.581C164.456 251.581 164.3 251.467 164.254 251.295C164.198 251.089 164.32 250.878 164.526 250.823C166.084 250.405 167.693 250.109 169.308 249.945C169.517 249.928 169.709 250.077 169.731 250.289C169.752 250.501 169.598 250.69 169.386 250.712C167.813 250.872 166.244 251.16 164.726 251.568C164.693 251.577 164.659 251.581 164.626 251.581Z" fill="#363E44"/>
<path d="M204.993 205.048L220.653 210.738L203.998 215.902L203.979 256.982C203.979 256.982 284.863 255.357 283.521 217.656C282.544 190.229 216.333 159.639 216.333 159.639L204.993 205.048Z" fill="#8B865C"/>
<path d="M204.288 215.829C204.119 215.829 203.964 215.717 203.916 215.547C203.86 215.342 203.98 215.129 204.185 215.072L252.563 201.621C252.766 201.565 252.98 201.684 253.038 201.889C253.094 202.094 252.974 202.307 252.769 202.364L204.391 215.815C204.357 215.825 204.322 215.829 204.288 215.829Z" fill="#363E44"/>
<path d="M154.053 72.9503C151.378 72.9503 147.687 73.684 146.272 74.9882L149.445 84.7464L144.117 78.2356C141.245 85.4434 144.79 97.7286 145.739 100.646C147.83 107.07 150.607 112.225 155.811 115.752C161.579 119.663 170.519 121.555 177.936 117.126C187.341 111.509 187.388 99.8543 187.397 97.7465C187.445 85.8986 169.995 72.9503 154.053 72.9503Z" fill="#84524D"/>
<path d="M166.916 156.024H166.916L177.76 143.007L178.744 121.642L155.506 120.563L154.536 141.952L166.916 156.024Z" fill="#E2A18D"/>
<path d="M148.362 107.211C148.819 116.923 154.591 132.055 167.129 131.464C179.666 130.874 183.99 115.266 183.532 105.554C183.075 95.8418 174.753 90.8888 165.041 91.3462C155.328 91.8038 147.904 97.4986 148.362 107.211Z" fill="#E2A18D"/>
<path d="M189.207 113.329C190.699 109.489 189.832 105.569 187.272 104.575C184.711 103.581 181.427 105.888 179.935 109.729C178.444 113.569 179.31 117.489 181.871 118.483C184.431 119.477 187.716 117.17 189.207 113.329Z" fill="#E2A18D"/>
<path d="M151.327 119.923C153.783 118.693 154.277 114.709 152.43 111.026C150.584 107.343 147.097 105.355 144.642 106.585C142.186 107.816 141.692 111.8 143.538 115.483C145.385 119.166 148.872 121.154 151.327 119.923Z" fill="#E2A18D"/>
<path d="M147.558 117.036C147.493 117.036 147.427 117.019 147.367 116.985C146.511 116.497 145.755 115.663 145.241 114.637C144.155 112.468 144.498 110.089 146.007 109.333C146.164 109.254 146.332 109.194 146.505 109.154C146.712 109.106 146.919 109.236 146.967 109.444C147.014 109.652 146.885 109.858 146.677 109.906C146.564 109.932 146.455 109.971 146.352 110.022C145.243 110.578 145.05 112.534 145.931 114.291C146.377 115.183 147.023 115.901 147.749 116.315C147.934 116.42 147.999 116.656 147.893 116.841C147.822 116.965 147.692 117.036 147.558 117.036Z" fill="#363E44"/>
<path d="M185.151 115.265C185.03 115.265 184.91 115.208 184.835 115.101C184.713 114.927 184.755 114.686 184.929 114.564C185.613 114.083 186.188 113.307 186.549 112.378C187.261 110.545 186.885 108.617 185.728 108.168C185.621 108.126 185.508 108.097 185.394 108.082C185.183 108.055 185.034 107.861 185.062 107.65C185.089 107.439 185.281 107.287 185.494 107.318C185.669 107.341 185.842 107.385 186.007 107.448C187.58 108.06 188.146 110.396 187.268 112.657C186.852 113.726 186.179 114.628 185.372 115.195C185.305 115.242 185.227 115.265 185.151 115.265Z" fill="#363E44"/>
<path d="M150.38 117.611C150.221 117.611 150.073 117.512 150.017 117.354C149.079 114.706 148.426 111.863 148.127 109.132C148.104 108.92 148.256 108.73 148.468 108.707C148.678 108.684 148.87 108.836 148.893 109.048C149.186 111.721 149.826 114.504 150.744 117.096C150.815 117.297 150.71 117.517 150.509 117.589C150.466 117.604 150.423 117.611 150.38 117.611Z" fill="#363E44"/>
<path d="M182.217 117.033C182.182 117.033 182.147 117.028 182.112 117.018C181.907 116.961 181.787 116.748 181.845 116.543C182.73 113.393 183.204 109.901 183.178 106.712C183.176 106.499 183.348 106.325 183.561 106.323C183.778 106.319 183.948 106.493 183.949 106.706C183.976 109.966 183.492 113.534 182.587 116.752C182.54 116.922 182.385 117.033 182.217 117.033Z" fill="#363E44"/>
<path d="M149.424 107.102C149.424 107.102 150.401 108.322 152.043 109.457C153.135 110.211 156.325 109.877 156.325 109.877C156.325 109.877 160.027 111.239 161.46 110.788C162.894 110.338 163.831 109.794 163.831 109.794C163.831 109.794 163.295 109.124 162.349 108.316C161.17 107.308 156.65 107.549 156.65 107.549C156.65 107.549 153.501 105.61 152.107 106.013C150.498 106.479 149.424 107.102 149.424 107.102Z" fill="white"/>
<path d="M157.146 105.671C159.347 106.082 161.154 107.298 162.334 108.304C162.255 109.194 161.955 110.05 161.461 110.788C160.028 111.239 158.098 111.596 156.109 111.225C154.509 110.926 153.119 110.2 152.024 109.439C151.658 108.285 151.709 107.088 152.102 106.018C153.499 105.613 155.294 105.325 157.146 105.671Z" fill="#363E44"/>
<path d="M182.633 107.289C182.633 107.289 181.5 108.68 179.63 109.86C178.594 110.513 175.691 109.683 175.691 109.683C175.691 109.683 172.23 111.378 170.832 110.956C169.253 110.479 168.204 109.858 168.204 109.858C168.204 109.858 168.734 109.207 169.669 108.418C170.855 107.415 175.165 107.404 175.165 107.404C175.165 107.404 178.61 105.769 180.009 106.192C181.586 106.669 182.633 107.289 182.633 107.289Z" fill="white"/>
<path d="M169.661 108.424C170.848 107.42 172.689 106.19 174.923 105.792C176.789 105.46 178.592 105.768 179.987 106.188C180.269 107.265 180.221 108.437 179.764 109.545C179.718 109.656 179.663 109.761 179.611 109.867C178.579 110.517 177.327 111.103 175.914 111.354C174.048 111.687 172.245 111.378 170.849 110.958C170.232 110.234 169.823 109.357 169.661 108.424Z" fill="#363E44"/>
<path d="M166.527 132.173C161.946 132.173 158.155 129.347 155.332 126.84C155.172 126.698 155.158 126.454 155.299 126.295C155.441 126.136 155.685 126.122 155.844 126.263C158.694 128.794 162.559 131.663 167.157 131.383C171.75 131.103 175.2 127.979 177.969 124.96C178.113 124.803 178.357 124.793 178.514 124.937C178.671 125.081 178.682 125.324 178.538 125.481C175.832 128.431 172.099 131.855 167.204 132.153C166.976 132.166 166.75 132.173 166.527 132.173Z" fill="#363E44"/>
<path d="M166.152 118.703C166.096 118.703 166.039 118.691 165.986 118.665C165.032 118.21 164.48 117.644 164.346 116.984C164.227 116.396 164.469 115.942 164.724 115.461C164.894 115.141 165.087 114.778 165.215 114.308C165.401 113.621 165.404 112.881 165.223 112.107C165.174 111.9 165.303 111.692 165.51 111.644C165.717 111.596 165.925 111.724 165.973 111.931C166.184 112.831 166.179 113.698 165.959 114.51C165.808 115.064 165.585 115.485 165.405 115.823C165.164 116.277 165.041 116.529 165.102 116.831C165.185 117.241 165.594 117.624 166.318 117.97C166.51 118.061 166.592 118.292 166.5 118.484C166.434 118.622 166.296 118.703 166.152 118.703Z" fill="#363E44"/>
<path d="M168.069 122.048C167.609 122.048 167.157 121.956 166.754 121.771C166.561 121.682 166.476 121.454 166.565 121.26C166.654 121.066 166.882 120.981 167.076 121.071C167.806 121.406 168.76 121.332 169.506 120.879C169.95 120.609 170.294 120.219 170.475 119.781C170.556 119.584 170.781 119.492 170.978 119.571C171.175 119.652 171.269 119.878 171.188 120.075C170.945 120.664 170.49 121.184 169.906 121.538C169.351 121.875 168.703 122.048 168.069 122.048Z" fill="#363E44"/>
<path d="M30.458 252.916C60.1907 293.498 105.826 319.787 159.448 319.787C213.069 319.787 260.644 293.498 290.376 252.916H30.458Z" fill="#F2E6DC"/>
<path d="M280.423 253.687H39.3255C39.1124 253.687 38.9399 253.514 38.9399 253.301C38.9399 253.088 39.1124 252.916 39.3255 252.916H280.423C280.636 252.916 280.809 253.088 280.809 253.301C280.809 253.514 280.636 253.687 280.423 253.687Z" fill="#363E44"/>
<path d="M206.776 76.8676H240.193V43.7091H197.789V72.1351V76.8676V89.8788L206.776 76.8676Z" fill="white"/>
<path d="M227.644 52.7758C225.25 50.3814 221.368 50.3814 218.974 52.7758L218.926 52.8235L218.89 52.7872C216.489 50.3865 212.597 50.3865 210.196 52.7872C207.795 55.1878 207.795 59.08 210.196 61.4808L218.905 70.1901L227.645 61.4466C230.039 59.0522 230.039 55.1702 227.644 52.7758Z" fill="#D87355"/>
<path d="M231.687 293.25C259.924 293.25 282.814 287.691 282.814 280.833C282.814 273.976 259.924 268.417 231.687 268.417C203.45 268.417 180.56 273.976 180.56 280.833C180.56 287.691 203.45 293.25 231.687 293.25Z" fill="#F7F1EB"/>
<path d="M232.844 294.214C203.958 294.214 181.331 288.591 181.331 281.412C181.331 274.233 203.958 268.609 232.844 268.609C261.729 268.609 284.356 274.233 284.356 281.412C284.356 288.591 261.729 294.214 232.844 294.214ZM232.844 269.38C205.339 269.38 182.102 274.89 182.102 281.412C182.102 287.933 205.339 293.443 232.844 293.443C260.348 293.443 283.585 287.933 283.585 281.412C283.585 274.89 260.348 269.38 232.844 269.38Z" fill="#D3BBA3"/>
<path d="M227.191 286.676C236.248 286.676 243.591 283.27 243.591 279.068C243.591 274.866 236.248 271.46 227.191 271.46C218.134 271.46 210.792 274.866 210.792 279.068C210.792 283.27 218.134 286.676 227.191 286.676Z" fill="#EFBC73"/>
<path d="M223.316 278.636C230.607 278.636 236.517 275.894 236.517 272.512C236.517 269.13 230.607 266.388 223.316 266.388C216.025 266.388 210.115 269.13 210.115 272.512C210.115 275.894 216.025 278.636 223.316 278.636Z" fill="#EFBC73"/>
<path d="M223.316 279.022C219.424 279.022 215.72 278.234 213.155 276.861C212.967 276.761 212.897 276.527 212.997 276.339C213.098 276.152 213.331 276.081 213.519 276.181C215.976 277.496 219.547 278.251 223.316 278.251C228.663 278.251 233.506 276.717 235.368 274.436C235.501 274.271 235.744 274.245 235.91 274.381C236.075 274.515 236.099 274.758 235.965 274.923C233.933 277.413 228.968 279.022 223.316 279.022Z" fill="#FFD092"/>
<path d="M224.655 272.738C230.872 272.738 235.913 270.399 235.913 267.515C235.913 264.631 230.872 262.293 224.655 262.293C218.438 262.293 213.397 264.631 213.397 267.515C213.397 270.399 218.438 272.738 224.655 272.738Z" fill="#EFBC73"/>
<path d="M224.655 273.123C220.49 273.123 216.626 272.062 214.571 270.352C214.407 270.216 214.385 269.973 214.521 269.809C214.657 269.646 214.899 269.623 215.064 269.76C216.987 271.359 220.662 272.352 224.655 272.352C227.15 272.352 229.592 271.957 231.532 271.24C231.732 271.166 231.954 271.268 232.027 271.468C232.101 271.668 231.999 271.889 231.799 271.963C229.747 272.722 227.276 273.123 224.655 273.123Z" fill="#FFD092"/>
<path d="M245.845 282.543C248.003 282.543 249.752 280.794 249.752 278.636C249.752 276.478 248.003 274.729 245.845 274.729C243.687 274.729 241.937 276.478 241.937 278.636C241.937 280.794 243.687 282.543 245.845 282.543Z" fill="#D87355"/>
<path d="M239.736 288.733C241.894 288.733 243.643 286.983 243.643 284.826C243.643 282.668 241.894 280.918 239.736 280.918C237.578 280.918 235.828 282.668 235.828 284.826C235.828 286.983 237.578 288.733 239.736 288.733Z" fill="#D87355"/>
<path d="M251.054 287.859C253.048 287.033 253.995 284.747 253.169 282.753C252.343 280.76 250.057 279.813 248.064 280.639C246.07 281.465 245.123 283.75 245.949 285.744C246.775 287.738 249.061 288.685 251.054 287.859Z" fill="#D87355"/>
<path d="M260.014 283.605C262.008 282.779 262.954 280.493 262.129 278.499C261.303 276.506 259.017 275.559 257.023 276.385C255.03 277.211 254.083 279.496 254.909 281.49C255.735 283.484 258.02 284.431 260.014 283.605Z" fill="#D87355"/>
<path d="M221.508 266.076C221.508 266.076 219.774 269.538 216.47 270.831C213.166 272.124 209.543 270.758 209.543 270.758C209.543 270.758 211.277 267.296 214.581 266.003C217.885 264.71 221.508 266.076 221.508 266.076Z" fill="#8B865C"/>
<path d="M221.506 266.077C221.506 266.077 222.709 268.855 221.787 271.416C220.865 273.976 218.167 275.35 218.167 275.35C218.167 275.35 216.964 272.572 217.886 270.011C218.808 267.451 221.506 266.077 221.506 266.077Z" fill="#8B865C"/>
<path d="M98.8279 254.91C98.8279 261.239 109.101 282.539 138.734 282.539C169.948 282.539 178.641 261.239 178.641 254.91C178.641 248.582 160.774 243.452 138.734 243.452C116.695 243.452 98.8279 248.582 98.8279 254.91Z" fill="white"/>
<path d="M138.734 266.369C160.774 266.369 178.641 261.239 178.641 254.91C178.641 248.582 160.774 243.452 138.734 243.452C116.694 243.452 98.8276 248.582 98.8276 254.91C98.8276 261.239 116.694 266.369 138.734 266.369Z" fill="#9E9569"/>
<path d="M102.768 254.91C102.768 260.614 118.871 265.237 138.734 265.237C158.598 265.237 174.701 260.614 174.701 254.91C174.701 249.207 153.07 240.407 140.105 240.407C125.712 240.407 102.768 249.207 102.768 254.91Z" fill="#EFBC73"/>
<path d="M138.734 270.415C121.873 270.415 106.683 267.337 100.937 262.755C100.77 262.622 100.743 262.38 100.876 262.214C101.009 262.047 101.251 262.02 101.417 262.152C107.038 266.633 122.034 269.644 138.734 269.644C155.951 269.644 171.515 266.375 176.585 261.695C176.742 261.551 176.986 261.56 177.13 261.716C177.274 261.873 177.265 262.117 177.108 262.261C171.826 267.138 156.405 270.415 138.734 270.415Z" fill="#FFD092"/>
<path d="M108.807 281.42C114.042 285.071 119.503 283.745 120.884 280.896C122.265 278.046 119.941 272.87 113.808 271.101C107.703 269.341 100.081 270.827 100.081 270.827C100.081 270.827 103.21 277.517 108.807 281.42Z" fill="#9E9569"/>
<path d="M122.459 281.982C122.403 281.982 122.346 281.97 122.292 281.944L104.775 273.466C104.583 273.373 104.503 273.143 104.596 272.951C104.689 272.76 104.919 272.68 105.111 272.772L122.627 281.249C122.819 281.342 122.899 281.573 122.807 281.764C122.74 281.902 122.603 281.982 122.459 281.982Z" fill="#F2E6DC"/>
<path d="M111.532 269.941C111.467 277.227 116.236 281.514 119.81 280.974C123.384 280.435 126.763 274.904 124.476 267.988C122.2 261.103 115.888 254.886 115.888 254.886C115.888 254.886 111.602 262.151 111.532 269.941Z" fill="#8B865C"/>
<path d="M119.783 281.179C119.595 281.179 119.43 281.041 119.402 280.85L116.481 261C116.45 260.789 116.596 260.593 116.806 260.562C117.016 260.527 117.213 260.677 117.244 260.887L120.165 280.737C120.196 280.948 120.05 281.144 119.84 281.175C119.821 281.178 119.802 281.179 119.783 281.179Z" fill="#F2E6DC"/>
<path d="M103.912 104.919L103.858 104.908C95.7318 103.26 89.374 96.9191 87.7038 88.7969L87.693 88.8502C86.0447 96.9768 79.704 103.335 71.5818 105.005L71.6351 105.016C79.7617 106.664 86.1196 113.005 87.7897 121.127L87.8005 121.074C89.4488 112.947 95.7895 106.589 103.912 104.919Z" fill="#F7F1EB"/>
<path d="M64.1729 86.7807L64.1344 86.773C58.2842 85.5866 53.7075 81.022 52.5053 75.175L52.4974 75.2135C51.311 81.0636 46.7465 85.6404 40.8994 86.8426L40.9379 86.8503C46.7879 88.0368 51.3648 92.6012 52.567 98.4483L52.5747 98.4098C53.7615 92.5596 58.326 87.9829 64.1729 86.7807Z" fill="white"/>
<path d="M239.209 110.684L239.171 110.677C233.321 109.49 228.744 104.926 227.541 99.0787L227.534 99.1172C226.347 104.967 221.783 109.544 215.936 110.746L215.974 110.754C221.824 111.94 226.401 116.505 227.603 122.352L227.611 122.314C228.798 116.463 233.362 111.887 239.209 110.684Z" fill="#F7F1EB"/>
</svg>
