<svg width="317" height="320" viewBox="0 0 317 320" fill="none" xmlns="http://www.w3.org/2000/svg">
<path d="M158.5 317C246.037 317 317 246.037 317 158.5C317 70.9629 246.037 0.00012207 158.5 0.00012207C70.9628 0.00012207 0 70.9629 0 158.5C0 246.037 70.9628 317 158.5 317Z" fill="#F2E6DC"/>
<path d="M127.338 42.8286C127.295 42.8286 127.252 42.8128 127.218 42.781C127.148 42.7148 127.145 42.6042 127.211 42.5339L137.179 31.9678L131.179 26.5498L121.681 37.5394C121.617 37.6126 121.507 37.6203 121.434 37.5574C121.361 37.4943 121.353 37.384 121.416 37.311L131.148 26.051L137.678 31.9479L127.465 42.7739C127.431 42.8102 127.385 42.8286 127.338 42.8286Z" fill="#363E44"/>
<path d="M134.303 29.0523C134.261 29.0523 134.219 29.0375 134.186 29.0072C134.114 28.9426 134.109 28.8321 134.173 28.7603L152.827 8.10481C152.891 8.03315 153.002 8.02774 153.074 8.09223C153.145 8.15689 153.151 8.26752 153.086 8.33917L134.433 28.9946C134.398 29.0329 134.35 29.0523 134.303 29.0523Z" fill="#363E44"/>
<path d="M125.628 41.0444C125.586 41.0444 125.544 41.0295 125.511 40.9993C125.439 40.9346 125.434 40.824 125.498 40.7524L135.148 30.0676C135.212 29.9959 135.323 29.9905 135.394 30.055C135.466 30.1197 135.472 30.2301 135.407 30.3019L125.758 40.9867C125.723 41.025 125.676 41.0444 125.628 41.0444Z" fill="#363E44"/>
<path d="M123.492 39.115C123.45 39.115 123.408 39.1001 123.375 39.0699C123.303 39.0052 123.297 38.8947 123.362 38.8229L133.011 28.1381C133.076 28.0665 133.186 28.0611 133.258 28.1256C133.33 28.1902 133.335 28.3007 133.271 28.3725L123.621 39.0573C123.587 39.0956 123.539 39.115 123.492 39.115Z" fill="#363E44"/>
<path d="M92.818 39.9512L86.2424 37.6814L83.9727 44.257L90.5483 46.5268L92.818 39.9512Z" fill="white"/>
<path d="M113.11 51.5042L109.632 45.4802L103.608 48.9583L107.086 54.9823L113.11 51.5042Z" fill="white"/>
<path d="M127.696 49.4201L124.218 43.3961L118.194 46.8742L121.672 52.8982L127.696 49.4201Z" fill="white"/>
<path d="M137.631 43.6364L130.924 41.7924L129.08 48.4994L135.787 50.3435L137.631 43.6364Z" fill="white"/>
<path d="M102.214 49.6916C102.926 47.9183 101.176 45.5459 98.3046 44.3928C95.4333 43.2396 92.5284 43.7424 91.8162 45.5157C91.104 47.2891 92.8542 49.6615 95.7254 50.8146C98.5967 51.9678 101.502 51.465 102.214 49.6916Z" fill="#D87355"/>
<path d="M116.394 47.4135C118.979 45.7121 120.222 43.039 119.171 41.443C118.12 39.847 115.173 39.9324 112.589 41.6338C110.005 43.3352 108.762 46.0083 109.813 47.6043C110.864 49.2003 113.81 49.1149 116.394 47.4135Z" fill="#D87355"/>
<path d="M129.959 54.2244C131.846 53.9236 132.981 51.2029 132.494 48.1476C132.007 45.0923 130.082 42.8593 128.195 43.1601C126.308 43.4609 125.173 46.1815 125.66 49.2369C126.147 52.2922 128.071 54.5252 129.959 54.2244Z" fill="#D87355"/>
<path d="M86.0774 52.1819C88.252 52.1819 90.0149 50.419 90.0149 48.2444C90.0149 46.0698 88.252 44.3069 86.0774 44.3069C83.9028 44.3069 82.1399 46.0698 82.1399 48.2444C82.1399 50.419 83.9028 52.1819 86.0774 52.1819Z" fill="#8B865C"/>
<path d="M94.4124 45.9306C96.587 45.9306 98.3499 44.1677 98.3499 41.9931C98.3499 39.8184 96.587 38.0555 94.4124 38.0555C92.2377 38.0555 90.4749 39.8184 90.4749 41.9931C90.4749 44.1677 92.2377 45.9306 94.4124 45.9306Z" fill="#8B865C"/>
<path d="M115.25 52.1819C117.425 52.1819 119.188 50.419 119.188 48.2444C119.188 46.0698 117.425 44.3069 115.25 44.3069C113.075 44.3069 111.312 46.0698 111.312 48.2444C111.312 50.419 113.075 52.1819 115.25 52.1819Z" fill="#8B865C"/>
<path d="M125.669 48.0143C127.844 48.0143 129.606 46.2514 129.606 44.0768C129.606 41.9022 127.844 40.1393 125.669 40.1393C123.494 40.1393 121.731 41.9022 121.731 44.0768C121.731 46.2514 123.494 48.0143 125.669 48.0143Z" fill="#8B865C"/>
<path d="M129.836 52.3565C127.569 52.3565 125.724 50.5118 125.724 48.2444C125.724 45.9768 127.569 44.1321 129.836 44.1321C132.104 44.1321 133.949 45.9768 133.949 48.2444C133.949 50.5118 132.104 52.3565 129.836 52.3565ZM129.836 44.4816C127.762 44.4816 126.074 46.1695 126.074 48.2444C126.074 50.319 127.762 52.0069 129.836 52.0069C131.911 52.0069 133.599 50.319 133.599 48.2444C133.599 46.1695 131.911 44.4816 129.836 44.4816Z" fill="#8B865C"/>
<path d="M92.3287 50.2727C90.0612 50.2727 88.2166 48.4281 88.2166 46.1605C88.2166 43.893 90.0614 42.0483 92.3287 42.0483C94.5963 42.0483 96.4409 43.893 96.4409 46.1605C96.4409 48.4281 94.5963 50.2727 92.3287 50.2727ZM92.3287 42.3979C90.254 42.3979 88.5661 44.0858 88.5661 46.1605C88.5661 48.2351 90.254 49.9232 92.3287 49.9232C94.4035 49.9232 96.0914 48.2353 96.0914 46.1605C96.0914 44.086 94.4035 42.3979 92.3287 42.3979Z" fill="#8B865C"/>
<path d="M106.531 45.5444L113.485 45.3823L113.323 38.4283L106.369 38.5904L106.531 45.5444Z" fill="white"/>
<path d="M105.53 39.9719C105.58 38.0615 103.113 36.4471 100.02 36.3661C96.9273 36.285 94.3792 37.7679 94.3292 39.6783C94.2791 41.5887 96.746 43.203 99.839 43.2841C102.932 43.3652 105.48 41.8822 105.53 39.9719Z" fill="#D87355"/>
<path d="M128.637 37.0503C129.198 34.9491 127.949 32.7912 125.848 32.2303C123.747 31.6695 121.589 32.9182 121.028 35.0193C120.468 37.1204 121.716 39.2784 123.817 39.8392C125.918 40.4001 128.076 39.1514 128.637 37.0503Z" fill="#8B865C"/>
<path d="M128.458 43.1002C126.89 43.1002 125.389 42.1993 124.704 40.6799C123.771 38.6133 124.693 36.1728 126.76 35.2399C127.761 34.7881 128.878 34.7532 129.906 35.1415C130.933 35.5298 131.748 36.2951 132.2 37.2964C133.133 39.363 132.21 41.8035 130.143 42.7364C129.596 42.9833 129.022 43.1002 128.458 43.1002ZM125.022 40.536C125.876 42.427 128.108 43.2715 129.999 42.4176C131.89 41.564 132.734 39.3312 131.881 37.44C131.467 36.5239 130.722 35.8238 129.782 35.4683C128.842 35.113 127.82 35.145 126.903 35.5585C125.013 36.412 124.169 38.6451 125.022 40.536Z" fill="#8B865C"/>
<path d="M120.436 39.4584C123.221 38.1122 124.806 35.6261 123.974 33.9055C123.143 32.1848 120.21 31.8813 117.425 33.2275C114.639 34.5737 113.054 37.0599 113.886 38.7805C114.717 40.5011 117.65 40.8046 120.436 39.4584Z" fill="#D87355"/>
<path d="M110.963 39.2354C113.065 38.6754 114.314 36.518 113.754 34.4166C113.194 32.3153 111.037 31.0658 108.935 31.6257C106.834 32.1857 105.585 34.3431 106.145 36.4445C106.704 38.5458 108.862 39.7954 110.963 39.2354Z" fill="#8B865C"/>
<path d="M104.879 48.0901C107.03 47.773 108.517 45.772 108.2 43.6206C107.883 41.4693 105.882 39.9823 103.731 40.2993C101.579 40.6164 100.092 42.6174 100.41 44.7688C100.727 46.9202 102.728 48.4072 104.879 48.0901Z" fill="#8B865C"/>
<path d="M104.816 43.6695C103.146 43.6695 101.573 42.6443 100.957 40.9892C100.168 38.8637 101.254 36.4921 103.38 35.7023C105.507 34.9127 107.877 35.9996 108.667 38.1249C109.457 40.2505 108.37 42.6221 106.244 43.4118C105.774 43.5864 105.291 43.6695 104.816 43.6695ZM101.285 40.8674C102.008 42.8122 104.178 43.8065 106.123 43.084C108.067 42.3615 109.062 40.1914 108.339 38.2464C107.617 36.3016 105.446 35.307 103.502 36.0298C101.557 36.7525 100.562 38.9226 101.285 40.8674Z" fill="#8B865C"/>
<path d="M99.0562 78.7933H119.126C131.579 74.6206 140.568 62.8959 140.656 49.0588H77.5264C77.6139 62.8961 86.6033 74.6207 99.0562 78.7933Z" fill="#363E44"/>
<path d="M91.7675 215.532C75.4481 224.36 69.9209 245.754 78.7496 262.074C90.3075 283.438 114.295 305.777 131.405 307.47C133.873 307.714 135.325 304.779 133.647 302.953C127.433 296.191 119.188 284.083 113.478 273.528C107.807 263.045 106.589 253.184 110.518 251.059C114.447 248.934 122.034 255.349 127.705 265.832C132.83 275.305 138.944 289.994 141.281 299.355C141.872 301.723 145.056 302.185 146.246 300.054C154.816 284.7 148.099 249.053 137.847 230.103C129.019 213.783 108.087 206.703 91.7675 215.532Z" fill="#D87355"/>
<path d="M135.51 307.659C135.41 307.659 135.309 307.654 135.207 307.644C127.13 306.845 117.005 301.389 106.699 292.28C96.9722 283.684 88.1209 272.704 82.4151 262.157C78.1528 254.278 77.0825 244.725 79.4786 235.948C81.9365 226.944 87.6275 219.639 95.5036 215.378C103.38 211.117 112.608 210.351 121.489 213.221C130.148 216.018 137.558 222.141 141.82 230.02C146.988 239.572 151.203 253.173 153.097 266.402C155.197 281.07 154.174 293.051 150.218 300.139C149.638 301.178 148.545 301.726 147.361 301.569C146.156 301.408 145.225 300.576 144.93 299.398C142.743 290.634 136.787 275.927 131.371 265.915C128.65 260.886 125.38 256.601 122.164 253.85C119.011 251.154 116.26 250.217 114.42 251.213C112.579 252.209 111.859 255.023 112.39 259.138C112.932 263.335 114.73 268.416 117.451 273.446C123.235 284.138 131.519 296.223 137.595 302.835C138.424 303.737 138.599 304.978 138.052 306.073C137.555 307.07 136.598 307.659 135.51 307.659ZM110.836 211.863C105.539 211.863 100.362 213.147 95.6698 215.685C87.8786 219.9 82.2482 227.129 79.8157 236.04C77.4431 244.731 78.5024 254.19 82.7225 261.991C88.4096 272.503 97.2329 283.448 106.93 292.018C117.182 301.078 127.237 306.504 135.242 307.296C136.305 307.402 137.263 306.872 137.74 305.916C138.22 304.954 138.066 303.864 137.338 303.071C131.244 296.44 122.94 284.326 117.143 273.612C111.448 263.084 110.179 253.11 114.254 250.905C118.328 248.7 125.982 255.221 131.678 265.749C137.106 275.782 143.076 290.526 145.269 299.313C145.528 300.35 146.347 301.081 147.407 301.222C148.444 301.359 149.404 300.88 149.913 299.969C153.832 292.947 154.84 281.044 152.751 266.452C150.863 253.261 146.661 239.704 141.512 230.186C137.293 222.386 129.955 216.323 121.382 213.553C117.886 212.423 114.334 211.863 110.836 211.863Z" fill="white"/>
<path d="M124.587 305.867C124.493 305.867 124.415 305.792 124.413 305.697C124.267 300.407 124.81 296.286 126.026 293.449C126.064 293.36 126.166 293.319 126.255 293.357C126.344 293.395 126.385 293.498 126.347 293.587C125.15 296.377 124.617 300.448 124.762 305.688C124.765 305.784 124.689 305.865 124.592 305.867C124.591 305.867 124.589 305.867 124.587 305.867Z" fill="white"/>
<path d="M148.212 296.069C148.175 296.069 148.138 296.058 148.106 296.034C144.456 293.279 141.184 291.293 138.381 290.132C138.291 290.095 138.249 289.993 138.286 289.904C138.323 289.814 138.425 289.772 138.514 289.809C141.345 290.982 144.643 292.982 148.317 295.755C148.394 295.813 148.409 295.922 148.351 296C148.317 296.045 148.265 296.069 148.212 296.069Z" fill="white"/>
<path d="M79.3279 227.598C79.2457 227.598 79.1725 227.54 79.1566 227.456C79.1381 227.361 79.2003 227.27 79.295 227.251C85.0905 226.132 90.6189 224.124 95.7265 221.284C100.463 218.651 104.79 215.328 108.59 211.408C108.657 211.339 108.768 211.337 108.837 211.405C108.906 211.472 108.908 211.582 108.841 211.652C105.018 215.596 100.662 218.94 95.8966 221.59C90.7566 224.448 85.1934 226.468 79.3614 227.594C79.3501 227.597 79.3389 227.598 79.3279 227.598Z" fill="white"/>
<path d="M74.4898 246.769C74.445 246.769 74.4004 246.752 74.3664 246.718C74.2979 246.649 74.2979 246.539 74.366 246.47C80.8039 240.018 88.211 234.458 96.3814 229.947C109.031 222.964 120.801 220.08 128.447 218.89C128.543 218.876 128.632 218.941 128.646 219.036C128.661 219.131 128.596 219.221 128.501 219.235C120.882 220.42 109.155 223.294 96.5505 230.253C88.409 234.748 81.0283 240.288 74.6137 246.717C74.5792 246.751 74.5343 246.769 74.4898 246.769Z" fill="white"/>
<path d="M80.6442 265.814C80.6282 265.814 80.6116 265.812 80.5955 265.807C80.5029 265.78 80.4495 265.683 80.4765 265.59C82.0728 260.105 84.1915 255.185 86.7739 250.968C90.4155 245.022 94.9941 240.439 100.382 237.346C113.979 229.543 129.961 232.763 140.975 236.838C141.066 236.871 141.112 236.972 141.078 237.062C141.045 237.153 140.944 237.199 140.854 237.165C129.91 233.116 114.035 229.914 100.556 237.649C91.4578 242.872 84.6302 252.567 80.812 265.688C80.7898 265.764 80.7199 265.814 80.6442 265.814Z" fill="white"/>
<path d="M88.5726 277.107C88.5548 277.107 88.5366 277.105 88.5186 277.099C88.4269 277.069 88.3765 276.97 88.4062 276.879C90.0835 271.714 92.2508 267.09 94.848 263.135C98.3481 257.806 102.656 253.65 107.651 250.783C113.499 247.427 120.299 245.827 127.865 246.027C133.405 246.173 139.349 247.283 145.529 249.324C145.621 249.354 145.671 249.453 145.64 249.544C145.61 249.636 145.512 249.685 145.42 249.655C135.255 246.299 120.482 243.822 107.825 251.086C99.1188 256.083 92.697 264.797 88.7386 276.987C88.7147 277.06 88.6464 277.107 88.5726 277.107Z" fill="white"/>
<path d="M101.027 290.435C101.023 290.435 101.02 290.435 101.016 290.434C100.92 290.428 100.847 290.346 100.852 290.249C101.584 278.13 104.409 269.319 109.248 264.061C109.313 263.99 109.424 263.986 109.494 264.051C109.566 264.116 109.57 264.227 109.505 264.298C104.722 269.494 101.928 278.233 101.201 290.27C101.196 290.363 101.119 290.435 101.027 290.435Z" fill="white"/>
<path d="M149.236 268.221C149.205 268.221 149.173 268.213 149.144 268.195C138.93 261.854 130.128 258.636 122.986 258.631C122.889 258.631 122.811 258.552 122.811 258.456C122.811 258.359 122.889 258.281 122.986 258.281H122.986C130.195 258.287 139.058 261.522 149.329 267.898C149.411 267.949 149.436 268.057 149.385 268.139C149.352 268.192 149.295 268.221 149.236 268.221Z" fill="white"/>
<path d="M113.04 299.509C112.945 299.509 112.867 299.433 112.866 299.337C112.685 290.131 113.872 283.202 116.394 278.742C116.442 278.658 116.548 278.628 116.632 278.676C116.716 278.724 116.746 278.83 116.698 278.914C114.208 283.319 113.036 290.188 113.215 299.331C113.217 299.427 113.14 299.507 113.044 299.509C113.042 299.509 113.041 299.509 113.04 299.509Z" fill="white"/>
<path d="M150.12 283.541C150.084 283.541 150.048 283.53 150.017 283.507C142.756 278.151 136.456 274.784 131.294 273.5C131.2 273.476 131.143 273.381 131.166 273.288C131.19 273.194 131.284 273.136 131.378 273.16C136.585 274.456 142.926 277.842 150.224 283.225C150.302 283.283 150.319 283.392 150.261 283.47C150.227 283.516 150.174 283.541 150.12 283.541Z" fill="white"/>
<path d="M110.772 249.92C112.034 249.238 108.975 241.139 103.94 231.831C98.9045 222.523 93.7995 215.531 92.5375 216.214C91.2755 216.897 94.3344 224.996 99.3698 234.303C104.405 243.611 109.51 250.603 110.772 249.92Z" fill="#F7F1EB"/>
<path d="M101.968 239.344C105.576 239.06 108.271 235.904 107.986 232.296C107.702 228.688 104.546 225.994 100.938 226.278C97.3302 226.563 94.6359 229.718 94.9204 233.326C95.2048 236.934 98.3604 239.629 101.968 239.344Z" fill="white"/>
<path d="M274.906 142.653C274.906 142.653 274.905 142.653 274.904 142.653C274.808 142.651 274.73 142.572 274.732 142.475C274.824 135.245 275.037 128.344 275.303 124.017C275.309 123.921 275.391 123.847 275.489 123.853C275.585 123.859 275.658 123.942 275.652 124.039C275.387 128.361 275.174 135.254 275.081 142.48C275.08 142.576 275.002 142.653 274.906 142.653Z" fill="#363E44"/>
<path d="M278.849 191.879C278.767 191.879 278.695 191.822 278.678 191.74C278.658 191.645 278.719 191.553 278.814 191.533L281.507 190.984C281.602 190.965 281.694 191.026 281.713 191.121C281.733 191.215 281.672 191.308 281.577 191.327L278.884 191.876C278.872 191.878 278.86 191.879 278.849 191.879Z" fill="#363E44"/>
<path d="M285.685 190.496C285.604 190.496 285.531 190.439 285.514 190.356C285.495 190.262 285.556 190.17 285.65 190.15L288.344 189.601C288.437 189.582 288.53 189.643 288.55 189.738C288.569 189.832 288.508 189.924 288.414 189.944L285.72 190.493C285.709 190.495 285.697 190.496 285.685 190.496Z" fill="#363E44"/>
<path d="M292.662 189.164C292.58 189.164 292.508 189.107 292.491 189.024C292.471 188.93 292.532 188.838 292.627 188.818L295.32 188.269C295.414 188.25 295.507 188.311 295.526 188.406C295.546 188.5 295.485 188.592 295.39 188.612L292.697 189.161C292.685 189.163 292.673 189.164 292.662 189.164Z" fill="#363E44"/>
<path d="M298.964 187.826C298.883 187.826 298.81 187.769 298.793 187.686C298.774 187.592 298.834 187.5 298.929 187.48L301.622 186.931C301.717 186.912 301.809 186.973 301.829 187.068C301.848 187.162 301.787 187.254 301.692 187.274L298.999 187.823C298.987 187.825 298.975 187.826 298.964 187.826Z" fill="#363E44"/>
<path d="M136.79 127.694C136.79 127.694 161.045 97.3292 205.35 96.2132C248.154 95.1347 298.931 112.268 298.931 112.268L284.124 143.002L241.31 140.759C241.31 140.759 229.891 165.107 233.098 174.727C236.83 185.926 246.536 204.217 246.536 204.217L163.667 204.59C163.667 204.59 178.598 178.46 178.971 173.608C179.345 168.755 169.266 141.878 169.266 141.878L147.118 157.847L136.79 127.694Z" fill="#BC8271"/>
<path d="M204.728 172.949C204.727 172.949 204.726 172.949 204.725 172.949C204.629 172.948 204.552 172.868 204.553 172.772L204.557 172.588L204.927 151.121C204.928 151.025 205.005 150.948 205.105 150.949C205.201 150.951 205.278 151.031 205.276 151.127L204.903 172.777C204.901 172.873 204.824 172.949 204.728 172.949Z" fill="#363E44"/>
<path d="M216.674 198.046C216.663 198.046 216.653 198.045 216.643 198.043C216.548 198.026 216.484 197.935 216.501 197.84C217.422 192.676 218.049 187.408 218.365 182.183C218.859 174.011 218.609 165.732 217.619 157.578C217.608 157.482 217.676 157.395 217.772 157.383C217.87 157.371 217.955 157.44 217.966 157.535C218.958 165.711 219.209 174.011 218.714 182.204C218.397 187.443 217.768 192.725 216.845 197.902C216.831 197.986 216.757 198.046 216.674 198.046Z" fill="#363E44"/>
<path d="M191.663 195.806C191.578 195.806 191.504 195.744 191.49 195.657C190.453 188.752 189.825 181.711 189.622 174.733C189.453 168.9 189.579 162.991 189.996 157.171C190.003 157.074 190.087 157.003 190.183 157.009C190.279 157.016 190.352 157.099 190.345 157.196C189.929 163.004 189.803 168.901 189.972 174.723C190.173 181.687 190.801 188.714 191.836 195.606C191.851 195.701 191.785 195.79 191.689 195.804C191.68 195.806 191.672 195.806 191.663 195.806Z" fill="#363E44"/>
<path d="M204.614 178.649C204.593 178.649 204.571 178.645 204.55 178.637C203.925 178.392 203.522 177.757 203.569 177.093C203.619 176.396 204.138 175.819 204.831 175.69C204.927 175.671 205.017 175.735 205.035 175.83C205.053 175.924 204.99 176.016 204.895 176.033C204.358 176.133 203.956 176.579 203.918 177.118C203.881 177.631 204.194 178.122 204.678 178.312C204.768 178.347 204.812 178.448 204.777 178.538C204.75 178.607 204.684 178.649 204.614 178.649Z" fill="#363E44"/>
<path d="M148.422 157.088C165.161 146.289 143.754 100.199 137.636 86.3519C137.429 84.2232 136.544 76.3838 133.922 74.0072C130.426 70.839 125.728 68.9819 125.728 68.9819C125.728 68.9819 113.915 60.8812 111.854 62.4272C109.669 64.0658 116.77 70.5113 116.77 70.5113C116.77 70.5113 106.173 61.6624 103.77 63.4103C101.268 65.23 110.871 73.3516 110.871 73.3516C110.871 73.3516 97.8709 65.486 95.7952 67.7802C93.7195 70.0744 104.644 76.3013 104.644 76.3013C104.644 76.3013 90.9898 71.9145 89.5682 74.6627C87.9296 77.8309 103.793 81.4689 105.627 82.8562C106.281 84.0974 108.932 89.6998 110.543 95.2009C115.377 111.704 121.674 139.697 123.167 145.495C127.129 155.605 139.409 162.903 148.422 157.088Z" fill="#BC8271"/>
<path d="M154.358 144.919C154.355 144.919 154.353 144.919 154.351 144.919C154.254 144.915 154.179 144.834 154.183 144.737C154.485 137.034 152.65 126.326 149.275 116.093C149.244 116.002 149.294 115.903 149.386 115.873C149.478 115.842 149.576 115.892 149.607 115.984C152.995 126.254 154.836 137.008 154.532 144.751C154.528 144.845 154.451 144.919 154.358 144.919Z" fill="#363E44"/>
<path d="M216.539 50.6963C217.235 49.6195 219.447 45.7082 218.135 44.2467C217.185 43.1877 214.734 43.7903 213.055 43.1061C211.33 42.4034 210.057 39.6207 207.766 39.3525C205.694 39.1099 204.46 40.943 202.229 41.3642C199.264 41.924 196.744 39.9902 194.577 41.2604C192.791 42.3074 192.562 44.4006 191.155 46.0924C189.517 48.0625 187.405 48.2301 186.613 50.3022C185.76 52.5361 187.277 54.5328 186.676 56.6688C186.049 58.896 184.996 59.291 185.079 60.8164C185.175 62.5898 187.149 62.8185 187.298 64.7567C187.409 66.209 185.95 67.5977 186.385 69.3398C186.934 71.533 189.836 74.0282 194.515 74.2134C201.161 74.4766 206.287 66.5497 216.539 50.6963Z" fill="#363E44"/>
<path d="M200.218 38.1083C199.964 40.05 197.43 40.862 196.47 42.4478C195.486 44.0741 196.931 48.0145 195.392 49.1278C193.877 50.2245 190.56 47.6374 188.69 48.1009C186.904 48.5436 185.077 50.6401 183.13 50.3854C181.182 50.1306 180.671 47.7284 179.059 46.8413C177.371 45.9124 173.5 47.5593 172.318 46.1098C171.117 44.6384 173.527 41.2019 172.994 39.3773C172.474 37.598 170.765 37.2298 171.018 35.2881C171.272 33.3464 173.267 31.539 174.227 29.9532C175.211 28.3269 174.623 25.4515 176.162 24.3384C177.677 23.2417 180.137 24.7638 182.007 24.3003C183.793 23.8576 185.488 19.9874 187.436 20.242C189.383 20.4966 190.026 24.6727 191.638 25.5598C193.326 26.4887 196.049 25.7093 197.231 27.1588C198.432 28.6302 197.17 31.1992 197.703 33.0238C198.223 34.803 200.472 36.1667 200.218 38.1083Z" fill="#363E44"/>
<path d="M174.755 52.5615C174.501 52.5615 174.262 52.5105 174.043 52.3917C173.136 51.8985 173.012 50.5124 172.892 49.1719C172.801 48.1452 172.706 47.0836 172.262 46.5259C171.85 46.009 171.348 45.7526 170.862 45.5046C170.182 45.1573 169.478 44.7982 169.198 43.7379C168.879 42.5341 169.282 41.0948 169.637 39.8252C169.805 39.2248 169.963 38.6577 170.044 38.1444C170.15 37.4647 169.953 36.6661 169.762 35.8936C169.49 34.7929 169.208 33.6548 169.765 32.7582C170.306 31.8877 171.408 31.6603 172.475 31.4405C173.262 31.2781 174.077 31.1104 174.652 30.6893C175.201 30.2877 175.547 29.2991 175.883 28.3429C176.335 27.0528 176.803 25.7188 177.838 25.4447C178.874 25.1707 179.94 26.0989 180.972 26.9963C181.736 27.6617 182.526 28.3495 183.202 28.427C183.907 28.5082 184.691 28.266 185.448 28.0318C186.482 27.7123 187.552 27.3819 188.454 27.8723C189.383 28.3768 189.707 29.4883 190.021 30.5633C190.24 31.3141 190.466 32.0906 190.894 32.6272C191.299 33.1352 191.938 33.5092 192.555 33.871C193.492 34.4196 194.46 34.9867 194.744 36.0586C195.028 37.1334 194.47 38.1294 193.929 39.0925C193.576 39.7205 193.212 40.3699 193.112 41.0087C193.001 41.713 193.444 42.6826 193.872 43.6201C194.431 44.8443 195.01 46.1102 194.465 46.9878C193.933 47.8446 192.559 47.8975 191.23 47.9489C190.18 47.9894 189.095 48.0312 188.504 48.4638C187.99 48.8395 187.557 49.432 187.099 50.059C186.403 51.0106 185.684 51.9946 184.605 52.2802C183.551 52.5591 182.67 52.0325 181.819 51.5234C181.225 51.1685 180.611 50.8014 179.954 50.7259C179.226 50.6421 178.262 51.1428 177.33 51.6269C176.441 52.0884 175.529 52.5614 174.755 52.5615ZM178.215 25.7459C178.118 25.7459 178.022 25.7576 177.928 25.7824C177.071 26.0091 176.634 27.2541 176.212 28.4582C175.843 29.511 175.495 30.5055 174.858 30.9712C174.221 31.4372 173.369 31.6128 172.545 31.7827C171.505 31.9971 170.523 32.1995 170.062 32.9424C169.583 33.7139 169.835 34.7317 170.101 35.8095C170.301 36.6157 170.507 37.4492 170.389 38.1984C170.305 38.732 170.144 39.3085 169.974 39.9192C169.614 41.206 169.242 42.5365 169.536 43.6484C169.776 44.558 170.353 44.8524 171.021 45.1933C171.515 45.4459 172.076 45.7321 172.535 46.3082C173.045 46.9478 173.144 48.0627 173.24 49.1408C173.352 50.3895 173.467 51.6807 174.21 52.0846C174.933 52.4773 176.07 51.8873 177.169 51.3167C178.148 50.8084 179.159 50.2831 179.994 50.3787C180.726 50.4629 181.373 50.8495 181.998 51.2233C182.824 51.7171 183.604 52.1833 184.515 51.9422C185.475 51.6882 186.157 50.7551 186.816 49.8526C187.271 49.2315 187.74 48.5892 188.297 48.1813C188.975 47.6857 190.114 47.6418 191.217 47.5992C192.454 47.5515 193.734 47.502 194.168 46.8031C194.614 46.0846 194.075 44.9053 193.554 43.7649C193.105 42.7803 192.64 41.7621 192.766 40.9542C192.876 40.2532 193.257 39.5759 193.624 38.9209C194.154 37.977 194.654 37.0853 194.406 36.1473C194.16 35.2148 193.295 34.7083 192.379 34.1719C191.733 33.7939 191.066 33.4033 190.62 32.8442C190.15 32.2539 189.914 31.4438 189.685 30.6605C189.378 29.608 189.088 28.6138 188.287 28.1786C187.514 27.7585 186.56 28.053 185.551 28.3651C184.759 28.6098 183.94 28.8627 183.162 28.7735C182.378 28.6835 181.583 27.9916 180.742 27.2592C179.885 26.514 179.003 25.7459 178.215 25.7459Z" fill="#363E44"/>
<path d="M206.175 109.084C201.575 109.084 197.846 105.355 197.846 100.755V79.4565C197.846 74.8565 201.575 71.1274 206.175 71.1274C210.775 71.1274 214.504 74.8565 214.504 79.4565V100.755C214.505 105.355 210.776 109.084 206.175 109.084Z" fill="#BC8271"/>
<path d="M207.502 49.9348C208.259 49.8614 215.52 49.267 219.893 54.2318C223.148 57.926 223.538 62.668 222.991 70.7204C222.347 80.2032 220.661 84.6274 217.931 86.4992C213.618 89.4566 200.67 83.9967 195.81 75.7169C192.302 69.7403 192.702 62.0427 196.41 56.1303C200.107 50.2347 207.019 49.9818 207.502 49.9348Z" fill="#BC8271"/>
<path d="M207.476 54.0351C209.473 55.4735 210.276 58.5274 209.218 60.0078C207.903 61.8483 204.41 60.2814 203.37 61.9986C202.305 63.7556 205.463 66.2205 204.365 68.7178C203.618 70.4186 201.735 70.2251 201.006 71.9529C200.317 73.5826 201.24 75.536 202.126 76.9301C197.509 74.0742 196.67 72.3162 196.9 71.2064C197.236 69.582 199.442 69.3707 199.886 67.5358C200.506 64.9709 196.351 63.0817 197.024 60.7545C197.573 58.8573 201.017 58.7313 201.13 57.0218C201.183 56.2246 200.482 55.5397 200.01 55.1552C202.141 52.8918 205.391 52.5328 207.476 54.0351Z" fill="#363E44"/>
<path d="M221.288 56.0572C218.737 53.9419 212.658 52.7282 206.854 54.4084C197.397 57.1458 195.406 66.8098 194.909 69.1324C194.15 70.0003 192.17 69.2598 191.412 70.1277C189.932 58.7633 194.729 51.6942 202.39 48.3015C209.42 45.1883 216.353 47.8467 217.838 48.4548C219.96 51.4637 220.608 54.1681 221.288 56.0572Z" fill="#EFBC73"/>
<path d="M214.376 87.7147C210.075 87.7147 204.291 85.0762 200.037 81.1198C199.967 81.0541 199.962 80.9435 200.028 80.8727C200.094 80.8019 200.205 80.7982 200.275 80.8638C204.684 84.964 210.745 87.6284 215.006 87.3447C215.102 87.3374 215.186 87.4111 215.192 87.5074C215.199 87.6037 215.126 87.6869 215.029 87.6934C214.816 87.7075 214.598 87.7147 214.376 87.7147Z" fill="#363E44"/>
<path d="M229.214 62.2818C229.214 62.2818 228.405 64.9734 226.29 67.0481C225.867 67.4628 223.793 62.8357 224.674 62.6041C227.072 61.9737 229.214 62.2818 229.214 62.2818Z" fill="white"/>
<path d="M217.668 69.6502C217.668 69.6502 221.673 70.2264 224.862 68.1916C225.397 67.8501 225.874 67.4557 226.299 67.0374C226.335 66.7963 226.36 66.5516 226.36 66.3003C226.36 64.8266 225.712 63.5071 224.69 62.601C223.804 62.8323 222.883 63.1904 222.021 63.7403C218.832 65.7753 217.668 69.6502 217.668 69.6502Z" fill="#363E44"/>
<path d="M208.311 66.1951C211.367 67.4024 213.257 70.0867 213.257 70.0867C213.257 70.0867 211.265 71.085 208.738 71.2225C207.86 71.2702 207.975 66.0621 208.311 66.1951Z" fill="white"/>
<path d="M208.311 66.1956C207.974 66.0628 207.623 65.9469 207.259 65.8552C203.591 64.9326 199.973 66.7448 199.973 66.7448C199.973 66.7448 202.303 70.0535 205.971 70.9761C206.919 71.2146 207.863 71.2695 208.742 71.2211C209.515 69.6199 209.379 67.6855 208.311 66.1956Z" fill="#363E44"/>
<path d="M196.588 66.2035C195.468 65.7645 194.257 65.7397 193.176 66.2509C190.846 67.3526 190.013 70.481 191.317 73.238C192.385 75.4981 194.557 76.8027 196.588 76.5938V66.2035Z" fill="#BC8271"/>
<path d="M193.678 72.9224C193.623 72.9224 193.568 72.8964 193.534 72.8478C192.984 72.0607 192.78 70.9759 193.015 70.0842C193.201 69.3804 193.632 68.8493 194.262 68.5485C194.348 68.5068 194.453 68.544 194.495 68.6308C194.536 68.7179 194.499 68.8224 194.412 68.8638C193.737 69.1861 193.464 69.7537 193.353 70.1732C193.143 70.9698 193.327 71.9409 193.821 72.6475C193.876 72.7267 193.857 72.8356 193.778 72.8908C193.747 72.9123 193.712 72.9224 193.678 72.9224Z" fill="#363E44"/>
<path d="M218.314 74.8231C218.281 74.8231 218.247 74.8137 218.218 74.794C218.137 74.7405 218.115 74.6319 218.169 74.5516C218.441 74.1428 218.547 73.7634 218.484 73.4234C218.417 73.0667 218.184 72.8549 217.862 72.5615C217.611 72.3332 217.327 72.0746 217.054 71.6841C216.707 71.1868 216.471 70.6009 216.354 69.9431C216.337 69.848 216.4 69.7573 216.495 69.7404C216.59 69.7236 216.681 69.7867 216.698 69.8818C216.806 70.4894 217.023 71.0286 217.341 71.4842C217.591 71.8425 217.86 72.0873 218.097 72.3032C218.442 72.6167 218.74 72.8876 218.827 73.3596C218.908 73.792 218.784 74.2581 218.46 74.7454C218.426 74.7959 218.371 74.8231 218.314 74.8231Z" fill="#363E44"/>
<path d="M215.611 79.4408C215.313 79.4408 214.984 79.398 214.639 79.2832C213.459 78.8896 212.929 77.9232 212.794 77.6362C212.753 77.5488 212.791 77.4446 212.878 77.4038C212.965 77.363 213.07 77.4006 213.11 77.488C213.23 77.743 213.701 78.6021 214.75 78.9517C215.69 79.265 216.496 78.9739 216.799 78.8342C216.887 78.7937 216.99 78.8323 217.031 78.9197C217.071 79.0074 217.033 79.1112 216.945 79.1516C216.716 79.2575 216.228 79.4408 215.611 79.4408Z" fill="#363E44"/>
<path d="M167.026 136.279C166.844 140.007 175.511 165.922 176.981 165.644C190.17 163.156 218.913 163.529 233.222 166.308C234.374 166.532 241.963 141.502 241.808 137.897C241.186 123.463 221.775 110.771 219.66 109.029C218.233 107.855 192.33 108.229 191.663 108.656C188.428 110.73 167.69 122.675 167.026 136.279Z" fill="white"/>
<path d="M218.789 110.858C218.772 110.858 218.754 110.856 218.737 110.85C218.645 110.822 218.593 110.724 218.622 110.632L223.049 96.2376C223.078 96.1455 223.175 96.0934 223.268 96.1219C223.36 96.1502 223.412 96.2481 223.383 96.3404L218.956 110.735C218.932 110.81 218.863 110.858 218.789 110.858Z" fill="white"/>
<path d="M214.558 111.07C214.545 111.07 214.531 111.069 214.517 111.065C214.423 111.042 214.366 110.948 214.389 110.854L218.007 96.0609C218.03 95.9671 218.127 95.9098 218.219 95.9328C218.312 95.9557 218.37 96.0503 218.347 96.1441L214.728 110.937C214.708 111.017 214.637 111.07 214.558 111.07Z" fill="white"/>
<path d="M192.531 111.136C192.454 111.136 192.384 111.086 192.363 111.009L188.63 97.849C188.603 97.7562 188.657 97.6594 188.75 97.6332C188.842 97.6071 188.94 97.6606 188.966 97.7536L192.699 110.914C192.725 111.007 192.671 111.103 192.578 111.13C192.562 111.134 192.546 111.136 192.531 111.136Z" fill="white"/>
<path d="M196.761 111.349C196.682 111.349 196.611 111.295 196.591 111.215L193.107 96.7812C193.085 96.6874 193.142 96.593 193.236 96.5703C193.328 96.5479 193.424 96.6052 193.447 96.6991L196.931 111.133C196.954 111.227 196.896 111.321 196.802 111.344C196.789 111.347 196.775 111.349 196.761 111.349Z" fill="white"/>
<path d="M275.478 124.028C274.927 132.985 274.559 153.429 275.171 169.048C275.815 185.451 279.153 209.576 282.522 209.065C284.441 208.775 284.666 205.39 284.666 196.305C285.125 196.764 286.707 197.836 288.443 197.275C291.011 196.444 291.063 194.159 291.148 193.957C291.291 194.125 292.883 195.896 294.697 195.631C296.74 195.333 297.886 193.957 298.304 192.391C298.672 192.798 300.183 194.161 301.918 193.855C303.703 193.54 305.338 191.915 305.236 190.026C305.049 186.562 304.295 176.276 304.538 171.226C305.017 161.287 315.026 119.098 301.363 113.217C289.538 108.128 282.071 111.82 275.478 124.028Z" fill="#BC8271"/>
<path d="M274.909 142.484C274.908 142.484 274.907 142.484 274.906 142.484C274.81 142.483 274.733 142.403 274.734 142.307C274.828 135.036 275.036 128.369 275.303 124.017C275.309 123.921 275.391 123.847 275.489 123.853C275.585 123.859 275.658 123.942 275.652 124.039C275.385 128.385 275.178 135.046 275.084 142.312C275.082 142.407 275.004 142.484 274.909 142.484Z" fill="#363E44"/>
<path d="M278.849 191.879C278.767 191.879 278.695 191.822 278.678 191.739C278.658 191.645 278.719 191.553 278.814 191.533L281.507 190.984C281.602 190.965 281.694 191.026 281.713 191.121C281.733 191.215 281.672 191.307 281.577 191.327L278.884 191.876C278.872 191.878 278.86 191.879 278.849 191.879Z" fill="#363E44"/>
<path d="M285.685 190.496C285.604 190.496 285.531 190.439 285.514 190.356C285.495 190.262 285.556 190.169 285.65 190.15L288.344 189.601C288.437 189.582 288.53 189.643 288.55 189.737C288.569 189.832 288.508 189.924 288.414 189.944L285.72 190.493C285.709 190.495 285.697 190.496 285.685 190.496Z" fill="#363E44"/>
<path d="M292.662 189.164C292.58 189.164 292.508 189.107 292.491 189.024C292.471 188.93 292.532 188.838 292.627 188.818L295.32 188.269C295.414 188.25 295.507 188.311 295.526 188.406C295.546 188.5 295.485 188.592 295.39 188.612L292.697 189.161C292.685 189.163 292.673 189.164 292.662 189.164Z" fill="#363E44"/>
<path d="M298.964 187.826C298.883 187.826 298.81 187.769 298.793 187.686C298.774 187.592 298.834 187.5 298.929 187.48L301.622 186.931C301.717 186.912 301.809 186.973 301.829 187.068C301.848 187.162 301.787 187.254 301.692 187.274L298.999 187.823C298.987 187.825 298.975 187.826 298.964 187.826Z" fill="#363E44"/>
<path d="M165.762 200.114C186.099 200.24 206.436 200.364 226.773 200.488C247.473 200.613 264.457 200.738 285.158 200.861C282.417 225.259 278.342 279.997 280.157 317.326C263.089 316.953 246.02 316.58 228.952 316.206C220.599 296.795 212.247 275.518 208.252 252.747C205.952 274.025 203.652 295.302 201.352 316.579C182.71 316.579 164.068 316.579 145.425 316.579C141.794 276.265 145.062 237.07 165.762 200.114Z" fill="#EFBC73"/>
<path d="M274.045 320C273.951 320 273.873 319.925 273.871 319.83C273.313 298.882 273.565 277.652 274.617 256.731C275.517 238.844 277.025 220.755 279.098 202.966C279.109 202.871 279.194 202.801 279.292 202.813C279.387 202.824 279.456 202.911 279.445 203.007C277.373 220.788 275.866 238.87 274.966 256.749C273.914 277.661 273.663 298.881 274.22 319.821C274.223 319.917 274.146 319.997 274.05 320C274.048 320 274.047 320 274.045 320Z" fill="white"/>
<path d="M269.844 320C269.75 320 269.672 319.925 269.669 319.83C269.112 298.879 269.363 277.65 270.416 256.731C271.316 238.844 272.823 220.755 274.897 202.966C274.908 202.871 274.994 202.801 275.09 202.813C275.186 202.824 275.255 202.911 275.244 203.007C273.172 220.788 271.665 238.869 270.765 256.749C269.713 277.659 269.462 298.879 270.019 319.821C270.021 319.917 269.945 319.997 269.849 320C269.847 320 269.846 320 269.844 320Z" fill="white"/>
<path d="M153.432 317.843C153.341 317.843 153.265 317.773 153.258 317.681C152.485 306.595 152.438 294.415 153.123 282.459C153.94 268.198 155.759 254.383 158.529 241.399C161.384 228.018 168.779 211.614 173.672 200.759L174.177 199.638C174.217 199.551 174.32 199.511 174.409 199.551C174.496 199.59 174.536 199.694 174.496 199.782L173.991 200.903C169.103 211.744 161.718 228.127 158.871 241.471C153.805 265.219 151.886 292.987 153.607 317.656C153.614 317.753 153.541 317.836 153.445 317.843C153.441 317.843 153.436 317.843 153.432 317.843Z" fill="white"/>
<path d="M149.613 317.843C149.522 317.843 149.445 317.773 149.439 317.681C148.666 306.595 148.619 294.415 149.304 282.459C150.121 268.198 151.94 254.383 154.71 241.399C157.564 228.019 164.959 211.615 169.852 200.761L170.358 199.638C170.398 199.551 170.501 199.511 170.589 199.551C170.677 199.59 170.717 199.694 170.677 199.782L170.171 200.905C165.284 211.746 157.899 228.128 155.052 241.471C149.986 265.219 148.067 292.987 149.788 317.656C149.795 317.753 149.722 317.836 149.626 317.843C149.621 317.843 149.617 317.843 149.613 317.843Z" fill="white"/>
<path d="M167.289 194.401C184.658 196.827 203.649 198.69 224.072 199.544C246.301 200.474 266.951 200.071 285.742 198.88C285.664 201.286 285.587 203.692 285.509 206.097C267.915 208.227 247.073 209.431 223.723 208.213C201.706 207.064 182.14 204.006 165.544 200.373C166.126 198.383 166.707 196.392 167.289 194.401Z" fill="#FFD092"/>
<path d="M214.32 229.914C214.224 229.914 214.147 229.837 214.145 229.742L213.647 203.363C213.645 203.267 213.722 203.187 213.818 203.185C213.912 203.186 213.995 203.26 213.997 203.357L214.494 229.735C214.496 229.832 214.419 229.912 214.323 229.914C214.322 229.914 214.32 229.914 214.32 229.914Z" fill="white"/>
<path d="M213.809 204.829C213.008 204.829 212.356 204.174 212.356 203.369C212.356 202.563 213.008 201.908 213.809 201.908C214.61 201.908 215.262 202.563 215.262 203.369C215.262 204.174 214.61 204.829 213.809 204.829ZM213.809 202.257C213.201 202.257 212.705 202.756 212.705 203.369C212.705 203.981 213.2 204.479 213.809 204.479C214.417 204.479 214.912 203.981 214.912 203.369C214.912 202.756 214.417 202.257 213.809 202.257Z" fill="white"/>
<path d="M214.32 232.061C213.678 232.061 213.158 231.541 213.158 230.9V229.407C213.158 228.765 213.678 228.245 214.32 228.245C214.961 228.245 215.481 228.765 215.481 229.407V230.9C215.481 231.541 214.961 232.061 214.32 232.061Z" fill="white"/>
<path d="M221.958 222.275C221.864 222.275 221.786 222.2 221.783 222.105L221.286 203.365C221.283 203.268 221.359 203.188 221.456 203.185C221.547 203.181 221.633 203.259 221.635 203.355L222.133 222.095C222.136 222.192 222.059 222.272 221.963 222.275C221.961 222.275 221.96 222.275 221.958 222.275Z" fill="white"/>
<path d="M221.447 204.829C220.646 204.829 219.994 204.174 219.994 203.369C219.994 202.563 220.646 201.908 221.447 201.908C222.248 201.908 222.9 202.563 222.9 203.369C222.9 204.174 222.248 204.829 221.447 204.829ZM221.447 202.257C220.839 202.257 220.344 202.756 220.344 203.369C220.344 203.981 220.839 204.479 221.447 204.479C222.056 204.479 222.551 203.981 222.551 203.369C222.551 202.756 222.055 202.257 221.447 202.257Z" fill="white"/>
<path d="M221.958 224.423C221.317 224.423 220.797 223.903 220.797 223.262V221.768C220.797 221.127 221.317 220.607 221.958 220.607C222.6 220.607 223.12 221.127 223.12 221.768V223.262C223.12 223.903 222.6 224.423 221.958 224.423Z" fill="white"/>
<path d="M17.7576 95.9545C22.972 90.8876 31.0379 98.9468 40.6057 93.1666C47.6335 88.9208 44.4027 72.3332 53.4823 70.5556C61.9379 68.9002 64.5119 83.4642 73.0792 87.0424C81.7291 90.6552 85.4459 86.5839 90.094 90.0852C100.705 98.0781 95.7937 130.158 83.6816 134.207C75.8475 136.826 70.2007 125.979 60.6145 128.461C49.0131 131.466 49.5301 149.36 41.8282 150.461C29.0927 152.281 7.12124 106.29 17.7576 95.9545Z" fill="white"/>
<path d="M55.3797 116.565C62.3529 115 67.0542 109.491 65.8803 104.261C64.7064 99.0315 58.1019 96.0607 51.1287 97.6259C44.1556 99.191 39.4543 104.699 40.6282 109.929C41.802 115.159 48.4065 118.13 55.3797 116.565Z" fill="#EFBC73"/>
<path d="M49.7078 100.806C49.6398 100.806 49.5753 100.766 49.547 100.7C49.5091 100.611 49.5505 100.508 49.6393 100.471C50.3927 100.15 51.189 99.8938 52.0058 99.7104C52.7068 99.5532 53.4178 99.4397 54.1191 99.3735C54.2133 99.3651 54.3002 99.435 54.3095 99.531C54.3187 99.6271 54.2479 99.7124 54.152 99.7215C53.4653 99.7863 52.769 99.8974 52.0824 100.051C51.2863 100.23 50.5105 100.479 49.7763 100.792C49.7538 100.802 49.7307 100.806 49.7078 100.806Z" fill="white"/>
<path d="M43.1666 109.261C43.0705 109.261 42.9923 109.184 42.9918 109.088C42.9736 106.156 45.005 103.065 48.1663 101.211C48.2495 101.162 48.3567 101.19 48.4054 101.274C48.4542 101.357 48.4264 101.464 48.343 101.513C45.2872 103.304 43.3239 106.277 43.3412 109.085C43.3417 109.182 43.2641 109.261 43.1675 109.261C43.1675 109.261 43.1669 109.261 43.1666 109.261Z" fill="white"/>
<path d="M67.1007 142.479C68.6642 148.863 70.8547 161.552 67.0914 176.745C62.5527 195.069 51.9537 206.542 47.1843 211.142C53.776 216.718 60.3676 222.293 66.9593 227.868C70.2098 221.972 76.9012 211.808 89.069 203.815C109.988 190.072 131.965 192.683 137.988 193.603C137.4 189.883 132.967 164.591 109.289 150.249C90.7391 139.014 72.1197 141.611 67.1007 142.479Z" fill="#8B865C"/>
<path d="M147.667 192.603C153.921 185.209 152.998 174.145 145.603 167.89C142.757 165.483 139.366 164.15 135.916 163.83C136.087 163.658 136.255 163.485 136.414 163.298C139.589 159.543 139.119 153.926 135.366 150.751C134.076 149.66 132.565 149.01 131.011 148.765C137.911 139.905 136.646 127.1 127.993 119.781C119.12 112.276 105.843 113.385 98.3377 122.258C98.2213 122.396 98.1126 122.538 98.0006 122.677C93.8382 120.935 88.9291 121.759 85.5576 124.953C85.2822 124.685 85.0112 124.414 84.7132 124.162C77.6601 118.197 67.1067 119.078 61.1407 126.132C55.1751 133.185 56.0567 143.738 63.1098 149.703C65.9623 152.116 69.3878 153.39 72.8506 153.607C70.5065 159.479 72.0257 166.432 77.1183 170.739C80.0289 173.201 83.5987 174.357 87.1327 174.295C83.8669 179.95 84.9989 187.298 90.1602 191.664C94.7924 195.582 101.256 195.899 106.173 192.918C106.944 194.198 107.921 195.38 109.124 196.397C114.184 200.677 121.384 200.742 126.494 196.974C133.555 200.482 142.347 198.892 147.667 192.603Z" fill="#9E9569"/>
<path d="M121.989 199.898C118.728 199.898 115.477 198.769 112.83 196.53C111.702 195.576 110.728 194.442 109.934 193.156C104.831 196.165 98.3953 195.627 93.8669 191.797C88.796 187.508 87.4687 180.267 90.6519 174.472C87.0466 174.465 83.568 173.193 80.8249 170.872C75.8618 166.674 74.1084 159.827 76.4209 153.765C72.8518 153.492 69.5354 152.137 66.8165 149.837C59.7012 143.818 58.8087 133.133 64.8266 126.018C70.8451 118.903 81.5301 118.01 88.6454 124.029C88.9049 124.248 89.1463 124.483 89.3796 124.711C92.7222 121.633 97.5507 120.757 101.765 122.466L101.792 122.431C101.868 122.335 101.944 122.239 102.023 122.145C105.683 117.818 110.809 115.175 116.457 114.704C122.105 114.232 127.598 115.988 131.925 119.648C136.136 123.21 138.765 128.192 139.327 133.677C139.878 139.05 138.393 144.352 135.144 148.642C136.68 148.934 138.111 149.614 139.297 150.618C141.149 152.184 142.28 154.377 142.481 156.793C142.683 159.209 141.932 161.559 140.366 163.411C140.283 163.508 140.197 163.603 140.113 163.693C143.602 164.087 146.853 165.488 149.535 167.757C156.991 174.063 157.926 185.26 151.619 192.716C146.369 198.923 137.629 200.75 130.331 197.178C127.826 198.996 124.904 199.898 121.989 199.898ZM109.993 192.743C110.007 192.743 110.021 192.745 110.035 192.748C110.08 192.759 110.119 192.788 110.143 192.828C110.933 194.141 111.913 195.297 113.056 196.263C117.971 200.421 125.025 200.655 130.209 196.833C130.262 196.794 130.332 196.788 130.391 196.817C137.564 200.381 146.184 198.601 151.352 192.49C157.535 185.181 156.618 174.205 149.31 168.023C146.59 165.723 143.273 164.333 139.719 164.003C139.652 163.997 139.594 163.952 139.571 163.889C139.548 163.825 139.563 163.754 139.611 163.706C139.763 163.553 139.939 163.374 140.099 163.185C141.605 161.405 142.327 159.145 142.133 156.822C141.939 154.499 140.852 152.39 139.072 150.885C137.86 149.86 136.384 149.186 134.802 148.937C134.741 148.927 134.69 148.886 134.667 148.828C134.644 148.771 134.654 148.706 134.692 148.657C141.593 139.796 140.279 127.171 131.699 119.915C127.443 116.315 122.041 114.588 116.486 115.052C110.931 115.516 105.89 118.115 102.29 122.371C102.213 122.462 102.14 122.555 102.066 122.647L101.956 122.786C101.907 122.847 101.824 122.868 101.752 122.838C97.5853 121.094 92.775 121.974 89.4969 125.079C89.4291 125.144 89.3223 125.143 89.2548 125.077L89.1424 124.968C88.9112 124.742 88.6721 124.509 88.4192 124.295C81.4511 118.401 70.9872 119.275 65.093 126.244C59.1993 133.212 60.0735 143.676 67.0415 149.569C69.7631 151.871 73.0963 153.207 76.6803 153.432C76.7362 153.436 76.787 153.466 76.8169 153.513C76.847 153.561 76.8524 153.619 76.8316 153.671C74.446 159.648 76.1411 166.453 81.0498 170.605C83.8048 172.935 87.3138 174.185 90.9485 174.12C91.0165 174.122 91.0703 174.152 91.1021 174.206C91.1343 174.26 91.1344 174.327 91.103 174.382C87.8159 180.073 89.0732 187.285 94.092 191.53C98.5504 195.301 104.904 195.798 109.902 192.768C109.93 192.752 109.961 192.743 109.993 192.743Z" fill="#8B865C"/>
<path d="M70.444 189.055C70.3568 189.055 70.2799 189.034 70.2143 188.993C69.7323 188.691 70.1958 187.614 71.2112 185.253C72.1784 183.005 73.64 179.608 74.8675 175.358C76.2603 170.538 77.0953 165.527 77.3494 160.467C77.3543 160.37 77.4377 160.295 77.5327 160.301C77.6292 160.306 77.7035 160.388 77.6986 160.484C77.4431 165.572 76.6035 170.609 75.2034 175.455C73.9696 179.726 72.5029 183.135 71.5323 185.392C70.8634 186.946 70.1719 188.554 70.3999 188.697C70.4157 188.707 70.4601 188.711 70.5345 188.692C71.7315 188.376 75.7405 183.882 78.6146 178.559C80.6387 174.81 82.0557 170.725 82.8268 166.417C82.8439 166.322 82.9336 166.258 83.0296 166.276C83.1246 166.293 83.1879 166.384 83.1709 166.479C82.3936 170.823 80.9641 174.943 78.9223 178.725C76.1708 183.821 72.0594 188.651 70.6238 189.03C70.5597 189.046 70.4997 189.055 70.444 189.055Z" fill="#9E9569"/>
<path d="M79.4432 198.105C79.2377 198.105 79.0795 198.046 78.9685 197.919C78.0792 196.898 81.8295 192.307 84.7916 189.709C87.899 186.984 91.6048 184.963 95.806 183.701C95.8995 183.673 95.9962 183.725 96.0238 183.818C96.0514 183.91 95.999 184.008 95.9067 184.035C91.7535 185.283 88.0914 187.28 85.022 189.972C81.5027 193.058 78.6865 197.063 79.2319 197.689C79.5455 198.049 81.3096 197.066 83.1771 196.026C84.3112 195.394 85.5966 194.678 86.9867 193.997C92.8065 191.148 99.4711 189.467 106.795 189.002C106.887 188.996 106.974 189.069 106.981 189.166C106.987 189.262 106.913 189.345 106.817 189.352C99.5389 189.813 92.9187 191.482 87.1402 194.311C85.7585 194.988 84.4774 195.702 83.347 196.331C81.4653 197.38 80.1638 198.105 79.4432 198.105Z" fill="#9E9569"/>
<path d="M106.825 164.032C106.729 164.032 106.651 163.954 106.65 163.857C106.648 162.515 106.453 161.174 106.071 159.873C105.002 156.237 102.581 153.235 99.2544 151.419C95.9273 149.604 92.0929 149.193 88.457 150.262C85.3318 151.18 82.5986 153.163 80.7604 155.844C80.7057 155.924 80.5968 155.945 80.5173 155.89C80.4378 155.835 80.4175 155.726 80.4719 155.647C82.3554 152.899 85.1564 150.868 88.3583 149.926C92.0842 148.831 96.0131 149.252 99.4218 151.112C102.831 152.972 105.311 156.049 106.406 159.774C106.798 161.108 106.998 162.481 107 163.857C107 163.953 106.922 164.032 106.825 164.032L106.825 164.032Z" fill="#8B865C"/>
<path d="M103.46 154.55C103.404 154.55 103.348 154.522 103.315 154.472C103.261 154.392 103.283 154.283 103.363 154.229C104.206 153.667 105.116 153.19 106.066 152.811C110.144 151.187 114.684 151.481 118.523 153.617C118.607 153.664 118.637 153.771 118.59 153.855C118.544 153.939 118.437 153.97 118.353 153.923C114.606 151.838 110.175 151.551 106.196 153.136C105.268 153.505 104.38 153.971 103.557 154.52C103.527 154.54 103.494 154.55 103.46 154.55Z" fill="#8B865C"/>
<path d="M107.636 142.124C107.555 142.124 107.482 142.068 107.465 141.985C106.311 136.555 101.438 132.614 95.8777 132.614C90.6475 132.614 85.9714 136.117 84.5059 141.131C84.479 141.224 84.3826 141.277 84.2892 141.25C84.1966 141.223 84.1433 141.126 84.1704 141.034C85.679 135.871 90.4933 132.265 95.8777 132.265C101.602 132.265 106.619 136.322 107.807 141.913C107.827 142.007 107.766 142.1 107.672 142.12C107.66 142.123 107.647 142.124 107.636 142.124Z" fill="#8B865C"/>
<path d="M121.886 188.5C121.818 188.5 121.754 188.461 121.725 188.395C121.687 188.307 121.727 188.204 121.816 188.165C122.792 187.741 123.706 187.177 124.532 186.49C126.84 184.568 128.261 181.863 128.534 178.872C128.808 175.882 127.9 172.963 125.978 170.655C124.327 168.671 122.025 167.307 119.496 166.814C119.401 166.796 119.339 166.704 119.358 166.609C119.376 166.514 119.468 166.452 119.563 166.471C122.17 166.98 124.544 168.386 126.247 170.431C128.228 172.811 129.164 175.82 128.882 178.904C128.601 181.988 127.135 184.777 124.755 186.758C123.904 187.467 122.962 188.048 121.955 188.486C121.933 188.496 121.909 188.5 121.886 188.5Z" fill="#8B865C"/>
<path d="M74.5739 135.882C74.508 135.882 74.4451 135.844 74.4154 135.781C73.0733 132.91 70.6012 130.891 67.6328 130.244C66.9411 130.093 66.2353 130.017 65.5296 130.025C65.5291 130.025 65.5286 130.025 65.528 130.025C65.4321 130.025 65.3542 129.948 65.3533 129.852C65.3524 129.755 65.4302 129.676 65.5265 129.676C66.2598 129.671 66.9902 129.746 67.7071 129.902C70.783 130.573 73.3433 132.662 74.7319 135.633C74.7726 135.72 74.735 135.824 74.6476 135.865C74.6237 135.876 74.5987 135.882 74.5739 135.882Z" fill="#8B865C"/>
<path d="M51.2704 183.409C42.1155 171.22 27.931 166.374 19.2718 172.608C10.6312 178.829 10.708 193.767 19.3069 206.299C17.0732 214.858 18.5294 224.311 24.1015 232.051C34.0255 245.835 53.2454 248.964 67.0299 239.04C80.8147 229.116 83.9443 209.897 74.0202 196.112C68.4796 188.416 60.0418 184.045 51.2704 183.409Z" fill="#EFBC73"/>
<path d="M52.9453 245.018C51.274 245.018 49.5912 244.883 47.9089 244.609C39.7547 243.281 32.6055 238.857 27.7786 232.153C22.3926 224.671 20.6297 215.265 22.9368 206.332C18.78 200.249 16.4833 193.417 16.4688 187.087C16.4541 180.696 18.7696 175.504 22.9889 172.466C27.2176 169.422 32.8898 168.878 38.9606 170.935C44.9747 172.972 50.7328 177.342 55.1816 183.241C64.3245 183.927 72.6308 188.578 77.9812 196.01C82.8081 202.715 84.7352 210.898 83.4075 219.052C82.0797 227.206 77.6561 234.355 70.9511 239.182C65.6293 243.013 59.3759 245.018 52.9453 245.018ZM31.9611 170.058C28.6725 170.058 25.6758 170.963 23.193 172.75C19.068 175.72 16.804 180.811 16.8184 187.086C16.8329 193.37 19.1239 200.158 23.2699 206.2C23.2986 206.241 23.3078 206.294 23.2951 206.343C20.9841 215.197 22.7218 224.53 28.0622 231.948C32.8348 238.577 39.9029 242.951 47.965 244.264C56.0279 245.576 64.1177 243.671 70.7467 238.898C77.3756 234.126 81.7495 227.057 83.0624 218.995C84.3752 210.934 82.4697 202.843 77.6973 196.214C72.3921 188.845 64.1472 184.241 55.0768 183.583C55.0265 183.58 54.98 183.554 54.9496 183.514C50.5363 177.638 44.8179 173.288 38.848 171.265C36.4668 170.459 34.1492 170.058 31.9611 170.058Z" fill="#FFD092"/>
<path d="M22.2647 178.22C22.1924 178.22 22.1248 178.175 22.0998 178.103C21.4152 176.138 19.6948 172.414 15.8654 169.553C12.8544 167.303 9.74751 166.471 7.67127 166.168C7.57585 166.154 7.50961 166.066 7.52359 165.97C7.53757 165.875 7.62601 165.809 7.72178 165.822C9.83769 166.131 13.0047 166.979 16.0746 169.273C19.9784 172.19 21.732 175.985 22.4297 177.988C22.4615 178.079 22.4133 178.179 22.3222 178.21C22.3032 178.217 22.284 178.22 22.2647 178.22Z" fill="#363E44"/>
<path d="M63.5882 231.089C68.1559 231.089 71.8587 223.652 71.8587 214.478C71.8587 205.304 68.1559 197.866 63.5882 197.866C59.0205 197.866 55.3176 205.304 55.3176 214.478C55.3176 223.652 59.0205 231.089 63.5882 231.089Z" fill="#FFD092"/>
</svg>
