<svg width="320" height="320" viewBox="0 0 320 320" fill="none" xmlns="http://www.w3.org/2000/svg">
<path d="M160 320C248.366 320 320 248.366 320 160C320 71.6344 248.366 0 160 0C71.6344 0 0 71.6344 0 160C0 248.366 71.6344 320 160 320Z" fill="#F2E6DC"/>
<path d="M35.2295 69.7173L68.8454 74.1695L28.1957 44.6493C23.6804 21.4647 24.33 1.25098 24.33 1.25098C24.33 1.25098 32.1297 3.3969 42.9789 8.4571L56.2239 52.7131L60.2888 17.9116C69.0321 23.4628 78.136 30.5735 86.0512 39.502C87.1646 40.7577 88.2206 42.0274 89.2229 43.3075L84.4206 96.4008L101.915 67.7165C106.996 85.2595 103.64 101.326 95.2144 108.412C82.2904 119.282 55.3008 110.957 39.249 78.8632C37.7676 75.9007 36.4337 72.8374 35.2295 69.7173Z" fill="#D3BBA3"/>
<path d="M42.979 8.45728C48.2163 10.8999 54.1627 14.0225 60.2889 17.9118L56.224 52.7133L42.979 8.45728Z" fill="#E6D0BE"/>
<path d="M89.2229 43.3076C95.458 51.2698 99.5783 59.6491 101.915 67.7166L84.4207 96.4009L89.2229 43.3076Z" fill="#E6D0BE"/>
<path d="M35.2295 69.7174C32.0589 61.5016 29.8005 52.8882 28.1958 44.6493L68.8454 74.1696L35.2295 69.7174Z" fill="#E6D0BE"/>
<path d="M91.6185 118.611C91.4438 118.611 91.2857 118.492 91.2438 118.314C89.8592 112.454 88.127 106.609 86.0954 100.942C80.444 85.1754 72.4869 70.5926 62.4455 57.5985C62.3152 57.4303 62.3464 57.1881 62.5148 57.0578C62.6825 56.9279 62.9252 56.9585 63.0556 57.1271C73.1464 70.185 81.1426 84.8388 86.8213 100.681C88.8625 106.375 90.6029 112.248 91.9941 118.137C92.0431 118.344 91.9149 118.552 91.7077 118.601C91.6778 118.608 91.6479 118.611 91.6185 118.611Z" fill="#D3BBA3"/>
<path d="M11.897 146.894L51.5342 151.428L6.10888 121.296C3.1292 97.6217 6.00221 76.9791 6.00221 76.9791C6.00221 76.9791 15.0834 79.1677 27.4999 84.3314L38.7057 129.521L47.1668 93.9804C57.0202 99.6463 67.142 106.905 75.6569 116.019C76.8546 117.301 77.9826 118.598 79.0454 119.905L67.8059 174.126L91.6517 144.827C95.8918 162.74 90.2211 179.149 79.4347 186.388C62.8898 197.493 31.5588 189.002 15.7426 156.232C14.2829 153.207 13.0097 150.08 11.897 146.894Z" fill="#E6D0BE"/>
<path d="M27.5 84.3317C33.4938 86.8243 40.2631 90.0109 47.1671 93.9805L38.7059 129.521L27.5 84.3317Z" fill="#D3BBA3"/>
<path d="M79.0455 119.905C85.6567 128.034 89.7018 136.589 91.6519 144.827L67.8062 174.126L79.0455 119.905Z" fill="#D3BBA3"/>
<path d="M11.897 146.894C8.96773 138.505 7.16768 129.71 6.10889 121.297L51.5342 151.429L11.897 146.894Z" fill="#D3BBA3"/>
<path d="M74.7939 240.014C74.7759 240.014 74.7575 240.013 74.7392 240.011C74.5283 239.98 74.3817 239.785 74.4116 239.575C77.3013 219.209 75.5722 198.175 69.4114 178.746C64.3084 162.654 56.3332 147.77 45.7075 134.509C45.5744 134.343 45.6011 134.1 45.7671 133.967C45.9332 133.834 46.1759 133.861 46.309 134.027C56.9944 147.362 65.0143 162.33 70.1462 178.512C76.3418 198.051 78.0806 219.203 75.1749 239.683C75.1478 239.875 74.9827 240.014 74.7939 240.014Z" fill="#D3BBA3"/>
<path d="M67.8382 108.365C67.6252 108.365 67.4526 108.193 67.4526 107.98V55.1551C67.4526 54.9419 67.6252 54.7695 67.8382 54.7695H119.696C119.909 54.7695 120.082 54.9419 120.082 55.1551C120.082 55.3683 119.909 55.5407 119.696 55.5407H68.2238V107.98C68.2238 108.193 68.0512 108.365 67.8382 108.365Z" fill="#363E44"/>
<path d="M67.8382 171.977C67.6252 171.977 67.4526 171.804 67.4526 171.591V107.98C67.4526 107.766 67.6252 107.594 67.8382 107.594C68.0512 107.594 68.2238 107.766 68.2238 107.98V171.591C68.2238 171.804 68.0512 171.977 67.8382 171.977Z" fill="#363E44"/>
<path d="M67.8382 192.216C67.6252 192.216 67.4526 192.044 67.4526 191.83V171.591C67.4526 171.378 67.6252 171.205 67.8382 171.205C68.0512 171.205 68.2238 171.378 68.2238 171.591V191.83C68.2238 192.044 68.0512 192.216 67.8382 192.216Z" fill="#363E44"/>
<path d="M271.614 156.337C271.614 156.337 271.614 156.337 271.614 156.337C271.401 156.337 271.228 156.164 271.229 155.951L271.307 111.448C271.308 111.235 271.48 111.063 271.693 111.063C271.693 111.063 271.693 111.063 271.694 111.063C271.907 111.064 272.079 111.236 272.078 111.45L272 155.953C272 156.166 271.827 156.337 271.614 156.337Z" fill="#363E44"/>
<path d="M88.662 281.648H251.53L251.53 62.6186L88.662 62.6186L88.662 281.648Z" fill="white"/>
<path d="M216.972 37.4608H123.219V66.0351H216.972V37.4608Z" fill="#D3BBA3"/>
<path d="M170.627 48.9967C162.12 48.9967 155.199 42.0765 155.199 33.5701C155.199 25.0636 162.12 18.1434 170.627 18.1434C179.134 18.1434 186.055 25.0636 186.055 33.5701C186.055 42.0765 179.134 48.9967 170.627 48.9967ZM170.627 18.9146C162.545 18.9146 155.97 25.4891 155.97 33.5701C155.97 41.651 162.545 48.2255 170.627 48.2255C178.709 48.2255 185.284 41.651 185.284 33.5701C185.284 25.4891 178.709 18.9146 170.627 18.9146Z" fill="#D3BBA3"/>
<path d="M170.627 44.4675C164.618 44.4675 159.728 39.5791 159.728 33.5699C159.728 27.5607 164.618 22.6719 170.627 22.6719C176.637 22.6719 181.526 27.5609 181.526 33.5699C181.526 39.5789 176.637 44.4675 170.627 44.4675ZM170.627 23.4432C165.043 23.4432 160.499 27.9861 160.499 33.5701C160.499 39.154 165.043 43.6966 170.627 43.6966C176.212 43.6966 180.755 39.154 180.755 33.5701C180.755 27.9861 176.212 23.4432 170.627 23.4432Z" fill="#D3BBA3"/>
<path d="M218.602 79.1648H126.843V98.1849H218.602V79.1648Z" fill="#F2E6DC"/>
<path d="M236.12 195.683H122.586V204.065H236.12V195.683Z" fill="#F2E6DC"/>
<path d="M236.12 220.346H122.586V228.728H236.12V220.346Z" fill="#F2E6DC"/>
<path d="M236.12 234.607H122.586V242.988H236.12V234.607Z" fill="#F2E6DC"/>
<path d="M236.12 248.096H122.586V256.477H236.12V248.096Z" fill="#F2E6DC"/>
<path d="M236.137 165.076H122.586V173.736H236.137V165.076Z" fill="#F2E6DC"/>
<path d="M236.137 180.377H122.586V189.037H236.137V180.377Z" fill="#F2E6DC"/>
<path d="M235.912 135.006H122.361V143.665H235.912V135.006Z" fill="#F2E6DC"/>
<path d="M236.137 104.676H122.586V113.335H236.137V104.676Z" fill="#F2E6DC"/>
<path d="M236.137 119.205H122.586V127.865H236.137V119.205Z" fill="#F2E6DC"/>
<path d="M235.737 261.389H122.809V270.048H235.737V261.389Z" fill="#F2E6DC"/>
<path d="M110.265 112.192C112.039 112.192 113.478 110.754 113.478 108.979C113.478 107.205 112.039 105.766 110.265 105.766C108.49 105.766 107.052 107.205 107.052 108.979C107.052 110.754 108.49 112.192 110.265 112.192Z" fill="#E6D0BE"/>
<path d="M110.008 172.722C111.782 172.722 113.221 171.283 113.221 169.509C113.221 167.735 111.782 166.296 110.008 166.296C108.234 166.296 106.795 167.735 106.795 169.509C106.795 171.283 108.234 172.722 110.008 172.722Z" fill="#E6D0BE"/>
<path d="M109.237 227.855C111.011 227.855 112.45 226.416 112.45 224.642C112.45 222.868 111.011 221.429 109.237 221.429C107.462 221.429 106.024 222.868 106.024 224.642C106.024 226.416 107.462 227.855 109.237 227.855Z" fill="#E6D0BE"/>
<path d="M161.097 208.409C197.209 223.401 214.834 236.131 208.043 249.336C204.103 256.996 178.484 255.7 149.364 245.38C152.293 233.376 157.23 222.854 161.097 208.409Z" fill="#BC8271"/>
<path d="M42.7215 207.354C29.2796 221.719 -11.9312 260.977 3.84152 276.961C16.8879 290.183 55.4274 250.296 69.6564 236.834C60.6781 227.007 51.6997 217.18 42.7215 207.354Z" fill="#BC8271"/>
<path d="M31.8091 205.669C31.8091 205.669 67.7981 188.559 100.837 191.509C133.876 194.459 166.178 207.439 166.178 207.439L150.396 247.557L156.449 312.054H39.9477L47.1486 250.065L31.8091 205.669Z" fill="#EFBC73"/>
<path d="M172.078 239.848C172.077 239.848 172.076 239.847 172.077 239.846C185.01 206.906 193.554 183.288 196.479 176.101C196.785 175.348 197.319 174.017 198.457 172.54C202.672 167.068 208.411 168.36 215.468 164.628C223.476 160.393 225.588 153.475 227.732 154.342C229.224 154.945 229.162 157.779 226.942 163.043L226.942 163.044C229.09 159.238 232.226 154.204 234.326 155.397C236.677 156.904 233.685 163.251 231.688 167.002C234.106 162.461 236.75 160.77 237.754 161.727C239.336 163.233 238.282 167.19 234.854 173.067C234.854 173.067 234.854 173.067 234.854 173.067C238.354 169.671 239.71 169.368 240.392 170.431C241.637 172.37 238.729 177.148 235.509 180.978C231.885 185.29 227.579 187.377 224.832 188.628C224.831 188.629 224.831 188.629 224.831 188.629C218.164 212.639 208.985 246.989 208.985 246.989C208.985 246.989 183.432 246.544 172.078 239.848Z" fill="#BC8271"/>
<path d="M172.223 239.858C172.177 239.858 172.129 239.849 172.083 239.831C171.884 239.754 171.787 239.53 171.865 239.332C174.727 232.039 177.536 224.792 180.453 217.179C180.529 216.98 180.752 216.881 180.951 216.957C181.15 217.033 181.249 217.256 181.173 217.454C178.255 225.07 175.445 232.318 172.582 239.613C172.523 239.765 172.377 239.858 172.223 239.858Z" fill="#363E44"/>
<path d="M209.793 169.561C212.529 161.026 211.707 157.367 210.341 156.977C208.042 156.32 202.724 162.651 197.154 174.622C200.802 173.528 206.146 170.655 209.793 169.561Z" fill="#BC8271"/>
<path d="M210.997 184.829C210.958 184.829 210.919 184.823 210.88 184.811C210.677 184.746 210.565 184.529 210.63 184.326C211.13 182.759 212.203 180.506 214.475 178.672C217.691 176.077 221.319 175.988 222.728 176.07C222.941 176.083 223.103 176.265 223.091 176.478C223.078 176.69 222.895 176.849 222.683 176.84C221.362 176.764 217.965 176.846 214.959 179.272C212.836 180.986 211.832 183.094 211.364 184.561C211.312 184.725 211.161 184.829 210.997 184.829Z" fill="#363E44"/>
<path d="M202.08 170.142C201.943 170.142 201.811 170.069 201.741 169.941C201.639 169.755 201.707 169.52 201.894 169.418C203.653 168.455 205.593 167.936 207.647 167.386C208.6 167.13 209.585 166.866 210.603 166.546C210.807 166.482 211.023 166.595 211.087 166.798C211.151 167.001 211.038 167.218 210.835 167.282C209.801 167.607 208.807 167.873 207.846 168.13C205.838 168.668 203.942 169.176 202.265 170.094C202.206 170.127 202.142 170.142 202.08 170.142Z" fill="#363E44"/>
<path d="M220.883 168.889C220.75 168.889 220.62 168.82 220.549 168.697C220.442 168.513 220.504 168.277 220.689 168.17C221.611 167.634 222.487 167.01 223.293 166.314C224.463 165.306 225.496 164.141 226.362 162.853C226.481 162.677 226.721 162.629 226.897 162.748C227.074 162.867 227.121 163.107 227.002 163.284C226.097 164.628 225.018 165.845 223.797 166.898C222.955 167.625 222.039 168.277 221.076 168.836C221.015 168.872 220.948 168.889 220.883 168.889Z" fill="#363E44"/>
<path d="M225.921 172.248C225.788 172.248 225.659 172.179 225.587 172.056C225.48 171.872 225.543 171.636 225.727 171.529C226.649 170.993 227.525 170.368 228.332 169.673C229.501 168.665 230.533 167.5 231.4 166.212C231.519 166.036 231.759 165.988 231.936 166.107C232.112 166.226 232.159 166.465 232.04 166.642C231.135 167.988 230.057 169.204 228.835 170.258C227.993 170.984 227.077 171.636 226.114 172.195C226.053 172.231 225.987 172.248 225.921 172.248Z" fill="#363E44"/>
<path d="M228.944 178.965C228.811 178.965 228.682 178.897 228.61 178.773C228.503 178.589 228.566 178.353 228.75 178.247C229.672 177.711 230.549 177.087 231.355 176.391C232.525 175.382 233.557 174.218 234.424 172.929C234.542 172.753 234.782 172.706 234.959 172.825C235.136 172.944 235.182 173.183 235.064 173.36C234.158 174.705 233.08 175.922 231.858 176.975C231.016 177.702 230.101 178.353 229.137 178.913C229.077 178.948 229.01 178.965 228.944 178.965Z" fill="#363E44"/>
<path d="M113.984 258.283L104.823 251.71L116.03 236.787C116.157 236.617 116.399 236.583 116.57 236.71C116.74 236.838 116.774 237.08 116.646 237.25L105.913 251.543L113.793 257.197L123.895 242.451C124.015 242.276 124.256 242.231 124.431 242.351C124.606 242.471 124.651 242.711 124.531 242.887L113.984 258.283Z" fill="#363E44"/>
<path d="M89.497 283.474C89.4192 283.474 89.3408 283.451 89.2726 283.402C89.0997 283.278 89.06 283.037 89.1841 282.864L109.342 254.77C109.465 254.596 109.706 254.556 109.88 254.681C110.053 254.805 110.092 255.046 109.968 255.219L89.8107 283.313C89.7353 283.418 89.6171 283.474 89.497 283.474Z" fill="#363E44"/>
<path d="M108.27 253.902C108.192 253.902 108.113 253.878 108.045 253.83C107.872 253.705 107.833 253.465 107.957 253.291L118.384 238.759C118.508 238.586 118.748 238.546 118.922 238.67C119.095 238.794 119.135 239.035 119.01 239.208L108.583 253.741C108.508 253.846 108.39 253.902 108.27 253.902Z" fill="#363E44"/>
<path d="M111.175 255.987C111.098 255.987 111.019 255.963 110.951 255.915C110.778 255.79 110.738 255.55 110.863 255.376L121.29 240.844C121.414 240.671 121.654 240.63 121.828 240.755C122.001 240.88 122.04 241.12 121.916 241.293L111.489 255.826C111.414 255.931 111.295 255.987 111.175 255.987Z" fill="#363E44"/>
<path d="M18.5167 247.755C33.7114 251.061 69.88 257.076 73.3874 257.803C79.9437 259.164 114.939 267.377 114.302 272.555C113.997 275.03 107.183 273.752 104.893 273.253C106.544 274.569 113.433 278.932 112.384 281.522C111.151 284.565 102.146 280.623 101.967 280.65C103.78 281.815 111.188 286.165 110.476 288.137C109.551 290.704 101.446 288.724 99.0467 288.019C99.2019 288.42 106.493 293.084 105.862 294.631C105.162 296.346 97.5594 294.681 94.4867 294.301C88.6607 293.097 65.7684 289.633 54.5681 288.48C28.2625 285.77 7.45654 279.16 7.45654 279.16C7.45654 279.16 11.0605 251.56 18.5167 247.755Z" fill="#BC8271"/>
<path d="M46.1656 252.993C46.1427 252.993 46.1195 252.991 46.0962 252.987C38.7266 251.644 23.4622 248.832 18.4382 247.797C18.2296 247.754 18.0955 247.55 18.1383 247.341C18.1814 247.133 18.3859 246.999 18.5937 247.041C23.6109 248.075 38.8679 250.886 46.2343 252.229C46.4438 252.267 46.5828 252.467 46.5445 252.677C46.5106 252.863 46.3484 252.993 46.1656 252.993Z" fill="#363E44"/>
<path d="M105.023 273.412C104.954 273.412 104.884 273.394 104.821 273.355C103.644 272.627 102.406 271.975 101.143 271.417C98.8741 270.415 96.4732 269.692 94.0078 269.269C93.798 269.234 93.6568 269.034 93.6929 268.824C93.7289 268.615 93.927 268.474 94.1381 268.51C96.6661 268.943 99.128 269.684 101.455 270.711C102.75 271.284 104.019 271.952 105.227 272.699C105.408 272.811 105.464 273.049 105.352 273.23C105.279 273.348 105.153 273.412 105.023 273.412Z" fill="#363E44"/>
<path d="M102.132 280.894C102.077 280.894 102.02 280.882 101.967 280.856C101.705 280.731 101.436 280.608 101.161 280.486C98.8917 279.484 96.4908 278.761 94.0249 278.338C93.8151 278.303 93.6739 278.103 93.71 277.893C93.746 277.684 93.945 277.543 94.1552 277.579C96.6833 278.012 99.1452 278.753 101.472 279.781C101.754 279.905 102.03 280.032 102.298 280.16C102.491 280.252 102.572 280.482 102.481 280.674C102.415 280.813 102.277 280.894 102.132 280.894Z" fill="#363E44"/>
<path d="M98.9031 288.3C98.8617 288.3 98.8195 288.294 98.7781 288.28C97.2435 287.753 95.6501 287.347 94.0417 287.071C93.8319 287.036 93.6908 286.836 93.7268 286.626C93.7628 286.417 93.9613 286.275 94.172 286.312C95.8208 286.594 97.4545 287.011 99.028 287.55C99.2294 287.619 99.3368 287.838 99.2675 288.04C99.213 288.2 99.0633 288.3 98.9031 288.3Z" fill="#363E44"/>
<path d="M90.5106 180.698C90.5106 180.698 80.3084 161.178 81.7814 151.987C83.2545 142.796 91.5371 137.471 103.265 139.635C114.994 141.798 120 126.221 120.243 125.006C120.475 123.848 121.786 128.081 121.786 128.081C121.786 128.081 122.868 130.085 122.27 133.6C122.27 133.6 124.947 129.592 124.501 128.081C124.054 126.57 143.689 152.607 124.367 159.72C105.043 166.834 89.3374 172.399 90.5106 180.698Z" fill="#363E44"/>
<path d="M91.6513 167.735L88.0575 197.663C87.7389 200.317 89.4806 202.799 92.0941 203.356C98.1194 204.643 103.567 204.699 107.517 201.569C108.656 200.667 109.353 199.316 109.452 197.867L111.274 171.369L91.6513 167.735Z" fill="#BC8271"/>
<path d="M124.5 154.937C124.5 154.937 124.718 181.829 113.574 183.925C106.831 185.193 99.7323 178.065 97.814 174.562C95.8956 171.06 96.7423 164.892 96.7423 164.892C96.7423 164.892 99.2627 166.778 100.941 165.162C102.619 163.547 99.5154 154.901 107.624 154.369C115.732 153.838 116.986 157.152 124.5 154.937Z" fill="#BC8271"/>
<path d="M110.708 184.796C110.689 184.796 110.668 184.794 110.648 184.791C106.735 184.173 102.767 181.284 100.571 178.694C100.433 178.532 100.454 178.289 100.616 178.151C100.778 178.014 101.022 178.034 101.159 178.196C103.263 180.677 107.05 183.442 110.768 184.03C110.978 184.063 111.122 184.26 111.089 184.471C111.059 184.66 110.895 184.796 110.708 184.796Z" fill="#363E44"/>
<path d="M100.816 167.179C101.741 169.248 101.509 173.229 99.4395 174.155C97.3701 175.081 94.2472 172.601 93.3215 170.532C92.3958 168.462 93.3227 166.034 95.3922 165.108C97.4616 164.182 99.8897 165.11 100.816 167.179Z" fill="#BC8271"/>
<path d="M124.92 164.134C124.902 164.185 124.926 164.235 124.909 164.287C124.908 164.289 124.906 164.291 124.906 164.293C124.894 165.061 124.883 165.872 125.012 166.629C125.069 166.964 125.239 167.183 125.329 167.493C125.394 167.72 125.456 167.938 125.53 168.159C127.662 166.766 128.802 164.645 128.802 164.645C128.802 164.645 127.032 164.029 124.92 164.134Z" fill="white"/>
<path d="M122.458 164.64C119.67 165.712 118.052 168.37 117.793 168.822C117.814 168.858 117.835 168.894 117.857 168.93C118.423 169.112 121.353 169.955 124.096 168.9C124.611 168.702 125.081 168.447 125.515 168.165C125.587 167.969 125.649 167.767 125.692 167.556C125.946 166.309 125.625 165.081 124.917 164.137C124.125 164.18 123.284 164.322 122.458 164.64Z" fill="#363E44"/>
<path d="M109.807 166.301C109.61 167.188 109.625 167.894 109.967 168.694C112.11 168.998 113.941 168.505 113.941 168.505C113.941 168.505 112.773 165.913 110.429 164.359C110.071 164.925 109.946 165.672 109.807 166.301Z" fill="white"/>
<path d="M109.921 168.686C110.85 167.465 111.069 165.807 110.425 164.363C110.161 164.191 109.885 164.028 109.59 163.886C106.642 162.472 103.265 163.383 103.265 163.383C103.265 163.383 104.668 166.587 107.616 168.002C108.378 168.367 109.168 168.575 109.921 168.686Z" fill="#363E44"/>
<path d="M95.5072 170.87C95.3586 170.87 95.2169 170.784 95.1536 170.639C95.0896 170.492 95.0379 170.339 94.9994 170.182C94.8468 169.561 94.9094 168.923 95.1762 168.386C95.4537 167.826 95.9164 167.443 96.4795 167.305C96.7659 167.234 97.06 167.233 97.3524 167.298C97.5601 167.346 97.69 167.553 97.6428 167.76C97.5958 167.968 97.3898 168.098 97.1814 168.051C97.0067 168.01 96.8322 168.012 96.6631 168.053C96.3244 168.136 96.0414 168.376 95.8666 168.728C95.6809 169.102 95.6387 169.553 95.7482 169.998C95.776 170.112 95.8139 170.224 95.8603 170.33C95.9454 170.526 95.8562 170.752 95.6611 170.838C95.6111 170.86 95.5588 170.87 95.5072 170.87Z" fill="#363E44"/>
<path d="M116.956 172.88C116.857 172.88 116.758 172.842 116.682 172.766C116.532 172.615 116.533 172.371 116.684 172.221C116.94 171.967 117.072 171.718 117.076 171.482C117.08 171.257 116.971 171.098 116.743 170.787C116.572 170.553 116.359 170.261 116.185 169.859C115.962 169.347 115.857 168.777 115.872 168.165C115.878 167.952 116.063 167.796 116.267 167.789C116.48 167.794 116.648 167.971 116.643 168.184C116.631 168.683 116.715 169.143 116.892 169.553C117.032 169.875 117.202 170.108 117.366 170.332C117.607 170.661 117.855 171.001 117.847 171.495C117.84 171.938 117.631 172.367 117.228 172.768C117.152 172.843 117.054 172.88 116.956 172.88Z" fill="#363E44"/>
<path d="M113.892 176.619C113.588 176.619 113.302 176.552 113.035 176.42C112.041 175.927 111.732 174.688 111.72 174.636C111.67 174.429 111.797 174.22 112.004 174.171C112.21 174.118 112.419 174.247 112.469 174.454C112.474 174.472 112.713 175.402 113.381 175.731C113.734 175.904 114.168 175.881 114.671 175.661C114.867 175.574 115.094 175.664 115.179 175.859C115.265 176.054 115.176 176.282 114.981 176.367C114.598 176.535 114.234 176.619 113.892 176.619Z" fill="#363E44"/>
<path d="M88.0201 155.78C88.0201 155.78 49.1185 168.028 55.9317 133.369C62.7449 98.7104 100.578 113.603 96.5563 148.458L88.0201 155.78Z" fill="#363E44"/>
<path d="M269.585 104.708C293.796 104.708 313.424 85.081 313.424 60.8695C313.424 36.6579 293.796 17.0305 269.585 17.0305C245.373 17.0305 225.746 36.6579 225.746 60.8695C225.746 85.081 245.373 104.708 269.585 104.708Z" fill="#D87355"/>
<path d="M269.26 98.8633C290.064 98.8633 306.929 81.9983 306.929 61.1942C306.929 40.3902 290.064 23.5251 269.26 23.5251C248.456 23.5251 231.591 40.3902 231.591 61.1942C231.591 81.9983 248.456 98.8633 269.26 98.8633Z" fill="#E6D0BE"/>
<path d="M269.26 99.2491C248.277 99.2491 231.206 82.1779 231.206 61.1944C231.206 40.211 248.277 23.1398 269.26 23.1398C290.244 23.1398 307.315 40.211 307.315 61.1944C307.315 82.1779 290.244 99.2491 269.26 99.2491ZM269.26 23.9109C248.702 23.9109 231.977 40.6361 231.977 61.1944C231.977 81.7528 248.702 98.4779 269.26 98.4779C289.819 98.4779 306.544 81.7528 306.544 61.1944C306.544 40.6361 289.819 23.9109 269.26 23.9109Z" fill="#363E44"/>
<path d="M268.396 70.7842C273.644 81.3734 285.682 86.1002 295.285 81.3414C304.888 76.5827 308.418 64.1406 303.171 53.5513C300.179 47.5143 294.98 43.3858 289.283 41.8321C286.546 41.0854 284.228 39.2934 282.662 36.927C278.628 30.8308 273.084 27.5244 268.636 29.1647C262.779 31.3239 261.04 41.2342 264.751 51.3001C264.756 51.3146 264.762 51.3291 264.767 51.3434C265.696 53.8515 266.18 56.5131 266.012 59.1824C265.772 62.9972 266.525 67.0081 268.396 70.7842Z" fill="white"/>
<path d="M270.03 69.291C274.666 78.6472 285.303 82.8235 293.788 78.6189C302.272 74.4143 305.392 63.421 300.755 54.0646C298.112 48.7304 293.518 45.0827 288.485 43.71C286.066 43.0503 284.018 41.4671 282.635 39.376C279.07 33.9896 274.172 31.0683 270.241 32.5174C265.067 34.4251 263.53 43.1816 266.809 52.0755C266.813 52.0883 266.818 52.101 266.823 52.1138C267.644 54.3298 268.071 56.6816 267.923 59.04C267.711 62.4104 268.376 65.9544 270.03 69.291Z" fill="#D87355"/>
<path d="M292.989 69.3077C293.74 67.0818 292.544 64.6688 290.318 63.918C288.092 63.1673 285.679 64.3632 284.928 66.5891C284.178 68.8149 285.374 71.228 287.599 71.9787C289.825 72.7294 292.238 71.5336 292.989 69.3077Z" fill="white"/>
<path d="M286.094 69.3808C285.312 67.8023 285.957 65.8886 287.536 65.1063C289.114 64.3241 291.028 64.9696 291.81 66.548C292.593 68.1265 291.947 70.0402 290.369 70.8226C288.79 71.6049 286.876 70.9593 286.094 69.3808Z" fill="#F7F1EB"/>
<path d="M280.227 59.3238C280.114 59.3238 280.002 59.2741 279.926 59.1788L278.701 57.6461L275.258 56.6767C275.229 56.6685 275.202 56.6571 275.175 56.6428L271.214 54.447C270.344 53.9654 269.686 53.1827 269.361 52.243L268.232 48.9851L264.884 44.9855C264.748 44.8225 264.769 44.5793 264.932 44.4425C265.096 44.3054 265.339 44.3269 265.475 44.4908L268.869 48.5446C268.899 48.5805 268.922 48.6214 268.937 48.6658L270.089 51.9907C270.353 52.7505 270.885 53.3829 271.587 53.7724L275.51 55.9466L279.03 56.9376C279.107 56.9594 279.176 57.0054 279.227 57.0682L280.528 58.6977C280.661 58.8642 280.634 59.1066 280.468 59.2395C280.397 59.2963 280.312 59.3238 280.227 59.3238Z" fill="white"/>
<path d="M284.205 55.177C284.15 55.177 284.095 55.1653 284.042 55.1408C283.849 55.0508 283.765 54.8215 283.855 54.6288L285.215 51.7109L284.465 50.1982C283.74 48.7351 284.242 46.9873 285.634 46.1322L289.748 43.6058C289.929 43.4948 290.166 43.5512 290.278 43.7328C290.389 43.9143 290.333 44.1517 290.151 44.2633L286.037 46.7897C284.988 47.4343 284.609 48.7524 285.156 49.8556L285.988 51.5345C286.04 51.6396 286.041 51.7623 285.992 51.8685L284.554 54.9543C284.489 55.0945 284.35 55.177 284.205 55.177Z" fill="white"/>
<path d="M301.506 70.6338C301.425 70.6338 301.344 70.6086 301.274 70.5558L299.14 68.9432C299.097 68.9109 299.061 68.8694 299.035 68.8224L297.617 66.2613C297.598 66.2264 297.584 66.1883 297.576 66.1487L297.146 63.9533C297.057 63.5027 296.862 63.072 296.581 62.7083L294.581 60.1175C294.451 59.9488 294.482 59.7068 294.65 59.5765C294.819 59.4469 295.061 59.4775 295.191 59.6461L297.191 62.2369C297.545 62.695 297.791 63.2373 297.902 63.805L298.321 65.941L299.67 68.3774L301.739 69.9406C301.909 70.069 301.942 70.3108 301.814 70.4806C301.738 70.581 301.623 70.6338 301.506 70.6338Z" fill="white"/>
<path d="M275.753 71.8752C275.324 71.8752 274.894 71.7877 274.493 71.6108L273.056 70.976L269.412 69.049C269.224 68.9497 269.152 68.7162 269.252 68.5279C269.351 68.3401 269.584 68.2677 269.773 68.3676L273.392 70.2825L274.805 70.9052C275.553 71.2362 276.434 71.1507 277.105 70.6826L278.015 70.0478L280.555 67.4672C280.655 67.3659 280.802 67.3291 280.939 67.3674L283.195 68.0292C283.399 68.0895 283.517 68.3037 283.456 68.5078C283.397 68.7126 283.183 68.8294 282.978 68.7696L280.943 68.1724L278.54 70.614C278.523 70.631 278.505 70.6464 278.485 70.66L277.546 71.3152C277.015 71.6852 276.385 71.8746 275.753 71.8752Z" fill="white"/>
<path d="M276.514 44.7477C276.433 44.7477 276.352 44.7225 276.282 44.6697L273.361 42.4622C272.921 42.1298 272.642 41.6452 272.576 41.0974C272.51 40.5499 272.666 40.0127 273.014 39.5854L273.862 38.5454L273.081 34.6796L272.381 31.7782C272.331 31.5712 272.458 31.3629 272.665 31.3133C272.872 31.2617 273.08 31.3904 273.13 31.5976L273.833 34.5129L274.654 38.5717C274.677 38.685 274.648 38.8025 274.575 38.8917L273.612 40.0727C273.397 40.3366 273.301 40.6676 273.342 41.0058C273.382 41.3431 273.554 41.6421 273.826 41.8472L276.747 44.0547C276.917 44.183 276.951 44.4249 276.822 44.5947C276.746 44.695 276.631 44.7477 276.514 44.7477Z" fill="white"/>
<path d="M226.77 27.7383C228.073 26.6314 229.765 26.2892 231.31 26.6564C231.197 25.0723 231.809 23.4578 233.112 22.3509C235.285 20.5045 238.544 20.7698 240.391 22.9435C242.237 25.1171 241.972 28.3758 239.798 30.2222C239.341 30.6106 238.834 30.8993 238.305 31.102L273.433 72.4552L269.694 75.6313L234.566 34.278C234.28 34.768 233.913 35.2214 233.456 35.6096C231.283 37.456 228.024 37.1909 226.178 35.0173C224.331 32.8436 224.596 29.5847 226.77 27.7383Z" fill="#D3BBA3"/>
<path d="M247.301 41.798C248.482 41.1129 253.512 45.4691 257.758 49.3704C266.258 57.18 271.637 54.3437 277.512 60.3276C282.586 65.4948 285.88 75.0488 282.442 83.5174C279.185 91.5403 270.028 98.2423 261.927 96.2611C253.469 94.1925 249.684 83.5195 248.848 77.472C247.641 68.7339 252.052 65.7378 249.471 57.8504C247.245 51.047 242.605 45.6291 243.447 44.8042C244.14 44.1265 246.811 48.1287 248.362 47.0259C249.88 45.9459 246.263 42.3993 247.301 41.798Z" fill="#84524D"/>
<path d="M305.071 40.1313L300.785 35.8455L243.135 93.4955L247.421 97.7813L305.071 40.1313Z" fill="#D87355"/>
<path d="M245.913 91.2954C245.814 91.2954 245.716 91.2578 245.64 91.1828C245.49 91.0326 245.489 90.7887 245.64 90.6376L298.534 37.5774C298.685 37.426 298.928 37.426 299.08 37.5767C299.23 37.7269 299.231 37.9708 299.08 38.1219L246.186 91.1821C246.11 91.2577 246.011 91.2954 245.913 91.2954Z" fill="#363E44"/>
<path d="M251.063 94.6271C250.964 94.6271 250.866 94.5895 250.79 94.5141C250.64 94.3636 250.64 94.1196 250.79 93.9689L302.058 42.7208C302.208 42.5703 302.453 42.5703 302.603 42.7208C302.753 42.8714 302.753 43.1155 302.603 43.266L251.336 94.5141C251.26 94.5893 251.162 94.6271 251.063 94.6271Z" fill="#363E44"/>
<path d="M319.743 286.844H0.385498V319.615H319.743V286.844Z" fill="#E6D0BE"/>
<path d="M0.385576 287.229C0.173642 287.229 0.00122883 287.058 4.78722e-06 286.845C-0.00104439 286.633 0.170495 286.459 0.383479 286.458L145.814 285.705C145.814 285.705 145.815 285.705 145.816 285.705C146.028 285.705 146.2 285.877 146.201 286.089C146.202 286.301 146.031 286.475 145.818 286.476L0.387679 287.229C0.386804 287.229 0.386101 287.229 0.385576 287.229Z" fill="#84524D"/>
<path d="M286.83 195.237H269.088L266.191 169.568H289.727L286.83 195.237Z" fill="#B77250"/>
<path d="M306.429 294.338H250.634C250.438 294.338 250.273 294.191 250.251 293.997L244.457 243.994C244.443 243.87 244.489 243.747 244.582 243.663L263.718 226.388L265.923 193.629L260.852 183.71C260.791 183.591 260.797 183.448 260.867 183.334C260.937 183.219 261.061 183.149 261.196 183.149H290.074C290.277 183.149 290.445 183.307 290.459 183.509L293.345 226.388L312.481 243.663C312.574 243.747 312.62 243.87 312.606 243.994L306.812 293.997C306.79 294.191 306.625 294.338 306.429 294.338ZM250.977 293.567H306.086L311.817 244.103L292.712 226.856C292.638 226.789 292.593 226.695 292.586 226.596L289.713 183.92H261.826L266.659 193.373C266.69 193.435 266.705 193.505 266.7 193.575L264.477 226.596C264.47 226.695 264.425 226.789 264.351 226.856L245.246 244.103L250.977 293.567Z" fill="#B77250"/>
<path d="M292.759 223.935C292.615 223.935 292.476 223.854 292.41 223.715C292.319 223.523 292.4 223.293 292.593 223.202C299.477 219.922 304.684 216.32 308.067 212.497C311.582 208.525 313.127 204.357 312.79 199.757C312.515 195.995 308.756 193.696 305.651 192.429C301.687 190.812 296.632 189.992 290.626 189.992C290.611 189.992 290.596 189.992 290.58 189.992C290.367 189.992 290.195 189.82 290.194 189.607C290.194 189.394 290.367 189.221 290.58 189.221C290.595 189.221 290.611 189.221 290.626 189.221C296.733 189.221 301.886 190.06 305.942 191.715C309.249 193.064 313.255 195.544 313.559 199.7C313.912 204.519 312.304 208.872 308.645 213.008C305.192 216.909 299.903 220.573 292.924 223.897C292.871 223.923 292.814 223.935 292.759 223.935Z" fill="#B77250"/>
<path d="M295.751 229.174C295.608 229.174 295.47 229.094 295.404 228.957C295.311 228.765 295.392 228.534 295.583 228.442C303.038 224.839 308.759 220.82 312.586 216.495C317.169 211.315 319.262 205.535 318.807 199.317C318.417 193.975 314.554 189.545 307.93 186.842C303.1 184.872 296.908 183.849 290.001 183.902C290 183.902 289.999 183.902 289.998 183.902C289.786 183.902 289.614 183.731 289.613 183.519C289.611 183.306 289.783 183.133 289.996 183.131C297.002 183.081 303.298 184.12 308.221 186.128C315.131 188.947 319.163 193.611 319.576 199.26C320.047 205.694 317.889 211.665 313.163 217.006C309.268 221.408 303.466 225.489 295.919 229.136C295.865 229.162 295.808 229.174 295.751 229.174Z" fill="#B77250"/>
<path d="M289.217 221.19H267.846L267.145 231.018L249.936 246.349L254.853 288.788H302.21L307.127 246.349L289.918 231.018L289.217 221.19Z" fill="#9E9569"/>
<path d="M294.659 247.077L296.641 265.479L302.02 265.196L303.436 247.077H294.659Z" fill="white"/>
<path d="M296.61 267.524L297.239 273.438L301.391 273.061L301.769 267.21L296.61 267.524Z" fill="white"/>
<path d="M163.43 303.685C163.24 303.685 163.074 303.545 163.049 303.351C162.059 295.887 161.418 288.292 161.142 280.776C160.805 271.591 161.004 262.273 161.735 253.079C161.752 252.867 161.938 252.713 162.15 252.725C162.362 252.742 162.52 252.927 162.504 253.14C161.775 262.304 161.576 271.593 161.912 280.747C162.187 288.239 162.827 295.81 163.813 303.249C163.841 303.46 163.693 303.654 163.482 303.682C163.465 303.684 163.447 303.685 163.43 303.685Z" fill="#363E44"/>
<path d="M149.023 256.879C154.189 256.167 158.489 257.991 161.617 261.593C164.457 257.76 168.603 255.609 173.808 255.919C184.931 256.582 189.637 268.978 187.433 280.826C185.004 293.885 179.26 304.433 170.945 303.937C167.792 303.749 165.166 302.162 163.084 299.492C161.215 302.315 158.719 304.1 155.591 304.532C147.339 305.669 140.797 295.597 137.365 282.765C134.252 271.123 137.985 258.4 149.023 256.879Z" fill="#D87355"/>
<path d="M150.887 261.801C151.463 262.491 147.079 266.014 145.833 273.041C144.413 281.052 145.487 287.629 144.713 288.084C143.795 288.624 140.511 278.174 142.005 270.036C143.374 262.579 150.181 260.954 150.887 261.801Z" fill="#F7F1EB"/>
<path d="M156.127 305.005C148.954 305.006 142.545 296.878 138.798 282.864C136.783 275.331 137.612 267.774 141.015 262.65C143.315 259.188 146.69 257.06 150.776 256.497C155.719 255.815 160.074 257.368 163.398 260.988C166.433 257.121 170.658 255.237 175.636 255.534C179.754 255.78 183.283 257.64 185.844 260.914C189.633 265.76 191.043 273.229 189.617 280.896C186.803 296.028 180.48 304.786 172.727 304.322C169.709 304.142 167.082 302.735 164.915 300.138C162.954 302.894 160.444 304.501 157.449 304.914C157.006 304.975 156.565 305.005 156.127 305.005ZM150.881 257.261C147.021 257.793 143.831 259.804 141.658 263.077C138.424 267.945 137.614 275.451 139.543 282.665C142.528 293.826 148.771 305.331 157.343 304.15C160.263 303.747 162.694 302.109 164.568 299.28C164.637 299.176 164.751 299.112 164.875 299.108C164.998 299.099 165.118 299.158 165.194 299.256C167.281 301.931 169.831 303.377 172.773 303.553C181.406 304.051 186.746 292.114 188.859 280.756C190.225 273.414 188.837 265.993 185.236 261.389C182.816 258.294 179.48 256.536 175.59 256.304C170.724 256.014 166.622 257.922 163.732 261.823C163.662 261.916 163.554 261.974 163.437 261.978C163.322 261.987 163.208 261.934 163.131 261.846C159.948 258.181 155.712 256.596 150.881 257.261Z" fill="#363E44"/>
<path d="M280.887 273.66C280.887 282.575 266.415 312.583 224.667 312.583C180.693 312.583 168.447 282.575 168.447 273.66C168.447 264.745 193.617 257.518 224.667 257.518C255.716 257.517 280.887 264.745 280.887 273.66Z" fill="#EFBC73"/>
<path d="M224.667 289.802C255.716 289.802 280.887 282.575 280.887 273.66C280.887 264.745 255.716 257.518 224.667 257.518C193.617 257.518 168.447 264.745 168.447 273.66C168.447 282.575 193.617 289.802 224.667 289.802Z" fill="#E0AA63"/>
<path d="M275.337 273.66C275.337 281.695 252.651 288.209 224.667 288.209C196.683 288.209 173.997 281.695 173.997 273.66C173.997 265.625 206.401 245.819 224.667 245.819C244.943 245.819 275.337 265.625 275.337 273.66Z" fill="#E6D0BE"/>
<path d="M224.667 295.344C199.811 295.344 178.128 290.745 170.713 283.9C170.556 283.755 170.546 283.512 170.691 283.355C170.835 283.199 171.079 283.188 171.236 283.333C178.405 289.951 200.376 294.573 224.667 294.573C248.227 294.573 269.393 290.318 277.336 283.985C277.503 283.853 277.745 283.88 277.878 284.046C278.011 284.213 277.984 284.455 277.817 284.588C269.748 291.022 248.388 295.344 224.667 295.344Z" fill="#FFD092"/>
<path d="M217.92 287.135C213.982 282.585 215.713 274.637 215.713 274.637C215.713 274.637 223.827 274.064 227.765 278.614C231.702 283.163 229.972 291.112 229.972 291.112C229.972 291.112 221.857 291.684 217.92 287.135Z" fill="#A8A073"/>
<path d="M231.991 292.531C231.93 292.531 231.869 292.517 231.812 292.487C229.565 291.306 227.448 289.881 225.519 288.251C222.35 285.574 219.697 282.371 217.634 278.731C217.529 278.546 217.594 278.31 217.779 278.205C217.965 278.101 218.199 278.166 218.305 278.351C220.323 281.911 222.917 285.044 226.016 287.663C227.903 289.256 229.973 290.65 232.17 291.805C232.359 291.903 232.431 292.137 232.332 292.325C232.263 292.456 232.129 292.531 231.991 292.531Z" fill="#363E44"/>
<path d="M263.225 262.22C265.431 258.645 262.723 252.972 257.176 249.549C251.629 246.125 245.343 246.248 243.137 249.823C240.931 253.398 243.639 259.071 249.186 262.494C254.733 265.918 261.019 265.795 263.225 262.22Z" fill="#363E44"/>
<path d="M246.001 249.903C246.038 249.561 249.078 249.18 252.146 249.981C258.506 251.641 262.046 257.612 261.785 257.878C261.573 258.092 258.998 254.493 253.428 252.113C249.342 250.366 245.961 250.266 246.001 249.903Z" fill="white"/>
<path d="M234.943 275.423C236.698 275.075 240.174 274.634 244.259 275.841C249.186 277.297 252.177 280.318 253.369 281.67C254.965 279.946 256.561 278.221 258.157 276.497C256.593 275.541 253.911 273.599 251.885 270.194C248.402 264.34 249.379 258.396 249.702 256.77C248.683 256.885 241.753 257.783 237.567 264.047C234.287 268.954 234.768 274.048 234.943 275.423Z" fill="#A8A073"/>
<path d="M249.547 254.127C247.613 252.337 244.593 252.454 242.803 254.388C242.114 255.133 241.711 256.038 241.582 256.973C241.537 256.924 241.492 256.876 241.443 256.831C240.461 255.922 238.928 255.982 238.02 256.964C237.707 257.301 237.512 257.704 237.427 258.124C235.102 256.14 231.605 256.329 229.51 258.593C227.362 260.914 227.503 264.537 229.824 266.685C229.86 266.719 229.898 266.75 229.934 266.782C229.41 267.893 229.574 269.237 230.402 270.193C230.325 270.264 230.249 270.335 230.177 270.413C228.469 272.258 228.581 275.138 230.426 276.845C232.271 278.553 235.151 278.441 236.859 276.596C237.549 275.849 237.937 274.934 238.038 273.995C239.606 274.703 241.515 274.375 242.748 273.042C243.452 272.281 243.81 271.324 243.836 270.363C245.334 271.319 247.345 271.1 248.595 269.75C249.716 268.538 249.881 266.785 249.13 265.412C249.487 265.218 249.82 264.967 250.111 264.652C251.336 263.328 251.441 261.371 250.479 259.936C251.518 258.059 251.193 255.649 249.547 254.127Z" fill="#8B865C"/>
<path d="M195.078 279.705C200.045 279.705 204.071 277.691 204.071 275.208C204.071 272.725 200.045 270.711 195.078 270.711C190.111 270.711 186.085 272.725 186.085 275.208C186.085 277.691 190.111 279.705 195.078 279.705Z" fill="#9E9569"/>
<path d="M267.762 279.212C272.049 279.212 275.524 277.695 275.524 275.824C275.524 273.953 272.049 272.436 267.762 272.436C263.476 272.436 260.001 273.953 260.001 275.824C260.001 277.695 263.476 279.212 267.762 279.212Z" fill="#9E9569"/>
<path d="M202.757 286.891C209.198 285.889 213.896 281.711 213.25 277.56C212.604 273.41 206.859 270.858 200.418 271.86C193.977 272.863 189.28 277.04 189.926 281.191C190.572 285.342 196.317 287.894 202.757 286.891Z" fill="#363E44"/>
<path d="M192.158 279.364C191.965 279.08 194.027 276.815 196.879 275.43C202.792 272.558 209.364 274.795 209.337 275.168C209.316 275.468 205.019 274.406 199.24 276.216C194.998 277.544 192.364 279.666 192.158 279.364Z" fill="white"/>
<path d="M180.141 252.32C180.566 254.058 181.162 257.511 180.138 261.646C178.903 266.633 176.018 269.755 174.72 271.007C176.514 272.524 178.308 274.042 180.102 275.559C180.987 273.954 182.808 271.188 186.119 269.013C191.812 265.273 197.793 265.984 199.432 266.234C199.272 265.222 198.066 258.338 191.622 254.435C186.574 251.377 181.506 252.084 180.141 252.32Z" fill="#A8A073"/>
<path d="M202.066 265.962C203.768 263.949 203.517 260.938 201.505 259.236C200.73 258.581 199.807 258.218 198.868 258.131C198.915 258.084 198.961 258.037 199.004 257.986C199.868 256.965 199.74 255.436 198.719 254.572C198.368 254.275 197.956 254.098 197.533 254.031C199.411 251.62 199.067 248.135 196.712 246.143C194.297 244.101 190.684 244.403 188.641 246.818C188.61 246.855 188.58 246.894 188.55 246.932C187.417 246.457 186.081 246.681 185.163 247.551C185.088 247.478 185.015 247.404 184.934 247.336C183.014 245.712 180.142 245.952 178.518 247.872C176.895 249.791 177.135 252.663 179.054 254.287C179.831 254.943 180.763 255.29 181.705 255.349C181.067 256.947 181.481 258.839 182.867 260.011C183.659 260.682 184.63 260.996 185.592 260.979C184.703 262.518 185.011 264.518 186.416 265.706C187.677 266.772 189.436 266.859 190.774 266.047C190.984 266.396 191.25 266.718 191.577 266.994C192.954 268.159 194.914 268.177 196.304 267.151C198.226 268.106 200.619 267.673 202.066 265.962Z" fill="#8B865C"/>
<path d="M234.38 280.911C234.379 280.811 234.381 280.711 234.386 280.613C234.505 278.451 236.906 277.185 238.814 278.208C241.04 279.402 243.463 279.93 246.061 279.869C249.536 279.065 249.339 284.086 245.111 286.018C244.539 286.28 243.91 286.399 243.281 286.386C240.78 286.333 238.541 285.813 236.645 284.686C235.304 283.888 234.401 282.471 234.38 280.911Z" fill="#B77250"/>
<path d="M243.73 281.174C241.298 281.174 239.109 280.43 237.091 278.925C236.921 278.798 236.885 278.556 237.013 278.386C237.14 278.215 237.381 278.18 237.552 278.307C240.068 280.182 242.875 280.788 246.133 280.163C246.343 280.125 246.544 280.26 246.584 280.469C246.625 280.678 246.488 280.88 246.279 280.921C245.4 281.089 244.551 281.174 243.73 281.174Z" fill="#84524D"/>
<path d="M260.652 279.429C260.606 279.34 260.564 279.25 260.525 279.159C259.666 277.172 261.249 274.967 263.413 275.031C265.938 275.106 268.342 274.497 270.639 273.282C273.39 271.012 275.456 275.593 272.535 279.209C272.139 279.698 271.629 280.086 271.061 280.355C268.799 281.424 266.564 281.958 264.364 281.796C262.808 281.68 261.367 280.816 260.652 279.429Z" fill="#B77250"/>
<path d="M264.326 276.638C263.63 276.638 262.919 276.572 262.192 276.442C261.983 276.404 261.843 276.203 261.881 275.994C261.918 275.784 262.12 275.644 262.329 275.683C265.418 276.239 268.199 275.529 270.835 273.513C271.005 273.385 271.247 273.416 271.376 273.586C271.505 273.755 271.473 273.997 271.304 274.126C269.104 275.807 266.805 276.638 264.326 276.638Z" fill="#84524D"/>
<path d="M172.417 273.745C172.416 273.645 172.418 273.545 172.423 273.447C172.543 271.285 174.943 270.019 176.851 271.042C179.077 272.236 181.5 272.764 184.098 272.703C187.573 271.899 187.376 276.92 183.148 278.852C182.576 279.114 181.947 279.233 181.318 279.22C178.817 279.167 176.578 278.647 174.682 277.52C173.341 276.722 172.438 275.305 172.417 273.745Z" fill="#B77250"/>
<path d="M181.768 274.008C179.336 274.008 177.146 273.264 175.129 271.759C174.958 271.632 174.923 271.39 175.05 271.22C175.177 271.049 175.419 271.014 175.589 271.141C178.104 273.017 180.91 273.624 184.17 272.997C184.38 272.958 184.581 273.095 184.621 273.303C184.662 273.512 184.525 273.714 184.315 273.755C183.437 273.924 182.589 274.008 181.768 274.008Z" fill="#84524D"/>
<path d="M269.423 269.239C269.403 269.337 269.381 269.434 269.355 269.529C268.797 271.621 266.188 272.37 264.53 270.978C262.595 269.355 260.331 268.343 257.775 267.872C254.209 267.949 255.428 263.074 259.962 262.046C260.575 261.907 261.216 261.919 261.828 262.06C264.266 262.624 266.351 263.59 267.977 265.081C269.127 266.136 269.721 267.707 269.423 269.239Z" fill="#B77250"/>
<path d="M266.074 271.269C265.967 271.269 265.861 271.225 265.785 271.139C263.706 268.79 261.083 267.621 257.765 267.569C257.552 267.565 257.382 267.39 257.386 267.177C257.389 266.966 257.561 266.798 257.771 266.798C257.773 266.798 257.775 266.798 257.777 266.798C261.324 266.854 264.132 268.108 266.363 270.628C266.503 270.788 266.489 271.032 266.329 271.173C266.256 271.237 266.165 271.269 266.074 271.269Z" fill="#84524D"/>
<path d="M216.733 271.768C216.714 271.867 216.691 271.964 216.666 272.059C216.107 274.15 213.498 274.899 211.84 273.508C209.905 271.884 207.641 270.872 205.086 270.401C201.519 270.478 202.738 265.603 207.272 264.575C207.885 264.436 208.526 264.448 209.139 264.59C211.577 265.153 213.662 266.119 215.287 267.61C216.437 268.665 217.031 270.237 216.733 271.768Z" fill="#B77250"/>
<path d="M213.384 273.799C213.278 273.799 213.172 273.754 213.095 273.669C211.017 271.319 208.393 270.151 205.075 270.098C204.862 270.095 204.693 269.919 204.696 269.707C204.699 269.496 204.871 269.327 205.081 269.327C205.084 269.327 205.086 269.327 205.088 269.327C208.634 269.384 211.443 270.637 213.673 273.157C213.814 273.317 213.799 273.561 213.64 273.702C213.566 273.767 213.475 273.799 213.384 273.799Z" fill="#84524D"/>
<path d="M238.652 250.692C238.633 250.791 238.61 250.888 238.585 250.983C238.026 253.075 235.417 253.824 233.759 252.432C231.824 250.808 229.56 249.796 227.005 249.325C223.438 249.402 224.657 244.527 229.191 243.5C229.804 243.361 230.445 243.372 231.058 243.514C233.495 244.077 235.581 245.043 237.206 246.534C238.356 247.589 238.95 249.161 238.652 250.692Z" fill="#B77250"/>
<path d="M235.303 252.723C235.197 252.723 235.091 252.679 235.014 252.593C232.935 250.243 230.312 249.075 226.994 249.022C226.781 249.019 226.612 248.843 226.615 248.63C226.618 248.42 226.79 248.251 227 248.251C227.003 248.251 227.005 248.251 227.007 248.251C230.553 248.307 233.362 249.561 235.592 252.082C235.733 252.241 235.718 252.485 235.559 252.626C235.485 252.691 235.394 252.723 235.303 252.723Z" fill="#84524D"/>
<path d="M220.854 239.263C220.765 237.357 219.387 235.754 217.512 235.397C214.683 234.858 210.638 234.935 206.424 237.751C199.044 242.684 199.648 255.592 206.32 262.21C211.145 266.996 218.198 265.772 221.463 265.205C222.949 264.947 224.577 264.585 226.269 264.115C228.469 263.504 229.923 261.607 230.108 259.505C230.222 258.218 229.552 256.969 228.43 256.327C222.824 253.117 221.199 246.705 220.854 239.263Z" fill="#D87355"/>
<path d="M217.492 240.246C215.828 238.464 211.784 239.116 209.311 240.757C205.265 243.442 204.768 249.205 205.735 253.039C206.852 257.465 210.327 260.933 214.449 262.206C220.415 264.049 226.09 261.204 226.187 258.949C226.291 256.507 220.182 256.817 218.045 251.422C216.245 246.877 219.642 242.548 217.492 240.246Z" fill="#E2A18D"/>
<path d="M214.389 243.688C215.09 244.157 215.448 244.849 215.19 245.236C214.932 245.623 214.154 245.557 213.453 245.089C212.752 244.621 212.394 243.928 212.652 243.541C212.91 243.154 213.688 243.22 214.389 243.688Z" fill="white"/>
<path d="M210.777 248.804C209.934 248.798 209.254 248.416 209.257 247.951C209.26 247.486 209.946 247.114 210.789 247.12C211.632 247.126 212.312 247.508 212.309 247.973C212.306 248.438 211.62 248.81 210.777 248.804Z" fill="white"/>
<path d="M213.645 249.728C214.423 249.404 215.199 249.489 215.378 249.918C215.557 250.347 215.072 250.958 214.294 251.283C213.516 251.607 212.74 251.522 212.561 251.093C212.382 250.664 212.868 250.053 213.645 249.728Z" fill="white"/>
<path d="M213.226 256.918C213.953 256.492 214.352 255.822 214.117 255.421C213.883 255.019 213.102 255.039 212.375 255.465C211.648 255.891 211.249 256.562 211.484 256.963C211.719 257.364 212.499 257.344 213.226 256.918Z" fill="white"/>
<path d="M217.792 257.171C218.173 256.419 218.818 255.979 219.233 256.189C219.648 256.399 219.676 257.179 219.295 257.931C218.915 258.683 218.27 259.122 217.855 258.912C217.44 258.703 217.412 257.923 217.792 257.171Z" fill="white"/>
<path d="M282.992 308.688C276.824 311.609 268.874 303.723 271.277 296.745C278.454 295.432 284.944 303.81 282.992 308.688Z" fill="#BC8271"/>
<path d="M266.037 295.878C270.108 301.356 263.93 310.694 256.616 309.703C253.925 302.921 260.872 294.918 266.037 295.878Z" fill="#BC8271"/>
<path d="M291.426 304.835C293.933 309.132 288.703 315.399 283.484 314.09C282.082 308.959 287.761 303.722 291.426 304.835Z" fill="#BC8271"/>
<path d="M246.665 308.442C247.022 316.203 254.646 317.86 260.273 312.059C260.912 311.4 260.356 310.31 259.445 310.422C254.945 310.978 252.959 313.558 249.056 307.442C248.362 306.354 246.606 307.152 246.665 308.442Z" fill="#E0AA63"/>
<path d="M267.742 305.248C264.377 310.836 268.93 315.543 275.562 314.112C276.315 313.949 276.434 312.929 275.746 312.583C272.343 310.876 269.756 311.753 269.877 305.664C269.899 304.58 268.301 304.32 267.742 305.248Z" fill="#E0AA63"/>
</svg>
