<svg width="275" height="50" viewBox="0 0 275 50" fill="none" xmlns="http://www.w3.org/2000/svg">
<path d="M163.061 20.6133C162.613 19.259 161.866 17.7474 160.505 17.1244C160.116 16.9467 159.648 17.1188 159.451 17.4391C159.288 17.2216 159.116 17.0096 158.936 16.8013C159.128 16.7226 159.302 16.5792 159.335 16.3663C159.46 15.585 158.949 15.1296 158.404 14.6426C157.843 14.1409 157.232 13.6818 156.579 13.3069C155.303 12.5747 153.892 12.0887 152.435 11.8878C149.906 11.5398 146.921 12.1637 144.903 13.8493C144.944 13.7457 145.004 13.6475 145.052 13.5457C145.244 13.3013 145.447 13.0653 145.663 12.8357C146.478 11.9684 147.779 11.2149 148.318 10.1596C148.356 10.0855 148.37 10.0133 148.395 9.94021C148.472 9.88467 148.541 9.81802 148.59 9.73471C148.915 9.45701 149.221 9.15987 149.48 8.79978C149.734 8.44617 149.316 8.00185 148.941 8.09904C148.734 8.15273 148.535 8.22401 148.342 8.30732C147.969 7.70841 147.333 7.24742 146.668 7.01415C146.594 6.95213 146.496 6.91603 146.374 6.92436H146.373C146.292 6.90492 146.213 6.88826 146.133 6.8753C145.857 6.83179 145.595 6.92251 145.48 7.19558C145.468 7.22521 145.458 7.25668 145.452 7.28907C144.947 7.63898 144.507 8.17032 144.166 8.58595C143.563 9.32001 143.052 10.1235 142.675 10.9964C142.649 11.0556 142.625 11.1158 142.6 11.176C142.53 11.1964 142.458 11.225 142.386 11.2639C142.309 11.3056 142.231 11.3472 142.153 11.3898C140.269 7.98333 137.104 3.99181 132.955 3.71874C130.671 3.56785 128.556 4.58425 126.372 5.05912C125.455 5.25907 124.475 5.36181 123.543 5.21C123.086 5.13502 122.673 4.986 122.259 4.7879C121.821 4.57777 121.444 4.29914 120.944 4.40282C120.718 4.45003 120.6 4.67126 120.581 4.88139C120.53 5.42014 120.958 5.82558 121.454 6.11254C121.515 6.30601 121.561 6.50503 121.611 6.69849C121.743 7.20761 121.919 7.69638 122.15 8.17032C122.591 9.07193 123.234 9.88097 123.945 10.5826C125.355 11.9739 127.021 13.081 128.769 14.0067C125.784 14.3751 123.715 17.5428 122.865 20.1736C121.739 23.6615 121.839 27.4346 122.597 30.9864C123.355 34.5419 124.765 37.9854 126.527 41.1577C128.2 44.1671 130.482 46.9867 133.556 48.6437C135.097 49.4749 137.225 50.3284 138.999 49.873C139.993 49.6175 140.769 48.9167 141.585 48.3382C142.115 47.9624 142.697 47.6356 143.24 47.2672C145.415 49.1945 148.938 50.2081 151.654 48.9575C154.339 47.7217 155.973 44.8132 157.563 42.4694C159.283 39.9349 160.834 37.3023 161.977 34.454C163.176 31.4631 163.738 28.1742 163.686 24.9547C163.664 23.4958 163.521 22.0046 163.061 20.6133ZM140.31 14.4807C140.439 14.6223 140.58 14.7676 140.728 14.9046C140.341 14.9472 139.954 14.9888 139.567 15.0314C139.391 15.0064 139.212 15.0092 139.034 14.9972C139.463 14.8389 139.891 14.6695 140.31 14.4807ZM154.979 14.987C154.637 14.6695 154.261 14.3899 153.864 14.1446C154.431 14.3344 154.98 14.576 155.5 14.863C155.322 14.888 155.147 14.9259 154.979 14.987ZM139.251 9.35889C138.902 9.22837 138.545 9.10526 138.191 8.94049C137.255 8.50357 136.523 7.71211 135.743 7.05766C134.919 6.36618 134.032 5.75615 133.092 5.30998C134.552 5.48123 135.875 6.16438 137.053 7.17799C137.83 7.84633 138.558 8.58595 139.251 9.35889ZM124.61 9.05156C123.925 8.37489 123.374 7.59917 123.016 6.70219C123.014 6.69664 123.012 6.69109 123.009 6.68646C123.429 6.77347 123.858 6.80495 124.288 6.81328C124.198 7.2252 124.284 7.69359 124.649 8.12589C126.638 10.4901 129.21 12.2785 132.056 13.3486C131.221 13.0718 130.408 12.7098 129.623 12.3053C127.884 11.412 126.01 10.4345 124.61 9.05156ZM124.186 22.6007C124.466 20.9298 124.955 19.2738 125.915 17.8603C126.884 16.4329 128.186 15.5794 129.771 14.9648C129.933 14.9018 130.038 14.7861 130.088 14.6556C131.68 15.3656 133.352 15.7923 135.078 15.7803C134.947 15.847 134.821 15.9192 134.712 16.0043C133.998 15.9932 133.285 15.9812 132.571 15.9691C132.351 15.9469 132.129 15.9441 131.908 15.958C131.846 15.9571 131.785 15.9562 131.723 15.9553C130.429 15.1444 128.739 15.273 127.621 16.4486C127.573 16.4986 127.534 16.5523 127.49 16.6042C126.955 17.104 126.606 17.814 126.558 18.5296C126.518 18.5666 126.478 18.6027 126.439 18.6406C124.516 20.5568 124.188 23.2811 124.435 25.86C124.264 26.62 124.143 27.3874 124.068 28.1566C123.864 26.3062 123.877 24.4428 124.186 22.6007ZM152.29 46.6396C151.104 47.4542 149.762 47.8374 148.326 47.5921C146.952 47.357 145.652 46.8099 144.35 46.3184C144.481 46.1045 144.491 45.8629 144.419 45.6473C144.654 45.3501 144.879 45.0446 145.081 44.7253C145.563 45.7389 146.552 46.4591 147.615 46.7886C149.85 47.4819 152.213 46.6007 153.844 45.0298C154.094 44.7892 154.315 44.5152 154.54 44.2458C153.901 45.1455 153.206 46.011 152.29 46.6396ZM158.039 38.5603C158.742 37.2254 159.378 35.8582 159.916 34.4466C160.238 33.6014 160.502 32.7119 160.705 31.7973C161.02 30.9993 161.271 30.1764 161.472 29.3442C161.266 30.4458 160.986 31.5335 160.64 32.5915C159.961 34.6669 159.066 36.6432 158.039 38.5603Z" fill="#A7A9AC"/>
<path d="M236.603 27.6186C235.713 28.1397 235.138 29.1311 235.129 30.1633C235.126 30.4465 235.161 30.7335 235.238 31.0066C235.404 31.5981 235.631 31.8748 236.02 32.3386C236.375 32.6913 236.794 32.9357 237.276 33.0708C237.781 33.206 238.285 33.206 238.79 33.0708C238.798 33.068 238.806 33.0653 238.815 33.0625C239.057 33.0051 239.277 32.9079 239.479 32.7792C239.568 32.7403 239.655 32.6987 239.74 32.6543C240.36 32.3266 240.874 31.6064 241.057 30.9418C241.264 30.191 241.124 29.4107 240.769 28.734C239.998 27.265 237.995 26.804 236.603 27.6186Z" fill="#386641"/>
<path d="M231.834 27.7277C231.345 27.2399 230.993 27.1121 230.363 26.8659C229.946 26.7539 229.531 26.7261 229.114 26.7816C227.983 26.8159 226.946 27.4565 226.337 28.4044C225.667 29.4467 225.689 30.8231 226.312 31.8784C226.924 32.9152 228.106 33.6816 229.337 33.6372C230.108 33.6094 230.795 33.378 231.402 32.9096C231.801 32.6014 231.989 32.4727 232.277 31.9664C232.423 31.7081 232.549 31.4072 232.648 31.1277C232.857 30.5408 232.855 29.7762 232.69 29.1764C232.536 28.62 232.241 28.1341 231.834 27.7277Z" fill="#386641"/>
<path d="M222.196 27.2205C221.675 26.9178 221.112 26.766 220.509 26.7642C219.905 26.766 219.342 26.9178 218.821 27.2205C218.726 27.2918 218.621 27.3677 218.516 27.4455C218.389 27.5343 218.254 27.6399 218.14 27.7398C218.05 27.813 217.97 27.8953 217.897 27.9861C217.836 28.0564 217.773 28.136 217.713 28.2156C217.607 28.311 217.523 28.4202 217.47 28.547C217.332 28.7655 217.238 28.9867 217.171 29.2126C217.163 29.2366 217.158 29.2607 217.151 29.2848C217.136 29.3422 217.121 29.3996 217.109 29.4579C217.1 29.4958 217.091 29.5338 217.086 29.5727C217.059 29.718 217.038 29.8661 217.023 30.017C217.007 30.1105 216.996 30.2049 216.996 30.2984C216.996 30.4447 217.015 30.5909 217.055 30.7362C217.075 31.175 217.205 31.5832 217.447 31.9618C217.618 32.184 217.79 32.4062 217.962 32.6292C219.013 33.7438 220.822 33.9298 222.121 33.1698C223.129 32.5802 223.935 31.312 223.855 30.1086C223.853 29.5051 223.701 28.9423 223.399 28.4211C223.099 27.9176 222.699 27.5177 222.196 27.2205Z" fill="#386641"/>
<path d="M214.339 28.3654C214.043 27.8118 213.466 27.2657 212.928 26.9556C211.482 26.1225 209.582 26.3613 208.409 27.5591C207.962 28.0146 207.692 28.5329 207.495 29.1291C207.386 29.4595 207.35 29.8196 207.35 30.1668C207.35 30.8333 207.53 31.5062 207.863 32.0829C208.03 32.3717 208.231 32.6541 208.477 32.8781C208.943 33.302 209.443 33.6279 210.058 33.8019C210.692 33.9815 211.328 33.9556 211.962 33.8149C212.292 33.7417 212.657 33.5733 212.981 33.3622C213.292 33.203 213.582 32.9984 213.851 32.7522C214.184 32.443 214.419 32.0764 214.557 31.6534C214.771 31.247 214.869 30.8083 214.851 30.338C214.886 29.9853 214.827 29.6123 214.722 29.2772C214.635 28.9986 214.478 28.6246 214.339 28.3654Z" fill="#386641"/>
<path d="M204.695 28.589C204.553 28.4057 204.411 28.2224 204.27 28.0391C204.025 27.6291 203.771 27.4282 203.397 27.1394C203.285 27.0209 203.158 26.9246 203.017 26.8524C202.739 26.7349 202.459 26.6173 202.181 26.4988C201.921 26.4248 201.455 26.3887 201.186 26.3618C200.553 26.3637 199.963 26.5238 199.416 26.8404C198.889 27.1523 198.469 27.5717 198.157 28.0993C197.785 28.6788 197.594 29.4693 197.611 30.1515C197.631 30.9032 197.78 31.3707 198.119 32.0325C198.213 32.2176 198.329 32.3352 198.47 32.5176C198.826 32.9795 198.952 33.1498 199.54 33.4997C200.116 33.8422 200.759 34.0246 201.43 34.031C202.098 34.0366 202.765 33.8663 203.343 33.5275C204.016 33.1331 204.237 32.7869 204.694 32.1704C204.953 31.7631 205.094 31.3234 205.115 30.8523C205.22 30.3811 205.199 29.909 205.052 29.4378C204.934 29.1537 204.814 28.8713 204.695 28.589Z" fill="#386641"/>
<path d="M194.426 27.3602C194.21 27.1454 193.954 26.9964 193.661 26.914C193.247 26.6965 192.802 26.5974 192.324 26.615C192.017 26.6567 191.709 26.6974 191.402 26.7391C191.108 26.8094 190.84 26.9261 190.595 27.0806C190.204 27.2399 189.84 27.4666 189.543 27.7823C189.083 28.2701 188.804 28.7265 188.618 29.3754C188.362 30.2696 188.541 31.2221 188.966 32.0265C189.388 32.8254 190.266 33.4141 191.119 33.6474C192.056 33.9038 193.103 33.7825 193.945 33.2956C194.79 32.8069 195.426 31.9525 195.669 31.0074C195.908 30.0789 195.76 29.168 195.319 28.334C195.102 27.9295 194.804 27.6055 194.426 27.3602Z" fill="#386641"/>
<path d="M185.9 28.2158L185.899 28.213C185.848 28.1389 185.796 28.0658 185.738 27.9964C185.708 27.9594 185.675 27.9242 185.644 27.8881C185.606 27.8455 185.573 27.8011 185.532 27.7603C185.415 27.6085 184.999 27.3123 184.833 27.2188C184.345 26.943 183.786 26.8152 183.231 26.7856C182.63 26.7532 182.041 26.9578 181.521 27.2364C181.264 27.3743 181.029 27.5604 180.833 27.7761C180.665 27.9945 180.496 28.2121 180.328 28.4305C180.269 28.5703 180.209 28.7101 180.151 28.8499C179.94 29.3506 179.996 29.159 179.926 29.683C179.891 29.9153 179.854 30.1828 179.862 30.2467C179.864 30.8549 180.018 31.4205 180.322 31.9462C180.534 32.3387 180.823 32.6535 181.19 32.8904C181.515 33.1885 181.896 33.3884 182.335 33.4931C182.932 33.6532 183.528 33.6532 184.125 33.4931C184.137 33.4912 184.149 33.4894 184.16 33.4875C184.597 33.3838 184.978 33.1839 185.302 32.8867C185.667 32.6498 185.955 32.336 186.166 31.9453C186.279 31.6778 186.392 31.4112 186.504 31.1437C186.544 30.8465 186.584 30.5494 186.624 30.2513C186.642 29.7894 186.546 29.3581 186.336 28.9582C186.252 28.6721 186.109 28.425 185.9 28.2158Z" fill="#386641"/>
<path d="M177.95 28.5686C177.938 28.5381 177.923 28.5103 177.901 28.4853C177.723 28.2539 177.544 28.0225 177.364 27.791C177.252 27.6735 177.124 27.5726 176.982 27.4874C176.863 27.3893 176.74 27.2949 176.615 27.2042C176.596 27.1884 176.575 27.1773 176.552 27.169C176.277 27.0533 176.002 26.9366 175.727 26.8209C175.448 26.7404 175.003 26.7006 174.713 26.6812C174.088 26.683 173.504 26.8413 172.964 27.1542C172.56 27.3717 172.236 27.6698 171.992 28.0465C171.685 28.3816 171.479 28.7741 171.372 29.2249C171.227 29.6859 171.207 30.146 171.31 30.607C171.331 31.0679 171.468 31.4975 171.721 31.8955C172.029 32.4166 172.444 32.8304 172.964 33.1387C173.24 33.2553 173.515 33.3719 173.792 33.4886C173.816 33.4951 173.84 33.4969 173.864 33.5034C174.232 33.6247 174.619 33.6913 174.999 33.7089C175.47 33.7265 175.908 33.6284 176.316 33.4145C176.605 33.3331 176.856 33.1868 177.069 32.9748C177.441 32.7342 177.735 32.4148 177.949 32.0168C178.064 31.7446 178.179 31.4725 178.294 31.2003C178.436 30.7458 178.457 30.2922 178.355 29.8377C178.335 29.3841 178.2 28.9611 177.95 28.5686Z" fill="#386641"/>
<path d="M168.732 27.6374C168.405 27.2847 168.016 27.0348 167.567 26.8885C167.135 26.6617 166.671 26.5581 166.172 26.5766C166.102 26.5766 166.034 26.5766 165.965 26.5766C164.983 26.5766 164.113 26.9866 163.405 27.6365C162.694 28.2891 162.387 29.2601 162.345 30.196C162.327 30.694 162.43 31.1596 162.657 31.591C162.803 32.0399 163.052 32.4278 163.406 32.7564C163.734 33.1091 164.122 33.359 164.571 33.5053C165.003 33.732 165.467 33.8357 165.966 33.8172C166.036 33.8172 166.104 33.8172 166.174 33.8172C167.155 33.8172 168.025 33.4071 168.733 32.7573C169.444 32.1047 169.751 31.1337 169.793 30.1978C169.812 29.6998 169.708 29.2342 169.481 28.8028C169.335 28.3529 169.085 27.9651 168.732 27.6374Z" fill="#386641"/>
<path d="M160.622 27.6807C160.3 27.3335 159.919 27.0882 159.477 26.9448C159.053 26.7217 158.597 26.6199 158.106 26.6384C157.143 26.6384 156.286 27.041 155.591 27.6798C154.892 28.3212 154.59 29.2756 154.549 30.1948C154.53 30.6845 154.632 31.1418 154.855 31.5657C154.999 32.0064 155.244 32.3887 155.591 32.7108C155.913 33.0579 156.295 33.3032 156.736 33.4467C157.16 33.6698 157.616 33.7716 158.107 33.7531C159.071 33.7531 159.926 33.3504 160.622 32.7108C161.321 32.0693 161.623 31.1159 161.664 30.1957C161.683 29.7061 161.581 29.2488 161.358 28.8248C161.215 28.3851 160.969 28.0037 160.622 27.6807Z" fill="#386641"/>
<path d="M145.539 30.1003C145.537 30.1106 145.536 30.1469 145.536 30.2269C145.534 30.1831 145.539 30.1422 145.539 30.1003Z" fill="#386641"/>
<path d="M153.285 28.2249C153.149 27.9074 152.94 27.6325 152.66 27.4011C152.396 27.1974 152.132 26.9938 151.869 26.7901C151.563 26.593 151.205 26.4448 150.849 26.3606C150.663 26.3152 150.474 26.2875 150.282 26.2801C150.092 26.2542 149.902 26.2282 149.712 26.2032C149.504 26.2005 149.306 26.2477 149.095 26.2764C148.453 26.3625 148.596 26.3199 148.006 26.5689C147.461 26.7994 147.168 26.9466 146.696 27.4233C146.309 27.7824 146.036 28.2073 145.877 28.6989C145.649 29.1339 145.539 29.6023 145.538 30.1003C145.55 30.0411 145.598 31.0519 145.689 31.325C145.873 31.9832 146.207 32.5543 146.688 33.0394C147.173 33.5207 147.744 33.854 148.402 34.0382C148.6 34.0696 148.665 34.078 148.973 34.1196C149.323 34.214 149.675 34.214 150.026 34.1196C150.221 34.14 150.404 34.1141 150.573 34.04C150.683 34.0141 150.785 33.9808 150.88 33.9428C151.059 33.8891 151.234 33.8234 151.403 33.7355C151.567 33.6679 151.732 33.5985 151.896 33.5272C152.478 33.1828 152.941 32.7191 153.285 32.1378C153.416 31.8295 153.545 31.5203 153.676 31.2121C153.837 30.6974 153.86 30.1818 153.745 29.6671C153.722 29.1497 153.569 28.6702 153.285 28.2249Z" fill="#386641"/>
<path d="M248.564 23.7008C246.885 23.7869 245.22 24.4885 244.053 25.6965C242.144 27.3387 241.719 30.2833 242.69 32.5836C243.704 34.9876 246.073 36.7713 248.755 36.6982C251.133 36.6343 253.538 35.2856 254.567 33.089C256.565 28.8281 253.482 23.4471 248.564 23.7008Z" fill="#386641"/>
<path d="M38.6499 27.6186C37.2577 26.804 35.2554 27.265 34.4852 28.734C34.1298 29.4116 33.99 30.192 34.1964 30.9418C34.3797 31.6064 34.8935 32.3266 35.5137 32.6543C35.5988 32.6987 35.6858 32.7413 35.7747 32.7792C35.9756 32.9079 36.1959 33.0051 36.4384 33.0625C36.4468 33.0653 36.4551 33.068 36.4634 33.0708C36.9679 33.206 37.4724 33.206 37.9769 33.0708C38.4592 32.9357 38.8785 32.6913 39.2331 32.3386C39.6218 31.8748 39.8486 31.5981 40.0153 31.0066C40.0921 30.7335 40.1272 30.4456 40.1245 30.1633C40.1161 29.1311 39.5413 28.1397 38.6499 27.6186Z" fill="#386641"/>
<path d="M46.1395 26.7816C45.7229 26.7261 45.3063 26.7539 44.8907 26.8659C44.2594 27.1121 43.9076 27.2399 43.4198 27.7277C43.0125 28.1341 42.7172 28.62 42.5636 29.1764C42.3988 29.7762 42.3969 30.5408 42.6052 31.1277C42.7043 31.4072 42.8301 31.7081 42.9764 31.9664C43.2643 32.4727 43.4522 32.6023 43.8512 32.9096C44.4575 33.378 45.1453 33.6094 45.9164 33.6372C47.1475 33.6816 48.3287 32.9143 48.9415 31.8784C49.5644 30.8231 49.5876 29.4467 48.9174 28.4044C48.3074 27.4565 47.2706 26.8159 46.1395 26.7816Z" fill="#386641"/>
<path d="M58.1674 29.5727C58.1609 29.5338 58.1517 29.4958 58.1443 29.4579C58.1313 29.3996 58.1174 29.3422 58.1017 29.2848C58.0943 29.2607 58.0896 29.2366 58.0822 29.2126C58.0147 28.9867 57.9212 28.7645 57.7832 28.547C57.7295 28.4202 57.6462 28.311 57.5398 28.2156C57.4796 28.136 57.4176 28.0573 57.3565 27.9861C57.2834 27.8953 57.2028 27.813 57.113 27.7398C56.9992 27.6399 56.864 27.5343 56.7372 27.4455C56.6326 27.3677 56.5271 27.2918 56.4318 27.2205C55.9106 26.9178 55.3478 26.766 54.7442 26.7642C54.1407 26.766 53.5779 26.9178 53.0567 27.2205C52.5541 27.5177 52.1542 27.9176 51.8571 28.4202C51.5544 28.9414 51.4026 29.5042 51.4007 30.1077C51.3211 31.312 52.1255 32.5793 53.1345 33.1689C54.4341 33.9298 56.2429 33.7438 57.2936 32.6283C57.4657 32.4062 57.637 32.184 57.8092 31.9609C58.0498 31.5823 58.1804 31.1741 58.2007 30.7353C58.2396 30.5891 58.26 30.4428 58.26 30.2975C58.26 30.204 58.2489 30.1096 58.2322 30.0161C58.2137 29.8661 58.1942 29.718 58.1674 29.5727Z" fill="#386641"/>
<path d="M66.8438 27.559C65.6701 26.3612 63.7706 26.1215 62.3247 26.9555C61.786 27.2656 61.2093 27.8118 60.9131 28.3653C60.7742 28.6245 60.6168 28.9985 60.5298 29.2799C60.4252 29.615 60.365 29.988 60.4002 30.3407C60.3826 30.8109 60.4808 31.2488 60.6946 31.6561C60.8325 32.0791 61.0676 32.4457 61.4009 32.7549C61.6693 33.002 61.96 33.2057 62.2701 33.3649C62.5941 33.5759 62.9597 33.7435 63.2893 33.8175C63.9233 33.9583 64.5593 33.9842 65.1934 33.8046C65.809 33.6306 66.3088 33.3047 66.7744 32.8808C67.0207 32.6558 67.2215 32.3735 67.3882 32.0856C67.7223 31.5089 67.9019 30.8359 67.9019 30.1695C67.9019 29.8223 67.8658 29.4622 67.7566 29.1318C67.5603 28.5329 67.29 28.0145 66.8438 27.559Z" fill="#386641"/>
<path d="M75.8367 26.8404C75.2896 26.5229 74.699 26.3637 74.0658 26.3618C73.7974 26.3896 73.3309 26.4248 73.0717 26.4988C72.793 26.6164 72.5135 26.7339 72.2348 26.8524C72.0932 26.9246 71.9673 27.0209 71.8553 27.1394C71.4823 27.4282 71.2268 27.6291 70.9824 28.0391C70.8408 28.2224 70.6991 28.4057 70.5575 28.589C70.4381 28.8713 70.3196 29.1537 70.2002 29.436C70.0521 29.9072 70.0317 30.3793 70.1373 30.8504C70.1585 31.3225 70.2992 31.7622 70.5584 32.1686C71.0148 32.7851 71.236 33.1322 71.909 33.5256C72.4875 33.8644 73.154 34.0347 73.8224 34.0292C74.4935 34.0236 75.135 33.8413 75.7126 33.4979C76.3004 33.1489 76.4263 32.9776 76.7827 32.5157C76.9234 32.3334 77.0391 32.2149 77.1335 32.0307C77.4723 31.3688 77.6223 30.9013 77.6408 30.1497C77.6584 29.4675 77.4668 28.6769 77.0956 28.0975C76.7836 27.5717 76.3634 27.1523 75.8367 26.8404Z" fill="#386641"/>
<path d="M85.7101 27.783C85.412 27.4673 85.0492 27.2405 84.6585 27.0813C84.4132 26.9267 84.1457 26.8092 83.8513 26.7397C83.544 26.6981 83.2367 26.6574 82.9294 26.6157C82.4517 26.5972 82.0065 26.6972 81.5927 26.9147C81.2992 26.9971 81.0438 27.1461 80.8272 27.3609C80.4495 27.6052 80.1514 27.9302 79.9339 28.3347C79.4933 29.1687 79.3451 30.0796 79.584 31.008C79.8274 31.9541 80.4634 32.8075 81.3085 33.2963C82.1499 33.7832 83.1978 33.9045 84.1346 33.6481C84.9871 33.4148 85.8656 32.8261 86.2877 32.0272C86.7126 31.2228 86.8922 30.2703 86.6358 29.3761C86.4497 28.7272 86.1702 28.2708 85.7101 27.783Z" fill="#386641"/>
<path d="M95.1027 28.848C95.0444 28.7082 94.9852 28.5684 94.9259 28.4287C94.7574 28.2102 94.589 27.9927 94.4205 27.7742C94.2252 27.5585 93.9901 27.3725 93.7327 27.2345C93.2116 26.9559 92.6237 26.7523 92.023 26.7837C91.4676 26.8143 90.9085 26.942 90.4206 27.2169C90.2549 27.3104 89.8384 27.6067 89.7218 27.7585C89.681 27.7992 89.6477 27.8436 89.6098 27.8862C89.5774 27.9214 89.5449 27.9566 89.5153 27.9945C89.4579 28.0649 89.4052 28.1371 89.3552 28.2111L89.3533 28.2139C89.1451 28.4231 89.0016 28.6703 88.922 28.9544C88.7118 29.3543 88.6156 29.7857 88.6331 30.2476C88.6729 30.5448 88.7128 30.8428 88.7535 31.14C88.8664 31.4075 88.9794 31.6741 89.0914 31.9416C89.3024 32.3332 89.5903 32.647 89.9559 32.883C90.2799 33.1792 90.6604 33.3801 91.0973 33.4838C91.1093 33.4856 91.1214 33.4875 91.1325 33.4893C91.7295 33.6495 92.3257 33.6495 92.9227 33.4893C93.3606 33.3847 93.7429 33.1848 94.0678 32.8867C94.4344 32.6497 94.7232 32.3341 94.9351 31.9425C95.2397 31.4177 95.3933 30.8511 95.3952 30.243C95.4026 30.1791 95.3665 29.9116 95.3314 29.6792C95.2582 29.1572 95.3147 29.3488 95.1027 28.848Z" fill="#386641"/>
<path d="M103.261 28.0473C103.016 27.6696 102.693 27.3724 102.288 27.1549C101.747 26.8411 101.164 26.6837 100.538 26.6819C100.249 26.7013 99.8034 26.7411 99.5248 26.8217C99.2499 26.9374 98.975 27.054 98.7 27.1697C98.6769 27.178 98.6565 27.1901 98.6371 27.2049C98.5112 27.2956 98.389 27.39 98.2696 27.4882C98.128 27.5733 98.0002 27.6742 97.8873 27.7918C97.7087 28.0232 97.53 28.2546 97.3504 28.486C97.3291 28.511 97.3134 28.5388 97.3014 28.5693C97.0514 28.9618 96.9163 29.3849 96.8959 29.8394C96.7941 30.2939 96.8144 30.7475 96.957 31.202C97.0718 31.4741 97.1866 31.7463 97.3014 32.0184C97.5161 32.4165 97.8095 32.7358 98.1817 32.9765C98.3946 33.1885 98.6464 33.3347 98.9352 33.4162C99.3425 33.63 99.7813 33.7281 100.252 33.7105C100.632 33.693 101.019 33.6263 101.386 33.505C101.41 33.4986 101.435 33.4967 101.459 33.4902C101.734 33.3736 102.01 33.257 102.286 33.1403C102.807 32.8321 103.221 32.4174 103.529 31.8971C103.783 31.4991 103.92 31.0696 103.94 30.6086C104.043 30.1476 104.023 29.6876 103.878 29.2266C103.774 28.7748 103.567 28.3824 103.261 28.0473Z" fill="#386641"/>
<path d="M109.288 26.5766C109.218 26.5766 109.15 26.5766 109.08 26.5766C108.582 26.5581 108.117 26.6617 107.685 26.8885C107.236 27.0348 106.849 27.2838 106.52 27.6374C106.167 27.9651 105.917 28.3539 105.771 28.8028C105.544 29.2342 105.441 29.6989 105.459 30.1978C105.501 31.1337 105.809 32.1047 106.519 32.7573C107.227 33.4071 108.098 33.8172 109.079 33.8172C109.148 33.8172 109.216 33.8172 109.286 33.8172C109.785 33.8357 110.25 33.732 110.681 33.5053C111.13 33.359 111.518 33.11 111.846 32.7564C112.199 32.4287 112.449 32.0399 112.595 31.591C112.822 31.1596 112.926 30.6949 112.907 30.196C112.865 29.2601 112.557 28.2891 111.847 27.6365C111.139 26.9866 110.268 26.5766 109.288 26.5766Z" fill="#386641"/>
<path d="M117.145 26.6393C116.656 26.6208 116.198 26.7227 115.774 26.9457C115.334 27.0892 114.952 27.3345 114.629 27.6817C114.282 28.0038 114.037 28.3852 113.893 28.8267C113.67 29.2507 113.569 29.707 113.587 30.1976C113.629 31.1178 113.931 32.0721 114.629 32.7127C115.325 33.3514 116.181 33.755 117.144 33.755C117.634 33.7735 118.091 33.6717 118.515 33.4486C118.957 33.3051 119.338 33.0598 119.66 32.7127C120.008 32.3906 120.253 32.0092 120.396 31.5676C120.619 31.1437 120.721 30.6873 120.703 30.1967C120.661 29.2766 120.359 28.3222 119.66 27.6817C118.965 27.042 118.11 26.6393 117.145 26.6393Z" fill="#386641"/>
<path d="M129.718 30.2269C129.718 30.1469 129.717 30.1106 129.715 30.1003C129.714 30.1422 129.718 30.1831 129.718 30.2269Z" fill="#386641"/>
<path d="M128.556 27.4233C128.085 26.9466 127.791 26.7994 127.246 26.5689C126.656 26.3199 126.799 26.3625 126.157 26.2764C125.947 26.2477 125.748 26.2005 125.539 26.2032C125.35 26.2282 125.16 26.2532 124.97 26.2801C124.777 26.2884 124.589 26.3152 124.403 26.3606C124.046 26.4448 123.689 26.592 123.382 26.7901C123.119 26.9938 122.855 27.1974 122.592 27.4011C122.311 27.6325 122.102 27.9074 121.966 28.2249C121.683 28.6692 121.53 29.1497 121.506 29.6653C121.39 30.18 121.414 30.6956 121.576 31.2102C121.706 31.5185 121.836 31.8267 121.966 32.1359C122.311 32.7182 122.774 33.181 123.356 33.5253C123.519 33.5966 123.683 33.666 123.849 33.7336C124.018 33.8225 124.193 33.8873 124.371 33.941C124.467 33.9789 124.568 34.0123 124.678 34.0382C124.848 34.1113 125.03 34.1381 125.226 34.1178C125.576 34.2122 125.928 34.2122 126.279 34.1178C126.587 34.0761 126.652 34.0678 126.849 34.0363C127.507 33.8521 128.078 33.5189 128.563 33.0375C129.045 32.5525 129.378 31.9813 129.562 31.3232C129.654 31.0501 129.701 30.0392 129.713 30.0985C129.713 29.6005 129.604 29.133 129.374 28.697C129.216 28.2073 128.943 27.7824 128.556 27.4233Z" fill="#386641"/>
<path d="M26.6883 23.7013C21.7702 23.4476 18.6877 28.8295 20.6843 33.0895C21.7137 35.2861 24.1195 36.6348 26.4967 36.6987C29.1784 36.7709 31.5472 34.988 32.5617 32.5841C33.5318 30.2847 33.1078 27.3392 31.1982 25.697C30.0337 24.4881 28.3675 23.7874 26.6883 23.7013Z" fill="#386641"/>
<path d="M158.143 19.7947C158.109 19.4753 158.059 19.1597 157.993 18.8477C157.484 16.241 156.23 13.8074 154.056 11.895C153.157 11.1044 152.132 10.973 151.276 11.2831C148.78 8.96242 144.596 8.51346 141.898 10.724C141.694 10.8906 141.511 11.0702 141.344 11.259C141.084 11.2933 140.826 11.3377 140.569 11.3923C139.438 10.9221 138.29 11.0628 137.069 11.1961C136.667 11.2405 136.265 11.284 135.862 11.3284C134.419 11.1257 132.914 11.3599 131.45 12.0301C131.285 12.1051 131.139 12.1977 131.007 12.3004C130.294 12.2893 129.58 12.2773 128.866 12.2652C128.646 12.243 128.425 12.2402 128.203 12.2541C128.141 12.2532 128.08 12.2523 128.018 12.2513C126.724 11.4405 125.034 11.5691 123.917 12.7447C123.868 12.7947 123.83 12.8484 123.785 12.9002C123.25 13.4001 122.901 14.1101 122.853 14.8256C122.813 14.8627 122.773 14.8988 122.734 14.9367C120.811 16.8529 120.483 19.5771 120.73 22.1561C119.33 28.3831 121.204 35.072 125.456 39.8254C126.551 41.0501 127.917 42.2858 129.361 43.081C130.032 43.4503 130.758 43.6531 131.475 43.6882C131.595 43.7549 131.721 43.8151 131.852 43.8697C134.382 45.5303 138.096 44.9444 140.338 42.4053C140.72 41.973 141.066 41.5092 141.375 41.0232C141.856 42.0359 142.846 42.757 143.908 43.0865C146.144 43.7799 148.506 42.8986 150.136 41.3278C151.541 39.9744 152.515 38.0944 153.479 36.4171C154.527 34.5935 155.461 32.7106 156.212 30.7445C156.534 29.8994 156.798 29.0098 157 28.0952C158.045 25.4469 158.49 22.5504 158.143 19.7947Z" fill="#DF191C"/>
<path d="M137.281 6.73629C136.523 5.83653 135.487 5.70324 134.489 5.23762C133.552 4.8007 132.821 4.00925 132.04 3.35479C129.973 1.61915 127.52 0.344495 124.762 1.09892C123.933 1.32571 123.414 1.83483 123.152 2.4467C123.11 2.41153 123.066 2.38006 123.024 2.34488C121.576 1.11466 119.724 2.97249 120.945 4.42395C124.541 8.69594 130.031 11.0999 135.617 10.7509C137.736 10.6186 138.611 8.31457 137.281 6.73629Z" fill="#3BB54A"/>
<path d="M143.005 4.36089C141.603 4.6173 140.394 6.22058 139.608 7.3175C138.739 8.53199 138.1 9.88441 137.625 11.2979C137.188 12.5985 139.247 13.4899 139.861 12.2403C140.418 11.1063 141.093 10.0557 141.961 9.13275C142.776 8.2654 144.077 7.5119 144.617 6.45662C145.21 5.29675 144.237 4.13503 143.005 4.36089Z" fill="#3BB54A"/>
<path d="M130.938 22.1481C131.369 20.8272 131.283 19.0878 130.567 17.8409C130.258 16.7283 129.113 15.7656 127.864 15.7794C127.415 15.7841 127 15.91 126.623 16.1192C126.241 16.196 125.865 16.3275 125.51 16.5172C122.513 18.1214 122.384 24.0013 125.898 25.1575C127.092 25.55 128.143 25.1741 128.889 24.4216C129.836 24.03 130.597 23.195 130.938 22.1481Z" fill="white"/>
<path d="M130.807 26.9662C130.194 26.8264 129.507 26.857 128.963 27.2078C128.452 27.5373 128.002 28.0279 127.863 28.638C127.834 28.8499 127.805 29.0619 127.778 29.2739C127.766 29.6034 127.834 29.9108 127.984 30.1959C128.136 30.555 128.352 30.8661 128.64 31.1095C128.789 31.3058 128.967 31.4779 129.2 31.6047C129.504 31.7714 129.821 31.8704 130.172 31.8695C130.566 31.8686 130.872 31.7436 131.162 31.5381C131.124 31.5677 131.086 31.5964 131.048 31.626C131.166 31.5427 131.256 31.477 131.336 31.4048C131.348 31.3955 131.359 31.3863 131.371 31.377C131.362 31.3844 131.352 31.3918 131.343 31.3992C131.384 31.3622 131.424 31.3206 131.464 31.2761C131.948 30.9577 132.325 30.4708 132.479 29.9108C132.644 29.3119 132.551 28.6028 132.238 28.0668C131.946 27.5697 131.377 27.0958 130.807 26.9662ZM129.792 30.605C129.798 30.6097 129.802 30.6152 129.808 30.6198C129.802 30.6152 129.797 30.6106 129.792 30.605Z" fill="white"/>
<path d="M159.985 21.2511C159.961 19.7931 159.818 18.3009 159.358 16.9106C158.91 15.5563 158.163 14.0447 156.802 13.4217C156.174 13.1347 155.334 13.7587 155.776 14.4483C156.363 15.3656 157.07 16.195 157.461 17.2272C157.863 18.2843 158.067 19.4192 158.129 20.5457C158.283 23.3616 157.811 26.2173 156.937 28.8879C156.083 31.4974 154.9 33.9532 153.523 36.3257C152.816 37.5448 152.072 38.7417 151.278 39.9072C150.516 41.0263 149.717 42.1603 148.587 42.9369C147.4 43.7515 146.059 44.1347 144.622 43.8894C143.248 43.6543 141.948 43.1072 140.646 42.6157C141.017 42.0131 140.447 41.1809 139.708 41.3707C138.139 41.7743 136.888 43.0378 135.533 43.8718C134.304 44.6281 132.68 44.0579 131.458 43.5117C128.637 42.2519 126.597 39.8544 125.034 37.2588C121.786 31.8695 119.418 25.2574 120.482 18.8962C120.762 17.2253 121.251 15.5693 122.211 14.1558C123.181 12.7284 124.482 11.8749 126.067 11.2603C126.229 11.1973 126.334 11.0816 126.384 10.9511C128.406 11.8518 130.554 12.3081 132.781 11.973C134.115 11.7722 135.383 11.3297 136.607 10.777C136.908 11.1094 137.268 11.4722 137.656 11.6592C137.821 11.7388 138.009 11.7731 138.19 11.7573C138.202 12.0138 138.224 12.2692 138.255 12.5238C138.15 12.5136 138.044 12.5025 137.94 12.4868C137.313 12.3942 136.662 12.0026 136.038 12.1461C135.68 12.2276 135.554 12.6515 135.711 12.9496C136.051 13.593 137.088 13.8012 137.752 13.941C138.521 14.103 139.323 14.1641 140.107 14.0882C140.908 14.0104 141.674 13.7864 142.41 13.4615C143.071 13.1699 144.037 12.7339 144.207 11.9647C144.3 11.5463 144.018 11.1436 143.576 11.1353C142.91 11.1233 142.351 11.6814 141.763 11.9471C141.413 12.1045 141.046 12.2211 140.672 12.3118C140.697 12.1091 140.727 11.9082 140.762 11.7101C140.804 11.7018 140.846 11.6898 140.89 11.6685C143.312 10.4994 145.709 9.67827 148.439 10.0393C149.624 10.1957 150.788 10.5965 151.831 11.1769C152.382 11.4833 152.922 11.8286 153.408 12.2313C153.876 12.6191 154.3 13.2199 154.969 13.1671C155.244 13.1449 155.582 12.9718 155.631 12.6627C155.756 11.8814 155.245 11.426 154.7 10.939C154.139 10.4373 153.528 9.97819 152.875 9.60329C151.599 8.87108 150.188 8.38511 148.731 8.18423C146.202 7.83618 143.217 8.46008 141.199 10.1457C141.422 9.59311 141.723 9.0627 142.138 8.55821C142.673 7.90838 143.301 7.32243 143.95 6.78924C144.136 6.6365 144.324 6.48932 144.509 6.34121C144.666 6.28196 144.803 6.17644 144.887 6.03111C145.213 5.7534 145.518 5.45626 145.777 5.09617C146.031 4.74256 145.613 4.29824 145.239 4.39544C145.031 4.44913 144.832 4.5204 144.639 4.60371C144.266 4.0048 143.63 3.54382 142.965 3.31055C142.891 3.2476 142.793 3.21243 142.671 3.22076H142.67C142.589 3.20132 142.51 3.18465 142.43 3.17169C142.154 3.12819 141.892 3.2189 141.777 3.49198C141.765 3.5216 141.756 3.55307 141.749 3.58547C141.244 3.93538 140.804 4.46672 140.463 4.88234C139.86 5.61641 139.349 6.41989 138.972 7.2928C138.946 7.35205 138.923 7.41222 138.898 7.47238C138.827 7.49275 138.755 7.52145 138.683 7.56032C138.606 7.60198 138.528 7.64456 138.451 7.68622C136.566 4.27973 133.401 0.288212 129.252 0.0151374C126.968 -0.135748 124.853 0.879721 122.67 1.35552C121.752 1.55546 120.772 1.65821 119.84 1.5064C119.383 1.43234 118.97 1.28238 118.556 1.08429C118.118 0.874161 117.741 0.595535 117.241 0.699211C117.015 0.74642 116.897 0.968585 116.878 1.17779C116.827 1.71653 117.255 2.12197 117.751 2.40893C117.812 2.6024 117.858 2.80142 117.908 2.99489C118.04 3.50401 118.216 3.99277 118.448 4.46672C118.888 5.36833 119.531 6.17736 120.242 6.87903C121.652 8.27032 123.319 9.37743 125.066 10.3031C122.081 10.6715 120.012 13.8392 119.162 16.47C118.036 19.9579 118.137 23.731 118.894 27.2828C119.652 30.8383 121.061 34.2818 122.824 37.4541C124.497 40.4635 126.779 43.2831 129.853 44.9401C131.394 45.7713 133.522 46.6248 135.296 46.1694C136.29 45.9139 137.066 45.2132 137.882 44.6346C138.413 44.2588 138.994 43.932 139.537 43.5636C141.712 45.4909 145.235 46.5045 147.951 45.2539C150.635 44.0181 152.27 41.1096 153.86 38.7658C155.58 36.2313 157.132 33.5987 158.274 30.7504C159.477 27.7595 160.038 24.4706 159.985 21.2511ZM138.254 9.96708C138.252 9.993 138.247 10.0198 138.244 10.0458C138.218 10.0347 138.191 10.0236 138.166 10.0134C138.195 9.99763 138.225 9.98189 138.254 9.96708ZM141.334 5.75433C141.596 5.44979 141.879 5.16653 142.175 4.8953C142.308 4.77404 142.453 4.66018 142.592 4.54077C142.736 4.6574 142.87 4.7907 142.994 4.94252C143.116 5.09155 143.201 5.25632 143.279 5.42571C143.083 5.57197 142.889 5.72286 142.698 5.87374C141.923 6.48376 141.241 7.16321 140.672 7.9704C140.142 8.72297 139.737 9.56812 139.568 10.4771C139.439 11.1649 139.463 11.8379 139.535 12.5145C139.391 12.5303 139.246 12.5405 139.1 12.5469C139.013 11.4463 139.127 10.3679 139.43 9.3293C139.502 9.28949 139.574 9.24968 139.647 9.20895C140.191 8.90626 140.213 8.3379 139.963 7.92597C139.981 7.88894 139.996 7.85284 140.014 7.81581C140.371 7.07897 140.799 6.37731 141.334 5.75433ZM119.313 2.99951C119.311 2.99396 119.309 2.98841 119.307 2.98378C120.009 3.13004 120.745 3.15133 121.451 3.09394C123.588 2.92176 125.537 1.99146 127.637 1.64433C129.809 1.28516 131.718 2.07013 133.351 3.47531C134.804 4.72683 136.099 6.21717 137.287 7.73898C135.407 6.87903 133.398 6.32732 131.395 5.7895C130.077 5.43497 128.757 5.08322 127.456 4.66481C126.769 4.44357 126.088 4.20382 125.423 3.92612C124.783 3.65952 124.19 3.33276 123.493 3.26334C122.939 3.20779 122.771 3.92519 123.074 4.27324C123.884 5.2054 125.498 5.5803 126.634 5.94132C127.972 6.3662 129.338 6.68834 130.703 7.01233C132.677 7.47979 134.664 7.96115 136.566 8.67207C135.204 9.33855 133.787 9.89951 132.29 10.0995C130.033 10.4012 127.896 9.62088 125.919 8.60449C124.181 7.71121 122.308 6.73277 120.907 5.34981C120.222 4.67221 119.671 3.89649 119.313 2.99951Z" fill="#386641"/>
<path d="M147.642 41.1689C147.269 40.8856 146.818 40.8653 146.369 40.7773C145.853 40.6764 145.336 40.5829 144.827 40.4515C143.87 40.2043 142.871 39.9627 141.954 39.5952C141.567 39.4397 141.398 40.0136 141.689 40.2228C142.614 40.8893 143.492 41.4345 144.583 41.7891C145.473 42.0788 146.76 42.5083 147.642 42.0585C148.022 41.865 147.924 41.3836 147.642 41.1689Z" fill="#386641"/>
<path d="M149.103 38.3668C148.441 38.0086 147.605 38.2696 146.881 38.2817C146.493 38.2881 146.106 38.2668 145.722 38.215C145.312 38.1595 144.99 38.0141 144.596 38.1743C144.397 38.2548 144.255 38.4779 144.387 38.688C144.809 39.3527 145.911 39.4341 146.632 39.5322C147.425 39.6405 148.611 39.7942 149.2 39.1259C149.399 38.9009 149.392 38.5233 149.103 38.3668Z" fill="#386641"/>
<path d="M150.516 36.5688C150.858 36.3855 150.887 35.7986 150.516 35.6246C149.956 35.3617 149.376 35.4256 148.77 35.4089C148.158 35.3932 147.532 35.2506 146.93 35.3589C146.475 35.4413 146.441 36.1004 146.805 36.3124C147.344 36.6252 148.037 36.6539 148.648 36.7234C149.284 36.7956 149.935 36.8789 150.516 36.5688Z" fill="#386641"/>
<path d="M153.257 33.5085C153.383 33.2771 153.336 32.8966 153.065 32.7772C152.498 32.5282 152.049 32.7272 151.467 32.8504C150.831 32.9846 150.192 33.0031 149.546 32.9596C148.695 32.9013 148.743 34.1509 149.546 34.2565C150.254 34.35 150.951 34.3527 151.658 34.2583C152.264 34.1778 152.938 34.0917 153.257 33.5085Z" fill="#386641"/>
<path d="M154.414 30.1755C154.819 29.5581 154.152 28.9527 153.548 29.049C153.152 29.1119 152.798 29.3628 152.43 29.5164C152.105 29.6516 151.749 29.7525 151.4 29.7969C150.971 29.8515 150.598 30.1255 150.598 30.5985C150.598 31.0151 150.965 31.4224 151.4 31.4002C152.431 31.3465 153.806 31.1049 154.414 30.1755Z" fill="#386641"/>
<path d="M154.962 26.1364C154.728 25.5828 154.102 25.7753 153.685 25.9716C153.187 26.2058 152.62 26.2743 152.139 26.5196C151.63 26.7788 151.736 27.6452 152.302 27.7637C153.04 27.9174 155.441 27.2685 154.962 26.1364Z" fill="#386641"/>
<path d="M154.942 21.9264C154.608 22.0495 154.293 22.181 153.984 22.3605C153.7 22.5253 153.384 22.6586 153.118 22.8484C152.822 23.0594 152.664 23.4093 152.819 23.762C152.963 24.0888 153.325 24.2887 153.682 24.1851C154.371 23.987 155.087 23.5362 155.579 23.0215C156.002 22.579 155.586 21.6904 154.942 21.9264Z" fill="#386641"/>
<path d="M246.8 25.2221C246.823 25.0046 246.858 24.7889 246.903 24.576C247.25 22.7987 248.106 21.138 249.589 19.8337C250.203 19.2941 250.902 19.2052 251.485 19.4163C253.187 17.8333 256.041 17.527 257.882 19.0349C258.02 19.1487 258.145 19.2709 258.259 19.3996C258.437 19.4227 258.613 19.4533 258.788 19.4903C259.559 19.1691 260.341 19.2654 261.174 19.3561C261.448 19.3866 261.723 19.4163 261.997 19.4459C262.981 19.308 264.009 19.4672 265.006 19.9245C265.118 19.9763 265.218 20.0383 265.308 20.1087C265.795 20.1003 266.281 20.0929 266.768 20.0846C266.919 20.0698 267.07 20.0679 267.22 20.0772C267.261 20.0763 267.304 20.0763 267.346 20.0753C268.228 19.5227 269.381 19.6097 270.143 20.4114C270.175 20.4456 270.203 20.4817 270.233 20.5178C270.598 20.8585 270.835 21.3426 270.869 21.8313C270.896 21.8563 270.923 21.8813 270.949 21.9072C272.262 23.2143 272.485 25.0721 272.317 26.8309C273.272 31.0779 271.994 35.6406 269.093 38.8823C268.346 39.7173 267.415 40.5606 266.429 41.103C265.972 41.3548 265.477 41.4927 264.988 41.5168C264.906 41.5621 264.82 41.6038 264.731 41.6399C263.005 42.772 260.473 42.373 258.943 40.6411C258.682 40.3458 258.447 40.0301 258.236 39.6978C257.908 40.3893 257.233 40.8808 256.508 41.1058C254.983 41.5788 253.372 40.978 252.26 39.9061C251.303 38.9832 250.637 37.7002 249.98 36.557C249.265 35.3129 248.629 34.029 248.117 32.6877C247.897 32.111 247.717 31.5047 247.579 30.8808C246.868 29.0766 246.564 27.1012 246.8 25.2221Z" fill="#DF191C"/>
<path d="M261.03 16.3152C261.546 15.7015 262.253 15.6108 262.934 15.2933C263.572 14.9952 264.071 14.4555 264.604 14.0094C266.013 12.8254 267.686 11.9562 269.568 12.4709C270.134 12.6255 270.487 12.9726 270.666 13.3901C270.694 13.366 270.724 13.3447 270.753 13.3207C271.741 12.482 273.004 13.7483 272.171 14.7388C269.719 17.6519 265.974 19.2922 262.163 19.0543C260.719 18.9627 260.122 17.3918 261.03 16.3152Z" fill="#3BB54A"/>
<path d="M257.126 14.6953C258.082 14.8702 258.907 15.9635 259.443 16.7123C260.036 17.5408 260.471 18.4628 260.795 19.4273C261.093 20.3141 259.689 20.9223 259.271 20.0707C258.89 19.2968 258.43 18.5803 257.838 17.9509C257.282 17.3594 256.395 16.8456 256.026 16.1255C255.622 15.334 256.286 14.5416 257.126 14.6953Z" fill="#3BB54A"/>
<path d="M265.356 26.8272C265.063 25.9265 265.12 24.7398 265.609 23.8891C265.82 23.1301 266.6 22.4738 267.453 22.483C267.759 22.4867 268.041 22.5719 268.3 22.7154C268.56 22.7681 268.816 22.857 269.059 22.9866C271.104 24.0807 271.191 28.0917 268.794 28.8794C267.979 29.1479 267.262 28.8905 266.754 28.3777C266.108 28.1102 265.588 27.5409 265.356 26.8272Z" fill="white"/>
<path d="M264.47 30.8635C264.256 31.2291 264.194 31.7132 264.306 32.1205C264.411 32.5028 264.668 32.8352 264.998 33.0518C265.025 33.0823 265.053 33.1101 265.08 33.136C265.074 33.1305 265.067 33.1258 265.061 33.1212C265.069 33.1277 265.077 33.1342 265.085 33.1406C265.141 33.1897 265.201 33.2351 265.281 33.2915C265.255 33.2712 265.229 33.2517 265.203 33.2314C265.402 33.3711 265.611 33.4563 265.878 33.4572C266.118 33.4581 266.334 33.3896 266.542 33.2767C266.7 33.1897 266.822 33.0721 266.923 32.9388C267.12 32.7731 267.268 32.5612 267.37 32.3159C267.472 32.1215 267.519 31.9113 267.511 31.6873C267.492 31.5429 267.472 31.3985 267.453 31.2532C267.358 30.8366 267.051 30.5025 266.703 30.2775C266.332 30.0387 265.863 30.0174 265.446 30.1127C265.056 30.2016 264.668 30.5247 264.47 30.8635ZM266.127 32.6056C266.131 32.6019 266.135 32.5991 266.137 32.5954C266.134 32.5991 266.131 32.6019 266.127 32.6056Z" fill="white"/>
<path d="M246.709 32.6942C247.489 34.6362 248.547 36.433 249.72 38.1612C250.805 39.7598 251.919 41.7436 253.75 42.5869C255.602 43.4394 258.006 42.7479 259.488 41.4335C259.86 41.6843 260.256 41.9074 260.618 42.1638C261.175 42.5582 261.704 43.0367 262.382 43.2108C263.592 43.5209 265.043 42.9386 266.094 42.3721C268.191 41.2419 269.747 39.3192 270.888 37.2661C272.091 35.1028 273.052 32.7543 273.569 30.3291C274.085 27.9066 274.155 25.3332 273.386 22.9542C272.806 21.1602 271.395 18.9988 269.359 18.7479C270.551 18.1166 271.687 17.3613 272.649 16.4124C273.134 15.9339 273.573 15.3822 273.873 14.7675C274.031 14.4445 274.151 14.1112 274.241 13.7641C274.275 13.6326 274.307 13.4966 274.347 13.3642C274.686 13.1689 274.978 12.8921 274.944 12.5246C274.931 12.382 274.85 12.2302 274.695 12.1978C274.354 12.1266 274.097 12.3172 273.798 12.4607C273.516 12.5959 273.234 12.6977 272.923 12.7486C272.287 12.8523 271.619 12.7819 270.993 12.6459C269.503 12.3219 268.061 11.6295 266.503 11.7322C263.674 11.9192 261.516 14.6407 260.23 16.9641C260.177 16.9354 260.124 16.9068 260.072 16.8781C260.022 16.8512 259.973 16.8318 259.924 16.8179C259.908 16.7772 259.892 16.7364 259.874 16.6957C259.616 16.1005 259.268 15.5525 258.857 15.0517C258.625 14.7684 258.325 14.4056 257.981 14.1677C257.976 14.1455 257.969 14.1242 257.961 14.1038C257.882 13.9177 257.704 13.8557 257.516 13.8853C257.461 13.8937 257.407 13.9057 257.352 13.9187C257.269 13.9122 257.201 13.9372 257.15 13.9798C256.697 14.139 256.263 14.4528 256.008 14.8619C255.876 14.8045 255.74 14.7564 255.599 14.7194C255.343 14.6527 255.058 14.9563 255.231 15.197C255.408 15.4433 255.616 15.646 255.839 15.8348C255.896 15.9339 255.989 16.0061 256.096 16.0468C256.222 16.1477 256.349 16.2477 256.477 16.3523C256.92 16.7161 257.348 17.116 257.712 17.5584C257.995 17.9028 258.201 18.2647 258.353 18.6415C256.976 17.4918 254.941 17.066 253.215 17.3039C252.222 17.4409 251.259 17.7723 250.388 18.2721C249.943 18.5276 249.526 18.8414 249.144 19.183C248.772 19.5153 248.424 19.8263 248.509 20.3586C248.542 20.5687 248.773 20.6872 248.961 20.7029C249.417 20.739 249.707 20.329 250.026 20.0652C250.358 19.7912 250.725 19.5551 251.101 19.3459C251.813 18.9497 252.606 18.6766 253.415 18.5702C255.278 18.324 256.912 18.884 258.564 19.6819C258.593 19.6967 258.622 19.7051 258.651 19.7106C258.675 19.8458 258.695 19.9828 258.712 20.1207C258.457 20.0587 258.207 19.98 257.969 19.8717C257.567 19.6903 257.185 19.3098 256.732 19.3181C256.43 19.3237 256.237 19.5986 256.301 19.8837C256.417 20.4077 257.076 20.7057 257.527 20.9047C258.029 21.126 258.551 21.2787 259.098 21.3324C259.632 21.3842 260.179 21.3426 260.704 21.2324C261.156 21.1371 261.864 20.9945 262.095 20.5567C262.203 20.353 262.116 20.0642 261.872 20.0087C261.446 19.9115 261.002 20.1781 260.575 20.241C260.504 20.2512 260.433 20.2595 260.36 20.266C260.382 20.0929 260.397 19.918 260.406 19.7439C260.529 19.7541 260.658 19.731 260.77 19.6764C261.034 19.5486 261.28 19.3015 261.485 19.0747C262.32 19.4514 263.185 19.7532 264.095 19.8902C265.614 20.1188 267.078 19.8078 268.457 19.1932C268.492 19.282 268.564 19.3616 268.674 19.4042C269.755 19.8236 270.643 20.4058 271.304 21.3787C271.958 22.3423 272.292 23.4726 272.483 24.6121C273.21 28.9507 271.594 33.4606 269.378 37.1365C268.312 38.9064 266.921 40.542 264.997 41.4011C264.164 41.7732 263.056 42.162 262.218 41.6464C261.294 41.0771 260.442 40.2153 259.371 39.9404C258.866 39.8108 258.478 40.3782 258.73 40.7892C257.843 41.1243 256.956 41.4973 256.019 41.6575C255.039 41.825 254.124 41.564 253.315 41.0077C252.544 40.4782 251.999 39.7043 251.48 38.9416C250.938 38.1473 250.431 37.3309 249.948 36.4987C249.01 34.8806 248.203 33.2051 247.62 31.426C247.024 29.6043 246.702 27.6566 246.808 25.7359C246.85 24.9675 246.988 24.1937 247.263 23.4726C247.531 22.7681 248.012 22.2035 248.413 21.5777C248.714 21.1075 248.141 20.6817 247.712 20.877C246.784 21.3019 246.274 22.3331 245.969 23.2569C245.655 24.2057 245.557 25.223 245.541 26.2172C245.508 28.4111 245.89 30.654 246.709 32.6942ZM260.426 18.5498C260.409 18.5572 260.391 18.5646 260.373 18.572C260.372 18.5535 260.369 18.5359 260.366 18.5183C260.385 18.5295 260.406 18.5396 260.426 18.5498ZM259.165 17.0512C259.177 17.0761 259.189 17.1011 259.201 17.1261C259.03 17.4066 259.045 17.7945 259.416 18.0009C259.465 18.0277 259.514 18.0555 259.563 18.0824C259.77 18.7914 259.848 19.5264 259.788 20.2771C259.689 20.2734 259.59 20.266 259.491 20.2549C259.541 19.793 259.557 19.3339 259.469 18.8646C259.353 18.2453 259.077 17.6686 258.716 17.1548C258.328 16.6041 257.862 16.1412 257.334 15.7247C257.204 15.6219 257.072 15.5182 256.938 15.4192C256.991 15.3044 257.049 15.1915 257.133 15.0896C257.217 14.986 257.309 14.8953 257.407 14.8156C257.501 14.8971 257.6 14.9749 257.691 15.0572C257.893 15.2424 258.086 15.4349 258.265 15.6432C258.629 16.0699 258.922 16.5485 259.165 17.0512ZM272.197 15.3692C271.243 16.3125 269.964 16.979 268.779 17.589C267.43 18.2823 265.972 18.8146 264.432 18.6091C263.411 18.473 262.445 18.0898 261.517 17.6353C262.814 17.1502 264.169 16.8225 265.516 16.5032C266.446 16.2828 267.378 16.0625 268.29 15.7728C269.065 15.5266 270.166 15.2711 270.719 14.6351C270.925 14.3982 270.811 13.9085 270.434 13.9464C269.958 13.9936 269.553 14.2167 269.117 14.3991C268.664 14.5889 268.198 14.7527 267.731 14.9036C266.844 15.1887 265.944 15.4294 265.044 15.671C263.678 16.0385 262.308 16.4143 261.026 17.0012C261.836 15.9635 262.719 14.9462 263.71 14.0927C264.824 13.1337 266.126 12.5987 267.608 12.844C269.04 13.0809 270.369 13.715 271.826 13.8326C272.307 13.8715 272.81 13.8566 273.288 13.7576C273.287 13.7613 273.286 13.765 273.284 13.7687C273.04 14.3787 272.665 14.9073 272.197 15.3692Z" fill="#386641"/>
<path d="M253.963 39.7999C254.217 39.6065 254.524 39.5926 254.831 39.5333C255.183 39.4648 255.535 39.4001 255.882 39.3112C256.535 39.1427 257.216 38.9779 257.842 38.7271C258.106 38.6216 258.222 39.0122 258.023 39.1557C257.391 39.6102 256.793 39.9823 256.048 40.2239C255.441 40.4211 254.564 40.7145 253.963 40.4081C253.703 40.2748 253.77 39.9471 253.963 39.7999Z" fill="#386641"/>
<path d="M252.967 37.8895C253.419 37.6451 253.988 37.8238 254.482 37.8312C254.747 37.8358 255.011 37.821 255.273 37.7858C255.552 37.7479 255.772 37.6488 256.04 37.758C256.175 37.8136 256.274 37.9654 256.183 38.1089C255.896 38.5624 255.143 38.618 254.652 38.6846C254.111 38.7587 253.302 38.8633 252.9 38.4079C252.765 38.2533 252.77 37.9959 252.967 37.8895Z" fill="#386641"/>
<path d="M252.002 36.6629C251.769 36.5379 251.749 36.1371 252.002 36.0186C252.384 35.8399 252.78 35.8825 253.193 35.8714C253.61 35.8603 254.037 35.7631 254.448 35.8372C254.758 35.8927 254.781 36.3426 254.533 36.487C254.166 36.7008 253.693 36.7203 253.276 36.7675C252.843 36.8175 252.398 36.8749 252.002 36.6629Z" fill="#386641"/>
<path d="M250.133 34.5765C250.047 34.4191 250.08 34.159 250.264 34.0775C250.651 33.9081 250.957 34.0433 251.353 34.1275C251.787 34.2192 252.223 34.2321 252.664 34.2016C253.244 34.1618 253.211 35.0134 252.664 35.0865C252.181 35.1504 251.706 35.1522 251.223 35.0874C250.81 35.0319 250.35 34.9736 250.133 34.5765Z" fill="#386641"/>
<path d="M249.344 32.3016C249.068 31.8804 249.523 31.4676 249.934 31.5333C250.205 31.5759 250.445 31.7471 250.696 31.8517C250.918 31.9443 251.161 32.0128 251.399 32.0433C251.691 32.0804 251.945 32.2674 251.945 32.5895C251.945 32.8737 251.695 33.1514 251.399 33.1356C250.696 33.1005 249.759 32.9357 249.344 32.3016Z" fill="#386641"/>
<path d="M248.97 29.5484C249.13 29.1708 249.556 29.3022 249.841 29.4355C250.181 29.5947 250.568 29.6419 250.896 29.8095C251.243 29.9863 251.17 30.5778 250.785 30.6574C250.281 30.7629 248.644 30.3204 248.97 29.5484Z" fill="#386641"/>
<path d="M248.984 26.6767C249.211 26.76 249.426 26.8507 249.637 26.9729C249.831 27.0849 250.046 27.1766 250.228 27.3052C250.43 27.4496 250.538 27.6875 250.431 27.9282C250.333 28.1513 250.087 28.2874 249.843 28.217C249.372 28.0819 248.884 27.7745 248.549 27.4237C248.261 27.121 248.545 26.5147 248.984 26.6767Z" fill="#386641"/>
<path d="M28.1507 25.2223C28.1276 25.0048 28.0933 24.7891 28.048 24.5762C27.7009 22.7989 26.8455 21.1383 25.3626 19.834C24.7489 19.2943 24.05 19.2054 23.4668 19.4165C21.7645 17.8336 18.9106 17.5272 17.0704 19.0351C16.9315 19.149 16.8066 19.2712 16.6927 19.3998C16.515 19.423 16.3391 19.4535 16.1641 19.4906C15.393 19.1693 14.6108 19.2656 13.7777 19.3563C13.5028 19.3869 13.2288 19.4165 12.9548 19.4461C11.9708 19.3082 10.9433 19.4674 9.94545 19.9247C9.83344 19.9765 9.73345 20.0386 9.64366 20.1089C9.15676 20.1006 8.66985 20.0932 8.18387 20.0848C8.03299 20.07 7.88213 20.0682 7.73217 20.0774C7.69051 20.0765 7.64791 20.0765 7.60626 20.0756C6.72409 19.523 5.57069 19.61 4.80886 20.4116C4.77646 20.4459 4.74961 20.482 4.71999 20.5181C4.35527 20.8587 4.11739 21.3428 4.08407 21.8316C4.05722 21.8566 4.02945 21.8816 4.00353 21.9075C2.69092 23.2145 2.46876 25.0724 2.63631 26.8312C1.68101 31.0782 2.96029 35.6408 5.85951 38.8825C6.60653 39.7175 7.53776 40.5608 8.5236 41.1032C8.98089 41.355 9.47613 41.493 9.96489 41.517C10.0473 41.5624 10.1333 41.604 10.2222 41.6401C11.9477 42.7722 14.4803 42.3733 16.0096 40.6413C16.2706 40.346 16.5057 40.0304 16.7168 39.6981C17.0454 40.3896 17.7202 40.8811 18.445 41.106C19.9696 41.579 21.5812 40.9783 22.6929 39.9063C23.6501 38.9834 24.3157 37.7005 24.9729 36.5573C25.6875 35.3131 26.3244 34.0292 26.8363 32.6879C27.0566 32.1112 27.2362 31.5049 27.3741 30.881C28.0841 29.0769 28.3868 27.1015 28.1507 25.2223Z" fill="#DF191C"/>
<path d="M13.9211 16.315C13.4036 15.7012 12.6973 15.6105 12.017 15.293C11.3783 14.995 10.8793 14.4553 10.347 14.0091C8.93724 12.8252 7.26453 11.956 5.38263 12.4706C4.81704 12.6252 4.46343 12.9724 4.28478 13.3898C4.25608 13.3658 4.22646 13.3445 4.19777 13.3204C3.20914 12.4817 1.94654 13.7481 2.77965 14.7385C5.23176 17.6517 8.97613 19.2919 12.7871 19.054C14.2321 18.9624 14.8282 17.3915 13.9211 16.315Z" fill="#3BB54A"/>
<path d="M17.8256 14.6948C16.8693 14.8698 16.0445 15.963 15.5086 16.7118C14.9152 17.5403 14.4801 18.4623 14.1562 19.4269C13.8581 20.3137 15.2623 20.9218 15.6807 20.0702C16.0612 19.2963 16.5213 18.5799 17.1128 17.9504C17.6691 17.3589 18.5559 16.8451 18.9243 16.125C19.3288 15.3335 18.6661 14.5411 17.8256 14.6948Z" fill="#3BB54A"/>
<path d="M9.59469 26.8272C9.88813 25.9265 9.8298 24.7398 9.34197 23.8891C9.13092 23.1301 8.35057 22.4738 7.49802 22.483C7.19162 22.4867 6.90928 22.5719 6.65102 22.7154C6.3909 22.7681 6.13451 22.857 5.89198 22.9866C3.84716 24.0807 3.76013 28.0917 6.15671 28.8794C6.9713 29.1479 7.68779 28.8905 8.19691 28.3777C8.84396 28.1102 9.36234 27.5409 9.59469 26.8272Z" fill="white"/>
<path d="M9.50576 30.113C9.08828 30.0176 8.61896 30.038 8.24776 30.2777C7.89971 30.5027 7.59238 30.8369 7.49796 31.2534C7.47853 31.3978 7.4591 31.5431 7.43966 31.6876C7.43133 31.9125 7.47854 32.1217 7.58037 32.3161C7.68404 32.5614 7.8312 32.7734 8.02744 32.9391C8.12834 33.0733 8.25055 33.1899 8.40884 33.2769C8.61619 33.3899 8.83281 33.4584 9.07256 33.4574C9.341 33.4565 9.55018 33.3714 9.74735 33.2316C9.72143 33.2519 9.69553 33.2714 9.66961 33.2917C9.75014 33.2353 9.81032 33.1899 9.86586 33.1409C9.87419 33.1344 9.8816 33.1288 9.88993 33.1214C9.88345 33.126 9.87697 33.1316 9.87049 33.1362C9.89919 33.1103 9.92602 33.0825 9.95287 33.052C10.2833 32.8354 10.5397 32.5031 10.6453 32.1208C10.7573 31.7125 10.6943 31.2284 10.4805 30.8637C10.2824 30.524 9.89455 30.2009 9.50576 30.113Z" fill="white"/>
<path d="M29.4068 26.2155C29.3902 25.2213 29.292 24.2031 28.9792 23.2552C28.6737 22.3314 28.1637 21.3002 27.2361 20.8753C26.8085 20.679 26.2346 21.1058 26.5354 21.576C26.9362 22.2018 27.4176 22.7674 27.6851 23.4709C27.9591 24.192 28.0979 24.9658 28.1405 25.7341C28.2461 27.6549 27.9239 29.6025 27.3278 31.4243C26.7455 33.2044 25.9383 34.8789 24.9997 36.497C24.5174 37.3292 24.0092 38.1447 23.4686 38.9398C22.9493 39.7026 22.4041 40.4765 21.633 41.006C20.8231 41.5614 19.9085 41.8233 18.9282 41.6558C17.9914 41.4956 17.1046 41.1217 16.2159 40.7875C16.4687 40.3765 16.0799 39.8091 15.5754 39.9387C14.5053 40.2136 13.6527 41.0754 12.728 41.6447C11.8903 42.1603 10.7822 41.7715 9.94912 41.3994C8.02557 40.5403 6.63427 38.9047 5.5679 37.1348C3.35368 33.4589 1.73744 28.949 2.46317 24.6104C2.65386 23.4709 2.98802 22.3406 3.64247 21.377C4.30341 20.4032 5.19113 19.8218 6.27232 19.4025C6.38248 19.3599 6.45469 19.2803 6.48894 19.1915C7.8682 19.8061 9.33263 20.1171 10.8517 19.8885C11.7616 19.7515 12.6262 19.4497 13.4611 19.073C13.6666 19.2998 13.9119 19.5469 14.1767 19.6747C14.2896 19.7293 14.4174 19.7524 14.5405 19.7422C14.5488 19.9172 14.5636 20.0912 14.5858 20.2643C14.5136 20.2578 14.4424 20.2495 14.3711 20.2393C13.9444 20.1764 13.5 19.9098 13.0742 20.007C12.8298 20.0625 12.7438 20.3513 12.8511 20.555C13.0825 20.9938 13.7898 21.1354 14.2424 21.2307C14.7673 21.3409 15.3143 21.3825 15.8484 21.3307C16.3955 21.277 16.9176 21.1252 17.4193 20.903C17.8701 20.704 18.5292 20.4069 18.6449 19.882C18.7079 19.5969 18.5153 19.322 18.2145 19.3164C17.7609 19.3081 17.3795 19.6886 16.9778 19.87C16.739 19.9774 16.489 20.057 16.2345 20.119C16.2521 19.9811 16.2715 19.8441 16.2956 19.7089C16.3242 19.7034 16.3529 19.695 16.3826 19.6802C18.0349 18.8832 19.6687 18.3222 21.5312 18.5685C22.3402 18.6759 23.1335 18.948 23.8454 19.3442C24.2212 19.5534 24.5887 19.7885 24.9201 20.0635C25.2395 20.3282 25.5292 20.7383 25.9846 20.7012C26.1725 20.6864 26.403 20.5679 26.4364 20.3569C26.5215 19.8246 26.1725 19.5136 25.8013 19.1813C25.419 18.8397 25.0016 18.5259 24.5572 18.2704C23.6871 17.7705 22.7244 17.4392 21.7302 17.3022C20.0057 17.0643 17.9692 17.4901 16.5927 18.6398C16.7454 18.263 16.95 17.9011 17.2333 17.5567C17.5971 17.1133 18.0257 16.7134 18.4681 16.3506C18.5949 16.246 18.7236 16.146 18.8495 16.0451C18.9559 16.0044 19.0495 15.9331 19.1068 15.8331C19.329 15.6433 19.5373 15.4415 19.7141 15.1953C19.8872 14.9537 19.6021 14.651 19.3466 14.7177C19.205 14.7547 19.0698 14.8028 18.9374 14.8602C18.6829 14.452 18.2497 14.1373 17.7961 13.978C17.7461 13.9355 17.6785 13.9105 17.5952 13.917H17.5943C17.5397 13.904 17.4851 13.892 17.4304 13.8836C17.2425 13.854 17.0639 13.916 16.9852 14.1021C16.9768 14.1225 16.9704 14.1437 16.9657 14.166C16.6214 14.4048 16.3215 14.7677 16.0891 15.05C15.6781 15.5508 15.3301 16.0988 15.0718 16.694C15.0542 16.7347 15.0385 16.7754 15.0218 16.8162C14.9737 16.8301 14.9246 16.8495 14.8746 16.8763C14.8219 16.905 14.7691 16.9337 14.7164 16.9624C13.4306 14.639 11.2719 11.9166 8.44304 11.7305C6.88605 11.6278 5.44294 12.3202 3.95353 12.6442C3.32777 12.7802 2.65941 12.8506 2.02347 12.7469C1.71244 12.696 1.43013 12.5942 1.1478 12.459C0.848802 12.3155 0.592395 12.1258 0.250821 12.1961C0.0962328 12.2285 0.015694 12.3794 0.00273454 12.5229C-0.0315155 12.8904 0.260982 13.1672 0.598854 13.3625C0.639583 13.4948 0.672001 13.63 0.705326 13.7624C0.795116 14.1095 0.915435 14.4437 1.07373 14.7658C1.37457 15.3805 1.81241 15.9322 2.29839 16.4107C3.26017 17.3596 4.39692 18.1149 5.58826 18.7462C3.5527 18.9971 2.14104 21.1576 1.56157 22.9525C0.793254 25.3315 0.861755 27.9049 1.37828 30.3274C1.89574 32.7526 2.85658 35.1011 4.05904 37.2644C5.2004 39.3166 6.75647 41.2402 8.85313 42.3704C9.9047 42.9369 11.3561 43.5201 12.5651 43.2091C13.2427 43.035 13.7722 42.5565 14.3294 42.1621C14.6914 41.9057 15.0876 41.6826 15.4587 41.4318C16.9417 42.7462 19.3447 43.4377 21.197 42.5852C23.028 41.7428 24.1425 39.7581 25.2274 38.1595C26.4003 36.4313 27.4583 34.6355 28.2377 32.6925C29.0606 30.6541 29.4439 28.4112 29.4068 26.2155ZM14.5849 18.5185C14.5831 18.537 14.5803 18.5546 14.5775 18.5722C14.5599 18.5648 14.5414 18.5564 14.5247 18.55C14.5451 18.5398 14.5655 18.5296 14.5849 18.5185ZM16.6862 15.6452C16.8648 15.4369 17.0583 15.2444 17.2601 15.0592C17.3499 14.9769 17.4489 14.8991 17.5443 14.8176C17.6433 14.8973 17.7341 14.988 17.8183 15.0916C17.9016 15.1935 17.9599 15.3055 18.0127 15.4212C17.8785 15.5202 17.747 15.6239 17.6165 15.7267C17.0879 16.1432 16.6232 16.606 16.2354 17.1568C15.8734 17.6697 15.5976 18.2463 15.4819 18.8666C15.3939 19.3359 15.4106 19.795 15.4597 20.2569C15.3616 20.2671 15.2625 20.2745 15.1635 20.2791C15.1042 19.5284 15.182 18.7934 15.3884 18.0844C15.4375 18.0575 15.4865 18.0297 15.5356 18.0029C15.9068 17.7965 15.9216 17.4086 15.7513 17.1281C15.7633 17.1031 15.7744 17.0781 15.7864 17.0532C16.029 16.5487 16.3215 16.0701 16.6862 15.6452ZM1.66617 13.767C1.66432 13.7633 1.66339 13.7596 1.66154 13.7559C2.14011 13.8549 2.64274 13.8697 3.1241 13.8309C4.58111 13.7133 5.91131 13.0792 7.34241 12.8422C8.82442 12.5969 10.1259 13.1329 11.2395 14.091C12.2309 14.9445 13.114 15.9618 13.924 16.9995C12.6419 16.4135 11.2719 16.0368 9.90562 15.6693C9.00679 15.4277 8.1061 15.187 7.2193 14.9019C6.75091 14.751 6.28622 14.5871 5.83172 14.3974C5.39572 14.215 4.99121 13.9929 4.51541 13.9447C4.13773 13.9068 4.02386 14.3965 4.23029 14.6334C4.78292 15.2694 5.88261 15.5249 6.65926 15.7711C7.57105 16.0608 8.50321 16.2811 9.43352 16.5014C10.7804 16.8208 12.1356 17.1485 13.4324 17.6335C12.504 18.0881 11.5367 18.4704 10.5166 18.6074C8.97717 18.8129 7.51922 18.2815 6.17051 17.5873C4.98565 16.9782 3.70729 16.3108 2.75199 15.3675C2.28638 14.9074 1.91148 14.3789 1.66617 13.767Z" fill="#386641"/>
<path d="M20.9877 39.7997C20.7331 39.6062 20.4258 39.5923 20.1194 39.5331C19.7677 39.4646 19.415 39.3998 19.0678 39.3109C18.4152 39.1425 17.7339 38.9777 17.1082 38.7268C16.8444 38.6213 16.7296 39.012 16.9277 39.1554C17.559 39.6099 18.157 39.9821 18.9021 40.2237C19.5094 40.4208 20.386 40.7143 20.9877 40.4079C21.2478 40.2746 21.1802 39.9469 20.9877 39.7997Z" fill="#386641"/>
<path d="M21.9836 37.889C21.5319 37.6446 20.9626 37.8233 20.4683 37.8307C20.2045 37.8353 19.9397 37.8205 19.6778 37.7853C19.3973 37.7474 19.1788 37.6483 18.9104 37.7575C18.7752 37.8131 18.6771 37.9649 18.7678 38.1084C19.0548 38.562 19.8074 38.6175 20.2989 38.6841C20.8395 38.7582 21.6485 38.8628 22.0503 38.4074C22.1854 38.2528 22.1808 37.9954 21.9836 37.889Z" fill="#386641"/>
<path d="M22.9485 36.6626C23.1818 36.5377 23.2022 36.1368 22.9485 36.0184C22.5662 35.8397 22.171 35.8823 21.7581 35.8712C21.3406 35.8601 20.9139 35.7629 20.5029 35.8369C20.1928 35.8925 20.1696 36.3423 20.4177 36.4867C20.7852 36.7006 21.2582 36.72 21.6748 36.7672C22.108 36.8172 22.5523 36.8746 22.9485 36.6626Z" fill="#386641"/>
<path d="M24.8172 34.576C24.9033 34.4186 24.8718 34.1585 24.6867 34.077C24.2998 33.9076 23.9934 34.0428 23.5972 34.127C23.163 34.2187 22.727 34.2316 22.2864 34.2011C21.706 34.1613 21.7393 35.0129 22.2864 35.086C22.7696 35.1499 23.2445 35.1517 23.7277 35.0869C24.1406 35.0314 24.6006 34.9731 24.8172 34.576Z" fill="#386641"/>
<path d="M25.607 32.3014C25.8829 31.8802 25.4284 31.4673 25.0164 31.5331C24.7461 31.5756 24.5045 31.7469 24.2546 31.8515C24.0334 31.9441 23.7899 32.0125 23.552 32.0431C23.2595 32.0801 23.0059 32.2671 23.0059 32.5892C23.0059 32.8734 23.2558 33.1511 23.552 33.1354C24.2546 33.1002 25.1923 32.9355 25.607 32.3014Z" fill="#386641"/>
<path d="M25.9807 29.5479C25.8206 29.1703 25.3948 29.3017 25.1097 29.435C24.7699 29.5942 24.383 29.6414 24.0544 29.809C23.7073 29.9858 23.7804 30.5773 24.1655 30.6569C24.67 30.7624 26.3066 30.32 25.9807 29.5479Z" fill="#386641"/>
<path d="M25.9672 26.6764C25.7395 26.7598 25.5247 26.8505 25.3137 26.9727C25.1202 27.0847 24.9045 27.1763 24.7231 27.305C24.5213 27.4494 24.413 27.6873 24.5194 27.928C24.6176 28.151 24.8638 28.2871 25.1082 28.2168C25.5784 28.0816 26.0672 27.7743 26.4023 27.4235C26.6901 27.1208 26.4069 26.5145 25.9672 26.6764Z" fill="#386641"/>
</svg>
