<svg width="323" height="320" viewBox="0 0 323 320" fill="none" xmlns="http://www.w3.org/2000/svg">
<path d="M160 320C248.366 320 320 248.366 320 160C320 71.6344 248.366 0 160 0C71.6344 0 0 71.6344 0 160C0 248.366 71.6344 320 160 320Z" fill="#F2E6DC"/>
<path d="M83.2966 232.615C77.1843 232.615 71.3134 230.513 66.5382 226.573C61.0991 222.084 57.7335 215.745 57.0615 208.725C56.83 206.304 56.9335 203.867 57.3691 201.473C45.9944 198.064 37.0706 185.134 35.6098 169.875C35.3123 166.767 35.3248 163.658 35.6465 160.628C29.7611 159.798 24.2332 157.007 20.0431 152.741C15.7004 148.32 12.9828 142.481 12.3913 136.299C11.6995 129.07 13.8641 122.003 18.4868 116.402C23.1095 110.801 29.637 107.335 36.8665 106.643C47.0424 105.668 57.0185 110.589 62.4639 119.214C66.0327 113.516 72.0875 109.758 78.7862 109.117C90.6897 107.977 101.304 116.736 102.443 128.641C102.969 134.135 101.418 139.528 98.0691 143.894C106.837 146.205 113.257 153.729 114.126 162.799C115.082 172.787 108.993 182.165 99.569 185.386C105.283 189.841 108.935 196.472 109.626 203.694C110.298 210.715 108.196 217.576 103.707 223.015C99.2183 228.455 92.8798 231.82 85.8594 232.492C85.0024 232.574 84.147 232.615 83.2966 232.615ZM39.423 107.292C38.5984 107.292 37.7701 107.331 36.9401 107.41C22.4394 108.798 11.771 121.725 13.1591 136.226C14.3256 148.416 23.9819 158.379 36.1197 159.913C36.3292 159.94 36.4785 160.13 36.4544 160.34C36.0985 163.435 36.0728 166.619 36.3776 169.801C37.823 184.903 46.6806 197.662 57.9176 200.829C58.1109 200.884 58.2299 201.078 58.1913 201.275C57.7151 203.706 57.5933 206.188 57.8292 208.651C58.4812 215.467 61.7485 221.62 67.0289 225.978C72.3096 230.336 78.9714 232.378 85.786 231.724C92.6013 231.072 98.7545 227.805 103.112 222.524C107.47 217.244 109.511 210.583 108.859 203.767C108.165 196.516 104.396 189.878 98.5178 185.557C98.4001 185.471 98.3415 185.325 98.366 185.181C98.3906 185.037 98.4943 184.92 98.634 184.877C108.11 182 114.303 172.745 113.358 162.872C112.502 153.931 106.052 146.548 97.3086 144.499C97.1792 144.469 97.0748 144.374 97.0316 144.248C96.9888 144.123 97.0134 143.984 97.097 143.881C100.575 139.592 102.201 134.206 101.676 128.714C100.577 117.232 90.341 108.785 78.8596 109.884C72.1956 110.522 66.1916 114.359 62.7989 120.149C62.7301 120.266 62.6043 120.339 62.4683 120.339C62.4676 120.339 62.4669 120.339 62.4664 120.339C62.3308 120.339 62.2053 120.268 62.1355 120.152C57.3518 112.162 48.6278 107.292 39.423 107.292Z" fill="#8B865C"/>
<path d="M86.6312 217.804C86.4538 217.804 86.2939 217.681 86.2548 217.5C82.3758 199.579 76.0615 182.303 67.4874 166.151C60.1092 152.252 51.0654 139.22 40.6077 127.417C40.4666 127.257 40.4811 127.014 40.6406 126.873C40.7999 126.731 41.0435 126.746 41.1848 126.905C51.6829 138.754 60.7616 151.837 68.1685 165.79C76.7756 182.004 83.1142 199.347 87.0084 217.337C87.0534 217.546 86.9213 217.751 86.7131 217.796C86.6856 217.802 86.6582 217.804 86.6312 217.804Z" fill="#9E9569"/>
<path d="M79.7073 194.402C79.6702 194.402 79.6326 194.396 79.595 194.385C73.0836 192.409 66.649 189.969 60.4695 187.133L58.1867 186.088C51.4453 183.005 49.6334 182.176 44.1995 178.477C44.0234 178.357 43.9782 178.117 44.0979 177.941C44.2177 177.765 44.4574 177.719 44.6337 177.839C50.0136 181.502 51.8129 182.325 58.5075 185.386L60.7911 186.432C66.9393 189.254 73.3412 191.681 79.8192 193.647C80.0229 193.709 80.138 193.924 80.0762 194.128C80.0254 194.295 79.8725 194.402 79.7073 194.402Z" fill="#9E9569"/>
<path d="M231.643 216.531C230.792 216.531 229.938 216.49 229.08 216.408C222.06 215.736 215.721 212.371 211.232 206.932C206.743 201.492 204.641 194.631 205.313 187.61C206.004 180.388 209.657 173.757 215.371 169.302C205.947 166.081 199.858 156.704 200.814 146.715C201.682 137.645 208.102 130.121 216.871 127.81C213.522 123.444 211.97 118.051 212.496 112.557C213.636 100.652 224.25 91.8957 236.153 93.0329C242.852 93.6741 248.907 97.4322 252.476 103.13C257.921 94.505 267.897 89.587 278.073 90.5591C285.303 91.251 291.83 94.7168 296.453 100.318C301.075 105.919 303.24 112.986 302.548 120.215C301.957 126.396 299.239 132.235 294.897 136.657C290.706 140.923 285.178 143.714 279.293 144.544C279.615 147.574 279.627 150.683 279.33 153.791C277.869 169.05 268.945 181.98 257.571 185.389C258.006 187.783 258.11 190.221 257.878 192.641C257.206 199.661 253.841 206 248.401 210.489C243.627 214.429 237.755 216.531 231.643 216.531ZM234.071 93.7045C223.427 93.7045 214.298 101.823 213.264 112.631C212.738 118.123 214.364 123.509 217.843 127.797C217.926 127.901 217.951 128.04 217.908 128.165C217.865 128.291 217.76 128.386 217.631 128.416C208.887 130.465 202.437 137.848 201.582 146.788C200.637 156.662 206.829 165.916 216.306 168.794C216.445 168.836 216.549 168.954 216.574 169.098C216.598 169.242 216.54 169.387 216.422 169.474C210.544 173.795 206.775 180.433 206.081 187.684C204.734 201.753 215.085 214.295 229.154 215.641C235.968 216.294 242.63 214.252 247.911 209.895C253.191 205.536 256.459 199.383 257.111 192.568C257.347 190.105 257.224 187.623 256.748 185.191C256.71 184.994 256.829 184.8 257.022 184.746C268.259 181.579 277.117 168.819 278.562 153.718C278.867 150.534 278.841 147.351 278.485 144.256C278.461 144.046 278.61 143.856 278.82 143.829C290.958 142.295 300.614 132.333 301.781 120.142C302.453 113.118 300.35 106.252 295.858 100.809C291.366 95.3666 285.024 91.9991 278 91.3269C267.906 90.361 258.017 95.362 252.804 104.068C252.735 104.185 252.609 104.256 252.473 104.256C252.473 104.256 252.472 104.256 252.472 104.256C252.335 104.255 252.21 104.183 252.141 104.065C248.748 98.2756 242.744 94.4382 236.08 93.8007C235.406 93.7362 234.735 93.7045 234.071 93.7045Z" fill="#8B865C"/>
<path d="M228.309 201.721C228.282 201.721 228.255 201.718 228.227 201.712C228.019 201.667 227.887 201.462 227.932 201.254C231.826 183.263 238.165 165.92 246.772 149.706C254.179 135.753 263.257 122.67 273.756 110.822C273.897 110.662 274.14 110.648 274.3 110.789C274.459 110.93 274.474 111.174 274.333 111.333C263.875 123.136 254.831 136.168 247.453 150.068C238.879 166.219 232.565 183.496 228.686 201.417C228.646 201.598 228.487 201.721 228.309 201.721Z" fill="#9E9569"/>
<path d="M235.233 178.318C235.067 178.318 234.915 178.211 234.864 178.044C234.802 177.841 234.917 177.625 235.121 177.563C241.599 175.598 248.001 173.17 254.149 170.348L256.43 169.304C263.126 166.242 264.926 165.419 270.306 161.756C270.483 161.636 270.723 161.681 270.842 161.857C270.962 162.033 270.916 162.273 270.741 162.393C265.306 166.093 263.493 166.922 256.75 170.005L254.471 171.049C248.291 173.885 241.856 176.325 235.345 178.301C235.307 178.313 235.27 178.318 235.233 178.318Z" fill="#9E9569"/>
<path d="M116.797 138.091C112.981 138.091 109.196 137.174 105.713 135.362C100.008 132.394 95.7998 127.382 93.8641 121.25C93.1999 119.145 92.8285 116.962 92.7589 114.755C81.9781 113.864 71.5769 104.043 67.3751 90.7307C66.5219 88.0282 65.9428 85.266 65.652 82.5152C60.2578 82.8877 54.8083 81.4507 50.2691 78.4504C45.5546 75.3343 42.0197 70.6445 40.3151 65.2445C38.3217 58.9293 38.907 52.216 41.963 46.3407C45.0191 40.4655 50.1802 36.1324 56.4956 34.1389C65.3673 31.339 75.1787 33.8123 81.6775 40.4373C83.7848 34.6992 88.4603 30.2147 94.2965 28.3726C104.699 25.0887 115.835 30.8809 119.119 41.2847C120.629 46.0693 120.28 51.1566 118.143 55.6777C126.384 56.0894 133.519 61.5727 136.015 69.482C138.764 78.1898 135.141 87.691 127.386 92.3709C133.302 95.2619 137.799 100.467 139.784 106.756C143.78 119.416 136.731 132.966 124.071 136.963C121.682 137.717 119.233 138.091 116.797 138.091ZM65.9982 81.7166C66.1947 81.7166 66.3624 81.8661 66.3817 82.0653C66.6529 84.8867 67.2347 87.7243 68.1104 90.4986C72.2641 103.659 82.5651 113.327 93.1606 114.011C93.361 114.024 93.5178 114.188 93.5213 114.389C93.5595 116.642 93.9223 118.872 94.5994 121.018C96.473 126.954 100.546 131.805 106.069 134.678C111.592 137.551 117.902 138.101 123.839 136.227C136.094 132.359 142.917 119.242 139.048 106.988C137.055 100.671 132.443 95.4849 126.396 92.7577C126.263 92.6977 126.175 92.5678 126.17 92.4218C126.164 92.2761 126.241 92.1394 126.368 92.0689C134.246 87.7129 137.994 78.3114 135.28 69.714C132.823 61.9291 125.689 56.5898 117.527 56.4277C117.395 56.4251 117.273 56.3543 117.204 56.2404C117.136 56.1266 117.131 55.9855 117.192 55.8671C119.47 51.3952 119.893 46.2988 118.384 41.5166C116.855 36.6734 113.531 32.7154 109.026 30.3717C104.521 28.0282 99.3723 27.5789 94.5286 29.1079C88.7259 30.9395 84.1172 35.4898 82.2 41.2802C82.1573 41.4096 82.0494 41.5065 81.9164 41.5357C81.7838 41.5652 81.645 41.5211 81.5519 41.4218C75.2635 34.6693 65.5198 32.0988 56.7278 34.8744C50.609 36.8058 45.6084 41.0043 42.6475 46.6968C39.6865 52.3891 39.1194 58.8938 41.0508 65.0128C44.4026 75.6319 54.8802 82.6593 65.9655 81.718C65.9763 81.717 65.9872 81.7166 65.9982 81.7166Z" fill="#8B865C"/>
<path d="M125.785 125.579C125.638 125.579 125.497 125.495 125.433 125.352C118.573 110.133 109.667 95.9511 98.9629 83.2C89.7515 72.2268 79.2224 62.3423 67.668 53.8212C67.4966 53.695 67.4601 53.4535 67.5867 53.2821C67.7126 53.1108 67.954 53.0739 68.1258 53.2008C79.7292 61.7579 90.303 71.6842 99.5536 82.704C110.303 95.5095 119.247 109.752 126.136 125.035C126.223 125.229 126.137 125.457 125.943 125.545C125.891 125.568 125.838 125.579 125.785 125.579Z" fill="#8B865C"/>
<path d="M74.7357 65.8062C70.9667 65.8062 67.1945 65.652 63.4565 65.3444C60.105 65.0688 56.1996 64.557 51.849 63.8232C51.6392 63.7879 51.4975 63.5891 51.533 63.3791C51.5684 63.1691 51.7644 63.0285 51.9775 63.0628C56.3066 63.7928 60.19 64.3018 63.5199 64.5757C69.6578 65.0809 75.8901 65.1695 82.0439 64.8395C82.2616 64.8271 82.438 64.9913 82.4496 65.2038C82.4611 65.4164 82.2978 65.5979 82.0853 65.6095C79.6441 65.7406 77.1902 65.8062 74.7357 65.8062Z" fill="#8B865C"/>
<path d="M229.326 135.8C229.067 135.8 228.807 135.796 228.547 135.788C222.119 135.585 216.155 132.891 211.754 128.203C207.352 123.514 205.039 117.392 205.242 110.964C205.45 104.373 208.37 98.1447 213.281 93.76C204.549 91.3547 198.489 83.1893 198.776 74.0625C199.038 65.7727 204.422 58.5622 212.243 55.9346C208.962 52.1608 207.248 47.3584 207.407 42.3433C207.751 31.4395 216.896 22.851 227.805 23.1921C233.922 23.385 239.637 26.436 243.22 31.3892C247.682 23.2519 256.463 18.2162 265.755 18.5073C272.375 18.7161 278.516 21.4902 283.049 26.3181C287.582 31.1463 289.963 37.4505 289.754 44.0696C289.575 49.729 287.442 55.2009 283.748 59.4771C280.191 63.5945 275.335 66.4531 270.041 67.5558C270.505 70.2823 270.696 73.0978 270.606 75.9309C270.166 89.8832 262.813 102.154 252.676 105.931C253.207 108.074 253.44 110.276 253.371 112.482C253.168 118.91 250.474 124.874 245.786 129.276C241.287 133.5 235.468 135.8 229.326 135.8ZM227.174 23.9533C216.964 23.9533 208.502 32.0914 208.178 42.3678C208.02 47.3799 209.807 52.1712 213.211 55.8594C213.301 55.957 213.334 56.0939 213.3 56.2222C213.265 56.3502 213.166 56.4515 213.039 56.4899C205.227 58.8558 199.805 65.9277 199.547 74.0871C199.263 83.098 205.417 91.1337 214.18 93.1938C214.322 93.2273 214.433 93.338 214.467 93.4798C214.501 93.6218 214.451 93.7706 214.339 93.8644C209.257 98.1268 206.222 104.368 206.013 110.989C205.816 117.211 208.055 123.137 212.316 127.675C216.577 132.213 222.35 134.821 228.572 135.017C234.793 135.215 240.72 132.975 245.258 128.714C249.797 124.453 252.404 118.68 252.6 112.458C252.671 110.209 252.417 107.964 251.843 105.786C251.792 105.591 251.899 105.39 252.088 105.324C262.103 101.797 269.401 89.7 269.836 75.9066C269.928 72.9983 269.72 70.1094 269.217 67.3201C269.179 67.1124 269.316 66.9129 269.524 66.8732C280.449 64.776 288.633 55.1755 288.984 44.0453C289.186 37.6323 286.879 31.524 282.487 26.8461C278.096 22.1681 272.145 19.4805 265.731 19.2781C256.524 18.988 247.833 24.0998 243.608 32.3028C243.545 32.4238 243.424 32.5032 243.288 32.5111C243.15 32.5212 243.022 32.4548 242.946 32.342C239.532 27.2871 233.863 24.1547 227.781 23.9629C227.579 23.9566 227.375 23.9533 227.174 23.9533Z" fill="#8B865C"/>
<path d="M223.712 125.308C223.692 125.308 223.673 125.306 223.654 125.303C223.443 125.272 223.298 125.075 223.33 124.865C225.823 108.286 230.576 92.1546 237.457 76.9175C243.378 63.805 250.868 51.3861 259.721 40.0061C259.852 39.8383 260.094 39.8078 260.262 39.9388C260.43 40.0694 260.461 40.3118 260.33 40.4797C251.514 51.8115 244.055 64.1777 238.159 77.2349C231.308 92.4073 226.575 108.471 224.092 124.98C224.064 125.171 223.899 125.308 223.712 125.308Z" fill="#8B865C"/>
<path d="M249.559 55.741C249.383 55.741 249.224 55.6191 249.184 55.4399C249.137 55.232 249.267 55.026 249.475 54.9795C255.489 53.6308 261.464 51.8576 267.236 49.7094C270.367 48.5442 273.967 47.0027 277.938 45.1275C278.131 45.0373 278.36 45.1191 278.451 45.3115C278.542 45.504 278.46 45.7339 278.267 45.8249C274.277 47.7092 270.656 49.2594 267.505 50.432C261.701 52.5926 255.691 54.3755 249.644 55.7317C249.616 55.738 249.587 55.741 249.559 55.741Z" fill="#8B865C"/>
<path d="M230.299 251.15L224.826 181.762L213.95 85.5324C213.95 85.5324 150.741 82.4892 115.26 84.0095C107.142 84.3573 99.3771 87.4242 93.178 92.6766C56.3287 123.898 55.0734 157.631 73.4213 171.002C84.1881 178.848 90.9781 180.029 97.7946 181.443L90.1762 246.277L230.299 251.15Z" fill="white"/>
<path d="M213.95 85.5326L204.692 188.251C204.692 188.251 231.202 197.146 243.96 172.964C256.718 148.782 262.927 87.1837 213.95 85.5326Z" fill="white"/>
<path d="M107.639 182.468C102.689 182.468 99.0978 182.089 99.0137 182.074C98.8045 182.037 98.6657 181.838 98.7024 181.629C98.739 181.419 98.9383 181.278 99.1485 181.315C99.3622 181.352 122.076 183.789 132.046 176.295C132.216 176.167 132.458 176.202 132.586 176.372C132.714 176.542 132.679 176.784 132.509 176.912C126.338 181.55 115.343 182.468 107.639 182.468Z" fill="#363E44"/>
<path d="M211.259 190.989C198.407 190.989 190.655 185.717 190.549 185.644C190.374 185.522 190.332 185.282 190.454 185.107C190.576 184.932 190.815 184.89 190.99 185.011C191.134 185.111 205.578 194.908 227.809 187.374C228.012 187.307 228.23 187.414 228.298 187.616C228.366 187.817 228.258 188.036 228.057 188.105C221.81 190.221 216.163 190.989 211.259 190.989Z" fill="#363E44"/>
<path d="M101.295 128.774C93.471 130.314 88.9391 137.198 86.7713 144.871C84.7032 152.192 85.7096 160.721 96.8779 167.574C126.732 185.896 200.422 148.813 200.422 148.813L210.311 126.142C182.701 121.109 127.724 123.572 101.295 128.774Z" fill="#E2A18D"/>
<path d="M220.33 131.708C226.267 134.351 230.214 133.981 230.471 132.247C230.876 129.517 226.75 126.396 218.768 123.207C218.767 123.207 218.768 123.206 218.768 123.206C224.895 123.868 226.48 123.116 226.333 121.528C226.066 118.628 219.454 116.13 213.271 114.817C206.31 113.34 200.399 114.608 196.69 115.497C196.69 115.497 196.689 115.497 196.688 115.496C196.665 115.479 196.643 115.463 196.62 115.447C181.36 120.781 180.226 131.656 177.789 136.62C173.211 145.947 177.974 149.891 178.188 150.014C179.078 150.525 180.644 151.436 182.925 152.022C191.377 154.197 196.089 148.449 206.019 146.68C217.287 144.674 224.767 149.923 226.229 147.392C227.246 145.632 224.982 142.857 218.679 139.341C218.679 139.341 218.678 139.339 218.679 139.339C223.775 141.461 230.813 144.036 231.977 141.216C233.147 137.889 225.234 133.892 220.33 131.708Z" fill="#E2A18D"/>
<path d="M218.467 139.649C218.421 139.649 218.375 139.641 218.33 139.624C216.933 139.093 215.471 138.749 213.985 138.604C212.548 138.463 211.096 138.508 209.669 138.738C209.459 138.773 209.26 138.629 209.227 138.418C209.193 138.208 209.336 138.01 209.546 137.976C211.038 137.736 212.557 137.689 214.061 137.836C215.614 137.988 217.143 138.347 218.604 138.903C218.803 138.979 218.903 139.202 218.827 139.401C218.768 139.555 218.622 139.649 218.467 139.649Z" fill="#363E44"/>
<path d="M220.355 132.438C220.296 132.438 220.236 132.424 220.18 132.396C218.631 131.609 216.985 131.034 215.291 130.686C213.651 130.349 211.974 130.226 210.306 130.323C210.097 130.334 209.911 130.173 209.899 129.96C209.886 129.747 210.049 129.565 210.261 129.553C211.997 129.453 213.74 129.58 215.446 129.93C217.208 130.292 218.918 130.89 220.529 131.708C220.719 131.805 220.795 132.037 220.699 132.227C220.631 132.361 220.495 132.438 220.355 132.438Z" fill="#363E44"/>
<path d="M218.585 123.677C218.544 123.677 218.501 123.67 218.46 123.656C216.706 123.052 214.881 122.685 213.036 122.564C211.249 122.447 209.454 122.562 207.699 122.906C207.488 122.947 207.287 122.811 207.246 122.602C207.205 122.393 207.341 122.191 207.55 122.149C209.371 121.793 211.234 121.673 213.086 121.795C214.999 121.92 216.892 122.301 218.711 122.927C218.912 122.996 219.019 123.216 218.95 123.417C218.895 123.577 218.745 123.677 218.585 123.677Z" fill="#363E44"/>
<path d="M219.564 144.856C226.868 148.053 229.803 155.755 230.257 163.716C230.691 171.311 227.862 179.419 215.475 183.692C182.362 195.115 118.45 142.956 118.45 142.956L113.703 118.682C141.748 119.746 194.888 134.055 219.564 144.856Z" fill="#E2A18D"/>
<path d="M217.52 144.366C217.471 144.366 217.42 144.356 217.371 144.336C199.971 137.036 171.716 128.749 147.063 123.715C146.855 123.672 146.72 123.469 146.763 123.26C146.805 123.051 147.008 122.917 147.218 122.959C171.915 128.002 200.227 136.307 217.669 143.625C217.866 143.708 217.958 143.933 217.876 144.13C217.814 144.277 217.671 144.366 217.52 144.366Z" fill="#363E44"/>
<path d="M102.717 121.947C96.3489 123.242 92.5754 122.025 92.6995 120.277C92.8952 117.524 97.5994 115.37 106.083 113.985C106.083 113.985 106.083 113.985 106.083 113.985C99.9581 113.305 98.5737 112.227 99.0604 110.708C99.949 107.935 106.945 106.927 113.266 106.985C120.381 107.05 125.878 109.568 129.306 111.239C129.307 111.239 129.308 111.239 129.309 111.239C129.335 111.227 129.36 111.216 129.385 111.205C143.128 119.717 141.881 130.579 143.185 135.953C145.635 146.05 140.132 148.869 139.896 148.943C138.917 149.249 137.19 149.799 134.836 149.878C126.114 150.171 122.759 143.539 113.447 139.662C102.881 135.264 94.441 138.769 93.5618 135.982C92.9501 134.043 95.7612 131.824 102.677 129.756C102.677 129.756 102.677 129.754 102.676 129.754C97.242 130.722 89.8139 131.712 89.2879 128.707C88.8658 125.205 97.4562 123.017 102.717 121.947Z" fill="#E2A18D"/>
<path d="M111.745 131.145C111.698 131.145 111.65 131.136 111.603 131.118C110.261 130.584 108.853 130.226 107.418 130.052C105.936 129.872 104.435 129.892 102.956 130.108C102.745 130.14 102.55 129.993 102.519 129.782C102.488 129.572 102.634 129.376 102.844 129.345C104.391 129.119 105.961 129.099 107.511 129.287C109.011 129.469 110.484 129.843 111.888 130.401C112.085 130.48 112.182 130.704 112.104 130.902C112.044 131.053 111.899 131.145 111.745 131.145Z" fill="#363E44"/>
<path d="M112.908 122.78C112.874 122.78 112.838 122.775 112.803 122.765C111.195 122.31 109.531 122.066 107.858 122.04C106.126 122.01 104.397 122.218 102.714 122.651C102.507 122.703 102.297 122.579 102.244 122.374C102.192 122.167 102.316 121.957 102.522 121.904C104.272 121.454 106.074 121.24 107.87 121.269C109.61 121.296 111.341 121.55 113.013 122.023C113.218 122.081 113.337 122.294 113.279 122.499C113.231 122.668 113.076 122.78 112.908 122.78Z" fill="#363E44"/>
<path d="M117.109 116.121C117.057 116.121 117.005 116.11 116.955 116.089C115.315 115.373 113.587 114.872 111.818 114.599C109.99 114.317 108.128 114.28 106.286 114.491C106.074 114.514 105.883 114.363 105.859 114.151C105.835 113.94 105.987 113.748 106.199 113.724C108.11 113.507 110.04 113.545 111.936 113.837C113.77 114.12 115.563 114.64 117.263 115.382C117.458 115.467 117.547 115.694 117.462 115.889C117.399 116.034 117.257 116.121 117.109 116.121Z" fill="#363E44"/>
<path d="M157.486 169.663C157.422 169.663 157.358 169.648 157.298 169.614C136.036 157.743 118.381 143.399 118.205 143.255C111.83 138.323 101.038 137.303 96.8118 137.582C95.0378 137.699 93.873 137.371 93.3439 136.608C92.7663 135.775 93.2 134.79 93.2187 134.749C93.3063 134.555 93.5343 134.469 93.7288 134.556C93.9222 134.644 94.0086 134.871 93.9224 135.064C93.9197 135.071 93.6496 135.702 93.9802 136.173C94.232 136.532 94.9193 136.934 96.7607 136.812C101.081 136.528 112.127 137.579 118.685 142.651C118.868 142.801 136.473 157.104 157.674 168.941C157.86 169.045 157.926 169.28 157.822 169.466C157.752 169.592 157.621 169.663 157.486 169.663Z" fill="#363E44"/>
<path d="M150.227 54.0901C152.669 56.4048 153.052 59.9659 151.082 62.044C149.112 64.122 145.535 63.9306 143.093 61.6159C140.652 59.3012 140.269 55.7403 142.239 53.6621C144.209 51.584 147.785 51.7756 150.227 54.0901Z" fill="#E2A18D"/>
<path d="M174.365 48.5585C173.175 51.7055 174.381 55.0778 177.059 56.0908C179.737 57.1038 182.874 55.3738 184.064 52.2268C185.254 49.0798 184.048 45.7076 181.369 44.6946C178.691 43.6816 175.555 45.4115 174.365 48.5585Z" fill="#E2A18D"/>
<path d="M161.502 97.4032C155.494 97.1276 150.847 92.034 151.122 86.026L152.132 55.1427L173.888 56.1405L172.879 87.024C172.604 93.0317 167.51 97.6787 161.502 97.4032Z" fill="#E2A18D"/>
<path d="M170.009 79.6021C153.001 83.6467 147.305 55.0612 147.305 55.0612L177.579 48.6637C177.579 48.6637 186.501 75.6803 170.009 79.6021Z" fill="#363E44"/>
<path d="M162.814 46.4069C163.201 40.2902 158.556 35.0177 152.44 34.6304C146.323 34.243 141.051 38.8875 140.663 45.0042C140.276 51.1208 144.92 56.3934 151.037 56.7807C157.154 57.168 162.426 52.5235 162.814 46.4069Z" fill="#363E44"/>
<path d="M177.649 50.9218C179.818 60.3865 172.738 56.455 164.683 58.3011C156.628 60.1469 150.649 67.0712 148.48 57.6067C146.311 48.1422 151.544 41.596 159.599 39.7501C167.654 37.9041 175.48 41.4573 177.649 50.9218Z" fill="#E2A18D"/>
<path d="M178.464 55.9453C178.463 55.9453 178.462 55.9453 178.462 55.9453C178.249 55.9443 178.077 55.7706 178.078 55.5577C178.086 54.0269 177.914 52.479 177.565 50.9565C177.254 49.5994 176.807 48.2809 176.235 47.0378C176.147 46.8442 176.231 46.6153 176.425 46.5265C176.618 46.4377 176.847 46.5223 176.936 46.7159C177.529 48.0069 177.994 49.3757 178.316 50.7842C178.679 52.3645 178.858 53.9718 178.849 55.5617C178.848 55.774 178.676 55.9453 178.464 55.9453Z" fill="#363E44"/>
<path d="M149.724 62.42C149.581 62.42 149.444 62.3401 149.377 62.2028C148.695 60.7964 148.168 59.2964 147.813 57.7443C147.484 56.3089 147.305 54.8465 147.282 53.3983C147.279 53.1853 147.449 53.0099 147.661 53.0066C147.664 53.0066 147.666 53.0066 147.668 53.0066C147.878 53.0066 148.05 53.1753 148.053 53.3859C148.075 54.7806 148.247 56.1889 148.564 57.5721C148.907 59.0675 149.414 60.5123 150.071 61.8664C150.164 62.0579 150.084 62.2887 149.892 62.3817C149.838 62.4076 149.781 62.42 149.724 62.42Z" fill="#363E44"/>
<path d="M164.89 59.0285C164.797 59.0285 164.704 58.9951 164.63 58.9276C164.473 58.784 164.462 58.5399 164.605 58.3827C164.829 58.1386 165.085 57.7831 165.037 57.4766C165.009 57.2977 164.892 57.176 164.669 56.9585C164.434 56.7296 164.142 56.4445 163.954 55.9735C163.786 55.5506 163.742 55.0801 163.824 54.5745C163.858 54.3645 164.057 54.2201 164.267 54.256C164.477 54.2902 164.619 54.4883 164.585 54.6984C164.526 55.064 164.554 55.3969 164.671 55.6881C164.798 56.0069 164.997 56.2008 165.207 56.4064C165.452 56.6455 165.73 56.9167 165.799 57.3578C165.875 57.8464 165.665 58.3663 165.175 58.9029C165.099 58.9863 164.994 59.0285 164.89 59.0285Z" fill="#363E44"/>
<path d="M162.599 63.7268C162.095 63.7268 161.505 63.6439 160.891 63.3852C160.266 63.1212 159.698 62.7038 159.25 62.178C159.112 62.0159 159.131 61.7727 159.293 61.6345C159.455 61.4962 159.698 61.5156 159.836 61.6777C160.207 62.1126 160.676 62.4573 161.191 62.675C162.179 63.0917 163.1 62.9544 163.561 62.8351C163.768 62.7816 163.977 62.9059 164.031 63.1119C164.084 63.3181 163.96 63.5285 163.754 63.5818C163.483 63.6517 163.08 63.7268 162.599 63.7268Z" fill="white"/>
<path d="M145.655 52.9401C145.655 52.9401 153.729 52.7193 160.195 41.6637C160.195 41.6637 178.842 58.8108 186.288 32.8586C186.288 32.8586 179.99 37.0754 175.488 32.9588C168.324 26.4086 153.256 22.7536 150.184 37.7184L145.655 52.9401Z" fill="#363E44"/>
<path d="M172.177 49.4196V49.4202L172.141 49.4246C172.139 49.5019 172.111 49.6061 172.034 49.6215C171.966 49.7523 171.965 49.9391 171.929 50.0699C171.865 50.3056 171.504 50.1916 171.568 49.9564C171.611 49.798 171.171 50.183 170.971 50.3175C170.332 50.7471 169.676 51.1472 169.007 51.5274C168.694 51.7047 168.382 51.8848 168.064 52.0509C167.809 52.1843 166.977 52.6718 166.897 52.646C166.174 53.6915 165.85 54.5978 165.85 54.5978C165.85 54.5978 167.294 54.8798 169.009 54.5826C169.008 54.5586 169.008 54.5352 169.007 54.5111C168.994 54.2748 172.69 52.4599 172.835 52.6091C174.247 51.1778 174.859 49.4739 174.859 49.4739C174.859 49.4739 173.674 49.2421 172.177 49.4196Z" fill="white"/>
<path d="M169.367 50.2995C168.275 50.9208 167.464 51.8249 166.898 52.6439C167.154 53.3556 167.663 53.9786 168.385 54.3597C168.571 54.4578 168.762 54.5345 168.956 54.5924C169.73 54.463 170.562 54.2168 171.342 53.7725C171.907 53.4514 172.393 53.0533 172.812 52.6315C173.213 51.5091 172.937 50.2705 172.141 49.4247C171.263 49.532 170.281 49.78 169.367 50.2995Z" fill="#363E44"/>
<path d="M153.089 54.0631L153.089 54.0638L153.123 54.0521C153.158 54.121 153.229 54.2029 153.305 54.1829C153.423 54.2714 153.506 54.4387 153.594 54.5414C153.754 54.7259 154.03 54.4662 153.871 54.2821C153.763 54.1581 154.326 54.3139 154.565 54.348C155.327 54.4571 156.092 54.5325 156.86 54.5839C157.218 54.6078 157.578 54.6342 157.937 54.6458C158.224 54.6551 159.185 54.7325 159.247 54.6741C160.352 55.3017 161.037 55.9772 161.037 55.9772C161.037 55.9772 159.859 56.8589 158.186 57.3361C158.176 57.3145 158.166 57.2932 158.157 57.2712C158.065 57.053 153.948 57.0246 153.882 57.222C151.988 56.5469 150.697 55.2784 150.697 55.2784C150.697 55.2784 151.663 54.5543 153.089 54.0631Z" fill="white"/>
<path d="M156.001 53.6344C157.255 53.719 158.378 54.181 159.244 54.6726C159.322 55.4248 159.135 56.2072 158.651 56.8639C158.526 57.033 158.387 57.1852 158.237 57.3217C157.484 57.5415 156.628 57.6813 155.732 57.6208C155.084 57.5769 154.473 57.4295 153.912 57.232C153.063 56.3953 152.773 55.1601 153.123 54.052C153.961 53.7673 154.953 53.5636 156.001 53.6344Z" fill="#363E44"/>
<path d="M281.368 224.955C304.009 180.829 313.771 140.649 303.171 135.21C292.572 129.772 265.625 161.135 242.985 205.261C220.344 249.387 210.582 289.567 221.181 295.006C231.781 300.444 258.727 269.081 281.368 224.955Z" fill="#EFBC73"/>
<path d="M222.531 295.689C221.983 295.689 221.475 295.577 221.011 295.339C216.163 292.852 219.584 278.334 223.307 266.594C228.514 250.178 237.417 229.374 248.376 208.013C271.462 163.018 295.607 130.88 303.351 134.853C308.2 137.341 304.779 151.858 301.055 163.599C295.848 180.014 286.946 200.818 275.986 222.179C265.027 243.539 253.32 262.905 243.022 276.708C236.361 285.637 227.711 295.689 222.531 295.689ZM301.822 135.273C298.031 135.273 290.937 141.91 281.958 153.945C271.685 167.715 260.003 187.042 249.062 208.365C238.122 229.689 229.236 250.451 224.042 266.827C218.98 282.787 218.004 292.929 221.363 294.653C224.723 296.376 232.391 289.668 242.404 276.247C252.677 262.477 264.359 243.151 275.3 221.827C286.24 200.503 295.126 179.741 300.32 163.366C305.382 147.405 306.358 137.263 302.999 135.539C302.652 135.361 302.259 135.273 301.822 135.273Z" fill="white"/>
<path d="M221.647 295.485C221.413 295.485 221.201 295.437 221.011 295.339C218.553 294.078 220.58 285.041 227.038 268.48C233.237 252.582 242.684 232.067 253.64 210.714C264.596 189.361 275.75 169.721 285.048 155.414C294.734 140.51 300.89 133.589 303.351 134.853C305.81 136.115 303.783 145.152 297.325 161.713C291.126 177.61 281.678 198.125 270.723 219.478C259.767 240.832 248.613 260.471 239.315 274.778C230.376 288.532 224.442 295.485 221.647 295.485ZM302.658 135.464C300.791 135.464 295.495 140.754 285.694 155.834C276.41 170.12 265.27 189.735 254.326 211.066C243.382 232.397 233.946 252.886 227.756 268.76C220.767 286.684 219.871 293.888 221.363 294.653C222.857 295.421 228.184 290.489 238.668 274.358C247.952 260.072 259.093 240.457 270.037 219.126C280.981 197.796 290.417 177.306 296.606 161.433C303.595 143.509 304.491 136.304 302.999 135.539C302.902 135.489 302.788 135.464 302.658 135.464Z" fill="white"/>
<path d="M221.224 295.404C221.136 295.404 221.071 295.37 221.011 295.339C220.482 295.068 219.597 294.614 230.999 270.482C238.25 255.134 248.275 234.926 259.227 213.58C270.179 192.234 280.747 172.305 288.985 157.464C301.936 134.131 302.822 134.58 303.351 134.853C303.88 135.124 304.765 135.578 293.364 159.71C286.112 175.058 276.088 195.266 265.136 216.612C254.184 237.957 243.616 257.887 235.378 272.729C223.905 293.397 221.9 295.404 221.224 295.404ZM302.838 135.854C299.72 139.173 283.096 168.746 259.912 213.932C236.729 259.118 222.402 289.87 221.525 294.338C224.641 291.022 241.265 261.449 264.449 216.26C287.633 171.074 301.96 140.322 302.838 135.854Z" fill="white"/>
<path d="M307.454 147.659C307.437 147.659 307.42 147.658 307.402 147.656C304.175 147.221 301.078 146.26 298.198 144.799C295.306 143.333 292.693 141.396 290.433 139.043C290.286 138.889 290.291 138.645 290.444 138.498C290.597 138.351 290.841 138.355 290.989 138.509C293.189 140.799 295.732 142.684 298.547 144.112C301.35 145.533 304.364 146.468 307.505 146.892C307.716 146.921 307.864 147.115 307.836 147.326C307.81 147.519 307.644 147.659 307.454 147.659Z" fill="white"/>
<path d="M306.374 153.911C306.357 153.911 306.339 153.91 306.322 153.908C302.453 153.386 298.74 152.233 295.287 150.483C291.821 148.725 288.688 146.403 285.978 143.581C285.83 143.428 285.835 143.184 285.989 143.036C286.142 142.889 286.386 142.894 286.534 143.047C289.184 145.806 292.247 148.076 295.636 149.795C299.012 151.507 302.642 152.633 306.425 153.143C306.636 153.172 306.784 153.366 306.756 153.577C306.729 153.77 306.564 153.911 306.374 153.911Z" fill="white"/>
<path d="M304.858 160.813C304.843 160.813 304.828 160.812 304.813 160.81C300.313 160.286 296.013 158.998 292.033 156.981C288.036 154.955 284.445 152.241 281.359 148.913C281.215 148.757 281.224 148.513 281.38 148.368C281.536 148.223 281.78 148.232 281.925 148.389C284.948 151.65 288.466 154.309 292.381 156.293C296.28 158.268 300.492 159.531 304.902 160.044C305.113 160.069 305.265 160.26 305.24 160.472C305.217 160.668 305.051 160.813 304.858 160.813Z" fill="white"/>
<path d="M303.233 168.616C303.218 168.616 303.203 168.615 303.187 168.613C297.963 168.005 292.972 166.509 288.35 164.167C283.71 161.816 279.541 158.665 275.96 154.801C275.815 154.645 275.824 154.401 275.98 154.256C276.136 154.112 276.38 154.121 276.525 154.277C280.045 158.074 284.14 161.17 288.699 163.479C293.239 165.78 298.143 167.249 303.277 167.847C303.488 167.872 303.64 168.063 303.615 168.275C303.592 168.471 303.426 168.616 303.233 168.616Z" fill="white"/>
<path d="M299.447 175.995C299.432 175.995 299.417 175.994 299.402 175.993C294.177 175.384 289.186 173.888 284.564 171.547C279.924 169.196 275.755 166.044 272.174 162.181C272.029 162.024 272.038 161.781 272.194 161.636C272.35 161.491 272.594 161.5 272.739 161.656C276.258 165.453 280.354 168.549 284.913 170.859C289.453 173.159 294.357 174.628 299.491 175.227C299.702 175.251 299.854 175.443 299.829 175.654C299.806 175.851 299.64 175.995 299.447 175.995Z" fill="white"/>
<path d="M295.661 183.375C295.646 183.375 295.631 183.374 295.615 183.372C290.391 182.763 285.399 181.268 280.778 178.926C276.138 176.575 271.969 173.424 268.387 169.56C268.243 169.404 268.252 169.16 268.408 169.015C268.564 168.871 268.808 168.879 268.953 169.036C272.472 172.832 276.568 175.929 281.127 178.238C285.666 180.538 290.571 182.008 295.705 182.606C295.916 182.631 296.068 182.822 296.043 183.034C296.02 183.23 295.853 183.375 295.661 183.375Z" fill="white"/>
<path d="M291.874 190.754C291.859 190.754 291.844 190.754 291.829 190.752C286.605 190.143 281.613 188.647 276.992 186.306C272.352 183.955 268.183 180.804 264.601 176.94C264.456 176.784 264.466 176.54 264.622 176.395C264.778 176.25 265.021 176.259 265.167 176.415C268.686 180.212 272.782 183.308 277.341 185.618C281.88 187.918 286.785 189.387 291.918 189.986C292.13 190.01 292.281 190.202 292.257 190.413C292.234 190.61 292.067 190.754 291.874 190.754Z" fill="white"/>
<path d="M288.088 198.134C288.073 198.134 288.058 198.133 288.043 198.131C282.819 197.522 277.827 196.027 273.206 193.685C268.566 191.334 264.397 188.183 260.815 184.319C260.67 184.163 260.679 183.919 260.836 183.774C260.991 183.63 261.236 183.638 261.38 183.795C264.9 187.591 268.996 190.687 273.554 192.997C278.094 195.297 282.999 196.767 288.132 197.365C288.344 197.39 288.495 197.581 288.471 197.793C288.448 197.989 288.281 198.134 288.088 198.134Z" fill="white"/>
<path d="M284.302 205.513C284.287 205.513 284.272 205.513 284.257 205.511C279.032 204.902 274.04 203.406 269.42 201.065C264.779 198.714 260.61 195.562 257.029 191.699C256.884 191.543 256.893 191.299 257.049 191.154C257.205 191.009 257.449 191.018 257.594 191.175C261.113 194.971 265.209 198.067 269.768 200.377C274.307 202.677 279.212 204.147 284.346 204.745C284.558 204.77 284.709 204.961 284.685 205.172C284.661 205.369 284.495 205.513 284.302 205.513Z" fill="white"/>
<path d="M280.516 212.893C280.501 212.893 280.486 212.892 280.471 212.89C275.246 212.281 270.254 210.785 265.634 208.444C260.993 206.093 256.824 202.942 253.243 199.078C253.098 198.922 253.107 198.678 253.263 198.533C253.419 198.389 253.663 198.398 253.808 198.554C257.327 202.35 261.423 205.446 265.982 207.756C270.521 210.056 275.426 211.526 280.56 212.124C280.771 212.149 280.923 212.34 280.898 212.552C280.875 212.748 280.709 212.893 280.516 212.893Z" fill="white"/>
<path d="M276.73 220.272C276.715 220.272 276.7 220.272 276.684 220.27C271.46 219.661 266.468 218.165 261.847 215.824C257.207 213.473 253.038 210.322 249.456 206.458C249.312 206.302 249.321 206.058 249.477 205.913C249.633 205.768 249.877 205.777 250.022 205.933C253.541 209.73 257.637 212.826 262.196 215.136C266.735 217.436 271.64 218.905 276.774 219.504C276.985 219.528 277.137 219.72 277.112 219.931C277.089 220.128 276.922 220.272 276.73 220.272Z" fill="white"/>
<path d="M269.254 225.759C269.239 225.759 269.224 225.758 269.208 225.756C263.984 225.147 258.992 223.652 254.371 221.311C249.731 218.959 245.562 215.808 241.98 211.944C241.836 211.788 241.845 211.544 242.001 211.399C242.157 211.255 242.401 211.264 242.546 211.42C246.066 215.217 250.162 218.313 254.72 220.622C259.259 222.922 264.164 224.392 269.298 224.99C269.509 225.015 269.661 225.206 269.636 225.418C269.613 225.614 269.446 225.759 269.254 225.759Z" fill="white"/>
<path d="M265.467 233.138C265.452 233.138 265.438 233.138 265.422 233.136C260.198 232.527 255.206 231.031 250.585 228.69C245.944 226.338 241.775 223.187 238.194 219.324C238.05 219.168 238.059 218.924 238.215 218.779C238.371 218.634 238.615 218.643 238.76 218.799C242.278 222.596 246.374 225.692 250.934 228.002C255.473 230.302 260.378 231.771 265.512 232.37C265.723 232.394 265.875 232.586 265.85 232.797C265.827 232.994 265.66 233.138 265.467 233.138Z" fill="white"/>
<path d="M261.681 240.518C261.666 240.518 261.651 240.517 261.636 240.515C256.411 239.906 251.419 238.411 246.799 236.069C242.158 233.718 237.989 230.567 234.408 226.703C234.263 226.547 234.272 226.303 234.429 226.158C234.585 226.014 234.829 226.023 234.974 226.179C238.493 229.975 242.589 233.071 247.148 235.382C251.687 237.682 256.591 239.151 261.726 239.749C261.937 239.774 262.089 239.966 262.064 240.177C262.041 240.373 261.874 240.518 261.681 240.518Z" fill="white"/>
<path d="M257.895 247.897C257.88 247.897 257.865 247.897 257.85 247.895C252.625 247.286 247.633 245.79 243.013 243.449C238.372 241.098 234.203 237.946 230.622 234.083C230.477 233.927 230.486 233.683 230.642 233.538C230.798 233.393 231.042 233.402 231.187 233.559C234.707 237.355 238.802 240.451 243.361 242.761C247.9 245.061 252.805 246.53 257.939 247.129C258.151 247.154 258.302 247.345 258.278 247.556C258.254 247.753 258.088 247.897 257.895 247.897Z" fill="white"/>
<path d="M295.435 132.521C282.158 143.205 272.084 153.642 264.733 162.173C251.04 178.062 222.458 212.114 216.498 262.4C214.648 278.018 214.574 298.616 218.23 299.277C223.742 300.275 231.943 254.889 257.392 199.862C271.05 170.33 285.3 147.484 295.435 132.521Z" fill="#A8A073"/>
<path d="M269.59 247.121C297.85 202.42 300.517 147.378 300.517 147.378C300.517 147.378 284.253 164.833 270.903 186.749C244.248 230.506 216.436 290.8 224.131 295.472C229.815 298.922 254.131 271.574 269.59 247.121Z" fill="#A8A073"/>
<path d="M310.284 140.139C309.349 157.156 306.747 171.426 304.105 182.373C299.184 202.763 288.193 245.841 250.821 280.01C239.215 290.622 222.525 302.696 219.856 300.112C215.831 296.215 247.915 263.084 277.771 210.318C293.794 181.999 304.041 157.1 310.284 140.139Z" fill="#8B865C"/>
<path d="M75.448 316.42C88.7884 317.247 103.686 304.802 94.4421 287.26C89.5357 277.949 78.1074 271.403 68.3979 257.208C48.8345 228.606 49.6611 206.997 40.4581 206.773C32.7455 206.585 26.0911 221.858 23.7179 230.839C16.9718 256.37 31.688 280.663 37.6018 289.522C40.1187 293.293 54.5108 315.123 75.448 316.42Z" fill="#363E44"/>
<path d="M49.6219 218.95C47.8929 211.769 44.8878 206.203 39.6063 205.829C33.4951 205.396 30.1591 211.692 27.75 219.831C29.5637 217.436 32.5698 215.805 34.638 216.261C36.87 216.754 38.4845 218.929 38.7113 221.385C39.3858 218.357 41.8445 216.191 44.5991 216.039C47.6484 215.871 49.4103 218.688 49.6219 218.95Z" fill="#8B865C"/>
<path d="M39.845 211.209C39.6464 211.209 39.478 211.056 39.4612 210.855C39.1382 206.97 39.6618 202.997 40.9755 199.366C43.0428 193.653 46.5918 189.864 49.2051 187.691C49.3686 187.555 49.6119 187.578 49.7481 187.741C49.8841 187.905 49.8617 188.148 49.6981 188.284C47.1582 190.396 43.709 194.078 41.7007 199.629C40.4244 203.156 39.9157 207.016 40.2297 210.791C40.2474 211.003 40.0897 211.189 39.8776 211.207C39.8666 211.208 39.8557 211.209 39.845 211.209Z" fill="#8B865C"/>
<path d="M49.758 229.924C51.2267 229.541 53.1316 244.803 65.5314 262.539C76.9644 278.891 89.1451 285.654 88.2903 286.822C87.3188 288.15 69.9916 281.583 59.1506 266.061C47.8189 249.836 48.1279 230.35 49.758 229.924Z" fill="#40484C"/>
<path d="M139.409 225.486C144.279 228.599 153.375 235.343 160.202 247.294C168.435 261.708 165.387 292.863 165.144 298.685C172.722 298.231 186.096 289.371 193.674 288.918C192.164 283.193 187.725 263.65 190.616 251.179C195.585 229.738 211.153 218.061 215.544 214.991C212.912 212.98 194.74 199.578 170.97 204.824C152.347 208.934 142.076 221.888 139.409 225.486Z" fill="#776E42"/>
<path d="M221.095 208.479C220.587 199.978 213.283 193.499 204.783 194.007C201.51 194.203 198.544 195.413 196.154 197.303C196.159 197.091 196.161 196.878 196.148 196.663C195.89 192.347 192.182 189.058 187.866 189.316C186.383 189.405 185.027 189.908 183.889 190.695C182.902 180.869 174.325 173.49 164.378 174.085C154.176 174.695 146.402 183.46 147.012 193.661C147.021 193.819 147.038 193.975 147.052 194.132C143.346 195.55 140.722 199.053 140.515 203.132C140.178 203.129 139.841 203.121 139.498 203.141C131.39 203.627 125.21 210.593 125.695 218.702C126.18 226.81 133.146 232.99 141.255 232.505C144.534 232.309 147.487 231.04 149.822 229.077C151.895 234.236 157.081 237.737 162.936 237.387C166.282 237.187 169.255 235.756 171.466 233.572C172.821 239.152 178.001 243.14 183.935 242.785C189.26 242.467 193.566 238.746 194.885 233.864C196.152 234.211 197.491 234.37 198.874 234.287C204.691 233.939 209.312 229.61 210.276 224.111C216.898 222.057 221.528 215.71 221.095 208.479Z" fill="#9E9569"/>
<path d="M185.634 240.875C180.128 240.875 175.268 237.259 173.693 231.975C171.395 234.04 168.471 235.269 165.389 235.454C159.687 235.796 154.412 232.568 152.098 227.381C149.672 229.287 146.782 230.388 143.709 230.572C143.404 230.59 143.099 230.599 142.798 230.599C134.883 230.6 128.219 224.409 127.741 216.406C127.496 212.309 128.532 209.02 130.82 206.632C133.018 204.337 136.363 202.994 140.493 202.747C140.736 202.732 142.145 202.762 143.692 202.796C143.867 202.8 144.025 202.803 144.156 202.806C144.432 198.93 146.001 194.113 149.589 192.461C149.541 192.373 149.489 192.281 149.446 192.205C149.16 191.698 149.067 191.521 149.058 191.365C148.756 186.329 150.434 181.476 153.783 177.702C157.131 173.928 161.749 171.683 166.785 171.382C176.729 170.787 185.329 177.922 186.631 187.721C187.743 187.071 188.991 186.69 190.273 186.613C192.465 186.479 194.574 187.211 196.215 188.667C197.831 190.101 198.802 192.071 198.957 194.222C201.377 192.488 204.208 191.483 207.19 191.304C211.405 191.05 215.464 192.456 218.623 195.258C221.781 198.06 223.659 201.924 223.911 206.138C224.341 213.334 219.883 219.86 213.044 222.09C211.936 227.799 207.151 232.005 201.327 232.353C200.079 232.429 198.821 232.314 197.582 232.013C196.07 237.005 191.618 240.539 186.388 240.852C186.136 240.867 185.884 240.875 185.634 240.875ZM173.896 230.868C173.932 230.868 173.967 230.873 174.002 230.882C174.135 230.92 174.238 231.027 174.271 231.162C175.608 236.669 180.686 240.421 186.342 240.082C191.368 239.782 195.628 236.311 196.943 231.445C196.97 231.346 197.035 231.262 197.124 231.211C197.212 231.16 197.318 231.147 197.417 231.174C198.693 231.523 199.993 231.661 201.281 231.584C206.825 231.253 211.367 227.199 212.327 221.726C212.352 221.584 212.455 221.468 212.593 221.425C219.217 219.37 223.555 213.103 223.141 206.184C222.901 202.176 221.115 198.5 218.111 195.835C215.107 193.17 211.247 191.836 207.236 192.074C204.157 192.258 201.248 193.369 198.824 195.287C198.706 195.38 198.546 195.396 198.413 195.33C198.279 195.264 198.196 195.126 198.199 194.977C198.203 194.792 198.206 194.578 198.194 194.368C198.075 192.383 197.191 190.564 195.703 189.244C194.216 187.925 192.306 187.264 190.32 187.382C188.969 187.463 187.662 187.917 186.539 188.694C186.427 188.772 186.282 188.784 186.158 188.727C186.034 188.669 185.95 188.551 185.936 188.415C184.962 178.713 176.572 171.567 166.831 172.151C162 172.441 157.571 174.593 154.359 178.214C151.156 181.825 149.547 186.464 149.825 191.281C149.866 191.38 150.016 191.646 150.118 191.826C150.391 192.31 150.48 192.479 150.493 192.627C150.507 192.799 150.407 192.959 150.246 193.02C146.846 194.321 145.113 199.079 144.903 203.218C144.893 203.423 144.724 203.584 144.518 203.584C144.517 203.584 144.516 203.584 144.514 203.584C144.421 203.583 144.099 203.576 143.675 203.567C142.66 203.544 140.772 203.502 140.539 203.517C136.606 203.752 133.438 205.014 131.377 207.165C129.243 209.392 128.279 212.486 128.511 216.36C128.982 224.243 135.774 230.275 143.663 229.802C146.741 229.618 149.626 228.463 152.005 226.463C152.1 226.384 152.227 226.354 152.347 226.384C152.467 226.414 152.565 226.5 152.611 226.615C154.683 231.773 159.797 235.015 165.344 234.684C168.455 234.498 171.396 233.182 173.626 230.979C173.699 230.907 173.797 230.868 173.896 230.868Z" fill="#8B865C"/>
<path d="M169.536 253.434C168.938 253.434 168.595 252.509 167.77 250.288C167.023 248.277 165.894 245.236 164.102 241.8C162.071 237.903 159.571 234.223 156.673 230.862C156.534 230.701 156.552 230.457 156.713 230.318C156.874 230.179 157.118 230.197 157.257 230.358C160.194 233.764 162.727 237.494 164.786 241.443C166.6 244.922 167.739 247.99 168.493 250.02C168.894 251.101 169.277 252.133 169.523 252.529C169.894 251.465 169.802 246.606 168.411 241.516C167.43 237.925 165.862 234.488 163.752 231.3C163.634 231.123 163.683 230.884 163.861 230.766C164.037 230.649 164.278 230.697 164.395 230.875C166.55 234.131 168.152 237.643 169.155 241.312C170.55 246.419 170.814 251.93 170.103 253.088C169.962 253.317 169.789 253.395 169.669 253.419C169.623 253.429 169.579 253.434 169.536 253.434Z" fill="#9E9569"/>
<path d="M180.661 253.792C180.637 253.792 180.613 253.791 180.589 253.789C179.075 253.649 178.819 247.938 179.102 244.779C179.428 241.126 180.569 237.559 182.492 234.177C182.598 233.992 182.833 233.927 183.018 234.033C183.203 234.138 183.268 234.373 183.163 234.558C181.294 237.844 180.186 241.306 179.87 244.848C179.502 248.965 180.162 252.613 180.652 253.006C180.978 252.759 181.498 251.085 181.918 249.731C182.257 248.637 182.641 247.398 183.114 246.116C185.098 240.742 188.335 235.602 192.734 230.838C192.878 230.682 193.123 230.672 193.279 230.816C193.435 230.961 193.445 231.205 193.301 231.361C188.97 236.05 185.787 241.104 183.838 246.383C183.371 247.646 182.99 248.875 182.654 249.959C181.87 252.487 181.465 253.792 180.661 253.792Z" fill="#9E9569"/>
<path d="M156.061 226.11C155.875 226.11 155.712 225.975 155.681 225.786C155.203 222.842 155.762 219.795 157.255 217.206C160.84 210.989 168.815 208.848 175.032 212.433C176.109 213.055 177.087 213.821 177.94 214.711C178.087 214.865 178.082 215.109 177.928 215.257C177.774 215.403 177.53 215.398 177.382 215.245C176.581 214.407 175.661 213.686 174.647 213.101C168.798 209.729 161.295 211.743 157.923 217.592C156.518 220.027 155.992 222.893 156.442 225.663C156.476 225.873 156.333 226.071 156.123 226.105C156.102 226.108 156.082 226.11 156.061 226.11Z" fill="#8B865C"/>
<path d="M169.765 211.372C169.737 211.372 169.709 211.369 169.68 211.363C169.473 211.316 169.342 211.11 169.389 210.903C169.587 210.016 169.882 209.145 170.263 208.313C171.901 204.742 175.024 202.126 178.831 201.138C179.037 201.084 179.247 201.208 179.301 201.414C179.354 201.621 179.23 201.831 179.024 201.884C175.443 202.814 172.505 205.275 170.964 208.635C170.605 209.417 170.328 210.237 170.141 211.071C170.101 211.25 169.942 211.372 169.765 211.372Z" fill="#8B865C"/>
<path d="M149.53 214.521C149.391 214.521 149.256 214.445 149.188 214.312C146.967 210.021 147.86 204.692 151.36 201.353C155.081 197.803 160.858 197.33 165.097 200.228C165.273 200.348 165.318 200.588 165.198 200.764C165.078 200.939 164.839 200.984 164.662 200.864C160.722 198.171 155.351 198.611 151.893 201.911C148.639 205.015 147.808 209.969 149.872 213.958C149.97 214.147 149.896 214.38 149.707 214.477C149.65 214.507 149.59 214.521 149.53 214.521Z" fill="#8B865C"/>
<path d="M202.095 221.791C202.045 221.791 201.994 221.782 201.945 221.761C201.749 221.678 201.657 221.452 201.74 221.256C202.095 220.414 202.328 219.522 202.434 218.605C203.043 213.316 199.236 208.518 193.947 207.909C191.746 207.654 189.507 208.172 187.643 209.364C187.463 209.479 187.225 209.426 187.11 209.247C186.996 209.068 187.048 208.829 187.227 208.715C189.24 207.427 191.659 206.868 194.035 207.142C196.802 207.461 199.279 208.838 201.01 211.02C202.741 213.201 203.519 215.926 203.2 218.693C203.086 219.683 202.833 220.646 202.45 221.555C202.388 221.703 202.245 221.791 202.095 221.791Z" fill="#8B865C"/>
<path d="M130.744 218.791C130.644 218.791 130.543 218.752 130.467 218.674C130.319 218.521 130.323 218.277 130.475 218.129C130.948 217.67 131.475 217.263 132.041 216.918C134.468 215.44 137.439 215.208 140.194 216.282C140.392 216.36 140.49 216.583 140.413 216.782C140.336 216.98 140.112 217.078 139.914 217.001C137.384 216.015 134.662 216.225 132.442 217.576C131.925 217.891 131.444 218.263 131.012 218.682C130.938 218.755 130.841 218.791 130.744 218.791Z" fill="#8B865C"/>
<path d="M212.703 305.812L211.466 309.031L212.927 308.114L213.825 309.383L215.037 307.909L216.548 309.506L217.358 307.878L219.674 309.783L218.211 304.696L212.703 305.812Z" fill="#363E44"/>
<path d="M251.248 269.129C251.248 289.467 237.156 306.087 215.438 306.087C193.72 306.087 179.152 289.647 179.152 269.31C179.152 251.827 189.562 241.33 205.562 240.788C208.349 240.694 212.924 242.413 215.971 242.413C219.519 242.413 224.611 240.608 227.73 240.788C243.345 241.691 251.248 252.115 251.248 269.129Z" fill="#EFBC73"/>
<path d="M216.357 245.801C216.189 245.801 216.035 245.692 215.987 245.523C214.823 241.503 216.099 236.608 219.885 230.56C219.999 230.38 220.236 230.325 220.417 230.438C220.597 230.551 220.652 230.789 220.539 230.97C216.875 236.821 215.629 241.511 216.727 245.308C216.787 245.513 216.669 245.727 216.464 245.786C216.428 245.796 216.392 245.801 216.357 245.801Z" fill="#363E44"/>
<path d="M147.148 305.45C165.006 290.753 154.134 259.635 146.68 250.054C132.904 232.345 121.229 234.528 112.133 227.548C106.759 223.426 86.2237 196.519 73.4933 201.922C62.6158 206.538 74.6256 235.183 76.2341 243.227C78.3622 253.869 71.5934 272.261 81.0887 291.949C90.3995 311.254 125.3 323.431 147.148 305.45Z" fill="#8B865C"/>
<path d="M154.279 301.008C172.137 286.312 168.076 262.685 160.622 253.104C146.846 235.395 135.171 237.579 126.074 230.599C120.701 226.476 90.8987 195.476 78.1683 200.878C67.2908 205.494 88.5674 238.233 90.176 246.277C92.3041 256.919 86.4394 267.721 92.8684 283.438C100.983 303.276 132.431 318.989 154.279 301.008Z" fill="#EFBC73"/>
<path d="M135.718 309.279C132.516 309.279 129.235 308.866 125.922 308.031C112.635 304.681 100.609 294.857 95.9981 283.584C92.0105 273.835 92.7164 265.893 93.3391 258.886C93.7271 254.521 94.0935 250.399 93.2846 246.353C92.8208 244.035 90.6373 239.514 88.109 234.279C82.8494 223.391 76.3036 209.839 78.6919 203.49C79.2184 202.09 80.1646 201.092 81.5044 200.523C92.1974 195.985 114.261 216.2 124.863 225.914C127.092 227.956 128.852 229.569 129.796 230.293C132.907 232.68 136.39 234.005 140.078 235.408C147.236 238.131 155.35 241.217 164.413 252.867C167.716 257.113 171.132 265.196 170.814 275.15C170.581 282.467 168.171 292.945 158.011 301.306C151.618 306.567 143.927 309.279 135.718 309.279ZM85.0466 200.624C83.8732 200.624 82.7865 200.817 81.8057 201.233C80.6517 201.723 79.8692 202.55 79.4137 203.761C77.1419 209.802 83.8821 223.755 88.8033 233.944C91.3546 239.226 93.558 243.788 94.0407 246.202C94.8714 250.356 94.5002 254.533 94.1073 258.954C93.4923 265.874 92.7951 273.717 96.7121 283.292C101.235 294.349 113.049 303.99 126.111 307.283C137.673 310.199 148.828 307.864 157.521 300.71C175.878 285.603 170.565 262.032 163.805 253.341C154.874 241.861 146.868 238.815 139.804 236.128C136.062 234.705 132.527 233.361 129.326 230.905C128.356 230.16 126.585 228.538 124.343 226.483C114.863 217.798 96.1182 200.624 85.0466 200.624Z" fill="#8B865C"/>
<path d="M147.877 278.056C155.541 272.761 154.697 255.777 147.197 245.456C137.615 232.271 116.087 228.474 109.597 236.027C104.086 242.44 109.822 256.567 115.993 264.47C123.89 274.581 139.689 283.712 147.877 278.056Z" fill="#B77250"/>
<path d="M229.996 278.858C257.142 256.469 271.62 246.222 273.432 248.113C274.508 249.236 271.125 254.631 263.284 264.298C280.024 260.424 288.681 259.32 289.251 260.985C289.926 262.957 279.28 268.807 257.309 278.536C272.304 277.739 278.997 280.086 279.025 281.148C279.066 282.727 264.227 286.767 231.237 287.152C230.823 284.388 230.41 281.623 229.996 278.858Z" fill="#776E42"/>
<path d="M212.653 269.534C203.237 271.692 140.271 294.159 142.429 303.574C144.587 312.989 211.053 305.787 220.468 303.629C229.883 301.471 235.766 292.088 233.608 282.673C231.45 273.258 222.068 267.375 212.653 269.534Z" fill="#B77250"/>
<path d="M218.341 304.45C218.163 304.45 218.003 304.326 217.965 304.145L216.076 295.271C216.031 295.063 216.164 294.858 216.373 294.814C216.58 294.768 216.785 294.902 216.83 295.111L218.719 303.984C218.763 304.193 218.63 304.397 218.422 304.442C218.395 304.447 218.368 304.45 218.341 304.45Z" fill="#363E44"/>
<path d="M207.637 286.876C207.459 286.876 207.299 286.752 207.261 286.571L205.371 277.697C205.327 277.489 205.46 277.284 205.668 277.24C205.875 277.195 206.081 277.328 206.126 277.537L208.015 286.41C208.059 286.619 207.926 286.823 207.718 286.868C207.691 286.873 207.664 286.876 207.637 286.876Z" fill="#363E44"/>
<path d="M191.517 303.923C191.339 303.923 191.179 303.799 191.141 303.618L189.251 294.744C189.207 294.536 189.34 294.331 189.548 294.287C189.755 294.241 189.961 294.375 190.006 294.584L191.895 303.458C191.939 303.666 191.806 303.871 191.598 303.915C191.571 303.921 191.544 303.923 191.517 303.923Z" fill="#363E44"/>
<path d="M169.581 295.6C169.403 295.6 169.243 295.476 169.205 295.295L167.316 286.421C167.271 286.212 167.404 286.007 167.613 285.963C167.82 285.918 168.025 286.052 168.07 286.26L169.959 295.134C170.003 295.343 169.87 295.547 169.662 295.592C169.635 295.597 169.608 295.6 169.581 295.6Z" fill="#363E44"/>
<path d="M226.046 290.439C256.585 272.959 272.586 265.305 274.053 267.475C274.923 268.763 270.677 273.509 261.316 281.713C278.47 280.723 287.188 281.097 287.469 282.835C287.802 284.892 276.32 288.859 253.021 294.737C267.935 296.484 274.135 299.929 273.984 300.98C273.758 302.543 258.449 304.018 225.868 298.824C225.928 296.029 225.987 293.234 226.046 290.439Z" fill="#8B865C"/>
<path d="M210.528 278.318C200.884 278.855 135.026 290.361 135.563 300.005C136.099 309.65 202.826 313.78 212.471 313.244C222.115 312.707 229.498 304.454 228.962 294.81C228.426 285.165 220.172 277.782 210.528 278.318Z" fill="#D87355"/>
<path d="M210.301 313.7C210.095 313.7 209.924 313.537 209.916 313.33L209.553 304.264C209.545 304.052 209.71 303.872 209.923 303.864C210.141 303.856 210.315 304.021 210.324 304.233L210.686 313.299C210.695 313.512 210.529 313.691 210.316 313.7C210.311 313.7 210.306 313.7 210.301 313.7Z" fill="#363E44"/>
<path d="M202.72 294.57C202.514 294.57 202.343 294.408 202.335 294.2L201.972 285.135C201.963 284.922 202.129 284.742 202.342 284.734C202.56 284.723 202.734 284.891 202.742 285.104L203.105 294.169C203.114 294.382 202.948 294.561 202.735 294.57C202.73 294.57 202.725 294.57 202.72 294.57Z" fill="#363E44"/>
<path d="M183.951 308.648C183.745 308.648 183.575 308.486 183.566 308.278L183.203 299.213C183.195 299 183.36 298.821 183.573 298.812C183.794 298.807 183.965 298.969 183.974 299.182L184.336 308.247C184.345 308.46 184.179 308.64 183.967 308.648C183.961 308.648 183.956 308.648 183.951 308.648Z" fill="#363E44"/>
<path d="M163.737 296.739C163.531 296.739 163.36 296.576 163.352 296.368L162.989 287.303C162.98 287.09 163.146 286.911 163.359 286.902C163.581 286.896 163.751 287.059 163.76 287.272L164.122 296.337C164.131 296.55 163.965 296.73 163.753 296.738C163.747 296.738 163.742 296.739 163.737 296.739Z" fill="#363E44"/>
</svg>
