<svg width="282" height="60" viewBox="0 0 282 60" fill="none" xmlns="http://www.w3.org/2000/svg">
<rect width="282" height="60" rx="12" fill="white"/>
<rect x="0.5" y="0.5" width="281" height="59" rx="11.5" stroke="black" stroke-opacity="0.1"/>
<g clip-path="url(#clip0_95_1827)">
<path d="M49.5328 14.002H30.4632C26.8916 14.002 24 16.8936 24 20.4652V39.5388C24 43.1064 26.8916 45.998 30.4632 45.998H49.5368C53.1044 45.998 56 43.1064 56 39.5348V20.4652C55.996 16.8936 53.1044 14.002 49.5328 14.002Z" fill="url(#paint0_linear_95_1827)"/>
<path d="M39.8621 21.3531L40.51 20.2332C40.9099 19.5333 41.8018 19.2973 42.5017 19.6973C43.2017 20.0972 43.4376 20.9891 43.0377 21.689L36.7944 32.4957H41.3099C42.7737 32.4957 43.5935 34.2155 42.9577 35.4073H29.7194C28.9115 35.4073 28.2635 34.7594 28.2635 33.9515C28.2635 33.1437 28.9115 32.4957 29.7194 32.4957H33.4309L38.1824 24.2607L36.6985 21.685C36.2986 20.9851 36.5345 20.1012 37.2345 19.6933C37.9344 19.2933 38.8183 19.5293 39.2262 20.2292L39.8621 21.3531Z" fill="white"/>
<path d="M34.2468 36.9072L32.8469 39.3349C32.447 40.0348 31.5551 40.2707 30.8552 39.8708C30.1553 39.4709 29.9193 38.579 30.3193 37.879L31.3591 36.0793C32.5349 35.7154 33.4908 35.9953 34.2468 36.9072Z" fill="white"/>
<path d="M46.3013 32.5037H50.0888C50.8966 32.5037 51.5446 33.1517 51.5446 33.9595C51.5446 34.7674 50.8966 35.4153 50.0888 35.4153H47.985L49.4048 37.879C49.8048 38.579 49.5688 39.4628 48.8689 39.8708C48.1689 40.2707 47.2851 40.0348 46.8771 39.3348C44.4854 35.1873 42.6896 32.0838 41.4978 30.016C40.2779 27.9123 41.1499 25.8005 42.0098 25.0847C42.9657 26.7245 44.3935 29.2002 46.3013 32.5037Z" fill="white"/>
</g>
<path d="M69.12 36V24.48H72.792C72.888 24.48 73.0773 24.4827 73.36 24.488C73.648 24.4933 73.9253 24.512 74.192 24.544C75.104 24.6613 75.8747 24.9867 76.504 25.52C77.1387 26.048 77.6187 26.7227 77.944 27.544C78.2693 28.3653 78.432 29.264 78.432 30.24C78.432 31.216 78.2693 32.1147 77.944 32.936C77.6187 33.7573 77.1387 34.4347 76.504 34.968C75.8747 35.496 75.104 35.8187 74.192 35.936C73.9307 35.968 73.656 35.9867 73.368 35.992C73.08 35.9973 72.888 36 72.792 36H69.12ZM71.08 34.184H72.792C72.952 34.184 73.1547 34.1787 73.4 34.168C73.6507 34.1573 73.872 34.1333 74.064 34.096C74.608 33.9947 75.0507 33.752 75.392 33.368C75.7333 32.984 75.984 32.5173 76.144 31.968C76.3093 31.4187 76.392 30.8427 76.392 30.24C76.392 29.616 76.3093 29.0293 76.144 28.48C75.9787 27.9307 75.7227 27.4693 75.376 27.096C75.0347 26.7227 74.5973 26.4853 74.064 26.384C73.872 26.3413 73.6507 26.3173 73.4 26.312C73.1547 26.3013 72.952 26.296 72.792 26.296H71.08V34.184ZM83.8191 36.24C82.9551 36.24 82.2005 36.0453 81.5551 35.656C80.9098 35.2667 80.4085 34.7307 80.0511 34.048C79.6991 33.36 79.5231 32.5707 79.5231 31.68C79.5231 30.7733 79.7045 29.9787 80.0671 29.296C80.4298 28.6133 80.9338 28.08 81.5791 27.696C82.2245 27.312 82.9711 27.12 83.8191 27.12C84.6885 27.12 85.4458 27.3147 86.0911 27.704C86.7365 28.0933 87.2378 28.632 87.5951 29.32C87.9525 30.0027 88.1311 30.7893 88.1311 31.68C88.1311 32.576 87.9498 33.368 87.5871 34.056C87.2298 34.7387 86.7285 35.2747 86.0831 35.664C85.4378 36.048 84.6831 36.24 83.8191 36.24ZM83.8191 34.432C84.5871 34.432 85.1578 34.176 85.5311 33.664C85.9045 33.152 86.0911 32.4907 86.0911 31.68C86.0911 30.8427 85.9018 30.176 85.5231 29.68C85.1445 29.1787 84.5765 28.928 83.8191 28.928C83.3018 28.928 82.8751 29.0453 82.5391 29.28C82.2085 29.5093 81.9631 29.832 81.8031 30.248C81.6431 30.6587 81.5631 31.136 81.5631 31.68C81.5631 32.5173 81.7525 33.1867 82.1311 33.688C82.5151 34.184 83.0778 34.432 83.8191 34.432ZM91.1013 36L88.4613 27.344L90.3493 27.36L92.0373 32.904L93.7493 27.36H95.3733L97.0773 32.904L98.7733 27.36H100.661L98.0213 36H96.5173L94.5573 30.056L92.6053 36H91.1013ZM107.761 36V31.84C107.761 31.568 107.742 31.2667 107.705 30.936C107.668 30.6053 107.58 30.288 107.441 29.984C107.308 29.6747 107.105 29.4213 106.833 29.224C106.566 29.0267 106.204 28.928 105.745 28.928C105.5 28.928 105.257 28.968 105.017 29.048C104.777 29.128 104.558 29.2667 104.361 29.464C104.169 29.656 104.014 29.9227 103.897 30.264C103.78 30.6 103.721 31.032 103.721 31.56L102.577 31.072C102.577 30.336 102.718 29.6693 103.001 29.072C103.289 28.4747 103.71 28 104.265 27.648C104.82 27.2907 105.502 27.112 106.313 27.112C106.953 27.112 107.481 27.2187 107.897 27.432C108.313 27.6453 108.644 27.9173 108.889 28.248C109.134 28.5787 109.316 28.9307 109.433 29.304C109.55 29.6773 109.625 30.032 109.657 30.368C109.694 30.6987 109.713 30.968 109.713 31.176V36H107.761ZM101.769 36V27.36H103.489V30.04H103.721V36H101.769ZM111.641 36V24.24H113.569V36H111.641ZM119.461 36.24C118.597 36.24 117.842 36.0453 117.197 35.656C116.552 35.2667 116.05 34.7307 115.693 34.048C115.341 33.36 115.165 32.5707 115.165 31.68C115.165 30.7733 115.346 29.9787 115.709 29.296C116.072 28.6133 116.576 28.08 117.221 27.696C117.866 27.312 118.613 27.12 119.461 27.12C120.33 27.12 121.088 27.3147 121.733 27.704C122.378 28.0933 122.88 28.632 123.237 29.32C123.594 30.0027 123.773 30.7893 123.773 31.68C123.773 32.576 123.592 33.368 123.229 34.056C122.872 34.7387 122.37 35.2747 121.725 35.664C121.08 36.048 120.325 36.24 119.461 36.24ZM119.461 34.432C120.229 34.432 120.8 34.176 121.173 33.664C121.546 33.152 121.733 32.4907 121.733 31.68C121.733 30.8427 121.544 30.176 121.165 29.68C120.786 29.1787 120.218 28.928 119.461 28.928C118.944 28.928 118.517 29.0453 118.181 29.28C117.85 29.5093 117.605 29.832 117.445 30.248C117.285 30.6587 117.205 31.136 117.205 31.68C117.205 32.5173 117.394 33.1867 117.773 33.688C118.157 34.184 118.72 34.432 119.461 34.432ZM127.632 36.24C127.008 36.24 126.48 36.1227 126.048 35.888C125.616 35.648 125.288 35.3307 125.064 34.936C124.845 34.5413 124.736 34.1067 124.736 33.632C124.736 33.216 124.805 32.8427 124.944 32.512C125.082 32.176 125.296 31.888 125.584 31.648C125.872 31.4027 126.245 31.2027 126.704 31.048C127.05 30.936 127.456 30.8347 127.92 30.744C128.389 30.6533 128.896 30.5707 129.44 30.496C129.989 30.416 130.562 30.3307 131.16 30.24L130.472 30.632C130.477 30.0347 130.344 29.5947 130.072 29.312C129.8 29.0293 129.341 28.888 128.696 28.888C128.306 28.888 127.93 28.9787 127.568 29.16C127.205 29.3413 126.952 29.6533 126.808 30.096L125.048 29.544C125.261 28.8133 125.666 28.2267 126.264 27.784C126.866 27.3413 127.677 27.12 128.696 27.12C129.464 27.12 130.138 27.2453 130.72 27.496C131.306 27.7467 131.741 28.1573 132.024 28.728C132.178 29.032 132.272 29.344 132.304 29.664C132.336 29.9787 132.352 30.3227 132.352 30.696V36H130.664V34.128L130.944 34.432C130.554 35.056 130.098 35.5147 129.576 35.808C129.058 36.096 128.41 36.24 127.632 36.24ZM128.016 34.704C128.453 34.704 128.826 34.6267 129.136 34.472C129.445 34.3173 129.69 34.128 129.872 33.904C130.058 33.68 130.184 33.4693 130.248 33.272C130.349 33.0267 130.405 32.7467 130.416 32.432C130.432 32.112 130.44 31.8533 130.44 31.656L131.032 31.832C130.45 31.9227 129.952 32.0027 129.536 32.072C129.12 32.1413 128.762 32.208 128.464 32.272C128.165 32.3307 127.901 32.3973 127.672 32.472C127.448 32.552 127.258 32.6453 127.104 32.752C126.949 32.8587 126.829 32.9813 126.744 33.12C126.664 33.2587 126.624 33.4213 126.624 33.608C126.624 33.8213 126.677 34.0107 126.784 34.176C126.89 34.336 127.045 34.464 127.248 34.56C127.456 34.656 127.712 34.704 128.016 34.704ZM137.578 36.24C136.784 36.24 136.09 36.04 135.498 35.64C134.906 35.24 134.448 34.696 134.122 34.008C133.797 33.32 133.634 32.544 133.634 31.68C133.634 30.8053 133.797 30.0267 134.122 29.344C134.453 28.656 134.92 28.1147 135.522 27.72C136.125 27.32 136.834 27.12 137.65 27.12C138.472 27.12 139.16 27.32 139.714 27.72C140.274 28.1147 140.698 28.656 140.986 29.344C141.274 30.032 141.418 30.8107 141.418 31.68C141.418 32.5387 141.274 33.3147 140.986 34.008C140.698 34.696 140.269 35.24 139.698 35.64C139.128 36.04 138.421 36.24 137.578 36.24ZM137.874 34.512C138.392 34.512 138.808 34.3947 139.122 34.16C139.442 33.92 139.674 33.5867 139.818 33.16C139.968 32.7333 140.042 32.24 140.042 31.68C140.042 31.1147 139.968 30.6213 139.818 30.2C139.674 29.7733 139.448 29.4427 139.138 29.208C138.829 28.968 138.429 28.848 137.938 28.848C137.421 28.848 136.994 28.976 136.658 29.232C136.322 29.4827 136.074 29.824 135.914 30.256C135.754 30.6827 135.674 31.1573 135.674 31.68C135.674 32.208 135.752 32.688 135.906 33.12C136.066 33.5467 136.309 33.8853 136.634 34.136C136.96 34.3867 137.373 34.512 137.874 34.512ZM140.042 36V29.936H139.802V24.48H141.746V36H140.042ZM147.305 36V27.224C147.305 27.0053 147.313 26.7653 147.329 26.504C147.345 26.2373 147.39 25.9733 147.465 25.712C147.539 25.4507 147.675 25.2133 147.873 25C148.118 24.728 148.382 24.5413 148.665 24.44C148.953 24.3333 149.235 24.2747 149.513 24.264C149.79 24.248 150.033 24.24 150.241 24.24H151.321V25.808H150.321C149.953 25.808 149.678 25.9013 149.497 26.088C149.321 26.2693 149.233 26.5093 149.233 26.808V36H147.305ZM145.913 28.872V27.36H151.321V28.872H145.913ZM152.279 36V27.36H153.983V29.464L153.775 29.192C153.882 28.904 154.023 28.6427 154.199 28.408C154.381 28.168 154.597 27.9707 154.847 27.816C155.061 27.672 155.295 27.56 155.551 27.48C155.813 27.3947 156.079 27.344 156.351 27.328C156.623 27.3067 156.887 27.3173 157.143 27.36V29.16C156.887 29.0853 156.591 29.0613 156.255 29.088C155.925 29.1147 155.626 29.208 155.359 29.368C155.093 29.512 154.874 29.696 154.703 29.92C154.538 30.144 154.415 30.4 154.335 30.688C154.255 30.9707 154.215 31.2773 154.215 31.608V36H152.279ZM162.01 36.24C161.146 36.24 160.391 36.0453 159.746 35.656C159.1 35.2667 158.599 34.7307 158.242 34.048C157.89 33.36 157.714 32.5707 157.714 31.68C157.714 30.7733 157.895 29.9787 158.258 29.296C158.62 28.6133 159.124 28.08 159.77 27.696C160.415 27.312 161.162 27.12 162.01 27.12C162.879 27.12 163.636 27.3147 164.282 27.704C164.927 28.0933 165.428 28.632 165.786 29.32C166.143 30.0027 166.322 30.7893 166.322 31.68C166.322 32.576 166.14 33.368 165.778 34.056C165.42 34.7387 164.919 35.2747 164.274 35.664C163.628 36.048 162.874 36.24 162.01 36.24ZM162.01 34.432C162.778 34.432 163.348 34.176 163.722 33.664C164.095 33.152 164.282 32.4907 164.282 31.68C164.282 30.8427 164.092 30.176 163.714 29.68C163.335 29.1787 162.767 28.928 162.01 28.928C161.492 28.928 161.066 29.0453 160.73 29.28C160.399 29.5093 160.154 29.832 159.994 30.248C159.834 30.6587 159.754 31.136 159.754 31.68C159.754 32.5173 159.943 33.1867 160.322 33.688C160.706 34.184 161.268 34.432 162.01 34.432ZM178.14 36V30.752C178.14 30.16 177.994 29.6987 177.7 29.368C177.407 29.032 177.01 28.864 176.508 28.864C176.199 28.864 175.922 28.936 175.676 29.08C175.431 29.2187 175.236 29.4267 175.092 29.704C174.948 29.976 174.876 30.3013 174.876 30.68L174.02 30.176C174.015 29.5787 174.148 29.0533 174.42 28.6C174.698 28.1413 175.071 27.784 175.54 27.528C176.01 27.272 176.532 27.144 177.108 27.144C178.063 27.144 178.794 27.432 179.3 28.008C179.812 28.5787 180.068 29.3307 180.068 30.264V36H178.14ZM167.748 36V27.36H169.452V30.04H169.692V36H167.748ZM172.956 36V30.776C172.956 30.1733 172.81 29.704 172.516 29.368C172.223 29.032 171.823 28.864 171.316 28.864C170.826 28.864 170.431 29.032 170.132 29.368C169.839 29.704 169.692 30.1413 169.692 30.68L168.828 30.104C168.828 29.544 168.967 29.04 169.244 28.592C169.522 28.144 169.895 27.792 170.364 27.536C170.839 27.2747 171.37 27.144 171.956 27.144C172.602 27.144 173.14 27.2827 173.572 27.56C174.01 27.832 174.335 28.2053 174.548 28.68C174.767 29.1493 174.876 29.68 174.876 30.272V36H172.956ZM183.918 36L187.55 24.48H190.374L194.006 36H192.022L188.726 25.664H189.158L185.902 36H183.918ZM185.942 33.504V31.704H191.99V33.504H185.942ZM199.284 36.24C198.442 36.24 197.735 36.04 197.164 35.64C196.594 35.24 196.164 34.696 195.876 34.008C195.588 33.3147 195.444 32.5387 195.444 31.68C195.444 30.8107 195.588 30.032 195.876 29.344C196.164 28.656 196.586 28.1147 197.14 27.72C197.7 27.32 198.391 27.12 199.212 27.12C200.028 27.12 200.735 27.32 201.332 27.72C201.935 28.1147 202.402 28.656 202.732 29.344C203.063 30.0267 203.228 30.8053 203.228 31.68C203.228 32.544 203.066 33.32 202.74 34.008C202.415 34.696 201.956 35.24 201.364 35.64C200.772 36.04 200.079 36.24 199.284 36.24ZM195.116 39.84V27.36H196.82V33.424H197.06V39.84H195.116ZM198.988 34.512C199.49 34.512 199.903 34.3867 200.228 34.136C200.554 33.8853 200.794 33.5467 200.948 33.12C201.108 32.688 201.188 32.208 201.188 31.68C201.188 31.1573 201.108 30.6827 200.948 30.256C200.788 29.824 200.54 29.4827 200.204 29.232C199.868 28.976 199.442 28.848 198.924 28.848C198.434 28.848 198.034 28.968 197.724 29.208C197.415 29.4427 197.186 29.7733 197.036 30.2C196.892 30.6213 196.82 31.1147 196.82 31.68C196.82 32.24 196.892 32.7333 197.036 33.16C197.186 33.5867 197.418 33.92 197.732 34.16C198.052 34.3947 198.471 34.512 198.988 34.512ZM208.824 36.24C207.981 36.24 207.275 36.04 206.704 35.64C206.133 35.24 205.704 34.696 205.416 34.008C205.128 33.3147 204.984 32.5387 204.984 31.68C204.984 30.8107 205.128 30.032 205.416 29.344C205.704 28.656 206.125 28.1147 206.68 27.72C207.24 27.32 207.931 27.12 208.752 27.12C209.568 27.12 210.275 27.32 210.872 27.72C211.475 28.1147 211.941 28.656 212.272 29.344C212.603 30.0267 212.768 30.8053 212.768 31.68C212.768 32.544 212.605 33.32 212.28 34.008C211.955 34.696 211.496 35.24 210.904 35.64C210.312 36.04 209.619 36.24 208.824 36.24ZM204.656 39.84V27.36H206.36V33.424H206.6V39.84H204.656ZM208.528 34.512C209.029 34.512 209.443 34.3867 209.768 34.136C210.093 33.8853 210.333 33.5467 210.488 33.12C210.648 32.688 210.728 32.208 210.728 31.68C210.728 31.1573 210.648 30.6827 210.488 30.256C210.328 29.824 210.08 29.4827 209.744 29.232C209.408 28.976 208.981 28.848 208.464 28.848C207.973 28.848 207.573 28.968 207.264 29.208C206.955 29.4427 206.725 29.7733 206.576 30.2C206.432 30.6213 206.36 31.1147 206.36 31.68C206.36 32.24 206.432 32.7333 206.576 33.16C206.725 33.5867 206.957 33.92 207.272 34.16C207.592 34.3947 208.011 34.512 208.528 34.512ZM221.358 36.24C220.516 36.24 219.756 36.0933 219.078 35.8C218.406 35.5067 217.852 35.088 217.414 34.544C216.982 33.9947 216.708 33.344 216.59 32.592L218.59 32.288C218.761 32.9707 219.11 33.4987 219.638 33.872C220.172 34.2453 220.785 34.432 221.478 34.432C221.889 34.432 222.276 34.368 222.638 34.24C223.001 34.112 223.294 33.9253 223.518 33.68C223.748 33.4347 223.862 33.1333 223.862 32.776C223.862 32.616 223.836 32.4693 223.782 32.336C223.729 32.1973 223.649 32.0747 223.542 31.968C223.441 31.8613 223.308 31.7653 223.142 31.68C222.982 31.5893 222.796 31.512 222.582 31.448L219.606 30.568C219.35 30.4933 219.073 30.3947 218.774 30.272C218.481 30.144 218.201 29.9707 217.934 29.752C217.673 29.528 217.457 29.2453 217.286 28.904C217.121 28.5573 217.038 28.1307 217.038 27.624C217.038 26.8827 217.225 26.2613 217.598 25.76C217.977 25.2533 218.484 24.8747 219.118 24.624C219.758 24.3733 220.468 24.2507 221.246 24.256C222.036 24.2613 222.74 24.3973 223.358 24.664C223.977 24.9253 224.494 25.3067 224.91 25.808C225.326 26.3093 225.62 26.9147 225.79 27.624L223.718 27.984C223.633 27.5787 223.468 27.2347 223.222 26.952C222.982 26.664 222.686 26.4453 222.334 26.296C221.988 26.1467 221.617 26.0667 221.222 26.056C220.838 26.0507 220.481 26.1093 220.15 26.232C219.825 26.3493 219.561 26.52 219.358 26.744C219.161 26.968 219.062 27.2293 219.062 27.528C219.062 27.8107 219.148 28.0427 219.318 28.224C219.489 28.4 219.7 28.5413 219.95 28.648C220.206 28.7493 220.465 28.8347 220.726 28.904L222.79 29.48C223.073 29.5547 223.39 29.656 223.742 29.784C224.094 29.912 224.433 30.0907 224.758 30.32C225.084 30.5493 225.35 30.8507 225.558 31.224C225.772 31.5973 225.878 32.072 225.878 32.648C225.878 33.2453 225.753 33.7707 225.502 34.224C225.257 34.672 224.924 35.0453 224.502 35.344C224.081 35.6427 223.598 35.8667 223.054 36.016C222.516 36.1653 221.95 36.24 221.358 36.24ZM232.354 36C231.783 36.1067 231.223 36.152 230.674 36.136C230.13 36.1253 229.642 36.0267 229.21 35.84C228.778 35.648 228.45 35.3467 228.226 34.936C228.029 34.5627 227.925 34.1813 227.914 33.792C227.903 33.4027 227.898 32.9627 227.898 32.472V24.96H229.818V32.36C229.818 32.7067 229.821 33.0107 229.826 33.272C229.837 33.5333 229.893 33.7467 229.994 33.912C230.186 34.232 230.493 34.4107 230.914 34.448C231.335 34.4853 231.815 34.464 232.354 34.384V36ZM226.33 28.872V27.36H232.354V28.872H226.33ZM237.27 36.24C236.406 36.24 235.652 36.0453 235.006 35.656C234.361 35.2667 233.86 34.7307 233.502 34.048C233.15 33.36 232.974 32.5707 232.974 31.68C232.974 30.7733 233.156 29.9787 233.518 29.296C233.881 28.6133 234.385 28.08 235.03 27.696C235.676 27.312 236.422 27.12 237.27 27.12C238.14 27.12 238.897 27.3147 239.542 27.704C240.188 28.0933 240.689 28.632 241.046 29.32C241.404 30.0027 241.582 30.7893 241.582 31.68C241.582 32.576 241.401 33.368 241.038 34.056C240.681 34.7387 240.18 35.2747 239.534 35.664C238.889 36.048 238.134 36.24 237.27 36.24ZM237.27 34.432C238.038 34.432 238.609 34.176 238.982 33.664C239.356 33.152 239.542 32.4907 239.542 31.68C239.542 30.8427 239.353 30.176 238.974 29.68C238.596 29.1787 238.028 28.928 237.27 28.928C236.753 28.928 236.326 29.0453 235.99 29.28C235.66 29.5093 235.414 29.832 235.254 30.248C235.094 30.6587 235.014 31.136 235.014 31.68C235.014 32.5173 235.204 33.1867 235.582 33.688C235.966 34.184 236.529 34.432 237.27 34.432ZM243.025 36V27.36H244.729V29.464L244.521 29.192C244.628 28.904 244.769 28.6427 244.945 28.408C245.126 28.168 245.342 27.9707 245.593 27.816C245.806 27.672 246.041 27.56 246.297 27.48C246.558 27.3947 246.825 27.344 247.097 27.328C247.369 27.3067 247.633 27.3173 247.889 27.36V29.16C247.633 29.0853 247.337 29.0613 247.001 29.088C246.67 29.1147 246.372 29.208 246.105 29.368C245.838 29.512 245.62 29.696 245.449 29.92C245.284 30.144 245.161 30.4 245.081 30.688C245.001 30.9707 244.961 31.2773 244.961 31.608V36H243.025ZM252.867 36.24C251.993 36.24 251.225 36.0507 250.563 35.672C249.902 35.2933 249.385 34.768 249.011 34.096C248.643 33.424 248.459 32.6507 248.459 31.776C248.459 30.832 248.641 30.0133 249.003 29.32C249.366 28.6213 249.87 28.08 250.515 27.696C251.161 27.312 251.907 27.12 252.755 27.12C253.651 27.12 254.411 27.3307 255.035 27.752C255.665 28.168 256.131 28.7573 256.435 29.52C256.739 30.2827 256.854 31.1813 256.779 32.216H254.867V31.512C254.862 30.5733 254.697 29.888 254.371 29.456C254.046 29.024 253.534 28.808 252.835 28.808C252.046 28.808 251.459 29.0533 251.075 29.544C250.691 30.0293 250.499 30.7413 250.499 31.68C250.499 32.5547 250.691 33.232 251.075 33.712C251.459 34.192 252.019 34.432 252.755 34.432C253.23 34.432 253.638 34.328 253.979 34.12C254.326 33.9067 254.593 33.6 254.779 33.2L256.683 33.776C256.353 34.5547 255.841 35.16 255.147 35.592C254.459 36.024 253.699 36.24 252.867 36.24ZM249.891 32.216V30.76H255.835V32.216H249.891Z" fill="black"/>
<defs>
<linearGradient id="paint0_linear_95_1827" x1="40" y1="14.002" x2="40" y2="45.998" gradientUnits="userSpaceOnUse">
<stop stop-color="#00BFFC"/>
<stop offset="1" stop-color="#0073F6"/>
</linearGradient>
<clipPath id="clip0_95_1827">
<rect width="32" height="32" fill="white" transform="translate(24 14)"/>
</clipPath>
</defs>
</svg>
