<svg width="315" height="50" viewBox="0 0 315 50" fill="none" xmlns="http://www.w3.org/2000/svg">
<path d="M189.819 7.73088C189.521 7.57193 189.192 7.46384 188.849 7.38118C188.711 7.31972 188.562 7.26674 188.389 7.23706C186.954 6.98698 185.527 7.10991 184.17 7.50305C182.727 7.75738 181.323 8.21621 180.059 8.96541C178.316 9.99861 176.903 11.479 176.17 13.273C175.162 11.0541 173.198 9.22822 170.947 8.35716C168.995 7.60266 166.849 7.75101 164.837 7.24872C163.976 7.03467 163.169 6.68073 162.395 6.25261C161.51 5.76304 160.606 5.24485 159.978 4.43737C159.625 3.98065 158.85 4.38016 159.172 4.90471C159.323 5.14949 159.476 5.39003 159.631 5.62528C159.633 5.63376 159.632 5.64012 159.634 5.6486C159.981 7.0707 160.419 8.42604 161.11 9.63197C160.556 9.23353 159.56 9.36811 158.966 9.42639C157.908 9.52918 156.868 9.8227 155.873 10.1904C153.823 10.9481 151.969 12.1466 150.307 13.5433C146.718 16.557 144.37 20.7481 142.606 25.0038C141.678 27.2418 140.907 29.5403 140.167 31.8451C139.388 34.2665 138.612 36.7239 138.458 39.2767C138.185 43.8058 140.576 48.2819 145.287 49.3077C147.661 49.8248 150.114 49.5419 152.372 48.692C152.404 48.6952 152.437 48.6963 152.471 48.6931C154.222 48.5363 155.819 48.9803 157.533 49.224C159.053 49.4412 160.581 49.5514 162.116 49.5567C165.196 49.5673 168.368 49.2325 171.301 48.266C173.432 47.5635 175.458 46.5239 177.272 45.2099C180.35 43.5271 182.887 41.1248 184.21 37.7645C185.043 35.6494 185.213 33.3478 184.729 31.1987C185.333 31.3502 185.942 31.4107 186.519 31.2951C186.573 31.2845 186.622 31.2676 186.669 31.2485C186.935 31.3227 187.241 31.3216 187.462 31.1531C187.788 30.9052 187.962 30.6964 187.973 30.2704C187.981 29.9313 187.775 29.5435 187.462 29.3888C185.83 28.5823 184.109 27.6848 183.58 25.8187C183.077 24.0479 183.449 22.1808 183.252 20.3751C183.077 18.7866 182.534 17.0349 181.245 15.9816C180.565 15.4263 179.775 15.1487 178.95 15.0364C179.23 14.6581 179.539 14.3009 179.872 13.964C180.434 13.538 181.041 13.1533 181.681 12.8714C182.562 12.4836 183.489 12.243 184.431 12.0523C185.394 11.8573 186.374 11.8086 187.281 11.4228C187.489 11.3349 187.586 11.1653 187.602 10.9809C187.606 10.9778 187.611 10.9757 187.614 10.9725C187.647 10.947 187.669 10.9121 187.701 10.8845C187.765 10.8803 187.826 10.876 187.891 10.8718C188.95 10.8061 189.643 9.87039 189.721 8.95906C190.225 8.76407 190.325 8.00004 189.819 7.73088ZM164.597 10.4681C164.586 10.4617 164.576 10.4522 164.564 10.4447C164.923 10.6291 165.283 10.8124 165.642 10.9958C165.283 10.8411 164.931 10.6694 164.597 10.4681ZM174.357 15.1476C174.211 15.1699 174.068 15.208 173.94 15.278C173.789 14.7555 173.504 14.2797 173.113 13.9406C173.356 13.8474 173.549 13.6937 173.696 13.5083C173.981 14.0297 174.196 14.5765 174.357 15.1476ZM162.749 8.62102C162.846 8.6687 162.945 8.70473 163.042 8.74712C163.008 8.92091 162.998 9.09788 163.039 9.26638C162.815 9.05762 162.583 8.85732 162.387 8.62525C162.284 8.50339 162.188 8.37836 162.097 8.25014C162.303 8.3826 162.519 8.50763 162.749 8.62102ZM161.621 10.4108C161.569 10.4108 161.516 10.4108 161.463 10.4119C161.479 10.3494 161.488 10.2858 161.48 10.219C161.524 10.2847 161.575 10.3462 161.621 10.4108ZM144.215 27.5799C145.62 23.7936 147.416 20.0042 150.148 16.9682C151.525 15.439 153.076 14.0615 154.852 13.0039C155.409 12.6722 155.991 12.3734 156.583 12.0968C154.798 13.2762 153.191 14.9134 151.827 16.5125C151.203 17.142 150.618 17.8223 150.072 18.5355C150.005 18.6033 149.939 18.67 149.873 18.7378C149.697 18.9148 149.571 19.1236 149.486 19.3461C148.163 21.2324 147.105 23.2945 146.364 25.2486C146.07 26.0253 145.824 26.836 145.635 27.6636C145.02 28.5611 144.438 29.482 143.901 30.4304C143.372 31.3672 142.747 32.4937 142.165 33.7091C142.187 33.6424 142.205 33.5745 142.226 33.5078C142.849 31.5187 143.489 29.5339 144.215 27.5799ZM152.169 45.4356C151.954 45.5395 151.727 45.62 151.505 45.7101C151.862 45.4791 152.21 45.2311 152.542 44.9672C152.592 45.0287 152.651 45.0764 152.702 45.1357C152.525 45.2343 152.355 45.3466 152.169 45.4356Z" fill="#A7A9AC"/>
<path d="M271.795 26.3826C270.767 26.9792 270.103 28.1141 270.092 29.2956C270.089 29.6199 270.129 29.9484 270.218 30.261C270.411 30.9382 270.673 31.255 271.121 31.7859C271.532 32.1896 272.015 32.4694 272.572 32.6241C273.155 32.7788 273.737 32.7788 274.32 32.6241C274.329 32.6209 274.339 32.6178 274.349 32.6146C274.629 32.5489 274.883 32.4376 275.115 32.2903C275.218 32.2458 275.318 32.1981 275.417 32.1473C276.133 31.7721 276.726 30.9477 276.938 30.1868C277.176 29.3274 277.015 28.4341 276.604 27.6595C275.715 25.9778 273.403 25.45 271.795 26.3826Z" fill="#386641"/>
<path d="M266.287 26.5077C265.723 25.9492 265.317 25.803 264.589 25.5211C264.108 25.3929 263.627 25.3611 263.147 25.4247C261.841 25.4639 260.643 26.1972 259.94 27.2823C259.166 28.4755 259.192 30.0513 259.912 31.2593C260.619 32.4462 261.984 33.3236 263.406 33.2727C264.296 33.2409 265.089 32.976 265.79 32.4398C266.251 32.0869 266.468 31.9397 266.801 31.36C266.969 31.0644 267.115 30.7199 267.229 30.3999C267.47 29.7281 267.468 28.8528 267.277 28.1672C267.099 27.5292 266.758 26.9729 266.287 26.5077Z" fill="#386641"/>
<path d="M255.159 25.9269C254.557 25.5803 253.907 25.4065 253.21 25.4044C252.513 25.4065 251.863 25.5803 251.261 25.9269C251.151 26.0085 251.03 26.0953 250.91 26.1844C250.763 26.2861 250.607 26.4069 250.476 26.5213C250.372 26.605 250.279 26.6994 250.194 26.8032C250.125 26.8837 250.052 26.9749 249.983 27.066C249.86 27.1752 249.763 27.3002 249.702 27.4454C249.542 27.6955 249.434 27.9487 249.356 28.2073C249.348 28.2348 249.341 28.2624 249.334 28.29C249.316 28.3557 249.299 28.4214 249.285 28.4871C249.275 28.5305 249.266 28.5739 249.258 28.6185C249.227 28.7848 249.204 28.9544 249.185 29.1271C249.166 29.2341 249.153 29.3422 249.153 29.4492C249.153 29.6167 249.176 29.7841 249.222 29.9505C249.245 30.4528 249.395 30.9201 249.674 31.3535C249.872 31.6078 250.07 31.8622 250.269 32.1175C251.483 33.3934 253.571 33.6064 255.072 32.7364C256.236 32.0614 257.166 30.6096 257.074 29.232C257.072 28.5411 256.897 27.8968 256.547 27.3002C256.201 26.7248 255.739 26.267 255.159 25.9269Z" fill="#386641"/>
<path d="M246.085 27.2375C245.743 26.6038 245.077 25.9786 244.455 25.6236C242.785 24.6698 240.592 24.9433 239.236 26.3145C238.721 26.8359 238.409 27.4293 238.181 28.1117C238.055 28.49 238.014 28.9022 238.014 29.3007C238.014 30.0637 238.222 30.8341 238.607 31.4942C238.799 31.8249 239.031 32.1481 239.316 32.4045C239.853 32.8898 240.43 33.2629 241.141 33.4621C241.874 33.6677 242.608 33.638 243.34 33.4769C243.721 33.3932 244.143 33.2003 244.517 32.9587C244.875 32.7765 245.211 32.5423 245.521 32.2604C245.906 31.9065 246.177 31.4868 246.336 31.0025C246.583 30.5373 246.697 30.035 246.676 29.4967C246.717 29.093 246.647 28.6659 246.527 28.2823C246.426 27.9623 246.246 27.5342 246.085 27.2375Z" fill="#386641"/>
<path d="M234.949 27.4941C234.786 27.2842 234.622 27.0744 234.459 26.8646C234.176 26.3952 233.882 26.1652 233.451 25.8346C233.321 25.699 233.175 25.5887 233.012 25.5061C232.69 25.3715 232.368 25.2369 232.046 25.1013C231.747 25.0165 231.208 24.9752 230.898 24.9445C230.167 24.9466 229.485 25.1299 228.853 25.4923C228.244 25.8494 227.759 26.3295 227.399 26.9335C226.971 27.5969 226.75 28.5018 226.77 29.2828C226.792 30.1433 226.965 30.6784 227.355 31.4361C227.464 31.648 227.598 31.7826 227.761 31.9914C228.172 32.5202 228.317 32.7162 228.996 33.1157C229.662 33.5078 230.404 33.7166 231.179 33.724C231.951 33.7303 232.72 33.5353 233.389 33.1475C234.166 32.6961 234.421 32.2997 234.948 31.5929C235.247 31.1267 235.409 30.6233 235.435 30.0839C235.556 29.5446 235.532 29.0052 235.362 28.4647C235.224 28.1405 235.086 27.8173 234.949 27.4941Z" fill="#386641"/>
<path d="M223.09 26.0868C222.84 25.8409 222.545 25.6703 222.206 25.576C221.728 25.327 221.214 25.2136 220.662 25.2337C220.307 25.2814 219.953 25.328 219.598 25.3757C219.258 25.4563 218.949 25.5898 218.666 25.7668C218.214 25.948 217.794 26.2086 217.451 26.57C216.92 27.1284 216.597 27.6509 216.382 28.3937C216.086 29.4174 216.294 30.5078 216.784 31.4287C217.272 32.3432 218.286 33.0171 219.271 33.2842C220.353 33.5777 221.562 33.4389 222.534 32.8815C223.51 32.322 224.244 31.3439 224.526 30.2619C224.801 29.1991 224.63 28.1563 224.121 27.2016C223.87 26.7385 223.526 26.3676 223.09 26.0868Z" fill="#386641"/>
<path d="M213.245 27.0659L213.243 27.0627C213.184 26.9779 213.124 26.8942 213.058 26.8147C213.023 26.7724 212.985 26.731 212.949 26.6908C212.905 26.642 212.867 26.5911 212.82 26.5445C212.685 26.3707 212.204 26.0316 212.013 25.9246C211.449 25.6088 210.804 25.4626 210.162 25.4287C209.469 25.3916 208.789 25.6258 208.188 25.9447C207.891 26.1026 207.619 26.3156 207.394 26.5625C207.199 26.8126 207.005 27.0616 206.81 27.3117C206.742 27.4717 206.673 27.6318 206.606 27.7918C206.362 28.3651 206.426 28.1457 206.346 28.7455C206.306 29.0115 206.263 29.3177 206.272 29.3908C206.275 30.0871 206.452 30.7345 206.804 31.3364C207.048 31.7857 207.382 32.146 207.805 32.4173C208.18 32.7585 208.622 32.9874 209.128 33.1072C209.817 33.2905 210.505 33.2905 211.195 33.1072C211.209 33.105 211.223 33.1029 211.235 33.1008C211.74 32.9821 212.179 32.7532 212.553 32.4131C212.976 32.1418 213.308 31.7825 213.552 31.3354C213.682 31.0291 213.813 30.7239 213.942 30.4177C213.988 30.0775 214.034 29.7363 214.081 29.3961C214.101 28.8674 213.99 28.3735 213.748 27.9158C213.651 27.5883 213.486 27.3054 213.245 27.0659Z" fill="#386641"/>
<path d="M204.064 27.4698C204.051 27.4348 204.032 27.403 204.007 27.3744C203.801 27.1095 203.595 26.8446 203.387 26.5797C203.257 26.4451 203.11 26.3296 202.946 26.2321C202.808 26.1197 202.666 26.0117 202.522 25.9078C202.5 25.8898 202.476 25.8771 202.449 25.8675C202.131 25.7351 201.814 25.6016 201.497 25.4691C201.175 25.3769 200.661 25.3313 200.326 25.3091C199.603 25.3112 198.93 25.4924 198.306 25.8506C197.84 26.0996 197.465 26.4408 197.183 26.8721C196.829 27.2557 196.591 27.705 196.467 28.2211C196.3 28.7488 196.277 29.2755 196.395 29.8032C196.42 30.3309 196.578 30.8226 196.87 31.2783C197.226 31.8749 197.705 32.3486 198.306 32.7015C198.624 32.835 198.943 32.9685 199.262 33.102C199.29 33.1094 199.318 33.1116 199.347 33.119C199.771 33.2578 200.218 33.3341 200.657 33.3542C201.2 33.3744 201.707 33.262 202.177 33.0172C202.512 32.924 202.802 32.7566 203.048 32.5139C203.477 32.2384 203.816 31.8728 204.064 31.4171C204.197 31.1056 204.329 30.794 204.462 30.4825C204.626 29.9622 204.65 29.4429 204.532 28.9226C204.509 28.4034 204.353 27.9191 204.064 27.4698Z" fill="#386641"/>
<path d="M193.419 26.4036C193.041 25.9998 192.592 25.7137 192.074 25.5463C191.575 25.2867 191.039 25.168 190.463 25.1892C190.383 25.1892 190.303 25.1892 190.223 25.1892C189.09 25.1892 188.085 25.6586 187.268 26.4025C186.447 27.1496 186.092 28.2612 186.044 29.3325C186.022 29.9027 186.142 30.4357 186.404 30.9295C186.573 31.4434 186.86 31.8874 187.269 32.2626C187.647 32.6663 188.096 32.9524 188.615 33.1199C189.113 33.3795 189.649 33.4982 190.225 33.477C190.306 33.477 190.385 33.477 190.465 33.477C191.598 33.477 192.603 33.0075 193.42 32.2636C194.241 31.5166 194.596 30.405 194.644 29.3336C194.666 28.7635 194.546 28.2305 194.284 27.7367C194.115 27.2227 193.827 26.7787 193.419 26.4036Z" fill="#386641"/>
<path d="M184.054 26.4533C183.682 26.056 183.242 25.7751 182.732 25.6109C182.242 25.3555 181.714 25.2389 181.149 25.2601C180.036 25.2601 179.048 25.7211 178.245 26.4523C177.438 27.1866 177.089 28.2792 177.041 29.3314C177.02 29.892 177.137 30.4155 177.395 30.9008C177.56 31.4053 177.844 31.8429 178.245 32.2117C178.617 32.6091 179.057 32.8899 179.567 33.0541C180.056 33.3095 180.583 33.4261 181.15 33.4049C182.263 33.4049 183.25 32.9439 184.054 32.2117C184.861 31.4773 185.21 30.3858 185.258 29.3325C185.279 28.7719 185.162 28.2485 184.904 27.7631C184.738 27.2598 184.455 26.8232 184.054 26.4533Z" fill="#386641"/>
<path d="M166.636 29.2236C166.634 29.2353 166.633 29.2766 166.633 29.3678C166.631 29.3179 166.636 29.2713 166.636 29.2236Z" fill="#386641"/>
<path d="M175.582 27.0764C175.425 26.7129 175.183 26.3982 174.859 26.1322C174.555 25.8991 174.25 25.666 173.946 25.4328C173.592 25.2071 173.18 25.0376 172.768 24.9411C172.553 24.8892 172.335 24.8574 172.113 24.849C171.894 24.8193 171.675 24.7896 171.456 24.761C171.215 24.7578 170.986 24.8119 170.743 24.8447C170.002 24.9433 170.167 24.8945 169.486 25.1796C168.856 25.4434 168.517 25.6119 167.973 26.1577C167.526 26.5688 167.211 27.0552 167.027 27.6179C166.763 28.116 166.637 28.6522 166.637 29.2223C166.651 29.1545 166.704 30.3116 166.811 30.6243C167.024 31.3777 167.409 32.0315 167.964 32.5868C168.525 33.1378 169.184 33.5193 169.944 33.7302C170.172 33.7662 170.248 33.7758 170.603 33.8234C171.008 33.9315 171.414 33.9315 171.819 33.8234C172.045 33.8468 172.255 33.8171 172.451 33.7323C172.578 33.7026 172.696 33.6645 172.806 33.6211C173.011 33.5596 173.214 33.4854 173.409 33.3837C173.599 33.3063 173.789 33.2268 173.978 33.1452C174.651 32.751 175.185 32.2201 175.583 31.5546C175.734 31.2018 175.883 30.8478 176.034 30.495C176.22 29.9058 176.247 29.3155 176.114 28.7264C176.086 28.135 175.909 27.5861 175.582 27.0764Z" fill="#386641"/>
<path d="M285.607 21.8976C283.668 21.9961 281.745 22.7994 280.398 24.1823C278.193 26.0621 277.703 29.433 278.824 32.0663C279.996 34.8183 282.731 36.8604 285.828 36.7777C288.574 36.7046 291.351 35.1606 292.54 32.646C294.846 27.7672 291.287 21.6072 285.607 21.8976Z" fill="#386641"/>
<path d="M43.2035 26.3826C41.5958 25.45 39.2837 25.9778 38.3943 27.6595C37.9838 28.4352 37.8224 29.3285 38.0608 30.1868C38.2725 30.9477 38.8657 31.7721 39.5819 32.1473C39.6803 32.1981 39.7807 32.2469 39.8834 32.2903C40.1153 32.4376 40.3697 32.5489 40.6509 32.6146C40.6605 32.6178 40.6701 32.6209 40.6797 32.6241C41.2623 32.7788 41.8449 32.7788 42.4275 32.6241C42.9844 32.4694 43.4686 32.1896 43.878 31.7859C44.327 31.255 44.5889 30.9382 44.7813 30.261C44.87 29.9484 44.9106 29.6189 44.9074 29.2956C44.8967 28.1141 44.2329 26.9792 43.2035 26.3826Z" fill="#386641"/>
<path d="M51.8521 25.4247C51.3711 25.3611 50.8912 25.3929 50.4101 25.5211C49.6811 25.803 49.2749 25.9492 48.7116 26.5077C48.2412 26.9729 47.9002 27.5292 47.7228 28.1661C47.5325 28.8528 47.5304 29.7281 47.7709 30.3989C47.8853 30.7189 48.0306 31.0633 48.1995 31.3589C48.532 31.9386 48.749 32.0869 49.2097 32.4388C49.9109 32.975 50.7041 33.2399 51.5945 33.2717C53.0162 33.3225 54.3802 32.4441 55.0878 31.2583C55.8072 30.0502 55.834 28.4745 55.06 27.2813C54.3556 26.1972 53.1584 25.4639 51.8521 25.4247Z" fill="#386641"/>
<path d="M65.7422 28.6196C65.7347 28.575 65.724 28.5316 65.7155 28.4881C65.7005 28.4214 65.6845 28.3557 65.6663 28.291C65.6588 28.2635 65.6524 28.2349 65.6438 28.2084C65.5658 27.9488 65.4578 27.6955 65.2986 27.4465C65.2366 27.3013 65.1404 27.1762 65.0174 27.0671C64.948 26.976 64.8763 26.8859 64.8058 26.8043C64.7213 26.7004 64.6283 26.6072 64.5247 26.5224C64.3932 26.408 64.2371 26.2872 64.0907 26.1854C63.9699 26.0964 63.848 26.0095 63.739 25.9279C63.1372 25.5814 62.4872 25.4076 61.7903 25.4055C61.0933 25.4076 60.4434 25.5814 59.8416 25.9279C59.2612 26.2681 58.7994 26.7259 58.4562 27.3013C58.1067 27.8979 57.9314 28.5422 57.9293 29.2331C57.8373 30.6118 58.7662 32.0625 59.9314 32.7375C61.4322 33.6086 63.5209 33.3956 64.7342 32.1186C64.933 31.8643 65.1308 31.61 65.3296 31.3546C65.6075 30.9212 65.7582 30.4539 65.7817 29.9516C65.8266 29.7841 65.8502 29.6178 65.8502 29.4503C65.8502 29.3433 65.8373 29.2352 65.8192 29.1282C65.7956 28.9555 65.7732 28.7859 65.7422 28.6196Z" fill="#386641"/>
<path d="M75.7615 26.3146C74.4061 24.9433 72.2126 24.6689 70.5429 25.6237C69.9208 25.9787 69.2549 26.6039 68.9128 27.2376C68.7524 27.5343 68.5718 27.9624 68.4703 28.2845C68.3495 28.6681 68.28 29.0952 68.3206 29.4989C68.3003 30.0373 68.4136 30.5385 68.6605 31.0048C68.8198 31.489 69.0913 31.9087 69.4761 32.2626C69.7861 32.5455 70.1218 32.7787 70.4799 32.9609C70.854 33.2026 71.2762 33.3944 71.6568 33.4791C72.389 33.6402 73.1234 33.6699 73.8556 33.4643C74.5665 33.2651 75.1437 32.8921 75.6814 32.4067C75.9657 32.1492 76.1977 31.826 76.3901 31.4965C76.7749 30.8363 76.9833 30.0659 76.9833 29.3029C76.9833 28.9055 76.9417 28.4922 76.8155 28.1139C76.5889 27.4294 76.2768 26.8359 75.7615 26.3146Z" fill="#386641"/>
<path d="M86.1462 25.4923C85.5145 25.1288 84.8325 24.9466 84.1014 24.9445C83.7914 24.9762 83.2526 25.0165 82.9533 25.1013C82.6315 25.2359 82.3087 25.3705 81.987 25.5061C81.8234 25.5887 81.6781 25.699 81.5487 25.8346C81.1179 26.1652 80.8229 26.3952 80.5407 26.8646C80.3771 27.0744 80.2136 27.2842 80.05 27.4941C79.9121 27.8173 79.7742 28.1405 79.6374 28.4637C79.4664 29.0031 79.4429 29.5435 79.5647 30.0829C79.5893 30.6233 79.7518 31.1267 80.0511 31.5919C80.5781 32.2976 80.8336 32.695 81.6107 33.1464C82.2788 33.5343 83.0484 33.7293 83.8202 33.7229C84.5952 33.7165 85.336 33.5078 86.003 33.1146C86.6818 32.7151 86.8272 32.5191 87.2387 31.9903C87.4012 31.7816 87.5348 31.6459 87.6438 31.435C88.0351 30.6774 88.2083 30.1422 88.2296 29.2818C88.2499 28.5008 88.0287 27.5958 87.6 26.9324C87.2398 26.3295 86.7545 25.8494 86.1462 25.4923Z" fill="#386641"/>
<path d="M97.5478 26.5711C97.2036 26.2097 96.7845 25.9501 96.3334 25.7678C96.0502 25.5908 95.7423 25.4562 95.4013 25.3768C95.0464 25.3291 94.6915 25.2825 94.3367 25.2348C93.7851 25.2136 93.2709 25.328 92.7931 25.5771C92.4542 25.6714 92.1592 25.842 91.9091 26.0878C91.4729 26.3676 91.1287 26.7395 90.8775 27.2026C90.3687 28.1574 90.1977 29.2001 90.4735 30.263C90.7546 31.346 91.489 32.323 92.4649 32.8825C93.4366 33.4399 94.6466 33.5788 95.7284 33.2852C96.7129 33.0182 97.7274 32.3442 98.2148 31.4297C98.7054 30.5088 98.9128 29.4184 98.6167 28.3948C98.4019 27.6519 98.079 27.1295 97.5478 26.5711Z" fill="#386641"/>
<path d="M108.394 27.7899C108.327 27.6299 108.258 27.4698 108.19 27.3098C107.995 27.0597 107.801 26.8107 107.606 26.5606C107.381 26.3137 107.109 26.1007 106.812 25.9428C106.21 25.6239 105.531 25.3907 104.838 25.4268C104.196 25.4617 103.551 25.608 102.987 25.9227C102.796 26.0297 102.315 26.3688 102.18 26.5426C102.133 26.5892 102.095 26.6401 102.051 26.6889C102.013 26.7291 101.976 26.7694 101.941 26.8128C101.874 26.8934 101.814 26.976 101.756 27.0608L101.754 27.064C101.513 27.3035 101.347 27.5864 101.256 27.9117C101.013 28.3695 100.902 28.8633 100.922 29.3921C100.968 29.7323 101.014 30.0735 101.06 30.4137C101.19 30.7199 101.321 31.0251 101.451 31.3313C101.695 31.7796 102.027 32.1388 102.45 32.409C102.824 32.7481 103.263 32.9781 103.768 33.0968C103.781 33.0989 103.795 33.101 103.808 33.1031C104.498 33.2865 105.186 33.2865 105.876 33.1031C106.381 32.9834 106.822 32.7545 107.198 32.4133C107.621 32.142 107.955 31.7807 108.199 31.3324C108.551 30.7316 108.727 30.083 108.73 29.3868C108.738 29.3137 108.696 29.0074 108.656 28.7415C108.574 28.1438 108.639 28.3632 108.394 27.7899Z" fill="#386641"/>
<path d="M117.815 26.8731C117.533 26.4407 117.159 26.1006 116.691 25.8516C116.067 25.4923 115.394 25.3122 114.671 25.3101C114.337 25.3323 113.822 25.3779 113.501 25.4701C113.183 25.6025 112.866 25.736 112.548 25.8685C112.522 25.878 112.497 25.8918 112.476 25.9088C112.33 26.0126 112.189 26.1207 112.051 26.233C111.888 26.3305 111.74 26.446 111.61 26.5806C111.403 26.8455 111.197 27.1105 110.99 27.3754C110.965 27.404 110.947 27.4358 110.933 27.4708C110.644 27.9201 110.488 28.4043 110.465 28.9246C110.347 29.445 110.371 29.9642 110.535 30.4845C110.668 30.7961 110.8 31.1076 110.933 31.4192C111.181 31.8748 111.52 32.2404 111.95 32.5159C112.195 32.7586 112.486 32.926 112.82 33.0193C113.29 33.2641 113.797 33.3764 114.34 33.3563C114.779 33.3361 115.226 33.2598 115.65 33.121C115.678 33.1136 115.706 33.1115 115.735 33.1041C116.053 32.9705 116.372 32.837 116.691 32.7035C117.293 32.3506 117.771 31.8759 118.127 31.2803C118.42 30.8247 118.578 30.333 118.602 29.8052C118.72 29.2775 118.697 28.7509 118.53 28.2231C118.407 27.706 118.169 27.2567 117.815 26.8731Z" fill="#386641"/>
<path d="M124.775 25.1892C124.694 25.1892 124.615 25.1892 124.535 25.1892C123.96 25.168 123.422 25.2867 122.924 25.5463C122.406 25.7137 121.958 25.9988 121.578 26.4036C121.171 26.7787 120.882 27.2238 120.714 27.7377C120.452 28.2315 120.332 28.7635 120.353 29.3347C120.401 30.406 120.757 31.5176 121.577 32.2647C122.395 33.0086 123.401 33.478 124.533 33.478C124.613 33.478 124.692 33.478 124.772 33.478C125.347 33.4992 125.885 33.3806 126.383 33.1209C126.902 32.9535 127.35 32.6684 127.729 32.2636C128.136 31.8885 128.425 31.4434 128.594 30.9306C128.856 30.4367 128.976 29.9048 128.954 29.3336C128.906 28.2623 128.55 27.1507 127.73 26.4036C126.912 25.6586 125.907 25.1892 124.775 25.1892Z" fill="#386641"/>
<path d="M133.848 25.2612C133.282 25.24 132.754 25.3566 132.265 25.612C131.756 25.7762 131.315 26.0571 130.943 26.4544C130.542 26.8232 130.258 27.2598 130.093 27.7653C129.835 28.2506 129.718 28.7741 129.739 29.3347C129.787 30.388 130.135 31.4805 130.943 32.2138C131.746 32.945 132.734 33.407 133.847 33.407C134.412 33.4282 134.94 33.3117 135.43 33.0563C135.94 32.892 136.38 32.6112 136.752 32.2138C137.153 31.8451 137.436 31.4085 137.602 30.903C137.86 30.4177 137.977 29.8942 137.956 29.3336C137.908 28.2803 137.559 27.1878 136.752 26.4544C135.949 25.7222 134.962 25.2612 133.848 25.2612Z" fill="#386641"/>
<path d="M148.366 29.3678C148.366 29.2766 148.365 29.2353 148.363 29.2236C148.362 29.2713 148.367 29.3179 148.366 29.3678Z" fill="#386641"/>
<path d="M147.025 26.159C146.481 25.6133 146.142 25.4448 145.513 25.1809C144.832 24.8959 144.996 24.9446 144.255 24.8461C144.013 24.8132 143.783 24.7592 143.542 24.7623C143.323 24.791 143.104 24.8196 142.885 24.8503C142.663 24.8598 142.445 24.8906 142.23 24.9425C141.818 25.0389 141.406 25.2074 141.052 25.4342C140.747 25.6673 140.443 25.9004 140.139 26.1336C139.815 26.3985 139.573 26.7132 139.416 27.0778C139.089 27.5864 138.913 28.1364 138.885 28.7266C138.753 29.3158 138.778 29.9061 138.965 30.4952C139.116 30.8481 139.266 31.201 139.416 31.5549C139.814 32.2215 140.35 32.7513 141.021 33.1455C141.21 33.2271 141.399 33.3066 141.591 33.384C141.785 33.4857 141.988 33.5599 142.193 33.6213C142.305 33.6648 142.421 33.7029 142.548 33.7326C142.744 33.8163 142.955 33.847 143.18 33.8237C143.585 33.9318 143.991 33.9318 144.397 33.8237C144.753 33.776 144.827 33.7665 145.055 33.7305C145.815 33.5196 146.475 33.1381 147.035 32.5871C147.591 32.0328 147.975 31.378 148.188 30.6245C148.294 30.3119 148.348 29.1547 148.362 29.2226C148.362 28.6525 148.236 28.1173 147.971 27.6182C147.787 27.0566 147.472 26.5702 147.025 26.159Z" fill="#386641"/>
<path d="M29.3902 21.8977C23.7109 21.6074 20.1513 27.7684 22.457 32.6451C23.6457 35.1597 26.4239 36.7037 29.169 36.7768C32.2657 36.8594 35.0011 34.8185 36.1727 32.0654C37.294 29.4331 36.8034 26.0612 34.5982 24.1813C33.2523 22.7984 31.3293 21.9963 29.3902 21.8977Z" fill="#386641"/>
<path d="M178.005 22.291C177.882 22.1617 177.745 22.0525 177.604 21.9529C177.628 21.4082 177.591 20.8625 177.482 20.3263C177.17 18.794 176.153 17.4217 174.565 17.0158C174.131 16.2952 173.53 15.6637 172.736 15.1804C170.52 13.8325 168.138 13.9745 166.15 14.9971C166.062 14.9166 165.974 14.835 165.878 14.7608C165.281 11.0837 163.218 7.66939 159.411 6.48466C154.721 5.02547 150.553 8.75451 147.551 12.2737C145.096 14.7502 143.225 18.0098 142.087 21.0087C141.793 21.7855 141.548 22.5961 141.358 23.4238C140.743 24.3224 140.161 25.2432 139.624 26.1906C137.387 30.1507 133.418 37.4445 138.377 40.9139C138.663 41.1142 138.969 41.2837 139.287 41.4204C140.128 42.3159 141.337 42.8764 143.027 42.8786C144.936 42.8807 146.744 41.9386 148.267 40.7285C153.426 47.0241 164.332 44.7457 170.953 41.9683C174.944 40.295 178.329 37.6077 179.936 33.5258C181.433 29.7236 180.869 25.3015 178.005 22.291Z" fill="#DE1900"/>
<path d="M184.113 2.99731C178.998 2.10505 173.924 5.82349 172.104 10.4639C171.635 10.5031 171.196 10.661 170.823 10.9799C170.456 10.8379 170.013 10.8496 169.664 11.0393C169.513 10.5168 169.228 10.041 168.837 9.70195C169.672 9.38298 169.965 8.4049 169.562 7.62921C168.803 6.1679 166.619 5.89768 165.166 5.36571C163.516 4.76063 161.864 4.15555 160.214 3.55047C158.953 3.08845 158.11 5.09231 159.3 5.70057C160.867 6.50275 162.434 7.30494 164.001 8.10606C164.393 8.3074 164.8 8.55537 165.218 8.80227C164.556 9.16893 163.937 9.68817 163.416 10.1428C162.513 10.9312 161.728 11.8754 161.277 12.9827C160.94 13.8082 161.575 14.8181 162.337 15.1223C163.188 15.4614 164.13 15.1657 164.621 14.3805C164.741 14.1887 164.847 13.9926 164.951 13.7934C165.128 13.9131 165.318 14.0138 165.531 14.088C165.831 14.5479 166.217 14.9569 166.653 15.2876C167.133 15.651 167.629 15.8704 168.14 16.023C168.136 16.0601 168.129 16.0972 168.125 16.1343C167.944 17.675 167.713 19.1438 168.787 20.39C169.486 21.2017 170.759 20.8552 171.278 20.072C171.913 19.1141 171.756 17.9781 171.644 16.8707C172.875 17.5373 173.527 18.9043 173.419 20.3455C173.329 21.5503 174.519 22.5793 175.673 22.5793C176.999 22.5793 177.797 21.5503 177.926 20.3455C178.219 17.6263 178.266 14.6899 176.362 12.491C175.93 11.9919 175.247 11.4515 174.48 11.052C175.319 9.83441 176.45 8.8044 177.721 8.05414C179.613 6.93617 181.487 6.76873 183.617 6.63627C185.586 6.5144 186.311 3.38092 184.113 2.99731Z" fill="#5F9F52"/>
<path d="M149.264 19.2265C148.833 19.1269 148.521 19.1502 148.091 19.2212C147.995 19.2371 147.901 19.254 147.807 19.2699C147.587 19.3081 147.367 19.3462 147.147 19.3833C146.801 19.4426 146.483 19.715 146.28 19.9757C146.063 20.2544 145.906 20.6157 145.922 20.9781C145.934 21.2717 146.011 21.5535 146.149 21.8132C146.323 22.1385 146.774 22.5094 147.147 22.573C147.367 22.6111 147.587 22.6493 147.807 22.6864C147.901 22.7022 147.996 22.7192 148.091 22.7351C148.521 22.8071 148.835 22.8294 149.264 22.7298C150.015 22.556 150.645 21.7475 150.61 20.9771C150.575 20.1993 150.07 19.413 149.264 19.2265Z" fill="#FFE65C"/>
<path d="M155.081 26.8033C154.467 26.6645 153.667 26.6582 153.142 27.0545C152.986 27.1721 152.83 27.2918 152.673 27.4105C152.401 27.6193 152.344 27.6977 152.135 27.9669C151.949 28.2053 151.784 28.4522 151.615 28.7034C151.386 29.0425 151.158 29.3794 150.928 29.7185C150.428 30.4571 150.602 31.662 151.258 32.2597C151.946 32.8849 152.994 33.0841 153.822 32.5871C154.608 32.1145 155.597 31.6747 156.189 30.9721C156.607 30.4773 156.957 29.887 156.926 29.2088C156.9 28.6451 156.735 28.1459 156.386 27.6977C156.066 27.2855 155.608 26.9231 155.081 26.8033Z" fill="#FFE65C"/>
<path d="M144.166 31.8242C144.672 31.5105 145.18 31.1969 145.689 30.8853C146.171 30.5897 146.572 30.2484 146.888 29.7769C147.301 29.1612 147.347 28.4745 147.22 27.7635C147.109 27.1467 146.445 26.4897 145.822 26.3785C144.441 26.1337 143.392 26.7441 142.671 27.8949C142.356 28.3982 142.038 28.9005 141.721 29.4017C140.777 30.8948 142.659 32.7557 144.166 31.8242Z" fill="#FFE65C"/>
<path d="M153.3 15.7391C153.649 15.8843 154.071 15.9458 154.44 15.8271C154.904 15.6787 155.191 15.4085 155.486 15.0291C155.663 14.8024 155.839 14.5745 156.016 14.3478C156.305 14.121 156.529 13.8857 156.748 13.5615C157.489 12.4689 156.833 10.9472 155.697 10.4714C155.13 10.2351 154.57 10.2351 154.004 10.4714C153.34 10.7491 152.98 11.2259 152.732 11.8829C152.643 12.1171 152.624 12.3566 152.616 12.5982C152.506 12.9628 152.396 13.3273 152.286 13.6918C152.036 14.5215 152.521 15.4128 153.3 15.7391Z" fill="#FFE65C"/>
<path d="M161.791 17.4464C161.474 17.0384 161.019 16.6802 160.499 16.5626C159.801 16.4047 159.233 16.5372 158.581 16.8116C157.898 17.0988 157.352 17.5672 156.815 18.0684C156.566 18.3016 156.35 18.5262 156.14 18.7964C155.957 19.0306 155.861 19.1663 155.744 19.4397C155.709 19.5213 155.622 19.9303 155.58 20.1316C155.456 21.0663 155.9 22.0793 156.919 22.3178C157.445 22.4407 157.911 22.4947 158.452 22.3824C158.882 22.2934 159.279 22.0846 159.681 21.914C160.406 21.6067 161.018 21.2316 161.597 20.6869C162.498 19.837 162.527 18.3885 161.791 17.4464Z" fill="#FFE65C"/>
<path d="M155.581 20.1297C155.586 20.0894 155.591 20.049 155.599 20.0087C155.541 20.3134 155.549 20.2794 155.581 20.1297Z" fill="#FFE65C"/>
<path d="M166.257 34.0155C165.519 33.5429 164.562 33.6499 163.823 34.0463C163.728 34.0971 163.639 34.1596 163.551 34.2243C163.485 34.2359 163.418 34.2476 163.352 34.2582C162.734 34.3504 162.231 34.9194 162.004 35.4525C161.759 36.0268 161.744 36.7463 162.109 37.2878C162.346 37.6396 162.648 38.0233 163.035 38.2267C163.404 38.4206 163.717 38.4959 164.116 38.5489C164.981 38.6644 165.969 38.4704 166.595 37.8187C167.017 37.379 167.282 36.9413 167.364 36.3309C167.493 35.3815 167.062 34.5295 166.257 34.0155ZM163.765 34.1766C163.827 34.1681 163.888 34.1596 163.95 34.1522C163.877 34.1639 163.804 34.1766 163.733 34.1904C163.743 34.1851 163.754 34.1808 163.765 34.1766Z" fill="#FFE65C"/>
<path d="M168.344 25.5455C168.198 25.023 167.874 24.5832 167.447 24.2558C166.69 23.6762 165.503 23.5151 164.666 24.0619C163.981 24.5091 163.488 25.1417 163.088 25.8432C162.983 26.0265 162.899 26.2258 162.813 26.4176C162.735 26.6009 162.657 26.7842 162.579 26.9675C162.718 26.6984 162.75 26.6412 162.674 26.7948C162.62 26.9156 162.558 27.0332 162.5 27.1519C162.039 28.0972 162.172 29.1759 163.042 29.8414C163.93 30.5217 164.97 30.3363 165.804 29.6782C165.825 29.6613 165.866 29.6358 165.908 29.6083C165.914 29.6051 165.918 29.603 165.926 29.5998C165.975 29.5839 166.018 29.5574 166.055 29.5224C166.373 29.3158 166.698 29.0647 166.975 28.8125C167.131 28.6694 167.28 28.5126 167.427 28.361C167.884 27.8895 168.117 27.4635 168.346 26.8637C168.487 26.4918 168.449 25.9238 168.344 25.5455Z" fill="#FFE65C"/>
<path d="M147.008 34.0621C146.135 33.4771 144.942 33.6032 144.055 34.0769C143.51 34.3683 143.065 34.8378 142.736 35.3517C142.19 36.2037 142.037 37.2867 142.296 38.2574C142.594 39.3754 143.733 40.0673 144.86 39.9169C145.351 39.8512 145.857 39.6519 146.203 39.28C146.325 39.1232 146.446 38.9674 146.568 38.8105C146.599 38.7586 146.623 38.7046 146.648 38.6516C146.969 38.5075 147.264 38.321 147.529 38.073C148.124 37.5177 148.344 36.706 148.238 35.9271C148.127 35.1069 147.695 34.5231 147.008 34.0621Z" fill="#FFE65C"/>
<path d="M174.767 28.9788C174.631 28.5624 174.411 28.1883 174.113 27.8662C173.733 27.4571 172.888 27.0544 172.314 27.1275C171.778 27.1954 171.307 27.2484 170.827 27.5006C170.221 27.9414 170.125 28.0251 170.537 27.7517C170.459 27.8047 170.381 27.8566 170.302 27.9096C169.961 28.1385 169.606 28.3314 169.245 28.5285C168.483 28.9449 168.031 29.9887 168.303 30.8227C168.561 31.6132 169.369 32.409 170.28 32.3147C170.682 32.2734 171.077 32.2299 171.481 32.2257C171.574 32.2247 171.666 32.2236 171.758 32.2225C171.327 32.1589 171.337 32.1579 171.785 32.2193C172.461 32.3094 172.998 32.1399 173.597 31.8294C174.552 31.3324 175.1 29.9982 174.767 28.9788Z" fill="#FFE65C"/>
<path d="M147.038 13.0443C146.843 13.2424 146.64 13.4374 146.447 13.6398C146.162 13.9259 145.879 14.212 145.596 14.4981C145.226 14.8712 145.056 15.383 145.09 15.881C144.855 16.2381 144.626 16.5995 144.411 16.9693C143.76 18.0863 145.269 19.2318 146.202 18.3384C146.509 18.0439 146.825 17.7609 147.148 17.4833C147.503 17.4229 147.845 17.2608 148.126 17.0043C148.228 16.9111 148.326 16.8146 148.425 16.7203C148.494 16.6747 148.56 16.626 148.624 16.572C148.977 16.2742 149.28 15.915 149.598 15.579C150.265 14.8722 150.305 13.7437 149.598 13.0432C148.907 12.3618 147.725 12.3512 147.038 13.0443Z" fill="white"/>
<path d="M185.543 3.49215C184.121 2.73235 182.065 2.94853 180.52 3.15411C178.857 3.37558 177.23 3.86939 175.784 4.72668C174.041 5.75987 172.628 7.24026 171.895 9.03431C170.887 6.81638 168.923 4.98948 166.672 4.11948C164.72 3.36498 162.574 3.51335 160.562 3.01106C159.702 2.797 158.894 2.44306 158.121 2.01495C157.235 1.52537 156.331 1.00719 155.704 0.199706C155.35 -0.257019 154.575 0.142477 154.898 0.667022C155.048 0.91181 155.201 1.15237 155.356 1.38762C155.358 1.3961 155.357 1.40244 155.359 1.41092C155.706 2.83302 156.144 4.18836 156.836 5.39428C156.281 4.99584 155.286 5.13042 154.691 5.1887C153.633 5.29149 152.593 5.58504 151.598 5.95275C149.549 6.71042 147.694 7.90893 146.032 9.3056C142.443 12.3194 140.095 16.5104 138.331 20.7661C137.403 23.0042 136.633 25.3026 135.892 27.6075C135.114 30.0288 134.338 32.4863 134.184 35.039C133.91 39.5681 136.301 44.0443 141.012 45.07C143.386 45.5872 145.839 45.3042 148.097 44.4544C148.129 44.4575 148.162 44.4586 148.196 44.4554C149.947 44.2986 151.545 44.7426 153.258 44.9863C154.778 45.2036 156.307 45.3138 157.842 45.3191C160.921 45.3296 164.093 44.9948 167.026 44.0284C172.186 42.3286 176.811 38.7479 178.976 33.707C179.828 31.7222 180.483 29.0656 179.948 26.8169C180.714 27.0691 181.506 27.2058 182.245 27.0575C182.298 27.0469 182.347 27.0299 182.394 27.0108C182.66 27.085 182.966 27.084 183.187 26.9155C183.513 26.6675 183.688 26.4587 183.698 26.0327C183.706 25.6936 183.501 25.3048 183.187 25.15C181.555 24.3436 179.834 23.4461 179.305 21.5799C178.803 19.8092 179.175 17.942 178.977 16.1363C178.803 14.5479 178.26 12.7962 176.97 11.7429C176.227 11.1357 175.355 10.8496 174.447 10.7627C174.682 10.4882 174.945 10.2307 175.223 9.99863C175.875 9.45289 176.626 8.97815 177.407 8.63376C178.287 8.24591 179.215 8.00535 180.157 7.81461C181.12 7.61962 182.1 7.57088 183.008 7.18516C183.215 7.0972 183.312 6.92765 183.328 6.74326C183.333 6.74008 183.337 6.73797 183.34 6.73479C183.894 6.30773 184.168 5.59033 184.292 4.87398C184.657 4.86974 185.021 4.84431 185.378 4.75106C185.944 4.60694 186.074 3.77508 185.543 3.49215ZM176.727 32.6494C175.849 34.7646 174.398 36.619 172.684 38.1323C168.695 41.6525 163.199 42.9867 157.974 43.1308C155.682 43.1933 153.335 42.9454 151.023 43.0121C152.473 42.0881 153.704 40.8811 154.393 39.2502C154.778 38.34 153.521 37.5282 152.757 38.003C151.104 39.0298 149.659 40.3438 147.894 41.1969C146.323 41.9567 144.531 42.371 142.781 42.3318C141.09 42.2947 139.43 41.7257 138.314 40.4212C137.184 39.0998 136.738 37.2771 136.718 35.5795C136.691 33.4082 137.307 31.3227 137.951 29.268C138.573 27.28 139.213 25.2952 139.939 23.3412C141.344 19.5549 143.14 15.7654 145.873 12.7294C147.249 11.2003 148.8 9.82272 150.576 8.76515C151.475 8.23001 152.425 7.74468 153.409 7.38227C153.908 7.19894 154.418 7.04739 154.924 6.8895C155.034 6.85453 155.969 6.53557 156.236 6.44126C156.417 6.66486 156.77 6.75811 156.99 6.5006C157.014 6.47199 157.038 6.44337 157.062 6.41476C157.181 6.27488 157.223 6.13395 157.203 5.98242C157.715 6.73798 158.347 7.42252 159.15 8.00853C159.992 8.62421 161.119 9.20281 162.297 9.51965C162.076 9.7496 161.869 9.99333 161.679 10.2498C161.096 11.035 160.703 11.94 160.444 12.8778C160.177 13.8474 159.821 15.1254 160.354 16.0463C160.382 16.0971 160.416 16.1406 160.451 16.1808C160.522 16.3557 160.667 16.4987 160.886 16.5464C161.7 16.7276 162.785 16.5517 163.612 16.4214C164.44 16.29 165.245 16.0547 166.016 15.7273C166.706 15.4338 167.356 15.0703 167.969 14.6422C167.962 14.6909 167.957 14.7397 167.951 14.7884C167.837 15.6393 167.757 16.4871 167.718 17.3454C167.681 18.1497 167.653 18.9562 167.666 19.7605C167.68 20.6856 167.663 21.5619 168.49 22.1384C168.845 22.3853 169.352 22.2581 169.647 21.99C169.712 21.9318 169.767 21.8692 169.817 21.8057C171.348 21.5132 172.388 20.2479 173.278 19.0505C173.392 20.5637 173.812 22.0293 174.728 23.2839C175.3 24.067 176.016 24.7325 176.816 25.2793C176.749 25.5665 176.781 25.8685 176.965 26.1059C178.371 27.9211 177.52 30.7388 176.727 32.6494ZM176.133 13.9619C176.931 15.3045 176.903 16.9809 176.931 18.4867C176.956 19.8844 177.008 21.3489 177.511 22.6651C177.229 22.433 176.964 22.1797 176.723 21.8947C175.232 20.1218 175.296 17.6443 175.34 15.4306C175.505 14.9506 175.548 14.4599 175.251 14.017C175.011 13.6577 174.609 13.4829 174.181 13.5857C173.351 13.7849 173.161 14.5298 172.839 15.2208C172.525 15.8958 172.163 16.5422 171.786 17.1844C171.308 17.9993 170.787 18.9551 170.106 19.6958C170.055 18.9127 170.003 18.1296 169.975 17.3454C169.95 16.5878 169.927 15.8301 169.901 15.0724C169.875 14.2935 169.989 13.4066 169.727 12.6606C169.739 12.5991 169.749 12.5366 169.754 12.4709C169.805 11.8478 169.16 11.5701 168.652 11.639C167.924 11.7376 167.398 12.4666 166.831 12.882C166.227 13.3261 165.564 13.6938 164.876 13.9937C164.229 14.2766 163.555 14.4652 162.865 14.6136C162.667 14.6559 162.455 14.6909 162.24 14.728C162.276 14.3656 162.293 13.9979 162.359 13.6577C162.517 12.8608 162.769 12.0724 163.169 11.3614C163.503 10.7669 163.943 10.2307 164.487 9.81318C164.521 9.78669 164.557 9.76549 164.592 9.74218C165.146 9.68495 165.675 9.53342 166.153 9.26002C166.417 9.10954 166.547 8.84569 166.56 8.57653C166.654 8.2936 166.467 7.95026 166.195 7.81886C166.123 7.77011 166.04 7.73302 165.948 7.70865C165.01 7.46916 164.035 7.51896 163.088 7.31762C162.116 7.11098 161.172 6.74222 160.323 6.23145C159.498 5.73657 158.733 5.12089 158.112 4.38759C158.009 4.26572 157.913 4.14067 157.822 4.01245C158.028 4.14597 158.245 4.27102 158.474 4.38335C160.343 5.29892 162.331 5.33176 164.339 5.71113C166.012 6.02691 167.436 6.76869 168.574 8.0382C169.676 9.26956 170.155 10.7404 170.396 12.3384C170.455 12.7263 170.841 13.006 171.185 13.1205C171.503 13.2264 171.769 13.1448 172.055 13.0081C172.308 12.8873 172.498 12.6182 172.576 12.3374C173.955 12.4041 175.396 12.7199 176.133 13.9619ZM179.539 6.08838C178.428 6.30773 177.319 6.6977 176.336 7.25721C175.496 7.73513 174.743 8.32645 174.134 9.0767C173.76 9.53873 173.291 10.1449 173.064 10.769C172.944 10.7796 172.823 10.7934 172.702 10.8093C173.498 8.86052 175.056 7.17457 176.901 6.188C178.127 5.53311 179.526 5.1495 180.904 4.97677C181.423 4.91213 181.942 4.8867 182.463 4.87398C182.287 5.19083 182.116 5.50873 181.994 5.84889C181.177 5.78849 180.318 5.93472 179.539 6.08838Z" fill="#386641"/>
<path d="M155.106 33.0999C154.411 32.6463 153.572 32.978 153.037 33.5163C152.673 33.8819 152.642 34.4616 152.955 34.8642C153.253 35.2457 153.86 35.4153 154.29 35.1292C154.358 35.0847 154.427 35.0433 154.496 35.0009C154.512 34.9914 154.521 34.984 154.529 34.9798C154.572 34.9649 154.614 34.9511 154.651 34.9363C154.797 34.8748 154.921 34.8229 155.047 34.7265C155.142 34.6544 155.208 34.5834 155.289 34.4997C155.705 34.0674 155.592 33.4188 155.106 33.0999Z" fill="#386641"/>
<path d="M156.051 13.4352C155.541 13.1183 154.845 13.0304 154.979 12.2653C155.122 11.4462 155.984 11.2024 156.709 11.2438C157.418 11.283 157.577 10.1607 156.878 10.0092C155.287 9.66587 153.526 10.4098 153.168 12.1095C152.869 13.5327 154.464 15.8375 156.051 14.7344C156.518 14.4101 156.561 13.751 156.051 13.4352Z" fill="#386641"/>
<path d="M149.163 20.6134C148.529 20.8211 147.685 21.5448 147.018 21.0235C146.112 20.3156 147.577 19.4562 148.151 19.3174C148.831 19.1531 148.706 18.0267 147.983 18.0828C147.002 18.1591 146.035 18.5067 145.465 19.3492C144.937 20.128 144.865 21.1263 145.388 21.9274C146.476 23.5932 149.371 23.4544 150.096 21.5385C150.298 21.0065 149.683 20.4428 149.163 20.6134Z" fill="#386641"/>
<path d="M145.679 31.007C146.167 30.4486 145.702 29.6083 144.954 29.7725C144.525 29.8668 144.129 30.0745 143.682 30.0915C143.519 30.0978 143.373 30.0809 143.215 30.0523C143.227 30.0024 143.239 29.9526 143.256 29.9039C143.406 29.4451 144.668 28.4489 143.823 28.0314C143.803 28.0219 143.784 28.0113 143.764 28.0018C143.567 27.9043 143.297 27.8629 143.103 28.0018C142.251 28.6153 141.097 30.0099 141.954 31.0621C142.757 32.0466 144.881 31.9226 145.679 31.007ZM143.201 30.1031C143.205 30.0883 143.21 30.0735 143.214 30.0586C143.207 30.1784 143.202 30.1932 143.201 30.1031Z" fill="#386641"/>
<path d="M146.457 37.9045C145.803 37.7052 145.03 38.0899 144.36 38.1387C144.316 38.1418 144.273 38.1397 144.229 38.1376C144.221 38.0782 144.229 38.056 144.251 37.9659C144.332 37.6173 144.594 37.453 144.59 37.0684C144.586 36.8204 144.365 36.5555 144.096 36.5777C142.827 36.6858 142.2 38.5911 143.098 39.4622C144.005 40.3407 146.594 40.081 146.925 38.7215C147.011 38.3644 146.812 38.0125 146.457 37.9045Z" fill="#386641"/>
<path d="M159.013 19.5434C158.74 19.5106 158.302 19.4067 158.219 19.0835C158.116 18.684 158.557 18.2379 158.93 18.205C159.513 18.1542 159.625 17.4039 159.067 17.2015C157.913 16.7829 156.635 17.6286 156.381 18.7826C156.092 20.0892 157.193 21.3502 158.472 21.5092C159.134 21.5918 160.065 21.3619 160.168 20.5872C160.269 19.8253 159.618 19.6176 159.013 19.5434Z" fill="#386641"/>
<path d="M155.665 29.6367C155.176 29.3527 154.741 29.5032 154.234 29.6219C154.137 29.6452 153.941 29.6939 153.84 29.6823C153.786 29.6791 153.735 29.6643 153.687 29.641C153.666 29.6272 153.65 29.6155 153.635 29.6049C153.647 29.5583 153.642 29.4439 153.633 29.464C153.676 29.3591 153.729 29.2679 153.812 29.1885C154.113 28.8949 154.584 28.9013 154.911 28.6279C155.245 28.3492 155.012 27.8798 154.677 27.7505C154.039 27.5057 153.029 27.9221 152.534 28.3397C151.955 28.8271 151.652 29.6198 151.894 30.3552C152.167 31.1828 152.998 31.6724 153.852 31.6999C154.633 31.7254 155.862 31.3195 155.992 30.4315C156.038 30.1168 155.961 29.8084 155.665 29.6367Z" fill="#386641"/>
<path d="M167.545 26.1505C167.036 25.8368 166.38 26.1844 166.05 25.7139C165.71 25.2307 166.366 24.7114 166.795 24.6478C167.4 24.5578 167.358 23.5998 166.795 23.4758C165.124 23.1081 163.582 24.6722 164.039 26.3327C164.462 27.8714 167.191 29.1155 167.987 27.2239C168.149 26.835 167.873 26.3529 167.545 26.1505Z" fill="#386641"/>
<path d="M165.611 36.4146C165.161 36.5195 164.812 36.795 164.387 36.9476C164.208 37.0122 164.034 37.0101 163.862 37.0568C163.86 37.0578 163.859 37.0578 163.857 37.0578C163.894 36.9063 163.984 36.6265 164.121 36.4654C164.408 36.1232 164.88 36.0999 165.153 35.7629C165.425 35.4291 165.383 35.0285 165.025 34.7763C164.313 34.2751 163.151 34.9278 162.614 35.4429C161.897 36.1306 161.498 37.22 161.947 38.1567C162.917 40.1775 166.457 39.3107 166.678 37.221C166.736 36.6541 166.093 36.3023 165.611 36.4146ZM163.829 37.0652C163.559 37.132 163.771 36.9974 163.829 37.0652V37.0652Z" fill="#386641"/>
<path d="M175.083 28.3822C174.603 28.574 174.178 28.8654 173.712 29.089C173.511 29.1854 173.299 29.2543 173.097 29.3433C173.094 29.3444 173.086 29.3465 173.074 29.3486C173.224 28.8717 173.339 28.4987 173.603 28.0515C173.826 27.6743 173.81 27.0703 173.303 26.9177C173.274 26.9092 173.245 26.9007 173.216 26.8912C172.97 26.817 172.67 26.8944 172.494 27.0809C171.556 28.0706 170.546 30.1359 172.044 31.1321C173.441 32.0614 175.588 30.7823 176.112 29.4037C176.326 28.8442 175.658 28.1522 175.083 28.3822Z" fill="#386641"/>
<path d="M5.13938 27.0299C5.21955 26.9451 5.30827 26.8741 5.40127 26.8095C5.38631 26.4545 5.40982 26.0984 5.48144 25.7487C5.68454 24.7494 6.34943 23.8529 7.38524 23.588C7.66851 23.1175 8.06081 22.7053 8.57925 22.3906C10.0255 21.511 11.5809 21.6032 12.8775 22.2708C12.9352 22.2178 12.9929 22.1648 13.0549 22.1161C13.444 19.7159 14.7909 17.4884 17.2751 16.7149C20.3355 15.7633 23.056 18.1963 25.0154 20.4927C26.6167 22.1087 27.8385 24.2365 28.5803 26.1938C28.7727 26.7014 28.9331 27.2302 29.056 27.7706C29.4579 28.3566 29.8374 28.9575 30.187 29.5763C31.6471 32.1609 34.2372 36.921 31.0015 39.1855C30.8144 39.3169 30.6156 39.4272 30.4082 39.5162C29.8599 40.1011 29.0699 40.4667 27.9678 40.4678C26.7214 40.4688 25.5424 39.8542 24.5483 39.0647C21.1821 43.1742 14.064 41.6864 9.74227 39.8744C7.13724 38.7818 4.9288 37.028 3.87909 34.364C2.90207 31.8801 3.26979 28.9945 5.13938 27.0299Z" fill="#DE1900"/>
<path d="M1.1518 14.4375C4.49013 13.8558 7.80172 16.2814 8.99039 19.31C9.29611 19.3354 9.58259 19.4382 9.82631 19.647C10.0658 19.5537 10.3554 19.5622 10.5821 19.6862C10.6804 19.345 10.8664 19.0345 11.1219 18.813C10.5767 18.6043 10.3854 17.9663 10.6483 17.4598C11.1443 16.5061 12.5692 16.3302 13.5163 15.9826C14.5938 15.5873 15.6713 15.1931 16.7488 14.7979C17.5708 14.4958 18.1213 15.8045 17.3453 16.2009C16.3223 16.7244 15.2993 17.2479 14.2763 17.7713C14.0198 17.9027 13.7547 18.0649 13.4821 18.2259C13.915 18.4654 14.3191 18.8045 14.658 19.1002C15.2469 19.6152 15.759 20.2309 16.054 20.9536C16.2742 21.4919 15.8595 22.1521 15.3624 22.3502C14.8065 22.5717 14.1919 22.3789 13.8712 21.866C13.7932 21.7409 13.7237 21.6127 13.6564 21.4834C13.542 21.5618 13.4169 21.6275 13.2779 21.6763C13.0823 21.9762 12.8301 22.2432 12.5457 22.4583C12.2325 22.6957 11.9086 22.8388 11.5751 22.9384C11.5783 22.9627 11.5826 22.9871 11.5847 23.0104C11.7023 24.0161 11.853 24.974 11.1529 25.7879C10.6964 26.3177 9.86586 26.0909 9.527 25.5802C9.11225 24.9549 9.21487 24.2132 9.28863 23.4915C8.48478 23.926 8.05934 24.8182 8.12989 25.7593C8.18868 26.5455 7.41156 27.2174 6.65902 27.2174C5.79317 27.2174 5.2726 26.5455 5.18815 25.7593C4.99681 23.9843 4.96687 22.0684 6.20899 20.6335C6.49119 20.3082 6.93695 19.9553 7.43828 19.6947C6.88991 18.8999 6.15234 18.2281 5.32284 17.7385C4.0882 17.0084 2.86532 16.8992 1.47462 16.8134C0.190817 16.7328 -0.281656 14.6876 1.1518 14.4375Z" fill="#5F9F52"/>
<path d="M23.8963 25.0289C24.1774 24.9643 24.3816 24.9791 24.6627 25.0257C24.7247 25.0363 24.7856 25.0469 24.8476 25.0575C24.9919 25.0819 25.1352 25.1073 25.2795 25.1317C25.505 25.1709 25.7124 25.3479 25.845 25.5185C25.9871 25.7007 26.0898 25.936 26.0791 26.1723C26.0705 26.3641 26.0213 26.5474 25.9305 26.717C25.8172 26.9289 25.5232 27.1716 25.2795 27.2129C25.1363 27.2373 24.9919 27.2627 24.8476 27.2871C24.7856 27.2977 24.7247 27.3083 24.6627 27.3189C24.3816 27.3655 24.1774 27.3803 23.8963 27.3157C23.4067 27.2023 22.9952 26.6746 23.0176 26.1723C23.0411 25.6637 23.3704 25.1508 23.8963 25.0289Z" fill="#FFE65C"/>
<path d="M20.1003 29.9746C20.5001 29.8845 21.0228 29.8803 21.366 30.1389C21.4675 30.2162 21.5702 30.2936 21.6717 30.3709C21.8491 30.5066 21.8866 30.5585 22.0234 30.7344C22.1452 30.8902 22.2521 31.0513 22.3622 31.2144C22.5108 31.4359 22.6615 31.6563 22.8101 31.8768C23.1362 32.3589 23.0228 33.1452 22.5942 33.5352C22.1463 33.9431 21.4611 34.0724 20.9213 33.7492C20.4071 33.4408 19.7626 33.1537 19.3756 32.6948C19.103 32.3716 18.8743 31.9859 18.8946 31.544C18.9117 31.1763 19.0196 30.8499 19.2473 30.5574C19.4579 30.2883 19.7572 30.052 20.1003 29.9746Z" fill="#FFE65C"/>
<path d="M27.2248 33.2511C26.8934 33.0466 26.5631 32.842 26.2307 32.6386C25.9164 32.4457 25.6545 32.2232 25.4482 31.9148C25.1788 31.5121 25.1489 31.0649 25.2323 30.6008C25.3039 30.1981 25.739 29.7689 26.1441 29.6969C27.0452 29.5369 27.7304 29.9353 28.2008 30.6866C28.406 31.0151 28.6134 31.3426 28.8207 31.67C29.4354 32.6439 28.2072 33.8593 27.2248 33.2511Z" fill="#FFE65C"/>
<path d="M21.2622 22.7529C21.0345 22.8482 20.7587 22.8874 20.5182 22.8101C20.2157 22.7126 20.0275 22.5367 19.8351 22.2898C19.7197 22.1414 19.6053 21.9931 19.4899 21.8447C19.3007 21.6974 19.1553 21.5427 19.012 21.3318C18.5289 20.6187 18.9565 19.6257 19.6983 19.3153C20.0682 19.1605 20.4337 19.1605 20.8036 19.3153C21.2365 19.4965 21.4717 19.808 21.6342 20.2361C21.6919 20.3887 21.7047 20.5455 21.709 20.7034C21.7806 20.9408 21.8533 21.1792 21.9249 21.4166C22.0874 21.9592 21.771 22.5399 21.2622 22.7529Z" fill="#FFE65C"/>
<path d="M15.7206 23.8675C15.928 23.6015 16.2241 23.3673 16.564 23.291C17.0193 23.1883 17.3903 23.2752 17.8157 23.4532C18.2615 23.6397 18.6185 23.9459 18.968 24.2734C19.1305 24.4249 19.2716 24.5722 19.4084 24.7481C19.5282 24.9018 19.5912 24.9897 19.6671 25.1678C19.6896 25.2207 19.7462 25.4878 19.7751 25.6192C19.8563 26.2296 19.5656 26.8908 18.9007 27.0455C18.5576 27.1261 18.2529 27.161 17.9002 27.0879C17.6201 27.0296 17.3603 26.8929 17.0985 26.7816C16.626 26.5814 16.2251 26.3366 15.8478 25.9805C15.2599 25.4274 15.2406 24.4821 15.7206 23.8675Z" fill="#FFE65C"/>
<path d="M19.7742 25.6186C19.771 25.592 19.7678 25.5655 19.7625 25.5389C19.7999 25.7386 19.7956 25.7163 19.7742 25.6186Z" fill="#FFE65C"/>
<path d="M12.0836 36.1907C12.137 36.5891 12.3102 36.8752 12.586 37.1624C12.9943 37.5873 13.6389 37.7145 14.2033 37.6393C14.4641 37.6043 14.6683 37.5556 14.9088 37.4295C15.1611 37.297 15.3588 37.0458 15.5128 36.8169C15.7501 36.4641 15.7404 35.9936 15.5812 35.6195C15.4337 35.2719 15.1044 34.901 14.7014 34.8406C14.6576 34.8343 14.6148 34.8269 14.5721 34.8184C14.5154 34.776 14.4566 34.7357 14.3946 34.7029C13.9125 34.4443 13.2883 34.3744 12.8062 34.6827C12.2813 35.0165 12.0002 35.5718 12.0836 36.1907ZM14.4545 34.7951C14.4075 34.7866 14.3604 34.7781 14.3123 34.7696C14.353 34.7749 14.3925 34.7802 14.4331 34.7855C14.4406 34.7887 14.447 34.7919 14.4545 34.7951Z" fill="#FFE65C"/>
<path d="M11.4441 29.1533C11.5393 28.8121 11.7509 28.5249 12.0299 28.3119C12.5238 27.9336 13.2988 27.8287 13.845 28.1848C14.2918 28.4762 14.6136 28.8895 14.8755 29.3473C14.9439 29.467 14.9984 29.5963 15.055 29.7224C15.1063 29.8421 15.1566 29.9619 15.2079 30.0816C15.117 29.9068 15.0967 29.8686 15.1459 29.9693C15.1812 30.0477 15.2218 30.1251 15.2592 30.2024C15.5596 30.8192 15.473 31.5228 14.9054 31.9583C14.326 32.4023 13.6462 32.2805 13.1031 31.8524C13.0892 31.8407 13.0625 31.8248 13.0358 31.8068C13.0315 31.8047 13.0283 31.8036 13.024 31.8015C12.992 31.7909 12.9642 31.7739 12.9396 31.7506C12.7322 31.6161 12.5206 31.4518 12.3399 31.2875C12.2384 31.1943 12.1411 31.0915 12.0449 30.9929C11.7466 30.6846 11.5938 30.4069 11.4452 30.0159C11.3511 29.7711 11.3757 29.4002 11.4441 29.1533Z" fill="#FFE65C"/>
<path d="M25.3688 34.7114C25.9385 34.3299 26.7167 34.4115 27.2961 34.7209C27.6521 34.9106 27.9417 35.2169 28.1566 35.5528C28.5126 36.108 28.613 36.8149 28.4442 37.4496C28.2496 38.1787 27.5056 38.6312 26.7702 38.5326C26.4506 38.4902 26.1192 38.3599 25.8947 38.1161C25.8156 38.0144 25.7354 37.9116 25.6563 37.8099C25.636 37.776 25.6211 37.741 25.604 37.7061C25.3944 37.6117 25.202 37.4899 25.0289 37.3288C24.6408 36.9664 24.4976 36.4365 24.566 35.9279C24.6387 35.3938 24.9209 35.0123 25.3688 34.7114Z" fill="#FFE65C"/>
<path d="M7.25273 31.3938C7.34146 31.1225 7.48469 30.8778 7.68031 30.6669C7.92724 30.3998 8.47988 30.137 8.85508 30.1847C9.20463 30.2292 9.51249 30.2642 9.82569 30.4274C10.2212 30.7146 10.2843 30.7697 10.0149 30.5916C10.0662 30.6255 10.1175 30.6605 10.1678 30.6944C10.3901 30.8438 10.6221 30.9689 10.8572 31.0982C11.3543 31.3705 11.6493 32.0508 11.4719 32.5955C11.303 33.1116 10.776 33.6308 10.1816 33.5694C9.91976 33.5418 9.66107 33.5143 9.39704 33.5111C9.33718 33.51 9.27625 33.51 9.21639 33.509C9.49752 33.4676 9.49111 33.4666 9.19929 33.5068C8.75674 33.5662 8.4072 33.4549 8.01703 33.2525C7.39277 32.9304 7.03574 32.0593 7.25273 31.3938Z" fill="#FFE65C"/>
<path d="M25.3497 20.9947C25.4769 21.124 25.6094 21.2511 25.7356 21.3836C25.9205 21.5701 26.1054 21.7566 26.2914 21.9442C26.533 22.1879 26.6431 22.5217 26.6217 22.846C26.7757 23.0791 26.9242 23.3154 27.0653 23.557C27.4908 24.2861 26.5052 25.0342 25.897 24.4503C25.696 24.2585 25.4897 24.0731 25.2802 23.8919C25.0482 23.8527 24.8248 23.7467 24.642 23.5793C24.5758 23.5189 24.5116 23.4553 24.4464 23.3938C24.4026 23.3642 24.3588 23.3324 24.3171 23.2974C24.0862 23.1024 23.8884 22.8682 23.6821 22.6499C23.246 22.189 23.2203 21.4525 23.6821 20.9947C24.13 20.5486 24.9007 20.5422 25.3497 20.9947Z" fill="white"/>
<path d="M0.327894 15.5842C0.560925 15.6446 0.798229 15.6615 1.0366 15.6647C1.11678 16.132 1.29529 16.6004 1.65766 16.8791C1.6598 16.8812 1.66301 16.8823 1.66515 16.8844C1.67584 17.0052 1.7389 17.1154 1.87466 17.1727C2.46686 17.4238 3.10716 17.4566 3.7357 17.5838C4.35034 17.7078 4.95537 17.8646 5.53046 18.1179C6.03928 18.3425 6.52993 18.652 6.95644 19.008C7.13709 19.1596 7.30919 19.327 7.46205 19.5061C6.86878 19.5633 6.29903 19.7498 5.8148 20.1461C4.97247 20.8339 4.61865 21.9762 4.50534 23.0136C4.376 24.192 4.61865 25.4107 4.29048 26.5657C3.94521 27.7833 2.82175 28.3693 1.75601 28.896C1.55184 28.9966 1.41822 29.251 1.42249 29.4714C1.42891 29.749 1.54329 29.8857 1.75601 30.0468C1.90031 30.157 2.10021 30.157 2.27445 30.1083C2.30545 30.121 2.33751 30.1316 2.37279 30.1379C2.85488 30.2344 3.37225 30.1453 3.87145 29.9811C3.52191 31.4487 3.94949 33.1824 4.50641 34.4773C5.91849 37.7677 8.93827 40.1043 12.3055 41.2138C14.2199 41.8443 16.2894 42.0626 18.299 42.0562C19.3017 42.053 20.298 41.981 21.291 41.839C22.4091 41.68 23.4514 41.3897 24.5941 41.4925C24.6165 41.4946 24.6379 41.4935 24.6593 41.4914C26.1323 42.0467 27.7336 42.2311 29.2825 41.893C32.3568 41.2233 33.9174 38.3018 33.7389 35.3463C33.6384 33.6794 33.1317 32.0761 32.624 30.4961C32.1408 28.9924 31.6374 27.4919 31.0323 26.0316C29.8811 23.2542 28.3482 20.5191 26.0061 18.5524C24.9212 17.641 23.7111 16.859 22.3739 16.3641C21.725 16.1236 21.0462 15.9328 20.3546 15.865C19.9666 15.8268 19.3177 15.7399 18.9554 15.9996C19.4075 15.2133 19.6929 14.3285 19.9196 13.4002C19.9206 13.3949 19.9206 13.3906 19.9217 13.3853C20.0233 13.2317 20.1227 13.0748 20.221 12.9148C20.4316 12.5725 19.926 12.3119 19.6951 12.6096C19.2867 13.1374 18.6956 13.4754 18.1184 13.7944C17.6138 14.0731 17.0869 14.3041 16.5246 14.444C15.2119 14.7714 13.8105 14.675 12.5363 15.1677C11.0676 15.7357 9.78594 16.9279 9.12747 18.3754C8.64858 17.2044 7.72608 16.238 6.58872 15.564C5.64484 15.0035 4.58337 14.6813 3.49732 14.5372C2.48931 14.4037 1.14778 14.2617 0.21886 14.7576C-0.12641 14.9452 -0.0430304 15.4877 0.327894 15.5842ZM5.81694 29.5191C5.93666 29.3644 5.95804 29.1672 5.91421 28.9797C6.43693 28.6226 6.90406 28.1881 7.27712 27.6773C7.87573 26.8582 8.14938 25.9013 8.22314 24.9147C8.80358 25.6968 9.48236 26.5223 10.4818 26.713C10.5139 26.7543 10.5502 26.7946 10.593 26.8338C10.7854 27.0087 11.1168 27.0913 11.3477 26.9302C11.8875 26.5541 11.8757 25.9818 11.8853 25.3789C11.8939 24.8533 11.8757 24.3277 11.8522 23.8021C11.8266 23.2425 11.7742 22.6894 11.7004 22.133C11.6961 22.1013 11.6919 22.0695 11.6887 22.0377C12.0885 22.3174 12.5128 22.5537 12.9639 22.7455C13.4663 22.9596 13.9922 23.1133 14.5331 23.1991C15.073 23.2849 15.7806 23.3994 16.3119 23.2807C16.4551 23.2489 16.5492 23.1556 16.5962 23.0412C16.6187 23.0147 16.6411 22.9861 16.6603 22.9532C17.0077 22.3524 16.7758 21.5184 16.6015 20.8847C16.4327 20.2722 16.1761 19.682 15.7956 19.1691C15.6716 19.0017 15.5369 18.8427 15.3926 18.6933C16.1611 18.4867 16.8966 18.1094 17.446 17.7067C17.9698 17.3242 18.3824 16.877 18.717 16.3842C18.7052 16.4828 18.732 16.5761 18.8089 16.6661C18.825 16.6852 18.841 16.7032 18.856 16.7223C18.9992 16.8908 19.2301 16.8304 19.3477 16.6841C19.5219 16.7456 20.1312 16.9544 20.2039 16.9766C20.5353 17.0805 20.8677 17.179 21.1937 17.2988C21.8362 17.5351 22.4562 17.8519 23.043 18.2016C24.2018 18.8925 25.2141 19.7911 26.113 20.7894C27.896 22.771 29.0676 25.2443 29.9858 27.7155C30.4594 28.9903 30.8773 30.2863 31.2835 31.5833C31.7036 32.9249 32.1056 34.2855 32.0885 35.7023C32.0746 36.8108 31.7838 37.9997 31.0462 38.8623C30.3183 39.7143 29.2344 40.0852 28.1312 40.1096C26.9896 40.135 25.8202 39.8637 24.795 39.3689C23.6427 38.8125 22.6999 37.9542 21.6213 37.2845C21.1221 36.975 20.3022 37.5049 20.5534 38.0983C21.0035 39.1633 21.8062 39.9506 22.7533 40.5536C21.244 40.5091 19.7122 40.6723 18.2167 40.6309C14.8068 40.5366 11.2194 39.6666 8.61651 37.3692C7.49732 36.3816 6.55024 35.1714 5.97728 33.7907C5.45563 32.5423 4.89978 30.7038 5.81694 29.5191ZM8.68385 20.5319C8.73516 20.7152 8.85809 20.89 9.02378 20.9695C9.21084 21.0585 9.38402 21.1126 9.59139 21.0437C9.81587 20.9685 10.0681 20.7862 10.1066 20.534C10.2648 19.4912 10.577 18.5312 11.2964 17.7269C12.0382 16.8982 12.9682 16.415 14.0596 16.2083C15.3691 15.9604 16.6668 15.9402 17.8864 15.3426C18.0371 15.2684 18.1782 15.1878 18.3119 15.0999C18.2531 15.1836 18.19 15.2652 18.1227 15.3447C17.7175 15.8237 17.2183 16.2253 16.6806 16.5474C16.1259 16.8802 15.5102 17.1218 14.8752 17.2564C14.2573 17.3878 13.6203 17.3549 13.0077 17.5117C12.9468 17.5276 12.8934 17.552 12.8463 17.5838C12.6689 17.6696 12.547 17.8943 12.608 18.0787C12.6165 18.2546 12.702 18.4263 12.8741 18.5248C13.1863 18.7039 13.5315 18.8024 13.8928 18.8395C13.9153 18.8554 13.9388 18.8692 13.9612 18.8862C14.3161 19.1585 14.6037 19.5082 14.8207 19.896C15.0815 20.3612 15.2461 20.8752 15.3487 21.3955C15.3926 21.617 15.4033 21.8575 15.4268 22.0938C15.2867 22.0695 15.1478 22.0472 15.0195 22.0186C14.5695 21.9211 14.1291 21.7992 13.7068 21.6138C13.2579 21.4178 12.825 21.1783 12.4305 20.8879C12.0607 20.6166 11.7175 20.1408 11.2418 20.0762C10.9105 20.0317 10.4893 20.2129 10.5224 20.6188C10.5257 20.6611 10.5321 20.7025 10.5395 20.7427C10.3696 21.2302 10.4433 21.8088 10.4262 22.3174C10.4091 22.8123 10.3952 23.3061 10.3781 23.801C10.361 24.3128 10.3258 24.8236 10.2937 25.3354C9.84901 24.8522 9.50908 24.228 9.19695 23.6961C8.95109 23.2764 8.71485 22.8547 8.50962 22.4149C8.3001 21.9635 8.17504 21.4771 7.63415 21.3478C7.35515 21.2811 7.09326 21.3955 6.93613 21.6297C6.74265 21.919 6.77044 22.239 6.87733 22.5527C6.90619 23.997 6.94788 25.6141 5.97407 26.7713C5.81801 26.9578 5.64377 27.1231 5.45991 27.2746C5.78914 26.4163 5.82228 25.4605 5.83938 24.5481C5.85756 23.5657 5.83938 22.4711 6.35996 21.5947C6.84206 20.783 7.78273 20.5774 8.68385 20.5319ZM2.53634 16.2984C2.45724 16.0769 2.345 15.8692 2.23062 15.6626C2.57054 15.6711 2.9094 15.687 3.24719 15.7294C4.14617 15.8417 5.05905 16.0918 5.8597 16.5199C7.06333 17.1631 8.0799 18.2641 8.59941 19.5357C8.52031 19.5252 8.44227 19.5167 8.36317 19.5093C8.21565 19.1023 7.90887 18.706 7.66515 18.4051C7.26857 17.9155 6.77685 17.5298 6.22848 17.2171C5.58712 16.8526 4.86344 16.5972 4.13869 16.4542C3.6288 16.3546 3.06867 16.2592 2.53634 16.2984Z" fill="#386641"/>
<path d="M20.0843 34.0841C20.5376 33.7874 21.086 34.0046 21.4355 34.3554C21.6728 34.5938 21.6931 34.9721 21.4879 35.2349C21.2933 35.4839 20.8978 35.5941 20.6167 35.4076C20.5729 35.378 20.528 35.3515 20.4831 35.3239C20.4724 35.3176 20.466 35.3133 20.4617 35.3101C20.4339 35.3006 20.4061 35.2911 20.3826 35.2815C20.2864 35.2413 20.2062 35.2074 20.1239 35.1448C20.0619 35.0971 20.0191 35.0516 19.9668 34.9965C19.6942 34.7157 19.7669 34.2918 20.0843 34.0841Z" fill="#386641"/>
<path d="M19.4671 21.2492C19.8006 21.0426 20.2538 20.9843 20.1672 20.4852C20.0742 19.9501 19.512 19.7922 19.0373 19.8187C18.5745 19.8441 18.4708 19.1119 18.9272 19.0133C19.9663 18.7886 21.1154 19.275 21.3484 20.3845C21.544 21.3128 20.5029 22.8176 19.4671 22.098C19.1613 21.8861 19.1335 21.4559 19.4671 21.2492Z" fill="#386641"/>
<path d="M23.9631 25.9341C24.3768 26.0697 24.9273 26.5424 25.3624 26.2022C25.9535 25.7402 24.9979 25.1796 24.6227 25.0885C24.179 24.9814 24.2603 24.246 24.7328 24.2831C25.372 24.3329 26.0037 24.5597 26.3757 25.1096C26.7199 25.6183 26.767 26.27 26.426 26.7924C25.7162 27.8797 23.8263 27.7896 23.3528 26.5392C23.2213 26.1916 23.6221 25.8239 23.9631 25.9341Z" fill="#386641"/>
<path d="M28.6666 32.7542C29.2257 32.0675 28.4721 31.1573 27.9162 30.7567C27.7901 30.6656 27.6137 30.6931 27.4855 30.7567C27.4726 30.7631 27.4598 30.7694 27.447 30.7758C26.8954 31.0481 27.7195 31.6977 27.8168 31.9976C27.8286 32.0294 27.8361 32.0622 27.8435 32.094C27.7399 32.1131 27.6447 32.1237 27.5389 32.1195C27.2471 32.1078 26.9895 31.9722 26.7083 31.9107C26.2198 31.8037 25.9173 32.3526 26.2348 32.7161C26.7575 33.3148 28.1439 33.3964 28.6666 32.7542ZM27.8457 32.0983C27.8478 32.1078 27.8521 32.1174 27.8542 32.1269C27.8532 32.1873 27.85 32.1767 27.8457 32.0983Z" fill="#386641"/>
<path d="M25.7283 37.2198C26.1559 37.0894 26.6593 37.3406 27.0976 37.3724C27.1265 37.3745 27.1543 37.3734 27.1831 37.3713C27.1885 37.3332 27.1831 37.3183 27.1692 37.259C27.1168 37.0312 26.9447 36.9241 26.948 36.673C26.9501 36.5108 27.0944 36.3381 27.2708 36.3529C28.0992 36.4239 28.5075 37.667 27.9218 38.2349C27.3296 38.8082 25.6406 38.6387 25.4247 37.7517C25.367 37.5197 25.4963 37.2908 25.7283 37.2198Z" fill="#386641"/>
<path d="M17.5336 25.2367C17.7121 25.2144 17.9975 25.1477 18.052 24.9357C18.1183 24.675 17.8307 24.3836 17.5881 24.3624C17.2075 24.3285 17.1348 23.84 17.4983 23.7075C18.2508 23.4341 19.0857 23.9862 19.2514 24.7397C19.4395 25.5927 18.7212 26.415 17.8852 26.5199C17.4534 26.574 16.8452 26.4235 16.7789 25.918C16.7137 25.42 17.1391 25.2843 17.5336 25.2367Z" fill="#386641"/>
<path d="M19.7183 31.8236C20.0379 31.6382 20.3222 31.7357 20.6526 31.8141C20.7156 31.8289 20.8439 31.8607 20.9091 31.8533C20.9454 31.8512 20.9786 31.8416 21.0096 31.8257C21.0224 31.8162 21.0331 31.8088 21.0438 31.8024C21.0363 31.7717 21.0395 31.6964 21.0449 31.7102C21.0171 31.6413 20.9818 31.5831 20.9283 31.5301C20.7317 31.3383 20.4238 31.3425 20.2111 31.1645C19.993 30.9822 20.1448 30.676 20.3639 30.5923C20.7808 30.4333 21.4393 30.7046 21.7621 30.9769C22.1395 31.2948 22.3383 31.813 22.1801 32.292C22.0026 32.8324 21.4596 33.1514 20.9027 33.1694C20.3939 33.1864 19.5911 32.9204 19.5056 32.3418C19.4756 32.1373 19.5259 31.9349 19.7183 31.8236Z" fill="#386641"/>
<path d="M11.9656 29.5485C12.298 29.3439 12.7256 29.5707 12.9415 29.2634C13.1639 28.9476 12.7352 28.6096 12.4552 28.5672C12.0596 28.5078 12.0874 27.8837 12.4552 27.8021C13.5455 27.5626 14.5524 28.5831 14.2542 29.6671C13.9784 30.6707 12.1965 31.4834 11.678 30.2489C11.5711 29.9946 11.7507 29.6799 11.9656 29.5485Z" fill="#386641"/>
<path d="M12.5319 36.7724C12.6751 38.1363 14.9862 38.7021 15.619 37.3839C15.9119 36.7724 15.6521 36.0614 15.1839 35.6131C14.8333 35.2772 14.0754 34.8512 13.6105 35.1787C13.3764 35.344 13.3496 35.6047 13.5271 35.823C13.7056 36.0434 14.0134 36.0582 14.2016 36.2818C14.2903 36.3878 14.3491 36.57 14.3737 36.6686C14.3726 36.6686 14.3715 36.6675 14.3705 36.6675C14.2582 36.6368 14.1449 36.6379 14.0284 36.5965C13.7505 36.4969 13.5228 36.3168 13.2299 36.2479C12.9135 36.1737 12.4934 36.4026 12.5319 36.7724ZM14.3908 36.6718C14.4282 36.6273 14.5672 36.7152 14.3908 36.6718V36.6718Z" fill="#386641"/>
<path d="M7.04625 31.0046C7.35945 31.1297 7.6363 31.3204 7.94095 31.4656C8.07244 31.5281 8.21033 31.5737 8.34288 31.632C8.34288 31.632 8.35037 31.6341 8.35785 31.6351C8.26057 31.3236 8.18468 31.0799 8.01258 30.7885C7.8672 30.5426 7.87789 30.1484 8.20819 30.0477C8.22743 30.0424 8.24561 30.0361 8.26485 30.0308C8.42519 29.982 8.62187 30.0329 8.73625 30.1548C9.34876 30.8001 10.0072 32.148 9.03021 32.7987C8.1184 33.4048 6.71701 32.5709 6.37495 31.6701C6.23491 31.3056 6.67105 30.8542 7.04625 31.0046Z" fill="#386641"/>
<path d="M309.746 27.03C309.666 26.9452 309.577 26.8742 309.484 26.8096C309.499 26.4546 309.476 26.0985 309.404 25.7488C309.201 24.7496 308.536 23.8531 307.5 23.5881C307.217 23.1176 306.825 22.7054 306.306 22.3907C304.86 21.5111 303.305 21.6033 302.008 22.2709C301.95 22.218 301.893 22.165 301.83 22.1162C301.439 19.716 300.094 17.4886 297.609 16.715C294.549 15.7634 291.829 18.1964 289.869 20.4928C288.267 22.1088 287.046 24.2367 286.304 26.1939C286.112 26.7015 285.952 27.2303 285.829 27.7707C285.427 28.3567 285.047 28.9576 284.698 29.5764C283.237 32.161 280.646 36.9211 283.883 39.1857C284.07 39.3171 284.269 39.4273 284.476 39.5163C285.025 40.1012 285.815 40.4668 286.917 40.4679C288.162 40.469 289.342 39.8543 290.336 39.0649C293.702 43.1743 300.821 41.6865 305.142 39.8745C307.746 38.7819 309.956 37.0281 311.004 34.3641C311.984 31.8802 311.615 28.9947 309.746 27.03Z" fill="#DE1900"/>
<path d="M313.733 14.4379C310.395 13.8561 307.083 16.2818 305.894 19.3104C305.589 19.3358 305.302 19.4386 305.058 19.6473C304.819 19.5541 304.529 19.5626 304.303 19.6865C304.204 19.3453 304.018 19.0349 303.763 18.8134C304.308 18.6046 304.499 17.9667 304.236 17.4601C303.74 16.5064 302.315 16.3305 301.368 15.9829C300.291 15.5877 299.213 15.1935 298.136 14.7982C297.314 14.4962 296.763 15.8049 297.539 16.2012C298.562 16.7247 299.585 17.2482 300.608 17.7717C300.865 17.9031 301.13 18.0652 301.403 18.2263C300.97 18.4658 300.566 18.8049 300.227 19.1005C299.638 19.6156 299.126 20.2312 298.831 20.9539C298.61 21.4923 299.025 22.1524 299.522 22.3506C300.078 22.5721 300.693 22.3792 301.013 21.8663C301.092 21.7413 301.161 21.6131 301.228 21.4838C301.344 21.5622 301.468 21.6279 301.607 21.6766C301.802 21.9765 302.055 22.2436 302.339 22.4587C302.652 22.6961 302.976 22.8391 303.31 22.9387C303.306 22.9631 303.302 22.9875 303.3 23.0108C303.182 24.0164 303.032 24.9744 303.732 25.7882C304.188 26.3181 305.019 26.0913 305.358 25.5805C305.772 24.9553 305.67 24.2135 305.596 23.4919C306.4 23.9264 306.825 24.8186 306.755 25.7596C306.696 26.5459 307.473 27.2178 308.226 27.2178C309.091 27.2178 309.612 26.5459 309.697 25.7596C309.888 23.9846 309.918 22.0687 308.676 20.6339C308.393 20.3086 307.948 19.9557 307.446 19.695C307.994 18.9003 308.732 18.2284 309.562 17.7388C310.796 17.0087 312.019 16.8996 313.41 16.8137C314.694 16.7332 315.167 14.688 313.733 14.4379Z" fill="#5F9F52"/>
<path d="M290.989 25.0293C290.708 24.9646 290.504 24.9795 290.222 25.0261C290.16 25.0367 290.099 25.0473 290.037 25.0579C289.893 25.0822 289.75 25.1077 289.606 25.1321C289.38 25.1713 289.173 25.3482 289.04 25.5188C288.898 25.7011 288.795 25.9364 288.806 26.1727C288.815 26.3645 288.865 26.5478 288.955 26.7174C289.068 26.9293 289.362 27.1719 289.606 27.2133C289.75 27.2376 289.893 27.2631 290.037 27.2875C290.099 27.2981 290.16 27.3087 290.222 27.3193C290.504 27.3659 290.708 27.3807 290.989 27.3161C291.478 27.2027 291.89 26.675 291.868 26.1727C291.844 25.664 291.515 25.1511 290.989 25.0293Z" fill="#FFE65C"/>
<path d="M294.784 29.975C294.384 29.8849 293.862 29.8807 293.518 30.1392C293.417 30.2166 293.314 30.294 293.213 30.3713C293.035 30.507 292.998 30.5589 292.861 30.7348C292.739 30.8906 292.632 31.0516 292.522 31.2148C292.374 31.4363 292.223 31.6567 292.074 31.8771C291.748 32.3593 291.862 33.1456 292.29 33.5355C292.738 33.9435 293.423 34.0728 293.963 33.7496C294.477 33.4412 295.122 33.154 295.509 32.6952C295.781 32.372 296.01 31.9863 295.99 31.5444C295.973 31.1767 295.865 30.8503 295.637 30.5578C295.428 30.2887 295.128 30.0523 294.784 29.975Z" fill="#FFE65C"/>
<path d="M287.661 33.2513C287.992 33.0468 288.324 32.8423 288.655 32.6388C288.969 32.446 289.231 32.2234 289.438 31.9151C289.707 31.5124 289.737 31.0652 289.654 30.601C289.582 30.1984 289.148 29.7692 288.742 29.6971C287.841 29.5371 287.155 29.9355 286.685 30.6869C286.48 31.0154 286.272 31.3428 286.065 31.6703C285.449 32.6441 286.679 33.8596 287.661 33.2513Z" fill="#FFE65C"/>
<path d="M293.624 22.7531C293.85 22.8485 294.127 22.8877 294.368 22.8103C294.67 22.7128 294.858 22.5369 295.051 22.29C295.166 22.1417 295.28 21.9933 295.396 21.845C295.585 21.6977 295.73 21.543 295.874 21.3321C296.357 20.6189 295.929 19.626 295.187 19.3155C294.818 19.1608 294.452 19.1608 294.082 19.3155C293.649 19.4967 293.414 19.8082 293.252 20.2364C293.194 20.3889 293.181 20.5458 293.177 20.7037C293.105 20.9411 293.032 21.1795 292.961 21.4168C292.797 21.9594 293.115 22.5401 293.624 22.7531Z" fill="#FFE65C"/>
<path d="M299.165 23.8678C298.958 23.6018 298.662 23.3676 298.322 23.2913C297.866 23.1885 297.496 23.2754 297.07 23.4534C296.624 23.6399 296.267 23.9462 295.918 24.2736C295.755 24.4252 295.614 24.5725 295.477 24.7484C295.357 24.902 295.294 24.99 295.218 25.168C295.196 25.221 295.139 25.488 295.11 25.6194C295.029 26.2298 295.32 26.891 295.985 27.0458C296.328 27.1263 296.633 27.1613 296.985 27.0881C297.265 27.0299 297.525 26.8932 297.787 26.7819C298.26 26.5816 298.66 26.3368 299.038 25.9808C299.625 25.4276 299.644 24.4824 299.165 23.8678Z" fill="#FFE65C"/>
<path d="M295.11 25.6188C295.114 25.5923 295.117 25.5657 295.122 25.5392C295.085 25.7388 295.09 25.7165 295.11 25.6188Z" fill="#FFE65C"/>
<path d="M302.079 34.682C301.597 34.3736 300.972 34.4436 300.49 34.7021C300.428 34.7361 300.37 34.7763 300.313 34.8177C300.27 34.8261 300.226 34.8336 300.184 34.8399C299.781 34.9003 299.451 35.2712 299.304 35.6188C299.145 35.9939 299.135 36.4634 299.372 36.8162C299.527 37.0462 299.724 37.2963 299.976 37.4287C300.218 37.5548 300.421 37.6046 300.683 37.6386C301.247 37.7138 301.892 37.5877 302.3 37.1617C302.576 36.8745 302.748 36.5884 302.802 36.19C302.886 35.5722 302.604 35.0169 302.079 34.682ZM300.452 34.7869C300.492 34.7816 300.532 34.7763 300.573 34.771C300.526 34.7784 300.478 34.7869 300.43 34.7965C300.438 34.7922 300.445 34.789 300.452 34.7869Z" fill="#FFE65C"/>
<path d="M303.441 29.1537C303.346 28.8125 303.134 28.5253 302.855 28.3123C302.361 27.934 301.586 27.8291 301.04 28.1851C300.593 28.4766 300.271 28.8898 300.009 29.3476C299.941 29.4674 299.886 29.5967 299.83 29.7228C299.779 29.8425 299.728 29.9622 299.677 30.082C299.768 29.9071 299.788 29.869 299.739 29.9697C299.704 30.0481 299.663 30.1254 299.625 30.2028C299.324 30.8195 299.411 31.5232 299.978 31.9587C300.558 32.4027 301.238 32.2808 301.781 31.8527C301.795 31.8411 301.821 31.8252 301.848 31.8072C301.852 31.805 301.855 31.804 301.86 31.8019C301.892 31.7913 301.92 31.7743 301.944 31.751C302.152 31.6164 302.363 31.4522 302.544 31.2879C302.645 31.1947 302.743 31.0919 302.839 30.9933C303.137 30.6849 303.29 30.4073 303.439 30.0163C303.534 29.7715 303.509 29.4006 303.441 29.1537Z" fill="#FFE65C"/>
<path d="M289.515 34.7117C288.946 34.3303 288.167 34.4119 287.588 34.7213C287.232 34.911 286.942 35.2172 286.727 35.5531C286.371 36.1084 286.27 36.8152 286.439 37.45C286.634 38.179 287.378 38.6315 288.113 38.533C288.433 38.4906 288.764 38.3602 288.988 38.1165C289.068 38.0148 289.148 37.912 289.227 37.8103C289.247 37.7764 289.262 37.7414 289.279 37.7064C289.489 37.6121 289.681 37.4902 289.854 37.3292C290.242 36.9668 290.386 36.4369 290.317 35.9283C290.246 35.3942 289.964 35.0127 289.515 34.7117Z" fill="#FFE65C"/>
<path d="M307.633 31.3941C307.544 31.1228 307.401 30.878 307.206 30.6671C306.958 30.4001 306.406 30.1373 306.031 30.185C305.681 30.2295 305.373 30.2644 305.06 30.4276C304.665 30.7148 304.602 30.7699 304.871 30.5919C304.82 30.6258 304.768 30.6608 304.718 30.6947C304.496 30.8441 304.264 30.9691 304.029 31.0984C303.532 31.3708 303.237 32.0511 303.414 32.5958C303.583 33.1118 304.11 33.6311 304.704 33.5696C304.966 33.5421 305.225 33.5145 305.489 33.5113C305.549 33.5103 305.61 33.5103 305.669 33.5092C305.388 33.4679 305.395 33.4668 305.687 33.5071C306.128 33.5664 306.479 33.4552 306.869 33.2528C307.493 32.9306 307.85 32.0596 307.633 31.3941Z" fill="#FFE65C"/>
<path d="M289.536 20.9951C289.409 21.1243 289.276 21.2515 289.15 21.384C288.965 21.5705 288.78 21.757 288.594 21.9445C288.353 22.1883 288.243 22.5221 288.264 22.8463C288.11 23.0795 287.962 23.3158 287.82 23.5574C287.395 24.2865 288.379 25.0346 288.989 24.4507C289.189 24.2589 289.396 24.0735 289.606 23.8923C289.838 23.8531 290.061 23.7471 290.244 23.5796C290.31 23.5192 290.374 23.4557 290.439 23.3942C290.483 23.3645 290.527 23.3327 290.569 23.2978C290.8 23.1028 290.997 22.8686 291.205 22.6503C291.641 22.1893 291.665 21.4529 291.205 20.9951C290.756 20.5489 289.984 20.5426 289.536 20.9951Z" fill="white"/>
<path d="M314.666 14.7599C313.738 14.264 312.395 14.4049 311.387 14.5395C310.301 14.6836 309.24 15.0058 308.296 15.5664C307.158 16.2414 306.236 17.2068 305.758 18.3777C305.1 16.9302 303.819 15.738 302.349 15.17C301.076 14.6773 299.675 14.7737 298.361 14.4463C297.8 14.3064 297.273 14.0754 296.767 13.7967C296.189 13.4767 295.599 13.1397 295.19 12.612C294.959 12.3142 294.454 12.5749 294.664 12.9171C294.763 13.0772 294.862 13.234 294.964 13.3876C294.965 13.3929 294.965 13.3972 294.966 13.4025C295.193 14.3308 295.478 15.2156 295.929 16.0019C295.567 15.7423 294.918 15.8302 294.53 15.8673C293.839 15.9351 293.16 16.1259 292.511 16.3664C291.173 16.8613 289.963 17.6434 288.878 18.5547C286.536 20.5215 285.003 23.2565 283.852 26.034C283.246 27.4953 282.744 28.9947 282.26 30.4984C281.753 32.0784 281.246 33.6828 281.145 35.3486C280.967 38.3051 282.528 41.2256 285.602 41.8954C287.152 42.2334 288.753 42.048 290.225 41.4937C290.246 41.4959 290.268 41.4969 290.29 41.4948C291.433 41.3931 292.475 41.6824 293.593 41.8413C294.585 41.9833 295.583 42.0554 296.585 42.0585C298.595 42.0649 300.666 41.8466 302.579 41.2161C305.946 40.1066 308.965 37.77 310.378 34.4797C310.934 33.1837 311.361 31.4511 311.013 29.9834C311.512 30.1477 312.029 30.2367 312.512 30.1402C312.547 30.1328 312.579 30.1222 312.61 30.1106C312.784 30.1593 312.983 30.1583 313.127 30.0491C313.34 29.887 313.454 29.7513 313.461 29.4737C313.466 29.2522 313.333 28.999 313.127 28.8983C312.063 28.3716 310.939 27.7856 310.593 26.568C310.265 25.4119 310.507 24.1933 310.378 23.016C310.265 21.9785 309.91 20.8362 309.069 20.1485C308.584 19.7521 308.015 19.5656 307.421 19.5084C307.575 19.3293 307.746 19.1619 307.928 19.0103C308.353 18.6543 308.844 18.3438 309.354 18.1202C309.929 17.8669 310.534 17.7101 311.149 17.5861C311.777 17.459 312.416 17.4272 313.01 17.175C313.144 17.1177 313.209 17.0065 313.219 16.8867C313.221 16.8846 313.225 16.8835 313.227 16.8814C313.588 16.6027 313.767 16.1344 313.848 15.667C314.086 15.6649 314.323 15.6469 314.556 15.5865C314.927 15.4879 315.012 14.9454 314.666 14.7599ZM308.912 33.7898C308.339 35.1706 307.393 36.3807 306.273 37.3684C303.67 39.6658 300.083 40.5368 296.673 40.6301C295.178 40.6714 293.645 40.5093 292.135 40.5527C293.082 39.9498 293.885 39.1624 294.335 38.0974C294.586 37.503 293.765 36.9731 293.267 37.2836C292.189 37.9533 291.246 38.8117 290.094 39.368C289.067 39.8639 287.899 40.1342 286.757 40.1087C285.653 40.0843 284.57 39.7135 283.842 38.8615C283.105 37.9989 282.814 36.8099 282.801 35.7015C282.784 34.2847 283.186 32.923 283.606 31.5825C284.012 30.2844 284.43 28.9894 284.904 27.7146C285.821 25.2434 286.993 22.7701 288.777 20.7885C289.675 19.7903 290.688 18.8917 291.847 18.2007C292.434 17.8511 293.054 17.5342 293.696 17.2979C294.021 17.1781 294.354 17.0796 294.686 16.9757C294.757 16.9535 295.368 16.7447 295.542 16.6833C295.66 16.8295 295.891 16.8899 296.034 16.7214C296.05 16.7023 296.066 16.6843 296.081 16.6653C296.158 16.5741 296.186 16.4819 296.173 16.3834C296.507 16.8761 296.92 17.3233 297.444 17.7059C297.993 18.1075 298.729 18.4847 299.497 18.6924C299.353 18.8418 299.218 19.0019 299.094 19.1682C298.714 19.6811 298.457 20.2714 298.288 20.8839C298.114 21.5165 297.881 22.3505 298.229 22.9524C298.249 22.9852 298.27 23.0139 298.294 23.0403C298.341 23.1548 298.435 23.248 298.578 23.2798C299.109 23.3975 299.818 23.283 300.357 23.1982C300.897 23.1124 301.422 22.9587 301.926 22.7447C302.376 22.5529 302.801 22.3155 303.201 22.0368C303.197 22.0686 303.194 22.1004 303.189 22.1322C303.116 22.6875 303.063 23.2406 303.038 23.8012C303.014 24.3257 302.996 24.8524 303.004 25.378C303.014 25.982 303.002 26.5532 303.542 26.9294C303.773 27.0905 304.104 27.0078 304.297 26.833C304.339 26.7948 304.375 26.7545 304.408 26.7122C305.406 26.5214 306.086 25.6959 306.667 24.9139C306.74 25.9015 307.015 26.8584 307.613 27.6765C307.986 28.1872 308.453 28.6217 308.976 28.9788C308.932 29.1664 308.953 29.3635 309.073 29.5182C309.985 30.704 309.43 32.5426 308.912 33.7898ZM308.524 21.5928C309.045 22.4692 309.027 23.5628 309.045 24.5461C309.062 25.4585 309.095 26.4144 309.424 27.2727C309.241 27.1212 309.067 26.9559 308.91 26.7694C307.938 25.6122 307.979 23.9951 308.007 22.5508C308.114 22.2371 308.143 21.9171 307.948 21.6278C307.791 21.3936 307.529 21.2791 307.25 21.3459C306.708 21.4752 306.584 21.9616 306.374 22.413C306.168 22.8538 305.932 23.2756 305.686 23.6942C305.374 24.2261 305.034 24.8492 304.59 25.3335C304.556 24.8227 304.522 24.312 304.505 23.7991C304.488 23.3042 304.473 22.8104 304.457 22.3155C304.44 21.8069 304.514 21.2283 304.344 20.7408C304.351 20.7005 304.358 20.6603 304.361 20.6168C304.394 20.2099 303.973 20.0287 303.641 20.0743C303.167 20.1389 302.824 20.6147 302.453 20.886C302.058 21.1753 301.625 21.4158 301.176 21.6119C300.753 21.7963 300.314 21.9192 299.864 22.0167C299.736 22.0442 299.597 22.0665 299.457 22.0919C299.48 21.8556 299.491 21.6151 299.535 21.3936C299.637 20.8733 299.803 20.3593 300.064 19.8941C300.282 19.5063 300.569 19.1566 300.923 18.8842C300.946 18.8673 300.969 18.8535 300.992 18.8376C301.353 18.8005 301.698 18.7009 302.01 18.5229C302.182 18.4243 302.268 18.2527 302.276 18.0768C302.338 17.8924 302.215 17.6677 302.039 17.5819C301.992 17.5501 301.938 17.5257 301.878 17.5098C301.265 17.353 300.629 17.3858 300.01 17.2544C299.376 17.1199 298.76 16.8782 298.205 16.5455C297.667 16.2223 297.167 15.8207 296.762 15.3428C296.694 15.2633 296.632 15.1817 296.573 15.098C296.707 15.1849 296.848 15.2665 296.998 15.3406C298.218 15.9383 299.515 15.9595 300.825 16.2064C301.916 16.4131 302.847 16.8973 303.588 17.7249C304.307 18.5282 304.62 19.4883 304.778 20.5321C304.816 20.7853 305.069 20.9676 305.292 21.0418C305.499 21.1107 305.674 21.0577 305.86 20.9676C306.024 20.8892 306.148 20.7133 306.199 20.5299C307.103 20.5776 308.042 20.7832 308.524 21.5928ZM310.747 16.4554C310.022 16.5985 309.298 16.8539 308.657 17.2184C308.109 17.53 307.617 17.9168 307.22 18.4063C306.977 18.7083 306.67 19.1036 306.522 19.5105C306.443 19.5179 306.364 19.5264 306.286 19.537C306.806 18.2654 307.822 17.1644 309.026 16.5211C309.826 16.093 310.739 15.8429 311.638 15.7306C311.976 15.6882 312.315 15.6713 312.655 15.6639C312.54 15.8705 312.428 16.0782 312.349 16.2997C311.816 16.2594 311.256 16.3548 310.747 16.4554Z" fill="#386641"/>
<path d="M294.801 34.0843C294.347 33.7876 293.8 34.0049 293.449 34.3556C293.212 34.594 293.192 34.9724 293.397 35.2352C293.592 35.4842 293.987 35.5944 294.268 35.4079C294.312 35.3782 294.357 35.3517 294.402 35.3242C294.412 35.3178 294.419 35.3136 294.423 35.3104C294.451 35.3009 294.479 35.2913 294.502 35.2818C294.598 35.2415 294.679 35.2076 294.761 35.1451C294.823 35.0974 294.866 35.0518 294.918 34.9967C295.192 34.7159 295.119 34.292 294.801 34.0843Z" fill="#386641"/>
<path d="M295.418 21.2495C295.085 21.0428 294.631 20.9846 294.718 20.4854C294.811 19.9503 295.373 19.7924 295.848 19.8189C296.311 19.8443 296.414 19.1121 295.958 19.0135C294.919 18.7889 293.77 19.2753 293.537 20.3848C293.341 21.3131 294.382 22.8178 295.418 22.0983C295.723 21.8864 295.751 21.4561 295.418 21.2495Z" fill="#386641"/>
<path d="M290.922 25.9342C290.509 26.0698 289.958 26.5425 289.523 26.2023C288.932 25.7403 289.888 25.1797 290.263 25.0886C290.706 24.9816 290.625 24.2461 290.153 24.2832C289.513 24.333 288.882 24.5598 288.51 25.1098C288.165 25.6184 288.118 26.2701 288.459 26.7926C289.169 27.8798 291.058 27.7897 291.532 26.5393C291.663 26.1917 291.262 25.824 290.922 25.9342Z" fill="#386641"/>
<path d="M288.649 32.7184C288.966 32.3539 288.664 31.8049 288.175 31.913C287.895 31.9745 287.636 32.1101 287.345 32.1218C287.238 32.126 287.144 32.1144 287.04 32.0964C287.047 32.0635 287.055 32.0306 287.067 31.9999C287.164 31.7 287.988 31.0504 287.437 30.7781C287.424 30.7717 287.411 30.7654 287.398 30.759C287.27 30.6955 287.093 30.6679 286.967 30.759C286.411 31.1596 285.658 32.0699 286.217 32.7565C286.742 33.3966 288.128 33.315 288.649 32.7184ZM287.031 32.1281C287.034 32.1186 287.037 32.1091 287.04 32.0995C287.035 32.1769 287.033 32.1875 287.031 32.1281Z" fill="#386641"/>
<path d="M289.156 37.22C288.729 37.0897 288.225 37.3408 287.787 37.3726C287.758 37.3747 287.73 37.3737 287.701 37.3715C287.696 37.3334 287.701 37.3186 287.715 37.2592C287.768 37.0314 287.94 36.9244 287.936 36.6732C287.934 36.5111 287.79 36.3384 287.614 36.3532C286.785 36.4242 286.377 37.6672 286.963 38.2352C287.554 38.8085 289.244 38.6389 289.46 37.752C289.517 37.5199 289.388 37.291 289.156 37.22Z" fill="#386641"/>
<path d="M297.352 25.2369C297.174 25.2147 296.888 25.1479 296.834 24.936C296.767 24.6753 297.054 24.3839 297.298 24.3627C297.678 24.3288 297.751 23.8402 297.387 23.7078C296.635 23.4344 295.8 23.9865 295.634 24.7399C295.446 25.593 296.165 26.4153 297 26.5202C297.432 26.5742 298.041 26.4237 298.107 25.9183C298.171 25.4202 297.746 25.2846 297.352 25.2369Z" fill="#386641"/>
<path d="M295.166 31.8239C294.846 31.6384 294.562 31.7359 294.232 31.8143C294.169 31.8292 294.04 31.861 293.975 31.8535C293.939 31.8514 293.906 31.8419 293.875 31.826C293.862 31.8164 293.851 31.809 293.841 31.8027C293.849 31.7719 293.846 31.6967 293.84 31.7105C293.868 31.6416 293.903 31.5833 293.957 31.5303C294.154 31.3385 294.46 31.3428 294.674 31.1647C294.892 30.9825 294.74 30.6762 294.521 30.5925C294.106 30.4335 293.446 30.7048 293.123 30.9772C292.746 31.2951 292.547 31.8132 292.705 32.2922C292.883 32.8327 293.426 33.1516 293.983 33.1697C294.491 33.1866 295.294 32.9206 295.38 32.342C295.41 32.1375 295.359 31.9351 295.166 31.8239Z" fill="#386641"/>
<path d="M302.919 29.5488C302.587 29.3443 302.159 29.5711 301.943 29.2638C301.721 28.948 302.149 28.6099 302.43 28.5676C302.825 28.5082 302.797 27.8841 302.43 27.8025C301.339 27.563 300.332 28.5835 300.63 29.6675C300.906 30.671 302.688 31.4838 303.207 30.2493C303.314 29.995 303.134 29.6802 302.919 29.5488Z" fill="#386641"/>
<path d="M301.657 36.2469C301.363 36.3147 301.136 36.4949 300.858 36.5955C300.742 36.6379 300.628 36.6358 300.516 36.6665C300.515 36.6665 300.514 36.6676 300.513 36.6676C300.538 36.5691 300.596 36.3857 300.685 36.2808C300.873 36.0572 301.181 36.0424 301.36 35.822C301.536 35.6037 301.51 35.343 301.276 35.1777C300.811 34.8502 300.053 35.2762 299.703 35.6122C299.235 36.0615 298.975 36.7725 299.268 37.3829C299.901 38.7022 302.212 38.1363 302.355 36.7715C302.392 36.4027 301.972 36.1738 301.657 36.2469ZM300.494 36.6719C300.318 36.7153 300.456 36.6273 300.494 36.6719V36.6719Z" fill="#386641"/>
<path d="M307.839 31.0049C307.526 31.1299 307.249 31.3207 306.945 31.4658C306.813 31.5284 306.675 31.5739 306.543 31.6322C306.543 31.6322 306.535 31.6343 306.528 31.6354C306.625 31.3238 306.701 31.0801 306.873 30.7887C307.019 30.5429 307.008 30.1486 306.678 30.048C306.658 30.0427 306.64 30.0363 306.621 30.031C306.461 29.9823 306.264 30.0331 306.149 30.155C305.537 30.8004 304.878 32.1483 305.856 32.7989C306.767 33.4051 308.169 32.5711 308.511 31.6704C308.65 31.3058 308.214 30.8544 307.839 31.0049Z" fill="#386641"/>
</svg>
