<svg width="281" height="60" viewBox="0 0 281 60" fill="none" xmlns="http://www.w3.org/2000/svg">
<rect width="281" height="60" rx="12" fill="white"/>
<rect x="0.5" y="0.5" width="280" height="59" rx="11.5" stroke="black" stroke-opacity="0.1"/>
<g clip-path="url(#clip0_95_1818)">
<path d="M36.4402 28.8631L24.0872 43.3868C24.5365 44.9225 25.9641 46 27.5597 46C28.2542 46 28.8622 45.8256 29.3831 45.4769L44.5776 36.7603L36.4402 28.8631Z" fill="#EA4335"/>
<path d="M51.003 26.8192L44.4905 23.0691L37.5448 29.9581L44.5776 36.7603L51.0895 33.0976C52.2184 32.487 53.0001 31.2663 53.0001 29.9581C52.9129 28.6499 52.1319 27.4293 51.003 26.8192Z" fill="#FBBC04"/>
<path d="M36.4103 31.0913L44.4911 23.0691L29.4702 14.5231C28.9493 14.1744 28.2542 14 27.5597 14C25.9105 14 24.4344 15.1338 24.0872 16.6164L36.4103 31.0913Z" fill="#34A853"/>
<path d="M24.0865 16.6163C24 16.8776 24 17.227 24 17.5751V42.4286C24 42.7767 24 43.0386 24.0871 43.3874L37.546 29.9581L24.0865 16.6163Z" fill="#4285F4"/>
</g>
<path d="M66.12 36V24.48H69.792C69.888 24.48 70.0773 24.4827 70.36 24.488C70.648 24.4933 70.9253 24.512 71.192 24.544C72.104 24.6613 72.8747 24.9867 73.504 25.52C74.1387 26.048 74.6187 26.7227 74.944 27.544C75.2693 28.3653 75.432 29.264 75.432 30.24C75.432 31.216 75.2693 32.1147 74.944 32.936C74.6187 33.7573 74.1387 34.4347 73.504 34.968C72.8747 35.496 72.104 35.8187 71.192 35.936C70.9307 35.968 70.656 35.9867 70.368 35.992C70.08 35.9973 69.888 36 69.792 36H66.12ZM68.08 34.184H69.792C69.952 34.184 70.1547 34.1787 70.4 34.168C70.6507 34.1573 70.872 34.1333 71.064 34.096C71.608 33.9947 72.0507 33.752 72.392 33.368C72.7333 32.984 72.984 32.5173 73.144 31.968C73.3093 31.4187 73.392 30.8427 73.392 30.24C73.392 29.616 73.3093 29.0293 73.144 28.48C72.9787 27.9307 72.7227 27.4693 72.376 27.096C72.0347 26.7227 71.5973 26.4853 71.064 26.384C70.872 26.3413 70.6507 26.3173 70.4 26.312C70.1547 26.3013 69.952 26.296 69.792 26.296H68.08V34.184ZM80.8191 36.24C79.9551 36.24 79.2005 36.0453 78.5551 35.656C77.9098 35.2667 77.4085 34.7307 77.0511 34.048C76.6991 33.36 76.5231 32.5707 76.5231 31.68C76.5231 30.7733 76.7045 29.9787 77.0671 29.296C77.4298 28.6133 77.9338 28.08 78.5791 27.696C79.2245 27.312 79.9711 27.12 80.8191 27.12C81.6885 27.12 82.4458 27.3147 83.0911 27.704C83.7365 28.0933 84.2378 28.632 84.5951 29.32C84.9525 30.0027 85.1311 30.7893 85.1311 31.68C85.1311 32.576 84.9498 33.368 84.5871 34.056C84.2298 34.7387 83.7285 35.2747 83.0831 35.664C82.4378 36.048 81.6831 36.24 80.8191 36.24ZM80.8191 34.432C81.5871 34.432 82.1578 34.176 82.5311 33.664C82.9045 33.152 83.0911 32.4907 83.0911 31.68C83.0911 30.8427 82.9018 30.176 82.5231 29.68C82.1445 29.1787 81.5765 28.928 80.8191 28.928C80.3018 28.928 79.8751 29.0453 79.5391 29.28C79.2085 29.5093 78.9631 29.832 78.8031 30.248C78.6431 30.6587 78.5631 31.136 78.5631 31.68C78.5631 32.5173 78.7525 33.1867 79.1311 33.688C79.5151 34.184 80.0778 34.432 80.8191 34.432ZM88.1013 36L85.4613 27.344L87.3493 27.36L89.0373 32.904L90.7493 27.36H92.3733L94.0773 32.904L95.7733 27.36H97.6613L95.0213 36H93.5173L91.5573 30.056L89.6053 36H88.1013ZM104.761 36V31.84C104.761 31.568 104.742 31.2667 104.705 30.936C104.668 30.6053 104.58 30.288 104.441 29.984C104.308 29.6747 104.105 29.4213 103.833 29.224C103.566 29.0267 103.204 28.928 102.745 28.928C102.5 28.928 102.257 28.968 102.017 29.048C101.777 29.128 101.558 29.2667 101.361 29.464C101.169 29.656 101.014 29.9227 100.897 30.264C100.78 30.6 100.721 31.032 100.721 31.56L99.577 31.072C99.577 30.336 99.7183 29.6693 100.001 29.072C100.289 28.4747 100.71 28 101.265 27.648C101.82 27.2907 102.502 27.112 103.313 27.112C103.953 27.112 104.481 27.2187 104.897 27.432C105.313 27.6453 105.644 27.9173 105.889 28.248C106.134 28.5787 106.316 28.9307 106.433 29.304C106.55 29.6773 106.625 30.032 106.657 30.368C106.694 30.6987 106.713 30.968 106.713 31.176V36H104.761ZM98.769 36V27.36H100.489V30.04H100.721V36H98.769ZM108.641 36V24.24H110.569V36H108.641ZM116.461 36.24C115.597 36.24 114.842 36.0453 114.197 35.656C113.552 35.2667 113.05 34.7307 112.693 34.048C112.341 33.36 112.165 32.5707 112.165 31.68C112.165 30.7733 112.346 29.9787 112.709 29.296C113.072 28.6133 113.576 28.08 114.221 27.696C114.866 27.312 115.613 27.12 116.461 27.12C117.33 27.12 118.088 27.3147 118.733 27.704C119.378 28.0933 119.88 28.632 120.237 29.32C120.594 30.0027 120.773 30.7893 120.773 31.68C120.773 32.576 120.592 33.368 120.229 34.056C119.872 34.7387 119.37 35.2747 118.725 35.664C118.08 36.048 117.325 36.24 116.461 36.24ZM116.461 34.432C117.229 34.432 117.8 34.176 118.173 33.664C118.546 33.152 118.733 32.4907 118.733 31.68C118.733 30.8427 118.544 30.176 118.165 29.68C117.786 29.1787 117.218 28.928 116.461 28.928C115.944 28.928 115.517 29.0453 115.181 29.28C114.85 29.5093 114.605 29.832 114.445 30.248C114.285 30.6587 114.205 31.136 114.205 31.68C114.205 32.5173 114.394 33.1867 114.773 33.688C115.157 34.184 115.72 34.432 116.461 34.432ZM124.632 36.24C124.008 36.24 123.48 36.1227 123.048 35.888C122.616 35.648 122.288 35.3307 122.064 34.936C121.845 34.5413 121.736 34.1067 121.736 33.632C121.736 33.216 121.805 32.8427 121.944 32.512C122.082 32.176 122.296 31.888 122.584 31.648C122.872 31.4027 123.245 31.2027 123.704 31.048C124.05 30.936 124.456 30.8347 124.92 30.744C125.389 30.6533 125.896 30.5707 126.44 30.496C126.989 30.416 127.562 30.3307 128.16 30.24L127.472 30.632C127.477 30.0347 127.344 29.5947 127.072 29.312C126.8 29.0293 126.341 28.888 125.696 28.888C125.306 28.888 124.93 28.9787 124.568 29.16C124.205 29.3413 123.952 29.6533 123.808 30.096L122.048 29.544C122.261 28.8133 122.666 28.2267 123.264 27.784C123.866 27.3413 124.677 27.12 125.696 27.12C126.464 27.12 127.138 27.2453 127.72 27.496C128.306 27.7467 128.741 28.1573 129.024 28.728C129.178 29.032 129.272 29.344 129.304 29.664C129.336 29.9787 129.352 30.3227 129.352 30.696V36H127.664V34.128L127.944 34.432C127.554 35.056 127.098 35.5147 126.576 35.808C126.058 36.096 125.41 36.24 124.632 36.24ZM125.016 34.704C125.453 34.704 125.826 34.6267 126.136 34.472C126.445 34.3173 126.69 34.128 126.872 33.904C127.058 33.68 127.184 33.4693 127.248 33.272C127.349 33.0267 127.405 32.7467 127.416 32.432C127.432 32.112 127.44 31.8533 127.44 31.656L128.032 31.832C127.45 31.9227 126.952 32.0027 126.536 32.072C126.12 32.1413 125.762 32.208 125.464 32.272C125.165 32.3307 124.901 32.3973 124.672 32.472C124.448 32.552 124.258 32.6453 124.104 32.752C123.949 32.8587 123.829 32.9813 123.744 33.12C123.664 33.2587 123.624 33.4213 123.624 33.608C123.624 33.8213 123.677 34.0107 123.784 34.176C123.89 34.336 124.045 34.464 124.248 34.56C124.456 34.656 124.712 34.704 125.016 34.704ZM134.578 36.24C133.784 36.24 133.09 36.04 132.498 35.64C131.906 35.24 131.448 34.696 131.122 34.008C130.797 33.32 130.634 32.544 130.634 31.68C130.634 30.8053 130.797 30.0267 131.122 29.344C131.453 28.656 131.92 28.1147 132.522 27.72C133.125 27.32 133.834 27.12 134.65 27.12C135.472 27.12 136.16 27.32 136.714 27.72C137.274 28.1147 137.698 28.656 137.986 29.344C138.274 30.032 138.418 30.8107 138.418 31.68C138.418 32.5387 138.274 33.3147 137.986 34.008C137.698 34.696 137.269 35.24 136.698 35.64C136.128 36.04 135.421 36.24 134.578 36.24ZM134.874 34.512C135.392 34.512 135.808 34.3947 136.122 34.16C136.442 33.92 136.674 33.5867 136.818 33.16C136.968 32.7333 137.042 32.24 137.042 31.68C137.042 31.1147 136.968 30.6213 136.818 30.2C136.674 29.7733 136.448 29.4427 136.138 29.208C135.829 28.968 135.429 28.848 134.938 28.848C134.421 28.848 133.994 28.976 133.658 29.232C133.322 29.4827 133.074 29.824 132.914 30.256C132.754 30.6827 132.674 31.1573 132.674 31.68C132.674 32.208 132.752 32.688 132.906 33.12C133.066 33.5467 133.309 33.8853 133.634 34.136C133.96 34.3867 134.373 34.512 134.874 34.512ZM137.042 36V29.936H136.802V24.48H138.746V36H137.042ZM144.305 36V27.224C144.305 27.0053 144.313 26.7653 144.329 26.504C144.345 26.2373 144.39 25.9733 144.465 25.712C144.539 25.4507 144.675 25.2133 144.873 25C145.118 24.728 145.382 24.5413 145.665 24.44C145.953 24.3333 146.235 24.2747 146.513 24.264C146.79 24.248 147.033 24.24 147.241 24.24H148.321V25.808H147.321C146.953 25.808 146.678 25.9013 146.497 26.088C146.321 26.2693 146.233 26.5093 146.233 26.808V36H144.305ZM142.913 28.872V27.36H148.321V28.872H142.913ZM149.279 36V27.36H150.983V29.464L150.775 29.192C150.882 28.904 151.023 28.6427 151.199 28.408C151.381 28.168 151.597 27.9707 151.847 27.816C152.061 27.672 152.295 27.56 152.551 27.48C152.813 27.3947 153.079 27.344 153.351 27.328C153.623 27.3067 153.887 27.3173 154.143 27.36V29.16C153.887 29.0853 153.591 29.0613 153.255 29.088C152.925 29.1147 152.626 29.208 152.359 29.368C152.093 29.512 151.874 29.696 151.703 29.92C151.538 30.144 151.415 30.4 151.335 30.688C151.255 30.9707 151.215 31.2773 151.215 31.608V36H149.279ZM159.01 36.24C158.146 36.24 157.391 36.0453 156.746 35.656C156.1 35.2667 155.599 34.7307 155.242 34.048C154.89 33.36 154.714 32.5707 154.714 31.68C154.714 30.7733 154.895 29.9787 155.258 29.296C155.62 28.6133 156.124 28.08 156.77 27.696C157.415 27.312 158.162 27.12 159.01 27.12C159.879 27.12 160.636 27.3147 161.282 27.704C161.927 28.0933 162.428 28.632 162.786 29.32C163.143 30.0027 163.322 30.7893 163.322 31.68C163.322 32.576 163.14 33.368 162.778 34.056C162.42 34.7387 161.919 35.2747 161.274 35.664C160.628 36.048 159.874 36.24 159.01 36.24ZM159.01 34.432C159.778 34.432 160.348 34.176 160.722 33.664C161.095 33.152 161.282 32.4907 161.282 31.68C161.282 30.8427 161.092 30.176 160.714 29.68C160.335 29.1787 159.767 28.928 159.01 28.928C158.492 28.928 158.066 29.0453 157.73 29.28C157.399 29.5093 157.154 29.832 156.994 30.248C156.834 30.6587 156.754 31.136 156.754 31.68C156.754 32.5173 156.943 33.1867 157.322 33.688C157.706 34.184 158.268 34.432 159.01 34.432ZM175.14 36V30.752C175.14 30.16 174.994 29.6987 174.7 29.368C174.407 29.032 174.01 28.864 173.508 28.864C173.199 28.864 172.922 28.936 172.676 29.08C172.431 29.2187 172.236 29.4267 172.092 29.704C171.948 29.976 171.876 30.3013 171.876 30.68L171.02 30.176C171.015 29.5787 171.148 29.0533 171.42 28.6C171.698 28.1413 172.071 27.784 172.54 27.528C173.01 27.272 173.532 27.144 174.108 27.144C175.063 27.144 175.794 27.432 176.3 28.008C176.812 28.5787 177.068 29.3307 177.068 30.264V36H175.14ZM164.748 36V27.36H166.452V30.04H166.692V36H164.748ZM169.956 36V30.776C169.956 30.1733 169.81 29.704 169.516 29.368C169.223 29.032 168.823 28.864 168.316 28.864C167.826 28.864 167.431 29.032 167.132 29.368C166.839 29.704 166.692 30.1413 166.692 30.68L165.828 30.104C165.828 29.544 165.967 29.04 166.244 28.592C166.522 28.144 166.895 27.792 167.364 27.536C167.839 27.2747 168.37 27.144 168.956 27.144C169.602 27.144 170.14 27.2827 170.572 27.56C171.01 27.832 171.335 28.2053 171.548 28.68C171.767 29.1493 171.876 29.68 171.876 30.272V36H169.956ZM181.718 36V24.48H186.478C186.59 24.48 186.734 24.4853 186.91 24.496C187.086 24.5013 187.249 24.5173 187.398 24.544C188.065 24.6453 188.614 24.8667 189.046 25.208C189.483 25.5493 189.806 25.9813 190.014 26.504C190.227 27.0213 190.334 27.5973 190.334 28.232C190.334 28.8613 190.227 29.4373 190.014 29.96C189.801 30.4773 189.475 30.9067 189.038 31.248C188.606 31.5893 188.059 31.8107 187.398 31.912C187.249 31.9333 187.083 31.9493 186.902 31.96C186.726 31.9707 186.585 31.976 186.478 31.976H183.646V36H181.718ZM183.646 30.176H186.398C186.505 30.176 186.625 30.1707 186.758 30.16C186.891 30.1493 187.014 30.128 187.126 30.096C187.446 30.016 187.697 29.8747 187.878 29.672C188.065 29.4693 188.195 29.24 188.27 28.984C188.35 28.728 188.39 28.4773 188.39 28.232C188.39 27.9867 188.35 27.736 188.27 27.48C188.195 27.2187 188.065 26.9867 187.878 26.784C187.697 26.5813 187.446 26.44 187.126 26.36C187.014 26.328 186.891 26.3093 186.758 26.304C186.625 26.2933 186.505 26.288 186.398 26.288H183.646V30.176ZM191.777 36V24.24H193.705V36H191.777ZM198.197 36.24C197.573 36.24 197.045 36.1227 196.613 35.888C196.181 35.648 195.853 35.3307 195.629 34.936C195.411 34.5413 195.301 34.1067 195.301 33.632C195.301 33.216 195.371 32.8427 195.509 32.512C195.648 32.176 195.861 31.888 196.149 31.648C196.437 31.4027 196.811 31.2027 197.269 31.048C197.616 30.936 198.021 30.8347 198.485 30.744C198.955 30.6533 199.461 30.5707 200.005 30.496C200.555 30.416 201.128 30.3307 201.725 30.24L201.037 30.632C201.043 30.0347 200.909 29.5947 200.637 29.312C200.365 29.0293 199.907 28.888 199.261 28.888C198.872 28.888 198.496 28.9787 198.133 29.16C197.771 29.3413 197.517 29.6533 197.373 30.096L195.613 29.544C195.827 28.8133 196.232 28.2267 196.829 27.784C197.432 27.3413 198.243 27.12 199.261 27.12C200.029 27.12 200.704 27.2453 201.285 27.496C201.872 27.7467 202.307 28.1573 202.589 28.728C202.744 29.032 202.837 29.344 202.869 29.664C202.901 29.9787 202.917 30.3227 202.917 30.696V36H201.229V34.128L201.509 34.432C201.12 35.056 200.664 35.5147 200.141 35.808C199.624 36.096 198.976 36.24 198.197 36.24ZM198.581 34.704C199.019 34.704 199.392 34.6267 199.701 34.472C200.011 34.3173 200.256 34.128 200.437 33.904C200.624 33.68 200.749 33.4693 200.813 33.272C200.915 33.0267 200.971 32.7467 200.981 32.432C200.997 32.112 201.005 31.8533 201.005 31.656L201.597 31.832C201.016 31.9227 200.517 32.0027 200.101 32.072C199.685 32.1413 199.328 32.208 199.029 32.272C198.731 32.3307 198.467 32.3973 198.237 32.472C198.013 32.552 197.824 32.6453 197.669 32.752C197.515 32.8587 197.395 32.9813 197.309 33.12C197.229 33.2587 197.189 33.4213 197.189 33.608C197.189 33.8213 197.243 34.0107 197.349 34.176C197.456 34.336 197.611 34.464 197.813 34.56C198.021 34.656 198.277 34.704 198.581 34.704ZM205.332 39.84L206.996 35.272L207.028 36.616L203.26 27.36H205.268L207.94 34.208H207.428L210.028 27.36H211.956L207.14 39.84H205.332ZM219.976 36.24C219.133 36.24 218.373 36.0933 217.696 35.8C217.024 35.5067 216.469 35.088 216.032 34.544C215.6 33.9947 215.325 33.344 215.208 32.592L217.208 32.288C217.379 32.9707 217.728 33.4987 218.256 33.872C218.789 34.2453 219.403 34.432 220.096 34.432C220.507 34.432 220.893 34.368 221.256 34.24C221.619 34.112 221.912 33.9253 222.136 33.68C222.365 33.4347 222.48 33.1333 222.48 32.776C222.48 32.616 222.453 32.4693 222.4 32.336C222.347 32.1973 222.267 32.0747 222.16 31.968C222.059 31.8613 221.925 31.7653 221.76 31.68C221.6 31.5893 221.413 31.512 221.2 31.448L218.224 30.568C217.968 30.4933 217.691 30.3947 217.392 30.272C217.099 30.144 216.819 29.9707 216.552 29.752C216.291 29.528 216.075 29.2453 215.904 28.904C215.739 28.5573 215.656 28.1307 215.656 27.624C215.656 26.8827 215.843 26.2613 216.216 25.76C216.595 25.2533 217.101 24.8747 217.736 24.624C218.376 24.3733 219.085 24.2507 219.864 24.256C220.653 24.2613 221.357 24.3973 221.976 24.664C222.595 24.9253 223.112 25.3067 223.528 25.808C223.944 26.3093 224.237 26.9147 224.408 27.624L222.336 27.984C222.251 27.5787 222.085 27.2347 221.84 26.952C221.6 26.664 221.304 26.4453 220.952 26.296C220.605 26.1467 220.235 26.0667 219.84 26.056C219.456 26.0507 219.099 26.1093 218.768 26.232C218.443 26.3493 218.179 26.52 217.976 26.744C217.779 26.968 217.68 27.2293 217.68 27.528C217.68 27.8107 217.765 28.0427 217.936 28.224C218.107 28.4 218.317 28.5413 218.568 28.648C218.824 28.7493 219.083 28.8347 219.344 28.904L221.408 29.48C221.691 29.5547 222.008 29.656 222.36 29.784C222.712 29.912 223.051 30.0907 223.376 30.32C223.701 30.5493 223.968 30.8507 224.176 31.224C224.389 31.5973 224.496 32.072 224.496 32.648C224.496 33.2453 224.371 33.7707 224.12 34.224C223.875 34.672 223.541 35.0453 223.12 35.344C222.699 35.6427 222.216 35.8667 221.672 36.016C221.133 36.1653 220.568 36.24 219.976 36.24ZM230.972 36C230.401 36.1067 229.841 36.152 229.292 36.136C228.748 36.1253 228.26 36.0267 227.828 35.84C227.396 35.648 227.068 35.3467 226.844 34.936C226.646 34.5627 226.542 34.1813 226.532 33.792C226.521 33.4027 226.516 32.9627 226.516 32.472V24.96H228.436V32.36C228.436 32.7067 228.438 33.0107 228.444 33.272C228.454 33.5333 228.51 33.7467 228.612 33.912C228.804 34.232 229.11 34.4107 229.532 34.448C229.953 34.4853 230.433 34.464 230.972 34.384V36ZM224.948 28.872V27.36H230.972V28.872H224.948ZM235.888 36.24C235.024 36.24 234.269 36.0453 233.624 35.656C232.979 35.2667 232.477 34.7307 232.12 34.048C231.768 33.36 231.592 32.5707 231.592 31.68C231.592 30.7733 231.773 29.9787 232.136 29.296C232.499 28.6133 233.003 28.08 233.648 27.696C234.293 27.312 235.04 27.12 235.888 27.12C236.757 27.12 237.515 27.3147 238.16 27.704C238.805 28.0933 239.307 28.632 239.664 29.32C240.021 30.0027 240.2 30.7893 240.2 31.68C240.2 32.576 240.019 33.368 239.656 34.056C239.299 34.7387 238.797 35.2747 238.152 35.664C237.507 36.048 236.752 36.24 235.888 36.24ZM235.888 34.432C236.656 34.432 237.227 34.176 237.6 33.664C237.973 33.152 238.16 32.4907 238.16 31.68C238.16 30.8427 237.971 30.176 237.592 29.68C237.213 29.1787 236.645 28.928 235.888 28.928C235.371 28.928 234.944 29.0453 234.608 29.28C234.277 29.5093 234.032 29.832 233.872 30.248C233.712 30.6587 233.632 31.136 233.632 31.68C233.632 32.5173 233.821 33.1867 234.2 33.688C234.584 34.184 235.147 34.432 235.888 34.432ZM241.643 36V27.36H243.347V29.464L243.139 29.192C243.245 28.904 243.387 28.6427 243.563 28.408C243.744 28.168 243.96 27.9707 244.211 27.816C244.424 27.672 244.659 27.56 244.915 27.48C245.176 27.3947 245.443 27.344 245.715 27.328C245.987 27.3067 246.251 27.3173 246.507 27.36V29.16C246.251 29.0853 245.955 29.0613 245.619 29.088C245.288 29.1147 244.989 29.208 244.723 29.368C244.456 29.512 244.237 29.696 244.067 29.92C243.901 30.144 243.779 30.4 243.699 30.688C243.619 30.9707 243.579 31.2773 243.579 31.608V36H241.643ZM251.485 36.24C250.61 36.24 249.842 36.0507 249.181 35.672C248.52 35.2933 248.002 34.768 247.629 34.096C247.261 33.424 247.077 32.6507 247.077 31.776C247.077 30.832 247.258 30.0133 247.621 29.32C247.984 28.6213 248.488 28.08 249.133 27.696C249.778 27.312 250.525 27.12 251.373 27.12C252.269 27.12 253.029 27.3307 253.653 27.752C254.282 28.168 254.749 28.7573 255.053 29.52C255.357 30.2827 255.472 31.1813 255.397 32.216H253.485V31.512C253.48 30.5733 253.314 29.888 252.989 29.456C252.664 29.024 252.152 28.808 251.453 28.808C250.664 28.808 250.077 29.0533 249.693 29.544C249.309 30.0293 249.117 30.7413 249.117 31.68C249.117 32.5547 249.309 33.232 249.693 33.712C250.077 34.192 250.637 34.432 251.373 34.432C251.848 34.432 252.256 34.328 252.597 34.12C252.944 33.9067 253.21 33.6 253.397 33.2L255.301 33.776C254.97 34.5547 254.458 35.16 253.765 35.592C253.077 36.024 252.317 36.24 251.485 36.24ZM248.509 32.216V30.76H254.453V32.216H248.509Z" fill="black"/>
<defs>
<clipPath id="clip0_95_1818">
<rect width="29" height="32" fill="white" transform="translate(24 14)"/>
</clipPath>
</defs>
</svg>
