<svg width="276" height="335" viewBox="0 0 276 335" fill="none" xmlns="http://www.w3.org/2000/svg">
<g clip-path="url(#clip0_154_1730)">
<g opacity="0.2" filter="url(#filter0_i_154_1730)">
<rect width="276" height="335" rx="12" fill="white" fill-opacity="0.6"/>
</g>
<path d="M110.25 230.047C107.932 230.047 105.667 230.734 103.739 232.022C101.812 233.31 100.31 235.14 99.4233 237.281C98.5363 239.422 98.3043 241.779 98.7564 244.052C99.2086 246.325 100.325 248.413 101.964 250.052C103.602 251.691 105.691 252.807 107.964 253.259C110.237 253.711 112.593 253.479 114.735 252.592C116.876 251.705 118.706 250.203 119.994 248.276C121.281 246.349 121.969 244.083 121.969 241.766C121.981 240.223 121.687 238.694 121.102 237.266C120.518 235.839 119.655 234.542 118.564 233.451C117.474 232.361 116.177 231.498 114.749 230.913C113.322 230.329 111.792 230.034 110.25 230.047ZM115.219 245.082C115.341 245.187 115.441 245.316 115.511 245.462C115.582 245.607 115.621 245.766 115.628 245.927C115.634 246.088 115.607 246.249 115.548 246.4C115.489 246.55 115.399 246.687 115.285 246.801C115.171 246.915 115.034 247.004 114.884 247.063C114.734 247.122 114.573 247.149 114.411 247.143C114.25 247.137 114.092 247.097 113.946 247.027C113.801 246.957 113.671 246.857 113.566 246.734L110.25 243.418L106.934 246.734C106.709 246.926 106.421 247.027 106.126 247.015C105.831 247.004 105.551 246.882 105.343 246.673C105.134 246.464 105.012 246.184 105 245.89C104.989 245.595 105.089 245.306 105.281 245.082L108.598 241.766L105.281 238.449C105.089 238.225 104.989 237.937 105 237.642C105.012 237.347 105.134 237.067 105.343 236.858C105.551 236.65 105.831 236.527 106.126 236.516C106.421 236.505 106.709 236.605 106.934 236.797L110.25 240.113L113.566 236.797C113.791 236.605 114.079 236.505 114.374 236.516C114.669 236.527 114.949 236.65 115.157 236.858C115.366 237.067 115.488 237.347 115.5 237.642C115.511 237.937 115.411 238.225 115.219 238.449L111.902 241.766L115.219 245.082Z" fill="url(#paint0_linear_154_1730)"/>
<path d="M93.8438 212.469C94.491 212.469 95.0156 211.944 95.0156 211.297C95.0156 210.65 94.491 210.125 93.8438 210.125C93.1965 210.125 92.6719 210.65 92.6719 211.297C92.6719 211.944 93.1965 212.469 93.8438 212.469Z" fill="url(#paint1_linear_154_1730)"/>
<path d="M96.1875 241.766C96.1742 238.755 97.133 235.821 98.9214 233.399C100.71 230.977 103.232 229.197 106.113 228.324C106.449 228.223 106.793 228.129 107.145 228.043L98.9414 204.184C98.6626 203.329 98.5241 202.434 98.5312 201.535V192.371C99.3258 192.104 99.9987 191.561 100.428 190.841C100.858 190.121 101.017 189.272 100.875 188.445C100.714 187.604 100.259 186.847 99.5913 186.311C98.9236 185.774 98.0868 185.492 97.2304 185.516H85.7695C84.9132 185.492 84.0763 185.774 83.4087 186.311C82.741 186.847 82.286 187.604 82.125 188.445C81.9864 189.27 82.1462 190.117 82.5758 190.834C83.0053 191.552 83.6764 192.092 84.4687 192.359V201.535C84.4657 202.44 84.3153 203.339 84.0234 204.195L70.8984 242.598C70.6582 243.303 70.5895 244.055 70.6978 244.791C70.8062 245.528 71.0886 246.229 71.5216 246.835C71.9545 247.441 72.5257 247.935 73.1876 248.276C73.8496 248.617 74.5834 248.796 75.3281 248.797H98.0742C96.8349 246.661 96.1838 244.235 96.1875 241.766ZM83.2968 237.078C83.0651 237.078 82.8385 237.009 82.6458 236.881C82.4531 236.752 82.3029 236.569 82.2142 236.355C82.1255 236.141 82.1023 235.905 82.1475 235.678C82.1927 235.45 82.3043 235.242 82.4682 235.078C82.6321 234.914 82.8409 234.802 83.0682 234.757C83.2955 234.712 83.5312 234.735 83.7453 234.824C83.9594 234.912 84.1425 235.063 84.2712 235.255C84.4 235.448 84.4687 235.675 84.4687 235.906C84.4687 236.217 84.3453 236.515 84.1255 236.735C83.9057 236.955 83.6076 237.078 83.2968 237.078ZM87.9843 228.875C87.7526 228.875 87.526 228.806 87.3333 228.678C87.1406 228.549 86.9904 228.366 86.9017 228.152C86.813 227.937 86.7898 227.702 86.835 227.475C86.8802 227.247 86.9918 227.038 87.1557 226.875C87.3196 226.711 87.5284 226.599 87.7557 226.554C87.983 226.509 88.2187 226.532 88.4328 226.62C88.6469 226.709 88.83 226.859 88.9587 227.052C89.0875 227.245 89.1562 227.471 89.1562 227.703C89.1562 228.014 89.0328 228.312 88.813 228.532C88.5932 228.752 88.2951 228.875 87.9843 228.875ZM80.9531 220.496L86.2734 204.945C86.6371 203.845 86.8192 202.694 86.8125 201.535V192.359C86.8037 191.887 86.6524 191.429 86.3784 191.044C86.1045 190.659 85.7207 190.366 85.2773 190.203C84.9922 190.118 84.75 189.928 84.5999 189.671C84.4497 189.415 84.4028 189.11 84.4687 188.82C84.5373 188.532 84.7054 188.278 84.9435 188.102C85.1816 187.926 85.4741 187.84 85.7695 187.859H97.2304C97.5258 187.84 97.8184 187.926 98.0564 188.102C98.2945 188.278 98.4627 188.532 98.5312 188.82C98.5971 189.11 98.5502 189.415 98.4001 189.671C98.2499 189.928 98.0077 190.118 97.7226 190.203C97.2793 190.366 96.8955 190.659 96.6215 191.044C96.3476 191.429 96.1963 191.887 96.1875 192.359V201.535C96.1883 202.695 96.3783 203.847 96.75 204.945L99.5156 213.008C96.8554 213.594 94.1133 215.352 91.4414 216.992C87.539 219.5 83.8125 221.773 80.9531 220.496ZM93.8437 234.734C93.6119 234.734 93.3854 234.666 93.1927 234.537C92.9999 234.408 92.8497 234.225 92.7611 234.011C92.6724 233.797 92.6491 233.561 92.6944 233.334C92.7396 233.107 92.8512 232.898 93.0151 232.734C93.179 232.57 93.3878 232.458 93.6151 232.413C93.8424 232.368 94.078 232.391 94.2922 232.48C94.5063 232.569 94.6893 232.719 94.8181 232.911C94.9469 233.104 95.0156 233.331 95.0156 233.563C95.0156 233.873 94.8921 234.171 94.6724 234.391C94.4526 234.611 94.1545 234.734 93.8437 234.734ZM95.0156 224.188C94.7838 224.188 94.5573 224.119 94.3645 223.99C94.1718 223.861 94.0216 223.678 93.9329 223.464C93.8442 223.25 93.821 223.014 93.8662 222.787C93.9115 222.56 94.0231 222.351 94.187 222.187C94.3508 222.023 94.5597 221.912 94.787 221.866C95.0143 221.821 95.2499 221.844 95.4641 221.933C95.6782 222.022 95.8612 222.172 95.99 222.365C96.1187 222.557 96.1875 222.784 96.1875 223.016C96.1875 223.326 96.064 223.625 95.8442 223.844C95.6245 224.064 95.3264 224.188 95.0156 224.188Z" fill="url(#paint2_linear_154_1730)"/>
<path d="M90.3281 203.094C90.9753 203.094 91.5 202.569 91.5 201.922C91.5 201.275 90.9753 200.75 90.3281 200.75C89.6809 200.75 89.1562 201.275 89.1562 201.922C89.1562 202.569 89.6809 203.094 90.3281 203.094Z" fill="url(#paint3_linear_154_1730)"/>
<path fill-rule="evenodd" clip-rule="evenodd" d="M57.8152 174.666C57.8152 173.98 57.3684 173.378 56.7138 173.175L54.7786 172.583C53.0018 172.035 51.7731 170.806 51.225 169.029L50.6327 167.094C50.4301 166.439 49.8274 165.993 49.1416 165.993C48.4585 165.993 47.8532 166.439 47.6532 167.094L47.0583 169.029C46.5128 170.806 45.2815 172.035 43.5047 172.583L41.5695 173.175C40.9175 173.378 40.4707 173.98 40.4707 174.666C40.4707 175.349 40.9175 175.955 41.5695 176.155L43.5073 176.749C45.2841 177.295 46.5154 178.524 47.0609 180.303L47.6558 182.238C47.8558 182.89 48.4611 183.337 49.1442 183.337C49.83 183.337 50.4327 182.89 50.6353 182.236L51.2276 180.303C51.7757 178.524 53.0044 177.295 54.7812 176.749L56.7164 176.155C57.3684 175.955 57.8152 175.349 57.8152 174.666ZM49.1416 171.952C49.8222 173.069 50.7392 173.986 51.8562 174.666C50.7392 175.344 49.8222 176.264 49.1416 177.381C48.4637 176.264 47.5441 175.344 46.4271 174.666C47.5441 173.986 48.4637 173.069 49.1416 171.952ZM128.913 193.359C130.9 194.362 132.456 195.918 133.462 197.907C134.464 195.918 136.02 194.362 138.01 193.359C136.02 192.356 134.464 190.798 133.462 188.81C132.454 190.798 130.898 192.356 128.913 193.359ZM50.2638 231.131C48.274 230.129 46.718 228.573 45.7153 226.583C44.7126 228.573 43.154 230.129 41.1668 231.131C43.1566 232.134 44.7126 233.69 45.7153 235.68C46.718 233.69 48.274 232.134 50.2638 231.131ZM149.292 240.805L149.887 242.738C150.087 243.392 150.692 243.839 151.375 243.839C152.061 243.839 152.666 243.392 152.866 242.738L153.461 240.805C154.006 239.026 155.235 237.797 157.015 237.251L158.947 236.657C159.602 236.457 160.049 235.851 160.049 235.168C160.049 234.482 159.602 233.877 158.947 233.677L157.015 233.082C155.235 232.537 154.006 231.308 153.461 229.529L152.866 227.596C152.666 226.941 152.061 226.495 151.375 226.495C150.692 226.495 150.087 226.941 149.887 227.596L149.292 229.529C148.746 231.308 147.517 232.537 145.738 233.082L143.805 233.677C143.151 233.877 142.704 234.482 142.704 235.168C142.704 235.851 143.151 236.457 143.805 236.657L145.738 237.251C147.517 237.797 148.746 239.026 149.292 240.805ZM151.378 237.88C150.7 236.766 149.78 235.846 148.666 235.168C149.78 234.488 150.7 233.571 151.378 232.454C152.058 233.571 152.978 234.488 154.09 235.168C152.975 235.846 152.056 236.766 151.378 237.88ZM142.621 258.534C141.823 258.207 141.444 257.298 141.771 256.5C142.099 255.705 143.011 255.323 143.805 255.651C153.173 259.503 158.124 264.348 158.124 269.66C158.124 275.723 151.502 281.266 139.483 285.269C127.994 289.093 112.75 291.2 96.5619 291.2C80.3707 291.2 65.1276 289.093 53.6408 285.269C41.6188 281.266 35 275.723 35 269.66C35 264.348 39.9511 259.503 49.3157 255.651C50.1132 255.323 51.0223 255.705 51.3497 256.5C51.677 257.298 51.2977 258.207 50.5002 258.534C42.515 261.817 38.1172 265.769 38.1172 269.66C38.1172 274.206 44.1334 278.817 54.6253 282.31C65.803 286.033 80.6954 288.082 96.5619 288.082C112.426 288.082 127.318 286.033 138.498 282.31C148.988 278.817 155.007 274.206 155.007 269.66C155.007 265.771 150.609 261.817 142.621 258.534ZM138.249 269.66C138.249 273.229 133.898 276.128 125.315 278.274C117.616 280.201 107.404 281.264 96.5619 281.264C85.7192 281.264 75.5079 280.201 67.8058 278.274C59.2257 276.128 54.8747 273.229 54.8747 269.66C54.8747 265.945 59.5686 262.963 68.8267 260.799C69.6657 260.604 70.5048 261.124 70.6996 261.963C70.897 262.799 70.3749 263.638 69.5358 263.836C60.4233 265.966 57.9919 268.499 57.9919 269.66C57.9919 270.753 60.2181 273.161 68.5643 275.25C76.0222 277.118 85.966 278.146 96.5619 278.146C107.155 278.146 117.099 277.118 124.559 275.25C132.906 273.161 135.132 270.753 135.132 269.66C135.132 268.499 132.7 265.966 123.585 263.836C122.746 263.638 122.227 262.799 122.422 261.963C122.619 261.124 123.458 260.604 124.294 260.799C133.558 262.963 138.249 265.945 138.249 269.66Z" fill="url(#paint4_linear_154_1730)"/>
</g>
<defs>
<filter id="filter0_i_154_1730" x="0" y="0" width="276" height="338.599" filterUnits="userSpaceOnUse" color-interpolation-filters="sRGB">
<feFlood flood-opacity="0" result="BackgroundImageFix"/>
<feBlend mode="normal" in="SourceGraphic" in2="BackgroundImageFix" result="shape"/>
<feColorMatrix in="SourceAlpha" type="matrix" values="0 0 0 0 0 0 0 0 0 0 0 0 0 0 0 0 0 0 127 0" result="hardAlpha"/>
<feOffset dy="3.59943"/>
<feGaussianBlur stdDeviation="22.4964"/>
<feComposite in2="hardAlpha" operator="arithmetic" k2="-1" k3="1"/>
<feColorMatrix type="matrix" values="0 0 0 0 0 0 0 0 0 0 0 0 0 0 0 0 0 0 0.25 0"/>
<feBlend mode="normal" in2="shape" result="effect1_innerShadow_154_1730"/>
</filter>
<linearGradient id="paint0_linear_154_1730" x1="110.25" y1="230.047" x2="110.25" y2="253.484" gradientUnits="userSpaceOnUse">
<stop stop-color="#386641"/>
<stop offset="1" stop-color="white"/>
</linearGradient>
<linearGradient id="paint1_linear_154_1730" x1="93.8438" y1="210.125" x2="93.8438" y2="212.469" gradientUnits="userSpaceOnUse">
<stop stop-color="#386641"/>
<stop offset="1" stop-color="white"/>
</linearGradient>
<linearGradient id="paint2_linear_154_1730" x1="88.8962" y1="185.514" x2="88.8962" y2="248.797" gradientUnits="userSpaceOnUse">
<stop stop-color="#386641"/>
<stop offset="1" stop-color="white"/>
</linearGradient>
<linearGradient id="paint3_linear_154_1730" x1="90.3281" y1="200.75" x2="90.3281" y2="203.094" gradientUnits="userSpaceOnUse">
<stop stop-color="#386641"/>
<stop offset="1" stop-color="white"/>
</linearGradient>
<linearGradient id="paint4_linear_154_1730" x1="97.5243" y1="165.993" x2="97.5243" y2="291.2" gradientUnits="userSpaceOnUse">
<stop stop-color="#386641"/>
<stop offset="1" stop-color="white"/>
</linearGradient>
<clipPath id="clip0_154_1730">
<rect width="276" height="335" fill="white"/>
</clipPath>
</defs>
</svg>
