<svg width="276" height="335" viewBox="0 0 276 335" fill="none" xmlns="http://www.w3.org/2000/svg">
<g clip-path="url(#clip0_154_1742)">
<g opacity="0.2" filter="url(#filter0_i_154_1742)">
<rect width="276" height="335" rx="12" fill="white" fill-opacity="0.6"/>
</g>
<path fill-rule="evenodd" clip-rule="evenodd" d="M54.8152 174.666C54.8152 173.98 54.3684 173.378 53.7138 173.175L51.7786 172.583C50.0018 172.035 48.7731 170.806 48.225 169.029L47.6327 167.094C47.4301 166.439 46.8274 165.993 46.1416 165.993C45.4585 165.993 44.8532 166.439 44.6532 167.094L44.0583 169.029C43.5128 170.806 42.2815 172.035 40.5047 172.583L38.5695 173.175C37.9175 173.378 37.4707 173.98 37.4707 174.666C37.4707 175.349 37.9175 175.955 38.5695 176.155L40.5073 176.749C42.2841 177.295 43.5154 178.524 44.0609 180.303L44.6558 182.238C44.8558 182.89 45.4611 183.337 46.1442 183.337C46.83 183.337 47.4327 182.89 47.6353 182.236L48.2276 180.303C48.7757 178.524 50.0044 177.295 51.7812 176.749L53.7164 176.155C54.3684 175.955 54.8152 175.349 54.8152 174.666ZM46.1416 171.952C46.8222 173.069 47.7392 173.986 48.8562 174.666C47.7392 175.344 46.8222 176.264 46.1416 177.381C45.4637 176.264 44.5441 175.344 43.4271 174.666C44.5441 173.986 45.4637 173.069 46.1416 171.952ZM125.913 193.359C127.9 194.362 129.456 195.918 130.462 197.907C131.464 195.918 133.02 194.362 135.01 193.359C133.02 192.356 131.464 190.798 130.462 188.81C129.454 190.798 127.898 192.356 125.913 193.359ZM47.2638 231.131C45.274 230.129 43.718 228.573 42.7153 226.583C41.7126 228.573 40.154 230.129 38.1668 231.131C40.1566 232.134 41.7126 233.69 42.7153 235.68C43.718 233.69 45.274 232.134 47.2638 231.131ZM146.292 240.805L146.887 242.738C147.087 243.392 147.692 243.839 148.375 243.839C149.061 243.839 149.666 243.392 149.866 242.738L150.461 240.805C151.006 239.026 152.235 237.797 154.015 237.251L155.947 236.657C156.602 236.457 157.049 235.851 157.049 235.168C157.049 234.482 156.602 233.877 155.947 233.677L154.015 233.082C152.235 232.537 151.006 231.308 150.461 229.529L149.866 227.596C149.666 226.941 149.061 226.495 148.375 226.495C147.692 226.495 147.087 226.941 146.887 227.596L146.292 229.529C145.746 231.308 144.517 232.537 142.738 233.082L140.805 233.677C140.151 233.877 139.704 234.482 139.704 235.168C139.704 235.851 140.151 236.457 140.805 236.657L142.738 237.251C144.517 237.797 145.746 239.026 146.292 240.805ZM148.378 237.88C147.7 236.766 146.78 235.846 145.666 235.168C146.78 234.488 147.7 233.571 148.378 232.454C149.058 233.571 149.978 234.488 151.09 235.168C149.975 235.846 149.056 236.766 148.378 237.88ZM139.621 258.534C138.823 258.207 138.444 257.298 138.771 256.5C139.099 255.705 140.011 255.323 140.805 255.651C150.173 259.503 155.124 264.348 155.124 269.66C155.124 275.723 148.502 281.266 136.483 285.269C124.994 289.093 109.75 291.2 93.5619 291.2C77.3707 291.2 62.1276 289.093 50.6408 285.269C38.6188 281.266 32 275.723 32 269.66C32 264.348 36.9511 259.503 46.3157 255.651C47.1132 255.323 48.0223 255.705 48.3497 256.5C48.677 257.298 48.2977 258.207 47.5002 258.534C39.515 261.817 35.1172 265.769 35.1172 269.66C35.1172 274.206 41.1334 278.817 51.6253 282.31C62.803 286.033 77.6954 288.082 93.5619 288.082C109.426 288.082 124.318 286.033 135.498 282.31C145.988 278.817 152.007 274.206 152.007 269.66C152.007 265.771 147.609 261.817 139.621 258.534ZM135.249 269.66C135.249 273.229 130.898 276.128 122.315 278.274C114.616 280.201 104.404 281.264 93.5619 281.264C82.7192 281.264 72.5079 280.201 64.8058 278.274C56.2257 276.128 51.8747 273.229 51.8747 269.66C51.8747 265.945 56.5686 262.963 65.8267 260.799C66.6657 260.604 67.5048 261.124 67.6996 261.963C67.897 262.799 67.3749 263.638 66.5358 263.836C57.4233 265.966 54.9919 268.499 54.9919 269.66C54.9919 270.753 57.2181 273.161 65.5643 275.25C73.0222 277.118 82.966 278.146 93.5619 278.146C104.155 278.146 114.099 277.118 121.559 275.25C129.906 273.161 132.132 270.753 132.132 269.66C132.132 268.499 129.7 265.966 120.585 263.836C119.746 263.638 119.227 262.799 119.422 261.963C119.619 261.124 120.458 260.604 121.294 260.799C130.558 262.963 135.249 265.945 135.249 269.66Z" fill="url(#paint0_linear_154_1742)"/>
<g clip-path="url(#clip1_154_1742)">
<path d="M78.7188 248.181C78.2938 247.863 77.7626 247.544 77.3376 247.331C77.4438 246.481 77.3376 245.525 77.1251 244.569C76.7001 242.975 75.8501 241.488 74.6813 240.106C73.6188 240.956 73.0876 242.444 73.3001 244.038C72.5563 243.294 71.8126 242.55 71.1751 241.806C71.6001 241.063 71.8126 240.106 71.8126 239.15C71.9188 237.556 71.6001 235.963 70.8563 234.369C69.4751 234.9 68.6251 236.281 68.4126 237.875C67.8813 237.025 67.4563 236.069 67.0313 235.219C67.6688 234.581 68.2001 233.731 68.5188 232.775C69.0501 231.288 69.1563 229.694 68.8376 227.994C67.3501 228.206 66.0751 229.269 65.4376 230.863C65.1188 229.8 64.9063 228.844 64.8001 227.781C65.6501 227.356 66.3938 226.613 66.9251 225.763C67.7751 224.488 68.4126 222.894 68.5188 221.194C66.9251 220.981 65.3313 221.831 64.3751 223.319C64.3751 222.256 64.4813 221.088 64.5876 220.025C65.5438 219.813 66.5001 219.281 67.3501 218.644C68.5188 217.688 69.4751 216.306 70.1126 214.713C68.6251 214.075 66.8188 214.5 65.4376 215.775C65.7563 214.713 66.0751 213.544 66.5001 212.481C67.5626 212.588 68.6251 212.269 69.5813 211.844C70.9626 211.206 72.2376 210.144 73.3001 208.656C72.0251 207.594 70.1126 207.594 68.4126 208.55C69.0501 207.488 69.6876 206.531 70.4313 205.575C71.3876 206 72.5563 206 73.7251 205.788C75.3188 205.469 76.9126 204.831 78.4001 203.663C77.4438 202.281 75.5313 201.75 73.5126 202.281C75.0001 200.9 76.5938 199.625 78.5063 198.563C79.0376 198.244 79.2501 197.606 78.9313 197.075C78.6126 196.544 77.8688 196.331 77.3376 196.65C75.3188 197.819 73.5126 199.2 71.9188 200.688C72.7688 198.563 72.8751 196.65 71.9188 195.163C70.0063 196.438 68.6251 198.563 68.3063 200.369C67.9876 201.75 68.2001 202.919 68.8376 203.875C67.9876 204.938 67.2438 206.106 66.6063 207.169C66.8188 204.938 66.2876 203.025 65.0126 201.963C63.5251 203.981 62.8876 206.319 63.1001 208.125C63.2063 209.506 63.7376 210.569 64.5876 211.313C64.0563 212.588 63.6313 213.756 63.3126 215.031C62.8876 212.906 61.9313 211.206 60.3376 210.463C59.4876 212.8 59.4876 215.138 60.1251 216.838C60.6563 218.113 61.4001 218.963 62.4626 219.494C62.2501 220.769 62.2501 222.044 62.2501 223.319C61.2938 221.406 59.9126 220.131 58.2126 219.919C58.0001 222.363 58.6376 224.594 59.7001 226.081C60.4438 227.144 61.5063 227.781 62.5688 227.994C62.6751 229.269 62.9938 230.438 63.2063 231.606C61.8251 230.119 60.2313 229.269 58.5313 229.481C58.9563 231.925 60.1251 233.944 61.6126 235.006C62.5688 235.856 63.7376 236.175 64.6938 236.069C65.1188 237.131 65.6501 238.3 66.1813 239.256C64.3751 238.513 62.6751 238.088 61.1876 238.725C62.2501 240.956 63.9501 242.656 65.6501 243.4C66.8188 243.931 67.8813 243.931 68.8376 243.719C69.5813 244.675 70.3251 245.525 71.1751 246.375C69.3688 245.95 67.7751 246.056 66.6063 247.013C68.3063 248.925 70.5376 250.094 72.4501 250.413C73.6188 250.625 74.6813 250.413 75.5313 249.988C75.9563 250.306 76.4876 250.625 76.9126 250.944C77.7626 251.475 78.8251 251.156 79.2501 250.306C79.6751 249.563 79.4626 248.606 78.7188 248.181Z" fill="url(#paint1_linear_154_1742)"/>
<path d="M121.006 231.606C121.325 230.438 121.538 229.163 121.644 227.994C122.706 227.781 123.663 227.144 124.513 226.081C125.575 224.594 126.213 222.363 126 219.919C124.3 220.131 122.919 221.513 121.963 223.319C121.963 222.044 121.856 220.769 121.75 219.494C122.706 219.069 123.556 218.113 124.088 216.838C124.725 215.138 124.831 212.8 123.875 210.463C122.281 211.206 121.325 212.906 120.9 215.031C120.581 213.756 120.156 212.481 119.625 211.313C120.475 210.569 121.006 209.506 121.113 208.125C121.325 206.319 120.688 203.981 119.2 201.963C117.819 203.025 117.394 205.044 117.606 207.169C116.756 206 116.013 204.938 115.163 203.875C115.8 203.025 116.013 201.75 115.694 200.369C115.375 198.563 113.994 196.438 111.869 194.738C110.913 196.119 111.019 198.138 111.869 200.263C110.275 198.775 108.469 197.394 106.45 196.225C105.919 195.906 105.175 196.119 104.856 196.65C104.538 197.181 104.75 197.819 105.281 198.138C107.088 199.2 108.788 200.475 110.275 201.856C108.256 201.325 106.344 201.856 105.388 203.238C106.875 204.406 108.469 205.044 110.063 205.363C111.231 205.575 112.4 205.575 113.356 205.15C114.1 206.106 114.844 207.169 115.375 208.125C113.675 207.169 111.763 207.169 110.488 208.231C111.55 209.613 112.825 210.781 114.206 211.419C115.269 211.95 116.331 212.163 117.288 212.056C117.713 213.119 118.031 214.181 118.35 215.35C116.969 214.075 115.163 213.65 113.675 214.288C114.313 215.881 115.269 217.263 116.438 218.219C117.288 218.963 118.244 219.388 119.2 219.6C119.306 220.663 119.413 221.831 119.413 222.894C118.456 221.406 116.863 220.556 115.269 220.769C115.481 222.469 116.013 224.063 116.863 225.338C117.394 226.188 118.138 226.931 118.988 227.356C118.775 228.419 118.563 229.375 118.35 230.438C117.713 228.844 116.544 227.675 114.95 227.569C114.631 229.269 114.844 230.969 115.269 232.35C115.588 233.306 116.013 234.156 116.756 234.794C116.331 235.75 115.906 236.6 115.375 237.45C115.163 235.856 114.313 234.475 112.931 233.944C112.188 235.538 111.869 237.131 111.975 238.725C111.975 239.681 112.188 240.638 112.613 241.381C111.975 242.125 111.231 242.869 110.488 243.613C110.7 242.019 110.275 240.531 109.106 239.681C107.938 241.063 107.088 242.55 106.663 244.144C106.45 245.1 106.344 246.056 106.45 246.906C106.025 247.225 105.6 247.544 105.069 247.756C104.325 248.181 104.113 249.138 104.431 249.881C104.856 250.731 105.919 251.05 106.769 250.519C107.3 250.2 107.725 249.881 108.15 249.563C109 249.988 110.063 250.2 111.231 249.988C113.144 249.669 115.375 248.5 117.075 246.588C115.906 245.631 114.313 245.525 112.506 245.95C113.356 245.1 114.1 244.25 114.844 243.294C115.8 243.506 116.863 243.4 118.031 242.975C119.731 242.231 121.431 240.638 122.494 238.3C121.006 237.663 119.306 238.088 117.713 239.044C118.244 237.981 118.775 236.919 119.2 235.856C120.263 235.856 121.325 235.538 122.281 234.794C123.663 233.625 124.938 231.713 125.363 229.269C123.981 229.269 122.388 230.225 121.006 231.606Z" fill="url(#paint2_linear_154_1742)"/>
<path d="M105.069 241.381L102.838 228.525L112.188 219.387C112.506 219.069 112.613 218.644 112.506 218.325C112.4 217.9 112.081 217.687 111.656 217.581L98.6939 215.669L92.9564 203.981C92.7439 203.663 92.4252 203.344 92.0002 203.344C91.5752 203.344 91.2564 203.556 91.0439 203.981L85.3064 215.669L72.3439 217.581C71.9189 217.687 71.6002 217.9 71.4939 218.325C71.3877 218.75 71.4939 219.175 71.8127 219.387L81.1627 228.525L78.9314 241.381C78.8252 241.806 79.0377 242.231 79.3564 242.444C79.6752 242.656 80.1002 242.762 80.5252 242.55L92.0002 236.387L103.581 242.444C103.688 242.55 103.9 242.55 104.113 242.55C104.325 242.55 104.538 242.444 104.75 242.337C104.963 242.125 105.175 241.806 105.069 241.381Z" fill="url(#paint3_linear_154_1742)"/>
</g>
</g>
<defs>
<filter id="filter0_i_154_1742" x="0" y="0" width="276" height="338.599" filterUnits="userSpaceOnUse" color-interpolation-filters="sRGB">
<feFlood flood-opacity="0" result="BackgroundImageFix"/>
<feBlend mode="normal" in="SourceGraphic" in2="BackgroundImageFix" result="shape"/>
<feColorMatrix in="SourceAlpha" type="matrix" values="0 0 0 0 0 0 0 0 0 0 0 0 0 0 0 0 0 0 127 0" result="hardAlpha"/>
<feOffset dy="3.59943"/>
<feGaussianBlur stdDeviation="22.4964"/>
<feComposite in2="hardAlpha" operator="arithmetic" k2="-1" k3="1"/>
<feColorMatrix type="matrix" values="0 0 0 0 0 0 0 0 0 0 0 0 0 0 0 0 0 0 0.25 0"/>
<feBlend mode="normal" in2="shape" result="effect1_innerShadow_154_1742"/>
</filter>
<linearGradient id="paint0_linear_154_1742" x1="94.5243" y1="165.993" x2="94.5243" y2="291.2" gradientUnits="userSpaceOnUse">
<stop stop-color="#386641"/>
<stop offset="1" stop-color="white"/>
</linearGradient>
<linearGradient id="paint1_linear_154_1742" x1="68.8193" y1="195.163" x2="68.8193" y2="251.204" gradientUnits="userSpaceOnUse">
<stop stop-color="#386641"/>
<stop offset="1" stop-color="white"/>
</linearGradient>
<linearGradient id="paint2_linear_154_1742" x1="115.164" y1="194.738" x2="115.164" y2="250.779" gradientUnits="userSpaceOnUse">
<stop stop-color="#386641"/>
<stop offset="1" stop-color="white"/>
</linearGradient>
<linearGradient id="paint3_linear_154_1742" x1="92.0002" y1="203.344" x2="92.0002" y2="242.666" gradientUnits="userSpaceOnUse">
<stop stop-color="#386641"/>
<stop offset="1" stop-color="white"/>
</linearGradient>
<clipPath id="clip0_154_1742">
<rect width="276" height="335" fill="white"/>
</clipPath>
<clipPath id="clip1_154_1742">
<rect width="68" height="68" fill="white" transform="translate(58 189)"/>
</clipPath>
</defs>
</svg>
