<svg width="276" height="335" viewBox="0 0 276 335" fill="none" xmlns="http://www.w3.org/2000/svg">
<g clip-path="url(#clip0_154_1726)">
<g opacity="0.2" filter="url(#filter0_i_154_1726)">
<rect width="276" height="335" rx="12" fill="white" fill-opacity="0.6"/>
</g>
<path fill-rule="evenodd" clip-rule="evenodd" d="M68.336 231.326C67.736 240.374 71.0921 247.769 78.3136 253.308C83.6232 257.383 91.1642 260.503 100.212 262.394C99.5598 258.568 98.965 254.78 98.3935 251.102C98.3675 250.951 98.3467 250.803 98.3234 250.653L85.3844 245.031C84.5948 244.689 84.2337 243.772 84.5766 242.982C84.9195 242.192 85.8364 241.831 86.6261 242.174L97.7519 247.006C97.0375 242.494 96.305 238.062 95.4452 233.643L80.7139 226.079C79.9475 225.687 79.6462 224.746 80.0385 223.98C80.4333 223.214 81.3711 222.912 82.1374 223.307L94.6451 229.729C93.8398 225.975 92.9176 222.214 91.8084 218.408C91.4733 217.26 91.1305 216.122 90.7746 215L82.4023 209.524C81.6828 209.054 81.4802 208.088 81.9503 207.368C82.4231 206.646 83.3894 206.446 84.109 206.916L89.0809 210.168C86.0546 202.419 81.5555 195.489 72.2663 189.855C75.6744 197.827 72.9417 209.462 70.6375 219.255C69.5621 223.816 68.549 228.123 68.336 231.326ZM58.7766 174.666C58.7766 173.98 58.3298 173.378 57.6752 173.175L55.74 172.583C53.9632 172.035 52.7345 170.806 52.1864 169.029L51.5941 167.094C51.3915 166.439 50.7889 165.993 50.1031 165.993C49.4199 165.993 48.8146 166.439 48.6146 167.094L48.0197 169.029C47.4742 170.806 46.243 172.035 44.4662 172.583L42.5309 173.175C41.8789 173.378 41.4321 173.98 41.4321 174.666C41.4321 175.349 41.8789 175.955 42.5309 176.155L44.4688 176.749C46.2455 177.295 47.4768 178.524 48.0223 180.303L48.6172 182.238C48.8172 182.89 49.4225 183.337 50.1057 183.337C50.7914 183.337 51.3941 182.89 51.5967 182.236L52.189 180.303C52.7371 178.524 53.9658 177.295 55.7426 176.749L57.6778 176.155C58.3298 175.955 58.7766 175.349 58.7766 174.666ZM50.1031 171.952C50.7837 173.069 51.7006 173.986 52.8176 174.666C51.7006 175.344 50.7837 176.264 50.1031 177.381C49.4251 176.264 48.5055 175.344 47.3885 174.666C48.5055 173.986 49.4251 173.069 50.1031 171.952ZM129.874 193.359C131.862 194.362 133.418 195.918 134.423 197.907C135.426 195.918 136.982 194.362 138.971 193.359C136.982 192.356 135.426 190.798 134.423 188.81C133.415 190.798 131.859 192.356 129.874 193.359ZM51.2253 231.131C49.2355 230.129 47.6795 228.573 46.6768 226.583C45.6741 228.573 44.1155 230.129 42.1283 231.131C44.1181 232.134 45.6741 233.69 46.6768 235.68C47.6795 233.69 49.2355 232.134 51.2253 231.131ZM150.253 240.805L150.848 242.738C151.048 243.392 151.653 243.839 152.336 243.839C153.022 243.839 153.627 243.392 153.827 242.738L154.422 240.805C154.968 239.026 156.197 237.797 157.976 237.251L159.909 236.657C160.563 236.457 161.01 235.851 161.01 235.168C161.01 234.482 160.563 233.877 159.909 233.677L157.976 233.082C156.197 232.537 154.968 231.308 154.422 229.529L153.827 227.596C153.627 226.941 153.022 226.495 152.336 226.495C151.653 226.495 151.048 226.941 150.848 227.596L150.253 229.529C149.708 231.308 148.479 232.537 146.7 233.082L144.767 233.677C144.112 233.877 143.665 234.482 143.665 235.168C143.665 235.851 144.112 236.457 144.767 236.657L146.7 237.251C148.479 237.797 149.708 239.026 150.253 240.805ZM152.339 237.88C151.661 236.766 150.741 235.846 149.627 235.168C150.741 234.488 151.661 233.571 152.339 232.454C153.02 233.571 153.939 234.488 155.051 235.168C153.937 235.846 153.017 236.766 152.339 237.88ZM143.582 258.534C142.785 258.207 142.406 257.298 142.733 256.5C143.06 255.705 143.972 255.323 144.767 255.651C154.134 259.503 159.085 264.348 159.085 269.66C159.085 275.723 152.464 281.266 140.444 285.269C128.955 289.093 113.712 291.2 97.5233 291.2C81.3321 291.2 66.089 289.093 54.6022 285.269C42.5803 281.266 35.9614 275.723 35.9614 269.66C35.9614 264.348 40.9126 259.503 50.2771 255.651C51.0746 255.323 51.9838 255.705 52.3111 256.5C52.6384 257.298 52.2591 258.207 51.4616 258.534C43.4764 261.817 39.0786 265.769 39.0786 269.66C39.0786 274.206 45.0948 278.817 55.5867 282.31C66.7644 286.033 81.6568 288.082 97.5233 288.082C113.387 288.082 128.28 286.033 139.46 282.31C149.949 278.817 155.968 274.206 155.968 269.66C155.968 265.771 151.57 261.817 143.582 258.534ZM139.21 269.66C139.21 273.229 134.859 276.128 126.277 278.274C118.577 280.201 108.366 281.264 97.5233 281.264C86.6807 281.264 76.4693 280.201 68.7672 278.274C60.1872 276.128 55.8361 273.229 55.8361 269.66C55.8361 265.945 60.5301 262.963 69.7881 260.799C70.6272 260.604 71.4662 261.124 71.661 261.963C71.8584 262.799 71.3363 263.638 70.4973 263.836C61.3847 265.966 58.9533 268.499 58.9533 269.66C58.9533 270.753 61.1795 273.161 69.5257 275.25C76.9836 277.118 86.9274 278.146 97.5233 278.146C108.117 278.146 118.06 277.118 125.521 275.25C133.867 273.161 136.093 270.753 136.093 269.66C136.093 268.499 133.662 265.966 124.547 263.836C123.708 263.638 123.188 262.799 123.383 261.963C123.58 261.124 124.419 260.604 125.256 260.799C134.519 262.963 139.21 265.945 139.21 269.66ZM94.8035 217.533C94.484 216.436 94.1515 215.33 93.8034 214.213L98.9754 205.757C99.4248 205.022 99.1936 204.064 98.4584 203.614C97.7259 203.165 96.7648 203.396 96.318 204.129L92.502 210.366C91.1409 206.63 89.4264 202.887 86.9768 199.328C83.4284 194.169 78.6903 189.922 72.5962 186.444C77.1862 186.776 82.5946 188.099 87.86 190.242C96.7206 193.852 103.791 199.159 107.768 205.186C119.803 223.419 114.948 247.11 103.132 260.971C102.542 257.469 102.002 254.001 101.474 250.624C101.438 250.393 101.404 250.164 101.368 249.936L106.631 242.255C107.116 241.543 106.937 240.574 106.225 240.088C105.516 239.6 104.547 239.782 104.059 240.491L100.664 245.45C99.9885 241.221 99.2923 237.057 98.4792 232.898L105.989 220.598C106.438 219.863 106.205 218.904 105.472 218.455C104.737 218.005 103.776 218.239 103.329 218.972L97.5571 228.427C96.7674 224.822 95.8738 221.206 94.8035 217.533Z" fill="url(#paint0_linear_154_1726)"/>
</g>
<defs>
<filter id="filter0_i_154_1726" x="0" y="0" width="276" height="338.599" filterUnits="userSpaceOnUse" color-interpolation-filters="sRGB">
<feFlood flood-opacity="0" result="BackgroundImageFix"/>
<feBlend mode="normal" in="SourceGraphic" in2="BackgroundImageFix" result="shape"/>
<feColorMatrix in="SourceAlpha" type="matrix" values="0 0 0 0 0 0 0 0 0 0 0 0 0 0 0 0 0 0 127 0" result="hardAlpha"/>
<feOffset dy="3.59943"/>
<feGaussianBlur stdDeviation="22.4964"/>
<feComposite in2="hardAlpha" operator="arithmetic" k2="-1" k3="1"/>
<feColorMatrix type="matrix" values="0 0 0 0 0 0 0 0 0 0 0 0 0 0 0 0 0 0 0.25 0"/>
<feBlend mode="normal" in2="shape" result="effect1_innerShadow_154_1726"/>
</filter>
<linearGradient id="paint0_linear_154_1726" x1="98.4857" y1="165.993" x2="98.4857" y2="291.2" gradientUnits="userSpaceOnUse">
<stop stop-color="#386641"/>
<stop offset="1" stop-color="white"/>
</linearGradient>
<clipPath id="clip0_154_1726">
<rect width="276" height="335" fill="white"/>
</clipPath>
</defs>
</svg>
