<svg width="302" height="50" viewBox="0 0 302 50" fill="none" xmlns="http://www.w3.org/2000/svg">
<path d="M164.124 41.6154C164.119 41.6175 164.115 41.6196 164.11 41.6206C164.058 41.7308 164.001 41.84 163.946 41.9491C163.958 41.9636 164.018 41.8763 164.124 41.6154Z" fill="#A7A9AC"/>
<path d="M180.076 21.6506C179.758 18.1013 178.183 14.9583 176.061 12.1458C174.795 10.4662 173.343 8.77939 171.394 7.88347C169.579 7.04887 167.399 6.89711 165.415 6.88152C165.416 6.85553 165.408 6.82957 165.408 6.80359C165.504 6.59779 165.586 6.39094 165.619 6.15501C165.713 5.50438 165.325 4.754 164.69 4.5191C164.646 4.50247 164.606 4.50036 164.563 4.48789C164.357 4.26859 164.1 4.12623 163.759 4.16468C163.232 4.22289 162.85 4.66253 162.581 5.14167C162.132 5.61353 161.822 6.25479 161.695 6.92205C157.52 8.14017 154.004 11.1667 151.195 14.4022C148.313 17.7209 146.083 21.7151 144.739 25.9005C144.081 27.9481 143.724 30.0434 143.887 32.1969C144.039 34.1872 144.579 36.136 145.194 38.0276C145.846 40.0315 146.437 42.1341 147.522 43.9529C148.565 45.7011 150.084 47.2955 151.806 48.3868C153.55 49.4927 155.646 50.32 157.739 49.8793C159.97 49.4095 162.248 47.7788 163.293 45.7417C163.518 45.3041 163.349 44.7169 163.007 44.3832C163.812 43.927 164.613 43.4676 165.41 42.9988C167.117 41.9948 168.814 40.9732 170.444 39.8465C173.568 37.6867 176.256 34.945 178.023 31.5598C179.602 28.5374 180.381 25.0555 180.076 21.6506ZM164.451 41.5063C164.396 41.5209 164.341 41.5354 164.286 41.551C164.366 41.5209 164.428 41.5011 164.451 41.5063ZM164.145 41.5625C164.141 41.5729 164.138 41.5822 164.134 41.5916C164.131 41.5926 164.128 41.5937 164.125 41.5947C164.127 41.5905 164.129 41.5853 164.131 41.5812C164.135 41.576 164.138 41.5718 164.142 41.5666C164.142 41.5645 164.145 41.5625 164.145 41.5625ZM161.845 8.70662C161.414 8.79497 160.991 8.90099 160.577 9.02571C160.949 8.76379 161.321 8.50084 161.691 8.23684C161.727 8.40002 161.781 8.55592 161.845 8.70662ZM176.788 28.1216C177.242 26.6187 177.708 25.1002 177.877 23.5527C177.81 26.31 177.006 28.9271 175.694 31.301C176.109 30.246 176.47 29.1745 176.788 28.1216ZM146.442 27.3088C146.335 27.8742 146.249 28.4407 146.198 29.0082C146.124 29.8261 146.093 30.6462 146.21 31.4465C146.125 31.7718 146.048 32.0992 145.981 32.4287C145.784 30.694 145.974 28.9811 146.442 27.3088ZM163.887 42.0748C163.907 42.0333 163.925 41.9907 163.946 41.9501C163.932 41.9335 163.982 41.7859 164.095 41.6279C164.101 41.6259 164.106 41.6238 164.111 41.6217C164.114 41.6155 164.117 41.6103 164.119 41.604C164.122 41.603 164.127 41.603 164.13 41.602C164.128 41.6061 164.126 41.6113 164.124 41.6165C164.143 41.6082 164.163 41.5999 164.182 41.5926C164.298 41.5697 164.414 41.5469 164.53 41.5261C164.648 41.5032 164.766 41.4772 164.883 41.4544C164.876 41.4585 164.869 41.4637 164.861 41.4679C164.536 41.6685 164.212 41.8732 163.887 42.0748Z" fill="#A7A9AC"/>
<path d="M262.307 21.7287C261.307 22.3138 260.661 23.427 260.651 24.5858C260.648 24.9039 260.687 25.2261 260.774 25.5327C260.961 26.1968 261.215 26.5076 261.652 27.0283C262.051 27.4243 262.521 27.6987 263.062 27.8504C263.629 28.0032 264.195 28.0032 264.762 27.8504C264.771 27.8473 264.78 27.8442 264.79 27.8411C265.062 27.7766 265.309 27.6675 265.535 27.523C265.635 27.4794 265.732 27.4326 265.828 27.3827C266.524 27.0148 267.101 26.2062 267.307 25.4599C267.539 24.617 267.382 23.7409 266.983 22.9811C266.118 21.3317 263.87 20.814 262.307 21.7287Z" fill="white" fill-opacity="0.2"/>
<path d="M256.952 21.8513C256.403 21.3036 256.008 21.1602 255.3 20.8837C254.833 20.7579 254.365 20.7267 253.898 20.7891C252.628 20.8276 251.464 21.5468 250.78 22.6111C250.028 23.7814 250.053 25.3269 250.753 26.5117C251.44 27.6758 252.768 28.5364 254.15 28.4865C255.016 28.4553 255.787 28.1955 256.469 27.6696C256.917 27.3235 257.128 27.179 257.451 26.6105C257.615 26.3205 257.756 25.9827 257.868 25.6688C258.101 25.0099 258.099 24.1514 257.914 23.4779C257.741 22.8533 257.409 22.3076 256.952 21.8513Z" fill="white" fill-opacity="0.2"/>
<path d="M246.131 21.2818C245.546 20.9419 244.914 20.7714 244.237 20.7693C243.559 20.7714 242.927 20.9419 242.342 21.2818C242.235 21.3618 242.117 21.447 242 21.5343C241.857 21.6341 241.706 21.7526 241.578 21.8648C241.477 21.9469 241.387 22.0394 241.305 22.1413C241.237 22.2203 241.166 22.3097 241.099 22.399C240.979 22.5061 240.885 22.6287 240.825 22.7711C240.671 23.0164 240.566 23.2648 240.49 23.5184C240.481 23.5455 240.475 23.5725 240.468 23.5995C240.45 23.6639 240.434 23.7284 240.42 23.7928C240.411 23.8354 240.401 23.8781 240.394 23.9217C240.364 24.0849 240.341 24.2512 240.323 24.4206C240.305 24.5255 240.292 24.6316 240.292 24.7366C240.292 24.9008 240.314 25.065 240.359 25.2282C240.382 25.7208 240.527 26.1792 240.798 26.6043C240.991 26.8537 241.184 27.1031 241.377 27.3536C242.557 28.605 244.588 28.8139 246.047 27.9606C247.179 27.2975 248.083 25.8746 247.994 24.5235C247.992 23.8458 247.821 23.2139 247.481 22.6287C247.145 22.0644 246.696 21.6154 246.131 21.2818Z" fill="white" fill-opacity="0.2"/>
<path d="M237.309 22.5674C236.976 21.9459 236.329 21.3327 235.724 20.9845C234.101 20.048 231.968 20.3172 230.65 21.6621C230.149 22.1735 229.845 22.7555 229.624 23.4249C229.501 23.7959 229.461 24.2002 229.461 24.59C229.461 25.3383 229.664 26.0939 230.038 26.7414C230.225 27.0657 230.45 27.3827 230.727 27.6342C231.25 28.1102 231.811 28.4761 232.502 28.6715C233.214 28.8731 233.928 28.844 234.64 28.686C235.01 28.6039 235.421 28.4148 235.784 28.1778C236.132 27.999 236.459 27.7693 236.76 27.4929C237.134 27.1457 237.398 26.7342 237.553 26.2592C237.793 25.8029 237.904 25.3102 237.884 24.7822C237.923 24.3862 237.856 23.9674 237.738 23.5911C237.641 23.2783 237.465 22.8584 237.309 22.5674Z" fill="white" fill-opacity="0.2"/>
<path d="M226.481 22.8189C226.322 22.6132 226.163 22.4074 226.004 22.2016C225.73 21.7411 225.444 21.5156 225.024 21.1913C224.898 21.0583 224.756 20.9502 224.598 20.8691C224.285 20.7371 223.971 20.6051 223.658 20.4721C223.367 20.389 222.844 20.3484 222.542 20.3183C221.831 20.3203 221.168 20.5002 220.554 20.8556C219.961 21.2059 219.491 21.6767 219.14 22.2691C218.724 22.9197 218.51 23.8074 218.528 24.5733C218.55 25.4173 218.718 25.9422 219.098 26.6853C219.204 26.8932 219.334 27.0252 219.492 27.2299C219.892 27.7486 220.033 27.9398 220.693 28.3327C221.341 28.7172 222.062 28.922 222.816 28.9293C223.566 28.9355 224.314 28.7443 224.964 28.3639C225.719 27.9211 225.968 27.5324 226.48 26.8391C226.771 26.3818 226.928 25.8881 226.953 25.3591C227.072 24.8301 227.048 24.301 226.882 23.771C226.748 23.4529 226.614 23.1359 226.481 22.8189Z" fill="white" fill-opacity="0.2"/>
<path d="M214.951 21.4387C214.707 21.1976 214.421 21.0303 214.091 20.9378C213.626 20.6935 213.127 20.5823 212.59 20.6021C212.245 20.6488 211.9 20.6945 211.555 20.7413C211.225 20.8203 210.924 20.9513 210.649 21.1248C210.21 21.3036 209.802 21.5582 209.468 21.9127C208.951 22.4604 208.638 22.9728 208.429 23.7014C208.141 24.7054 208.342 25.7749 208.819 26.6781C209.293 27.575 210.28 28.236 211.237 28.498C212.29 28.7859 213.465 28.6497 214.41 28.103C215.359 27.5542 216.073 26.5949 216.346 25.5338C216.615 24.4913 216.448 23.4686 215.954 22.5321C215.709 22.0779 215.375 21.7141 214.951 21.4387Z" fill="white" fill-opacity="0.2"/>
<path d="M205.378 22.399L205.376 22.3959C205.319 22.3128 205.261 22.2307 205.197 22.1527C205.162 22.1111 205.126 22.0717 205.091 22.0311C205.048 21.9833 205.01 21.9334 204.965 21.8877C204.834 21.7172 204.366 21.3846 204.18 21.2797C203.632 20.971 203.005 20.8265 202.381 20.7933C201.706 20.7569 201.045 20.9866 200.461 21.2984C200.172 21.4532 199.908 21.6621 199.689 21.9043C199.5 22.1496 199.311 22.3938 199.122 22.6391C199.055 22.7961 198.988 22.953 198.923 23.11C198.686 23.6722 198.748 23.4571 198.67 24.0454C198.631 24.3062 198.589 24.6066 198.599 24.6783C198.601 25.3612 198.773 25.9962 199.115 26.5866C199.353 27.0273 199.678 27.3806 200.089 27.6467C200.454 27.9814 200.883 28.2059 201.375 28.3233C202.045 28.5031 202.715 28.5031 203.385 28.3233C203.398 28.3212 203.412 28.3191 203.424 28.3171C203.915 28.2007 204.342 27.9751 204.706 27.6425C205.116 27.3765 205.44 27.0241 205.677 26.5855C205.803 26.2852 205.93 25.9858 206.056 25.6855C206.101 25.3518 206.145 25.0172 206.191 24.6835C206.211 24.1649 206.103 23.6806 205.867 23.2316C205.773 22.9114 205.612 22.6339 205.378 22.399Z" fill="white" fill-opacity="0.2"/>
<path d="M196.451 22.795C196.439 22.7607 196.42 22.7296 196.396 22.7015C196.196 22.4417 195.995 22.1818 195.793 21.922C195.667 21.79 195.523 21.6767 195.364 21.5811C195.23 21.4709 195.092 21.3649 194.951 21.263C194.931 21.2454 194.907 21.2329 194.881 21.2236C194.572 21.0936 194.263 20.9627 193.955 20.8328C193.642 20.7423 193.142 20.6976 192.817 20.6758C192.114 20.6779 191.459 20.8546 190.852 21.2069C190.399 21.4512 190.035 21.7858 189.761 22.2089C189.417 22.5851 189.185 23.0258 189.065 23.532C188.902 24.0495 188.88 24.5661 188.995 25.0837C189.019 25.6013 189.173 26.0835 189.456 26.5304C189.803 27.1156 190.268 27.5802 190.852 27.9263C191.162 28.0573 191.472 28.1882 191.783 28.3192C191.81 28.3265 191.837 28.3285 191.865 28.3358C192.277 28.472 192.712 28.5468 193.139 28.5665C193.667 28.5863 194.16 28.4761 194.617 28.236C194.942 28.1446 195.224 27.9804 195.463 27.7423C195.881 27.4721 196.21 27.1135 196.451 26.6656C196.58 26.36 196.709 26.0544 196.838 25.7489C196.998 25.2386 197.021 24.7293 196.906 24.2189C196.884 23.7107 196.732 23.2357 196.451 22.795Z" fill="white" fill-opacity="0.2"/>
<path d="M186.102 21.7494C185.734 21.3535 185.297 21.0728 184.793 20.9086C184.309 20.654 183.787 20.5376 183.227 20.5584C183.149 20.5584 183.072 20.5584 182.994 20.5584C181.892 20.5584 180.915 21.0188 180.12 21.7484C179.322 22.4812 178.977 23.5714 178.93 24.6222C178.909 25.1814 179.026 25.7042 179.28 26.1885C179.445 26.6926 179.724 27.1281 180.121 27.497C180.489 27.893 180.926 28.1737 181.43 28.3379C181.914 28.5925 182.436 28.7089 182.996 28.6882C183.074 28.6882 183.151 28.6882 183.229 28.6882C184.331 28.6882 185.308 28.2277 186.103 27.4981C186.901 26.7653 187.246 25.6751 187.293 24.6243C187.313 24.0651 187.197 23.5423 186.942 23.058C186.778 22.5529 186.498 22.1174 186.102 21.7494Z" fill="white" fill-opacity="0.2"/>
<path d="M176.996 21.7993C176.634 21.4096 176.206 21.1342 175.71 20.9731C175.234 20.7226 174.721 20.6083 174.171 20.629C173.089 20.629 172.129 21.0811 171.347 21.7993C170.562 22.5196 170.223 23.5901 170.177 24.6232C170.156 25.1731 170.27 25.6865 170.521 26.1625C170.682 26.6572 170.957 27.0865 171.347 27.4482C171.709 27.8379 172.137 28.1134 172.633 28.2745C173.109 28.5239 173.621 28.6393 174.172 28.6185C175.254 28.6185 176.214 28.1664 176.996 27.4482C177.781 26.7279 178.119 25.6574 178.166 24.6243C178.187 24.0745 178.073 23.561 177.822 23.085C177.661 22.5892 177.386 22.161 176.996 21.7993Z" fill="white" fill-opacity="0.2"/>
<path d="M160.06 24.5152C160.058 24.5266 160.057 24.5672 160.057 24.6565C160.055 24.6087 160.06 24.5619 160.06 24.5152Z" fill="white" fill-opacity="0.2"/>
<path d="M168.758 22.4094C168.605 22.0529 168.37 21.7443 168.055 21.4834C167.759 21.2547 167.463 21.0261 167.168 20.7974C166.824 20.576 166.423 20.4098 166.022 20.3152C165.814 20.2642 165.602 20.2331 165.385 20.2247C165.172 20.1956 164.959 20.1665 164.746 20.1385C164.512 20.1353 164.29 20.1884 164.053 20.2206C163.333 20.3172 163.493 20.2694 162.831 20.549C162.218 20.8078 161.889 20.9731 161.36 21.5083C160.926 21.9116 160.619 22.3887 160.44 22.9406C160.183 23.4291 160.061 23.9549 160.061 24.5141C160.074 24.4476 160.126 25.5826 160.23 25.8892C160.437 26.6281 160.811 27.2694 161.352 27.8141C161.896 28.3545 162.538 28.7287 163.277 28.9355C163.498 28.9708 163.572 28.9802 163.917 29.027C164.311 29.133 164.706 29.133 165.1 29.027C165.319 29.0498 165.524 29.0207 165.714 28.9376C165.837 28.9085 165.952 28.8711 166.059 28.8284C166.258 28.7682 166.456 28.6944 166.645 28.5956C166.83 28.5198 167.015 28.4418 167.199 28.3618C167.853 27.9751 168.372 27.4544 168.759 26.8017C168.906 26.4556 169.051 26.1085 169.198 25.7624C169.379 25.1845 169.405 24.6056 169.276 24.0277C169.249 23.4478 169.076 22.9094 168.758 22.4094Z" fill="white" fill-opacity="0.2"/>
<path d="M275.737 17.3302C273.852 17.4268 271.982 18.2147 270.672 19.571C268.528 21.4148 268.051 24.721 269.141 27.3038C270.28 30.0029 272.94 32.0057 275.951 31.9236C278.621 31.8519 281.321 30.3376 282.477 27.8712C284.72 23.0871 281.259 17.0454 275.737 17.3302Z" fill="white" fill-opacity="0.2"/>
<path d="M40.0455 21.7287C38.4823 20.8141 36.2342 21.3317 35.3694 22.9801C34.9703 23.7409 34.8134 24.617 35.0452 25.4589C35.2509 26.2051 35.8278 27.0138 36.5242 27.3817C36.6198 27.4316 36.7175 27.4794 36.8172 27.522C37.0428 27.6665 37.2901 27.7756 37.5635 27.84C37.5729 27.8432 37.5822 27.8463 37.5916 27.8494C38.158 28.0022 38.7245 28.0022 39.2909 27.8494C39.8324 27.6977 40.3032 27.4233 40.7013 27.0273C41.1378 26.5065 41.3925 26.1958 41.5795 25.5316C41.6658 25.225 41.7053 24.9018 41.7022 24.5848C41.6918 23.427 41.0464 22.3138 40.0455 21.7287Z" fill="white" fill-opacity="0.2"/>
<path d="M48.4546 20.7891C47.9868 20.7267 47.5202 20.7579 47.0525 20.8837C46.3436 21.1602 45.9487 21.3036 45.401 21.8513C44.9436 22.3076 44.6121 22.8533 44.4396 23.4779C44.2546 24.1514 44.2525 25.0099 44.4863 25.6688C44.5975 25.9827 44.7389 26.3205 44.9031 26.6105C45.2263 27.179 45.4373 27.3245 45.8853 27.6696C46.5671 28.1955 47.3383 28.4553 48.2041 28.4865C49.5864 28.5364 50.9126 27.6748 51.6007 26.5117C52.3001 25.3269 52.3261 23.7814 51.5736 22.6111C50.8887 21.5468 49.7246 20.8276 48.4546 20.7891Z" fill="white" fill-opacity="0.2"/>
<path d="M61.9599 23.9227C61.9526 23.8791 61.9422 23.8365 61.9339 23.7938C61.9193 23.7284 61.9037 23.6639 61.8861 23.6005C61.8788 23.5735 61.8726 23.5465 61.8642 23.5194C61.7884 23.2658 61.6834 23.0164 61.5285 22.7722C61.4683 22.6298 61.3747 22.5071 61.2552 22.4001C61.1876 22.3107 61.118 22.2224 61.0494 22.1423C60.9673 22.0405 60.8769 21.948 60.7761 21.8658C60.6482 21.7536 60.4965 21.6351 60.3541 21.5353C60.2366 21.448 60.1181 21.3639 60.0121 21.2828C59.427 20.9429 58.7951 20.7725 58.1174 20.7704C57.4398 20.7725 56.8078 20.9429 56.2227 21.2828C55.6583 21.6164 55.2093 22.0654 54.8757 22.6298C54.5358 23.2149 54.3654 23.8469 54.3633 24.5245C54.2739 25.8767 55.1771 27.2996 56.31 27.9616C57.7692 28.816 59.8001 28.6071 60.9798 27.3546C61.1731 27.1052 61.3654 26.8558 61.5587 26.6053C61.8289 26.1802 61.9755 25.7218 61.9983 25.2292C62.042 25.065 62.0648 24.9018 62.0648 24.7376C62.0648 24.6326 62.0524 24.5266 62.0347 24.4216C62.0118 24.2522 61.99 24.0859 61.9599 23.9227Z" fill="white" fill-opacity="0.2"/>
<path d="M71.7018 21.6621C70.3839 20.3172 68.2511 20.048 66.6277 20.9845C66.0228 21.3327 65.3753 21.9469 65.0427 22.5674C64.8868 22.8584 64.7111 23.2783 64.6124 23.5943C64.4949 23.9705 64.4274 24.3894 64.4669 24.7854C64.4471 25.3134 64.5573 25.805 64.7974 26.2623C64.9523 26.7373 65.2162 27.1489 65.5904 27.496C65.8918 27.7735 66.2182 28.0022 66.5664 28.1809C66.9301 28.4179 67.3407 28.606 67.7107 28.6891C68.4226 28.8471 69.1367 28.8763 69.8486 28.6746C70.5398 28.4792 71.101 28.1134 71.6238 27.6373C71.9003 27.3848 72.1258 27.0678 72.3129 26.7445C72.6871 26.097 72.8897 25.3414 72.8897 24.5931C72.8897 24.2033 72.8492 23.799 72.7266 23.428C72.5062 22.7555 72.2027 22.1735 71.7018 21.6621Z" fill="white" fill-opacity="0.2"/>
<path d="M81.7988 20.8556C81.1845 20.4991 80.5214 20.3203 79.8105 20.3183C79.5091 20.3494 78.9853 20.389 78.6943 20.4721C78.3814 20.6041 78.0675 20.7361 77.7547 20.8691C77.5957 20.9512 77.4543 21.0583 77.3286 21.1913C76.9097 21.5156 76.6228 21.7411 76.3485 22.2016C76.1894 22.4074 76.0304 22.6132 75.8714 22.8189C75.7373 23.1359 75.6032 23.4529 75.4702 23.7699C75.3039 24.299 75.281 24.829 75.3995 25.3581C75.4234 25.8881 75.5814 26.3818 75.8724 26.8381C76.3848 27.5303 76.6332 27.92 77.3888 28.3628C78.0384 28.7432 78.7868 28.9345 79.5372 28.9282C80.2907 28.922 81.011 28.7172 81.6595 28.3316C82.3195 27.9398 82.4609 27.7475 82.861 27.2289C83.019 27.0241 83.1489 26.8911 83.2549 26.6843C83.6353 25.9411 83.8037 25.4163 83.8245 24.5723C83.8442 23.8063 83.6291 22.9187 83.2123 22.2681C82.862 21.6767 82.3902 21.2059 81.7988 20.8556Z" fill="white" fill-opacity="0.2"/>
<path d="M92.8847 21.9137C92.5501 21.5593 92.1426 21.3046 91.704 21.1259C91.4286 20.9523 91.1293 20.8203 90.7977 20.7423C90.4527 20.6956 90.1076 20.6498 89.7625 20.6031C89.2262 20.5823 88.7263 20.6945 88.2617 20.9388C87.9323 21.0313 87.6454 21.1986 87.4022 21.4398C86.9781 21.7141 86.6435 22.079 86.3992 22.5331C85.9045 23.4696 85.7382 24.4923 86.0063 25.5347C86.2797 26.597 86.9937 27.5553 87.9426 28.104C88.8874 28.6507 90.064 28.7869 91.1158 28.499C92.073 28.2371 93.0594 27.576 93.5333 26.6791C94.0104 25.7759 94.212 24.7064 93.9241 23.7024C93.7152 22.9738 93.4013 22.4614 92.8847 21.9137Z" fill="white" fill-opacity="0.2"/>
<path d="M103.431 23.1089C103.365 22.952 103.299 22.7951 103.232 22.6381C103.043 22.3928 102.854 22.1486 102.665 21.9033C102.446 21.6611 102.182 21.4522 101.893 21.2973C101.308 20.9845 100.648 20.7558 99.973 20.7922C99.3494 20.8265 98.7216 20.97 98.1739 21.2787C97.9878 21.3836 97.5201 21.7162 97.3892 21.8867C97.3434 21.9324 97.306 21.9823 97.2634 22.0301C97.227 22.0696 97.1907 22.1091 97.1564 22.1517C97.0919 22.2307 97.0327 22.3117 96.9766 22.3949L96.9745 22.398C96.7406 22.6329 96.5795 22.9104 96.4901 23.2295C96.2542 23.6785 96.1461 24.1628 96.1659 24.6815C96.2106 25.0151 96.2552 25.3487 96.2999 25.6834C96.4267 25.9838 96.5535 26.2831 96.6803 26.5835C96.9173 27.0221 97.2405 27.3754 97.6511 27.6405C98.0149 27.9731 98.442 28.1986 98.9326 28.315C98.9461 28.3171 98.9596 28.3192 98.9721 28.3213C99.6425 28.5011 100.312 28.5011 100.982 28.3213C101.474 28.2049 101.902 27.9793 102.268 27.6447C102.679 27.3786 103.004 27.0242 103.242 26.5845C103.584 25.9952 103.755 25.3591 103.757 24.6763C103.766 24.6046 103.725 24.3042 103.686 24.0433C103.606 23.4561 103.669 23.6712 103.431 23.1089Z" fill="white" fill-opacity="0.2"/>
<path d="M112.591 22.2099C112.316 21.7858 111.953 21.4522 111.498 21.2079C110.891 20.8556 110.237 20.6789 109.534 20.6768C109.209 20.6987 108.709 20.7434 108.396 20.8338C108.087 20.9637 107.779 21.0936 107.47 21.2246C107.444 21.2339 107.42 21.2475 107.399 21.2641C107.258 21.3659 107.121 21.472 106.987 21.5821C106.828 21.6777 106.684 21.791 106.557 21.923C106.357 22.1829 106.156 22.4427 105.955 22.7025C105.931 22.7306 105.913 22.7618 105.899 22.7961C105.619 23.2368 105.467 23.7118 105.444 24.2221C105.33 24.7324 105.353 25.2417 105.513 25.752C105.642 26.0575 105.771 26.3631 105.899 26.6687C106.141 27.1156 106.47 27.4742 106.888 27.7454C107.127 27.9835 107.41 28.1477 107.734 28.2391C108.191 28.4792 108.684 28.5894 109.212 28.5696C109.639 28.5509 110.074 28.4751 110.486 28.3389C110.513 28.3317 110.54 28.3295 110.568 28.3223C110.878 28.1913 111.188 28.0604 111.498 27.9294C112.084 27.5833 112.548 27.1177 112.894 26.5336C113.179 26.0867 113.333 25.6044 113.356 25.0868C113.471 24.5692 113.448 24.0526 113.286 23.5351C113.167 23.0268 112.935 22.5861 112.591 22.2099Z" fill="white" fill-opacity="0.2"/>
<path d="M119.358 20.5584C119.28 20.5584 119.203 20.5584 119.125 20.5584C118.566 20.5376 118.043 20.654 117.559 20.9086C117.055 21.0728 116.619 21.3524 116.25 21.7494C115.854 22.1174 115.573 22.5539 115.409 23.058C115.155 23.5423 115.038 24.0641 115.059 24.6243C115.106 25.6751 115.452 26.7653 116.249 27.4981C117.044 28.2277 118.022 28.6882 119.123 28.6882C119.201 28.6882 119.278 28.6882 119.356 28.6882C119.915 28.7089 120.438 28.5925 120.922 28.3379C121.426 28.1737 121.862 27.8941 122.23 27.497C122.626 27.1291 122.907 26.6926 123.071 26.1885C123.326 25.7042 123.442 25.1824 123.422 24.6222C123.375 23.5714 123.029 22.4812 122.232 21.7484C121.436 21.0188 120.458 20.5584 119.358 20.5584Z" fill="white" fill-opacity="0.2"/>
<path d="M128.18 20.629C127.63 20.6083 127.117 20.7226 126.64 20.9731C126.146 21.1342 125.717 21.4096 125.355 21.7993C124.965 22.161 124.69 22.5892 124.529 23.085C124.278 23.561 124.164 24.0745 124.185 24.6243C124.231 25.6574 124.57 26.7289 125.355 27.4482C126.136 28.1653 127.097 28.6185 128.179 28.6185C128.729 28.6393 129.242 28.525 129.718 28.2745C130.214 28.1134 130.642 27.8379 131.004 27.4482C131.393 27.0865 131.669 26.6583 131.83 26.1625C132.08 25.6865 132.195 25.1731 132.174 24.6232C132.127 23.5901 131.788 22.5186 131.004 21.7993C130.223 21.0811 129.263 20.629 128.18 20.629Z" fill="white" fill-opacity="0.2"/>
<path d="M142.296 24.6565C142.296 24.5672 142.295 24.5266 142.293 24.5152C142.292 24.5619 142.297 24.6087 142.296 24.6565Z" fill="white" fill-opacity="0.2"/>
<path d="M140.992 21.5094C140.463 20.9741 140.133 20.8088 139.521 20.55C138.859 20.2705 139.019 20.3183 138.299 20.2216C138.063 20.1894 137.84 20.1364 137.606 20.1395C137.393 20.1676 137.18 20.1956 136.967 20.2258C136.75 20.2351 136.538 20.2652 136.329 20.3162C135.929 20.4108 135.528 20.576 135.184 20.7985C134.888 21.0271 134.592 21.2558 134.296 21.4844C133.982 21.7443 133.747 22.0529 133.594 22.4105C133.276 22.9094 133.104 23.4488 133.077 24.0277C132.948 24.6056 132.973 25.1845 133.155 25.7624C133.302 26.1085 133.447 26.4556 133.594 26.8017C133.981 27.4555 134.501 27.9751 135.154 28.3618C135.338 28.4418 135.522 28.5197 135.708 28.5956C135.897 28.6954 136.095 28.7682 136.294 28.8284C136.402 28.871 136.516 28.9085 136.639 28.9376C136.829 29.0197 137.034 29.0498 137.253 29.027C137.647 29.133 138.042 29.133 138.436 29.027C138.782 28.9802 138.855 28.9708 139.076 28.9355C139.815 28.7287 140.457 28.3545 141.001 27.814C141.542 27.2705 141.916 26.6281 142.123 25.8892C142.226 25.5825 142.279 24.4476 142.292 24.5141C142.292 23.9549 142.17 23.4301 141.912 22.9406C141.733 22.3897 141.426 21.9126 140.992 21.5094Z" fill="white" fill-opacity="0.2"/>
<path d="M26.6147 17.3301C21.0927 17.0454 17.6316 23.0881 19.8735 27.8712C21.0293 30.3376 23.7305 31.8519 26.3996 31.9236C29.4106 32.0047 32.0702 30.0029 33.2094 27.3037C34.2996 24.722 33.8226 21.4148 31.6784 19.571C30.3699 18.2136 28.5001 17.4268 26.6147 17.3301Z" fill="white" fill-opacity="0.2"/>
<path d="M159.789 37.7918C159.8 37.8053 159.86 37.719 159.966 37.4581C159.962 37.4602 159.957 37.4623 159.953 37.4633C159.901 37.5735 159.845 37.6826 159.789 37.7918Z" fill="#FABE52"/>
<path d="M163.624 4.25303C163.081 4.15429 162.525 4.20627 162 4.37568C161.301 4.27695 160.589 4.25927 159.875 4.3341C159.158 4.33306 158.437 4.39749 157.717 4.543C150.7 5.95963 146.118 12.3921 143.615 18.6854C142.837 20.6425 142.23 22.7472 142.041 24.8508C141.967 25.6688 141.936 26.4888 142.053 27.2891C141.719 28.5561 141.509 29.847 141.53 31.196C141.565 33.3392 142.303 35.4303 143.301 37.3064C144.401 39.3757 145.554 41.3546 147.213 43.0238C149.108 44.9289 151.795 45.7999 154.398 44.9487C156.604 44.2274 158.022 42.2994 158.847 40.2238C159.124 39.5264 159.349 38.8082 159.637 38.1139C159.681 38.0058 159.735 37.8988 159.789 37.7917C159.776 37.7751 159.826 37.6275 159.938 37.4695C159.943 37.4674 159.948 37.4654 159.954 37.4633C159.957 37.4571 159.96 37.4519 159.962 37.4456C159.965 37.4446 159.969 37.4446 159.972 37.4435C159.97 37.4477 159.968 37.4529 159.967 37.4581C159.987 37.4498 160.007 37.4415 160.025 37.4342C160.142 37.4113 160.257 37.3885 160.374 37.3677C160.63 37.3188 160.887 37.271 161.142 37.2118C162.623 36.8688 163.859 36.3657 165.168 35.5769C169.296 33.0908 171.299 28.369 172.631 23.9642C173.178 22.1516 173.77 20.3193 173.802 18.4381C174.397 17.6804 174.712 16.7065 174.582 15.6931C173.84 9.93617 169.305 5.28718 163.624 4.25303ZM153.807 28.2339C153.79 28.4792 153.764 28.7203 153.719 28.9531C153.674 28.5737 153.65 28.1923 153.647 27.8077C153.697 27.9512 153.751 28.0936 153.807 28.2339ZM159.569 37.6129C159.572 37.6171 159.595 37.6109 159.629 37.5984C159.597 37.6119 159.574 37.6192 159.569 37.6129ZM159.966 37.4363C159.968 37.4311 159.97 37.4269 159.972 37.4217C159.977 37.4165 159.98 37.4123 159.984 37.4072L159.988 37.404C159.984 37.4144 159.981 37.4238 159.977 37.4332C159.973 37.4352 159.969 37.4352 159.966 37.4363ZM160.128 37.3926C160.207 37.3625 160.271 37.3438 160.294 37.3479C160.238 37.3635 160.183 37.3781 160.128 37.3926Z" fill="#FABE52"/>
<path d="M160.242 8.47387C159.607 8.41255 158.984 8.43853 158.395 8.57572C157.434 8.71811 156.499 9.00393 155.633 9.45813C155.078 9.74914 154.546 10.1597 154.135 10.6524C153.839 10.8685 153.561 11.1065 153.301 11.3674C153.062 11.5462 152.828 11.7312 152.603 11.9297C151.542 12.8693 151.96 14.3794 153.307 14.7162C153.822 14.8451 154.349 14.9344 154.882 14.9854C155.706 15.4645 156.728 15.7191 157.582 15.9177C157.686 15.9416 157.793 15.9613 157.898 15.9821C158.342 16.2586 158.815 16.4893 159.295 16.6785C160.833 17.2844 162.713 17.7199 164.371 17.4486C164.541 17.4206 164.705 17.379 164.867 17.3322C165.608 17.5796 166.383 17.7812 167.15 17.5214C168.193 17.168 168.839 16.2721 168.86 15.1704C168.887 13.6987 167.854 12.4795 166.762 11.5337C165.415 9.55272 162.501 8.5539 160.242 8.47387Z" fill="#F99653"/>
<path d="M160.532 0.360708C160.262 0.260931 160.003 0.234927 159.759 0.268186C159.757 0.26195 159.754 0.256755 159.752 0.250519C157.814 0.545693 156.794 3.50786 157.959 5.02946C158.862 6.20808 160.813 5.74764 161.03 4.25306C161.07 3.97763 161.08 3.6523 161.012 3.37272C161.024 3.28229 161.039 3.18772 161.047 3.09626C161.089 3.01103 161.122 2.91749 161.166 2.83227C161.305 2.56204 161.418 2.30429 161.463 1.99665C161.555 1.34705 161.166 0.59664 160.532 0.360708Z" fill="#4FA328"/>
<path d="M148.331 22.0457C147.355 23.031 146.718 24.2345 146.4 25.5161C145.276 27.7891 145.153 30.48 146.207 32.857C147.225 35.1529 149.944 35.3971 151.585 33.6531C154.28 30.7907 154.969 26.4192 153.499 22.8117C152.566 20.5168 149.899 20.4617 148.331 22.0457Z" fill="white"/>
<path d="M167.236 3.72508C165.422 2.89048 163.241 2.73872 161.258 2.72313C161.27 2.30427 161.171 1.87504 161.018 1.47177C160.78 0.84089 160.421 -0.0851719 159.6 0.00629067C158.815 0.0935958 158.346 1.02692 158.102 1.67652C157.97 2.02782 157.879 2.3812 157.827 2.73873C157.745 2.72418 157.658 2.72521 157.567 2.7512C153.378 3.96308 149.852 6.99901 147.036 10.2418C144.154 13.5604 141.923 17.5546 140.579 21.7401C139.921 23.7876 139.565 25.8829 139.728 28.0364C139.88 30.0268 140.419 31.9756 141.034 33.8672C141.686 35.8711 142.278 37.9736 143.363 39.7925C144.405 41.5407 145.925 43.135 147.647 44.2263C149.391 45.3322 151.486 46.1595 153.579 45.7189C155.811 45.2491 158.088 43.6183 159.134 41.5812C159.358 41.1437 159.19 40.5564 158.848 40.2228C159.652 39.7665 160.454 39.3071 161.251 38.8384C162.957 37.8344 164.655 36.8127 166.284 35.6861C169.409 33.5263 172.096 30.7845 173.863 27.3993C175.441 24.3779 176.221 20.8961 175.916 17.4912C175.598 13.9419 174.022 10.7978 171.901 7.98641C170.636 6.30786 169.185 4.62203 167.236 3.72508ZM159.587 1.40732C159.612 1.36679 159.64 1.33041 159.67 1.29507C159.711 1.49463 159.854 1.71082 159.913 1.90622C160.058 2.37704 160.052 2.72729 159.862 3.17629C159.799 3.32595 159.804 3.47146 159.852 3.60138C159.645 3.63567 159.436 3.70323 159.239 3.72714C159.079 3.74689 158.921 3.75521 158.763 3.75521C158.866 2.92373 159.118 2.06107 159.587 1.40732ZM169.842 8.82098C171.746 11.3892 173.303 14.1518 173.648 17.379C174.353 23.9643 170.724 29.9374 165.708 33.9181C164.126 35.1726 162.422 36.2514 160.705 37.3095C159.843 37.8416 158.98 38.3727 158.124 38.9163C157.732 39.1658 157.313 39.3955 156.938 39.6709C156.493 39.9972 156.15 40.4296 155.705 40.758C155.486 40.9202 155.514 41.2164 155.662 41.389C154.925 42.0479 154.186 42.7016 153.187 42.9885C151.824 43.3793 150.322 42.9511 149.125 42.2651C147.635 41.4118 146.347 40.1292 145.387 38.7157C144.317 37.138 143.723 35.2849 143.115 33.4941C142.542 31.801 142.029 30.0829 141.823 28.3015C141.606 26.4161 141.831 24.5515 142.39 22.741C143.561 18.9484 145.481 15.3367 147.978 12.254C149.365 10.5432 150.931 9.00495 152.652 7.6351C154.303 6.32136 156.063 5.13444 157.779 3.90489C157.548 4.19383 157.627 4.72493 158.11 4.81432C158.527 4.89227 158.951 4.91615 159.375 4.8912C159.462 4.88601 159.55 4.87978 159.64 4.87043C159.903 4.90057 160.161 4.75612 160.436 4.66258C160.669 4.86213 160.986 4.96502 161.316 4.95255C162.919 4.88915 164.708 4.98372 166.209 5.59694C167.755 6.22886 168.871 7.5114 169.842 8.82098Z" fill="white" fill-opacity="0.2"/>
<path d="M149.953 38.1878C149.701 38.0859 149.45 38.4622 149.699 38.6181C150.938 39.3934 152.338 39.936 153.811 39.9931C154.324 40.0129 154.453 39.2687 153.923 39.1876C152.56 38.9787 151.238 38.7074 149.953 38.1878Z" fill="white" fill-opacity="0.2"/>
<path d="M155.045 38.01C154.325 38.0204 153.618 37.9279 152.93 37.7148C152.406 37.5527 152.062 38.3 152.592 38.5172C153.874 39.0431 155.932 39.5223 157.169 38.6627C157.477 38.4496 157.347 37.9206 156.972 37.8801C156.332 37.8136 155.688 38.0017 155.045 38.01Z" fill="white" fill-opacity="0.2"/>
<path d="M157.908 36.0748C157.079 36.3242 156.235 36.4531 155.368 36.4229C154.871 36.4063 154.742 37.1349 155.259 37.2056C156.19 37.3334 157.155 37.3292 158.075 37.1245C158.923 36.9364 159.91 36.6266 160.425 35.8804C160.586 35.6476 160.425 35.2953 160.121 35.3358C159.347 35.4366 158.649 35.8513 157.908 36.0748Z" fill="white" fill-opacity="0.2"/>
<path d="M162.542 32.9235C161.996 33.0575 161.541 33.3641 161.018 33.5689C160.468 33.784 159.901 33.888 159.312 33.9171C158.762 33.9441 158.74 34.8774 159.302 34.8941C160.48 34.9283 162.231 34.7382 162.97 33.6895C163.181 33.3912 162.974 32.8164 162.542 32.9235Z" fill="white" fill-opacity="0.2"/>
<path d="M165.506 29.5331C165.335 29.6204 165.137 29.6994 164.981 29.8127C164.835 29.9198 164.701 30.0507 164.563 30.1681C164.331 30.3667 164.252 30.7024 164.442 30.9612C164.613 31.195 165 31.2813 165.235 31.0828C165.374 30.9643 165.517 30.85 165.653 30.7273C165.805 30.588 165.918 30.4186 166.039 30.2534C166.161 30.0881 166.172 29.8595 166.049 29.6911C165.936 29.5362 165.687 29.4406 165.506 29.5331Z" fill="white" fill-opacity="0.2"/>
<path d="M12.488 34.7964C12.4787 34.8068 12.4329 34.7403 12.3508 34.5387C12.3539 34.5397 12.3581 34.5418 12.3612 34.5428C12.4018 34.628 12.4454 34.7122 12.488 34.7964Z" fill="#FABE52"/>
<path d="M1.08215 17.7573C0.981331 18.5389 1.22454 19.2904 1.68393 19.8734C1.70784 21.3244 2.16411 22.7368 2.58712 24.1348C3.614 27.5314 5.15847 31.1722 8.34095 33.0887C9.3512 33.6967 10.3032 34.0855 11.4455 34.3495C11.6419 34.3952 11.8394 34.4316 12.0379 34.47C12.1273 34.4867 12.2167 34.5043 12.3061 34.521C12.3206 34.5272 12.3362 34.5334 12.3518 34.5397C12.3507 34.5365 12.3487 34.5324 12.3476 34.5293C12.3508 34.5303 12.3528 34.5303 12.3549 34.5303C12.357 34.5345 12.3601 34.5397 12.3622 34.5438C12.3663 34.5459 12.3705 34.5469 12.3736 34.549C12.4609 34.6706 12.4994 34.785 12.489 34.7974C12.5306 34.8795 12.5721 34.9627 12.6064 35.0458C12.8278 35.5811 13.0014 36.134 13.2155 36.6724C13.8516 38.273 14.9439 39.7593 16.6453 40.3153C18.6534 40.9722 20.7248 40.3008 22.1851 38.8311C23.4655 37.5434 24.3531 36.0176 25.2012 34.4222C25.9704 32.9765 26.5399 31.3634 26.5659 29.7109C26.5825 28.6705 26.4204 27.6748 26.1637 26.6988C26.2541 26.0815 26.2302 25.4495 26.173 24.8186C26.0275 23.1962 25.5588 21.5738 24.9591 20.0647C23.029 15.212 19.4952 10.2522 14.0854 9.15986C13.5304 9.04761 12.9744 8.99876 12.4214 8.99876C11.8706 8.9416 11.3218 8.95509 10.7824 9.03096C10.377 8.90104 9.94882 8.86053 9.531 8.93641C5.15015 9.73358 1.65379 13.3183 1.08215 17.7573ZM17.2232 27.099C17.2211 27.3952 17.2024 27.6893 17.1681 27.9824C17.1328 27.8037 17.113 27.6166 17.1006 27.4274C17.1442 27.3183 17.1848 27.2091 17.2232 27.099ZM12.6116 34.6478C12.6376 34.6571 12.6553 34.6623 12.6584 34.6592C12.6532 34.6634 12.6355 34.6581 12.6116 34.6478ZM12.3435 34.521C12.3404 34.5137 12.3372 34.5064 12.3341 34.4981L12.3372 34.5002C12.3404 34.5043 12.3424 34.5075 12.3456 34.5116C12.3476 34.5147 12.3487 34.5189 12.3497 34.522C12.3497 34.522 12.3456 34.521 12.3435 34.521ZM12.0992 34.4555C12.1169 34.4513 12.1647 34.4669 12.226 34.4898C12.1834 34.4784 12.1408 34.4669 12.0992 34.4555Z" fill="#FABE52"/>
<path d="M12.1378 12.1905C12.6273 12.1437 13.1075 12.1625 13.5627 12.2695C14.3028 12.3786 15.0251 12.599 15.6924 12.9492C16.1206 13.1737 16.5311 13.4897 16.8471 13.8701C17.0747 14.0364 17.2909 14.2203 17.4904 14.4209C17.6744 14.5592 17.8553 14.7016 18.0278 14.8544C18.8457 15.5788 18.5235 16.7429 17.4852 17.0027C17.0882 17.1014 16.6818 17.1711 16.2713 17.2106C15.6352 17.5806 14.8474 17.776 14.1895 17.9298C14.1094 17.9485 14.0273 17.963 13.9463 17.9797C13.6043 18.1927 13.2385 18.3705 12.8695 18.516C11.6836 18.9837 10.2337 19.3184 8.95532 19.1095C8.82332 19.0876 8.69652 19.0564 8.57284 19.019C8.0012 19.2092 7.40357 19.3651 6.81218 19.1645C6.00773 18.8922 5.50988 18.2011 5.49429 17.3519C5.47351 16.2169 6.27069 15.2774 7.11152 14.5478C8.14983 13.023 10.3969 12.2529 12.1378 12.1905Z" fill="#F99653"/>
<path d="M11.9145 5.93572C12.1234 5.85881 12.3219 5.83906 12.511 5.86401C12.5131 5.85985 12.5152 5.85465 12.5162 5.85049C14.0098 6.07811 14.7976 8.36261 13.8986 9.53499C13.2022 10.4434 11.6983 10.089 11.5309 8.93634C11.4997 8.72431 11.4925 8.47278 11.5444 8.25763C11.5351 8.188 11.5237 8.11526 11.5174 8.04458C11.4852 7.97806 11.4592 7.90737 11.426 7.84085C11.3199 7.63298 11.2316 7.43343 11.1973 7.19646C11.1266 6.6955 11.426 6.11657 11.9145 5.93572Z" fill="#4FA328"/>
<path d="M21.3235 22.6557C22.076 23.4155 22.5676 24.3436 22.8118 25.331C23.6776 27.0833 23.7722 29.1589 22.9605 30.9913C22.1757 32.7613 20.0794 32.9494 18.8135 31.6055C16.7358 29.399 16.2047 26.0273 17.3376 23.2461C18.0579 21.4771 20.1137 21.4345 21.3235 22.6557Z" fill="white"/>
<path d="M3.14636 11.8164C1.51043 13.9844 0.295432 16.4082 0.0501464 19.1448C-0.184746 21.7702 0.415999 24.4548 1.63307 26.785C2.99566 29.3948 5.06811 31.5089 7.47732 33.1739C8.73389 34.0428 10.0424 34.8306 11.3582 35.6049C11.9725 35.9666 12.5909 36.321 13.2114 36.6723C12.9474 36.929 12.8175 37.3822 12.9911 37.72C13.7976 39.2905 15.553 40.5491 17.2742 40.9108C18.8883 41.2507 20.5035 40.6125 21.8484 39.7602C23.1767 38.9184 24.348 37.6898 25.1525 36.3418C25.9891 34.9397 26.4454 33.3184 26.9474 31.7729C27.4214 30.3146 27.8381 28.8118 27.9545 27.2766C28.0813 25.6158 27.8059 24.0006 27.2987 22.4218C26.2625 19.1947 24.5424 16.1151 22.3202 13.5562C20.149 11.0555 17.4301 8.71495 14.1998 7.78058C14.1302 7.76083 14.0626 7.75978 13.9992 7.77017C13.9597 7.49475 13.8901 7.22244 13.7882 6.95117C13.6001 6.45021 13.2384 5.72993 12.6325 5.66341C11.9995 5.59273 11.7231 6.30677 11.5401 6.79319C11.4227 7.10395 11.3458 7.43551 11.3551 7.75771C9.82625 7.76914 8.14458 7.88657 6.74562 8.52992C5.24273 9.22005 4.12439 10.5203 3.14636 11.8164ZM13.279 8.55175C13.1574 8.55175 13.0358 8.54551 12.9121 8.52992C12.7603 8.51122 12.5992 8.45925 12.4392 8.43223C12.4755 8.33245 12.4797 8.2202 12.4319 8.10484C12.2853 7.75873 12.2801 7.48852 12.3924 7.12578C12.4392 6.97508 12.5493 6.80878 12.5805 6.65496C12.6034 6.68198 12.6252 6.71109 12.645 6.74123C13.0046 7.24531 13.2 7.91151 13.279 8.55175ZM7.53657 9.97254C8.69336 9.49964 10.0736 9.42688 11.3094 9.47573C11.564 9.48613 11.8083 9.4061 11.9881 9.25228C12.2012 9.32399 12.3997 9.43519 12.6023 9.41233C12.6709 9.4196 12.7385 9.42482 12.8061 9.42793C13.1324 9.44768 13.4598 9.42897 13.781 9.36868C14.153 9.29905 14.2144 8.88956 14.0356 8.66714C15.3587 9.61502 16.7161 10.5296 17.9893 11.543C19.3165 12.6 20.5243 13.7859 21.5937 15.1049C23.5196 17.4818 25.0007 20.2663 25.9029 23.191C26.3342 24.5868 26.5067 26.0242 26.3394 27.4783C26.1814 28.8523 25.7865 30.1764 25.3437 31.4818C24.875 32.8631 24.4176 34.2922 23.5924 35.5083C22.8524 36.5975 21.8588 37.587 20.7103 38.2449C19.7873 38.7739 18.6285 39.1034 17.5787 38.803C16.8075 38.5816 16.238 38.0786 15.6695 37.5703C15.7848 37.4373 15.8056 37.2087 15.6372 37.0839C15.2953 36.8303 15.0303 36.4977 14.6873 36.2462C14.3983 36.0342 14.0751 35.8575 13.7727 35.6642C13.1127 35.2443 12.4485 34.8348 11.7833 34.4253C10.4602 33.6094 9.14548 32.7779 7.92632 31.8103C4.05787 28.7411 1.25995 24.1357 1.80353 19.0575C2.0696 16.5693 3.27005 14.4386 4.7376 12.4587C5.48489 11.4484 6.34651 10.459 7.53657 9.97254Z" fill="white" fill-opacity="0.2"/>
<path d="M20.072 35.1019C20.2663 35.0229 20.4597 35.3129 20.2674 35.4335C19.3122 36.0321 18.2323 36.4499 17.0974 36.4936C16.7024 36.5092 16.6026 35.9344 17.0101 35.8721C18.0619 35.711 19.0815 35.5031 20.072 35.1019Z" fill="white" fill-opacity="0.2"/>
<path d="M16.1465 34.9647C16.7015 34.972 17.2472 34.9013 17.7783 34.7371C18.1815 34.6124 18.4476 35.1882 18.0391 35.3555C17.0507 35.7608 15.4636 36.1298 14.5095 35.4677C14.2725 35.3035 14.3723 34.8951 14.6623 34.8649C15.1539 34.813 15.6497 34.9585 16.1465 34.9647Z" fill="white" fill-opacity="0.2"/>
<path d="M13.938 33.4722C14.5772 33.6645 15.2278 33.7632 15.8961 33.7404C16.2797 33.7269 16.3784 34.2891 15.9803 34.3442C15.2621 34.443 14.519 34.4388 13.8081 34.2819C13.1554 34.1374 12.3935 33.8984 11.9965 33.3226C11.8728 33.1438 11.9965 32.8715 12.2314 32.9027C12.829 32.9806 13.3664 33.3007 13.938 33.4722Z" fill="white" fill-opacity="0.2"/>
<path d="M10.3656 31.0422C10.7866 31.1451 11.1379 31.3821 11.5401 31.5401C11.9642 31.7064 12.4017 31.7864 12.8549 31.8082C13.28 31.829 13.2966 32.5493 12.8632 32.5618C11.9548 32.5888 10.6047 32.4412 10.0351 31.6336C9.87195 31.4039 10.032 30.9612 10.3656 31.0422Z" fill="white" fill-opacity="0.2"/>
<path d="M8.07906 28.4283C8.21106 28.4958 8.36385 28.5561 8.48337 28.6434C8.59666 28.7255 8.69955 28.8274 8.80557 28.9178C8.98537 29.0706 9.04566 29.3294 8.89911 29.5289C8.76607 29.7087 8.46882 29.7763 8.28797 29.6225C8.18092 29.531 8.06971 29.4427 7.96577 29.3481C7.84833 29.241 7.76206 29.1101 7.66748 28.9822C7.57394 28.8554 7.56459 28.6788 7.66021 28.5488C7.74751 28.4314 7.94083 28.3576 8.07906 28.4283Z" fill="white" fill-opacity="0.2"/>
<path d="M288.846 34.7964C288.856 34.8068 288.901 34.7403 288.983 34.5387C288.98 34.5397 288.976 34.5418 288.973 34.5428C288.932 34.628 288.889 34.7122 288.846 34.7964Z" fill="#FABE52"/>
<path d="M291.803 8.93641C291.385 8.86053 290.956 8.90104 290.552 9.03096C290.012 8.95509 289.464 8.9416 288.913 8.99876C288.36 8.99876 287.805 9.04761 287.249 9.15986C281.839 10.2522 278.305 15.212 276.375 20.0647C275.774 21.5738 275.307 23.1973 275.161 24.8186C275.104 25.4495 275.08 26.0815 275.171 26.6988C274.914 27.6758 274.751 28.6705 274.768 29.7109C274.794 31.3634 275.365 32.9755 276.134 34.4222C276.982 36.0176 277.871 37.5434 279.15 38.8311C280.612 40.3008 282.683 40.9722 284.69 40.3153C286.391 39.7593 287.484 38.273 288.12 36.6724C288.334 36.134 288.506 35.5811 288.729 35.0458C288.763 34.9616 288.805 34.8795 288.846 34.7974C288.836 34.785 288.874 34.6706 288.962 34.549C288.966 34.5469 288.97 34.5459 288.973 34.5438C288.975 34.5397 288.977 34.5345 288.98 34.5303C288.984 34.5303 288.986 34.5293 288.989 34.5293C288.988 34.5324 288.986 34.5365 288.985 34.5397C289 34.5334 289.015 34.5272 289.029 34.521C289.119 34.5033 289.208 34.4856 289.297 34.47C289.496 34.4326 289.693 34.3952 289.89 34.3495C291.032 34.0855 291.984 33.6967 292.994 33.0887C296.177 31.1711 297.722 27.5314 298.748 24.1348C299.17 22.7379 299.626 21.3244 299.651 19.8734C300.111 19.2893 300.353 18.5389 300.253 17.7573C299.68 13.3183 296.183 9.73358 291.803 8.93641ZM284.234 27.4274C284.221 27.6166 284.202 27.8026 284.166 27.9824C284.132 27.6904 284.113 27.3952 284.111 27.099C284.148 27.2091 284.19 27.3183 284.234 27.4274ZM288.677 34.6592C288.679 34.6623 288.697 34.6571 288.723 34.6478C288.699 34.6581 288.681 34.6634 288.677 34.6592ZM288.983 34.523C288.985 34.5199 288.986 34.5157 288.987 34.5126C288.99 34.5085 288.992 34.5054 288.995 34.5012L288.998 34.4991C288.995 34.5074 288.992 34.5137 288.989 34.522C288.989 34.522 288.986 34.522 288.983 34.523ZM289.108 34.4887C289.17 34.4659 289.217 34.4513 289.235 34.4544C289.192 34.4669 289.151 34.4784 289.108 34.4887Z" fill="#FABE52"/>
<path d="M289.195 12.1905C288.706 12.1437 288.226 12.1625 287.77 12.2695C287.03 12.3786 286.309 12.599 285.641 12.9492C285.213 13.1737 284.802 13.4897 284.486 13.8701C284.257 14.0364 284.042 14.2203 283.843 14.4209C283.659 14.5592 283.478 14.7016 283.305 14.8544C282.487 15.5788 282.81 16.7429 283.848 17.0027C284.245 17.1014 284.651 17.1711 285.062 17.2106C285.698 17.5806 286.486 17.776 287.144 17.9298C287.224 17.9485 287.306 17.963 287.387 17.9797C287.729 18.1927 288.095 18.3705 288.465 18.516C289.651 18.9837 291.101 19.3184 292.379 19.1095C292.511 19.0876 292.638 19.0564 292.761 19.019C293.333 19.2092 293.931 19.3651 294.522 19.1645C295.327 18.8922 295.824 18.2011 295.84 17.3519C295.861 16.2169 295.064 15.2774 294.223 14.5478C293.184 13.023 290.937 12.2529 289.195 12.1905Z" fill="#F99653"/>
<path d="M289.42 5.93572C289.211 5.85881 289.013 5.83906 288.823 5.86401C288.821 5.85985 288.82 5.85465 288.818 5.85049C287.325 6.07811 286.537 8.36261 287.436 9.53499C288.132 10.4434 289.636 10.089 289.804 8.93634C289.835 8.72431 289.842 8.47278 289.79 8.25763C289.8 8.188 289.811 8.11526 289.817 8.04458C289.849 7.97806 289.875 7.90737 289.909 7.84085C290.015 7.63298 290.103 7.43343 290.137 7.19646C290.208 6.6955 289.909 6.11657 289.42 5.93572Z" fill="#4FA328"/>
<path d="M280.011 22.6557C279.258 23.4155 278.767 24.3436 278.522 25.331C277.657 27.0833 277.562 29.1589 278.374 30.9913C279.158 32.7613 281.255 32.9494 282.521 31.6055C284.598 29.399 285.129 26.0273 283.998 23.2461C283.276 21.4771 281.22 21.4345 280.011 22.6557Z" fill="white"/>
<path d="M294.589 8.52992C293.19 7.88657 291.508 7.76914 289.979 7.75771C289.988 7.43447 289.912 7.10395 289.794 6.79319C289.61 6.30677 289.334 5.59273 288.702 5.66341C288.096 5.73097 287.734 6.45021 287.546 6.95117C287.444 7.22244 287.375 7.49475 287.335 7.77017C287.272 7.75874 287.204 7.75979 287.135 7.78058C283.904 8.71495 281.185 11.0555 279.014 13.5562C276.792 16.1151 275.072 19.1947 274.036 22.4218C273.528 24.0006 273.253 25.6158 273.38 27.2766C273.496 28.8107 273.913 30.3146 274.387 31.7729C274.889 33.3184 275.346 34.9387 276.182 36.3418C276.986 37.6898 278.158 38.9184 279.485 39.7602C280.83 40.6125 282.445 41.2507 284.059 40.9108C285.78 40.5491 287.536 39.2915 288.342 37.72C288.516 37.3833 288.386 36.929 288.122 36.6723C288.742 36.321 289.36 35.9656 289.975 35.6049C291.291 34.8306 292.6 34.0428 293.856 33.1739C296.264 31.5089 298.338 29.3938 299.7 26.785C300.916 24.4558 301.518 21.7712 301.283 19.1448C301.038 16.4082 299.823 13.9844 298.187 11.8164C297.21 10.5203 296.091 9.22005 294.589 8.52992ZM288.689 6.74225C288.708 6.71107 288.73 6.68303 288.754 6.656C288.785 6.80983 288.895 6.97713 288.942 7.1268C289.053 7.48953 289.049 7.75978 288.902 8.10588C288.854 8.22125 288.858 8.3335 288.894 8.43328C288.735 8.45926 288.574 8.51122 288.421 8.53097C288.298 8.54656 288.176 8.55279 288.054 8.55279C288.134 7.91152 288.329 7.24529 288.689 6.74225ZM296.598 12.4576C298.065 14.4376 299.266 16.5683 299.532 19.0565C300.075 24.1347 297.278 28.74 293.409 31.8092C292.19 32.7769 290.875 33.6083 289.552 34.4242C288.887 34.8348 288.222 35.2443 287.563 35.6631C287.26 35.8554 286.937 36.0321 286.648 36.2452C286.305 36.4967 286.04 36.8303 285.698 37.0829C285.53 37.2076 285.551 37.4363 285.666 37.5693C285.097 38.0775 284.528 38.5816 283.757 38.802C282.706 39.1034 281.548 38.7739 280.625 38.2438C279.477 37.5859 278.483 36.5964 277.743 35.5072C276.918 34.2912 276.459 32.8621 275.992 31.4808C275.549 30.1754 275.154 28.8502 274.996 27.4772C274.829 26.0232 275.001 24.5858 275.433 23.1899C276.336 20.2652 277.816 17.4808 279.742 15.1038C280.81 13.7849 282.019 12.599 283.346 11.542C284.619 10.5286 285.977 9.61398 287.3 8.66609C287.121 8.88851 287.182 9.298 287.554 9.36764C287.876 9.42792 288.203 9.44664 288.529 9.42689C288.597 9.42273 288.665 9.41755 288.733 9.41131C288.936 9.43418 289.134 9.32295 289.347 9.25123C289.527 9.40506 289.771 9.48508 290.026 9.47469C291.262 9.42584 292.641 9.49859 293.798 9.97149C294.988 10.4589 295.849 11.4484 296.598 12.4576Z" fill="white" fill-opacity="0.2"/>
<path d="M281.262 35.1019C281.068 35.0229 280.875 35.3129 281.066 35.4335C282.021 36.0321 283.101 36.4499 284.237 36.4936C284.632 36.5092 284.732 35.9344 284.324 35.8721C283.271 35.711 282.253 35.5031 281.262 35.1019Z" fill="white" fill-opacity="0.2"/>
<path d="M285.188 34.9647C284.633 34.972 284.087 34.9013 283.557 34.7371C283.154 34.6124 282.888 35.1882 283.296 35.3555C284.285 35.7608 285.872 36.1298 286.826 35.4677C287.063 35.3035 286.963 34.8951 286.673 34.8649C286.181 34.813 285.684 34.9585 285.188 34.9647Z" fill="white" fill-opacity="0.2"/>
<path d="M287.395 33.4722C286.756 33.6645 286.106 33.7632 285.436 33.7404C285.054 33.7269 284.954 34.2891 285.352 34.3442C286.07 34.443 286.813 34.4388 287.524 34.2819C288.177 34.1374 288.939 33.8984 289.336 33.3226C289.46 33.1438 289.336 32.8715 289.101 32.9027C288.505 32.9806 287.968 33.3007 287.395 33.4722Z" fill="white" fill-opacity="0.2"/>
<path d="M290.969 31.0422C290.548 31.1451 290.196 31.3821 289.794 31.5401C289.37 31.7064 288.932 31.7864 288.479 31.8082C288.055 31.829 288.038 32.5493 288.471 32.5618C289.379 32.5888 290.73 32.4412 291.299 31.6336C291.461 31.4039 291.302 30.9612 290.969 31.0422Z" fill="white" fill-opacity="0.2"/>
<path d="M293.254 28.4283C293.122 28.4958 292.969 28.5561 292.85 28.6434C292.737 28.7255 292.634 28.8274 292.528 28.9178C292.348 29.0706 292.288 29.3294 292.434 29.5289C292.567 29.7087 292.864 29.7763 293.045 29.6225C293.152 29.531 293.263 29.4427 293.367 29.3481C293.486 29.241 293.572 29.1101 293.666 28.9822C293.759 28.8554 293.769 28.6788 293.673 28.5488C293.587 28.4314 293.393 28.3576 293.254 28.4283Z" fill="white" fill-opacity="0.2"/>
</svg>
