<svg width="40" height="40" viewBox="0 0 40 40" fill="none" xmlns="http://www.w3.org/2000/svg">
<g clip-path="url(#clip0_95_675)">
<path d="M13.743 20.6073C13.8218 20.6147 13.8791 20.6848 13.8707 20.7636C13.8152 21.2862 13.8948 21.8307 14.1316 22.3447C14.8077 23.812 16.5507 24.4904 18.0409 23.8663C18.6795 23.5989 19.1767 23.1388 19.4951 22.583C20.1193 22.7273 20.7946 22.6754 21.4248 22.3888C22.8956 21.7202 23.5829 19.9807 22.9663 18.4873C22.7503 17.9642 22.4051 17.5357 21.9839 17.2212C21.9205 17.1737 21.9079 17.0841 21.9561 17.0212C22.6031 16.1771 22.7841 15.0163 22.3284 13.9727C21.6857 12.5006 20.0114 11.7994 18.5231 12.3448C18.4579 12.3687 18.3845 12.3412 18.3511 12.2802C17.5922 10.8939 15.8864 10.2923 14.4101 10.9369C12.9339 11.5814 12.2156 13.2415 12.7164 14.7405C12.7385 14.8064 12.7089 14.8789 12.6469 14.9105C11.2352 15.6312 10.6113 17.3359 11.254 18.8079C11.7097 19.8516 12.6841 20.5079 13.743 20.6073Z" fill="#68CA44"/>
<path d="M17.6931 19.9425L15.508 14.9155C15.3785 14.6189 15.5139 14.2736 15.8105 14.144C16.1071 14.0147 16.4525 14.15 16.5819 14.4466L18.7941 19.4732L17.6931 19.9425Z" fill="#4FC123"/>
<path d="M7.45667 23.7296C7.53113 23.7025 7.61284 23.7415 7.63894 23.8163C7.81206 24.3125 8.11675 24.7707 8.5505 25.1343C9.78878 26.1719 11.6546 26.0403 12.735 24.8392C13.1981 24.3245 13.451 23.6961 13.5013 23.0575C14.1272 22.9212 14.7156 22.5857 15.1629 22.0572C16.2068 20.8242 16.0849 18.9578 14.8892 17.8712C14.4703 17.4906 13.9751 17.2508 13.46 17.1463C13.3824 17.1306 13.3327 17.0549 13.3493 16.9775C13.5734 15.9378 13.241 14.8111 12.383 14.0622C11.1728 13.0061 9.35941 13.0876 8.24706 14.2168C8.19831 14.2664 8.12027 14.2728 8.06402 14.2319C6.78542 13.3029 4.98613 13.4881 3.92691 14.7017C2.86769 15.9153 2.92777 17.7231 4.0212 18.8643C4.06933 18.9144 4.07347 18.9926 4.03105 19.0477C3.06277 20.3026 3.22722 22.1104 4.43745 23.1665C5.2955 23.9154 6.45691 24.0923 7.45667 23.7296Z" fill="#97DA7B"/>
<path d="M10.0728 20.8323L6.61984 17.8296C6.37601 17.6168 6.35093 17.2467 6.56367 17.0028C6.77648 16.7591 7.14664 16.734 7.39039 16.9467L10.7609 19.869L10.0728 20.8323Z" fill="#80D261"/>
<path d="M9.33917 21.0135C9.28167 20.0585 9.91979 19.179 10.8459 18.9389C11.4486 18.7827 12.045 18.9102 12.5083 19.229C13.0939 19.6318 13.8014 19.8177 14.5039 19.7092L19.6349 18.9173L20.652 20.4711L20.1852 22.4824L15.0542 23.2744C14.3517 23.3829 13.7332 23.7734 13.2964 24.3341C12.9506 24.7777 12.4206 25.0791 11.7987 25.1119C10.8433 25.1622 9.96971 24.5159 9.73667 23.588C9.64612 23.2276 9.65721 22.87 9.74956 22.5421C9.80049 22.3612 9.7701 22.1641 9.66698 22.0069C9.47995 21.7222 9.36151 21.3846 9.33917 21.0135Z" fill="#FEE8C7"/>
<path d="M20.3788 17.4887C22.2447 17.2006 23.9533 16.3085 25.3058 14.991C26.2005 14.1196 27.3794 13.5219 28.7247 13.3598C31.836 12.9849 34.7318 15.15 35.2561 18.2396C35.8093 21.5003 33.586 24.5716 30.329 25.0743C29.044 25.2727 27.792 25.041 26.719 24.4868C25.1055 23.6534 23.281 23.3182 21.4862 23.5953L20.8875 23.6877C20.609 23.7306 20.3483 23.5397 20.3053 23.2612L19.5146 18.1385C19.4716 17.8599 19.6626 17.5992 19.9411 17.5563L20.3788 17.4887Z" fill="#C4573A"/>
<path d="M35.2562 18.2398C34.9452 16.4071 33.7997 14.8999 32.2698 14.0549C32.5783 14.6158 32.8 15.2344 32.9122 15.8958C33.4654 19.1564 31.2421 22.2277 27.9851 22.7305C26.7001 22.9288 25.4481 22.6972 24.3751 22.143C23.0129 21.4394 21.5003 21.0927 19.9822 21.1679L20.3053 23.2613C20.3484 23.5399 20.609 23.7309 20.8875 23.6878L21.4862 23.5954C23.281 23.3184 25.1055 23.6535 26.719 24.487C27.7919 25.0412 29.0439 25.2728 30.329 25.0745C33.586 24.5717 35.8094 21.5004 35.2562 18.2398Z" fill="#A74B30"/>
<path d="M3.01208 22.8833L7.50341 28.356C8.00521 28.9674 8.75458 29.3219 9.54552 29.3219H30.4547C31.2457 29.3219 31.995 28.9674 32.4968 28.356L36.988 22.8833H3.01208Z" fill="#FEA713"/>
<path d="M0.722046 21.4705C-0.0395948 21.3935 -0.292017 22.4637 0.423843 22.735C6.12884 24.8976 12.83 26.144 20 26.144C27.17 26.144 33.8712 24.8976 39.5762 22.735C40.292 22.4637 40.0396 21.3935 39.278 21.4705C35.0785 21.8947 28.1692 22.4289 20 22.4289C11.8309 22.4289 4.9215 21.8948 0.722046 21.4705Z" fill="#FECE85"/>
</g>
<defs>
<clipPath id="clip0_95_675">
<rect width="40" height="40" fill="white"/>
</clipPath>
</defs>
</svg>
