<svg width="40" height="40" viewBox="0 0 40 40" fill="none" xmlns="http://www.w3.org/2000/svg">
<g clip-path="url(#clip0_95_701)">
<path d="M15.4897 19.258H25.7858C25.6591 18.86 25.455 18.5033 25.1937 18.2016C25.1418 18.1418 25.1488 18.0515 25.2092 18.0004C26.0217 17.314 26.4467 16.2189 26.2247 15.1019C25.9116 13.5264 24.4259 12.4835 22.8554 12.6981C22.7865 12.7076 22.7208 12.665 22.7013 12.5983C22.2562 11.0817 20.7185 10.1294 19.1386 10.4433C17.5587 10.7574 16.5021 12.2255 16.6709 13.7969C16.6783 13.8661 16.6338 13.9305 16.5667 13.9482C15.0335 14.3505 14.0596 15.8823 14.3728 17.4577C14.5207 18.2029 14.932 18.8278 15.4897 19.258Z" fill="#68CA44"/>
<path d="M6.29536 19.2581H18.6701C18.7134 18.5887 18.5377 17.9023 18.124 17.3199C17.7962 16.8585 17.3638 16.5184 16.8829 16.3062C16.8104 16.2742 16.7781 16.1896 16.8109 16.1176C17.2521 15.1498 17.1683 13.9781 16.4903 13.0631C15.5339 11.7726 13.745 11.4646 12.4168 12.3299C12.3586 12.3679 12.281 12.3574 12.2348 12.3055C11.1843 11.1247 9.38716 10.9208 8.09294 11.8799C6.7988 12.8391 6.47099 14.6178 7.29513 15.9664C7.33138 16.0257 7.31872 16.103 7.26552 16.1477C6.34271 16.9221 5.99153 18.1478 6.29536 19.2581Z" fill="#97DA7B"/>
<path d="M19.7776 16.6343L19.3605 14.565C19.2974 14.2476 19.5036 13.9391 19.821 13.8761C20.1386 13.8131 20.4468 14.0192 20.5099 14.3366L20.996 16.8758L19.7776 16.6343Z" fill="#4FC123"/>
<path d="M11.363 17.254L10.0548 15.5112C9.86211 15.2512 9.91664 14.8843 10.1767 14.6916C10.4369 14.499 10.8036 14.5535 10.9963 14.8135L12.6015 16.9788L11.363 17.254Z" fill="#80D261"/>
<path d="M35.1185 23.6428C34.7698 22.6274 34.1896 21.3468 33.3099 20.5536C33.1689 20.4264 33.1703 20.2082 33.3113 20.0809C34.5097 18.9993 35.1522 17.0132 35.4103 16.0274C35.4883 15.7296 35.2541 15.4417 34.9467 15.4585C30.133 15.7215 27.7689 18.8039 27.7689 18.8039L27.7985 21.8173C27.7985 21.8173 28.4262 22.7749 29.8681 23.6428H35.1185Z" fill="#D6694B"/>
<path d="M35.4103 16.0269C35.488 15.7299 35.2553 15.4415 34.9487 15.4582C34.2639 15.4956 33.6275 15.5893 33.0393 15.7225C33.0813 15.8136 33.0943 15.9197 33.0662 16.0273C32.8264 16.9431 32.2548 18.7226 31.2138 19.8377C30.9636 20.1058 30.9569 20.5236 31.2077 20.7912C31.9534 21.5867 32.4588 22.7234 32.7745 23.6427H35.1185C34.7701 22.6283 34.1907 21.3492 33.3124 20.5558C33.1729 20.4299 33.1671 20.2106 33.3068 20.0849C34.5081 19.004 35.1519 17.0137 35.4103 16.0269Z" fill="#C4573A"/>
<path d="M29.9624 20.0369C28.4651 19.0847 23.181 16.0364 16.892 16.0364C15.8517 16.0364 14.8394 16.1208 13.8666 16.2643V24.371C14.8394 24.5145 15.8517 24.5989 16.892 24.5989C23.181 24.5989 28.4651 21.5506 29.9624 20.5983C30.1681 20.4675 30.1681 20.1679 29.9624 20.0369Z" fill="#E49280"/>
<path d="M29.9624 20.0371C29.5277 19.7607 28.7735 19.3075 27.7688 18.8037C27.7556 18.8943 27.7057 18.9803 27.6184 19.0358C26.1346 19.9795 20.9319 22.981 14.7179 23.035C14.4896 23.5167 14.2031 23.9653 13.8666 24.3711C14.8394 24.5146 15.8517 24.599 16.892 24.599C23.181 24.599 28.4651 21.5507 29.9624 20.5985C30.1681 20.4677 30.1681 20.168 29.9624 20.0371Z" fill="#DD7F66"/>
<path d="M13.8666 16.2644C10.1664 16.8104 7.0457 18.2257 5.1989 19.23C4.33718 19.6985 4.33718 20.9369 5.1989 21.4055C7.0457 22.4098 10.1665 23.825 13.8666 24.371C14.7788 23.2709 15.3274 21.8585 15.3274 20.3177C15.3274 18.7769 14.7788 17.3645 13.8666 16.2644Z" fill="#D6694B"/>
<path d="M11.5521 20.1909C11.8757 20.1909 12.1381 19.9286 12.1381 19.605C12.1381 19.2814 11.8757 19.019 11.5521 19.019C11.2285 19.019 10.9662 19.2814 10.9662 19.605C10.9662 19.9286 11.2285 20.1909 11.5521 20.1909Z" fill="#A74B30"/>
<path d="M3.01208 23.1777L7.50341 28.6505C8.00521 29.2619 8.75458 29.6163 9.54552 29.6163H30.4547C31.2457 29.6163 31.995 29.2619 32.4968 28.6505L36.988 23.1777H3.01208Z" fill="#FDB441"/>
<path d="M0.722046 21.7649C-0.0395948 21.688 -0.292017 22.7581 0.423843 23.0295C6.12884 25.192 12.83 26.4384 20 26.4384C27.17 26.4384 33.8712 25.192 39.5762 23.0295C40.292 22.7581 40.0396 21.688 39.278 21.7649C35.0785 22.1892 28.1692 22.7233 20 22.7233C11.8309 22.7233 4.9215 22.1892 0.722046 21.7649Z" fill="#FEE8C7"/>
</g>
<defs>
<clipPath id="clip0_95_701">
<rect width="40" height="40" fill="white"/>
</clipPath>
</defs>
</svg>
