<svg width="40" height="40" viewBox="0 0 40 40" fill="none" xmlns="http://www.w3.org/2000/svg">
<path d="M25.5695 11.6325C26.0246 10.8696 26.8577 10.3583 27.8106 10.3583C29.2509 10.3583 30.4185 11.526 30.4185 12.9662C30.4185 13.07 30.4118 13.1722 30.4 13.2729C30.7141 13.1848 31.0324 13.1389 31.3466 13.1389C31.6377 13.1389 31.9124 13.179 32.1668 13.2562C32.1731 13.1603 32.1775 13.0638 32.1775 12.9663C32.1775 10.5545 30.2223 8.59937 27.8105 8.59937C26.3732 8.59937 25.0983 9.29397 24.3025 10.3657L25.5695 11.6325Z" fill="#FED2A4"/>
<path d="M10.1999 20.3014L10.2902 20.2851L10.2465 20.2044C10.1718 20.0663 10.1077 19.9265 10.0529 19.7861C8.78784 19.6064 7.81484 18.5195 7.81484 17.2048C7.81484 15.7644 8.9825 14.5968 10.4228 14.5968C11.1765 14.5968 11.8552 14.9169 12.3313 15.4282C12.4329 14.981 12.6442 14.5862 12.9581 14.2723C13.0766 14.1538 13.2065 14.0502 13.3462 13.9612C12.5722 13.2631 11.5473 12.8379 10.4228 12.8379C8.01109 12.8379 6.05591 14.7931 6.05591 17.2048C6.05591 18.9505 7.08052 20.4563 8.56091 21.1553C8.93893 20.733 9.5114 20.4254 10.1999 20.3014Z" fill="#FED2A4"/>
<path d="M22.0206 15.8557C22.2097 15.7656 22.42 15.7197 22.6477 15.7197C23.0259 15.7197 23.4487 15.8477 23.8705 16.09L23.9573 16.1399L23.9695 16.0405C24.1828 14.3075 25.0996 13.0496 26.1495 13.0496C26.9102 13.0496 27.6113 13.6985 28.0247 14.7856L28.0657 14.8935L28.1384 14.8037C28.2439 14.6733 28.3546 14.5499 28.4674 14.4364L21.5888 7.55787C21.4483 7.4174 21.2192 7.4267 21.0879 7.5758C19.6265 9.23504 19.2931 11.5391 20.0849 13.494C20.9494 13.5821 21.7047 14.5198 22.0206 15.8557Z" fill="#FB2B3A"/>
<path d="M22.0206 15.8557C22.2097 15.7656 22.42 15.7197 22.6477 15.7197C22.7159 15.7197 22.7859 15.7252 22.8567 15.7335C21.1714 13.6954 21.1191 10.7621 22.6979 8.66702L21.5888 7.55787C21.4483 7.4174 21.2192 7.4267 21.0879 7.5758C19.6265 9.23504 19.2931 11.5391 20.0849 13.494C20.9494 13.5821 21.7047 14.5198 22.0206 15.8557Z" fill="#E41F2D"/>
<path d="M22.8417 14.2712C22.7143 14.2712 22.5867 14.2225 22.4895 14.1252C22.295 13.9307 22.295 13.6153 22.4895 13.4209L23.0409 12.8695C23.2354 12.675 23.5508 12.675 23.7452 12.8695C23.9398 13.064 23.9398 13.3794 23.7452 13.5739L23.1939 14.1252C23.0966 14.2225 22.9691 14.2712 22.8417 14.2712Z" fill="#FE646F"/>
<path d="M22.6718 11.8224H21.892C21.6169 11.8224 21.3939 11.5993 21.3939 11.3243C21.3939 11.0492 21.6169 10.8262 21.892 10.8262H22.6718C22.9468 10.8262 23.1699 11.0492 23.1699 11.3243C23.1699 11.5993 22.9468 11.8224 22.6718 11.8224Z" fill="#FE646F"/>
<path d="M17.4089 10.1082C19.3113 8.20587 19.3947 5.17335 17.6592 3.17182C17.529 3.02173 17.2985 3.01349 17.1581 3.15396L10.4546 9.85748C10.3142 9.99794 10.3224 10.2284 10.4725 10.3586C12.4739 12.094 15.5065 12.0106 17.4089 10.1082Z" fill="#FD4755"/>
<path d="M11.74 8.80081C11.6962 8.76282 11.666 8.71587 11.6465 8.66553L10.4545 9.85756C10.314 9.99802 10.3223 10.2285 10.4724 10.3586C12.4739 12.0942 15.5064 12.0108 17.4088 10.1084C17.7805 9.73669 18.0818 9.32141 18.3147 8.87944C16.4064 10.4561 13.619 10.43 11.74 8.80081Z" fill="#FB2B3A"/>
<path d="M15.9702 9.26603C15.8428 9.26603 15.7152 9.21741 15.618 9.12012L15.1262 8.62834C14.9317 8.43381 14.9317 8.11842 15.1262 7.92397C15.3208 7.72945 15.6362 7.72945 15.8306 7.92397L16.3224 8.41575C16.5169 8.61027 16.5169 8.92566 16.3224 9.12012C16.2252 9.21735 16.0977 9.26603 15.9702 9.26603Z" fill="#E41F2D"/>
<path d="M13.7859 10.1133C13.5109 10.1133 13.2878 9.89027 13.2878 9.61519V8.91972C13.2878 8.64464 13.5109 8.42163 13.7859 8.42163C14.061 8.42163 14.284 8.64464 14.284 8.91972V9.61519C14.284 9.89027 14.061 10.1133 13.7859 10.1133Z" fill="#E41F2D"/>
<path d="M16.9156 7.12265H16.2201C15.9451 7.12265 15.722 6.89964 15.722 6.62456C15.722 6.34948 15.9451 6.12646 16.2201 6.12646H16.9156C17.1907 6.12646 17.4137 6.34948 17.4137 6.62456C17.4137 6.89964 17.1907 7.12265 16.9156 7.12265Z" fill="#E41F2D"/>
<path d="M14.0558 24.163C14.0558 23.8408 14.0925 23.5272 14.16 23.2251C12.9629 22.8455 12.1674 22.0959 12.1674 21.2607C12.1674 20.5002 12.8161 19.7992 13.9026 19.3858L14.0104 19.3448L13.9209 19.2721C13.7888 19.1649 13.664 19.0528 13.55 18.9388C12.858 18.2467 12.4137 17.3899 12.2941 16.5213C11.6595 16.3833 11.0332 16.4815 10.5457 16.852C9.62854 17.5491 9.50773 18.9778 10.1883 20.236C9.03787 20.4433 8.15027 21.1764 8.01704 22.1539C7.90746 22.9577 8.33403 23.7384 9.07433 24.2728H14.0586C14.0576 24.2362 14.0558 24.1998 14.0558 24.163Z" fill="#80D261"/>
<path d="M21.0106 24.2727C21.0163 24.2657 21.0228 24.2588 21.0284 24.2518C21.0294 24.2223 21.0307 24.1927 21.0307 24.1629C21.0307 22.6882 19.831 21.4885 18.3563 21.4885C16.8816 21.4885 15.6819 22.6882 15.6819 24.1629C15.6819 24.1997 15.6839 24.2362 15.6853 24.2727H21.0106Z" fill="#017B4E"/>
<path d="M18.3563 19.8626C19.8547 19.8626 21.1759 20.6333 21.946 21.7987C21.9228 21.3684 21.9484 20.9359 22.0233 20.51C21.9731 20.4312 21.9239 20.3513 21.8766 20.2693C21.3722 19.3957 21.1021 18.4577 21.116 17.628C21.1298 16.8107 21.4179 16.1987 21.9272 15.9046C21.9772 15.8757 22.0291 15.8505 22.0823 15.8283C21.7452 14.4175 20.9184 13.4202 19.9517 13.4202C19.1363 13.4202 18.4208 14.1302 18.0144 15.199C17.9084 15.0679 17.7946 14.9401 17.6717 14.8172C16.1937 13.3392 14.0623 13.0742 12.9112 14.2253C11.7601 15.3765 12.025 17.5078 13.503 18.9858C13.6242 19.107 13.75 19.2191 13.879 19.3238C12.8107 19.7303 12.101 20.4456 12.101 21.2607C12.101 22.1419 12.9298 22.9064 14.1449 23.2902C14.5494 21.336 16.284 19.8626 18.3563 19.8626Z" fill="#017B4E"/>
<path d="M16.9434 23.438C16.5887 23.3676 16.257 23.2666 15.9567 23.1406C15.8175 23.4669 15.7427 23.8272 15.7488 24.2057C15.749 24.206 15.7492 24.2062 15.7495 24.2065H17.0789C17.1076 24.1034 17.1437 23.9994 17.1869 23.8949C17.268 23.6986 17.1517 23.4794 16.9434 23.438Z" fill="#026841"/>
<path d="M12.1011 21.2608C12.1011 22.1265 12.9008 22.8801 14.0812 23.2702C14.1727 22.8297 14.3312 22.4139 14.5445 22.0329C14.4007 21.7917 14.3218 21.5319 14.3218 21.2609C14.3218 20.5661 14.8373 19.9439 15.651 19.5236C15.8522 19.4196 15.8878 19.1495 15.7275 18.9896C15.7263 18.9884 15.7251 18.9872 15.7239 18.9859C14.2459 17.5079 13.9809 15.3766 15.132 14.2254C15.359 13.9985 15.6245 13.8274 15.9152 13.709C14.7981 13.3313 13.6518 13.4848 12.9112 14.2254C11.76 15.3766 12.025 17.5079 13.503 18.9859C13.6242 19.107 13.75 19.2192 13.879 19.3239C12.8108 19.7303 12.1011 20.4456 12.1011 21.2608Z" fill="#026841"/>
<path d="M17.8721 19.8906C18.0311 19.8727 18.1926 19.8626 18.3564 19.8626C18.7077 19.8626 19.049 19.9059 19.3761 19.9858L16.6602 17.2699C16.4657 17.0754 16.1503 17.0754 15.9558 17.2699C15.7613 17.4644 15.7613 17.7798 15.9558 17.9743L17.8721 19.8906Z" fill="#026841"/>
<path d="M32.2223 18.887C32.3512 18.7823 32.4771 18.6701 32.5982 18.5491C34.0762 17.0711 34.3412 14.9397 33.1901 13.7886C32.039 12.6375 29.9076 12.9024 28.4296 14.3804C28.3066 14.5034 28.193 14.6312 28.0869 14.7622C27.6804 13.6935 26.965 12.9834 26.1496 12.9834C25.042 12.9834 24.118 14.2923 23.9038 16.0326C23.1836 15.619 22.4543 15.5235 21.8941 15.847C20.7975 16.4801 20.7639 18.4749 21.8191 20.3025C21.8793 20.4067 21.9424 20.507 22.0068 20.6055C22.1664 19.5963 22.6002 18.6211 23.3142 17.803C23.3714 17.7375 23.454 17.6999 23.5409 17.6999C23.6205 17.6999 23.6954 17.7309 23.7517 17.7872L30.2373 24.2728H31.324C31.3117 23.8907 31.179 23.4792 30.9436 23.0707C32.6876 22.8582 34.0003 21.9331 34.0003 20.824C34.0002 20.0088 33.2906 19.2935 32.2223 18.887Z" fill="#68CA44"/>
<path d="M30.1456 16.8329C29.9511 16.6384 29.6357 16.6384 29.4412 16.8329L26.1664 20.1078L26.8708 20.8121L30.1456 17.5373C30.3401 17.3428 30.3401 17.0274 30.1456 16.8329Z" fill="#80D261"/>
<path d="M22.6566 24.163C22.6566 24.1728 22.6563 24.1826 22.656 24.1923L22.6536 24.2729H30.331L23.7985 17.7403C23.6486 17.5905 23.4034 17.5997 23.264 17.7594C22.2871 18.8788 21.822 20.2894 21.8685 21.6862C22.3642 22.387 22.6566 23.2412 22.6566 24.163Z" fill="white"/>
<path d="M26.4001 24.2729H28.7076C29.0611 24.1262 29.3925 23.9096 29.68 23.6221L25.4276 19.3696C24.2533 20.5439 24.2533 22.4478 25.4276 23.6221C25.7151 23.9096 26.0465 24.1262 26.4001 24.2729Z" fill="#FEDF74"/>
<path d="M26.4019 24.2729H27.5303C27.1766 24.1263 26.845 23.9096 26.5575 23.6221C25.5789 22.6435 25.4166 21.1585 26.069 20.011L25.4276 19.3696C24.2533 20.5439 24.2533 22.4478 25.4276 23.6221C25.7155 23.91 26.0477 24.1263 26.4019 24.2729Z" fill="#FED402"/>
<path d="M15.7512 24.2727C15.7496 24.2362 15.7484 24.1997 15.7484 24.1628C15.7484 22.7225 16.916 21.5549 18.3563 21.5549C19.7966 21.5549 20.9643 22.7226 20.9643 24.1628C20.9643 24.1997 20.963 24.2362 20.9615 24.2727H22.7205C22.7214 24.2361 22.7233 24.1997 22.7233 24.1628C22.7233 21.751 20.7681 19.7959 18.3563 19.7959C15.9446 19.7959 13.9894 21.7511 13.9894 24.1628C13.9894 24.1997 13.9912 24.236 13.9922 24.2727H15.7512Z" fill="#FED2A4"/>
<path d="M14.8796 37.0015H24.5983C24.7308 37.0015 24.8625 36.9768 24.9851 36.9262C29.7715 34.95 33.1991 30.351 33.4767 24.9199C33.4965 24.5311 33.1825 24.2063 32.7931 24.2063H6.68484C6.29547 24.2063 5.9814 24.531 6.00126 24.9199C6.2788 30.351 9.7064 34.95 14.4929 36.9262C14.6154 36.9768 14.7471 37.0015 14.8796 37.0015Z" fill="#D8ECFE"/>
<path d="M8.96233 27.4238H6.36169C7.39567 31.7382 10.4625 35.2621 14.4929 36.9262C14.6154 36.9768 14.7471 37.0015 14.8797 37.0015H17.4803C17.3477 37.0015 17.216 36.9768 17.0935 36.9262C13.0631 35.2621 9.9963 31.7382 8.96233 27.4238Z" fill="#C4E2FF"/>
<path d="M32.7931 24.2063H6.68484C6.29547 24.2063 5.9814 24.531 6.00126 24.9199C6.04509 25.7777 6.16769 26.6146 6.36168 27.4238H33.1163C33.3102 26.6146 33.4328 25.7777 33.4767 24.9199C33.4965 24.5311 33.1825 24.2063 32.7931 24.2063Z" fill="#EAF6FF"/>
<path d="M6.00126 24.9199C6.04509 25.7777 6.16769 26.6146 6.36168 27.4238H8.96232C8.76839 26.6146 8.64573 25.7777 8.6019 24.9199C8.58204 24.5311 8.8961 24.2063 9.28548 24.2063H6.68484C6.29546 24.2063 5.9814 24.5311 6.00126 24.9199Z" fill="#D8ECFE"/>
<path d="M28.3757 6.13702C28.5414 6.09265 28.6495 5.9324 28.6269 5.76245C28.5373 5.08664 28.2331 4.43387 27.7139 3.91453C27.1946 3.39525 26.5418 3.09108 25.866 3.00149C25.6961 2.97898 25.5358 3.0871 25.4915 3.25267L24.589 6.62043C24.5209 6.87479 24.7536 7.1075 25.008 7.03936L28.3757 6.13702Z" fill="#FE9901"/>
<path d="M26.085 6.6205L26.9602 3.35408C26.6156 3.16925 26.2444 3.0517 25.866 3.00149C25.6961 2.97898 25.5358 3.0871 25.4915 3.25267L24.589 6.62043C24.5209 6.87479 24.7536 7.1075 25.008 7.03936L26.076 6.75319C26.0706 6.71075 26.0728 6.66599 26.085 6.6205Z" fill="#FB8801"/>
</svg>
