<svg width="40" height="40" viewBox="0 0 40 40" fill="none" xmlns="http://www.w3.org/2000/svg">
<path d="M35.9566 16.8517C35.9121 16.3846 35.5437 16.0148 35.0783 15.9702C34.8175 15.9452 28.6503 15.3991 25.059 19.0033C24.2802 19.7848 23.6962 20.6879 23.2588 21.6257C22.5386 18.6662 21.2576 16.2108 19.499 14.4459C17.3314 12.2706 14.1188 10.8234 10.2085 10.2607C7.29901 9.84193 5.03345 10.0511 4.93845 10.0603C4.47301 10.105 4.10457 10.4747 4.06007 10.9418C4.05095 11.0372 3.84251 13.3107 4.2597 16.2307C4.82038 20.1548 6.26245 23.379 8.43007 25.5542C10.5976 27.7294 13.8103 29.1767 17.7205 29.7394C19.1606 29.9466 20.4426 30 21.382 30C22.2332 29.9999 22.8022 29.9562 22.9528 29.9431C23.0816 29.9542 23.4738 29.9833 24.0449 29.9833C26.0423 29.9833 30.2226 29.628 32.9343 26.9066C36.5256 23.3026 35.9816 17.1135 35.9566 16.8517Z" fill="#BFFB32"/>
<path d="M29.99 22.2548C29.6091 21.8739 28.9913 21.8739 28.6103 22.2548L23.2563 27.6089L14.9579 19.3104C14.5769 18.9294 13.9592 18.9294 13.5781 19.3104C13.1971 19.6913 13.1971 20.3091 13.5781 20.6901L22.5115 29.6234C22.702 29.8139 22.9516 29.9092 23.2013 29.9092C23.2196 29.9092 23.238 29.9077 23.2563 29.9066C23.2746 29.9076 23.293 29.9092 23.3113 29.9092C23.561 29.9092 23.8106 29.8139 24.0011 29.6234L29.9899 23.6346C30.371 23.2535 30.371 22.6357 29.99 22.2548Z" fill="#8CDC52"/>
<path d="M35.0784 15.9845C34.8176 15.9596 28.6504 15.4155 25.059 19.0069C24.2803 19.7856 23.6963 20.6855 23.2589 21.6199C23.2494 21.5811 23.2394 21.5426 23.2297 21.5039V29.9268C23.4253 29.9376 23.7027 29.9479 24.045 29.9479C26.0424 29.9479 30.2227 29.5939 32.9344 26.8821C36.5257 23.2908 35.9816 17.1236 35.9567 16.8628C35.9123 16.3974 35.5438 16.029 35.0784 15.9845Z" fill="#8CDC52"/>
<path d="M28.3455 22.2879L23.0265 27.6823L23 27.6555V29.9986C23.0088 29.9981 23.0176 29.9979 23.0265 29.9973C23.0446 29.9984 23.0629 30 23.0811 30C23.3291 30 23.5772 29.904 23.7664 29.712L29.7161 23.678C30.0946 23.2942 30.0946 22.6718 29.7161 22.2878C29.3377 21.904 28.7239 21.904 28.3455 22.2879Z" fill="#5DC378"/>
</svg>
