<svg width="67" height="40" viewBox="0 0 67 40" fill="none" xmlns="http://www.w3.org/2000/svg">
<rect width="67" height="40" rx="4" fill="#FEFFDC"/>
<rect x="0.5" y="0.5" width="66" height="39" rx="3.5" stroke="black" stroke-opacity="0.1"/>
<path d="M8.82386 23.3409V21.6648L13.7614 13.8636H15.1591V16.25H14.3068L10.983 21.517V21.608H17.875V23.3409H8.82386ZM14.375 25.5V22.8295L14.3977 22.0795V13.8636H16.3864V25.5H14.375ZM20.332 25.625C19.9873 25.625 19.6918 25.5038 19.4456 25.2614C19.1994 25.0189 19.0782 24.7235 19.082 24.375C19.0782 24.0341 19.1994 23.7424 19.4456 23.5C19.6918 23.2576 19.9873 23.1364 20.332 23.1364C20.6653 23.1364 20.9551 23.2576 21.2013 23.5C21.4513 23.7424 21.5782 24.0341 21.582 24.375C21.5782 24.6061 21.5176 24.8163 21.4002 25.0057C21.2865 25.1951 21.135 25.3466 20.9456 25.4602C20.76 25.5701 20.5555 25.625 20.332 25.625ZM27.2307 13.7045C27.7876 13.7083 28.3292 13.8068 28.8557 14C29.386 14.1894 29.8633 14.5 30.2876 14.9318C30.7118 15.3598 31.0489 15.9337 31.2989 16.6534C31.5489 17.3731 31.6739 18.2633 31.6739 19.3239C31.6777 20.3239 31.5716 21.2178 31.3557 22.0057C31.1436 22.7898 30.8387 23.4527 30.441 23.9943C30.0432 24.536 29.5641 24.9489 29.0035 25.233C28.4429 25.517 27.8122 25.6591 27.1114 25.6591C26.3766 25.6591 25.7251 25.5152 25.1569 25.2273C24.5925 24.9394 24.136 24.5455 23.7876 24.0455C23.4391 23.5455 23.2251 22.9735 23.1455 22.3295H25.2194C25.3254 22.7917 25.5413 23.1591 25.8671 23.4318C26.1966 23.7008 26.6114 23.8352 27.1114 23.8352C27.9182 23.8352 28.5395 23.4848 28.9751 22.7841C29.4107 22.0833 29.6285 21.1098 29.6285 19.8636H29.5489C29.3633 20.197 29.1228 20.4848 28.8273 20.7273C28.5319 20.9659 28.1966 21.1496 27.8216 21.2784C27.4504 21.4072 27.0565 21.4716 26.6398 21.4716C25.958 21.4716 25.3444 21.3087 24.7989 20.983C24.2573 20.6572 23.8273 20.2102 23.5091 19.642C23.1948 19.0739 23.0357 18.4242 23.0319 17.6932C23.0319 16.9356 23.2061 16.2557 23.5546 15.6534C23.9069 15.0473 24.3974 14.5701 25.0262 14.2216C25.655 13.8693 26.3898 13.697 27.2307 13.7045ZM27.2364 15.4091C26.8273 15.4091 26.458 15.5095 26.1285 15.7102C25.8027 15.9072 25.5451 16.1761 25.3557 16.517C25.1701 16.8542 25.0773 17.2311 25.0773 17.6477C25.0811 18.0606 25.1739 18.4356 25.3557 18.7727C25.5413 19.1098 25.7932 19.3769 26.1114 19.5739C26.4334 19.7708 26.8008 19.8693 27.2137 19.8693C27.5205 19.8693 27.8065 19.8106 28.0716 19.6932C28.3368 19.5758 28.5679 19.4129 28.7648 19.2045C28.9656 18.9924 29.1209 18.7519 29.2307 18.483C29.3444 18.214 29.3993 17.9299 29.3955 17.6307C29.3955 17.233 29.3008 16.8655 29.1114 16.5284C28.9258 16.1913 28.6701 15.9205 28.3444 15.7159C28.0224 15.5114 27.6531 15.4091 27.2364 15.4091Z" fill="black"/>
<g clip-path="url(#clip0_128_1070)">
<path d="M58.9583 18.1375C58.8536 17.8135 58.5662 17.5834 58.2262 17.5527L53.6082 17.1334L51.7821 12.8593C51.6474 12.546 51.3408 12.3433 51.0001 12.3433C50.6594 12.3433 50.3527 12.546 50.2181 12.86L48.392 17.1334L43.7732 17.5527C43.4338 17.5841 43.1472 17.8135 43.0419 18.1375C42.9365 18.4615 43.0338 18.8168 43.2905 19.0408L46.7812 22.1022L45.7519 26.6364C45.6766 26.9697 45.806 27.3144 46.0826 27.5143C46.2313 27.6217 46.4052 27.6764 46.5807 27.6764C46.7319 27.6764 46.8819 27.6356 47.0166 27.5551L51.0001 25.1743L54.9821 27.5551C55.2735 27.7304 55.6408 27.7144 55.9168 27.5143C56.1936 27.3137 56.3229 26.969 56.2475 26.6364L55.2182 22.1022L58.7089 19.0414C58.9656 18.8168 59.0636 18.4621 58.9583 18.1375Z" fill="#FFC107"/>
</g>
<defs>
<clipPath id="clip0_128_1070">
<rect width="16" height="16" fill="white" transform="translate(43 12)"/>
</clipPath>
</defs>
</svg>
