<svg width="157" height="40" viewBox="0 0 157 40" fill="none" xmlns="http://www.w3.org/2000/svg">
<rect width="157" height="40" rx="4" fill="#FEFFDC"/>
<rect x="0.5" y="0.5" width="156" height="39" rx="3.5" stroke="black" stroke-opacity="0.1"/>
<path d="M13.0795 25.6591C12.322 25.6591 11.6439 25.517 11.0455 25.233C10.447 24.9451 9.97159 24.5511 9.61932 24.0511C9.27083 23.5511 9.08523 22.9792 9.0625 22.3352H11.108C11.1458 22.8125 11.3523 23.2027 11.7273 23.5057C12.1023 23.8049 12.553 23.9545 13.0795 23.9545C13.4924 23.9545 13.8598 23.8598 14.1818 23.6705C14.5038 23.4811 14.7576 23.2178 14.9432 22.8807C15.1288 22.5436 15.2197 22.1591 15.2159 21.7273C15.2197 21.2879 15.1269 20.8977 14.9375 20.5568C14.7481 20.2159 14.4886 19.9489 14.1591 19.7557C13.8295 19.5587 13.4508 19.4602 13.0227 19.4602C12.6742 19.4564 12.3314 19.5208 11.9943 19.6534C11.6572 19.786 11.3902 19.9602 11.1932 20.1761L9.28977 19.8636L9.89773 13.8636H16.6477V15.625H11.642L11.3068 18.7102H11.375C11.5909 18.4564 11.8958 18.2462 12.2898 18.0795C12.6837 17.9091 13.1155 17.8239 13.5852 17.8239C14.2898 17.8239 14.9186 17.9905 15.4716 18.3239C16.0246 18.6534 16.4602 19.108 16.7784 19.6875C17.0966 20.267 17.2557 20.9299 17.2557 21.6761C17.2557 22.4451 17.0777 23.1307 16.7216 23.733C16.3693 24.3314 15.8788 24.803 15.25 25.1477C14.625 25.4886 13.9015 25.6591 13.0795 25.6591ZM23.1402 25.7216C22.2046 25.7216 21.4016 25.4848 20.7311 25.0114C20.0645 24.5341 19.5512 23.8466 19.1914 22.9489C18.8353 22.0473 18.6573 20.9621 18.6573 19.6932C18.6611 18.4242 18.841 17.3447 19.197 16.4545C19.5569 15.5606 20.0702 14.8788 20.7368 14.4091C21.4073 13.9394 22.2084 13.7045 23.1402 13.7045C24.072 13.7045 24.8732 13.9394 25.5436 14.4091C26.2141 14.8788 26.7273 15.5606 27.0834 16.4545C27.4433 17.3485 27.6232 18.428 27.6232 19.6932C27.6232 20.9659 27.4433 22.053 27.0834 22.9545C26.7273 23.8523 26.2141 24.5379 25.5436 25.0114C24.877 25.4848 24.0758 25.7216 23.1402 25.7216ZM23.1402 23.9432C23.8675 23.9432 24.4414 23.5852 24.8618 22.8693C25.2861 22.1496 25.4982 21.0909 25.4982 19.6932C25.4982 18.7689 25.4016 17.9924 25.2084 17.3636C25.0152 16.7348 24.7425 16.2614 24.3902 15.9432C24.038 15.6212 23.6213 15.4602 23.1402 15.4602C22.4167 15.4602 21.8448 15.8201 21.4243 16.5398C21.0039 17.2557 20.7917 18.3068 20.788 19.6932C20.7842 20.6212 20.877 21.4015 21.0664 22.0341C21.2595 22.6667 21.5323 23.1439 21.8845 23.4659C22.2368 23.7841 22.6554 23.9432 23.1402 23.9432ZM33.4921 25.7216C32.5565 25.7216 31.7535 25.4848 31.083 25.0114C30.4163 24.5341 29.9031 23.8466 29.5432 22.9489C29.1872 22.0473 29.0091 20.9621 29.0091 19.6932C29.0129 18.4242 29.1929 17.3447 29.5489 16.4545C29.9088 15.5606 30.422 14.8788 31.0887 14.4091C31.7591 13.9394 32.5603 13.7045 33.4921 13.7045C34.4239 13.7045 35.2251 13.9394 35.8955 14.4091C36.566 14.8788 37.0792 15.5606 37.4353 16.4545C37.7951 17.3485 37.9751 18.428 37.9751 19.6932C37.9751 20.9659 37.7951 22.053 37.4353 22.9545C37.0792 23.8523 36.566 24.5379 35.8955 25.0114C35.2288 25.4848 34.4277 25.7216 33.4921 25.7216ZM33.4921 23.9432C34.2194 23.9432 34.7932 23.5852 35.2137 22.8693C35.6379 22.1496 35.8501 21.0909 35.8501 19.6932C35.8501 18.7689 35.7535 17.9924 35.5603 17.3636C35.3671 16.7348 35.0944 16.2614 34.7421 15.9432C34.3898 15.6212 33.9732 15.4602 33.4921 15.4602C32.7686 15.4602 32.1966 15.8201 31.7762 16.5398C31.3557 17.2557 31.1436 18.3068 31.1398 19.6932C31.136 20.6212 31.2288 21.4015 31.4182 22.0341C31.6114 22.6667 31.8841 23.1439 32.2364 23.4659C32.5887 23.7841 33.0073 23.9432 33.4921 23.9432ZM42.9974 23.6364V15.7727H44.7815V23.6364H42.9974ZM39.9576 20.5966V18.8125H47.8213V20.5966H39.9576ZM60.5577 19.0795L58.6827 19.2841C58.6296 19.0947 58.5368 18.9167 58.4043 18.75C58.2755 18.5833 58.1012 18.4489 57.8815 18.3466C57.6618 18.2443 57.3929 18.1932 57.0747 18.1932C56.6467 18.1932 56.2868 18.286 55.9952 18.4716C55.7073 18.6572 55.5652 18.8977 55.569 19.1932C55.5652 19.447 55.6581 19.6534 55.8474 19.8125C56.0406 19.9716 56.3588 20.1023 56.802 20.2045L58.2906 20.5227C59.1164 20.7008 59.73 20.983 60.1315 21.3693C60.5368 21.7557 60.7414 22.2614 60.7452 22.8864C60.7414 23.4356 60.5804 23.9205 60.2622 24.3409C59.9478 24.7576 59.5103 25.0833 58.9497 25.3182C58.3891 25.553 57.7452 25.6705 57.0179 25.6705C55.9497 25.6705 55.0899 25.447 54.4384 25C53.7868 24.5492 53.3986 23.9223 53.2736 23.1193L55.2793 22.9261C55.3702 23.3201 55.5634 23.6174 55.8588 23.8182C56.1543 24.0189 56.5387 24.1193 57.0122 24.1193C57.5009 24.1193 57.8929 24.0189 58.1884 23.8182C58.4876 23.6174 58.6372 23.3693 58.6372 23.0739C58.6372 22.8239 58.5406 22.6174 58.3474 22.4545C58.1581 22.2917 57.8626 22.1667 57.4611 22.0795L55.9724 21.767C55.1353 21.5928 54.516 21.2992 54.1145 20.8864C53.713 20.4697 53.5141 19.9432 53.5179 19.3068C53.5141 18.7689 53.6599 18.303 53.9554 17.9091C54.2546 17.5114 54.6694 17.2045 55.1997 16.9886C55.7338 16.7689 56.3493 16.6591 57.0463 16.6591C58.069 16.6591 58.874 16.8769 59.4611 17.3125C60.052 17.7481 60.4175 18.3371 60.5577 19.0795ZM65.9848 25.6705C65.1098 25.6705 64.3541 25.4886 63.7178 25.125C63.0852 24.7576 62.5985 24.2386 62.2576 23.5682C61.9166 22.8939 61.7462 22.1004 61.7462 21.1875C61.7462 20.2898 61.9166 19.5019 62.2576 18.8239C62.6023 18.142 63.0833 17.6117 63.7007 17.233C64.3182 16.8504 65.0435 16.6591 65.8769 16.6591C66.4148 16.6591 66.9223 16.7462 67.3996 16.9205C67.8807 17.0909 68.3049 17.3561 68.6723 17.7159C69.0435 18.0758 69.3352 18.5341 69.5473 19.0909C69.7595 19.6439 69.8655 20.303 69.8655 21.0682V21.6989H62.7121V20.3125H67.8939C67.8901 19.9186 67.8049 19.5682 67.6382 19.2614C67.4716 18.9508 67.2386 18.7064 66.9394 18.5284C66.6439 18.3504 66.2992 18.2614 65.9053 18.2614C65.4848 18.2614 65.1155 18.3636 64.7973 18.5682C64.4791 18.7689 64.231 19.0341 64.053 19.3636C63.8788 19.6894 63.7898 20.0473 63.786 20.4375V21.6477C63.786 22.1553 63.8788 22.5909 64.0644 22.9545C64.25 23.3144 64.5095 23.5909 64.8428 23.7841C65.1761 23.9735 65.5663 24.0682 66.0132 24.0682C66.3125 24.0682 66.5833 24.0265 66.8257 23.9432C67.0682 23.8561 67.2784 23.7292 67.4564 23.5625C67.6345 23.3958 67.7689 23.1894 67.8598 22.9432L69.7803 23.1591C69.6591 23.6667 69.428 24.1098 69.0871 24.4886C68.75 24.8636 68.3182 25.1553 67.7916 25.3636C67.2651 25.5682 66.6629 25.6705 65.9848 25.6705ZM78.1833 19.0795L76.3083 19.2841C76.2553 19.0947 76.1625 18.9167 76.0299 18.75C75.9011 18.5833 75.7269 18.4489 75.5072 18.3466C75.2875 18.2443 75.0185 18.1932 74.7003 18.1932C74.2723 18.1932 73.9125 18.286 73.6208 18.4716C73.3329 18.6572 73.1909 18.8977 73.1947 19.1932C73.1909 19.447 73.2837 19.6534 73.4731 19.8125C73.6662 19.9716 73.9844 20.1023 74.4276 20.2045L75.9162 20.5227C76.742 20.7008 77.3556 20.983 77.7572 21.3693C78.1625 21.7557 78.367 22.2614 78.3708 22.8864C78.367 23.4356 78.206 23.9205 77.8878 24.3409C77.5734 24.7576 77.1359 25.0833 76.5753 25.3182C76.0147 25.553 75.3708 25.6705 74.6435 25.6705C73.5753 25.6705 72.7155 25.447 72.064 25C71.4125 24.5492 71.0242 23.9223 70.8992 23.1193L72.9049 22.9261C72.9958 23.3201 73.189 23.6174 73.4844 23.8182C73.7799 24.0189 74.1644 24.1193 74.6378 24.1193C75.1265 24.1193 75.5185 24.0189 75.814 23.8182C76.1132 23.6174 76.2628 23.3693 76.2628 23.0739C76.2628 22.8239 76.1662 22.6174 75.9731 22.4545C75.7837 22.2917 75.4882 22.1667 75.0867 22.0795L73.5981 21.767C72.7609 21.5928 72.1416 21.2992 71.7401 20.8864C71.3386 20.4697 71.1397 19.9432 71.1435 19.3068C71.1397 18.7689 71.2856 18.303 71.581 17.9091C71.8803 17.5114 72.295 17.2045 72.8253 16.9886C73.3594 16.7689 73.975 16.6591 74.6719 16.6591C75.6947 16.6591 76.4996 16.8769 77.0867 17.3125C77.6776 17.7481 78.0431 18.3371 78.1833 19.0795ZM86.6445 19.0795L84.7695 19.2841C84.7165 19.0947 84.6237 18.9167 84.4911 18.75C84.3624 18.5833 84.1881 18.4489 83.9684 18.3466C83.7487 18.2443 83.4798 18.1932 83.1616 18.1932C82.7336 18.1932 82.3737 18.286 82.082 18.4716C81.7942 18.6572 81.6521 18.8977 81.6559 19.1932C81.6521 19.447 81.7449 19.6534 81.9343 19.8125C82.1275 19.9716 82.4457 20.1023 82.8889 20.2045L84.3775 20.5227C85.2033 20.7008 85.8169 20.983 86.2184 21.3693C86.6237 21.7557 86.8283 22.2614 86.832 22.8864C86.8283 23.4356 86.6673 23.9205 86.3491 24.3409C86.0347 24.7576 85.5972 25.0833 85.0366 25.3182C84.476 25.553 83.832 25.6705 83.1048 25.6705C82.0366 25.6705 81.1767 25.447 80.5252 25C79.8737 24.5492 79.4855 23.9223 79.3605 23.1193L81.3661 22.9261C81.457 23.3201 81.6502 23.6174 81.9457 23.8182C82.2411 24.0189 82.6256 24.1193 83.0991 24.1193C83.5877 24.1193 83.9798 24.0189 84.2752 23.8182C84.5745 23.6174 84.7241 23.3693 84.7241 23.0739C84.7241 22.8239 84.6275 22.6174 84.4343 22.4545C84.2449 22.2917 83.9495 22.1667 83.548 22.0795L82.0593 21.767C81.2222 21.5928 80.6029 21.2992 80.2014 20.8864C79.7999 20.4697 79.601 19.9432 79.6048 19.3068C79.601 18.7689 79.7468 18.303 80.0423 17.9091C80.3415 17.5114 80.7563 17.2045 81.2866 16.9886C81.8207 16.7689 82.4362 16.6591 83.1332 16.6591C84.1559 16.6591 84.9608 16.8769 85.548 17.3125C86.1389 17.7481 86.5044 18.3371 86.6445 19.0795ZM88.2081 25.5V16.7727H90.2649V25.5H88.2081ZM89.2422 15.5341C88.9164 15.5341 88.6361 15.4261 88.4013 15.2102C88.1664 14.9905 88.049 14.7273 88.049 14.4205C88.049 14.1098 88.1664 13.8466 88.4013 13.6307C88.6361 13.411 88.9164 13.3011 89.2422 13.3011C89.5717 13.3011 89.852 13.411 90.0831 13.6307C90.3179 13.8466 90.4353 14.1098 90.4353 14.4205C90.4353 14.7273 90.3179 14.9905 90.0831 15.2102C89.852 15.4261 89.5717 15.5341 89.2422 15.5341ZM95.8668 25.6705C95.0145 25.6705 94.2759 25.483 93.6509 25.108C93.0259 24.733 92.541 24.2083 92.1963 23.5341C91.8554 22.8598 91.6849 22.072 91.6849 21.1705C91.6849 20.2689 91.8554 19.4792 92.1963 18.8011C92.541 18.1231 93.0259 17.5966 93.6509 17.2216C94.2759 16.8466 95.0145 16.6591 95.8668 16.6591C96.719 16.6591 97.4577 16.8466 98.0827 17.2216C98.7077 17.5966 99.1906 18.1231 99.5315 18.8011C99.8762 19.4792 100.049 20.2689 100.049 21.1705C100.049 22.072 99.8762 22.8598 99.5315 23.5341C99.1906 24.2083 98.7077 24.733 98.0827 25.108C97.4577 25.483 96.719 25.6705 95.8668 25.6705ZM95.8781 24.0227C96.3402 24.0227 96.7266 23.8958 97.0372 23.642C97.3478 23.3845 97.5789 23.0398 97.7304 22.608C97.8857 22.1761 97.9634 21.6951 97.9634 21.1648C97.9634 20.6307 97.8857 20.1477 97.7304 19.7159C97.5789 19.2803 97.3478 18.9337 97.0372 18.6761C96.7266 18.4186 96.3402 18.2898 95.8781 18.2898C95.4046 18.2898 95.0107 18.4186 94.6963 18.6761C94.3857 18.9337 94.1527 19.2803 93.9974 19.7159C93.8459 20.1477 93.7702 20.6307 93.7702 21.1648C93.7702 21.6951 93.8459 22.1761 93.9974 22.608C94.1527 23.0398 94.3857 23.3845 94.6963 23.642C95.0107 23.8958 95.4046 24.0227 95.8781 24.0227ZM103.531 20.3864V25.5H101.474V16.7727H103.44V18.2557H103.543C103.743 17.767 104.063 17.3788 104.503 17.0909C104.946 16.803 105.493 16.6591 106.145 16.6591C106.747 16.6591 107.272 16.7879 107.719 17.0455C108.169 17.303 108.518 17.6761 108.764 18.1648C109.014 18.6534 109.137 19.2462 109.133 19.9432V25.5H107.077V20.2614C107.077 19.678 106.925 19.2216 106.622 18.892C106.323 18.5625 105.908 18.3977 105.378 18.3977C105.018 18.3977 104.698 18.4773 104.418 18.6364C104.141 18.7917 103.923 19.017 103.764 19.3125C103.609 19.608 103.531 19.9659 103.531 20.3864ZM117.802 19.0795L115.927 19.2841C115.874 19.0947 115.781 18.9167 115.649 18.75C115.52 18.5833 115.346 18.4489 115.126 18.3466C114.906 18.2443 114.637 18.1932 114.319 18.1932C113.891 18.1932 113.531 18.286 113.24 18.4716C112.952 18.6572 112.81 18.8977 112.813 19.1932C112.81 19.447 112.902 19.6534 113.092 19.8125C113.285 19.9716 113.603 20.1023 114.046 20.2045L115.535 20.5227C116.361 20.7008 116.974 20.983 117.376 21.3693C117.781 21.7557 117.986 22.2614 117.99 22.8864C117.986 23.4356 117.825 23.9205 117.507 24.3409C117.192 24.7576 116.755 25.0833 116.194 25.3182C115.633 25.553 114.99 25.6705 114.262 25.6705C113.194 25.6705 112.334 25.447 111.683 25C111.031 24.5492 110.643 23.9223 110.518 23.1193L112.524 22.9261C112.615 23.3201 112.808 23.6174 113.103 23.8182C113.399 24.0189 113.783 24.1193 114.257 24.1193C114.745 24.1193 115.137 24.0189 115.433 23.8182C115.732 23.6174 115.882 23.3693 115.882 23.0739C115.882 22.8239 115.785 22.6174 115.592 22.4545C115.402 22.2917 115.107 22.1667 114.705 22.0795L113.217 21.767C112.38 21.5928 111.76 21.2992 111.359 20.8864C110.957 20.4697 110.758 19.9432 110.762 19.3068C110.758 18.7689 110.904 18.303 111.2 17.9091C111.499 17.5114 111.914 17.2045 112.444 16.9886C112.978 16.7689 113.594 16.6591 114.291 16.6591C115.313 16.6591 116.118 16.8769 116.705 17.3125C117.296 17.7481 117.662 18.3371 117.802 19.0795Z" fill="black"/>
<g clip-path="url(#clip0_128_1074)">
<path d="M148.603 22.0757L148.195 11.875H135.229C134.895 11.875 134.625 12.1452 134.625 12.4786V21.6952L148.603 22.0757Z" fill="#5DE1C4"/>
<path d="M148.396 11.875H148.195V21.4939C148.195 21.6051 148.105 21.6952 147.994 21.6952H134.625V21.8964C134.625 22.2297 134.895 22.5 135.229 22.5H143.234C143.325 22.5 143.414 22.5311 143.485 22.5882L145.846 24.477C146.11 24.6877 146.5 24.5002 146.5 24.1627V22.9024C146.5 22.6802 146.68 22.5 146.902 22.5H148.396C148.73 22.5 149 22.2298 149 21.8964V12.4786C149 12.1453 148.73 11.875 148.396 11.875Z" fill="#0ED2B3"/>
<path d="M142.884 20.216L142.57 10H129.604C129.27 10 129 10.2702 129 10.6036V19.8202L142.884 20.216Z" fill="#60B7FF"/>
<path d="M142.771 10H142.57V19.6189C142.57 19.7301 142.48 19.8202 142.369 19.8202H129V20.0214C129 20.3548 129.27 20.625 129.604 20.625H131.098C131.32 20.625 131.5 20.8052 131.5 21.0274V22.2877C131.5 22.6252 131.89 22.8128 132.154 22.602L134.515 20.7132C134.586 20.6561 134.675 20.625 134.766 20.625H142.771C143.105 20.625 143.375 20.3548 143.375 20.0214V10.6036C143.375 10.2703 143.105 10 142.771 10Z" fill="#26A6FE"/>
<path d="M131.917 16.3541C132.492 16.3541 132.958 15.8877 132.958 15.3124C132.958 14.7371 132.492 14.2708 131.917 14.2708C131.341 14.2708 130.875 14.7371 130.875 15.3124C130.875 15.8877 131.341 16.3541 131.917 16.3541Z" fill="white"/>
<path d="M136.188 16.3541C136.763 16.3541 137.23 15.8877 137.23 15.3124C137.23 14.7371 136.763 14.2708 136.188 14.2708C135.613 14.2708 135.146 14.7371 135.146 15.3124C135.146 15.8877 135.613 16.3541 136.188 16.3541Z" fill="white"/>
<path d="M140.458 16.3541C141.033 16.3541 141.499 15.8877 141.499 15.3124C141.499 14.7371 141.033 14.2708 140.458 14.2708C139.882 14.2708 139.416 14.7371 139.416 15.3124C139.416 15.8877 139.882 16.3541 140.458 16.3541Z" fill="white"/>
<path d="M142.72 25.5982C142.72 24.6089 142.186 23.5194 141.6 22.8155C140.895 22.228 139.988 21.875 139 21.875C136.756 21.875 134.938 23.6938 134.938 25.9375C134.938 26.9235 135.29 27.8317 135.879 28.5382C136.581 29.1235 137.536 29.7774 138.527 29.7774C140.771 29.7773 142.72 27.8418 142.72 25.5982Z" fill="#FFE177"/>
<path d="M141.599 22.8154C142.186 23.5193 142.539 24.425 142.539 25.4143C142.539 27.658 140.72 29.4768 138.477 29.4768C137.485 29.4768 136.581 29.1234 135.879 28.5382C136.622 29.4296 137.74 29.9999 139 29.9999C141.243 29.9999 143.062 28.1811 143.062 25.9374C143.062 24.6813 142.493 23.5601 141.599 22.8154Z" fill="#FFC344"/>
<path d="M141.462 25.4799C141.462 24.8572 141.007 24.1359 140.664 23.6699C140.198 23.3273 139.623 23.125 139 23.125C137.447 23.125 136.188 24.3842 136.188 25.9375C136.188 26.5602 136.39 27.1355 136.732 27.6015C137.198 27.944 137.973 28.3912 138.595 28.3912C140.149 28.3912 141.462 27.0332 141.462 25.4799Z" fill="white"/>
<path d="M140.664 23.6699C141.007 24.1359 141.209 24.7113 141.209 25.3339C141.209 26.8873 139.95 28.1464 138.396 28.1464C137.774 28.1464 137.198 27.9441 136.732 27.6016C137.244 28.298 138.069 28.7501 139 28.7501C140.553 28.7501 141.813 27.4909 141.813 25.9376C141.813 25.007 141.361 24.1819 140.664 23.6699Z" fill="#D8ECFE"/>
<path d="M139.883 27.1232C139.806 27.1232 139.729 27.0937 139.67 27.0348L138.786 26.1509C138.729 26.0943 138.697 26.0176 138.697 25.9375V24.375C138.697 24.2084 138.832 24.0732 138.999 24.0732C139.166 24.0732 139.301 24.2084 139.301 24.375V25.8125L140.096 26.608C140.214 26.7259 140.214 26.917 140.096 27.0348C140.037 27.0937 139.96 27.1232 139.883 27.1232Z" fill="#60B7FF"/>
</g>
<defs>
<clipPath id="clip0_128_1074">
<rect width="20" height="20" fill="white" transform="translate(129 10)"/>
</clipPath>
</defs>
</svg>
