<svg width="456" height="40" viewBox="0 0 456 40" fill="none" xmlns="http://www.w3.org/2000/svg">
<rect width="456" height="40" rx="12" fill="#F2E8CF"/>
<rect x="0.5" y="0.5" width="455" height="39" rx="11.5" stroke="#386641" stroke-opacity="0.2"/>
<path d="M189.28 25.5L192.36 15.42H195.202L198.282 25.5H196.322L193.578 16.61H193.942L191.24 25.5H189.28ZM191.128 23.4V21.622H196.448V23.4H191.128ZM202.603 25.71C201.907 25.71 201.298 25.535 200.776 25.185C200.253 24.835 199.845 24.359 199.551 23.757C199.261 23.155 199.117 22.476 199.117 21.72C199.117 20.95 199.264 20.2663 199.558 19.669C199.856 19.067 200.274 18.5933 200.811 18.248C201.347 17.9027 201.977 17.73 202.701 17.73C203.419 17.73 204.024 17.905 204.514 18.255C205.004 18.605 205.375 19.081 205.627 19.683C205.879 20.285 206.005 20.964 206.005 21.72C206.005 22.476 205.876 23.155 205.62 23.757C205.368 24.359 204.99 24.835 204.486 25.185C203.982 25.535 203.354 25.71 202.603 25.71ZM202.911 24.016C203.335 24.016 203.674 23.9203 203.926 23.729C204.182 23.5377 204.367 23.2693 204.479 22.924C204.591 22.5787 204.647 22.1773 204.647 21.72C204.647 21.2627 204.591 20.8613 204.479 20.516C204.367 20.1707 204.187 19.9023 203.94 19.711C203.697 19.5197 203.377 19.424 202.981 19.424C202.556 19.424 202.206 19.529 201.931 19.739C201.66 19.9443 201.459 20.222 201.329 20.572C201.198 20.9173 201.133 21.3 201.133 21.72C201.133 22.1447 201.196 22.532 201.322 22.882C201.448 23.2273 201.641 23.5027 201.903 23.708C202.164 23.9133 202.5 24.016 202.911 24.016ZM204.647 25.5V20.32H204.409V15.42H206.327V25.5H204.647ZM211.353 25.71C210.657 25.71 210.048 25.535 209.526 25.185C209.003 24.835 208.595 24.359 208.301 23.757C208.011 23.155 207.867 22.476 207.867 21.72C207.867 20.95 208.014 20.2663 208.308 19.669C208.606 19.067 209.024 18.5933 209.561 18.248C210.097 17.9027 210.727 17.73 211.451 17.73C212.169 17.73 212.774 17.905 213.264 18.255C213.754 18.605 214.125 19.081 214.377 19.683C214.629 20.285 214.755 20.964 214.755 21.72C214.755 22.476 214.626 23.155 214.37 23.757C214.118 24.359 213.74 24.835 213.236 25.185C212.732 25.535 212.104 25.71 211.353 25.71ZM211.661 24.016C212.085 24.016 212.424 23.9203 212.676 23.729C212.932 23.5377 213.117 23.2693 213.229 22.924C213.341 22.5787 213.397 22.1773 213.397 21.72C213.397 21.2627 213.341 20.8613 213.229 20.516C213.117 20.1707 212.937 19.9023 212.69 19.711C212.447 19.5197 212.127 19.424 211.731 19.424C211.306 19.424 210.956 19.529 210.681 19.739C210.41 19.9443 210.209 20.222 210.079 20.572C209.948 20.9173 209.883 21.3 209.883 21.72C209.883 22.1447 209.946 22.532 210.072 22.882C210.198 23.2273 210.391 23.5027 210.653 23.708C210.914 23.9133 211.25 24.016 211.661 24.016ZM213.397 25.5V20.32H213.159V15.42H215.077V25.5H213.397ZM224.375 25.5C223.853 25.598 223.339 25.64 222.835 25.626C222.336 25.6167 221.888 25.5303 221.491 25.367C221.099 25.199 220.801 24.9307 220.595 24.562C220.409 24.2167 220.311 23.8667 220.301 23.512C220.292 23.1527 220.287 22.7467 220.287 22.294V15.84H222.191V22.182C222.191 22.476 222.194 22.742 222.198 22.98C222.208 23.2133 222.257 23.4 222.345 23.54C222.513 23.806 222.782 23.9507 223.15 23.974C223.519 23.9973 223.927 23.9787 224.375 23.918V25.5ZM218.999 19.41V17.94H224.375V19.41H218.999ZM229.052 25.71C228.291 25.71 227.624 25.5397 227.05 25.199C226.476 24.8583 226.028 24.3893 225.706 23.792C225.389 23.19 225.23 22.4993 225.23 21.72C225.23 20.9313 225.393 20.2383 225.72 19.641C226.047 19.039 226.497 18.57 227.071 18.234C227.645 17.898 228.305 17.73 229.052 17.73C229.813 17.73 230.48 17.9003 231.054 18.241C231.633 18.5817 232.083 19.053 232.405 19.655C232.727 20.2523 232.888 20.9407 232.888 21.72C232.888 22.504 232.725 23.197 232.398 23.799C232.076 24.3963 231.626 24.8653 231.047 25.206C230.473 25.542 229.808 25.71 229.052 25.71ZM229.052 23.932C229.663 23.932 230.118 23.7267 230.417 23.316C230.72 22.9007 230.872 22.3687 230.872 21.72C230.872 21.048 230.718 20.5113 230.41 20.11C230.107 19.7087 229.654 19.508 229.052 19.508C228.637 19.508 228.296 19.6013 228.03 19.788C227.764 19.9747 227.566 20.2337 227.435 20.565C227.309 20.8963 227.246 21.2813 227.246 21.72C227.246 22.3967 227.398 22.9357 227.701 23.337C228.009 23.7337 228.459 23.932 229.052 23.932ZM241.556 25.71C240.548 25.71 239.678 25.4907 238.945 25.052C238.217 24.6133 237.655 23.9997 237.258 23.211C236.866 22.4223 236.67 21.5053 236.67 20.46C236.67 19.4147 236.866 18.4977 237.258 17.709C237.655 16.9203 238.217 16.3067 238.945 15.868C239.678 15.4293 240.548 15.21 241.556 15.21C242.713 15.21 243.684 15.497 244.468 16.071C245.257 16.645 245.812 17.422 246.134 18.402L244.216 18.934C244.029 18.3227 243.714 17.849 243.271 17.513C242.828 17.1723 242.256 17.002 241.556 17.002C240.917 17.002 240.382 17.1443 239.953 17.429C239.528 17.7137 239.209 18.115 238.994 18.633C238.779 19.151 238.672 19.76 238.672 20.46C238.672 21.16 238.779 21.769 238.994 22.287C239.209 22.805 239.528 23.2063 239.953 23.491C240.382 23.7757 240.917 23.918 241.556 23.918C242.256 23.918 242.828 23.7477 243.271 23.407C243.714 23.0663 244.029 22.5927 244.216 21.986L246.134 22.518C245.812 23.498 245.257 24.275 244.468 24.849C243.684 25.423 242.713 25.71 241.556 25.71ZM249.775 25.71C249.234 25.71 248.774 25.6073 248.396 25.402C248.023 25.192 247.738 24.9143 247.542 24.569C247.351 24.219 247.255 23.834 247.255 23.414C247.255 23.064 247.309 22.7443 247.416 22.455C247.524 22.1657 247.696 21.9113 247.934 21.692C248.177 21.468 248.501 21.2813 248.907 21.132C249.187 21.0293 249.521 20.9383 249.908 20.859C250.296 20.7797 250.734 20.705 251.224 20.635C251.714 20.5603 252.253 20.4787 252.841 20.39L252.155 20.768C252.155 20.32 252.048 19.991 251.833 19.781C251.619 19.571 251.259 19.466 250.755 19.466C250.475 19.466 250.184 19.5337 249.88 19.669C249.577 19.8043 249.365 20.0447 249.243 20.39L247.521 19.844C247.713 19.2187 248.072 18.71 248.599 18.318C249.127 17.926 249.845 17.73 250.755 17.73C251.423 17.73 252.015 17.8327 252.533 18.038C253.051 18.2433 253.443 18.598 253.709 19.102C253.859 19.382 253.947 19.662 253.975 19.942C254.003 20.222 254.017 20.5347 254.017 20.88V25.5H252.351V23.946L252.589 24.268C252.221 24.7767 251.822 25.1453 251.392 25.374C250.968 25.598 250.429 25.71 249.775 25.71ZM250.181 24.212C250.531 24.212 250.825 24.1513 251.063 24.03C251.306 23.904 251.497 23.7617 251.637 23.603C251.782 23.4443 251.88 23.3113 251.931 23.204C252.029 22.9987 252.085 22.7607 252.099 22.49C252.118 22.2147 252.127 21.986 252.127 21.804L252.687 21.944C252.123 22.0373 251.665 22.1167 251.315 22.182C250.965 22.2427 250.683 22.2987 250.468 22.35C250.254 22.4013 250.065 22.4573 249.901 22.518C249.715 22.5927 249.563 22.6743 249.446 22.763C249.334 22.847 249.25 22.9403 249.194 23.043C249.143 23.1457 249.117 23.26 249.117 23.386C249.117 23.5587 249.159 23.708 249.243 23.834C249.332 23.9553 249.456 24.0487 249.614 24.114C249.773 24.1793 249.962 24.212 250.181 24.212ZM255.837 25.5V17.94H257.517V19.788L257.335 19.55C257.433 19.2887 257.564 19.0507 257.727 18.836C257.891 18.6213 258.091 18.444 258.329 18.304C258.511 18.192 258.71 18.1057 258.924 18.045C259.139 17.9797 259.361 17.94 259.589 17.926C259.818 17.9073 260.047 17.912 260.275 17.94V19.718C260.065 19.6527 259.82 19.6317 259.54 19.655C259.265 19.6737 259.015 19.7367 258.791 19.844C258.567 19.9467 258.378 20.0843 258.224 20.257C258.07 20.425 257.954 20.6257 257.874 20.859C257.795 21.0877 257.755 21.3467 257.755 21.636V25.5H255.837ZM266.143 25.5C265.62 25.598 265.107 25.64 264.603 25.626C264.104 25.6167 263.656 25.5303 263.259 25.367C262.867 25.199 262.568 24.9307 262.363 24.562C262.176 24.2167 262.078 23.8667 262.069 23.512C262.06 23.1527 262.055 22.7467 262.055 22.294V15.84H263.959V22.182C263.959 22.476 263.961 22.742 263.966 22.98C263.975 23.2133 264.024 23.4 264.113 23.54C264.281 23.806 264.549 23.9507 264.918 23.974C265.287 23.9973 265.695 23.9787 266.143 23.918V25.5ZM260.767 19.41V17.94H266.143V19.41H260.767Z" fill="#386641"/>
</svg>
