<svg width="57" height="29" viewBox="0 0 57 29" fill="none" xmlns="http://www.w3.org/2000/svg">
<rect width="56.9543" height="29" rx="8" fill="#008300" fill-opacity="0.1"/>
<path d="M8.38423 8.5H19.9543V20.5H8V8.5H8.38423ZM13.9765 11.1086C15.8493 11.1086 17.3679 12.6272 17.3679 14.5C17.3679 16.3728 15.8493 17.8901 13.9765 17.8901C12.1037 17.8901 10.5851 16.3715 10.5851 14.5C10.5864 12.6272 12.1037 11.1086 13.9765 11.1086ZM19.1858 9.26846H8.76846V19.7315H19.1858V9.26846Z" fill="#008300"/>
<path d="M25.6049 9.81818L28.6276 18.3892H28.7469L31.7696 9.81818H33.0622L29.3236 20H28.0509L24.3122 9.81818H25.6049ZM36.6599 20.1591C35.9241 20.1591 35.2894 19.9967 34.7557 19.6719C34.2254 19.3438 33.8161 18.8864 33.5278 18.2997C33.2427 17.7098 33.1002 17.0237 33.1002 16.2415C33.1002 15.4593 33.2427 14.7699 33.5278 14.1733C33.8161 13.5734 34.2171 13.1061 34.7309 12.7713C35.2479 12.4332 35.8511 12.2642 36.5405 12.2642C36.9383 12.2642 37.331 12.3305 37.7188 12.4631C38.1066 12.5956 38.4596 12.8111 38.7778 13.1094C39.0959 13.4044 39.3495 13.7955 39.5384 14.2827C39.7273 14.7699 39.8218 15.3698 39.8218 16.0824V16.5795H33.9354V15.5653H38.6286C38.6286 15.1345 38.5424 14.75 38.3701 14.4119C38.201 14.0739 37.9591 13.8071 37.6442 13.6115C37.3327 13.416 36.9648 13.3182 36.5405 13.3182C36.0732 13.3182 35.6688 13.4342 35.3275 13.6662C34.9894 13.8949 34.7292 14.1932 34.5469 14.5611C34.3646 14.929 34.2735 15.3234 34.2735 15.7443V16.4205C34.2735 16.9972 34.3729 17.486 34.5718 17.8871C34.774 18.2848 35.054 18.5881 35.412 18.7969C35.7699 19.0024 36.1859 19.1051 36.6599 19.1051C36.9681 19.1051 37.2465 19.062 37.4951 18.9759C37.747 18.8864 37.9641 18.7538 38.1464 18.5781C38.3287 18.3991 38.4695 18.1771 38.5689 17.9119L39.7025 18.2301C39.5831 18.6146 39.3826 18.9527 39.1009 19.2443C38.8192 19.5327 38.4712 19.758 38.0569 19.9205C37.6426 20.0795 37.1769 20.1591 36.6599 20.1591ZM44.369 23.0227C43.8022 23.0227 43.315 22.9498 42.9073 22.804C42.4997 22.6615 42.1599 22.4725 41.8881 22.2372C41.6197 22.0052 41.4059 21.7566 41.2468 21.4915L42.1815 20.8352C42.2875 20.9744 42.4218 21.1335 42.5842 21.3125C42.7466 21.4948 42.9686 21.6522 43.2504 21.7848C43.5354 21.9207 43.9083 21.9886 44.369 21.9886C44.9855 21.9886 45.4942 21.8395 45.8953 21.5412C46.2963 21.2429 46.4968 20.7756 46.4968 20.1392V18.5881H46.3974C46.3112 18.7273 46.1886 18.8996 46.0295 19.1051C45.8737 19.3073 45.6483 19.4879 45.3533 19.647C45.0617 19.8028 44.6673 19.8807 44.1701 19.8807C43.5536 19.8807 43.0001 19.7348 42.5096 19.4432C42.0224 19.1515 41.6363 18.7273 41.3512 18.1705C41.0695 17.6136 40.9286 16.9375 40.9286 16.142C40.9286 15.3598 41.0662 14.6787 41.3413 14.0987C41.6164 13.5154 41.9992 13.0646 42.4897 12.7464C42.9802 12.425 43.547 12.2642 44.19 12.2642C44.6872 12.2642 45.0816 12.3471 45.3732 12.5128C45.6682 12.6752 45.8936 12.8608 46.0494 13.0696C46.2085 13.2751 46.3311 13.4441 46.4173 13.5767H46.5366V12.3636H47.6701V20.2188C47.6701 20.875 47.521 21.4086 47.2227 21.8196C46.9277 22.2339 46.53 22.5372 46.0295 22.7294C45.5323 22.925 44.9788 23.0227 44.369 23.0227ZM44.3292 18.8267C44.7998 18.8267 45.1976 18.719 45.5224 18.5036C45.8472 18.2881 46.0941 17.9782 46.2631 17.5739C46.4322 17.1695 46.5167 16.6856 46.5167 16.1222C46.5167 15.572 46.4338 15.0864 46.2681 14.6655C46.1024 14.2446 45.8571 13.9148 45.5323 13.6761C45.2075 13.4375 44.8065 13.3182 44.3292 13.3182C43.832 13.3182 43.4177 13.4441 43.0863 13.696C42.7582 13.9479 42.5113 14.286 42.3455 14.7102C42.1831 15.1345 42.1019 15.6051 42.1019 16.1222C42.1019 16.6525 42.1848 17.1214 42.3505 17.5291C42.5195 17.9335 42.7681 18.2517 43.0962 18.4837C43.4277 18.7124 43.8387 18.8267 44.3292 18.8267Z" fill="#008300"/>
</svg>
