<svg width="80" height="80" viewBox="0 0 80 80" fill="none" xmlns="http://www.w3.org/2000/svg">
<g clip-path="url(#clip0_104_2608)">
<path d="M45.8617 19.0942C44.1057 19.5837 42.3192 18.7671 41.4934 17.2632C39.6422 13.8537 34.5519 13.0469 31.748 15.7922C30.3784 17.1008 28.3898 17.1209 27.0513 16.1981C23.9141 14.093 19.1583 15.4046 17.7075 19.154C17.0666 20.8172 15.3546 21.7382 13.6157 21.4135C11.8487 21.0577 9.71557 21.9885 8.67676 23.1701L30.1397 44.6337C31.5142 44.7472 32.9125 44.8345 34.3285 44.8955L53.6473 25.2539C53.8469 21.3409 49.7081 18.0035 45.8617 19.0942Z" fill="#00B04B"/>
<path d="M42.4071 24.6258C46.5111 28.7298 52.9924 29.0063 57.4168 25.4553C57.9368 25.0378 57.9728 24.2566 57.501 23.7848L43.2481 9.53187C42.7763 9.06007 41.9951 9.09608 41.5776 9.6161C38.0272 14.0405 38.3037 20.5224 42.4071 24.6258Z" fill="#FF5368"/>
<path d="M43.261 23.7727C39.3383 19.85 39.3383 13.4676 43.261 9.54485C42.2753 8.55975 40.6335 8.7398 39.8797 9.91228C36.7748 14.7401 37.3327 21.2587 41.5539 25.4799C45.7744 29.701 52.293 30.2589 57.1215 27.1534C58.2933 26.3997 58.4734 24.7578 57.4883 23.7721C53.5662 27.6948 47.1831 27.6948 43.261 23.7727Z" fill="#C5324F"/>
<path d="M48.098 18.9349C49.3553 20.1922 51.3939 20.1922 52.6512 18.9349L48.098 14.3823C46.8407 15.6396 46.8407 17.6776 48.098 18.9349Z" fill="#FF7C8B"/>
<path d="M42.785 15.7538C42.7081 16.4069 42.7148 17.0685 42.8051 17.7197C42.8973 18.3801 43.507 18.8409 44.1674 18.7488C44.4378 18.7109 44.6746 18.587 44.8541 18.4076C45.1122 18.1488 45.2508 17.7765 45.1965 17.3865C45.1342 16.9397 45.1293 16.4856 45.183 16.037C45.2612 15.3754 44.7875 14.7748 44.1259 14.6967C43.4637 14.6185 42.8631 15.0916 42.785 15.7538Z" fill="#FFCF5D"/>
<path d="M47.1807 20.8022C47.0043 20.6661 46.8346 20.5165 46.6753 20.3578C46.5154 20.1979 46.3647 20.0264 46.2273 19.8482C45.8208 19.3202 45.0628 19.222 44.5342 19.6291C44.0063 20.0356 43.908 20.7942 44.3151 21.3222C44.5153 21.5822 44.735 21.8324 44.9682 22.065C45.1995 22.2963 45.4473 22.5148 45.7049 22.7138C46.1907 23.0891 46.8725 23.036 47.2954 22.6125C47.3315 22.5765 47.3662 22.5374 47.398 22.4959C47.8057 21.9679 47.708 21.2099 47.1807 20.8022Z" fill="#FFCF5D"/>
<path d="M29.5044 41.6692C28.4881 40.9692 28.0987 39.6654 28.6023 38.5253C29.7339 35.9509 28.0377 32.9479 25.4565 32.4371C24.3426 32.2314 23.3734 31.2371 23.3435 29.9115C23.3142 27.1649 20.4108 25.0451 17.8198 25.816C16.673 26.1517 15.39 25.6714 14.7669 24.5599C13.4101 22.1161 9.72842 21.7193 7.8992 23.7549C7.03006 24.7473 5.68546 24.8584 4.39824 24.5752C1.78533 23.9813 -0.84833 26.3433 0.260065 28.8671C0.579278 29.6118 1.17498 30.2117 1.8366 30.5883C3.00603 31.2579 3.97587 32.2051 3.81657 33.5565C3.64995 35.003 4.13334 36.4977 5.16545 37.5781C6.07548 38.4991 6.81522 38.7249 7.39139 38.9635C7.62271 39.0594 7.8284 39.1582 8.00723 39.3041C9.34817 40.017 11.1261 40.7861 13.4662 41.5404C18.4937 43.1615 24.6728 44.2522 31.358 44.7265C31.1725 43.4722 30.4834 42.3235 29.5044 41.6692Z" fill="#4FE267"/>
<path d="M29.6666 22.0349C23.4435 22.0349 18.3989 27.0795 18.3989 33.3026C18.3989 35.5066 19.0337 37.561 20.128 39.2974C25.4222 40.3942 31.4677 41.0235 37.7769 41.1199C39.7306 39.0936 40.9343 36.3391 40.9343 33.3026C40.9336 27.0795 35.8891 22.0349 29.6666 22.0349Z" fill="#FF5368"/>
<path d="M30.874 39.7412V26.864C30.874 26.1969 30.3332 25.6567 29.6667 25.6567C28.9996 25.6567 28.4595 26.1969 28.4595 26.864V39.7412C28.4595 40.0824 28.6017 40.39 28.8293 40.6097C29.3262 40.6597 29.8267 40.7061 30.3302 40.7489C30.6573 40.5334 30.874 40.1623 30.874 39.7412Z" fill="#FF7C8B"/>
<path d="M32.8856 33.3026C32.8856 35.0806 31.4446 36.5216 29.6666 36.5216C27.8887 36.5216 26.447 35.0806 26.447 33.3026C26.447 31.5247 27.8887 30.083 29.6666 30.083C31.4446 30.083 32.8856 31.5247 32.8856 33.3026Z" fill="#FF7C8B"/>
<path d="M29.6666 20.8276C22.7879 20.8276 17.1917 26.4239 17.1917 33.3026C17.1917 35.335 17.6836 37.254 18.5497 38.9514C19.6184 39.1992 20.7219 39.4268 21.8559 39.6337C20.4503 37.9034 19.6062 35.7 19.6062 33.3026C19.6062 27.7551 24.1191 23.2422 29.6666 23.2422C35.2134 23.2422 39.727 27.7551 39.727 33.3026C39.727 36.4324 38.2896 39.2327 36.0405 41.0796C37.1415 41.1138 38.2512 41.1315 39.3681 41.1327C41.1009 38.9904 42.1415 36.2658 42.1415 33.3026C42.1409 26.4239 36.5446 20.8276 29.6666 20.8276Z" fill="#C5324F"/>
<path d="M24.9395 27.2962C24.4232 27.7033 23.9605 28.1757 23.5638 28.7006C23.1616 29.2323 23.2672 29.9897 23.7994 30.3913C24.0173 30.5561 24.2724 30.6355 24.5263 30.6355C24.8913 30.6355 25.2527 30.47 25.4901 30.1563C25.7623 29.7962 26.0803 29.4715 26.4349 29.1926C26.958 28.7794 27.0483 28.0201 26.6351 27.497C26.2219 26.9734 25.4632 26.8836 24.9395 27.2962Z" fill="#FFCF5D"/>
<path d="M26.4298 37.4092C26.0752 37.1296 25.7584 36.8049 25.4862 36.4442C25.0852 35.912 24.3284 35.8058 23.7955 36.2074C23.2633 36.6084 23.1571 37.3652 23.5587 37.8981C23.9542 38.423 24.4169 38.8966 24.9326 39.3037C25.1542 39.4789 25.4185 39.5637 25.6803 39.5637C26.0373 39.5637 26.3901 39.4062 26.6288 39.1047C27.042 38.5817 26.9529 37.8224 26.4298 37.4092Z" fill="#FFCF5D"/>
<path d="M24.478 33.974C24.4493 33.753 24.4353 33.5272 24.4353 33.3026C24.4353 33.0761 24.4499 32.8485 24.4786 32.6257C24.5641 31.9641 24.0978 31.3586 23.4362 31.2732C22.7758 31.1871 22.1697 31.654 22.0842 32.3156C22.0421 32.641 22.0208 32.973 22.0208 33.3026C22.0208 33.6297 22.0415 33.9593 22.083 34.2816C22.1611 34.8907 22.6805 35.335 23.2787 35.335C23.33 35.335 23.3818 35.332 23.4343 35.3253C24.0953 35.2404 24.5629 34.635 24.478 33.974Z" fill="#FFCF5D"/>
<path d="M32.9027 29.1957C33.2573 29.4758 33.5741 29.7999 33.8463 30.1606C34.0831 30.4756 34.4451 30.641 34.8113 30.641C35.064 30.641 35.3191 30.5616 35.537 30.3981C36.0692 29.9965 36.1754 29.2396 35.7738 28.7068C35.3783 28.1819 34.9157 27.7089 34.3993 27.3012C33.8762 26.8879 33.117 26.9771 32.7037 27.5001C32.2905 28.0232 32.3796 28.7825 32.9027 29.1957Z" fill="#FFCF5D"/>
<path d="M35.5333 36.2135C35.0017 35.8113 34.2448 35.9168 33.8426 36.4491C33.5704 36.8092 33.253 37.1333 32.8984 37.4128C32.3747 37.8254 32.285 38.5847 32.6976 39.1084C32.9356 39.4105 33.2896 39.568 33.6467 39.568C33.9085 39.568 34.1716 39.4831 34.3931 39.3086C34.9095 38.9015 35.3728 38.429 35.7689 37.9041C36.1711 37.3725 36.0655 36.6157 35.5333 36.2135Z" fill="#FFCF5D"/>
<path d="M37.2495 32.3231C37.1646 31.6621 36.5592 31.1951 35.8982 31.28C35.2371 31.3648 34.7696 31.9697 34.8545 32.6307C34.8831 32.8522 34.8972 33.0781 34.8972 33.3021C34.8972 33.5285 34.8825 33.7562 34.8538 33.9795C34.7684 34.6406 35.2347 35.246 35.8963 35.3315C35.9488 35.3382 36.0007 35.3418 36.0526 35.3418C36.6501 35.3418 37.1695 34.8981 37.2482 34.2896C37.291 33.9643 37.3123 33.6323 37.3123 33.3021C37.3123 32.9755 37.291 32.6459 37.2495 32.3231Z" fill="#FFCF5D"/>
<path d="M73.6846 19.0478C71.8364 19.4525 69.9059 19.2938 68.6571 17.8759C66.0314 14.9688 60.7452 15.5352 58.7963 19.0264C57.9015 20.614 56.0601 21.3 54.4128 20.8209C50.6927 19.7192 46.5234 22.7477 46.4819 26.6717C46.4386 28.5656 45.047 29.9859 43.4479 30.2794C39.7412 31.0088 37.3053 35.2996 38.9307 38.9763C39.6539 40.606 39.0942 42.4675 37.6349 43.4679C37.0599 43.85 36.5558 44.3511 36.1414 44.9315C37.3895 44.9736 38.6499 44.9962 39.9194 44.9962C49.5074 44.9962 58.5937 43.7688 65.5053 41.5398C66.4306 41.2419 68.1011 40.5999 68.8591 40.3014C69.7197 38.9012 70.3881 39.8339 72.5829 37.6232C74.0648 36.0802 74.7594 33.9446 74.5201 31.8786C74.2913 29.948 75.6835 28.5949 77.3632 27.6379C78.3129 27.1001 79.1686 26.2432 79.6263 25.1794C81.2181 21.574 77.437 18.1994 73.6846 19.0478Z" fill="#4FE267"/>
<path d="M65.2055 39.0138C64.8265 34.6223 61.1333 31.1641 56.6454 31.1641C51.906 31.1641 48.051 35.019 48.051 39.7584C48.051 40.9016 48.2769 41.9923 48.684 42.9908C53.5491 42.4091 58.0327 41.4845 61.8516 40.2528C63.1309 39.8402 64.2412 39.4233 65.2055 39.0138Z" fill="#C5324F"/>
<path d="M60.4106 34.9293C60.4106 34.9183 60.4106 34.9067 60.4106 34.8957C60.4027 32.8486 58.726 31.172 56.6789 31.1641C56.6679 31.1641 56.6563 31.1641 56.6454 31.1641C51.9066 31.1641 48.051 35.019 48.051 39.7584V39.792C48.0559 41.0627 48.7047 42.1906 49.6855 42.8657C52.3869 42.5123 54.9614 42.0515 57.3601 41.49C59.2241 39.9122 60.4106 37.5575 60.4106 34.9293Z" fill="#FF5368"/>
<path d="M29.0228 11.9196C28.0834 10.9803 26.5472 10.9803 25.6078 11.9196C24.6691 12.8583 24.6691 14.3952 25.6078 15.3339L29.0228 18.7482C29.9615 19.6875 31.4983 19.6875 32.4371 18.7482C33.3758 17.8095 33.3758 16.2732 32.4371 15.3339L29.0228 11.9196Z" fill="#FF7E40"/>
<path d="M66.8492 24.187H62.0207C60.6926 24.187 59.6062 25.2734 59.6062 26.6016C59.6062 27.9297 60.6926 29.0161 62.0207 29.0161H66.8492C68.1773 29.0161 69.2638 27.9297 69.2638 26.6016C69.2638 25.2734 68.1773 24.187 66.8492 24.187Z" fill="#FF7E40"/>
<path d="M13.2483 29.4648L9.83343 32.879C8.89472 33.8178 8.89472 35.3546 9.83343 36.294C10.7722 37.2327 12.309 37.2327 13.2483 36.294L16.6626 32.879C17.602 31.9403 17.602 30.4035 16.6626 29.4648C15.7233 28.5254 14.1871 28.5254 13.2483 29.4648Z" fill="#FF7E40"/>
<path d="M73.8846 38.8899H6.1199C2.97416 38.8899 0.688399 41.938 1.55265 45.0019C3.67118 52.5123 9.61904 59.0156 17.7904 63.216H62.2147C70.3757 59.0211 76.3187 52.5282 78.4439 45.03C79.3155 41.9551 77.0419 38.8899 73.8846 38.8899Z" fill="#E9E3D5"/>
<path d="M73.8211 43.6096L73.7784 43.7836C72.0334 49.8462 67.1475 55.202 60.0101 58.8708C55.6089 61.1334 50.5106 63.2159 44.896 63.2159H17.7898C17.7898 67.4932 21.5087 71.0833 25.7311 71.0833H54.2734C55.4642 71.0833 56.702 70.808 57.8452 70.2318C58.9676 69.7826 62.2147 67.4395 62.2147 63.2159C70.3757 59.0203 76.3187 52.5274 78.4439 45.0293C78.4866 44.8785 78.522 44.7284 78.5495 44.5782C79.1128 41.5411 74.567 40.6122 73.8211 43.6096Z" fill="#D3CDBF"/>
</g>
<defs>
<clipPath id="clip0_104_2608">
<rect width="80" height="80" fill="white"/>
</clipPath>
</defs>
</svg>
