<svg width="20" height="20" viewBox="0 0 20 20" fill="none" xmlns="http://www.w3.org/2000/svg">
<g clip-path="url(#clip0_104_2636)">
<path d="M0.0480957 9.99805C0.304398 13.5688 2.69863 16.7194 6.24935 18.0659V19.375C6.24935 19.72 6.52941 20.0001 6.87448 20.0001H13.1258C13.4708 20.0001 13.7509 19.72 13.7509 19.375V18.0659C17.3016 16.7194 19.6946 13.5688 19.9521 9.99805H0.0480957Z" fill="#386641"/>
<path d="M18.3543 0.466047C18.298 0.246002 18.1242 0.0772175 17.9067 0.0197058C17.6841 -0.0365556 17.4528 0.0297079 17.2953 0.192241C17.2841 0.202243 16.2613 1.23745 12.8469 2.54647C11.6417 3.00781 10.7652 3.88299 10.3776 5.00947C10.1001 5.81963 9.97256 7.09239 10.769 8.74773H11.1916C11.2316 8.69522 11.2741 8.64396 11.3316 8.6052C11.3478 8.59395 12.9382 7.50123 13.9371 5.35704C14.0834 5.04448 14.4547 4.91195 14.7685 5.05448C15.0811 5.20076 15.2161 5.57333 15.0699 5.8859C14.4672 7.17866 13.6896 8.1251 13.0682 8.74773H16.6264C17.1165 8.34765 17.5979 7.84004 18.043 7.16241C18.0555 7.1449 18.0667 7.12615 18.0755 7.10615C19.3845 4.57563 18.3968 0.63233 18.3543 0.466047Z" fill="#386641"/>
<path d="M8.59214 6.34603C8.30958 5.52087 7.6707 4.88199 6.79427 4.54567C4.52881 3.67799 3.84117 2.99535 3.84117 2.99535C3.68489 2.82657 3.45234 2.75656 3.22855 2.81282C3.006 2.86908 2.83222 3.04161 2.77595 3.26416C2.74595 3.38043 2.05581 6.13849 2.981 7.93011C2.991 7.94886 3.00225 7.96761 3.0135 7.98637C3.20854 8.28268 3.41733 8.52648 3.63113 8.74777H6.13039C5.70655 8.28143 5.26021 7.69631 5.03766 7.08744C4.91889 6.76362 5.08392 6.4048 5.40899 6.28602C5.73655 6.16725 6.09163 6.33353 6.21165 6.65735C6.51171 7.47876 7.53692 8.42896 7.907 8.72527C7.9145 8.73152 7.91825 8.74152 7.92575 8.74777H8.4421C8.86344 7.70381 8.77717 6.88364 8.59214 6.34603Z" fill="#386641"/>
</g>
<defs>
<clipPath id="clip0_104_2636">
<rect width="20" height="20" fill="white"/>
</clipPath>
</defs>
</svg>
