<svg width="198" height="60" viewBox="0 0 198 60" fill="none" xmlns="http://www.w3.org/2000/svg">
<rect width="198" height="60" rx="12" fill="#F2E8CF"/>
<g clip-path="url(#clip0_29_129)">
<path d="M24.0481 29.998C24.3044 33.5688 26.6986 36.7194 30.2494 38.0659V39.375C30.2494 39.72 30.5294 40.0001 30.8745 40.0001H37.1258C37.4708 40.0001 37.7509 39.72 37.7509 39.375V38.0659C41.3016 36.7194 43.6946 33.5688 43.9521 29.998H24.0481Z" fill="#386641"/>
<path d="M42.3543 20.466C42.298 20.246 42.1242 20.0772 41.9067 20.0197C41.6841 19.9634 41.4528 20.0297 41.2953 20.1922C41.2841 20.2022 40.2613 21.2375 36.8469 22.5465C35.6417 23.0078 34.7652 23.883 34.3776 25.0095C34.1001 25.8196 33.9726 27.0924 34.769 28.7477H35.1916C35.2316 28.6952 35.2741 28.644 35.3316 28.6052C35.3478 28.5939 36.9382 27.5012 37.9371 25.357C38.0834 25.0445 38.4547 24.9119 38.7685 25.0545C39.0811 25.2008 39.2161 25.5733 39.0699 25.8859C38.4672 27.1787 37.6896 28.1251 37.0682 28.7477H40.6264C41.1165 28.3476 41.5979 27.84 42.043 27.1624C42.0555 27.1449 42.0667 27.1261 42.0755 27.1061C43.3845 24.5756 42.3968 20.6323 42.3543 20.466Z" fill="#386641"/>
<path d="M32.5921 26.346C32.3096 25.5209 31.6707 24.882 30.7943 24.5457C28.5288 23.678 27.8412 22.9954 27.8412 22.9954C27.6849 22.8266 27.4523 22.7566 27.2285 22.8128C27.006 22.8691 26.8322 23.0416 26.776 23.2642C26.7459 23.3804 26.0558 26.1385 26.981 27.9301C26.991 27.9489 27.0022 27.9676 27.0135 27.9864C27.2085 28.2827 27.4173 28.5265 27.6311 28.7478H30.1304C29.7065 28.2814 29.2602 27.6963 29.0377 27.0874C28.9189 26.7636 29.0839 26.4048 29.409 26.286C29.7366 26.1672 30.0916 26.3335 30.2117 26.6573C30.5117 27.4788 31.5369 28.429 31.907 28.7253C31.9145 28.7315 31.9182 28.7415 31.9257 28.7478H32.4421C32.8634 27.7038 32.7772 26.8836 32.5921 26.346Z" fill="#386641"/>
</g>
<path d="M55.12 36V24.48H59.728C60.5493 24.48 61.2133 24.6453 61.72 24.976C62.2267 25.3013 62.5973 25.712 62.832 26.208C63.0667 26.704 63.184 27.2053 63.184 27.712C63.184 28.3573 63.0373 28.8933 62.744 29.32C62.456 29.7467 62.0587 30.032 61.552 30.176V29.776C62.272 29.9253 62.8107 30.2587 63.168 30.776C63.5307 31.2933 63.712 31.872 63.712 32.512C63.712 33.2 63.584 33.8053 63.328 34.328C63.0773 34.8507 62.6933 35.2613 62.176 35.56C61.6587 35.8533 61.008 36 60.224 36H55.12ZM57.328 33.952H60C60.2933 33.952 60.5547 33.8907 60.784 33.768C61.0133 33.64 61.192 33.464 61.32 33.24C61.4533 33.0107 61.52 32.7413 61.52 32.432C61.52 32.16 61.464 31.9173 61.352 31.704C61.24 31.4907 61.0693 31.3227 60.84 31.2C60.616 31.072 60.336 31.008 60 31.008H57.328V33.952ZM57.328 28.976H59.696C59.9413 28.976 60.16 28.9333 60.352 28.848C60.544 28.7627 60.696 28.632 60.808 28.456C60.92 28.2747 60.976 28.0427 60.976 27.76C60.976 27.408 60.8667 27.112 60.648 26.872C60.4293 26.632 60.112 26.512 59.696 26.512H57.328V28.976ZM68.5235 36.256C67.8462 36.256 67.2942 36.1413 66.8675 35.912C66.4408 35.6827 66.1075 35.392 65.8675 35.04C65.6328 34.688 65.4648 34.3227 65.3635 33.944C65.2622 33.56 65.2008 33.2107 65.1795 32.896C65.1582 32.5813 65.1475 32.352 65.1475 32.208V27.36H67.3555V31.44C67.3555 31.6373 67.3662 31.8907 67.3875 32.2C67.4088 32.504 67.4755 32.8107 67.5875 33.12C67.6995 33.4293 67.8808 33.688 68.1315 33.896C68.3875 34.104 68.7475 34.208 69.2115 34.208C69.3982 34.208 69.5982 34.1787 69.8115 34.12C70.0248 34.0613 70.2248 33.9493 70.4115 33.784C70.5982 33.6133 70.7502 33.3653 70.8675 33.04C70.9902 32.7093 71.0515 32.2773 71.0515 31.744L72.2995 32.336C72.2995 33.0187 72.1608 33.6587 71.8835 34.256C71.6062 34.8533 71.1875 35.336 70.6275 35.704C70.0728 36.072 69.3715 36.256 68.5235 36.256ZM71.3235 36V33.136H71.0515V27.36H73.2435V36H71.3235ZM75.6394 26.16V24.24H77.8154V26.16H75.6394ZM75.6394 36V27.36H77.8154V36H75.6394ZM80.3738 36V24.24H82.5498V36H80.3738ZM88.4521 36.24C87.6575 36.24 86.9615 36.04 86.3641 35.64C85.7668 35.24 85.3001 34.696 84.9641 34.008C84.6335 33.32 84.4681 32.544 84.4681 31.68C84.4681 30.8 84.6361 30.0187 84.9721 29.336C85.3135 28.648 85.7908 28.1067 86.4041 27.712C87.0175 27.3173 87.7375 27.12 88.5641 27.12C89.3855 27.12 90.0761 27.32 90.6361 27.72C91.1961 28.12 91.6201 28.664 91.9081 29.352C92.1961 30.04 92.3401 30.816 92.3401 31.68C92.3401 32.544 92.1935 33.32 91.9001 34.008C91.6121 34.696 91.1801 35.24 90.6041 35.64C90.0281 36.04 89.3108 36.24 88.4521 36.24ZM88.8041 34.304C89.2895 34.304 89.6761 34.1947 89.9641 33.976C90.2575 33.7573 90.4681 33.4507 90.5961 33.056C90.7241 32.6613 90.7881 32.2027 90.7881 31.68C90.7881 31.1573 90.7241 30.6987 90.5961 30.304C90.4681 29.9093 90.2628 29.6027 89.9801 29.384C89.7028 29.1653 89.3375 29.056 88.8841 29.056C88.3988 29.056 87.9988 29.176 87.6841 29.416C87.3748 29.6507 87.1455 29.968 86.9961 30.368C86.8468 30.7627 86.7721 31.2 86.7721 31.68C86.7721 32.1653 86.8441 32.608 86.9881 33.008C87.1321 33.4027 87.3535 33.7173 87.6521 33.952C87.9508 34.1867 88.3348 34.304 88.8041 34.304ZM90.7881 36V30.08H90.5161V24.48H92.7081V36H90.7881ZM99.2553 39.84L100.919 35.264L100.951 36.608L97.1913 27.36H99.4473L101.975 33.904H101.463L103.975 27.36H106.151L101.271 39.84H99.2553ZM110.852 36.24C109.982 36.24 109.22 36.0453 108.564 35.656C107.908 35.2667 107.396 34.7307 107.028 34.048C106.665 33.36 106.484 32.5707 106.484 31.68C106.484 30.7787 106.67 29.9867 107.044 29.304C107.417 28.616 107.932 28.08 108.588 27.696C109.244 27.312 109.998 27.12 110.852 27.12C111.721 27.12 112.484 27.3147 113.14 27.704C113.801 28.0933 114.316 28.632 114.684 29.32C115.052 30.0027 115.236 30.7893 115.236 31.68C115.236 32.576 115.049 33.368 114.676 34.056C114.308 34.7387 113.793 35.2747 113.132 35.664C112.476 36.048 111.716 36.24 110.852 36.24ZM110.852 34.208C111.55 34.208 112.07 33.9733 112.412 33.504C112.758 33.0293 112.932 32.4213 112.932 31.68C112.932 30.912 112.756 30.2987 112.404 29.84C112.057 29.3813 111.54 29.152 110.852 29.152C110.377 29.152 109.988 29.2587 109.684 29.472C109.38 29.6853 109.153 29.9813 109.004 30.36C108.86 30.7387 108.788 31.1787 108.788 31.68C108.788 32.4533 108.961 33.0693 109.308 33.528C109.66 33.9813 110.174 34.208 110.852 34.208ZM120.211 36.256C119.534 36.256 118.982 36.1413 118.555 35.912C118.128 35.6827 117.795 35.392 117.555 35.04C117.32 34.688 117.152 34.3227 117.051 33.944C116.95 33.56 116.888 33.2107 116.867 32.896C116.846 32.5813 116.835 32.352 116.835 32.208V27.36H119.043V31.44C119.043 31.6373 119.054 31.8907 119.075 32.2C119.096 32.504 119.163 32.8107 119.275 33.12C119.387 33.4293 119.568 33.688 119.819 33.896C120.075 34.104 120.435 34.208 120.899 34.208C121.086 34.208 121.286 34.1787 121.499 34.12C121.712 34.0613 121.912 33.9493 122.099 33.784C122.286 33.6133 122.438 33.3653 122.555 33.04C122.678 32.7093 122.739 32.2773 122.739 31.744L123.987 32.336C123.987 33.0187 123.848 33.6587 123.571 34.256C123.294 34.8533 122.875 35.336 122.315 35.704C121.76 36.072 121.059 36.256 120.211 36.256ZM123.011 36V33.136H122.739V27.36H124.931V36H123.011ZM127.167 36V27.36H129.087V29.472L128.879 29.2C128.991 28.9013 129.14 28.6293 129.327 28.384C129.514 28.1387 129.743 27.936 130.015 27.776C130.223 27.648 130.45 27.5493 130.695 27.48C130.94 27.4053 131.194 27.36 131.455 27.344C131.716 27.3227 131.978 27.328 132.239 27.36V29.392C131.999 29.3173 131.719 29.2933 131.399 29.32C131.084 29.3413 130.799 29.4133 130.543 29.536C130.287 29.6533 130.071 29.8107 129.895 30.008C129.719 30.2 129.586 30.4293 129.495 30.696C129.404 30.9573 129.359 31.2533 129.359 31.584V36H127.167ZM136.964 36V24.48H141.572C142.393 24.48 143.057 24.6453 143.564 24.976C144.07 25.3013 144.441 25.712 144.676 26.208C144.91 26.704 145.028 27.2053 145.028 27.712C145.028 28.3573 144.881 28.8933 144.588 29.32C144.3 29.7467 143.902 30.032 143.396 30.176V29.776C144.116 29.9253 144.654 30.2587 145.012 30.776C145.374 31.2933 145.556 31.872 145.556 32.512C145.556 33.2 145.428 33.8053 145.172 34.328C144.921 34.8507 144.537 35.2613 144.02 35.56C143.502 35.8533 142.852 36 142.068 36H136.964ZM139.172 33.952H141.844C142.137 33.952 142.398 33.8907 142.628 33.768C142.857 33.64 143.036 33.464 143.164 33.24C143.297 33.0107 143.364 32.7413 143.364 32.432C143.364 32.16 143.308 31.9173 143.196 31.704C143.084 31.4907 142.913 31.3227 142.684 31.2C142.46 31.072 142.18 31.008 141.844 31.008H139.172V33.952ZM139.172 28.976H141.54C141.785 28.976 142.004 28.9333 142.196 28.848C142.388 28.7627 142.54 28.632 142.652 28.456C142.764 28.2747 142.82 28.0427 142.82 27.76C142.82 27.408 142.71 27.112 142.492 26.872C142.273 26.632 141.956 26.512 141.54 26.512H139.172V28.976ZM151.039 36.24C150.17 36.24 149.407 36.0453 148.751 35.656C148.095 35.2667 147.583 34.7307 147.215 34.048C146.853 33.36 146.671 32.5707 146.671 31.68C146.671 30.7787 146.858 29.9867 147.231 29.304C147.605 28.616 148.119 28.08 148.775 27.696C149.431 27.312 150.186 27.12 151.039 27.12C151.909 27.12 152.671 27.3147 153.327 27.704C153.989 28.0933 154.503 28.632 154.871 29.32C155.239 30.0027 155.423 30.7893 155.423 31.68C155.423 32.576 155.237 33.368 154.863 34.056C154.495 34.7387 153.981 35.2747 153.319 35.664C152.663 36.048 151.903 36.24 151.039 36.24ZM151.039 34.208C151.738 34.208 152.258 33.9733 152.599 33.504C152.946 33.0293 153.119 32.4213 153.119 31.68C153.119 30.912 152.943 30.2987 152.591 29.84C152.245 29.3813 151.727 29.152 151.039 29.152C150.565 29.152 150.175 29.2587 149.871 29.472C149.567 29.6853 149.341 29.9813 149.191 30.36C149.047 30.7387 148.975 31.1787 148.975 31.68C148.975 32.4533 149.149 33.0693 149.495 33.528C149.847 33.9813 150.362 34.208 151.039 34.208ZM158.71 36L156.07 27.344L158.198 27.36L159.766 32.512L161.358 27.36H163.166L164.758 32.512L166.326 27.36H168.454L165.814 36H164.15L162.262 30.368L160.374 36H158.71ZM170.061 36V24.24H172.237V36H170.061Z" fill="#386641"/>
<defs>
<clipPath id="clip0_29_129">
<rect width="20" height="20" fill="white" transform="translate(24 20)"/>
</clipPath>
</defs>
</svg>
