<svg width="131" height="60" viewBox="0 0 131 60" fill="none" xmlns="http://www.w3.org/2000/svg">
<rect width="131" height="60" rx="12" fill="#386641"/>
<path d="M30.064 36.24C28.912 36.24 27.9173 35.9893 27.08 35.488C26.248 34.9867 25.6053 34.2853 25.152 33.384C24.704 32.4827 24.48 31.4347 24.48 30.24C24.48 29.0453 24.704 27.9973 25.152 27.096C25.6053 26.1947 26.248 25.4933 27.08 24.992C27.9173 24.4907 28.912 24.24 30.064 24.24C31.216 24.24 32.208 24.4907 33.04 24.992C33.8773 25.4933 34.52 26.1947 34.968 27.096C35.4213 27.9973 35.648 29.0453 35.648 30.24C35.648 31.4347 35.4213 32.4827 34.968 33.384C34.52 34.2853 33.8773 34.9867 33.04 35.488C32.208 35.9893 31.216 36.24 30.064 36.24ZM30.064 34.192C30.7947 34.2027 31.4027 34.0453 31.888 33.72C32.3733 33.3947 32.736 32.9333 32.976 32.336C33.2213 31.7387 33.344 31.04 33.344 30.24C33.344 29.44 33.2213 28.7467 32.976 28.16C32.736 27.5733 32.3733 27.1173 31.888 26.792C31.4027 26.4667 30.7947 26.2987 30.064 26.288C29.3333 26.2773 28.7253 26.4347 28.24 26.76C27.7547 27.0853 27.3893 27.5467 27.144 28.144C26.904 28.7413 26.784 29.44 26.784 30.24C26.784 31.04 26.904 31.7333 27.144 32.32C27.3893 32.9067 27.7547 33.3627 28.24 33.688C28.7253 34.0133 29.3333 34.1813 30.064 34.192ZM37.245 36V27.36H39.165V29.472L38.957 29.2C39.069 28.9013 39.2183 28.6293 39.405 28.384C39.5917 28.1387 39.821 27.936 40.093 27.776C40.301 27.648 40.5277 27.5493 40.773 27.48C41.0183 27.4053 41.2717 27.36 41.533 27.344C41.7943 27.3227 42.0557 27.328 42.317 27.36V29.392C42.077 29.3173 41.797 29.2933 41.477 29.32C41.1623 29.3413 40.877 29.4133 40.621 29.536C40.365 29.6533 40.149 29.8107 39.973 30.008C39.797 30.2 39.6637 30.4293 39.573 30.696C39.4823 30.9573 39.437 31.2533 39.437 31.584V36H37.245ZM47.1865 36.24C46.3918 36.24 45.6958 36.04 45.0985 35.64C44.5012 35.24 44.0345 34.696 43.6985 34.008C43.3678 33.32 43.2025 32.544 43.2025 31.68C43.2025 30.8 43.3705 30.0187 43.7065 29.336C44.0478 28.648 44.5252 28.1067 45.1385 27.712C45.7518 27.3173 46.4718 27.12 47.2985 27.12C48.1198 27.12 48.8105 27.32 49.3705 27.72C49.9305 28.12 50.3545 28.664 50.6425 29.352C50.9305 30.04 51.0745 30.816 51.0745 31.68C51.0745 32.544 50.9278 33.32 50.6345 34.008C50.3465 34.696 49.9145 35.24 49.3385 35.64C48.7625 36.04 48.0452 36.24 47.1865 36.24ZM47.5385 34.304C48.0238 34.304 48.4105 34.1947 48.6985 33.976C48.9918 33.7573 49.2025 33.4507 49.3305 33.056C49.4585 32.6613 49.5225 32.2027 49.5225 31.68C49.5225 31.1573 49.4585 30.6987 49.3305 30.304C49.2025 29.9093 48.9972 29.6027 48.7145 29.384C48.4372 29.1653 48.0718 29.056 47.6185 29.056C47.1332 29.056 46.7332 29.176 46.4185 29.416C46.1092 29.6507 45.8798 29.968 45.7305 30.368C45.5812 30.7627 45.5065 31.2 45.5065 31.68C45.5065 32.1653 45.5785 32.608 45.7225 33.008C45.8665 33.4027 46.0878 33.7173 46.3865 33.952C46.6852 34.1867 47.0692 34.304 47.5385 34.304ZM49.5225 36V30.08H49.2505V24.48H51.4425V36H49.5225ZM57.6985 36.24C56.8132 36.24 56.0318 36.0507 55.3545 35.672C54.6825 35.288 54.1545 34.7627 53.7705 34.096C53.3918 33.424 53.2025 32.656 53.2025 31.792C53.2025 30.848 53.3892 30.0267 53.7625 29.328C54.1358 28.6293 54.6505 28.088 55.3065 27.704C55.9625 27.3147 56.7172 27.12 57.5705 27.12C58.4772 27.12 59.2478 27.3333 59.8825 27.76C60.5172 28.1867 60.9865 28.7867 61.2905 29.56C61.5945 30.3333 61.7012 31.2427 61.6105 32.288H59.4585V31.488C59.4585 30.608 59.3172 29.976 59.0345 29.592C58.7572 29.2027 58.3012 29.008 57.6665 29.008C56.9252 29.008 56.3785 29.2347 56.0265 29.688C55.6798 30.136 55.5065 30.8 55.5065 31.68C55.5065 32.4853 55.6798 33.1093 56.0265 33.552C56.3785 33.9893 56.8932 34.208 57.5705 34.208C57.9972 34.208 58.3625 34.1147 58.6665 33.928C58.9705 33.7413 59.2025 33.472 59.3625 33.12L61.5385 33.744C61.2132 34.5333 60.6985 35.1467 59.9945 35.584C59.2958 36.0213 58.5305 36.24 57.6985 36.24ZM54.8345 32.288V30.672H60.5625V32.288H54.8345ZM63.4169 36V27.36H65.3369V29.472L65.1289 29.2C65.2409 28.9013 65.3902 28.6293 65.5769 28.384C65.7635 28.1387 65.9929 27.936 66.2649 27.776C66.4729 27.648 66.6995 27.5493 66.9449 27.48C67.1902 27.4053 67.4435 27.36 67.7049 27.344C67.9662 27.3227 68.2275 27.328 68.4889 27.36V29.392C68.2489 29.3173 67.9689 29.2933 67.6489 29.32C67.3342 29.3413 67.0489 29.4133 66.7929 29.536C66.5369 29.6533 66.3209 29.8107 66.1449 30.008C65.9689 30.2 65.8355 30.4293 65.7449 30.696C65.6542 30.9573 65.6089 31.2533 65.6089 31.584V36H63.4169ZM73.2138 36V24.48H75.4218L80.4298 32.16V24.48H82.6378V36H80.4298L75.4218 28.32V36H73.2138ZM88.758 36.24C87.8887 36.24 87.126 36.0453 86.47 35.656C85.814 35.2667 85.302 34.7307 84.934 34.048C84.5713 33.36 84.39 32.5707 84.39 31.68C84.39 30.7787 84.5767 29.9867 84.95 29.304C85.3233 28.616 85.838 28.08 86.494 27.696C87.15 27.312 87.9047 27.12 88.758 27.12C89.6273 27.12 90.39 27.3147 91.046 27.704C91.7073 28.0933 92.222 28.632 92.59 29.32C92.958 30.0027 93.142 30.7893 93.142 31.68C93.142 32.576 92.9553 33.368 92.582 34.056C92.214 34.7387 91.6993 35.2747 91.038 35.664C90.382 36.048 89.622 36.24 88.758 36.24ZM88.758 34.208C89.4567 34.208 89.9767 33.9733 90.318 33.504C90.6647 33.0293 90.838 32.4213 90.838 31.68C90.838 30.912 90.662 30.2987 90.31 29.84C89.9633 29.3813 89.446 29.152 88.758 29.152C88.2833 29.152 87.894 29.2587 87.59 29.472C87.286 29.6853 87.0593 29.9813 86.91 30.36C86.766 30.7387 86.694 31.1787 86.694 31.68C86.694 32.4533 86.8673 33.0693 87.214 33.528C87.566 33.9813 88.0807 34.208 88.758 34.208ZM96.4288 36L93.7888 27.344L95.9168 27.36L97.4848 32.512L99.0768 27.36H100.885L102.477 32.512L104.045 27.36H106.173L103.533 36H101.869L99.9808 30.368L98.0928 36H96.4288Z" fill="#F2E8CF"/>
</svg>
