<svg width="277" height="76" viewBox="0 0 277 76" fill="none" xmlns="http://www.w3.org/2000/svg">
<path d="M65.4425 50.146H73.624C73.6988 51.1174 74.091 51.8832 74.8008 52.4436C75.5106 53.004 76.5193 53.2842 77.8269 53.2842C79.1718 53.2842 80.1618 53.06 80.7969 52.6117C81.432 52.1634 81.7495 51.5843 81.7495 50.8745C81.7495 50.4636 81.5814 50.0527 81.2452 49.6417C80.9463 49.2308 80.2739 48.9132 79.2278 48.6891L74.0723 47.5683C71.4946 47.0079 69.5707 46.1113 68.3005 44.8785C67.0303 43.6083 66.3952 41.7404 66.3952 39.2747C66.3952 37.3321 66.8995 35.6883 67.9082 34.3434C68.9542 32.9612 70.3552 31.9151 72.111 31.2053C73.8669 30.4581 75.8656 30.0846 78.1071 30.0846C80.2739 30.0846 82.1791 30.4768 83.8229 31.2613C85.504 32.0459 86.8116 33.148 87.7455 34.5676C88.6795 35.9872 89.1465 37.6496 89.1465 39.5549H80.965C80.965 38.5836 80.6848 37.8178 80.1244 37.2574C79.564 36.6596 78.7608 36.3608 77.7148 36.3608C76.7435 36.3608 75.9589 36.6036 75.3612 37.0893C74.8008 37.5376 74.5206 38.1353 74.5206 38.8825C74.5206 40.0779 75.5293 40.8998 77.5467 41.3481L82.7582 42.4689C85.0744 42.9545 86.8303 43.7951 88.0257 44.9906C89.2586 46.1487 89.875 47.8485 89.875 50.09C89.875 52.07 89.352 53.7885 88.3059 55.2455C87.2599 56.7025 85.8029 57.8232 83.935 58.6077C82.0671 59.3549 79.9189 59.7285 77.4906 59.7285C73.7922 59.7285 70.8595 58.8506 68.6927 57.0947C66.5259 55.3015 65.4425 52.9853 65.4425 50.146ZM102.846 59.7285C99.8946 59.7285 97.541 58.9253 95.7852 57.3189C94.0667 55.6751 93.2075 53.4896 93.2075 50.7625C93.2075 48.1847 94.0854 46.13 95.8412 44.5983C97.6344 43.0666 100.212 42.17 103.574 41.9085L111.42 41.2921V40.8438C111.42 39.9098 111.233 39.144 110.859 38.5462C110.486 37.9112 109.944 37.4442 109.234 37.1453C108.562 36.8091 107.703 36.641 106.657 36.641C104.826 36.641 103.425 36.9772 102.454 37.6496C101.52 38.3221 101.053 39.2934 101.053 40.5636H93.8799C93.8799 38.4342 94.4216 36.5849 95.505 35.0159C96.5884 33.4468 98.1201 32.2327 100.1 31.3734C102.117 30.5142 104.452 30.0846 107.105 30.0846C109.832 30.0846 112.13 30.5702 113.997 31.5415C115.903 32.5129 117.341 33.9325 118.312 35.8004C119.321 37.6683 119.825 39.9472 119.825 42.637V59H112.204L111.644 55.3015C111.196 56.5717 110.131 57.6364 108.45 58.4957C106.806 59.3175 104.938 59.7285 102.846 59.7285ZM105.872 53.3402C107.516 53.3402 108.861 52.9479 109.907 52.1634C110.953 51.3415 111.476 50.1274 111.476 48.521V47.0079L107.105 47.4002C105.237 47.5496 103.911 47.8672 103.126 48.3528C102.379 48.8011 102.005 49.4736 102.005 50.3702C102.005 51.3789 102.323 52.126 102.958 52.6117C103.593 53.0974 104.564 53.3402 105.872 53.3402ZM134.645 59H126.015V16.7476H134.645V59ZM149.58 59.7285C146.629 59.7285 144.276 58.9253 142.52 57.3189C140.801 55.6751 139.942 53.4896 139.942 50.7625C139.942 48.1847 140.82 46.13 142.576 44.5983C144.369 43.0666 146.947 42.17 150.309 41.9085L158.154 41.2921V40.8438C158.154 39.9098 157.967 39.144 157.594 38.5462C157.22 37.9112 156.679 37.4442 155.969 37.1453C155.296 36.8091 154.437 36.641 153.391 36.641C151.56 36.641 150.16 36.9772 149.188 37.6496C148.254 38.3221 147.787 39.2934 147.787 40.5636H140.614C140.614 38.4342 141.156 36.5849 142.24 35.0159C143.323 33.4468 144.855 32.2327 146.835 31.3734C148.852 30.5142 151.187 30.0846 153.839 30.0846C156.567 30.0846 158.864 30.5702 160.732 31.5415C162.637 32.5129 164.076 33.9325 165.047 35.8004C166.056 37.6683 166.56 39.9472 166.56 42.637V59H158.939L158.378 55.3015C157.93 56.5717 156.865 57.6364 155.184 58.4957C153.54 59.3175 151.673 59.7285 149.58 59.7285ZM152.607 53.3402C154.25 53.3402 155.595 52.9479 156.641 52.1634C157.687 51.3415 158.21 50.1274 158.21 48.521V47.0079L153.839 47.4002C151.971 47.5496 150.645 47.8672 149.861 48.3528C149.114 48.8011 148.74 49.4736 148.74 50.3702C148.74 51.3789 149.057 52.126 149.693 52.6117C150.328 53.0974 151.299 53.3402 152.607 53.3402ZM184.517 59.7285C181.828 59.7285 179.493 59.1308 177.513 57.9353C175.533 56.7398 173.982 55.0587 172.862 52.8919C171.778 50.6877 171.236 48.11 171.236 45.1587C171.236 42.17 171.797 39.5549 172.918 37.3134C174.038 35.0346 175.626 33.26 177.681 31.9898C179.773 30.7197 182.238 30.0846 185.078 30.0846C186.834 30.0846 188.459 30.4021 189.953 31.0372C191.485 31.6723 192.661 32.5129 193.483 33.5589V16.7476H202.113V59H193.988L193.539 55.4136C192.792 56.6838 191.597 57.7298 189.953 58.5517C188.347 59.3362 186.535 59.7285 184.517 59.7285ZM186.591 51.8272C187.936 51.8272 189.112 51.547 190.121 50.9866C191.167 50.3889 191.97 49.567 192.531 48.521C193.128 47.4376 193.427 46.2047 193.427 44.8225C193.427 43.4028 193.128 42.17 192.531 41.124C191.97 40.0779 191.167 39.2747 190.121 38.7144C189.112 38.1166 187.936 37.8178 186.591 37.8178C185.246 37.8178 184.069 38.1166 183.06 38.7144C182.052 39.3121 181.267 40.134 180.707 41.18C180.184 42.2261 179.922 43.4402 179.922 44.8225C179.922 46.2047 180.184 47.4189 180.707 48.4649C181.267 49.511 182.052 50.3328 183.06 50.9306C184.069 51.5283 185.246 51.8272 186.591 51.8272ZM241.264 20.7263C240.517 20.7263 239.657 21.268 238.686 22.3514C237.752 23.4348 236.743 24.8544 235.66 26.6102C234.614 28.3661 233.568 30.2714 232.522 32.3261C231.513 34.3808 230.579 36.3981 229.72 38.3781C228.861 40.3208 228.132 42.0206 227.535 43.4776C226.899 45.1213 226.32 46.7091 225.797 48.2408C225.274 49.7725 224.863 51.0987 224.565 52.2194C224.266 53.3028 224.116 54.0313 224.116 54.4049C224.116 55.0026 224.34 55.3015 224.789 55.3015C225.2 55.3015 225.704 55.04 226.302 54.517C226.899 53.994 227.516 53.3962 228.151 52.7238C228.823 52.0513 229.421 51.4536 229.944 50.9306C230.467 50.4076 230.859 50.146 231.121 50.146C231.345 50.146 231.495 50.2208 231.569 50.3702C231.644 50.4823 231.681 50.613 231.681 50.7625C231.681 50.9119 231.439 51.3228 230.953 51.9953C230.505 52.6304 229.888 53.3776 229.104 54.2368C228.356 55.096 227.516 55.9553 226.582 56.8145C225.648 57.6364 224.677 58.3275 223.668 58.8879C222.697 59.4483 221.781 59.7285 220.922 59.7285C220.324 59.7285 219.839 59.5604 219.465 59.2242C219.092 58.8879 218.905 58.4209 218.905 57.8232C218.905 57.3375 219.036 56.6091 219.297 55.6377C219.596 54.6664 219.951 53.6204 220.362 52.4996C220.81 51.3415 221.24 50.2394 221.651 49.1934C222.062 48.1474 222.398 47.2881 222.659 46.6157C222.958 45.9432 223.108 45.607 223.108 45.607L222.996 45.4949C222.062 46.7651 220.959 48.2221 219.689 49.8659C218.456 51.5096 217.168 53.0974 215.823 54.6291C214.478 56.1234 213.17 57.3749 211.9 58.3836C210.667 59.3549 209.584 59.8406 208.65 59.8406C207.791 59.8406 207.025 59.523 206.352 58.8879C205.68 58.2528 205.344 57.3002 205.344 56.03C205.344 55.1708 205.512 54.0313 205.848 52.6117C206.184 51.1921 206.67 49.6417 207.305 47.9606C207.94 46.2794 208.706 44.617 209.603 42.9732C210.536 41.2921 211.583 39.7604 212.741 38.3781C213.936 36.9959 215.225 35.8938 216.607 35.0719C218.027 34.2127 219.54 33.783 221.146 33.783C222.342 33.783 223.406 34.0072 224.34 34.4555C225.312 34.8664 226.152 35.3895 226.862 36.0246C227.647 34.194 228.581 32.2327 229.664 30.1406C230.785 28.0112 232.018 26.0125 233.362 24.1446C234.745 22.2766 236.276 20.7636 237.958 19.6055C239.639 18.41 241.451 17.8123 243.393 17.8123C244.215 17.8123 244.813 17.9617 245.186 18.2606C245.56 18.5595 245.747 18.9144 245.747 19.3253C245.747 19.7363 245.541 20.1472 245.13 20.5582C244.757 20.9317 244.196 21.1932 243.449 21.3427C243.113 21.1559 242.777 21.0065 242.441 20.8944C242.104 20.7823 241.712 20.7263 241.264 20.7263ZM219.521 36.1366C218.662 36.1366 217.784 36.5662 216.887 37.4255C215.991 38.2847 215.132 39.4055 214.31 40.7878C213.488 42.17 212.759 43.6457 212.124 45.2147C211.489 46.7838 210.985 48.2968 210.611 49.7538C210.238 51.1734 210.051 52.3689 210.051 53.3402C210.051 53.9379 210.163 54.4423 210.387 54.8532C210.611 55.2642 210.966 55.4696 211.452 55.4696C211.863 55.4696 212.516 55.0774 213.413 54.2928C214.347 53.5083 215.374 52.4996 216.495 51.2668C217.616 50.034 218.737 48.6891 219.857 47.2321C221.016 45.7751 222.043 44.3742 222.939 43.0293C223.873 41.6844 224.565 40.5262 225.013 39.5549C224.789 39.1066 224.378 38.621 223.78 38.0979C223.22 37.5749 222.566 37.1266 221.819 36.753C221.072 36.3421 220.306 36.1366 219.521 36.1366ZM247.924 32.9425C247.924 33.5402 247.663 34.5302 247.14 35.9125C246.617 37.2947 245.963 38.9012 245.179 40.7317C244.394 42.5249 243.61 44.3368 242.825 46.1674C242.04 47.9979 241.387 49.6604 240.864 51.1547C240.341 52.6117 240.079 53.7138 240.079 54.4609C240.079 55.0213 240.266 55.3015 240.64 55.3015C241.163 55.3015 241.686 55.0774 242.209 54.6291C242.732 54.1434 243.199 53.6764 243.61 53.2281C244.058 52.7798 244.413 52.5557 244.674 52.5557C245.048 52.5557 245.235 52.7798 245.235 53.2281C245.235 53.4149 244.992 53.8445 244.506 54.517C244.02 55.1894 243.367 55.9366 242.545 56.7585C241.76 57.543 240.864 58.2342 239.855 58.8319C238.846 59.4296 237.8 59.7285 236.717 59.7285C236.231 59.7285 235.783 59.5604 235.372 59.2242C234.998 58.8879 234.812 58.4023 234.812 57.7672C234.812 57.02 235.036 55.9553 235.484 54.573C235.97 53.1534 236.549 51.603 237.221 49.9219C237.931 48.2408 238.622 46.6157 239.295 45.0466C239.967 43.4402 240.527 42.0766 240.976 40.9559C241.461 39.7978 241.704 39.0879 241.704 38.8264C240.994 39.3495 240.135 39.8725 239.126 40.3955C238.118 40.8812 237.296 41.4415 236.661 42.0766C236.437 42.0393 236.231 41.9645 236.044 41.8525C235.858 41.703 235.764 41.4976 235.764 41.2361C235.764 40.8251 236.119 40.3581 236.829 39.8351C237.539 39.3121 238.454 38.7144 239.575 38.0419C240.733 37.3321 241.947 36.5289 243.217 35.6323C244.525 34.7357 245.758 33.7083 246.916 32.5502C247.14 32.3261 247.327 32.214 247.476 32.214C247.775 32.214 247.924 32.4568 247.924 32.9425ZM248.205 28.1232C247.383 28.1232 246.673 27.8431 246.075 27.2827C245.515 26.7223 245.235 26.0312 245.235 25.2093C245.235 24.4248 245.496 23.7336 246.019 23.1359C246.542 22.5008 247.215 22.1832 248.036 22.1832C248.858 22.1832 249.587 22.4448 250.222 22.9678C250.857 23.4908 251.175 24.1819 251.175 25.0412C251.175 25.8631 250.894 26.5915 250.334 27.2266C249.774 27.8244 249.064 28.1232 248.205 28.1232ZM261.788 32.9425C261.788 33.3161 261.619 34.0072 261.283 35.0159C260.984 36.0246 260.592 37.164 260.106 38.4342C259.621 39.7044 259.135 40.9745 258.649 42.2447C258.164 43.4776 257.734 44.5796 257.361 45.551C257.024 46.4849 256.819 47.1013 256.744 47.4002H256.912C257.473 46.6157 258.145 45.663 258.93 44.5423C259.752 43.3842 260.648 42.1887 261.619 40.9559C262.628 39.723 263.693 38.5649 264.814 37.4815C265.972 36.3608 267.149 35.4642 268.344 34.7917C269.539 34.1193 270.754 33.783 271.986 33.783C272.958 33.783 273.668 33.9698 274.116 34.3434C274.602 34.6796 274.919 35.0906 275.069 35.5763C275.218 36.0619 275.293 36.5102 275.293 36.9212C275.293 37.7057 274.994 38.7891 274.396 40.1713C273.798 41.5162 273.051 42.9919 272.155 44.5983C271.258 46.1674 270.361 47.7177 269.465 49.2494C268.568 50.7438 267.821 52.0326 267.223 53.116C266.626 54.1994 266.327 54.9092 266.327 55.2455C266.327 55.4696 266.383 55.6377 266.495 55.7498C266.644 55.8245 266.794 55.8619 266.943 55.8619C267.466 55.8619 268.008 55.6751 268.568 55.3015C269.166 54.9279 269.726 54.4983 270.249 54.0126C270.772 53.4896 271.202 53.0787 271.538 52.7798C271.688 52.7051 271.781 52.6677 271.818 52.6677C272.005 52.6677 272.136 52.7425 272.211 52.8919C272.323 53.0413 272.379 53.1908 272.379 53.3402C272.379 53.6764 272.08 54.1994 271.482 54.9092C270.922 55.6191 270.193 56.3476 269.297 57.0947C268.4 57.8419 267.466 58.477 266.495 59C265.561 59.5604 264.72 59.8406 263.973 59.8406C262.516 59.8406 261.788 59.1494 261.788 57.7672C261.788 57.0574 262.049 56.0487 262.572 54.7411C263.133 53.4336 263.805 51.9953 264.589 50.4262C265.411 48.8572 266.215 47.3255 266.999 45.8311C267.821 44.2994 268.493 42.9359 269.016 41.7404C269.577 40.5449 269.857 39.6857 269.857 39.1627C269.857 38.2661 269.483 37.8178 268.736 37.8178C268.064 37.8178 267.018 38.3595 265.598 39.4429C264.179 40.5262 262.479 42.4315 260.499 45.1587C258.519 47.8859 256.352 51.6964 253.998 56.5904C253.625 57.3375 253.27 58.0474 252.934 58.7198C252.635 59.3923 252.224 59.7285 251.701 59.7285C251.215 59.7285 250.804 59.6538 250.468 59.5043C250.132 59.3923 249.814 59.2615 249.515 59.1121C249.515 58.8879 249.665 58.2715 249.964 57.2628C250.3 56.2168 250.711 54.9653 251.196 53.5083C251.682 52.014 252.186 50.4636 252.71 48.8572C253.27 47.2508 253.793 45.7191 254.279 44.2621C254.764 42.7678 255.156 41.5162 255.455 40.5076C255.792 39.4989 255.96 38.8825 255.96 38.6583C255.213 39.144 254.279 39.6857 253.158 40.2834C252.074 40.8812 251.196 41.4789 250.524 42.0766C250.337 42.0393 250.132 41.9645 249.908 41.8525C249.721 41.703 249.627 41.4976 249.627 41.2361C249.627 40.8251 249.982 40.3768 250.692 39.8912C251.402 39.3681 252.317 38.7704 253.438 38.0979C254.596 37.3881 255.81 36.5849 257.08 35.6883C258.388 34.7544 259.621 33.7083 260.779 32.5502C261.003 32.3261 261.19 32.214 261.339 32.214C261.638 32.214 261.788 32.4568 261.788 32.9425Z" fill="#FFFAD8"/>
<path d="M37.5777 46.7159C37.2244 46.7291 36.8702 46.7357 36.5151 46.7357C34.5524 46.7357 32.6361 46.5335 30.7854 46.1499C30.0236 51.0374 27.1004 55.3307 22.7444 57.8264V59.0603H45.5208V57.8266C41.3336 55.4273 38.4703 51.3674 37.5777 46.7159Z" fill="#AEFF86"/>
<path d="M9.06251 16.6785C4.06542 16.6786 0 20.7442 0 25.7413C0 30.7384 4.06542 34.8038 9.06251 34.8038H18.5831C22.7983 40.0589 29.2699 43.4301 36.5153 43.4301C41.1961 43.4301 45.7071 42.0258 49.5606 39.3687L61.2077 31.3379C68.6681 26.194 77.4016 23.475 86.4636 23.475H88.9452V16.6786L9.06251 16.6785ZM9.06251 29.592C6.93912 29.5922 5.21163 27.8645 5.21163 25.7413C5.21163 23.6179 6.93912 21.8904 9.06251 21.8904H13.5806C13.75 24.6121 14.3949 27.2065 15.4334 29.592H9.06251Z" fill="#AEFF86"/>
<g clip-path="url(#clip0_154_2132)">
<path d="M94.5522 2.13956C91.0847 6.47236 94.2126 11.5592 87.7763 16.7595C86.7012 17.6835 85.3758 18.2674 83.9684 18.4371C82.561 18.6069 81.1349 18.3548 79.8709 17.713C79.7579 17.6478 79.6716 17.5448 79.6271 17.4221C79.5827 17.2995 79.5829 17.1651 79.6279 17.0427C80.8004 14.0221 82.4066 11.1883 84.3958 8.63066C84.4793 8.53294 84.5221 8.40696 84.5156 8.27862C84.5091 8.15027 84.4536 8.0293 84.3607 7.94057C84.2677 7.85183 84.1443 7.80206 84.0158 7.80149C83.8873 7.80091 83.7634 7.84958 83.6697 7.93748C80.821 10.3047 78.7722 13.9499 78.0539 15.3474C78.0234 15.4075 77.9774 15.4583 77.9206 15.4944C77.8638 15.5306 77.7983 15.5509 77.731 15.5531C77.6637 15.5553 77.5971 15.5394 77.538 15.5071C77.479 15.4747 77.4297 15.4271 77.3953 15.3692C77.3643 15.3228 77.3372 15.2738 77.3143 15.2229C76.6276 14.0533 76.2764 12.7171 76.2994 11.3609V11.3554C76.3212 10.1046 76.6161 8.8738 77.1636 7.74906C77.711 6.62431 78.4978 5.63286 79.4687 4.84414C85.0683 0.342651 92.1309 1.0794 94.35 1.45867C94.4198 1.47584 94.4838 1.51095 94.5357 1.56051C94.5877 1.61007 94.6258 1.67236 94.6462 1.74119C94.6666 1.81002 94.6687 1.883 94.6522 1.95288C94.6358 2.02276 94.6013 2.08712 94.5522 2.13956Z" fill="#77B508"/>
<path d="M76.2424 15.2484C76.1789 15.6699 76.0553 16.0801 75.8754 16.4666C75.8484 16.5231 75.808 16.5721 75.7576 16.6092C75.7072 16.6464 75.6485 16.6706 75.5866 16.6797C75.5247 16.6888 75.4614 16.6825 75.4025 16.6614C75.3436 16.6404 75.2908 16.6051 75.2487 16.5588C73.7536 14.8807 71.98 13.4735 70.006 12.3991C69.9048 12.345 69.7873 12.33 69.6758 12.3569C69.5642 12.3839 69.4665 12.4509 69.4012 12.5452C69.3359 12.6395 69.3075 12.7545 69.3215 12.8683C69.3354 12.9822 69.3908 13.087 69.477 13.1627C71.1426 14.6034 72.6633 16.2035 74.0176 17.9401C74.0516 17.9859 74.0753 18.0386 74.0869 18.0945C74.0986 18.1504 74.098 18.2082 74.0852 18.2638C74.0724 18.3195 74.0477 18.3717 74.0128 18.4168C73.9779 18.462 73.9336 18.4991 73.883 18.5255C73.2657 18.83 72.5923 19.004 71.9047 19.0366C71.2172 19.0692 70.5303 18.9596 69.887 18.7148C64.6644 16.8241 65.5514 12.9297 62.4145 10.9407C62.3709 10.9185 62.3339 10.8854 62.3072 10.8445C62.2805 10.8035 62.2649 10.7563 62.2622 10.7075C62.2594 10.6587 62.2695 10.6101 62.2914 10.5664C62.3133 10.5227 62.3463 10.4856 62.3871 10.4586C63.7154 9.73809 68.046 7.73954 72.5759 9.37503C73.6333 9.75928 74.5538 10.4471 75.2219 11.3524V11.3579C75.1993 12.7141 75.5506 14.0502 76.2373 15.2199L76.2424 15.2484Z" fill="#77B508"/>
</g>
<path d="M25.5813 33.7185C25.469 33.8308 25.3567 33.9431 25.2444 34.0554C25.5963 34.4436 25.9931 34.7972 26.4021 35.1207C29.5639 37.5905 33.9304 38.7682 37.9671 37.6701C38.621 37.4963 39.2634 37.2932 39.8954 37.0636C44.3861 35.5191 47.9451 32.3121 51.9946 30.4384C52.452 30.2498 52.9214 30.0938 53.4033 29.9928C53.3791 29.8358 53.355 29.6788 53.3308 29.5218C52.8038 29.5762 52.286 29.6935 51.7836 29.8475C47.3145 31.4489 43.7248 34.4188 39.4615 35.8693C38.8606 36.0877 38.253 36.2842 37.6362 36.4569C34.0345 37.4891 30.005 36.6743 26.768 34.6111C26.3527 34.3418 25.9449 34.0437 25.5813 33.7185Z" fill="#364573"/>
<path d="M31.8316 22.9974C31.7879 22.8447 31.7443 22.692 31.7007 22.5392C31.4731 22.5768 31.2466 22.6232 31.0215 22.6762C30.1774 22.8784 29.347 23.1605 28.5521 23.5922C27.8129 24.0431 26.8088 24.5688 26.6922 25.9449C26.6929 26.0867 26.6971 26.2116 26.7596 26.4024C26.8123 26.5741 26.9764 26.8216 27.2066 26.9387C27.6752 27.1551 27.9331 27.0409 28.1462 27.0045C30.3291 26.2333 31.752 24.8208 33.619 24.7834C33.8158 24.7899 34.011 24.822 34.2009 24.8874C34.2719 24.7453 34.3429 24.6032 34.4139 24.4612C34.2005 24.3246 33.9615 24.2256 33.7155 24.1635C31.4129 23.7331 29.436 25.2459 27.8388 25.7716C27.739 25.8088 27.6416 25.7608 27.8064 25.8234C27.8876 25.8632 27.9476 25.9643 27.9492 25.9846C27.956 26.0101 27.9462 25.9888 27.9455 25.9449C27.9762 25.0092 29.8306 23.9395 31.2277 23.2687C31.4272 23.1741 31.629 23.0828 31.8316 22.9974Z" fill="#364573"/>
<path d="M45.8089 23.6329C45.7652 23.4802 45.7216 23.3274 45.678 23.1747C45.4504 23.2123 45.2238 23.2587 44.9988 23.3117C44.1547 23.5138 43.3243 23.796 42.5294 24.2277C41.7902 24.6786 40.7861 25.2043 40.6695 26.5804C40.6702 26.7222 40.6744 26.8471 40.7369 27.0379C40.7896 27.2096 40.9537 27.4571 41.1839 27.5742C41.6525 27.7906 41.9104 27.6764 42.1235 27.64C44.3064 26.8688 45.7293 25.4563 47.5963 25.4189C47.7931 25.4254 47.9883 25.4575 48.1781 25.5229C48.2492 25.3808 48.3202 25.2387 48.3912 25.0967C48.1778 24.96 47.9388 24.8611 47.6928 24.799C45.3902 24.3686 43.4133 25.8814 41.8161 26.4071C41.7163 26.4443 41.6189 26.3963 41.7837 26.4589C41.8649 26.4987 41.9249 26.5997 41.9265 26.6201C41.9333 26.6456 41.9235 26.6243 41.9228 26.5804C41.9535 25.6447 43.8079 24.575 45.205 23.9042C45.4045 23.8096 45.6063 23.7183 45.8089 23.6329Z" fill="#364573"/>
<defs>
<clipPath id="clip0_154_2132">
<rect width="32.4015" height="14.6124" fill="white" transform="translate(62.2617 1.16748)"/>
</clipPath>
</defs>
</svg>
