<svg width="1417" height="238" viewBox="0 0 1417 238" fill="none" xmlns="http://www.w3.org/2000/svg">
<path opacity="0.07" d="M1370.14 248.091V162.019C1370.14 157.856 1369.92 152.568 1369.47 146.154C1369.02 139.629 1367.61 133.103 1365.25 126.577C1362.89 120.051 1359 114.594 1353.6 110.206C1348.31 105.818 1340.78 103.624 1330.99 103.624C1327.05 103.624 1322.83 104.243 1318.33 105.481C1313.83 106.719 1309.61 109.138 1305.67 112.738C1301.73 116.226 1298.47 121.401 1295.88 128.265C1293.41 135.128 1292.17 144.242 1292.17 155.605L1265.84 143.117C1265.84 128.715 1268.77 115.213 1274.62 102.612C1280.47 90.0104 1289.25 79.8279 1300.95 72.0645C1312.76 64.3011 1327.61 60.4194 1345.5 60.4194C1359.79 60.4194 1371.44 62.8385 1380.44 67.6765C1389.44 72.5146 1396.41 78.6466 1401.36 86.0724C1406.43 93.4983 1410.03 101.262 1412.17 109.363C1414.3 117.351 1415.6 124.664 1416.05 131.303C1416.5 137.941 1416.72 142.779 1416.72 145.817V248.091H1370.14ZM1245.59 248.091V65.8201H1286.43V126.24H1292.17V248.091H1245.59Z" fill="#F2E8CF"/>
<path opacity="0.07" d="M1150.27 40.5047V0H1196.18V40.5047H1150.27ZM1150.27 248.091V65.8201H1196.18V248.091H1150.27Z" fill="#F2E8CF"/>
<path opacity="0.07" d="M1010.7 253.154C993.933 253.154 979.25 248.935 966.648 240.496C954.047 232.058 944.202 220.582 937.114 206.067C930.138 191.553 926.65 175.183 926.65 156.956C926.65 138.391 930.194 121.908 937.283 107.506C944.483 92.9919 954.553 81.5718 967.492 73.2459C980.431 64.9199 995.621 60.7569 1013.06 60.7569C1030.39 60.7569 1044.96 64.9762 1056.77 73.4146C1068.59 81.8531 1077.53 93.3295 1083.61 107.844C1089.68 122.358 1092.72 138.728 1092.72 156.956C1092.72 175.183 1089.63 191.553 1083.44 206.067C1077.36 220.582 1068.25 232.058 1056.1 240.496C1043.94 248.935 1028.81 253.154 1010.7 253.154ZM1018.12 212.312C1028.36 212.312 1036.52 210.005 1042.59 205.392C1048.78 200.779 1053.23 194.31 1055.93 185.984C1058.63 177.658 1059.98 167.982 1059.98 156.956C1059.98 145.929 1058.63 136.253 1055.93 127.927C1053.23 119.601 1048.9 113.132 1042.93 108.519C1037.08 103.906 1029.37 101.599 1019.81 101.599C1009.57 101.599 1001.13 104.131 994.495 109.194C987.97 114.144 983.132 120.839 979.981 129.277C976.831 137.603 975.256 146.829 975.256 156.956C975.256 167.194 976.775 176.533 979.812 184.971C982.85 193.297 987.52 199.936 993.82 204.886C1000.12 209.837 1008.22 212.312 1018.12 212.312ZM1059.98 248.091V123.202H1054.24V5.06299H1100.48V248.091H1059.98Z" fill="#F2E8CF"/>
<path opacity="0.07" d="M800.579 253.154C783.815 253.154 769.132 248.935 756.53 240.496C743.929 232.058 734.084 220.582 726.996 206.067C720.02 191.553 716.532 175.183 716.532 156.956C716.532 138.391 720.076 121.908 727.164 107.506C734.365 92.9919 744.435 81.5718 757.374 73.2459C770.313 64.9199 785.502 60.7569 802.942 60.7569C820.269 60.7569 834.839 64.9762 846.653 73.4146C858.467 81.8531 867.412 93.3295 873.488 107.844C879.563 122.358 882.601 138.728 882.601 156.956C882.601 175.183 879.507 191.553 873.319 206.067C867.243 220.582 858.13 232.058 845.978 240.496C833.827 248.935 818.694 253.154 800.579 253.154ZM808.005 212.312C818.244 212.312 826.401 210.005 832.477 205.392C838.665 200.779 843.109 194.31 845.809 185.984C848.51 177.658 849.86 167.982 849.86 156.956C849.86 145.929 848.51 136.253 845.809 127.927C843.109 119.601 838.777 113.132 832.814 108.519C826.963 103.906 819.256 101.599 809.693 101.599C799.454 101.599 791.016 104.131 784.377 109.194C777.852 114.144 773.013 120.839 769.863 129.277C766.713 137.603 765.138 146.829 765.138 156.956C765.138 167.194 766.656 176.533 769.694 184.971C772.732 193.297 777.401 199.936 783.702 204.886C790.003 209.837 798.104 212.312 808.005 212.312ZM849.86 248.091V123.202H844.122V5.06299H890.365V248.091H849.86Z" fill="#F2E8CF"/>
<path opacity="0.07" d="M581.345 253.155C568.293 253.155 557.211 250.679 548.097 245.729C539.096 240.666 532.233 233.971 527.507 225.645C522.894 217.207 520.588 207.924 520.588 197.798C520.588 189.36 521.882 181.653 524.47 174.677C527.057 167.701 531.22 161.569 536.958 156.281C542.809 150.88 550.629 146.38 560.417 142.779C567.168 140.304 575.213 138.11 584.552 136.197C593.89 134.285 604.466 132.484 616.28 130.797C628.094 128.996 641.089 127.027 655.266 124.89L638.727 134.003C638.727 123.202 636.139 115.27 630.963 110.207C625.788 105.144 617.124 102.612 604.973 102.612C598.222 102.612 591.19 104.244 583.876 107.506C576.563 110.769 571.444 116.564 568.518 124.89L527.001 111.726C531.614 96.649 540.278 84.3851 552.992 74.934C565.706 65.4829 583.033 60.7573 604.973 60.7573C621.062 60.7573 635.351 63.2326 647.84 68.1832C660.329 73.1337 669.78 81.6847 676.193 93.8362C679.794 100.587 681.932 107.338 682.607 114.088C683.282 120.839 683.619 128.378 683.619 136.704V248.091H643.452V210.625L649.19 218.388C640.302 230.652 630.682 239.541 620.331 245.054C610.092 250.454 597.097 253.155 581.345 253.155ZM591.134 217.038C599.572 217.038 606.66 215.575 612.398 212.65C618.249 209.612 622.862 206.18 626.238 202.355C629.726 198.53 632.088 195.323 633.326 192.735C635.689 187.785 637.039 182.046 637.376 175.521C637.826 168.882 638.051 163.369 638.051 158.981L651.553 162.357C637.939 164.607 626.913 166.52 618.474 168.095C610.036 169.557 603.229 170.908 598.053 172.145C592.878 173.383 588.321 174.733 584.383 176.196C579.882 177.996 576.226 179.965 573.413 182.103C570.712 184.128 568.687 186.378 567.337 188.853C566.099 191.329 565.481 194.085 565.481 197.123C565.481 201.286 566.493 204.886 568.518 207.924C570.656 210.85 573.638 213.1 577.463 214.675C581.289 216.25 585.845 217.038 591.134 217.038Z" fill="#F2E8CF"/>
<path opacity="0.07" d="M435.056 248.091V0H480.961V248.091H435.056Z" fill="#F2E8CF"/>
<path opacity="0.07" d="M286.368 253.155C273.316 253.155 262.234 250.679 253.12 245.729C244.119 240.666 237.256 233.971 232.53 225.645C227.917 217.207 225.611 207.924 225.611 197.798C225.611 189.36 226.904 181.653 229.492 174.677C232.08 167.701 236.243 161.569 241.981 156.281C247.832 150.88 255.652 146.38 265.44 142.779C272.191 140.304 280.236 138.11 289.574 136.197C298.913 134.285 309.489 132.484 321.303 130.797C333.117 128.996 346.112 127.027 360.289 124.89L343.749 134.003C343.749 123.202 341.161 115.27 335.986 110.207C330.81 105.144 322.147 102.612 309.995 102.612C303.245 102.612 296.213 104.244 288.899 107.506C281.586 110.769 276.466 116.564 273.541 124.89L232.024 111.726C236.637 96.649 245.3 84.3851 258.014 74.934C270.728 65.4829 288.055 60.7573 309.995 60.7573C326.085 60.7573 340.374 63.2326 352.863 68.1832C365.352 73.1337 374.803 81.6847 381.216 93.8362C384.816 100.587 386.954 107.338 387.629 114.088C388.304 120.839 388.642 128.378 388.642 136.704V248.091H348.475V210.625L354.213 218.388C345.324 230.652 335.705 239.541 325.353 245.054C315.115 250.454 302.119 253.155 286.368 253.155ZM296.156 217.038C304.595 217.038 311.683 215.575 317.421 212.65C323.272 209.612 327.885 206.18 331.26 202.355C334.748 198.53 337.111 195.323 338.349 192.735C340.711 187.785 342.062 182.046 342.399 175.521C342.849 168.882 343.074 163.369 343.074 158.981L356.576 162.357C342.962 164.607 331.935 166.52 323.497 168.095C315.058 169.557 308.251 170.908 303.076 172.145C297.9 173.383 293.343 174.733 289.405 176.196C284.905 177.996 281.248 179.965 278.435 182.103C275.735 184.128 273.71 186.378 272.36 188.853C271.122 191.329 270.503 194.085 270.503 197.123C270.503 201.286 271.516 204.886 273.541 207.924C275.679 210.85 278.66 213.1 282.486 214.675C286.311 216.25 290.868 217.038 296.156 217.038Z" fill="#F2E8CF"/>
<path opacity="0.07" d="M101.937 253.154C83.9347 253.154 67.6766 250.004 53.1624 243.703C38.7607 237.29 26.8906 228.176 17.552 216.362C8.32596 204.436 2.47529 190.259 0 173.833L47.9305 166.744C51.3059 180.696 58.2817 191.441 68.858 198.979C79.4342 206.518 91.4731 210.287 104.975 210.287C112.513 210.287 119.826 209.105 126.915 206.743C134.003 204.38 139.797 200.892 144.298 196.279C148.911 191.666 151.217 185.984 151.217 179.233C151.217 176.758 150.824 174.395 150.036 172.145C149.361 169.782 148.18 167.588 146.492 165.563C144.804 163.538 142.385 161.625 139.235 159.825C136.197 158.024 132.315 156.393 127.59 154.93L64.47 136.366C59.7444 135.016 54.2313 133.103 47.9305 130.628C41.7423 128.152 35.7229 124.608 29.8722 119.995C24.0215 115.382 19.1272 109.306 15.1893 101.768C11.3638 94.1171 9.45109 84.4972 9.45109 72.9084C9.45109 56.594 13.5578 43.0362 21.7713 32.2349C29.9847 21.4337 40.9547 13.389 54.6813 8.10091C68.4079 2.81279 83.5972 0.224982 100.249 0.337501C117.014 0.562524 131.978 3.43161 145.142 8.94475C158.306 14.4579 169.332 22.5026 178.221 33.0788C187.109 43.5425 193.522 56.369 197.46 71.5583L147.842 79.9967C146.042 72.1208 142.723 65.4825 137.885 60.0819C133.047 54.6813 127.252 50.5746 120.501 47.7617C113.863 44.9489 106.887 43.43 99.574 43.2049C92.3732 42.9799 85.5661 43.9925 79.1529 46.2428C72.8522 48.3806 67.6766 51.5309 63.6261 55.6939C59.6882 59.8569 57.7192 64.8075 57.7192 70.5456C57.7192 75.8337 59.3506 80.1655 62.6135 83.5409C65.8764 86.8038 69.9831 89.4478 74.9337 91.473C79.8842 93.4983 84.9473 95.186 90.1229 96.5361L132.315 108.012C138.616 109.7 145.592 111.95 153.243 114.763C160.894 117.464 168.207 121.289 175.183 126.24C182.271 131.078 188.066 137.491 192.566 145.479C197.179 153.468 199.486 163.594 199.486 175.858C199.486 188.909 196.729 200.329 191.216 210.118C185.815 219.794 178.502 227.839 169.276 234.252C160.05 240.553 149.586 245.278 137.885 248.429C126.296 251.579 114.313 253.154 101.937 253.154Z" fill="#F2E8CF"/>
</svg>
