<svg width="469" height="206" viewBox="0 0 469 206" fill="none" xmlns="http://www.w3.org/2000/svg">
<path d="M11.5622 193.415C11.3456 194.422 10.9414 195.219 10.3495 195.807C9.75295 196.394 9.02173 196.775 8.15587 196.952C7.29 197.128 6.33966 197.105 5.30485 196.882C4.27004 196.66 3.39424 196.29 2.67746 195.773C1.96067 195.256 1.45339 194.608 1.15563 193.829C0.853181 193.049 0.810241 192.155 1.02681 191.148C1.24337 190.142 1.64944 189.347 2.24501 188.765C2.8369 188.177 3.56578 187.795 4.43164 187.619C5.29751 187.442 6.24785 187.466 7.28266 187.688C8.31747 187.911 9.19327 188.281 9.91006 188.797C10.6268 189.314 11.1365 189.963 11.4389 190.743C11.7377 191.517 11.7788 192.408 11.5622 193.415ZM10.7685 193.244C10.9515 192.416 10.9128 191.685 10.6524 191.051C10.3873 190.416 9.94732 189.888 9.33248 189.467C8.71765 189.045 7.97242 188.741 7.09682 188.552C6.22121 188.364 5.41655 188.335 4.68286 188.466C3.94916 188.598 3.33325 188.899 2.83511 189.37C2.33698 189.841 1.99876 190.49 1.82047 191.319C1.6375 192.147 1.67622 192.878 1.93664 193.512C2.19806 194.141 2.63853 194.667 3.25805 195.09C3.87289 195.511 4.6171 195.821 5.4907 196.018C6.36429 196.216 7.16794 196.249 7.90163 196.118C8.63165 195.981 9.24858 195.675 9.7524 195.201C10.2515 194.725 10.5903 194.073 10.7685 193.244ZM12.8403 186.677L2.84142 184.022L3.0553 183.216L13.1684 179.702L4.59299 177.425L4.80686 176.62L14.8057 179.275L14.5919 180.08L4.46486 183.59L13.0542 185.871L12.8403 186.677ZM17.0023 172.779C16.6917 173.761 16.214 174.516 15.5693 175.046C14.92 175.574 14.156 175.885 13.2774 175.978C12.3987 176.072 11.4548 175.96 10.4456 175.64C9.43644 175.321 8.59944 174.87 7.93461 174.288C7.26979 173.706 6.82592 173.013 6.60303 172.209C6.37557 171.404 6.41714 170.51 6.72774 169.528C7.09035 168.382 7.68116 167.547 8.50016 167.022C9.32061 166.493 10.269 166.258 11.3454 166.317L11.2862 167.195C10.3932 167.144 9.61368 167.329 8.94761 167.752C8.27841 168.168 7.79646 168.842 7.50175 169.773C7.24605 170.582 7.21791 171.314 7.41732 171.97C7.61818 172.621 8.00405 173.187 8.57494 173.669C9.14728 174.147 9.85969 174.523 10.7122 174.798C11.5632 175.077 12.3601 175.186 13.1029 175.125C13.8426 175.057 14.4856 174.811 15.032 174.386C15.5738 173.96 15.9725 173.342 16.2282 172.534C16.523 171.603 16.5163 170.774 16.2083 170.049C15.9017 169.319 15.3706 168.719 14.6151 168.249L15.0716 167.496C15.9862 168.067 16.6269 168.805 16.9938 169.709C17.362 170.61 17.3649 171.633 17.0023 172.779ZM18.8723 166.297L9.15261 162.754L11.3425 156.747L12.0985 157.022L10.1916 162.253L13.8837 163.599L15.4954 159.178L16.2513 159.454L14.6397 163.875L18.3993 165.245L20.3062 160.014L21.0622 160.29L18.8723 166.297ZM25.0693 151.092C24.7602 151.804 24.3383 152.372 23.8035 152.798C23.2663 153.217 22.661 153.469 21.9876 153.552C21.3118 153.63 20.6115 153.511 19.8866 153.196L13.7913 150.548L14.1234 149.784L20.0605 152.363C20.6008 152.598 21.1034 152.709 21.5682 152.697C22.0306 152.678 22.4455 152.576 22.8131 152.391C23.1825 152.202 23.4969 151.965 23.7561 151.681C24.0173 151.392 24.2156 151.092 24.3511 150.78C24.4865 150.468 24.5706 150.118 24.6033 149.73C24.636 149.343 24.5946 148.951 24.4789 148.556C24.3632 148.161 24.1534 147.791 23.8494 147.445C23.543 147.092 23.1196 146.799 22.5793 146.564L16.6421 143.985L16.9741 143.221L23.0694 145.868C23.7899 146.181 24.3516 146.613 24.7545 147.164C25.155 147.709 25.3844 148.323 25.4427 149.006C25.5029 149.685 25.3784 150.38 25.0693 151.092ZM27.5927 144.855L18.2973 140.313L20.0098 136.808C20.0539 136.718 20.1055 136.623 20.1646 136.524C20.2214 136.418 20.289 136.313 20.3673 136.207C20.6675 135.778 21.0298 135.462 21.4542 135.259C21.8764 135.049 22.3286 134.953 22.8107 134.97C23.2885 134.985 23.7641 135.108 24.2375 135.339C24.7151 135.573 25.1088 135.874 25.4186 136.244C25.724 136.612 25.9259 137.028 26.0244 137.492C26.1208 137.949 26.092 138.428 25.9381 138.929C25.8985 139.053 25.8568 139.172 25.8128 139.283C25.7709 139.391 25.7279 139.49 25.6838 139.58L24.334 142.343L27.9553 144.112L27.5927 144.855ZM23.6046 141.987L24.9481 139.237C24.9859 139.159 25.0247 139.069 25.0644 138.966C25.1063 138.858 25.1438 138.749 25.1771 138.637C25.2722 138.268 25.2733 137.922 25.1804 137.599C25.0832 137.274 24.9177 136.986 24.684 136.733C24.4504 136.48 24.1743 136.276 23.8559 136.12C23.5374 135.965 23.2089 135.874 22.8702 135.847C22.5272 135.818 22.1999 135.866 21.8883 135.991C21.5724 136.114 21.298 136.326 21.0652 136.628C20.9932 136.721 20.9277 136.817 20.8686 136.916C20.8117 137.011 20.7643 137.097 20.7264 137.174L19.383 139.924L23.6046 141.987ZM33.8503 133.052C33.3579 133.957 32.7448 134.607 32.0108 135.004C31.2726 135.398 30.4633 135.557 29.583 135.482C28.7026 135.406 27.7976 135.115 26.8679 134.609C25.9383 134.103 25.2028 133.501 24.6613 132.802C24.1199 132.104 23.8165 131.339 23.7513 130.507C23.6818 129.673 23.8932 128.804 24.3856 127.9C24.878 126.995 25.4921 126.348 26.228 125.958C26.962 125.561 27.7692 125.401 28.6495 125.477C29.5299 125.552 30.4349 125.843 31.3646 126.349C32.2942 126.855 33.0297 127.458 33.5712 128.156C34.1126 128.854 34.4181 129.62 34.4875 130.454C34.5551 131.282 34.3427 132.148 33.8503 133.052ZM33.1373 132.664C33.5469 131.922 33.7164 131.21 33.6459 130.528C33.5712 129.844 33.2985 129.213 32.8279 128.635C32.3573 128.057 31.7287 127.554 30.942 127.125C30.1554 126.697 29.3917 126.442 28.6508 126.361C27.91 126.279 27.234 126.394 26.6231 126.705C26.0121 127.016 25.504 127.543 25.0986 128.288C24.6891 129.03 24.5195 129.742 24.59 130.424C24.6628 131.102 24.9366 131.731 25.4115 132.311C25.8821 132.889 26.5084 133.396 27.2905 133.833C28.0725 134.269 28.834 134.529 29.5748 134.61C30.3137 134.685 30.9919 134.566 31.6094 134.254C32.2227 133.939 32.732 133.409 33.1373 132.664ZM36.9808 126.95L28.1379 121.581L28.5704 120.869L39.2642 120.352L31.6801 115.747L32.1126 115.035L40.9556 120.404L40.5231 121.117L29.817 121.626L37.4134 126.238L36.9808 126.95ZM43.9619 115.677L37.5491 106.77L38.1346 105.926L48.7236 108.811L48.2241 109.531L38.0711 106.774L38.3086 106.431L44.4614 114.957L43.9619 115.677ZM42.6887 112.949L42.0453 112.503L45.0751 108.134L45.7185 108.581L42.6887 112.949ZM53.7985 102.063L46.2752 96.1959L43.9954 99.119L43.3609 98.6242L48.4286 92.1263L49.0631 92.6212L46.7833 95.5444L54.3066 101.412L53.7985 102.063ZM57.8506 96.9208L49.8777 90.3285L50.4041 89.6918L58.3771 96.2841L57.8506 96.9208ZM60.2396 94.091L52.5208 87.2029L53.0326 86.6293L62.6838 89.5609L58.6484 80.3364L59.1793 79.7414L66.8874 86.62L66.3469 87.2257L60.0593 81.6147L63.7937 90.1084L63.344 90.6122L54.477 87.8701L60.7753 93.4907L60.2396 94.091ZM68.748 84.6266L61.3568 77.3881L65.8306 72.8199L66.4055 73.3829L62.5097 77.3608L65.3174 80.1104L68.6099 76.7484L69.1848 77.3114L65.8923 80.6734L68.7512 83.4733L72.647 79.4954L73.2218 80.0584L68.748 84.6266ZM75.8131 79.4313L75.5462 79.0702C75.6807 78.9544 75.7423 78.8388 75.7311 78.7234C75.7233 78.6114 75.6714 78.4986 75.5755 78.3848C75.4864 78.2712 75.3803 78.1572 75.2573 78.0429L74.853 78.4309L73.8829 77.4202L74.6345 76.6989L75.8533 77.9688C76.1153 78.2418 76.2402 78.5136 76.2278 78.7844C76.2155 79.0551 76.0773 79.2707 75.8131 79.4313ZM83.5383 70.7423C83.0063 71.2107 82.4488 71.545 81.8659 71.7454C81.2866 71.9427 80.7143 72.0029 80.1491 71.9262C79.5874 71.8463 79.0637 71.6246 78.5778 71.261L79.1192 70.5931C79.7079 70.9937 80.3511 71.1518 81.0488 71.0673C81.7501 70.9796 82.4081 70.6652 83.0229 70.1241C83.4399 69.757 83.7499 69.3661 83.9528 68.9515C84.1557 68.5368 84.241 68.1299 84.2087 67.7308C84.1733 67.3281 84.0132 66.965 83.7284 66.6414C83.5227 66.4077 83.3071 66.2498 83.0816 66.1675C82.8597 66.0821 82.6379 66.0476 82.4162 66.064C82.1915 66.0769 81.9767 66.1192 81.7719 66.191C81.5639 66.2592 81.376 66.332 81.2082 66.4096L78.7433 67.5454C78.418 67.6978 78.1038 67.8084 77.8008 67.8773C77.4982 67.9395 77.2119 67.9586 76.942 67.9346C76.6725 67.9039 76.4161 67.8264 76.1729 67.7023C75.9333 67.5751 75.7106 67.3946 75.5049 67.1609C75.1378 66.7439 74.9281 66.2809 74.8757 65.7719C74.8233 65.2629 74.9153 64.7512 75.1517 64.2369C75.3885 63.7158 75.7603 63.2322 76.2673 62.786C76.781 62.3402 77.3232 62.032 77.894 61.8614C78.4617 61.6872 79.0237 61.6551 79.58 61.7652C80.1399 61.8722 80.6617 62.1243 81.1454 62.5216L80.6033 63.1997C80.2397 62.8881 79.8366 62.691 79.3939 62.6085C78.9548 62.5229 78.5104 62.5471 78.0607 62.6814C77.6109 62.8156 77.1901 63.0552 76.7983 63.4001C76.4176 63.7288 76.1386 64.086 75.9613 64.4718C75.7876 64.8543 75.7146 65.2281 75.7423 65.5929C75.7699 65.9578 75.9056 66.2787 76.1492 66.5555C76.4024 66.8431 76.6822 67.0052 76.9887 67.0417C77.2956 67.0714 77.6051 67.0351 77.917 66.9328C78.2325 66.8274 78.5215 66.7135 78.7838 66.591L80.7559 65.6783C80.9413 65.5917 81.1713 65.4977 81.4458 65.3965C81.7204 65.2952 82.0214 65.2312 82.3488 65.2046C82.6732 65.1743 83.006 65.2227 83.3475 65.3496C83.6894 65.4698 84.0185 65.7097 84.335 66.0692C84.6419 66.418 84.8507 66.7893 84.9614 67.1832C85.072 67.5771 85.0887 67.9803 85.0116 68.3928C84.9312 68.8017 84.7664 69.2052 84.517 69.6034C84.2708 70.0051 83.9446 70.3847 83.5383 70.7423ZM91.1837 64.3268C90.3803 64.9709 89.5635 65.3342 88.7333 65.4167C87.9001 65.4954 87.0921 65.3299 86.3092 64.9201C85.5264 64.5103 84.8039 63.8925 84.1417 63.0667C83.4796 62.2409 83.0336 61.4014 82.8038 60.5482C82.5739 59.695 82.5895 58.8722 82.8504 58.0797C83.1083 57.2836 83.639 56.5634 84.4424 55.9193C85.2457 55.2751 86.0622 54.9151 86.8916 54.8394C87.7218 54.757 88.5283 54.9206 89.3112 55.3304C90.094 55.7402 90.8165 56.358 91.4787 57.1838C92.1408 58.0096 92.5868 58.8491 92.8167 59.7023C93.0465 60.5555 93.0324 61.3802 92.7745 62.1764C92.5173 62.9658 91.987 63.6826 91.1837 64.3268ZM90.6758 63.6934C91.3402 63.1668 91.7715 62.5754 91.9698 61.9192C92.165 61.2593 92.1571 60.5719 91.9462 59.857C91.7352 59.1422 91.3495 58.4353 90.7893 57.7366C90.229 57.0378 89.6229 56.5078 88.971 56.1465C88.3191 55.7852 87.6513 55.63 86.9677 55.6808C86.2841 55.7317 85.6116 56.0223 84.9502 56.5526C84.2858 57.0792 83.8545 57.6706 83.6563 58.3268C83.4618 58.98 83.4715 59.6659 83.6855 60.3845C83.8965 61.0994 84.2783 61.8092 84.8311 62.5139C85.384 63.2187 85.9863 63.7517 86.6382 64.113C87.2909 64.4676 87.9624 64.6198 88.6527 64.5697C89.3401 64.5158 90.0144 64.2237 90.6758 63.6934ZM96.4312 59.911L90.3946 51.5094L91.0189 51.0609L99.8019 56.0206L97.8684 46.1394L98.5161 45.674L104.544 54.0639L103.885 54.5376L98.9677 47.6939L100.766 56.7963L100.218 57.1903L92.1589 52.586L97.0846 59.4415L96.4312 59.911ZM106.793 52.5206L101.131 43.8619L106.483 40.3627L106.923 41.0362L102.263 44.0832L104.413 47.3723L108.352 44.7971L108.792 45.4706L104.854 48.0458L107.044 51.395L111.704 48.348L112.144 49.0215L106.793 52.5206ZM117.517 46.0375C116.631 46.5623 115.771 46.8072 114.937 46.7721C114.102 46.7329 113.325 46.4555 112.607 45.9397C111.89 45.4239 111.261 44.7107 110.722 43.8C110.182 42.8893 109.859 41.9955 109.751 41.1184C109.644 40.2414 109.775 39.4289 110.144 38.681C110.512 37.929 111.138 37.2906 112.024 36.7658C112.91 36.241 113.769 35.9994 114.601 36.041C115.435 36.0761 116.21 36.3515 116.928 36.8673C117.645 37.383 118.273 38.0963 118.813 39.0069C119.352 39.9176 119.676 40.8115 119.784 41.6886C119.891 42.5656 119.761 43.3801 119.394 44.1321C119.028 44.8775 118.403 45.5127 117.517 46.0375ZM117.103 45.339C117.835 44.9111 118.345 44.3862 118.633 43.7644C118.92 43.1384 119.008 42.4567 118.9 41.7193C118.792 40.9819 118.509 40.2279 118.053 39.4573C117.596 38.6867 117.071 38.0768 116.476 37.6274C115.881 37.178 115.242 36.9305 114.558 36.8848C113.874 36.839 113.167 37.0322 112.438 37.4643C111.706 37.8922 111.196 38.4171 110.908 39.0389C110.623 39.6583 110.536 40.3388 110.647 41.0803C110.756 41.8177 111.034 42.5742 111.482 43.3496C111.93 44.1251 112.452 44.7375 113.046 45.1869C113.643 45.6297 114.286 45.8748 114.977 45.9222C115.665 45.9655 116.374 45.7711 117.103 45.339ZM123.331 42.3988L118.489 33.2561L119.226 32.8661L128.673 37.9032L124.521 30.0622L125.257 29.6722L130.099 38.8148L129.362 39.2048L119.908 34.155L124.067 42.0088L123.331 42.3988ZM132.528 37.5773L128.085 28.2348L133.859 25.4885L134.205 26.2152L129.176 28.6066L130.864 32.1554L135.114 30.1343L135.459 30.8609L131.21 32.8821L132.929 36.4958L137.957 34.1044L138.302 34.831L132.528 37.5773ZM146.451 31.2864L142.833 22.458L139.403 23.8636L139.098 23.119L146.723 19.9947L147.028 20.7392L143.598 22.1448L147.215 30.9731L146.451 31.2864ZM152.392 28.8981L148.88 19.1672L152.549 17.8428C152.644 17.8087 152.747 17.7766 152.858 17.7466C152.972 17.7104 153.094 17.6817 153.224 17.6603C153.738 17.5613 154.219 17.5866 154.665 17.7362C155.114 17.8797 155.505 18.1253 155.84 18.4731C156.172 18.8164 156.428 19.2358 156.607 19.7314C156.865 20.4477 156.899 21.1408 156.708 21.8106C156.517 22.4804 156.105 23.0109 155.472 23.4022L155.281 23.5706L151.801 24.8266L153.169 28.6177L152.392 28.8981ZM158.386 26.7348L155.038 23.4675L155.629 22.8416L159.298 26.4055L158.386 26.7348ZM151.525 24.063L154.404 23.024C154.485 22.9948 154.576 22.9569 154.676 22.9105C154.781 22.8625 154.884 22.8099 154.986 22.7529C155.311 22.554 155.553 22.3064 155.711 22.0101C155.867 21.7093 155.949 21.3869 155.957 21.0427C155.966 20.6986 155.909 20.3599 155.789 20.0265C155.669 19.6931 155.496 19.3989 155.272 19.1439C155.046 18.8843 154.778 18.6909 154.467 18.5637C154.155 18.432 153.81 18.3936 153.432 18.4483C153.316 18.4648 153.202 18.4881 153.091 18.5181C152.984 18.5465 152.89 18.5753 152.809 18.6046L149.93 19.6436L151.525 24.063ZM161.607 25.607L158.372 15.7804L159.157 15.5221L162.391 25.3487L161.607 25.607ZM165.133 24.4763L162.18 14.5614L168.308 12.7363L168.538 13.5074L163.202 15.0967L164.323 18.863L168.833 17.5198L169.063 18.291L164.553 19.6342L165.695 23.4694L171.031 21.8801L171.261 22.6512L165.133 24.4763ZM173.619 21.9946L171.1 11.9606L174.089 11.2102C174.206 11.181 174.394 11.1361 174.656 11.0755C174.922 11.0137 175.178 10.9716 175.424 10.9493C176.202 10.8626 176.898 10.9891 177.512 11.3288C178.124 11.664 178.643 12.156 179.067 12.8049C179.491 13.4492 179.81 14.1987 180.025 15.0535C180.24 15.9129 180.314 16.7289 180.246 17.5014C180.177 18.2693 179.952 18.9456 179.571 19.5303C179.189 20.115 178.635 20.5528 177.908 20.844C177.679 20.9359 177.431 21.0204 177.164 21.0973C176.9 21.1684 176.715 21.2174 176.608 21.2442L173.619 21.9946ZM174.265 20.9956L176.411 20.4568C176.62 20.4044 176.835 20.3455 177.055 20.2802C177.275 20.2103 177.46 20.1416 177.611 20.0741C178.205 19.8063 178.645 19.4342 178.931 18.9576C179.215 18.4764 179.369 17.9216 179.394 17.2932C179.423 16.6589 179.347 15.984 179.167 15.2686C178.987 14.5486 178.735 13.9181 178.411 13.3771C178.086 12.8314 177.686 12.416 177.209 12.1307C176.732 11.8407 176.17 11.7199 175.526 11.7681C175.361 11.7799 175.161 11.8103 174.927 11.8593C174.695 11.9025 174.482 11.9486 174.287 11.9976L172.141 12.5363L174.265 20.9956ZM190.543 18.3462C189.847 18.4791 189.197 18.4838 188.593 18.3602C187.994 18.2356 187.47 17.9967 187.023 17.6434C186.579 17.2891 186.241 16.832 186.007 16.272L186.813 15.9719C187.117 16.6161 187.59 17.0791 188.234 17.3609C188.882 17.6417 189.609 17.7054 190.413 17.5518C190.959 17.4476 191.425 17.2685 191.81 17.0144C192.196 16.7604 192.476 16.4534 192.651 16.0932C192.825 15.7284 192.872 15.3343 192.791 14.9109C192.733 14.6051 192.627 14.3595 192.475 14.174C192.327 13.9877 192.153 13.8453 191.954 13.7468C191.754 13.6436 191.548 13.5709 191.335 13.5286C191.121 13.4817 190.922 13.449 190.738 13.4304L188.038 13.1561C187.681 13.122 187.354 13.0576 187.058 12.963C186.766 12.8627 186.509 12.7337 186.289 12.5758C186.072 12.4124 185.891 12.2154 185.745 11.9849C185.603 11.7535 185.503 11.485 185.444 11.1792C185.34 10.6334 185.395 10.1281 185.608 9.6631C185.822 9.19811 186.161 8.8042 186.626 8.48136C187.095 8.15293 187.661 7.92538 188.324 7.79872C188.993 7.67586 189.617 7.686 190.195 7.82913C190.773 7.96755 191.273 8.22554 191.696 8.60308C192.124 8.97973 192.445 9.46207 192.66 10.0501L191.849 10.3586C191.694 9.90546 191.447 9.53085 191.107 9.23482C190.773 8.93789 190.378 8.73295 189.922 8.62002C189.467 8.50708 188.982 8.49957 188.47 8.59748C187.975 8.6871 187.553 8.85297 187.204 9.0951C186.86 9.33632 186.607 9.62109 186.446 9.94939C186.284 10.2777 186.238 10.623 186.307 10.9852C186.379 11.3616 186.538 11.6433 186.783 11.8305C187.032 12.0121 187.317 12.1381 187.638 12.2086C187.963 12.2781 188.27 12.3268 188.558 12.3547L190.72 12.5708C190.924 12.5904 191.17 12.6264 191.458 12.6787C191.746 12.731 192.037 12.8289 192.333 12.9723C192.628 13.1111 192.89 13.3219 193.119 13.6048C193.353 13.8821 193.514 14.2559 193.604 14.7264C193.691 15.1827 193.682 15.6086 193.577 16.0041C193.473 16.3996 193.282 16.7553 193.006 17.0714C192.729 17.3827 192.382 17.6464 191.965 17.8626C191.549 18.0835 191.075 18.2447 190.543 18.3462ZM195.557 17.1825L197.704 6.41936L198.72 6.27238L203.827 15.9871L202.959 16.1125L198.057 6.80384L198.469 6.74422L196.425 17.0571L195.557 17.1825ZM196.686 14.3917L196.574 13.6166L201.835 12.856L201.947 13.6311L196.686 14.3917ZM205.959 15.7208L204.848 5.4352L205.669 5.34651L206.694 14.8321L211.694 14.2923L211.78 15.0922L205.959 15.7208ZM213.001 14.9722L215.966 4.4055L216.992 4.33698L221.337 14.4149L220.463 14.4734L216.289 4.81595L216.705 4.78816L213.875 14.9138L213.001 14.9722ZM214.34 12.2762L214.288 11.4949L219.592 11.1403L219.644 11.9216L214.34 12.2762ZM223.34 14.3243L223.094 3.9819L226.175 3.90853C226.295 3.90568 226.489 3.90345 226.757 3.90186C227.03 3.90014 227.289 3.91553 227.534 3.94802C228.312 4.03489 228.963 4.31164 229.487 4.77825C230.011 5.24008 230.408 5.83427 230.679 6.56081C230.95 7.28257 231.096 8.08396 231.117 8.96499C231.138 9.8508 231.031 10.663 230.794 11.4016C230.558 12.1355 230.189 12.7455 229.688 13.2318C229.187 13.718 228.55 14.023 227.777 14.1468C227.533 14.1861 227.273 14.2139 226.996 14.2301C226.723 14.2414 226.531 14.2483 226.421 14.251L223.34 14.3243ZM224.19 13.492L226.402 13.4394C226.617 13.4342 226.84 13.4241 227.069 13.4091C227.299 13.3893 227.495 13.363 227.657 13.3304C228.296 13.2002 228.807 12.9342 229.19 12.5322C229.573 12.1254 229.846 11.6183 230.009 11.0107C230.176 10.3983 230.251 9.7234 230.234 8.98602C230.216 8.24386 230.109 7.57328 229.913 6.97431C229.716 6.37054 229.417 5.87702 229.015 5.49374C228.613 5.10567 228.092 4.86416 227.453 4.76919C227.289 4.74434 227.088 4.72998 226.848 4.7261C226.613 4.71733 226.395 4.71533 226.194 4.72012L223.982 4.7728L224.19 13.492ZM237.148 14.14L237.482 3.80005L243.32 3.98867L243.293 4.81443L238.281 4.65249L238.155 8.58025L242.305 8.71434L242.278 9.54729L238.128 9.41319L237.974 14.1667L237.148 14.14ZM249.094 14.9402C248.067 14.8672 247.22 14.5789 246.555 14.0755C245.89 13.5673 245.41 12.8969 245.114 12.0644C244.817 11.2318 244.707 10.2877 244.782 9.23184C244.857 8.17602 245.1 7.25698 245.511 6.47473C245.922 5.69247 246.492 5.09921 247.222 4.69494C247.952 4.2859 248.831 4.11789 249.858 4.19092C250.885 4.26395 251.729 4.55441 252.389 5.0623C253.054 5.56575 253.535 6.23374 253.831 7.06627C254.127 7.8988 254.238 8.84297 254.163 9.89879C254.087 10.9546 253.844 11.8736 253.434 12.6559C253.023 13.4382 252.452 14.0338 251.722 14.4429C250.997 14.8475 250.121 15.0132 249.094 14.9402ZM249.151 14.1304C249.997 14.1953 250.715 14.0543 251.306 13.7074C251.898 13.3558 252.359 12.846 252.69 12.1781C253.02 11.5102 253.218 10.7295 253.281 9.83612C253.345 8.94274 253.26 8.14204 253.027 7.43405C252.794 6.72605 252.409 6.15853 251.873 5.73147C251.337 5.30442 250.646 5.06083 249.8 5.0007C248.955 4.9358 248.237 5.0768 247.646 5.42369C247.059 5.77093 246.6 6.28089 246.269 6.95358C245.938 7.62149 245.736 8.4018 245.663 9.29451C245.59 10.1872 245.67 10.9876 245.903 11.6956C246.141 12.3991 246.531 12.967 247.071 13.3992C247.612 13.8266 248.306 14.0703 249.151 14.1304ZM255.945 15.2569L257.145 4.98133L261.019 5.4338C261.119 5.44546 261.226 5.46272 261.339 5.48557C261.457 5.50421 261.579 5.53293 261.705 5.57171C262.209 5.71258 262.628 5.94949 262.96 6.28246C263.298 6.61122 263.539 7.00582 263.682 7.46626C263.827 7.92194 263.869 8.41143 263.808 8.93472C263.719 9.69111 263.44 10.3264 262.97 10.8405C262.5 11.3546 261.895 11.6456 261.154 11.7134L260.908 11.7787L257.233 11.3495L256.765 15.3527L255.945 15.2569ZM262.274 15.996L260.736 11.5778L261.544 11.2816L263.237 16.1085L262.274 15.996ZM257.327 10.5432L260.367 10.8981C260.452 10.9081 260.55 10.9148 260.661 10.918C260.776 10.9219 260.892 10.9209 261.009 10.9152C261.388 10.8824 261.715 10.7687 261.989 10.574C262.263 10.3745 262.48 10.1227 262.641 9.81838C262.802 9.51409 262.903 9.18593 262.944 8.83389C262.985 8.48186 262.962 8.14163 262.875 7.81322C262.789 7.48004 262.635 7.18721 262.414 6.93474C262.193 6.67751 261.901 6.48917 261.539 6.36972C261.428 6.3326 261.316 6.30262 261.203 6.27977C261.094 6.25748 260.997 6.24134 260.912 6.23134L257.872 5.87636L257.327 10.5432ZM269.068 16.9633L270.855 6.77331L274.754 7.45673C275.282 7.54934 275.736 7.74566 276.116 8.0457C276.502 8.34185 276.781 8.70443 276.954 9.13344C277.132 9.56328 277.178 10.0212 277.093 10.5071C276.997 11.0543 276.759 11.5208 276.381 11.9067C276.003 12.2878 275.548 12.5218 275.018 12.6087L275.049 12.264C275.683 12.5843 276.154 13.017 276.462 13.5621C276.776 14.1033 276.872 14.723 276.749 15.4212C276.647 16.0062 276.429 16.4859 276.096 16.8603C275.768 17.2308 275.358 17.4896 274.866 17.6366C274.374 17.779 273.84 17.7997 273.265 17.6988L269.068 16.9633ZM270.03 16.3076L273.136 16.8521C273.589 16.9315 274.008 16.9247 274.394 16.8319C274.785 16.7399 275.109 16.5658 275.368 16.3097C275.632 16.0544 275.8 15.7192 275.873 15.3041C275.945 14.8936 275.913 14.5064 275.777 14.1422C275.647 13.7742 275.436 13.4649 275.145 13.2145C274.854 12.9593 274.506 12.7961 274.1 12.725L270.76 12.1396L270.03 16.3076ZM270.898 11.3541L273.969 11.8924C274.323 11.9544 274.66 11.9285 274.982 11.8146C275.308 11.7016 275.583 11.5189 275.807 11.2664C276.032 11.0092 276.177 10.6967 276.241 10.3287C276.333 9.80504 276.221 9.35015 275.904 8.96403C275.593 8.57873 275.161 8.33771 274.609 8.24097L271.538 7.70267L270.898 11.3541ZM278.363 18.6365L280.587 8.53285L284.397 9.37122C284.495 9.39284 284.599 9.42068 284.709 9.45474C284.825 9.48515 284.944 9.52594 285.065 9.57712C285.553 9.76781 285.945 10.0454 286.242 10.41C286.546 10.771 286.746 11.1877 286.843 11.6603C286.941 12.1281 286.933 12.6193 286.82 13.1339C286.656 13.8776 286.315 14.4817 285.796 14.9462C285.277 15.4106 284.645 15.6395 283.901 15.6327L283.65 15.673L280.036 14.8778L279.17 18.814L278.363 18.6365ZM284.587 20.006L283.499 15.4559L284.333 15.2422L285.534 20.2144L284.587 20.006ZM280.211 14.085L283.2 14.7427C283.284 14.7612 283.381 14.7777 283.491 14.792C283.605 14.8073 283.72 14.818 283.837 14.824C284.218 14.8294 284.554 14.749 284.846 14.5827C285.139 14.4117 285.38 14.1829 285.571 13.8962C285.762 13.6096 285.895 13.2932 285.971 12.947C286.047 12.6009 286.058 12.2601 286.005 11.9246C285.952 11.5844 285.828 11.2777 285.634 11.0043C285.44 10.7263 285.169 10.5097 284.82 10.3545C284.713 10.3064 284.604 10.2654 284.494 10.2313C284.389 10.1983 284.294 10.1725 284.21 10.154L281.221 9.49624L280.211 14.085ZM287.77 20.7498L290.416 10.7486L296.598 12.3842L296.392 13.1621L291.009 11.7378L290.004 15.5369L294.553 16.7406L294.347 17.5185L289.798 16.3147L288.775 20.1832L294.157 21.6075L293.951 22.3854L287.77 20.7498ZM295.62 22.8386L302.16 14.0246L303.142 14.3261L303.607 25.2913L302.769 25.034L302.315 14.5231L302.713 14.6454L296.458 23.0959L295.62 22.8386ZM297.833 20.7975L298.063 20.0489L303.145 21.6095L302.915 22.3581L297.833 20.7975ZM305.51 25.9204L308.965 16.1689L309.744 16.4447L308.103 21.0767L314.382 18.0881L315.412 18.4527L309.086 21.4859L312.363 28.3482L311.321 27.9787L308.055 21.2122L306.289 26.1963L305.51 25.9204ZM313.977 28.9589L317.786 19.3399L323.216 21.4898L322.912 22.258L318.25 20.4122L316.803 24.0661L320.664 25.5946L320.357 26.3695L316.496 24.8409L314.746 29.263L313.977 28.9589ZM320.47 31.5409L327.994 23.5511L328.934 23.9653L328.116 34.9098L327.314 34.5564L328.09 24.0643L328.471 24.2323L321.272 31.8943L320.47 31.5409ZM322.906 29.7722L323.221 29.0556L328.087 31.1991L327.771 31.9157L322.906 29.7722ZM332.732 37.3892C332.096 37.076 331.575 36.6883 331.167 36.2259C330.764 35.7657 330.49 35.2597 330.345 34.708C330.204 34.1583 330.21 33.5896 330.36 33.0018L331.184 33.2474C331.038 33.9444 331.138 34.5993 331.482 35.2119C331.831 35.8267 332.372 36.315 333.107 36.6768C333.605 36.9223 334.085 37.0597 334.546 37.089C335.006 37.1183 335.415 37.0419 335.772 36.8599C336.13 36.6735 336.405 36.3869 336.595 36.0002C336.733 35.7209 336.797 35.4613 336.787 35.2215C336.781 34.9838 336.728 34.7656 336.629 34.567C336.531 34.3641 336.41 34.1817 336.265 34.0198C336.123 33.8536 335.984 33.7077 335.848 33.5822L333.858 31.7371C333.593 31.4946 333.371 31.2464 333.191 30.9926C333.019 30.7366 332.892 30.4792 332.811 30.2205C332.736 29.9597 332.71 29.6932 332.732 29.421C332.758 29.1509 332.84 28.8763 332.978 28.597C333.223 28.0986 333.571 27.728 334.022 27.4854C334.472 27.2428 334.98 27.1326 335.546 27.1548C336.118 27.1749 336.707 27.3342 337.313 27.6325C337.921 27.9373 338.412 28.3209 338.788 28.7834C339.166 29.2417 339.41 29.7489 339.52 30.3051C339.635 30.8635 339.601 31.442 339.418 32.0408L338.584 31.7984C338.734 31.3434 338.762 30.8956 338.67 30.4549C338.581 30.0163 338.389 29.6148 338.094 29.2503C337.798 28.8858 337.416 28.5883 336.947 28.3576C336.498 28.1312 336.062 28.0096 335.638 27.9929C335.218 27.9783 334.844 28.0534 334.518 28.2182C334.191 28.3829 333.946 28.6307 333.783 28.9616C333.614 29.3053 333.571 29.6258 333.654 29.9231C333.744 30.2181 333.895 30.4903 334.109 30.7396C334.327 30.991 334.542 31.2146 334.755 31.4104L336.352 32.8851C336.502 33.0234 336.677 33.2001 336.875 33.4153C337.074 33.6304 337.248 33.8843 337.397 34.1768C337.549 34.465 337.631 34.7912 337.644 35.1553C337.664 35.5171 337.567 35.9129 337.356 36.3426C337.151 36.7594 336.887 37.0941 336.565 37.3466C336.243 37.5992 335.877 37.7685 335.466 37.8545C335.057 37.9362 334.622 37.9378 334.158 37.8592C333.693 37.7849 333.218 37.6283 332.732 37.3892ZM340.568 41.1788L345.121 32.7945L341.863 31.0254L342.247 30.3183L349.489 34.2506L349.105 34.9577L345.847 33.1887L341.294 41.5731L340.568 41.1788ZM346.299 44.3437L346.833 43.4492L347.727 43.983L347.193 44.8776L346.299 44.3437ZM348.6 45.717L349.134 44.8225L350.028 45.3563L349.495 46.2508L348.6 45.717ZM350.907 47.094L351.441 46.1994L352.336 46.7333L351.802 47.6278L350.907 47.094ZM356.672 50.6944L365.518 44.199L366.368 44.7766L363.581 55.392L362.857 54.8992L365.519 44.7211L365.864 44.9553L357.397 51.1872L356.672 50.6944ZM359.387 49.396L359.828 48.7484L364.224 51.7374L363.784 52.385L359.387 49.396ZM365.213 56.5549L371.399 48.2625L372.067 48.7608L371.565 59.4553L376.87 52.3434L377.538 52.8417L371.352 61.1341L370.684 60.6358L371.195 49.9298L365.881 57.0532L365.213 56.5549ZM373.51 62.8L380.062 54.7944L382.447 56.7465C382.54 56.8223 382.689 56.9471 382.893 57.1207C383.101 57.2973 383.288 57.4778 383.453 57.6621C383.986 58.2351 384.3 58.8692 384.393 59.5644C384.489 60.256 384.403 60.9657 384.136 61.6935C383.871 62.4176 383.46 63.1207 382.901 63.8027C382.34 64.4883 381.729 65.0343 381.069 65.4406C380.411 65.8432 379.734 66.0656 379.037 66.1079C378.34 66.1503 377.658 65.9665 376.991 65.5566C376.781 65.4278 376.565 65.2792 376.344 65.1106C376.13 64.9414 375.98 64.8219 375.895 64.7521L373.51 62.8ZM374.697 62.7224L376.409 64.1239C376.576 64.2604 376.751 64.3978 376.935 64.536C377.122 64.6705 377.288 64.7782 377.432 64.8591C378.001 65.1766 378.562 65.3078 379.115 65.2527C379.671 65.1938 380.208 64.987 380.728 64.6322C381.254 64.2768 381.751 63.8137 382.218 63.243C382.688 62.6685 383.044 62.0901 383.285 61.5078C383.53 60.9218 383.624 60.3525 383.569 59.7998C383.517 59.2435 383.279 58.7209 382.856 58.2322C382.748 58.1068 382.605 57.9646 382.425 57.8055C382.253 57.6457 382.089 57.5021 381.933 57.3747L380.221 55.9732L374.697 62.7224ZM384.086 71.6792L391.12 64.0928L391.731 64.6594L390.092 75.2395L396.125 68.7331L396.736 69.2997L389.702 76.8861L389.091 76.3195L390.739 65.7289L384.697 72.2458L384.086 71.6792ZM391.672 78.7705L399.019 71.4868L403.521 76.0275L402.949 76.594L399.029 72.64L396.238 75.4068L399.551 78.7486L398.98 79.3151L395.667 75.9733L392.825 78.7907L396.745 82.7447L396.174 83.3112L391.672 78.7705ZM399.716 87.0863L404.856 77.3892L405.449 78.0346L400.819 86.7568L409.916 82.8968L410.509 83.5422L400.411 87.8429L399.716 87.0863ZM404.076 91.8943L411.982 85.2214L416.106 90.1075L415.491 90.6265L411.9 86.3718L408.897 88.9065L411.932 92.5025L411.317 93.0215L408.282 89.4255L405.224 92.0066L408.815 96.2614L408.2 96.7804L404.076 91.8943ZM409.748 98.6764L417.912 92.3216L420.308 95.3999C420.37 95.4793 420.432 95.5672 420.496 95.6638C420.565 95.7613 420.63 95.8684 420.691 95.9851C420.944 96.4433 421.069 96.9076 421.065 97.3781C421.068 97.8494 420.956 98.2979 420.729 98.7235C420.505 99.1462 420.186 99.5194 419.77 99.843C419.169 100.311 418.521 100.558 417.825 100.584C417.129 100.609 416.496 100.382 415.928 99.9019L415.709 99.7722L413.436 96.8526L410.256 99.3283L409.748 98.6764ZM413.663 103.705L415.732 99.5088L416.51 99.8771L414.259 104.47L413.663 103.705ZM414.077 96.3539L415.957 98.769C416.01 98.837 416.074 98.9115 416.149 98.9926C416.227 99.0774 416.309 99.1593 416.395 99.2382C416.685 99.4859 416.995 99.6389 417.326 99.6972C417.66 99.7525 417.992 99.7307 418.322 99.6319C418.652 99.533 418.956 99.3747 419.236 99.157C419.516 98.9393 419.742 98.6842 419.915 98.3918C420.092 98.0964 420.192 97.7813 420.217 97.4465C420.246 97.1088 420.175 96.769 420.006 96.4271C419.955 96.3217 419.897 96.2207 419.834 96.1241C419.774 96.0313 419.717 95.9509 419.664 95.8828L417.785 93.4678L414.077 96.3539ZM417.842 109.329L426.341 103.431L426.812 104.11L418.974 109.549L421.841 113.68L421.18 114.139L417.842 109.329ZM424.132 119.13C423.579 118.261 423.306 117.41 423.315 116.575C423.327 115.739 423.58 114.953 424.072 114.22C424.565 113.486 425.257 112.835 426.15 112.267C427.043 111.698 427.926 111.346 428.799 111.211C429.673 111.075 430.489 111.18 431.248 111.525C432.012 111.869 432.67 112.474 433.223 113.343C433.776 114.212 434.045 115.062 434.03 115.895C434.021 116.729 433.771 117.513 433.278 118.247C432.786 118.981 432.093 119.632 431.2 120.2C430.307 120.768 429.424 121.12 428.551 121.256C427.678 121.392 426.86 121.288 426.096 120.945C425.34 120.604 424.685 119.998 424.132 119.13ZM424.817 118.694C425.268 119.412 425.809 119.905 426.44 120.173C427.074 120.439 427.758 120.506 428.492 120.374C429.226 120.242 429.97 119.936 430.726 119.455C431.481 118.974 432.074 118.429 432.504 117.82C432.934 117.211 433.161 116.564 433.185 115.879C433.209 115.194 432.993 114.494 432.538 113.779C432.087 113.061 431.546 112.568 430.915 112.3C430.287 112.035 429.604 111.97 428.866 112.105C428.133 112.237 427.386 112.539 426.625 113.012C425.864 113.485 425.269 114.026 424.839 114.635C424.415 115.245 424.191 115.896 424.166 116.587C424.144 117.277 424.361 117.979 424.817 118.694ZM429.814 128.519C429.303 127.624 429.073 126.761 429.121 125.928C429.174 125.093 429.464 124.32 429.992 123.612C430.519 122.903 431.243 122.286 432.162 121.761C433.082 121.237 433.981 120.928 434.859 120.835C435.738 120.742 436.548 120.886 437.29 121.268C438.036 121.647 438.664 122.284 439.174 123.179C439.684 124.073 439.912 124.936 439.857 125.767C439.808 126.6 439.52 127.371 438.992 128.08C438.465 128.789 437.741 129.405 436.822 129.93C435.903 130.454 435.004 130.763 434.125 130.857C433.246 130.95 432.434 130.807 431.688 130.427C430.949 130.049 430.324 129.413 429.814 128.519ZM430.519 128.116C430.935 128.855 431.451 129.374 432.068 129.673C432.689 129.969 433.369 130.069 434.109 129.973C434.848 129.876 435.606 129.606 436.384 129.162C437.162 128.719 437.781 128.203 438.24 127.616C438.699 127.029 438.957 126.394 439.014 125.71C439.071 125.027 438.889 124.318 438.469 123.581C438.053 122.842 437.537 122.324 436.92 122.025C436.305 121.731 435.626 121.633 434.883 121.731C434.144 121.828 433.383 122.093 432.6 122.529C431.817 122.964 431.196 123.476 430.737 124.063C430.285 124.652 430.029 125.291 429.971 125.981C429.916 126.668 430.099 127.38 430.519 128.116ZM433.36 134.389L442.56 129.657L442.938 130.392L438.568 132.639L445.189 134.768L445.688 135.739L439.003 133.611L436.686 140.854L436.18 139.87L438.44 132.705L433.738 135.124L433.36 134.389ZM437.438 142.407L446.822 138.051L449.514 143.85L448.784 144.189L446.44 139.139L442.876 140.794L444.857 145.062L444.127 145.401L442.146 141.132L438.516 142.817L440.861 147.868L440.131 148.206L437.438 142.407ZM441.123 150.444L450.683 146.49L451.86 149.338C451.906 149.449 451.978 149.629 452.076 149.879C452.176 150.133 452.255 150.38 452.313 150.621C452.512 151.378 452.488 152.085 452.242 152.741C451.999 153.396 451.588 153.981 451.008 154.495C450.432 155.008 449.737 155.433 448.923 155.77C448.104 156.109 447.308 156.301 446.533 156.346C445.764 156.39 445.062 156.265 444.428 155.973C443.794 155.681 443.28 155.196 442.886 154.519C442.761 154.307 442.642 154.074 442.527 153.821C442.418 153.57 442.343 153.394 442.3 153.292L441.123 150.444ZM442.205 150.937L443.051 152.982C443.133 153.181 443.223 153.385 443.319 153.594C443.42 153.801 443.515 153.974 443.604 154.114C443.956 154.663 444.388 155.044 444.901 155.256C445.418 155.467 445.99 155.54 446.615 155.473C447.247 155.408 447.904 155.235 448.585 154.953C449.271 154.67 449.858 154.328 450.346 153.93C450.839 153.529 451.192 153.072 451.404 152.559C451.622 152.044 451.659 151.471 451.518 150.841C451.482 150.679 451.423 150.486 451.34 150.261C451.264 150.039 451.187 149.834 451.11 149.649L450.265 147.604L442.205 150.937ZM446.248 163.267L456.02 159.872L457.319 163.612C457.495 164.118 457.544 164.611 457.467 165.089C457.396 165.57 457.215 165.99 456.924 166.35C456.635 166.714 456.257 166.977 455.791 167.139C455.266 167.321 454.743 167.341 454.222 167.197C453.705 167.052 453.28 166.769 452.946 166.348L453.262 166.207C453.291 166.917 453.142 167.539 452.815 168.074C452.495 168.611 452 168.996 451.33 169.228C450.769 169.423 450.244 169.466 449.755 169.357C449.272 169.251 448.847 169.019 448.478 168.66C448.115 168.3 447.837 167.843 447.646 167.291L446.248 163.267ZM447.288 163.788L448.323 166.767C448.474 167.201 448.684 167.565 448.952 167.857C449.223 168.153 449.533 168.352 449.882 168.454C450.233 168.56 450.608 168.544 451.006 168.406C451.4 168.269 451.723 168.053 451.975 167.757C452.233 167.465 452.401 167.13 452.478 166.753C452.56 166.375 452.533 165.992 452.398 165.602L451.285 162.399L447.288 163.788ZM452.038 162.138L453.062 165.083C453.179 165.422 453.366 165.705 453.622 165.93C453.879 166.16 454.173 166.312 454.503 166.385C454.837 166.456 455.18 166.431 455.533 166.308C456.035 166.134 456.378 165.814 456.562 165.35C456.747 164.89 456.747 164.396 456.563 163.866L455.54 160.921L452.038 162.138ZM449.099 171.515L460.06 172.071L460.353 173.056L451.486 179.522L451.235 178.682L459.731 172.476L459.85 172.876L449.349 172.355L449.099 171.515ZM452.024 172.225L452.775 172.001L454.293 177.096L453.543 177.319L452.024 172.225ZM452.733 185.245C452.482 184.246 452.492 183.352 452.763 182.563C453.039 181.773 453.526 181.108 454.225 180.567C454.923 180.026 455.786 179.626 456.813 179.368C457.839 179.11 458.788 179.055 459.66 179.201C460.531 179.348 461.273 179.705 461.884 180.272C462.5 180.838 462.934 181.621 463.185 182.62C463.478 183.785 463.413 184.807 462.992 185.683C462.571 186.564 461.887 187.262 460.94 187.776L460.529 186.998C461.316 186.573 461.883 186.006 462.228 185.297C462.579 184.591 462.636 183.765 462.398 182.817C462.191 181.995 461.831 181.357 461.317 180.904C460.804 180.455 460.178 180.175 459.439 180.064C458.702 179.958 457.898 180.012 457.028 180.225C456.157 180.434 455.421 180.76 454.821 181.202C454.227 181.647 453.809 182.195 453.567 182.843C453.33 183.49 453.314 184.225 453.521 185.047C453.759 185.995 454.199 186.697 454.842 187.152C455.486 187.613 456.253 187.845 457.143 187.848L457.149 188.728C456.071 188.723 455.139 188.431 454.351 187.853C453.566 187.28 453.026 186.411 452.733 185.245ZM454.543 191.744L464.677 189.661L464.843 190.47L460.03 191.46L465.834 195.291L466.054 196.361L460.187 192.513L456.007 198.866L455.784 197.782L459.889 191.489L454.709 192.553L454.543 191.744ZM456.357 200.731L457.382 200.55L457.563 201.576L456.538 201.757L456.357 200.731Z" fill="#0F0F0F"/>
</svg>
